<svg data-slug-id="aks-cluster" viewBox="0 0 48 48" xmlns="http://www.w3.org/2000/svg">
<path d="M16.0519 9.93507V18.2828L8.84766 14.0518V5.81836L16.0519 9.93507Z" fill="#0078D4"/>
<path d="M16.0508 9.93507L23.1407 5.81836V14.0518L16.0508 18.2828V9.93507Z" fill="#185A97"/>
<path d="M8.84766 5.817L15.9375 1.58594L23.1418 5.817L16.0519 9.93371L8.84766 5.817Z" fill="#2195DC"/>
<path d="M23.9408 23.9986V32.5751L16.5078 28.3441V19.7676L23.9408 23.9986Z" fill="#0078D4"/>
<path d="M23.9414 23.9986L31.26 19.7676V28.3441L23.9414 32.5751V23.9986Z" fill="#185A97"/>
<path d="M16.5078 19.7673L23.8264 15.4219L31.2594 19.7673L23.9408 23.9984L16.5078 19.7673Z" fill="#2195DC"/>
<path d="M40.2895 23.9986V32.5751L32.7422 28.3441L32.8565 19.7676L40.2895 23.9986Z" fill="#0078D4"/>
<path d="M40.293 23.9986L47.4972 19.7676V28.3441L40.293 32.5751V23.9986Z" fill="#185A97"/>
<path d="M32.8594 19.7673L40.0636 15.4219L47.4966 19.7673L40.2923 23.9984L32.8594 19.7673Z" fill="#2195DC"/>
<path d="M7.92904 23.9986V32.4608L0.496094 28.2297V19.7676L7.92904 23.9986Z" fill="#0078D4"/>
<path d="M7.92969 23.9986L15.1339 19.7676L15.0196 28.2297L7.92969 32.4608V23.9986Z" fill="#185A97"/>
<path d="M0.496094 19.7701L7.70034 15.5391L15.1333 19.7701L7.92904 24.0012L0.496094 19.7701Z" fill="#2195DC"/>
<path d="M32.0619 9.93419L31.9475 18.3963L24.6289 14.1653V5.70312L32.0619 9.93419Z" fill="#0078D4"/>
<path d="M32.0597 9.93419L39.1496 5.70312V14.1653L31.9453 18.3963L32.0597 9.93419Z" fill="#185A97"/>
<path d="M24.6289 5.70372L31.8331 1.47266L39.1517 5.70372L32.0619 9.93478L24.6289 5.70372Z" fill="#2195DC"/>
<path d="M16.0519 38.0659V46.2994L8.84766 42.1826V33.9492L16.0519 38.0659Z" fill="#0078D4"/>
<path d="M16.0508 38.0659L23.1407 33.9492V42.1826L16.0508 46.2994V38.0659Z" fill="#185A97"/>
<path d="M8.84766 33.9459L15.9375 29.7148L23.1418 33.9459L16.0519 38.0626L8.84766 33.9459Z" fill="#2195DC"/>
<path d="M32.0619 38.065L31.9475 46.5272L24.6289 42.2961V33.834L32.0619 38.065Z" fill="#0078D4"/>
<path d="M32.0597 38.065L39.1496 33.834V42.2961L31.9453 46.5272L32.0597 38.065Z" fill="#185A97"/>
<path d="M24.6289 33.8326L31.8331 29.6016L39.1517 33.8326L32.0619 38.0637L24.6289 33.8326Z" fill="#2195DC"/>
</svg>
