<svg data-slug-id="alert06" viewBox="0 0 49 49" xmlns="http://www.w3.org/2000/svg">
<circle cx="24.5862" cy="24.1897" r="21.7795" fill="#0078D4"/>
<path d="M24.5997 43.3849C14.175 43.3849 5.72324 34.9499 5.72324 24.5503C5.72324 14.1507 14.175 5.71565 24.5997 5.71565C35.0243 5.71565 43.4677 14.1507 43.4677 24.5503C43.4677 34.9499 35.016 43.3849 24.5997 43.3849ZM24.608 0.691406C11.4581 0.691406 0.799316 11.3502 0.799316 24.5001C0.799316 37.6501 11.4581 48.3088 24.608 48.3088C37.758 48.3088 48.4167 37.6501 48.4167 24.5001C48.4167 11.3502 37.7496 0.691406 24.608 0.691406Z" fill="#0078D4"/>
<path d="M35.9104 13.1891L29.6155 13.1641L17.0257 25.7539L23.3206 25.7706L13.3223 35.769L19.6172 35.7857L32.1569 23.2627L25.862 23.2376L35.9104 13.1891Z" fill="#50E6FF"/>
</svg>
