<svg data-slug-id="alert02" viewBox="0 0 48 49" xmlns="http://www.w3.org/2000/svg">
<path d="M35.3336 13.168H12.666V35.8356H35.3336V13.168Z" fill="#50E6FF"/>
<path d="M24.0002 0.734375C10.8786 0.734375 0.236328 11.3767 0.236328 24.4983C0.236328 37.6198 10.8702 48.2621 24.0002 48.2621C37.1218 48.2621 47.7641 37.6283 47.7641 24.4983C47.7641 11.3767 37.1218 0.734375 24.0002 0.734375ZM5.29606 24.4983C5.29606 19.506 7.24406 14.8089 10.7774 11.2755C14.3108 7.74211 19.0079 5.79411 24.0002 5.79411C28.2167 5.79411 32.2223 7.18553 35.4942 9.7407L9.24265 35.9923C6.68749 32.7203 5.29606 28.7147 5.29606 24.4983ZM37.223 37.721C33.6896 41.2544 28.9925 43.2024 24.0002 43.2024C19.9356 43.2024 16.0649 41.9122 12.8688 39.5341L39.036 13.3668C41.4226 16.5713 42.7043 20.4336 42.7043 24.4983C42.7043 29.4905 40.7564 34.1876 37.223 37.721Z" fill="#0075DA"/>
</svg>
