<svg data-slug-id="alert01" viewBox="0 0 48 49" xmlns="http://www.w3.org/2000/svg">
<path d="M24.0002 5.79411C28.9925 5.79411 33.6896 7.74211 37.223 11.2755C40.7564 14.8089 42.7043 19.506 42.7043 24.4983C42.7043 29.4905 40.7564 34.1876 37.223 37.721C33.6896 41.2544 28.9925 43.2024 24.0002 43.2024C19.0079 43.2024 14.3108 41.2544 10.7774 37.721C7.24406 34.1876 5.29606 29.4905 5.29606 24.4983C5.29606 19.506 7.24406 14.8089 10.7774 11.2755C14.3108 7.74211 19.0079 5.79411 24.0002 5.79411ZM24.0002 0.734375C10.8786 0.734375 0.236328 11.3767 0.236328 24.4983C0.236328 37.6198 10.8786 48.2621 24.0002 48.2621C37.1218 48.2621 47.7641 37.6283 47.7641 24.4983C47.7641 11.3682 37.1218 0.734375 24.0002 0.734375Z" fill="#0075DA"/>
<path d="M37.3707 7.86577L8.40895 36.8276L11.9867 40.4053L40.9485 11.4435L37.3707 7.86577Z" fill="#0075DA"/>
</svg>
