<svg data-slug-id="alert04" viewBox="0 0 48 49" xmlns="http://www.w3.org/2000/svg">
<path d="M45.4669 44.4105H2.71572C1.66206 44.4105 1.01816 43.2593 1.5645 42.3617L23.145 7.23975C23.5547 6.57633 24.5108 6.57633 24.9206 7.23975L46.6182 42.3422C47.1645 43.2397 46.5206 44.4105 45.4669 44.4105Z" fill="#0078D4"/>
<path d="M24.1012 40.8204C23.4378 40.8204 22.8915 40.6058 22.4232 40.196C21.9549 39.7668 21.7402 39.2595 21.7402 38.6546C21.7402 38.0302 21.9744 37.5034 22.4232 37.0546C22.8915 36.6253 23.4378 36.3912 24.1012 36.3912C24.7451 36.3912 25.2915 36.6058 25.7597 37.0546C26.228 37.4838 26.4622 38.0302 26.4622 38.6546C26.4622 39.2595 26.228 39.7668 25.7597 40.196C25.2915 40.6253 24.7451 40.8204 24.1012 40.8204ZM25.9354 16.9375L25.6232 33.5814H22.5012L22.0719 16.9375H25.9354Z" fill="#50E6FF"/>
</svg>
