<svg data-slug-id="alert03" viewBox="0 0 48 49" xmlns="http://www.w3.org/2000/svg">
<path d="M24.167 47.7717C36.9089 47.7717 47.2433 37.4373 47.2433 24.6954C47.2433 11.9536 36.9382 1.58984 24.167 1.58984C11.4252 1.58984 1.09082 11.9242 1.09082 24.6661C1.09082 37.4079 11.4252 47.7717 24.167 47.7717Z" fill="#50E6FF"/>
<path d="M24.1672 43.4585C34.531 43.4585 42.9571 35.0618 42.9571 24.6687C42.9571 14.2756 34.5604 5.87891 24.1672 5.87891C13.8035 5.87891 5.37744 14.2756 5.37744 24.6687C5.37744 35.0618 13.8035 43.4585 24.1672 43.4585Z" fill="#0078D4"/>
<path d="M37.3785 8.60938L8.31299 37.4987L11.748 40.9631L40.608 12.2793C39.5217 11.0462 38.3473 9.72502 37.3785 8.60938Z" fill="#50E6FF"/>
</svg>
