<svg data-slug-id="anomaly-detector01" viewBox="0 0 48 48" xmlns="http://www.w3.org/2000/svg">
<g clip-path="url(#anomaly-detector01_clip0)">
<path d="M47.4668 43.0427L39.6588 35.232C42.8704 31.4714 44.5261 26.6269 44.2878 21.6872C44.0494 16.7475 41.9352 12.0849 38.3764 8.65091C34.8176 5.2169 30.0826 3.27029 25.1375 3.20834C20.1925 3.14639 15.4102 4.97376 11.7665 8.31754C8.12278 11.6613 5.89237 16.2695 5.53039 21.2017C5.16841 26.1338 6.70214 31.0183 9.8186 34.8582C12.9351 38.6981 17.3994 41.2041 22.3005 41.8648C27.2016 42.5255 32.1701 41.291 36.1921 38.4134L44.1414 46.3627C44.5534 46.7737 45.1115 47.0045 45.6934 47.0045C46.2753 47.0045 46.8335 46.7737 47.2454 46.3627L47.4588 46.1467C47.6634 45.9436 47.826 45.7021 47.9372 45.4361C48.0484 45.1701 48.1061 44.8847 48.1068 44.5964C48.1075 44.308 48.0514 44.0224 47.9416 43.7558C47.8317 43.4892 47.6704 43.2468 47.4668 43.0427Z" fill="url(#anomaly-detector01_paint0_linear)"/>
<path d="M24.9548 37.88C33.298 37.88 40.0615 31.1165 40.0615 22.7734C40.0615 14.4302 33.298 7.66669 24.9548 7.66669C16.6116 7.66669 9.84814 14.4302 9.84814 22.7734C9.84814 31.1165 16.6116 37.88 24.9548 37.88Z" fill="white"/>
<path d="M32.5042 24.048L28.1575 34.128L23.7815 21.1414L19.9015 28.5334L15.3975 20.9174H8.64551C8.77113 20.063 8.96917 19.2208 9.23751 18.4H16.8402L19.7735 23.3547L24.2882 14.736L28.4482 27.0747L30.8028 20.7627H33.5815L36.9388 26.864H39.4322C39.2378 27.727 38.9701 28.5718 38.6322 29.3894H35.4428L32.5042 24.048Z" fill="#50E6FF"/>
<path d="M36.1308 19.0934H30.3282C30.1191 17.138 29.3939 15.2734 28.2268 13.6907C26.537 11.4494 24.071 9.92009 21.3122 9.40269V3.49602C21.3122 3.0692 21.1426 2.65986 20.8408 2.35805C20.539 2.05624 20.1296 1.88669 19.7028 1.88669C19.276 1.88669 18.8667 2.05624 18.5648 2.35805C18.263 2.65986 18.0935 3.0692 18.0935 3.49602V9.28269C15.5601 9.52372 13.1874 10.6313 11.3758 12.4186C9.56424 14.2059 8.4247 16.5634 8.14949 19.0934H1.71749C1.29067 19.0934 0.881326 19.2629 0.579517 19.5647C0.277709 19.8665 0.108154 20.2759 0.108154 20.7027C0.108154 21.1295 0.277709 21.5388 0.579517 21.8407C0.881326 22.1425 1.29067 22.312 1.71749 22.312H8.26682C8.54436 24.05 9.23479 25.6961 10.2802 27.112C12.0646 29.4745 14.7079 31.039 17.6375 31.4667V37.4294C17.6375 37.8562 17.807 38.2655 18.1089 38.5673C18.4107 38.8691 18.82 39.0387 19.2468 39.0387C19.6736 39.0387 20.083 38.8691 20.3848 38.5673C20.6866 38.2655 20.8562 37.8562 20.8562 37.4294V31.4667C23.1939 31.1373 25.3659 30.0715 27.0567 28.4238C28.7475 26.7762 29.8692 24.6325 30.2588 22.304H36.1255C36.5523 22.304 36.9617 22.1345 37.2635 21.8327C37.5653 21.5308 37.7348 21.1215 37.7348 20.6947C37.7348 20.2679 37.5653 19.8585 37.2635 19.5567C36.9617 19.2549 36.5523 19.0854 36.1255 19.0854L36.1308 19.0934ZM24.1948 27.0187C22.8852 27.9976 21.3148 28.5661 19.6821 28.6525C18.0494 28.7388 16.4277 28.3391 15.0222 27.5038C13.6167 26.6685 12.4904 25.4352 11.7858 23.9598C11.0812 22.4844 10.83 20.8333 11.0638 19.2151C11.2976 17.5969 12.0061 16.0844 13.0995 14.8688C14.193 13.6533 15.6223 12.7892 17.2068 12.386C18.7913 11.9828 20.4598 12.0585 22.0012 12.6035C23.5427 13.1486 24.8879 14.1384 25.8668 15.448C26.5229 16.3152 27.0005 17.3039 27.2717 18.3569C27.543 19.4099 27.6026 20.5063 27.4471 21.5825C27.2915 22.6587 26.924 23.6934 26.3657 24.6265C25.8075 25.5597 25.0696 26.3728 24.1948 27.0187Z" fill="#FAA21D"/>
</g>
<defs>
<linearGradient id="anomaly-detector01_paint0_linear" x1="26.8908" y1="3.49069" x2="26.8908" y2="47.0054" gradientUnits="userSpaceOnUse">
<stop stop-color="#5EA0EF"/>
<stop offset="1" stop-color="#0078D4"/>
</linearGradient>
<clipPath id="anomaly-detector01_clip0">
<rect width="48" height="48" fill="white"/>
</clipPath>
</defs>
</svg>
