<svg data-slug-id="apache-cassandra" viewBox="0 0 48 48" xmlns="http://www.w3.org/2000/svg">
<path d="M15.7942 8.31409L14.5562 10.6156L29.0769 18.426L30.3149 16.1245L15.7942 8.31409Z" fill="#003067"/>
<path d="M18.8824 11.2V4H0.879684V11.2C0.879684 13.1093 4.90902 14.6667 9.88237 14.6667C14.8557 14.6667 18.885 13.12 18.885 11.2H18.8824Z" fill="url(#apache-cassandra_paint0_linear)"/>
<path d="M9.88547 7.57925C14.8575 7.57925 18.8882 6.03192 18.8882 4.12325C18.8882 2.21454 14.8575 0.667236 9.88547 0.667236C4.91344 0.667236 0.882812 2.21454 0.882812 4.12325C0.882812 6.03192 4.91344 7.57925 9.88547 7.57925Z" fill="#83B9F9"/>
<path d="M42.9734 22.9766V15.7766H24.9734V22.9766C24.9734 24.8859 29.0028 26.4433 33.976 26.4433C38.9494 26.4433 42.9789 24.8966 42.9789 22.9766H42.9734Z" fill="url(#apache-cassandra_paint1_linear)"/>
<path d="M33.976 19.3495C38.9482 19.3495 42.9789 17.8022 42.9789 15.8935C42.9789 13.9848 38.9482 12.4375 33.976 12.4375C29.0041 12.4375 24.9734 13.9848 24.9734 15.8935C24.9734 17.8022 29.0041 19.3495 33.976 19.3495Z" fill="#83B9F9"/>
<path d="M11.1992 11.1156H8.58594V32.3475H11.1992V11.1156Z" fill="#003067"/>
<path d="M9.99941 11.9848C11.7034 11.9848 13.0848 10.6034 13.0848 8.89943C13.0848 7.19546 11.7034 5.81409 9.99941 5.81409C8.29544 5.81409 6.91406 7.19546 6.91406 8.89943C6.91406 10.6034 8.29544 11.9848 9.99941 11.9848Z" fill="#C3F1FF"/>
<path d="M18.8824 34.1984V26.9984H0.879684V34.1984C0.879684 36.1078 4.90902 37.6649 9.88237 37.6649C14.8557 37.6649 18.885 36.1184 18.885 34.1984H18.8824Z" fill="url(#apache-cassandra_paint2_linear)"/>
<path d="M9.88547 30.5683C14.8575 30.5683 18.8882 29.021 18.8882 27.1123C18.8882 25.2035 14.8575 23.6562 9.88547 23.6562C4.91344 23.6562 0.882812 25.2035 0.882812 27.1123C0.882812 29.021 4.91344 30.5683 9.88547 30.5683Z" fill="#83B9F9"/>
<path d="M33.9597 18.8496L10.6406 30.2938L11.792 32.6397L35.111 21.1957L33.9597 18.8496Z" fill="#003067"/>
<path d="M9.86969 34.9239C11.5737 34.9239 12.955 33.5425 12.955 31.8385C12.955 30.1345 11.5737 28.7532 9.86969 28.7532C8.16572 28.7532 6.78438 30.1345 6.78438 31.8385C6.78438 33.5425 8.16572 34.9239 9.86969 34.9239Z" fill="#C3F1FF"/>
<path d="M33.9808 23.2144C35.6845 23.2144 37.0659 21.833 37.0659 20.129C37.0659 18.425 35.6845 17.0437 33.9808 17.0437C32.2768 17.0437 30.8953 18.425 30.8953 20.129C30.8953 21.833 32.2768 23.2144 33.9808 23.2144Z" fill="#C3F1FF"/>
<path d="M45.7757 41.3337C45.769 41.2374 45.7418 41.1433 45.6957 41.0582C45.6496 40.9734 45.5862 40.8989 45.5091 40.8403C44.2429 39.5939 42.9046 38.423 41.5011 37.3337C40.5101 36.5728 39.3786 36.0147 38.1712 35.6918C36.9642 35.3686 35.7053 35.287 34.4666 35.4512C30.9231 36.1331 27.7541 38.0937 25.5625 40.9603C25.4691 41.063 25.4144 41.1952 25.4078 41.3337C25.4151 41.4304 25.4426 41.5248 25.4885 41.6102C25.5345 41.6957 25.5978 41.7702 25.6745 41.8297C26.9454 43.0752 28.2872 44.2461 29.6932 45.3363C31.6949 46.8713 34.2243 47.5485 36.7251 47.2192C40.2685 46.5366 43.4371 44.576 45.6291 41.7097C45.7232 41.6061 45.7786 41.4736 45.7866 41.3337H45.7757Z" fill="#003067"/>
<path d="M35.6819 46.2595C38.4007 46.2595 40.6048 44.0553 40.6048 41.3366C40.6048 38.6179 38.4007 36.4141 35.6819 36.4141C32.9632 36.4141 30.7594 38.6179 30.7594 41.3366C30.7594 44.0553 32.9632 46.2595 35.6819 46.2595Z" fill="#C3F1FF"/>
<path d="M35.703 38.608C35.5731 38.623 35.4448 38.6489 35.319 38.6854C35.4822 38.9133 35.575 39.184 35.5859 39.464C35.5849 39.8589 35.4278 40.2374 35.1481 40.5165C34.8688 40.7952 34.4899 40.952 34.095 40.952C33.7312 40.9497 33.3814 40.8118 33.1139 40.5654C33.0173 40.8217 32.9616 41.0915 32.9485 41.3654C32.9478 41.9129 33.1097 42.4483 33.4137 42.904C33.7174 43.3593 34.1494 43.7145 34.6553 43.9245C35.1609 44.1344 35.7177 44.1897 36.2547 44.0832C36.792 43.9766 37.2854 43.7133 37.6726 43.3261C38.0601 42.9392 38.3241 42.4461 38.431 41.9091C38.5379 41.3718 38.4835 40.8153 38.2739 40.3094C38.0646 39.8035 37.7097 39.3709 37.2544 39.0665C36.7993 38.7625 36.264 38.6 35.7165 38.6L35.703 38.608Z" fill="#003067"/>
<path d="M46.7434 35.9254C45.2336 34.5392 43.4925 33.4281 41.5994 32.6425L42.7648 30.5733C42.9197 30.2977 42.9619 29.9727 42.8819 29.6667C42.8208 29.4435 42.695 29.2433 42.5206 29.0912C42.3462 28.9391 42.1306 28.8418 41.9011 28.8117C41.6717 28.7815 41.4384 28.8197 41.2307 28.9215C41.0227 29.0233 40.8496 29.1842 40.7328 29.384L39.3059 31.9227C38.5053 31.7304 37.6899 31.6029 36.8688 31.5413V28.9413C36.8544 28.6388 36.7238 28.3534 36.5046 28.1444C36.2854 27.9353 35.9942 27.8187 35.6915 27.8187C35.3885 27.8187 35.0973 27.9353 34.8781 28.1444C34.6589 28.3534 34.5283 28.6388 34.5139 28.9413V31.5387C33.6749 31.5996 32.8419 31.728 32.0234 31.9227L30.5941 29.384C30.4361 29.1177 30.1798 28.9243 29.8804 28.8454C29.581 28.7666 29.2626 28.8087 28.9941 28.9627C28.7315 29.1239 28.541 29.38 28.462 29.6779C28.3831 29.9757 28.4218 30.2925 28.57 30.5627C28.9594 31.2507 29.3478 31.9405 29.7354 32.632C27.8403 33.4169 26.0975 34.528 24.586 35.9145C23.4607 36.9334 25.1194 38.5814 26.25 37.5785C28.8085 35.1945 32.1757 33.8688 35.6726 33.8688C39.1699 33.8688 42.537 35.1945 45.0954 37.5785C46.2019 38.6025 47.8688 36.944 46.7434 35.9254Z" fill="#003067"/>
<defs>
<linearGradient id="apache-cassandra_paint0_linear" x1="9.88502" y1="13.6613" x2="9.88502" y2="5.496" gradientUnits="userSpaceOnUse">
<stop stop-color="#0078D4"/>
<stop offset="1" stop-color="#5EA0EF"/>
</linearGradient>
<linearGradient id="apache-cassandra_paint1_linear" x1="254.379" y1="128.395" x2="254.379" y2="70.8272" gradientUnits="userSpaceOnUse">
<stop stop-color="#0078D4"/>
<stop offset="1" stop-color="#5EA0EF"/>
</linearGradient>
<linearGradient id="apache-cassandra_paint2_linear" x1="67.6256" y1="173.377" x2="67.6256" y2="137.697" gradientUnits="userSpaceOnUse">
<stop stop-color="#0078D4"/>
<stop offset="1" stop-color="#5EA0EF"/>
</linearGradient>
</defs>
</svg>
