<svg data-slug-id="app-service-environments" viewBox="0 0 37 37" xmlns="http://www.w3.org/2000/svg">
    <path d="M17.369 17.5016H1.0459V3.59911C1.04587 2.97977 1.29281 2.38548 1.73298 1.94554C2.17314 1.50561 2.77092 1.25563 3.39625 1.25H17.369V17.5016ZM3.07281 15.4941H15.3421V3.21471H3.39625C3.31047 3.21471 3.2282 3.24846 3.16754 3.30853C3.10688 3.36861 3.07281 3.45008 3.07281 3.53504V15.4941Z" fill="#B3B3B3"/>
    <path d="M35.5448 17.5016H19.2217V1.25H33.1944C33.8198 1.25563 34.4175 1.50561 34.8577 1.94554C35.2979 2.38548 35.5448 2.97977 35.5448 3.59911V17.5016ZM21.2486 15.4941H33.5179V3.59911C33.5276 3.55203 33.5265 3.50339 33.5146 3.45679C33.5028 3.41018 33.4805 3.36682 33.4494 3.3299C33.4184 3.29299 33.3793 3.26347 33.3352 3.24353C33.291 3.22359 33.2429 3.21374 33.1944 3.21471H21.2486V15.4941Z" fill="#B3B3B3"/>
    <path d="M17.369 35.4231H3.39625C2.77662 35.4231 2.18204 35.1808 1.74188 34.7489C1.30172 34.3169 1.05158 33.7303 1.0459 33.1167V19.1929H17.369V35.4231ZM3.07281 21.2003V33.1167C3.07281 33.2016 3.10688 33.2831 3.16754 33.3432C3.2282 33.4033 3.31047 33.437 3.39625 33.437H15.3421V21.2003H3.07281Z" fill="#B3B3B3"/>
    <path d="M33.1944 35.4231H19.2217V19.1929H35.5448V33.1167C35.5391 33.7303 35.289 34.3169 34.8488 34.7489C34.4086 35.1808 33.8141 35.4231 33.1944 35.4231V35.4231ZM21.2486 33.4157H33.1944C33.2802 33.4157 33.3625 33.3819 33.4231 33.3218C33.4838 33.2618 33.5179 33.1803 33.5179 33.0953V21.2003H21.2486V33.4157Z" fill="#B3B3B3"/>
    <path d="M30.5216 21.628C30.49 20.3246 29.9945 19.0741 29.1226 18.0973C28.2507 17.1205 27.0584 16.4801 25.7562 16.2892C25.6886 14.4727 24.9021 12.7555 23.5666 11.5087C22.231 10.2619 20.4537 9.58573 18.6188 9.62623C17.1423 9.61061 15.6971 10.0475 14.4811 10.8772C13.2651 11.7068 12.3379 12.8885 11.8265 14.2604C10.2557 14.4743 8.81394 15.2378 7.76197 16.4128C6.71 17.5879 6.11722 19.0969 6.09082 20.667C6.15276 22.4174 6.91031 24.0727 8.19858 25.2726C9.48685 26.4725 11.2015 27.1198 12.9694 27.0737H24.7643H25.0661C26.5065 27.0303 27.8753 26.4414 28.8902 25.4282C29.9052 24.415 30.4891 23.0549 30.5216 21.628V21.628Z" fill="url(#app-service-environments_2123c2b5-6aa3-4639-9133-22fac7cd23a2)"/>
    <defs>
        <linearGradient id="app-service-environments_2123c2b5-6aa3-4639-9133-22fac7cd23a2" x1="18.2954" y1="6.89272" x2="18.2954" y2="31.0245" gradientUnits="userSpaceOnUse">
            <stop offset="0.18" stop-color="#5EA0EF"/>
            <stop offset="1" stop-color="#0078D4"/>
        </linearGradient>
    </defs>
</svg>
