<svg data-slug-id="app-service-environments01" viewBox="0 0 48 48" xmlns="http://www.w3.org/2000/svg">
<path fill-rule="evenodd" clip-rule="evenodd" d="M19.688 42.9199H5.08V28.3999H8.072C7.71208 27.4751 7.53256 26.4895 7.544 25.4959V25.3199H2V45.9999H22.768V33.6799H19.688V42.9199Z" fill="#9FA0A1"/>
<path fill-rule="evenodd" clip-rule="evenodd" d="M40.2799 28.3999H42.9199V43.0079H28.3119V33.7679H25.2319V45.9999H45.9999V25.3199H39.4879C39.9869 26.2079 40.2588 27.2058 40.2799 28.2239V28.3999Z" fill="#9FA0A1"/>
<path fill-rule="evenodd" clip-rule="evenodd" d="M5.08 19.6V5.08H19.688V13.528C20.605 12.8486 21.6539 12.369 22.768 12.12V2H2V22.68H7.984C8.4064 21.5554 9.06728 20.5346 9.92 19.688L5.08 19.6Z" fill="#9FA0A1"/>
<path fill-rule="evenodd" clip-rule="evenodd" d="M28.3119 11.7682V5.08024H42.9199V19.6882H36.4959C36.7837 20.6598 36.9324 21.6674 36.9359 22.6802V22.7682H45.9999V2.00024H25.2319V11.5922C25.4959 11.5922 25.6719 11.5042 25.9359 11.5042C26.7323 11.5482 27.5252 11.6371 28.3119 11.7682Z" fill="#9FA0A1"/>
<path fill-rule="evenodd" clip-rule="evenodd" d="M37.9039 28.1363C37.9083 26.3419 36.4581 24.8847 34.6638 24.8803H34.6479H34.2079C34.4174 24.1349 34.5353 23.3667 34.5599 22.5923C34.5881 17.8095 30.7346 13.9093 25.9518 13.8811C22.181 13.8583 18.8299 16.2783 17.6639 19.8643C17.0391 19.6548 16.3871 19.536 15.7279 19.5123C12.4227 19.5184 9.74922 22.2024 9.75538 25.5077C9.76242 28.8033 12.4323 31.4741 15.7279 31.4803H34.9119C36.6209 31.299 37.9136 29.854 37.9039 28.1363Z" fill="#61B3D4"/>
<path fill-rule="evenodd" clip-rule="evenodd" d="M18.8963 31.4801C16.5749 29.1279 16.5995 25.3395 18.9518 23.018C19.7385 22.241 20.7241 21.698 21.8003 21.4481C22.433 21.2888 23.0913 21.2589 23.7363 21.3601C24.0118 18.3303 25.8457 15.663 28.5763 14.3201C27.7262 14.0315 26.8348 13.8828 25.9363 13.8801C22.199 13.888 18.8928 16.3054 17.7523 19.8641C17.1266 19.6547 16.4754 19.5359 15.8163 19.5121C12.511 19.5183 9.8376 22.2032 9.84376 25.5076C9.84992 28.8032 12.5198 31.474 15.8163 31.4801H18.8963Z" fill="#80C2DC"/>
</svg>
