<svg data-slug-id="application-gateway01" viewBox="0 0 49 49" xmlns="http://www.w3.org/2000/svg">
<path fill-rule="evenodd" clip-rule="evenodd" d="M40.4653 26.6331H32.6639V30.7612L26.8792 24.965L32.6639 19.1678V23.2078H40.4653V26.6331ZM24.162 42.9683L18.3773 37.172H22.4092V28.9167H25.8277V37.172H29.9475L24.162 42.9683ZM7.85955 26.6331V23.2078H15.7481V19.0797L21.5328 24.8768L15.7481 30.6731V26.6331H7.85955ZM24.162 6.78446L29.9475 12.5807H25.9157V21.0123H22.4972V12.5807H18.3773L24.162 6.78446ZM44.8474 21.6278L27.0543 3.79906C26.2659 3.00817 25.2144 2.56909 24.162 2.56909C23.1105 2.56909 22.059 3.00817 21.2706 3.79906L3.47751 21.6278C2.6882 22.4178 2.25 23.4714 2.25 24.525C2.25 25.5795 2.6882 26.6331 3.47751 27.4231L21.3577 45.34C22.147 46.13 23.1105 46.5691 24.25 46.5691C25.3015 46.5691 26.3539 46.13 27.1423 45.34L45.0234 27.4231C45.8118 26.6331 46.25 25.6668 46.25 24.525C46.0749 23.4714 45.6367 22.4178 44.8474 21.6278Z" fill="#0072C6"/>
</svg>
