<svg data-slug-id="apps00" viewBox="0 0 48 48" xmlns="http://www.w3.org/2000/svg">
<g clip-path="url(#apps00_clip0)">
<circle cx="14.0991" cy="32.2032" r="14.0991" transform="rotate(-180 14.0991 32.2032)" fill="#50E6FF"/>
<ellipse cx="33.9009" cy="32.2032" rx="14.0991" ry="14.0991" transform="rotate(-180 33.9009 32.2032)" fill="#50E6FF"/>
<ellipse cx="23.9408" cy="15.7969" rx="14.0991" ry="14.0991" transform="rotate(-90 23.9408 15.7969)" fill="#50E6FF"/>
<path fill-rule="evenodd" clip-rule="evenodd" d="M27.9054 29.331C26.6478 29.6987 25.3174 29.896 23.9409 29.896C17.1384 29.896 11.4611 25.0785 10.1346 18.6692C11.3922 18.3014 12.7226 18.1041 14.0991 18.1041C20.9016 18.1041 26.5789 22.9216 27.9054 29.331Z" fill="#0B95FF"/>
<path fill-rule="evenodd" clip-rule="evenodd" d="M37.7537 18.6369C36.5291 18.2898 35.2367 18.104 33.9009 18.104C30.0424 18.104 26.5458 19.654 24 22.1654C25.9423 24.0814 27.3313 26.5571 27.9053 29.3308C26.6477 29.6986 25.3173 29.8959 23.9408 29.8959C22.605 29.8959 21.3126 29.7101 20.088 29.363C19.9004 30.2804 19.8018 31.2302 19.8018 32.2031C19.8018 36.1312 21.4083 39.6841 24 42.2408C26.5917 39.6841 28.1981 36.1312 28.1981 32.2031C28.1981 31.2188 28.0973 30.2582 27.9053 29.3308C32.8732 27.878 36.705 23.7643 37.7537 18.6369Z" fill="#0B95FF"/>
<path fill-rule="evenodd" clip-rule="evenodd" d="M27.9054 29.3309C26.6477 29.6987 25.3173 29.8959 23.9408 29.8959C22.605 29.8959 21.3126 29.7102 20.088 29.3631C20.658 26.5762 22.0501 24.0889 24 22.1654C25.9424 24.0815 27.3313 26.5571 27.9054 29.3309Z" fill="#0062AD"/>
</g>
<defs>
<clipPath id="apps00_clip0">
<rect width="48" height="48" fill="white"/>
</clipPath>
</defs>
</svg>
