<svg data-slug-id="apps" xmlns="http://www.w3.org/2000/svg" viewBox="0 0 48 48">
    <path d="M44.7016 9.7V8H43.5016C43.4016 7.3 43.1016 6.7 42.8016 6.2L43.7016 5.3L42.5016 4.1L41.6016 5C41.1016 4.6 40.4016 4.4 39.8016 4.2V3H38.1016V4.2C37.4016 4.3 36.8016 4.6 36.3016 5L35.4016 4.1L34.2016 5.3L35.1016 6.2C34.7016 6.7 34.5016 7.3 34.4016 8H33.1016V9.7H34.4016C34.5016 10.3 34.8016 10.9 35.1016 11.5L34.2016 12.4L35.4016 13.6L36.3016 12.7C36.8016 13.1 37.4016 13.3 38.0016 13.4V14.7H39.7016V13.4C40.3016 13.3 40.9016 13 41.5016 12.7L42.4016 13.6L43.6016 12.4L42.7016 11.5C43.1016 11 43.3016 10.4 43.5016 9.7H44.7016ZM38.9016 11.7C37.2016 11.7 35.9016 10.4 35.9016 8.7C35.9016 7 37.2016 5.7 38.9016 5.7C40.6016 5.7 41.9016 7 41.9016 8.7C41.8016 10.4 40.5016 11.7 38.9016 11.7Z" fill="#0078D4"/>
    <path d="M12.8008 36.3V45L5.30078 40.7V32L12.8008 36.3Z" fill="#32B0E7"/>
    <path d="M12.8008 36.2992L20.1008 32.1992V40.8992L12.8008 44.9992V36.2992Z" fill="#0078D4"/>
    <path d="M5.30078 32.0004L12.6008 27.9004L20.1008 32.2004L12.8008 36.3004L5.30078 32.0004Z" fill="#50E6FF"/>
    <path d="M31.9992 28.6992H23.6992V31.8992H31.9992V28.6992ZM23.6992 32.9992V36.1992H31.9992V32.9992H23.6992ZM31.9992 37.2992H23.6992V40.4992H31.9992V37.2992ZM31.9992 41.5992H23.6992V44.7992H31.9992V41.5992ZM42.8992 28.6992H40.1992V31.8992H42.8992V28.6992ZM42.8992 32.9992H40.1992V36.1992H42.8992V32.9992ZM42.8992 37.2992H40.1992V40.4992H42.8992V37.2992ZM42.8992 41.5992H40.1992V44.7992H42.8992V41.5992ZM37.6992 28.6992H34.4992V31.8992H37.6992V28.6992ZM37.6992 32.9992H34.4992V36.1992H37.6992V32.9992ZM37.6992 37.2992H34.4992V40.4992H37.6992V37.2992ZM37.6992 41.5992H34.4992V44.7992H37.6992V41.5992Z" fill="#0078D4"/>
    <path d="M33.6992 28.6992H32.6992V44.8992H33.6992V28.6992ZM39.3992 28.6992H38.3992V44.8992H39.3992V28.6992ZM44.6992 28.6992H43.6992V44.8992H44.6992V28.6992Z" fill="#50E6FF"/>
    <path d="M29.7008 3H3.30078V22.5H8.60078V25.8L13.8008 22.5H29.7008V3Z" fill="#0078D4"/>
    <path d="M24.2023 7.7C24.2023 7.3 23.9023 7 23.5023 7H9.60234C9.20234 7 8.90234 7.3 8.90234 7.7C8.90234 8.1 9.20234 8.4 9.60234 8.4H23.5023C23.9023 8.5 24.2023 8.1 24.2023 7.7Z" fill="#50E6FF"/>
    <path d="M20 7.70078C20 8.50078 20.6 9.10078 21.4 9.10078C22.2 9.10078 22.8 8.50078 22.8 7.70078C22.8 6.90078 22.2 6.30078 21.4 6.30078C20.6 6.40078 20 7.00078 20 7.70078Z" fill="white"/>
    <path d="M24.2023 12.6004C24.2023 12.2004 23.9023 11.9004 23.5023 11.9004H9.60234C9.20234 11.9004 8.90234 12.2004 8.90234 12.6004C8.90234 13.0004 9.20234 13.3004 9.60234 13.3004H23.5023C23.9023 13.3004 24.2023 13.0004 24.2023 12.6004Z" fill="#50E6FF"/>
    <path d="M15.1016 12.5992C15.1016 13.3992 15.7016 13.9992 16.5016 13.9992C17.3016 13.9992 17.9016 13.3992 17.9016 12.5992C17.9016 11.7992 17.3016 11.1992 16.5016 11.1992C15.7016 11.1992 15.1016 11.8992 15.1016 12.5992Z" fill="white"/>
    <path d="M24.2023 17.5008C24.2023 17.1008 23.9023 16.8008 23.5023 16.8008H9.60234C9.20234 16.8008 8.90234 17.1008 8.90234 17.5008C8.90234 17.9008 9.20234 18.2008 9.60234 18.2008H23.5023C23.9023 18.2008 24.2023 17.9008 24.2023 17.5008Z" fill="#50E6FF"/>
    <path d="M10.3008 17.4996C10.3008 18.2996 10.9008 18.8996 11.7008 18.8996C12.5008 18.8996 13.1008 18.2996 13.1008 17.4996C13.1008 16.6996 12.5008 16.0996 11.7008 16.0996C10.9008 16.0996 10.3008 16.6996 10.3008 17.4996Z" fill="white"/>
    <path d="M32.6992 19.6992V22.3992H44.6992V19.6992H32.6992Z" fill="#0078D4"/>
    <path d="M32.6992 16.0996V18.7996H44.6992V16.0996H32.6992Z" fill="#50E6FF"/>
</svg>
