<svg data-slug-id="arrow01" viewBox="0 0 48 49" xmlns="http://www.w3.org/2000/svg">
<path d="M41.8499 2.80518L45.4499 6.39785L25.85 26.0079L22.25 22.4152L41.8499 2.80518Z" fill="#0078D4"/>
<path d="M26.0998 22.8652L8.49995 5.30105H15.1999V0.211426H0.0499997H0V15.3306H5.09997V9.14322L22.4999 26.5078L26.0998 22.8652Z" fill="#50E6FF"/>
<path d="M26.0998 25.7079L22.4999 22.1152L5.09997 39.4798V32.9931H0V48.1122V48.1621H15.1499V43.0725H8.69995L26.0998 25.7079Z" fill="#50E6FF"/>
<path d="M47.9995 15.3805V0.261324V0.211426H32.8496V5.30105H42.8996V15.3805H47.9995Z" fill="#0078D4"/>
<path d="M42.9001 33.0435V39.6301L25.8502 22.6147L22.2002 26.2074L39.1001 43.073H32.8001V48.1627H47.95H48V33.0435H42.9001Z" fill="#50E6FF"/>
</svg>
