<svg data-slug-id="arrow08" viewBox="0 0 48 49" xmlns="http://www.w3.org/2000/svg">
	<path d="M19.3685 0.569092H14.3159V5.62171H19.3685V0.569092Z" fill="#50E6FF"/>
	<path d="M26.5263 0.569092H21.4736V5.62171H26.5263V0.569092Z" fill="#0078D4"/>
	<path d="M26.5263 7.72534H21.4736V12.778H26.5263V7.72534Z" fill="#50E6FF"/>
	<path d="M33.6845 7.72534H28.6318V12.778H33.6845V7.72534Z" fill="#0078D4"/>
	<path d="M33.6845 14.8855H28.6318V19.9381H33.6845V14.8855Z" fill="#50E6FF"/>
	<path d="M40.8422 14.8855H35.7896V19.9381H40.8422V14.8855Z" fill="#0078D4"/>
	<path d="M5.05262 22.0417H0V27.0944H5.05262V22.0417Z" fill="#50E6FF"/>
	<path d="M12.2108 22.0417H7.1582V27.0944H12.2108V22.0417Z" fill="#50E6FF"/>
	<path d="M19.3685 22.0417H14.3159V27.0944H19.3685V22.0417Z" fill="#50E6FF"/>
	<path d="M23.9999 27.0944C22.6021 27.0944 21.4736 25.966 21.4736 24.5681C21.4736 23.1702 22.6021 22.0417 23.9999 22.0417C25.3978 22.0417 26.5263 23.1702 26.5263 24.5681C26.5263 25.9575 25.3894 27.0944 23.9999 27.0944Z" fill="#50E6FF"/>
	<path d="M33.6845 22.0417H28.6318V27.0944H33.6845V22.0417Z" fill="#50E6FF"/>
	<path d="M40.8422 22.0417H35.7896V27.0944H40.8422V22.0417Z" fill="#50E6FF"/>
	<path d="M47.9999 22.0417H42.9473V27.0944H47.9999V22.0417Z" fill="#0078D4"/>
	<path d="M33.6845 29.2019H28.6318V34.2545H33.6845V29.2019Z" fill="#50E6FF"/>
	<path d="M38.3159 34.2545C36.918 34.2545 35.7896 33.1261 35.7896 31.7282C35.7896 30.3303 36.918 29.2019 38.3159 29.2019C39.7138 29.2019 40.8422 30.3303 40.8422 31.7282C40.8422 33.1177 39.7053 34.2545 38.3159 34.2545Z" fill="#0078D4"/>
	<path d="M23.9999 41.4108C22.6021 41.4108 21.4736 40.2824 21.4736 38.8845C21.4736 37.4866 22.6021 36.3582 23.9999 36.3582C25.3978 36.3582 26.5263 37.4866 26.5263 38.8845C26.5263 40.2739 25.3894 41.4108 23.9999 41.4108Z" fill="#50E6FF"/>
	<path d="M33.6845 36.3582H28.6318V41.4108H33.6845V36.3582Z" fill="#0078D4"/>
	<path d="M19.3685 43.5183H14.3159V48.5709H19.3685V43.5183Z" fill="#50E6FF"/>
	<path d="M26.5263 43.5183H21.4736V48.5709H26.5263V43.5183Z" fill="#0078D4"/>
</svg>
