<svg data-slug-id="arrow29" viewBox="0 0 48 48" xmlns="http://www.w3.org/2000/svg">
<path d="M37.8477 12.5621H47.9662V2.4502H37.8477V12.5621Z" fill="#50E6FF"/>
<path d="M22.5437 41.4093C22.5521 41.3588 22.5605 41.3082 22.5773 41.2577C22.6363 40.9462 22.6699 40.6263 22.6699 40.2979C22.6699 37.4689 20.3802 35.1872 17.5602 35.1872C17.1645 35.1872 16.7773 35.2293 16.4153 35.3219C15.2536 33.4865 13.1996 32.2656 10.8593 32.2656C7.23115 32.2656 4.28481 35.2125 4.28481 38.8413C4.28481 38.9339 4.28481 39.0181 4.28481 39.1107C3.95651 39.0013 3.60295 38.9339 3.23255 38.9339C1.44791 38.9255 0 40.3737 0 42.1586C0 43.8341 1.27955 45.2149 2.91266 45.3749L17.5517 45.4002C19.4795 45.4002 21.1463 44.3393 22.0217 42.7733C22.047 42.7312 22.0723 42.6891 22.0975 42.6385C22.2238 42.3775 22.4174 41.9566 22.5437 41.4093Z" fill="#0078D4"/>
<path d="M35.3055 15.0625H23.2929V18.5482H29.4297L17.7285 30.2346L20.1782 32.6847L31.8709 20.9899V27.1193H35.356V15.0625H35.3055Z" fill="#0078D4"/>
</svg>
