<svg data-slug-id="arrow16" viewBox="0 0 48 48" xmlns="http://www.w3.org/2000/svg">
  <path d="M23.9786 1.45654C11.4924 1.45654 1.37207 11.5769 1.37207 24.0631C1.37207 36.5493 11.4924 46.6697 23.9786 46.6697C36.4649 46.6697 46.5852 36.5493 46.5852 24.0631C46.5852 11.5769 36.4649 1.45654 23.9786 1.45654Z" fill="#50E6FF"/>
  <path d="M35.2865 24.0644C35.2865 27.0871 34.1077 29.9245 31.9692 32.063C29.8306 34.2016 26.9932 35.3804 23.9706 35.3804C20.9479 35.3804 18.1105 34.2016 15.972 32.063C13.8334 29.9245 12.6547 27.0871 12.6547 24.0644C12.6547 21.0418 13.8334 18.2044 15.972 16.0658C18.1105 13.9273 20.9479 12.7485 23.9706 12.7485C25.6797 12.7485 27.33 13.1274 28.8287 13.8347L30.6978 11.9655C28.7024 10.8541 26.4122 10.2227 23.9706 10.2227C16.3256 10.2227 10.1372 16.4195 10.1372 24.056C10.1372 31.6926 16.334 37.8978 23.979 37.8978C31.624 37.8978 37.8124 31.701 37.8124 24.0644C37.8124 21.6143 37.1725 19.3242 36.0611 17.3288L34.2004 19.1979C34.916 20.6966 35.2865 22.3553 35.2865 24.0644Z" fill="#0078D4"/>
  <path d="M43.6641 15.7436C44.7755 18.3789 45.3396 21.1742 45.3396 24.0621C45.3396 26.95 44.7755 29.7453 43.6641 32.3807C42.5864 34.9234 41.0456 37.2051 39.0838 39.1753C37.1221 41.137 34.8319 42.6778 32.2892 43.7555C29.6539 44.8669 26.8586 45.431 23.9707 45.431C21.0828 45.431 18.2875 44.8669 15.6521 43.7555C13.1094 42.6778 10.8277 41.137 8.85755 39.1753C6.89579 37.2135 5.35501 34.9234 4.2773 32.3807C3.16592 29.7453 2.60181 26.95 2.60181 24.0621C2.60181 21.1742 3.16592 18.3789 4.2773 15.7436C5.35501 13.2009 6.89579 10.9192 8.85755 8.94898C10.8362 6.99564 13.1179 5.45486 15.6606 4.37715C18.2959 3.26577 21.0912 2.70165 23.9791 2.70165C26.867 2.70165 29.6623 3.26577 32.2977 4.37715C33.7963 5.00862 35.2024 5.80848 36.5074 6.75147V3.72042C32.8618 1.4724 28.5762 0.175781 23.9791 0.175781C10.7856 0.175781 0.0927734 10.8686 0.0927734 24.0621C0.0927734 37.2556 10.7856 47.9485 23.9791 47.9485C37.1726 47.9485 47.8655 37.2556 47.8655 24.0621C47.8655 19.4482 46.5604 15.1458 44.2955 11.4917H41.2561C42.2159 12.8136 43.0242 14.2365 43.6641 15.7436Z" fill="#0078D4"/>
  <path d="M44.3962 3.60236L44.4131 0.015625L39.033 5.39573L39.0245 7.21436L24.686 21.5613C24.4671 21.5024 24.2398 21.4687 23.9956 21.4687C22.5979 21.4687 21.4697 22.5969 21.4697 23.9946C21.4697 25.3922 22.5979 26.5205 23.9956 26.5205C25.3932 26.5205 26.5215 25.3922 26.5215 23.9946C26.5215 23.7757 26.4962 23.5736 26.4457 23.3715L40.8263 8.97405L42.5944 8.96564L47.9746 3.58553L44.3962 3.60236Z" fill="#0078D4"/>
</svg>