<svg data-slug-id="arrow43" viewBox="0 0 48 48" xmlns="http://www.w3.org/2000/svg">
<g clip-path="url(#arrow43_clip0)">
<path d="M41.8499 2.59375L45.4499 6.18625L25.85 25.7953L22.25 22.2028L41.8499 2.59375Z" fill="#50E6FF"/>
<path d="M26.0999 22.6527L8.49996 5.08938H15.1999V0H0.0499998H0V15.1184H5.09998V8.93136L22.4999 26.2951L26.0999 22.6527Z" fill="#0078D4"/>
<path d="M26.0999 25.4948L22.4999 21.9023L5.09998 39.2661V32.7796H0V47.8981V47.948H15.1499V42.8586H8.69996L26.0999 25.4948Z" fill="#0078D4"/>
<path d="M47.9995 15.1683V0.0498959V0H32.8496V5.08938H42.8996V15.1683H47.9995Z" fill="#50E6FF"/>
<path d="M42.9001 32.8306V39.4168L25.8502 22.4023L22.2002 25.9948L39.1001 42.8596H32.8001V47.949H47.9501H48.0001V32.8306H42.9001Z" fill="#0078D4"/>
</g>
<defs>
<clipPath id="arrow43_clip0">
<rect width="48.0001" height="47.9977" fill="white"/>
</clipPath>
</defs>
</svg>
