<svg data-slug-id="arrow18" viewBox="0 0 48 48" xmlns="http://www.w3.org/2000/svg">
<path d="M39.349 33.4434L37.5843 35.208L41.6879 39.3117H35.4784C34.2964 40.2939 33.0062 41.1346 31.6494 41.8088H41.7712L37.5843 45.9957L39.349 47.7603L46.5074 40.6018L39.349 33.4434Z" fill="#0078D4"/>
<path d="M7.38582 23.9291C7.38582 20.6745 8.40133 17.6613 10.1327 15.1725L8.33473 13.3745C6.09563 16.421 4.88867 20.0835 4.88867 23.9291C4.88867 28.707 6.74489 33.1935 10.1244 36.573C10.5073 36.9559 10.9068 37.3221 11.3147 37.6634H15.8428C10.8319 35.1247 7.38582 29.9223 7.38582 23.9291Z" fill="#0078D4"/>
<path d="M22.7596 39.3118C22.7596 39.3118 22.7512 39.3118 22.7596 39.3118H13.6366H10.0408H1.49219V41.8089H13.8697H22.7512C22.7512 41.8089 22.7512 41.8089 22.7596 41.8089H22.7679H22.7596C32.5817 41.7756 40.5309 33.7182 40.5309 23.8877C40.5309 14.0573 32.5733 6.08307 22.7512 6.04977H22.7596C22.7596 6.04977 22.7596 6.04977 22.7512 6.04977H10.1739L14.2276 1.99607L12.4547 0.239746L5.29617 7.39823L9.66618 11.7682L12.4547 14.5567L14.2193 12.7921L11.4891 10.0619L9.98249 8.55524H13.6366H22.7512C31.2082 8.58854 38.0504 15.4224 38.0504 23.8877C38.0504 32.3531 31.2082 39.2785 22.7596 39.3118Z" fill="#50E6FF"/>
</svg>
