<svg data-slug-id="arrow21" viewBox="0 0 49 48" xmlns="http://www.w3.org/2000/svg">
<path d="M31.3293 17.77H18.7939V30.3054H31.3293V17.77Z" fill="#0078D4"/>
<path d="M48.7372 0.261747V0.253418H38.7756V2.71884H44.456L32.8452 14.3297L34.586 16.0705L46.2801 4.37634V10.2484H48.7455V0.261747H48.7372Z" fill="#50E6FF"/>
<path d="M48.6959 47.7382H48.7042V37.7765H46.2388V43.457L34.628 31.8462L32.8872 33.587L44.5813 45.2811H38.7176V47.7465H48.6959V47.7382Z" fill="#50E6FF"/>
<path d="M1.21975 47.7379V47.7462H11.1897V45.2808H5.50093L17.1118 33.67L15.371 31.9292L3.67685 43.6233V37.7596H1.21143V47.7379H1.21975Z" fill="#50E6FF"/>
<path d="M1.26126 0.261747H1.25293V10.2317H3.71836V4.54293L15.3292 16.1537L17.07 14.413L5.37585 2.71884H11.2479V0.253418H1.26126V0.261747Z" fill="#50E6FF"/>
</svg>
