<svg data-slug-id="arrow30" viewBox="0 0 48 47" xmlns="http://www.w3.org/2000/svg">
<path d="M0 37.9H48V1H0V37.9Z" fill="#0078D4"/>
<path d="M0 5H48V0H0V5Z" fill="#50E6FF"/>
<path d="M7.4998 3.80234C8.1998 3.80234 8.69983 3.30234 8.69983 2.60234C8.69983 1.90234 8.0998 1.40234 7.4998 1.40234C6.7998 1.40234 6.2998 1.90234 6.2998 2.60234C6.2998 3.30234 6.7998 3.80234 7.4998 3.80234Z" fill="#0078D4"/>
<path d="M3.7 3.80234C4.4 3.80234 4.9 3.30234 4.9 2.60234C4.9 1.90234 4.4 1.40234 3.7 1.40234C3 1.40234 2.5 1.90234 2.5 2.60234C2.5 3.30234 3 3.80234 3.7 3.80234Z" fill="#0078D4"/>
<path d="M11.3001 3.80234C12.0001 3.80234 12.5001 3.30234 12.5001 2.60234C12.5001 1.90234 12.0001 1.40234 11.3001 1.40234C10.6001 1.40234 10.1001 1.90234 10.1001 2.60234C10.1001 3.30234 10.7001 3.80234 11.3001 3.80234Z" fill="#0078D4"/>
<path d="M20.6998 14.1L11.7998 23L15.3998 26.6L21.7998 20.2V46.3H26.8998V20.2L33.2998 26.6L36.8998 23L27.9998 14.1L24.3998 10.5L20.6998 14.1Z" fill="#50E6FF"/>
</svg>
