<svg data-slug-id="arrow25" viewBox="0 0 48 48" xmlns="http://www.w3.org/2000/svg">
<path d="M42.4137 5.00781H6.00635V12.6725H42.4137V5.00781Z" fill="#50E6FF"/>
<path d="M42.4137 14.5859H6.00635V22.2506H42.4137V14.5859Z" fill="#0078D4"/>
<path d="M42.4137 24.168H6.00635V31.8327H42.4137V24.168Z" fill="#0078D4"/>
<path d="M42.4137 33.7461H6.00635V41.4108H42.4137V33.7461Z" fill="#0078D4"/>
<path d="M40.8966 8.1854H38.469V5.75781H37.2552V8.1854H34.8276V9.39919H37.2552V11.8268H38.469V9.39919H40.8966V8.1854Z" fill="#0078D7"/>
<path d="M16.5834 23.0016L9 30.4593L13.2032 30.4593L13.2032 43.4844L19.8808 43.4844L19.8808 30.4593L24.1724 30.4593L16.5834 23.0016Z" fill="#50E6FF"/>
<path d="M38.6621 36.2816L38.6621 38.2109L40.5928 38.2109L40.5928 36.2816L38.6621 36.2816Z" fill="#50E6FF"/>
<path d="M34.8276 36.2816L34.8276 38.2109L36.7583 38.2109L36.7583 36.2816L34.8276 36.2816Z" fill="#50E6FF"/>
<path d="M38.6621 26.6806L38.6621 28.6099L40.5928 28.6099L40.5928 26.6806L38.6621 26.6806Z" fill="#50E6FF"/>
<path d="M34.8276 26.6806L34.8276 28.6099L36.7583 28.6099L36.7583 26.6806L34.8276 26.6806Z" fill="#50E6FF"/>
<path d="M38.6621 17.1371L38.6621 19.0664L40.5928 19.0664L40.5928 17.1371L38.6621 17.1371Z" fill="#50E6FF"/>
<path d="M34.8276 17.1371L34.8276 19.0664L36.7583 19.0664L36.7583 17.1371L34.8276 17.1371Z" fill="#50E6FF"/>
</svg>
