<svg data-slug-id="arrow37" viewBox="0 0 48 48" xmlns="http://www.w3.org/2000/svg">
<path d="M33.3275 7.90888L26.3966 0.970703V6.09434C25.9893 6.06888 25.582 6.05434 25.1711 6.05434C21.5372 6.05554 17.985 7.13339 14.9632 9.15182C11.9414 11.1702 9.5853 14.0387 8.19246 17.3952C6.79963 20.7516 6.43247 24.4454 7.13735 28.0104C7.84223 31.5753 9.58754 34.8515 12.1529 37.4252L15.6184 33.9598C13.7365 32.0722 12.4563 29.6692 11.9394 27.0544C11.4225 24.4396 11.6923 21.7302 12.7145 19.2686C13.7367 16.807 15.4656 14.7036 17.6827 13.2241C19.8998 11.7446 22.5057 10.9554 25.1711 10.9562C25.582 10.9562 25.9893 10.9743 26.3966 11.0143V14.8362L33.3275 7.90888Z" fill="#50E6FF"/>
<path d="M25.2091 16.0012L16.9697 24.1216L21.5365 24.1216L21.5365 38.3042L28.7918 38.3042L28.7918 24.1216L33.4546 24.1216L25.2091 16.0012Z" fill="#0078D4"/>
<path d="M38.1454 11.4292L34.68 14.8947V14.9128C36.566 16.7988 37.8503 19.2017 38.3705 21.8176C38.8907 24.4336 38.6234 27.1451 37.6023 29.6091C36.5813 32.0731 34.8524 34.1789 32.6345 35.6602C30.4165 37.1416 27.809 37.9318 25.1418 37.931V33.6401L18.2036 40.5783L25.1709 47.5165V42.8437C28.8085 42.8391 32.3632 41.7561 35.3854 39.7316C38.4077 37.7071 40.7619 34.8321 42.1505 31.4699C43.5391 28.1077 43.8998 24.4094 43.1869 20.8422C42.474 17.2751 40.7196 13.9994 38.1454 11.4292Z" fill="#50E6FF"/>
<path d="M12.8486 6.69198H9.06678V2.91016H7.17587V6.69198H3.39404V8.5829H7.17587V12.3647H9.06678V8.5829H12.8486V6.69198Z" fill="#0078D4"/>
</svg>
