<svg data-slug-id="arrow31" viewBox="0 0 48 48" xmlns="http://www.w3.org/2000/svg">
<path d="M47.5284 26.9544C47.6884 26.2049 47.781 25.4302 47.781 24.6302C47.781 18.7355 42.9979 13.9607 37.1116 13.9607C36.2863 13.9607 35.4863 14.0534 34.7284 14.2386C32.2947 10.3986 28.0084 7.85547 23.1242 7.85547C15.5452 7.85547 9.40629 14.0028 9.40629 21.5734C9.40629 21.767 9.40629 21.9523 9.41471 22.1292C8.72418 21.8934 7.98313 21.767 7.20839 21.767C3.46945 21.767 0.446289 24.7902 0.446289 28.5292C0.446289 32.0323 3.11576 34.9123 6.53471 35.2492L37.1031 35.3081C41.2379 35.3081 44.8084 32.967 46.5852 29.5397C47.1747 28.3102 47.2337 28.0407 47.5284 26.9544Z" fill="#50E6FF"/>
<path d="M24.0252 18.7687L15.0146 27.7792L17.6252 30.3897L22.2231 25.7918L22.2146 43.3245H25.8862V25.7918L30.4841 30.3897L33.0946 27.7792L24.0673 18.7266L24.0252 18.7687Z" fill="#0078D4"/>
</svg>
