<svg data-slug-id="arrow14" viewBox="0 0 49 49" xmlns="http://www.w3.org/2000/svg">
<path d="M17.4734 0.475707L3.54053 4.40836L13.9705 14.358L14.8364 10.9366C19.5594 14.004 22.5113 19.2344 22.5113 24.8975L29.8714 24.8975C29.8714 15.8917 24.7548 7.63313 16.7256 3.54318L17.4734 0.475707Z" fill="#50E6FF"/>
<path d="M35.657 3.54567C27.6278 7.67496 22.5112 15.8942 22.5112 24.9C22.5112 38.1923 33.4135 48.9678 46.8741 48.9678L46.8741 41.6137C37.5068 41.6137 29.8713 34.1024 29.8713 24.9C29.8713 19.2369 32.8232 14.0065 37.5462 10.9391L38.3727 14.3605L48.8027 4.41086L34.8698 0.478206L35.657 3.54567Z" fill="#0078D4"/>
</svg>
