<svg data-slug-id="arrow40" viewBox="0 0 49 43" xmlns="http://www.w3.org/2000/svg">
    <path d="M0.499969 38.2368H48.5V1.33679H0.499969V38.2368Z" fill="#50E6FF"/>
    <path d="M0.499969 5.33679H48.5V0.336792H0.499969V5.33679Z" fill="#0078D4"/>
    <path d="M7.99977 4.13718C8.69977 4.13718 9.1998 3.63718 9.1998 2.93718C9.1998 2.23718 8.59977 1.73718 7.99977 1.73718C7.29977 1.73718 6.79977 2.23718 6.79977 2.93718C6.79977 3.63718 7.29977 4.13718 7.99977 4.13718Z" fill="#50E6FF"/>
    <path d="M4.19997 4.13718C4.89997 4.13718 5.39997 3.63718 5.39997 2.93718C5.39997 2.23718 4.89997 1.73718 4.19997 1.73718C3.49997 1.73718 2.99997 2.23718 2.99997 2.93718C2.99997 3.63718 3.49997 4.13718 4.19997 4.13718Z" fill="#50E6FF"/>
    <path d="M11.8001 4.13718C12.5001 4.13718 13.0001 3.63718 13.0001 2.93718C13.0001 2.23718 12.5001 1.73718 11.8001 1.73718C11.1001 1.73718 10.6001 2.23718 10.6001 2.93718C10.6001 3.63718 11.2001 4.13718 11.8001 4.13718Z" fill="#50E6FF"/>
    <path d="M37.8193 24.4296H37.7351C38.0887 23.5279 38.2908 22.5504 38.2908 21.5139C38.2908 17.2245 34.8977 13.7442 30.7132 13.7442C29.8291 13.7442 28.9787 13.9043 28.1873 14.1993C26.1077 11.5532 22.9166 9.85938 19.3467 9.85938C13.0742 9.85938 7.98031 15.0757 7.98031 21.5139C7.98031 22.5251 8.11502 23.5026 8.35919 24.438C6.05223 24.497 4.19992 26.4184 4.19992 28.7948C4.19992 31.2049 6.11116 33.1684 8.46023 33.1684H37.8193C40.1768 33.1684 42.0796 31.2133 42.0796 28.7948C42.0796 26.3847 40.1768 24.4296 37.8193 24.4296Z" fill="white"/>
    <path d="M21.5085 21.55L15.5798 27.4787L17.9779 29.8769L22.2413 25.6135V43H25.6387V25.6135L29.902 29.8769L32.3001 27.4787L26.3714 21.55L23.9733 19.1519L21.5085 21.55Z" fill="#0078D4"/>
</svg>
