<svg data-slug-id="arrow36" viewBox="0 0 48 48" xmlns="http://www.w3.org/2000/svg">
<path d="M33.9334 7.93818L27.0025 1V6.12364C26.5952 6.09818 26.188 6.08364 25.7771 6.08364C22.1431 6.08483 18.591 7.16269 15.5691 9.18112C12.5473 11.1995 10.1913 14.068 8.79842 17.4245C7.40558 20.7809 7.03843 24.4747 7.74331 28.0397C8.44819 31.6046 10.1935 34.8808 12.7589 37.4545L16.2243 33.9891C14.3424 32.1015 13.0622 29.6985 12.5454 27.0837C12.0285 24.4689 12.2982 21.7595 13.3205 19.2979C14.3427 16.8363 16.0716 14.7329 18.2887 13.2534C20.5058 11.7739 23.1116 10.9847 25.7771 10.9855C26.188 10.9855 26.5952 11.0036 27.0025 11.0436V14.8655L33.9334 7.93818Z" fill="#0078D4"/>
<path d="M25.8151 16.0305L17.5757 24.1509L22.1425 24.1509L22.1425 38.3335L29.3977 38.3335L29.3977 24.1509L34.0605 24.1509L25.8151 16.0305Z" fill="#50E6FF"/>
<path d="M38.7514 11.4585L35.2859 14.924V14.9421C37.1719 16.8281 38.4563 19.231 38.9764 21.8469C39.4966 24.4629 39.2293 27.1744 38.2083 29.6384C37.1873 32.1024 35.4584 34.2082 33.2404 35.6895C31.0224 37.1709 28.4149 37.9611 25.7478 37.9603V33.6694L18.8096 40.6076L25.7769 47.5458V42.873C29.4145 42.8684 32.9691 41.7853 35.9914 39.7609C39.0136 37.7364 41.3678 34.8614 42.7565 31.4992C44.1451 28.137 44.5057 24.4387 43.7929 20.8715C43.08 17.3044 41.3256 14.0287 38.7514 11.4585Z" fill="#0078D4"/>
<path d="M13.4546 6.72128H9.67274V2.93945H7.78183V6.72128H4V8.61219H7.78183V12.394H9.67274V8.61219H13.4546V6.72128Z" fill="#50E6FF"/>
</svg>
