<svg data-slug-id="arrow44" viewBox="0 0 49 49" xmlns="http://www.w3.org/2000/svg">
<path d="M45.7082 36.234H31.8507L14.9915 10.2246H3.13804C2.43024 10.2246 1.85889 10.796 1.85889 11.5038C1.85889 12.2116 2.43024 12.7829 3.13804 12.7829H13.6015L30.4607 38.7923H45.6997C46.4075 38.7923 46.9788 38.221 46.9788 37.5132C46.9873 36.8054 46.4075 36.234 45.7082 36.234Z" fill="#50E6FF"/>
<path d="M47.7124 38.3488L42.4509 42.57C41.709 43.1669 40.6089 42.6382 40.6089 41.6831V33.2492C40.6089 32.3027 41.709 31.7739 42.4509 32.3624L47.7039 36.5836C48.2753 37.0355 48.2753 37.8968 47.7124 38.3488Z" fill="#50E6FF"/>
<path d="M47.7122 12.443L42.4592 16.6642C41.7173 17.2612 40.6172 16.7324 40.6172 15.7773V7.34347C40.6172 6.3969 41.7173 5.86818 42.4592 6.45659L47.7122 10.6778C48.275 11.1298 48.275 11.9911 47.7122 12.443Z" fill="#0078D4"/>
<path d="M12.4507 35.9789H3.17258C2.48184 35.9789 1.89343 36.5076 1.85932 37.1983C1.82521 37.9317 2.41362 38.5372 3.13847 38.5372H13.9686C14.6082 38.5372 15.2051 38.2131 15.5462 37.6759L21.8652 27.8861L20.3473 25.541L14.2245 35.0153C13.8407 35.6207 13.167 35.9789 12.4507 35.9789Z" fill="#0078D4"/>
<path d="M33.0103 12.4426H45.6739C46.3647 12.4426 46.9531 11.9139 46.9872 11.2231C47.0213 10.4897 46.4329 9.88428 45.708 9.88428H31.4839C30.8443 9.88428 30.2474 10.2083 29.9063 10.7456L23.3911 20.8253L24.9176 23.1789L31.228 13.4062C31.6203 12.8093 32.2855 12.4426 33.0103 12.4426Z" fill="#0078D4"/>
</svg>
