<svg data-slug-id="arrow41" viewBox="0 0 48 48" xmlns="http://www.w3.org/2000/svg">
  <path d="M45 11H10V3H18.3673L21.2392 5.4819H45V11Z" fill="#0078D4"/>
  <path d="M45.3325 9.19531H10V33.3044H45.3325V9.19531Z" fill="#50E6FF"/>
  <path d="M38.5 16.1175H3V8H11.4869L14.3998 10.5184H38.5V16.1175Z" fill="#0078D4"/>
  <path d="M39 14H3V38H39V14Z" fill="#50E6FF"/>
  <path d="M23.9967 21.8563L15 30.7037L19.9865 30.7037L19.9865 44.3555L27.9086 44.3555L27.9086 30.7037L33 30.7037L23.9967 21.8563Z" fill="#0078D4"/>
  <path d="M15 21.0555H11.8V17.8555H10.2V21.0555H7V22.6555H10.2V25.8555H11.8V22.6555H15V21.0555Z" fill="#0078D4"/>
</svg>
