<svg data-slug-id="arrow15" viewBox="0 0 48 49" xmlns="http://www.w3.org/2000/svg">
<path d="M32.4095 7.24499L25.2635 0V5.35054C24.8422 5.32494 24.4208 5.30787 23.9995 5.30787C13.5249 5.30787 5.03906 13.9012 5.03906 24.5084C5.03906 29.7992 7.15421 34.595 10.5755 38.0682L14.1485 34.45C11.5362 31.796 10.0952 28.2631 10.0952 24.5084C10.0952 20.7451 11.5446 17.2122 14.1654 14.5497C16.7945 11.8872 20.2833 10.428 23.9995 10.428C24.4208 10.428 24.8422 10.4451 25.2635 10.4877V14.4814L32.4095 7.24499Z" fill="#0078D4"/>
<path d="M37.3904 10.9219L33.8174 14.5401C33.8258 14.5486 33.8258 14.5486 33.8343 14.5572C36.4634 17.2196 37.9044 20.7525 37.9044 24.5158C37.9044 28.2791 36.455 31.812 33.8343 34.4745C31.2051 37.137 27.7164 38.5962 24.0001 38.5962V34.1161L16.8457 41.3611L24.0001 48.6061V43.7249C34.4747 43.7249 42.9606 35.1316 42.9606 24.5244C42.9606 19.1994 40.8286 14.395 37.3904 10.9219Z" fill="#0078D4"/>
<path d="M30.32 25.7617V23.2017H28.9043C28.7694 22.7409 28.584 22.3057 28.3312 21.9046L29.3593 20.8635L27.5728 19.0544L26.5026 20.1381C26.115 19.9248 25.7021 19.7541 25.2639 19.6432V18.0815H22.7358V19.6688C22.306 19.7883 21.9015 19.9589 21.5308 20.1723L20.4268 19.0544L18.6403 20.8635L19.7274 21.9643C19.4999 22.3483 19.3145 22.7665 19.1881 23.2102H17.6797V25.7703H19.1123C19.2218 26.2482 19.3903 26.6919 19.6179 27.11L18.6319 28.1085L20.4184 29.9176L21.3622 28.9618C21.7836 29.2264 22.2386 29.4312 22.7274 29.5677V30.8819H25.2554V29.5848C25.7526 29.4568 26.2245 29.2605 26.6543 28.996L27.5644 29.9176L29.3509 28.1085L28.4155 27.1612C28.6599 26.7346 28.8453 26.2652 28.9548 25.7617H30.32ZM23.9998 25.7617C23.3004 25.7617 22.7358 25.19 22.7358 24.4817C22.7358 23.7734 23.3004 23.2017 23.9998 23.2017C24.6993 23.2017 25.2639 23.7734 25.2639 24.4817C25.2639 25.19 24.6993 25.7617 23.9998 25.7617Z" fill="#50E6FF"/>
</svg>
