<svg data-slug-id="arrow34" viewBox="0 0 43 42" xmlns="http://www.w3.org/2000/svg">
<path d="M42 8H7V0H15.3673L18.2392 2.4819H42V8Z" fill="#0078D4"/>
<path d="M42.3325 6.19531H7V30.3044H42.3325V6.19531Z" fill="#50E6FF"/>
<path d="M35.5 13.1175H0V5H8.48686L11.3998 7.51836H35.5V13.1175Z" fill="#0078D4"/>
<path d="M36 11H0V35H36V11Z" fill="#50E6FF"/>
<path d="M20.9967 18.8563L12 27.7037L16.9865 27.7037L16.9865 41.3555L24.9086 41.3555L24.9086 27.7037L30 27.7037L20.9967 18.8563Z" fill="#0078D4"/>
<path d="M12 18.0555H8.8V14.8555H7.2V18.0555H4V19.6555H7.2V22.8555H8.8V19.6555H12V18.0555Z" fill="#0078D4"/>
</svg>
