<svg data-slug-id="arrow28" viewBox="0 0 48 48" xmlns="http://www.w3.org/2000/svg">
<g clip-path="url(#arrow28_clip0)">
<path d="M47.7393 32.0601C47.7645 31.9506 47.7814 31.8496 47.8066 31.7401C47.9328 31.0832 48.0001 30.4011 48.0001 29.7106C48.0001 23.7485 43.1614 18.9232 37.2203 18.9232C36.3872 18.9232 35.571 19.0159 34.8136 19.2011C32.3564 15.319 28.0226 12.7422 23.0829 12.7422C15.4167 12.7422 9.21474 18.9653 9.21474 26.6201C9.21474 26.8138 9.21474 26.999 9.22315 27.1843C8.5247 26.9485 7.77575 26.8138 7.00156 26.8138C3.22315 26.8138 0.168457 29.8706 0.168457 33.6517C0.168457 37.1969 2.8613 40.1106 6.31993 40.4475L37.2203 40.5064C41.2849 40.5064 44.8108 38.2664 46.6453 34.9569C46.6958 34.8643 46.7463 34.7717 46.7968 34.6706C47.0745 34.1064 47.4868 33.2138 47.7393 32.0601Z" fill="#0078D4"/>
<path d="M37.9858 12.7247H47.9073V2.80469H37.9858V12.7247Z" fill="#50E6FF"/>
<path d="M35.3101 15.1211H17.6467V20.2411H26.6678L12.0591 34.8516L15.6608 38.4558L30.2695 23.8453V32.8643H35.3943V15.1211H35.3101Z" fill="#50E6FF"/>
</g>
<defs>
<clipPath id="arrow28_clip0">
<rect width="48" height="48" fill="white"/>
</clipPath>
</defs>
</svg>
