<svg data-slug-id="azure-rtos" viewBox="0 0 48 48" xmlns="http://www.w3.org/2000/svg">
<path d="M13.5256 3.15788C14.3151 1.41365 16.369 0.639686 18.1133 1.42918L44.8366 13.5251C46.5808 14.3146 47.3548 16.3686 46.5653 18.1128L34.4694 44.8361C33.6799 46.5803 31.6259 47.3543 29.8817 46.5648L3.15837 34.4689C1.41414 33.6794 0.640175 31.6254 1.42967 29.8812L13.5256 3.15788Z" fill="#50E6FF"/>
<path d="M31.1661 5.8667H10.1334C7.77695 5.8667 5.8667 7.77695 5.8667 10.1334V38C5.8667 40.3564 7.77695 42.2667 10.1334 42.2667H37.8667C40.2231 42.2667 42.1334 40.3564 42.1334 38V16.834C42.1334 15.7024 41.6838 14.6172 40.8837 13.817L34.183 7.11638C33.3829 6.31622 32.2976 5.8667 31.1661 5.8667Z" fill="#0078D4"/>
<path d="M24.5852 21.936L26.4369 15.7329L19.2 25.6283H23.4147L21.563 31.8314L28.7999 21.936H24.5852Z" fill="white"/>
</svg>
