<svg data-slug-id="azure-network-function-manager" viewBox="0 0 48 49" xmlns="http://www.w3.org/2000/svg">
<path d="M23.883 10.1061C26.2026 10.1061 28.083 8.15315 28.083 5.74408C28.083 3.33501 26.2026 1.38208 23.883 1.38208C21.5634 1.38208 19.683 3.33501 19.683 5.74408C19.683 8.15315 21.5634 10.1061 23.883 10.1061Z" fill="url(#azure-network-function-manager_paint0_linear)"/>
<path d="M29.082 6.04724C29.0454 6.76314 28.8702 7.46513 28.566 8.11424C32.5713 9.24734 36.0926 11.6669 38.5865 14.9995C41.0805 18.3322 42.4086 22.3929 42.366 26.5552C42.3675 30.0218 41.4437 33.426 39.69 36.4162C40.3365 36.6959 40.9194 37.1041 41.403 37.6162C43.3821 34.2685 44.4246 30.4502 44.421 26.5612C44.4755 21.9311 43.0023 17.4121 40.2294 13.7037C37.4565 9.99531 33.5386 7.30432 29.082 6.04724Z" fill="#37C2B1"/>
<path d="M37.686 45.7911C40.0056 45.7911 41.886 43.8382 41.886 41.4291C41.886 39.0201 40.0056 37.0671 37.686 37.0671C35.3664 37.0671 33.486 39.0201 33.486 41.4291C33.486 43.8382 35.3664 45.7911 37.686 45.7911Z" fill="url(#azure-network-function-manager_paint1_linear)"/>
<path d="M9.34801 45.7911C11.6676 45.7911 13.548 43.8382 13.548 41.4291C13.548 39.0201 11.6676 37.0671 9.34801 37.0671C7.02841 37.0671 5.14801 39.0201 5.14801 41.4291C5.14801 43.8382 7.02841 45.7911 9.34801 45.7911Z" fill="url(#azure-network-function-manager_paint2_linear)"/>
<path d="M32.793 43.2828C29.9762 44.8961 26.7692 45.7018 23.5244 45.6113C20.2796 45.5208 17.1225 44.5376 14.4 42.7698C14.23 43.4676 13.9242 44.1252 13.5 44.7048C16.5361 46.6265 20.0405 47.6803 23.633 47.7517C27.2255 47.8231 30.7689 46.9094 33.879 45.1098C33.4018 44.5771 33.0329 43.9565 32.793 43.2828Z" fill="#37C2B1"/>
<path d="M8.16299 36.1519C6.50698 33.2235 5.63775 29.9161 5.63999 26.5519C5.59844 22.4268 6.90262 18.4004 9.35493 15.0831C11.8072 11.7657 15.274 9.33802 19.23 8.16793C18.9174 7.52271 18.7339 6.82257 18.69 6.10693C14.2918 7.40822 10.4385 10.1092 7.71498 13.7997C4.99151 17.4902 3.54671 21.9686 3.59999 26.5549C3.59692 30.227 4.52592 33.8398 6.29999 37.0549C6.85241 36.6292 7.48658 36.3218 8.16299 36.1519Z" fill="#37C2B1"/>
<path d="M32.52 36.6049C34.3984 36.5326 36.1779 35.7447 37.4942 34.4027C38.8105 33.0608 39.5639 31.2663 39.6 29.3869C39.5929 27.6748 38.9775 26.021 37.8635 24.7208C36.7496 23.4205 35.2098 22.5586 33.519 22.2889C33.4733 20.1439 32.672 18.0838 31.2563 16.4716C29.8407 14.8594 27.9015 13.7985 25.7804 13.4758C23.6592 13.1532 21.4923 13.5894 19.6613 14.7077C17.8302 15.826 16.4526 17.5546 15.771 19.5889C13.6017 19.8874 11.6296 21.0067 10.2612 22.7163C8.89287 24.4258 8.23257 26.5952 8.41645 28.7772C8.60033 30.9592 9.61439 32.9874 11.2496 34.4438C12.8847 35.9003 15.0164 36.6738 17.205 36.6049H32.52Z" fill="url(#azure-network-function-manager_paint3_linear)"/>
<path d="M30.819 26.3332V24.7132L30.735 24.6322L29.142 24.0742L28.734 22.9612L29.523 21.2692L29.607 21.0802L29.1 20.5522L28.5 19.9282L28.293 20.0362L26.736 20.8672L25.662 20.5522L24.981 18.7522H23.445L23.367 18.8332L22.83 20.4862L21.741 20.9122L19.941 20.0122L18.84 21.1462L18.945 21.3592L19.743 22.9762L19.296 24.0892L17.4 24.7822V26.4022L17.622 26.4712L19.284 27.0412L19.731 28.1572L18.9 30.0292L20.001 31.1872L20.208 31.0792L21.768 30.2512L22.839 30.7132L23.523 32.6662H25.08L25.146 32.4352L25.695 30.7102L26.754 30.2482L28.575 31.1332L29.676 29.9902L29.571 29.7712L28.764 28.1692L29.064 27.0382L30.819 26.3332ZM24.258 27.8332C23.8057 27.8523 23.3581 27.7359 22.9725 27.4988C22.5869 27.2617 22.2809 26.9148 22.0939 26.5026C21.9069 26.0903 21.8473 25.6317 21.9228 25.1853C21.9984 24.739 22.2055 24.3255 22.5177 23.9977C22.83 23.67 23.233 23.4431 23.6751 23.346C24.1173 23.249 24.5783 23.2863 24.9991 23.4531C25.4199 23.62 25.7812 23.9088 26.0367 24.2824C26.2922 24.6561 26.4302 25.0976 26.433 25.5502V25.5592C26.4419 26.1474 26.2185 26.7154 25.8113 27.14C25.4042 27.5645 24.846 27.8115 24.258 27.8272V27.8332Z" fill="white"/>
<defs>
<linearGradient id="azure-network-function-manager_paint0_linear" x1="23.883" y1="10.1061" x2="23.883" y2="1.38208" gradientUnits="userSpaceOnUse">
<stop offset="0.001" stop-color="#37C2B1"/>
<stop offset="0.496" stop-color="#3ACEBC"/>
<stop offset="1" stop-color="#3CD4C2"/>
</linearGradient>
<linearGradient id="azure-network-function-manager_paint1_linear" x1="37.686" y1="45.7911" x2="37.686" y2="37.0671" gradientUnits="userSpaceOnUse">
<stop offset="0.001" stop-color="#37C2B1"/>
<stop offset="0.496" stop-color="#3ACEBC"/>
<stop offset="1" stop-color="#3CD4C2"/>
</linearGradient>
<linearGradient id="azure-network-function-manager_paint2_linear" x1="9.34801" y1="45.7911" x2="9.34801" y2="37.0671" gradientUnits="userSpaceOnUse">
<stop offset="0.001" stop-color="#37C2B1"/>
<stop offset="0.496" stop-color="#3ACEBC"/>
<stop offset="1" stop-color="#3CD4C2"/>
</linearGradient>
<linearGradient id="azure-network-function-manager_paint3_linear" x1="24" y1="13.4389" x2="24" y2="36.6469" gradientUnits="userSpaceOnUse">
<stop stop-color="#9D79EB"/>
<stop offset="1" stop-color="#7548D6"/>
</linearGradient>
</defs>
</svg>
