<svg data-slug-id="azure-automanage" viewBox="0 0 36 36" xmlns="http://www.w3.org/2000/svg">
<path d="M18.827 23.2385L23.4818 20.6589C23.4904 20.6408 23.4949 20.6209 23.4949 20.6008C23.4949 20.5806 23.4904 20.5608 23.4818 20.5426V15.3641C23.4904 15.3459 23.4949 15.3261 23.4949 15.3059C23.4949 15.2858 23.4904 15.2659 23.4818 15.2477H23.3461L18.7495 17.8273C18.7409 17.842 18.7365 17.8587 18.7365 17.8758C18.7365 17.8928 18.7409 17.9095 18.7495 17.9243V23.1027C18.7408 23.1209 18.7364 23.1408 18.7364 23.1609C18.7364 23.181 18.7408 23.2009 18.7495 23.2191L18.827 23.2385ZM18.7495 29.697L23.4042 27.1175C23.4129 27.0993 23.4173 27.0794 23.4173 27.0593C23.4173 27.0392 23.4129 27.0193 23.4042 27.0011V21.842C23.4129 21.8239 23.4173 21.804 23.4173 21.7839C23.4173 21.7637 23.4129 21.7439 23.4042 21.7257C23.3828 21.7166 23.3597 21.7119 23.3364 21.7119C23.313 21.7119 23.29 21.7166 23.2685 21.7257L18.6137 24.3052V29.4837C18.6051 29.5018 18.6006 29.5217 18.6006 29.5418C18.6006 29.562 18.6051 29.5818 18.6137 29.6L18.7495 29.697ZM24.6261 19.9025L29.6494 17.4006C29.6596 17.3829 29.665 17.3628 29.665 17.3424C29.665 17.322 29.6596 17.3019 29.6494 17.2842V12.1252C29.6596 12.1075 29.665 12.0874 29.665 12.067C29.665 12.0465 29.6596 12.0265 29.6494 12.0088H29.4943L24.7813 14.5883V19.8638C24.7711 19.8814 24.7657 19.9015 24.7657 19.9219C24.7657 19.9424 24.7711 19.9624 24.7813 19.9801L24.6261 19.9025ZM24.7813 26.458L29.6494 23.8979C29.6596 23.8802 29.665 23.8602 29.665 23.8397C29.665 23.8193 29.6596 23.7992 29.6494 23.7815V18.6031C29.6596 18.5854 29.665 18.5653 29.665 18.5449C29.665 18.5245 29.6596 18.5044 29.6494 18.4867C29.5995 18.4672 29.5442 18.4672 29.4943 18.4867L24.8589 21.0662C24.8504 21.081 24.8459 21.0977 24.8459 21.1147C24.8459 21.1318 24.8504 21.1485 24.8589 21.1632V26.3417C24.8487 26.3594 24.8433 26.3794 24.8433 26.3999C24.8433 26.4203 24.8487 26.4404 24.8589 26.458" fill="#198AB3"/>
<path d="M17.1718 23.2339L12.4588 20.635C12.4463 20.6182 12.4395 20.5978 12.4395 20.5768C12.4395 20.5558 12.4463 20.5354 12.4588 20.5186V15.3595C12.4486 15.3418 12.4433 15.3218 12.4433 15.3013C12.4433 15.2809 12.4486 15.2609 12.4588 15.2432H12.5946L17.2494 17.8227C17.2596 17.8404 17.265 17.8605 17.265 17.8809C17.265 17.9013 17.2596 17.9214 17.2494 17.9391V23.0981C17.258 23.1163 17.2625 23.1362 17.2625 23.1563C17.2625 23.1764 17.258 23.1963 17.2494 23.2145" fill="#32BEDD"/>
<path d="M17.1718 29.7135L12.4588 27.1145C12.4463 27.0977 12.4395 27.0773 12.4395 27.0563C12.4395 27.0354 12.4463 27.0149 12.4588 26.9982V21.8391C12.4463 21.8223 12.4395 21.8019 12.4395 21.7809C12.4395 21.7599 12.4463 21.7395 12.4588 21.7227C12.4803 21.7137 12.5034 21.709 12.5267 21.709C12.55 21.709 12.5731 21.7137 12.5946 21.7227L17.2494 24.3023C17.2596 24.3199 17.265 24.34 17.265 24.3604C17.265 24.3809 17.2596 24.4009 17.2494 24.4186V29.5777C17.258 29.5959 17.2625 29.6157 17.2625 29.6359C17.2625 29.656 17.258 29.6759 17.2494 29.6941" fill="#32BEDD"/>
<path d="M11.1417 20.0189L6.37052 17.4006C6.3619 17.3824 6.35742 17.3625 6.35742 17.3424C6.35742 17.3223 6.3619 17.3024 6.37052 17.2842V12.1252C6.35542 12.0878 6.35542 12.0461 6.37052 12.0088H6.52568L11.2193 14.5883C11.2279 14.6065 11.2324 14.6264 11.2324 14.6465C11.2324 14.6666 11.2279 14.6865 11.2193 14.7047V19.8638C11.2344 19.9011 11.2344 19.9428 11.2193 19.9801" fill="#32BEDD"/>
<path d="M11.1417 26.4755L6.37052 23.896C6.3619 23.8778 6.35742 23.858 6.35742 23.8378C6.35742 23.8177 6.3619 23.7978 6.37052 23.7796V18.6012C6.3619 18.583 6.35742 18.5631 6.35742 18.543C6.35742 18.5229 6.3619 18.503 6.37052 18.4848C6.42041 18.4653 6.47579 18.4653 6.52568 18.4848L11.2193 21.0644C11.2279 21.0825 11.2324 21.1024 11.2324 21.1225C11.2324 21.1427 11.2279 21.1625 11.2193 21.1807V26.3398C11.2344 26.3771 11.2344 26.4188 11.2193 26.4562" fill="#32BEDD"/>
<path d="M13.0459 13.8298L18.011 11.1726C18.0346 11.159 18.0614 11.1519 18.0886 11.1519C18.1158 11.1519 18.1426 11.159 18.1662 11.1726L22.9179 13.7716C22.9282 13.7893 22.9335 13.8093 22.9335 13.8298C22.9335 13.8502 22.9282 13.8702 22.9179 13.8879C22.9266 13.9061 22.931 13.926 22.931 13.9461C22.931 13.9662 22.9266 13.9861 22.9179 14.0043L18.011 16.6032H17.8752L13.1041 14.0237C13.0877 13.9799 13.0877 13.9317 13.1041 13.8879" fill="#50E6FF"/>
<path d="M6.7793 10.4153L11.5893 7.73877H11.725L16.438 10.3183C16.4482 10.336 16.4536 10.3561 16.4536 10.3765C16.4536 10.3969 16.4482 10.417 16.438 10.4347C16.4466 10.4529 16.4511 10.4727 16.4511 10.4929C16.4511 10.513 16.4466 10.5329 16.438 10.551L11.6862 13.1888H11.5311L6.81809 10.5898C6.80787 10.5721 6.8025 10.5521 6.8025 10.5316C6.8025 10.5112 6.80787 10.4912 6.81809 10.4735" fill="#50E6FF"/>
<path d="M19.4619 10.4744L24.2719 7.79792C24.2933 7.78885 24.3164 7.78418 24.3397 7.78418C24.3631 7.78418 24.3861 7.78885 24.4076 7.79792L29.1206 10.3193C29.1357 10.3566 29.1357 10.3983 29.1206 10.4356C29.1292 10.4538 29.1337 10.4737 29.1337 10.4938C29.1337 10.5139 29.1292 10.5338 29.1206 10.552L24.3688 13.2479H24.2137L19.5007 10.649C19.4905 10.6313 19.4851 10.6112 19.4851 10.5908C19.4851 10.5704 19.4905 10.5503 19.5007 10.5326" fill="#50E6FF"/>
<path d="M13.0605 7.09893L18.0063 4.5L22.855 7.02135C22.8636 7.03953 22.8681 7.0594 22.8681 7.07953C22.8681 7.09966 22.8636 7.11953 22.855 7.13772C22.8676 7.1545 22.8744 7.17492 22.8744 7.1959C22.8744 7.21688 22.8676 7.2373 22.855 7.25409L18.0063 9.83362H17.8899L13.1187 7.27348C13.1068 7.24226 13.1068 7.20773 13.1187 7.17651" fill="#50E6FF"/>
<path d="M34.6261 9.30849C33.3461 7.19444 30.3592 6.36046 26.1893 6.98109H25.6851L29.3895 8.92059C30.024 8.88005 30.6591 8.99078 31.2424 9.24367C31.8257 9.49657 32.3407 9.88439 32.7448 10.3752C33.5206 11.6747 32.8612 13.8857 30.9411 16.4652C28.2554 19.7875 24.9649 22.5712 21.2436 24.6693C17.6555 26.9503 13.6672 28.5299 9.49026 29.3241C6.30948 29.809 4.04027 29.3241 3.26447 28.044C2.48867 26.764 3.08992 24.7663 4.75788 22.3807V18.8314C4.23422 19.4327 3.78814 20.0145 3.30326 20.6545C0.80131 24.0099 0.103091 27.0355 1.36376 29.1689C2.03491 30.0541 2.92301 30.7512 3.94226 31.1929C4.96151 31.6346 6.07745 31.8059 7.18226 31.6903C8.03279 31.6882 8.882 31.6234 9.723 31.4963C14.1943 30.6713 18.4708 29.0134 22.3297 26.6088C26.2793 24.3543 29.7671 21.3733 32.6091 17.8229C35.208 14.4676 35.9062 11.4419 34.6261 9.30849Z" fill="url(#azure-automanage_d05f229d-2a53-4eb0-9672-07f298bd6f3a)"/>
<defs>
<linearGradient id="azure-automanage_d05f229d-2a53-4eb0-9672-07f298bd6f3a" x1="26.3639" y1="1.06563" x2="13.1753" y2="29.712" gradientUnits="userSpaceOnUse">
<stop stop-color="#552F99"/>
<stop offset="0.07" stop-color="#643DAA"/>
<stop offset="0.2" stop-color="#7C53C5"/>
<stop offset="0.35" stop-color="#8F64DA"/>
<stop offset="0.51" stop-color="#9C71E9"/>
<stop offset="0.7" stop-color="#A478F1"/>
<stop offset="1" stop-color="#A67AF4"/>
</linearGradient>
</defs>
</svg>
