<svg data-slug-id="azure-relay" viewBox="0 0 49 48" xmlns="http://www.w3.org/2000/svg">
    <g clip-path="url(#azure-relay_clip0)">
        <path d="M1.268 0C0.788 0 0.5 0.288 0.5 0.768V10.368C0.5 10.848 0.788 11.136 1.268 11.136H6.068C6.548 11.136 6.836 10.848 6.836 10.368V6.432H42.068V10.464C42.068 10.944 42.356 11.232 43.028 11.232H47.636C48.116 11.232 48.404 10.944 48.404 10.464V5.664V0.864C48.5 0.288 48.212 0 47.732 0H1.268Z" fill="#0072C6"/>
        <path d="M47.732 48C48.212 48 48.5 47.712 48.5 47.232V37.824C48.5 37.344 48.212 37.056 47.732 37.056H43.124C42.644 37.056 42.356 37.344 42.356 37.824V41.664H6.932V37.632C6.932 37.152 6.644 36.864 5.972 36.864H1.268C0.788 36.864 0.5 37.152 0.5 37.824V47.232C0.5 47.712 0.788 48 1.268 48H47.732Z" fill="#0072C6"/>
        <path d="M25.5652 15.3652L23.53 16.6372L33.5534 32.6746L35.5886 31.4026L25.5652 15.3652Z" fill="#0072C6"/>
        <path d="M23.7698 15.352L13.7483 31.3894L15.7835 32.6612L25.805 16.6238L23.7698 15.352Z" fill="#0072C6"/>
        <path d="M24.5002 21.2159C27.3632 21.2159 29.6842 18.8949 29.6842 16.0319C29.6842 13.1689 27.3632 10.8479 24.5002 10.8479C21.6371 10.8479 19.3162 13.1689 19.3162 16.0319C19.3162 18.8949 21.6371 21.2159 24.5002 21.2159Z" fill="#B8D432"/>
        <path d="M14.516 37.1519C17.3791 37.1519 19.7 34.831 19.7 31.9679C19.7 29.1049 17.3791 26.7839 14.516 26.7839C11.653 26.7839 9.33203 29.1049 9.33203 31.9679C9.33203 34.831 11.653 37.1519 14.516 37.1519Z" fill="#59B4D9"/>
        <path d="M34.4838 37.1519C37.3468 37.1519 39.6678 34.831 39.6678 31.9679C39.6678 29.1049 37.3468 26.7839 34.4838 26.7839C31.6208 26.7839 29.2998 29.1049 29.2998 31.9679C29.2998 34.831 31.6208 37.1519 34.4838 37.1519Z" fill="#59B4D9"/>
    </g>
    <defs>
        <clipPath id="azure-relay_clip0">
            <rect width="48" height="48" fill="white" transform="translate(0.5)"/>
        </clipPath>
    </defs>
</svg>
