<svg data-slug-id="azure-stack-edge01" viewBox="0 0 49 48" xmlns="http://www.w3.org/2000/svg">
<g clip-path="url(#azure-stack-edge01_clip0)">
<path d="M48.3585 30.3173C48.2825 27.7752 47.3049 25.3429 45.6004 23.4552C43.896 21.5676 41.5758 20.3476 39.0545 20.0133C38.9012 16.4609 37.354 13.1121 34.7483 10.6926C32.1427 8.27317 28.6885 6.97806 25.1345 7.08801C22.2625 7.0363 19.4453 7.87778 17.0721 9.49619C14.699 11.1146 12.887 13.4301 11.8865 16.1227C8.85066 16.4927 6.04762 17.9374 3.98485 20.1953C1.92209 22.4533 0.735947 25.3752 0.641174 28.432C0.772444 31.8669 2.26042 35.1095 4.77884 37.449C7.29727 39.7885 10.6406 41.0338 14.0758 40.912C14.4758 40.912 14.8758 40.8907 15.2598 40.8587H37.0332C37.2273 40.8564 37.4202 40.8277 37.6065 40.7733C40.4003 40.7504 43.0775 39.6505 45.0805 37.7027C47.0834 35.7549 48.2576 33.1094 48.3585 30.3173Z" fill="url(#azure-stack-edge01_paint0_linear)"/>
<path d="M25.748 28.1201C25.6997 25.648 24.9224 23.2451 23.5137 21.213C22.1051 19.1808 20.1277 17.6099 17.8296 16.6973C15.5316 15.7846 13.0152 15.5709 10.5961 16.0829C8.17707 16.5949 5.96306 17.8098 4.23182 19.5752C2.50059 21.3407 1.32921 23.578 0.864642 26.0066C0.400071 28.4352 0.662989 30.947 1.62041 33.2267C2.57784 35.5065 4.18714 37.4528 6.24644 38.8214C8.30575 40.1901 10.7234 40.9202 13.196 40.9201C13.3373 40.9201 13.4627 40.9201 13.6147 40.9201H25.7533V28.1201H25.748Z" fill="#50E6FF"/>
<path opacity="0.75" d="M4.03332 31.3254L8.78532 35.2534C8.85116 35.3081 8.93122 35.343 9.01613 35.3538C9.10104 35.3647 9.18729 35.3511 9.26479 35.3148C9.34228 35.2784 9.40781 35.2207 9.45371 35.1485C9.49962 35.0762 9.52399 34.9924 9.52399 34.9068V33.1974H20.8653V30.5308H4.33199C4.2383 30.5276 4.14598 30.5539 4.06802 30.6059C3.99006 30.658 3.93039 30.7332 3.89741 30.8209C3.86444 30.9086 3.85981 31.0045 3.88419 31.095C3.90857 31.1855 3.96073 31.2661 4.03332 31.3254Z" fill="white"/>
<path d="M21.7267 27.3467L16.8733 23.408C16.8074 23.3541 16.7276 23.32 16.6431 23.3095C16.5587 23.2991 16.473 23.3128 16.3959 23.3491C16.3189 23.3854 16.2538 23.4427 16.208 23.5145C16.1622 23.5863 16.1377 23.6695 16.1373 23.7547V25.4773H5.85999V28.144H21.4413C21.5345 28.145 21.6257 28.1169 21.7022 28.0637C21.7786 28.0105 21.8366 27.9347 21.868 27.847C21.8994 27.7592 21.9027 27.6639 21.8773 27.5742C21.852 27.4845 21.7993 27.405 21.7267 27.3467Z" fill="white"/>
</g>
<defs>
<linearGradient id="azure-stack-edge01_paint0_linear" x1="24.4998" y1="40.912" x2="24.4998" y2="7.08801" gradientUnits="userSpaceOnUse">
<stop stop-color="#0078D4"/>
<stop offset="0.817" stop-color="#5EA0EF"/>
</linearGradient>
<clipPath id="azure-stack-edge01_clip0">
<rect width="48" height="48" fill="white" transform="translate(0.5)"/>
</clipPath>
</defs>
</svg>
