<svg data-slug-id="azure-defender" viewBox="0 0 30 36" xmlns="http://www.w3.org/2000/svg">
    <path d="M30 16.8047C30 26.4874 18.086 34.2816 15.4929 35.862C15.3449 35.9522 15.1742 36 15 36C14.8258 36 14.6551 35.9522 14.5071 35.862C11.914 34.2816 0 26.4874 0 16.8047V5.16544C0.000461778 4.92389 0.0969778 4.69208 0.26897 4.51942C0.440963 4.34676 0.674825 4.24692 0.920695 4.24118C10.1888 4.00112 8.05405 0 15 0C21.946 0 19.8112 4.00112 29.0793 4.24118C29.3252 4.24692 29.559 4.34676 29.731 4.51942C29.903 4.69208 29.9995 4.92389 30 5.16544V16.8047Z" fill="#50E6FF"/>
    <path d="M28.7581 16.9123C28.7581 25.7908 17.8299 32.9388 15.4528 34.3892C15.3173 34.4726 15.1606 34.5169 15.0006 34.5169C14.8407 34.5169 14.684 34.4726 14.5484 34.3892C12.1713 32.9388 1.24316 25.7868 1.24316 16.9123V6.22934C1.24416 6.00796 1.33304 5.79569 1.4909 5.63766C1.64876 5.47964 1.86315 5.38831 2.08849 5.3831C10.5886 5.15704 8.63113 1.49402 15.0006 1.49402C21.3701 1.49402 19.4126 5.15704 27.9128 5.3831C28.1381 5.38831 28.3525 5.47964 28.5104 5.63766C28.6682 5.79569 28.7571 6.00796 28.7581 6.22934V16.9123Z" fill="url(#azure-defender_fb570a40-c632-42a6-bcc9-a161ac6c2126)"/>
    <path d="M16.7387 18.6412C18.1798 18.6412 19.348 17.4938 19.348 16.0785C19.348 14.6631 18.1798 13.5157 16.7387 13.5157C15.2976 13.5157 14.1294 14.6631 14.1294 16.0785C14.1294 17.4938 15.2976 18.6412 16.7387 18.6412Z" fill="white"/>
    <path d="M12.9912 24.0538C13.9643 24.0538 14.7531 23.2792 14.7531 22.3238C14.7531 21.3683 13.9643 20.5938 12.9912 20.5938C12.0181 20.5938 11.2292 21.3683 11.2292 22.3238C11.2292 23.2792 12.0181 24.0538 12.9912 24.0538Z" fill="white"/>
    <path d="M11.7201 11.2911C12.9271 11.2911 13.9057 10.3301 13.9057 9.14452C13.9057 7.95899 12.9271 6.99792 11.7201 6.99792C10.513 6.99792 9.53442 7.95899 9.53442 9.14452C9.53442 10.3301 10.513 11.2911 11.7201 11.2911Z" fill="white"/>
    <path d="M21.5869 23.298L17.1769 15.7139L16.739 15.9619L17.0975 15.7019L12.1029 8.72791L11.1903 9.38009L15.6146 15.5578L5.81079 16.352L5.90449 17.4703L15.6146 16.6781L12.3942 21.9336L13.3617 22.5058L16.6738 17.0942L20.6071 23.8461L21.5869 23.298Z" fill="#E6E6E6"/>
    <path d="M16.7389 13.5418C17.2626 13.5418 17.7746 13.6943 18.21 13.9801C18.6455 14.2658 18.9849 14.672 19.1853 15.1472C19.3857 15.6225 19.4382 16.1454 19.336 16.6499C19.2338 17.1544 18.9816 17.6178 18.6113 17.9815C18.241 18.3452 17.7691 18.5929 17.2555 18.6933C16.7418 18.7936 16.2094 18.7421 15.7255 18.5453C15.2417 18.3484 14.8281 18.0151 14.5371 17.5874C14.2462 17.1597 14.0909 16.6569 14.0909 16.1425V16.0785C14.1079 15.3999 14.3943 14.7547 14.8891 14.2807C15.3839 13.8068 16.0477 13.5416 16.7389 13.5418V13.5418ZM9.58719 9.14055C9.58276 9.56836 9.70775 9.98783 9.94631 10.3458C10.1849 10.7038 10.5263 10.9841 10.9273 11.1513C11.3282 11.3185 11.7707 11.365 12.1986 11.285C12.6265 11.2049 13.0206 11.0019 13.3309 10.7016C13.6412 10.4013 13.8538 10.0174 13.9416 9.59832C14.0295 9.17928 13.9887 8.74406 13.8245 8.34781C13.6602 7.95156 13.3799 7.61212 13.019 7.37253C12.6581 7.13293 12.2329 7.00396 11.7973 7.00195H11.7402C11.1666 7.00932 10.619 7.2383 10.216 7.63932C9.81307 8.04034 9.58714 8.58112 9.58719 9.14455V9.14055ZM4.10376 17.0428C4.10376 17.3851 4.20715 17.7197 4.40084 18.0044C4.59454 18.289 4.86984 18.5108 5.19191 18.6417C5.51398 18.7726 5.86836 18.8068 6.2102 18.7398C6.55204 18.6729 6.86598 18.5079 7.11232 18.2657C7.35865 18.0235 7.5263 17.7149 7.59405 17.3791C7.66181 17.0433 7.62662 16.6953 7.49295 16.3791C7.35928 16.063 7.13313 15.7928 6.84311 15.6029C6.55309 15.413 6.21224 15.3119 5.86367 15.3123C5.39673 15.3128 4.94909 15.4954 4.6191 15.8198C4.28911 16.1443 4.10376 16.5841 4.10376 17.0428V17.0428ZM11.233 22.3102C11.2302 22.6553 11.3317 22.9935 11.5246 23.2819C11.7175 23.5704 11.9932 23.7961 12.3168 23.9307C12.6404 24.0652 12.9973 24.1024 13.3425 24.0377C13.6876 23.9729 14.0054 23.8091 14.2558 23.5669C14.5061 23.3247 14.6776 23.015 14.7487 22.677C14.8198 22.3391 14.7872 21.988 14.655 21.6682C14.5229 21.3484 14.2972 21.0743 14.0064 20.8806C13.7156 20.6868 13.3728 20.5821 13.0215 20.5797H13.0031C12.536 20.5771 12.0869 20.7565 11.7542 21.0787C11.4216 21.4008 11.2327 21.8394 11.229 22.2982L11.233 22.3102ZM19.0752 23.7106C19.072 24.1096 19.1894 24.5006 19.4125 24.834C19.6356 25.1675 19.9544 25.4284 20.3286 25.5839C20.7028 25.7393 21.1155 25.7822 21.5145 25.7072C21.9135 25.6321 22.2809 25.4426 22.5701 25.1624C22.8594 24.8822 23.0575 24.5241 23.1395 24.1333C23.2214 23.7424 23.1834 23.3366 23.0304 22.9669C22.8774 22.5973 22.6161 22.2806 22.2797 22.0569C21.9433 21.8331 21.5469 21.7124 21.1407 21.7101H21.1285C20.5925 21.702 20.0752 21.9031 19.6899 22.2691C19.3046 22.6351 19.0828 23.1362 19.0732 23.6626L19.0752 23.7106Z" fill="white"/>
    <defs>
        <linearGradient id="azure-defender_fb570a40-c632-42a6-bcc9-a161ac6c2126" x1="15.0006" y1="34.5152" x2="15.0006" y2="1.49402" gradientUnits="userSpaceOnUse">
            <stop stop-color="#50E6FF"/>
            <stop offset="1" stop-color="#9CEBFF"/>
        </linearGradient>
    </defs>
</svg>
