<svg data-slug-id="azure-security" viewBox="0 0 48 48" xmlns="http://www.w3.org/2000/svg">
    <path d="M43.6267 22.4C43.6267 35.3067 28.0267 45.7067 24.64 47.8133C24.4473 47.9312 24.2259 47.9935 24 47.9935C23.7742 47.9935 23.5527 47.9312 23.36 47.8133C19.9734 45.7067 4.37335 35.3067 4.37335 22.4V6.88C4.37328 6.55924 4.49885 6.2512 4.72316 6.02191C4.94746 5.79262 5.25266 5.66031 5.57335 5.65333C17.7067 5.33333 14.9067 0 24 0C33.0934 0 30.2934 5.33333 42.4267 5.65333C42.7474 5.66031 43.0526 5.79262 43.2769 6.02191C43.5012 6.2512 43.6268 6.55924 43.6267 6.88V22.4Z" fill="#0078D4"/>
    <path d="M42 22.5333C42 34.3733 27.7067 43.8667 24.5867 45.84C24.4092 45.9457 24.2065 46.0014 24 46.0014C23.7935 46.0014 23.5908 45.9457 23.4133 45.84C20.2933 43.92 6 34.3733 6 22.5333V8.29333C5.99992 8.00085 6.11425 7.71994 6.31856 7.51065C6.52286 7.30136 6.80094 7.1803 7.09333 7.17333C18.2133 6.88 15.6533 2 24 2C32.3467 2 29.7867 6.88 40.9067 7.17333C41.1991 7.1803 41.4771 7.30136 41.6814 7.51065C41.8857 7.71994 42.0001 8.00085 42 8.29333V22.5333Z" fill="#6BB9F2"/>
    <path d="M24 24V2C32.3467 2 29.7867 6.88 40.9067 7.17333C41.2014 7.18706 41.4796 7.3139 41.6832 7.52747C41.8868 7.74104 42.0003 8.0249 42 8.32V22.56C42.0265 23.0396 42.0265 23.5204 42 24H24ZM24 24H6.07999C7.14665 35.1467 20.4267 44 23.4133 45.84C23.5577 45.932 23.7226 45.987 23.8933 46H24V24Z" fill="url(#azure-security_paint0_linear)"/>
    <path d="M7.09335 7.17333C18.2133 6.88 15.6533 2 24 2V24H6.08001C6.05349 23.5204 6.05349 23.0396 6.08001 22.56V8.32C6.0781 8.03764 6.18044 7.76449 6.36742 7.55291C6.55441 7.34132 6.81289 7.20616 7.09335 7.17333Z" fill="#50E6FF"/>
    <path d="M41.92 24H24V46C24.1707 45.987 24.3356 45.932 24.48 45.84C27.5733 44 40.8533 35.1467 41.92 24Z" fill="#50E6FF"/>
    <defs>
        <linearGradient id="azure-security_paint0_linear" x1="24.0267" y1="2" x2="24.0267" y2="46" gradientUnits="userSpaceOnUse">
            <stop stop-color="#5EA0EF"/>
            <stop offset="0.18" stop-color="#559CEC"/>
            <stop offset="0.47" stop-color="#3C91E5"/>
            <stop offset="0.84" stop-color="#1380DA"/>
            <stop offset="1" stop-color="#0078D4"/>
        </linearGradient>
    </defs>
</svg>
