<svg data-slug-id="azure-spring-cloud" viewBox="0 0 48 49" xmlns="http://www.w3.org/2000/svg">
<path d="M19.5599 20.1611H5.1466C4.94433 20.1611 4.75034 20.0807 4.60732 19.9377C4.46429 19.7947 4.38394 19.6007 4.38394 19.3984V5.74776C4.38394 5.54549 4.46429 5.3515 4.60732 5.20848C4.75034 5.06545 4.94433 4.9851 5.1466 4.9851H18.7973C18.9995 4.9851 19.1935 5.06545 19.3366 5.20848C19.4796 5.3515 19.5599 5.54549 19.5599 5.74776V20.1611ZM22.6133 23.2118V2.70243C22.614 2.6017 22.5948 2.50182 22.5568 2.40853C22.5188 2.31523 22.4628 2.23035 22.3919 2.15875C22.3211 2.08715 22.2368 2.03024 22.1439 1.99129C22.051 1.95234 21.9513 1.93211 21.8506 1.93176H2.09594C1.99521 1.93211 1.89554 1.95234 1.80264 1.99129C1.70974 2.03024 1.62545 2.08715 1.5546 2.15875C1.48374 2.23035 1.42772 2.31523 1.38974 2.40853C1.35176 2.50182 1.33257 2.6017 1.33327 2.70243V22.4491C1.33327 22.6514 1.41362 22.8454 1.55665 22.9884C1.69968 23.1314 1.89367 23.2118 2.09594 23.2118H22.6133Z" fill="url(#azure-spring-cloud_paint0_linear)"/>
<path d="M28.4399 20.161V5.76101C28.4399 5.55874 28.5203 5.36475 28.6633 5.22172C28.8063 5.0787 29.0003 4.99835 29.2026 4.99835H42.8533C42.9534 4.99835 43.0526 5.01807 43.1451 5.0564C43.2377 5.09473 43.3217 5.1509 43.3925 5.22172C43.4634 5.29255 43.5195 5.37662 43.5579 5.46915C43.5962 5.56168 43.6159 5.66086 43.6159 5.76101V19.3983C43.6159 19.4985 43.5962 19.5977 43.5579 19.6902C43.5195 19.7827 43.4634 19.8668 43.3925 19.9376C43.3217 20.0085 43.2377 20.0646 43.1451 20.103C43.0526 20.1413 42.9534 20.161 42.8533 20.161H28.4399V20.161ZM25.3866 23.2117H45.9039C46.1062 23.2117 46.3002 23.1313 46.4432 22.9883C46.5862 22.8453 46.6666 22.6513 46.6666 22.449V2.70235C46.6666 2.49983 46.5863 2.30556 46.4434 2.16211C46.3004 2.01866 46.1064 1.93772 45.9039 1.93701H26.1493C25.9467 1.93772 25.7528 2.01866 25.6098 2.16211C25.4669 2.30556 25.3866 2.49983 25.3866 2.70235V23.2117Z" fill="url(#azure-spring-cloud_paint1_linear)"/>
<path d="M28.4399 28.9772H42.8533C42.9534 28.9772 43.0526 28.9969 43.1451 29.0352C43.2377 29.0736 43.3217 29.1297 43.3925 29.2006C43.4634 29.2714 43.5195 29.3555 43.5579 29.448C43.5962 29.5405 43.6159 29.6397 43.6159 29.7398V43.3905C43.6159 43.4907 43.5962 43.5898 43.5579 43.6824C43.5195 43.7749 43.4634 43.859 43.3925 43.9298C43.3217 44.0006 43.2377 44.0568 43.1451 44.0951C43.0526 44.1335 42.9534 44.1532 42.8533 44.1532H29.2026C29.0003 44.1532 28.8063 44.0728 28.6633 43.9298C28.5203 43.7868 28.4399 43.5928 28.4399 43.3905V28.9905V28.9772ZM25.3866 25.9265V46.4358C25.3866 46.6384 25.4669 46.8326 25.6098 46.9761C25.7528 47.1195 25.9467 47.2005 26.1493 47.2012H45.9039C46.1064 47.2005 46.3004 47.1195 46.4434 46.9761C46.5863 46.8326 46.6666 46.6384 46.6666 46.4358V26.7025C46.6666 26.5002 46.5862 26.3063 46.4432 26.1632C46.3002 26.0202 46.1062 25.9398 45.9039 25.9398L25.3866 25.9265Z" fill="url(#azure-spring-cloud_paint2_linear)"/>
<path d="M19.56 28.9772V43.3772C19.56 43.4773 19.5402 43.5765 19.5019 43.669C19.4636 43.7616 19.4074 43.8456 19.3366 43.9165C19.2658 43.9873 19.1817 44.0435 19.0892 44.0818C18.9966 44.1201 18.8975 44.1398 18.7973 44.1398H5.14664C5.04649 44.1398 4.94731 44.1201 4.85478 44.0818C4.76225 44.0435 4.67817 43.9873 4.60735 43.9165C4.53653 43.8456 4.48036 43.7616 4.44203 43.669C4.4037 43.5765 4.38397 43.4773 4.38397 43.3772V29.7398C4.38397 29.5376 4.46433 29.3436 4.60735 29.2006C4.75038 29.0575 4.94437 28.9772 5.14664 28.9772H19.56ZM22.6133 25.9265H2.09597C1.99469 25.9265 1.89441 25.9467 1.801 25.9858C1.70759 26.025 1.62292 26.0823 1.55192 26.1546C1.48092 26.2268 1.42502 26.3125 1.38749 26.4066C1.34996 26.5006 1.33154 26.6012 1.33331 26.7025V46.4358C1.33331 46.6384 1.41357 46.8326 1.55652 46.9761C1.69948 47.1195 1.89346 47.2005 2.09597 47.2012H21.8506C22.0532 47.2005 22.2471 47.1195 22.3901 46.9761C22.533 46.8326 22.6133 46.6384 22.6133 46.4358V25.9265Z" fill="url(#azure-spring-cloud_paint3_linear)"/>
<path d="M39.7333 22.4892C39.504 18.0328 38.5743 13.6404 36.9786 9.47317C36.5823 10.4043 36.0784 11.2858 35.4773 12.0998C32.5956 9.29599 28.7353 7.72452 24.7146 7.71851C21.7436 7.71798 18.8391 8.59852 16.3685 10.2488C13.8979 11.899 11.9722 14.2448 10.8348 16.9896C9.69748 19.7343 9.39962 22.7547 9.97893 25.6687C10.5582 28.5828 11.9887 31.2595 14.0893 33.3606C16.19 35.4616 18.8665 36.8925 21.7805 37.4723C24.6944 38.0522 27.7148 37.7548 30.4598 36.618C33.2047 35.4811 35.5509 33.5558 37.2016 31.0855C38.8522 28.6152 39.7333 25.7109 39.7333 22.7398V22.4892Z" fill="#5FB832"/>
<path d="M36.856 29.4998C33.1013 34.3798 25.216 32.7531 20.2106 33.0038C19.6237 33.0092 19.0377 33.051 18.456 33.1291L19.208 32.8784C21.7257 32.1691 24.1926 31.2907 26.592 30.2491C28.8173 29.1177 30.7669 27.5111 32.3027 25.543C33.8386 23.5749 34.9232 21.2934 35.48 18.8598C34.538 21.1792 33.1132 23.2716 31.3003 24.9981C29.4874 26.7245 27.328 28.0455 24.9653 28.8731C22.2638 29.7792 19.5013 30.4921 16.6986 31.0064L16.448 30.8811C12.824 29.1238 12.6986 21.2384 19.2 18.7344C22.08 17.6091 24.832 18.2331 27.9626 17.4838C29.7863 17.0404 31.5023 16.2353 33.0089 15.1162C34.5155 13.9971 35.782 12.5869 36.7333 10.9691C38.6106 16.3558 40.6133 24.4918 36.856 29.4998ZM15.704 34.3798C15.9512 34.3793 16.1928 34.3055 16.3981 34.1677C16.6034 34.03 16.7633 33.8345 16.8575 33.6059C16.9518 33.3773 16.9762 33.1259 16.9276 32.8835C16.8791 32.6411 16.7597 32.4185 16.5847 32.2438C16.4097 32.0692 16.1869 31.9503 15.9443 31.9023C15.7018 31.8542 15.4505 31.8792 15.2221 31.9739C14.9937 32.0686 14.7985 32.2289 14.6612 32.4346C14.5239 32.6402 14.4506 32.8819 14.4506 33.1291C14.4506 33.2936 14.4831 33.4564 14.5461 33.6083C14.6091 33.7603 14.7015 33.8982 14.8179 34.0144C14.9343 34.1306 15.0725 34.2227 15.2246 34.2853C15.3766 34.348 15.5395 34.3801 15.704 34.3798V34.3798Z" fill="white"/>
<defs>
<linearGradient id="azure-spring-cloud_paint0_linear" x1="-0.688062" y1="-0.033571" x2="23.2719" y2="23.8224" gradientUnits="userSpaceOnUse">
<stop offset="0.059" stop-color="#0086EC"/>
<stop offset="1" stop-color="#004DAE"/>
</linearGradient>
<linearGradient id="azure-spring-cloud_paint1_linear" x1="24.1706" y1="23.9823" x2="46.6479" y2="2.35301" gradientUnits="userSpaceOnUse">
<stop stop-color="#004DAE"/>
<stop offset="0.941" stop-color="#0086EC"/>
</linearGradient>
<linearGradient id="azure-spring-cloud_paint2_linear" x1="23.6346" y1="23.2332" x2="47.3866" y2="48.7852" gradientUnits="userSpaceOnUse">
<stop offset="0.059" stop-color="#0086EC"/>
<stop offset="1" stop-color="#004DAE"/>
</linearGradient>
<linearGradient id="azure-spring-cloud_paint3_linear" x1="23.048" y1="25.0038" x2="1.31464" y2="47.6945" gradientUnits="userSpaceOnUse">
<stop offset="0.059" stop-color="#0086EC"/>
<stop offset="1" stop-color="#004DAE"/>
</linearGradient>
</defs>
</svg>
