<svg data-slug-id="azure-web-apps" viewBox="0 0 49 48" xmlns="http://www.w3.org/2000/svg">
<path d="M33.1853 35.1735C31.1682 36.7378 28.8627 37.8895 26.4006 38.5628C23.9384 39.2361 21.3677 39.4179 18.8352 39.0977C13.7207 38.4511 9.07257 35.7992 5.91331 31.7255C2.75406 27.6517 1.34247 22.4899 1.9891 17.3754C2.63572 12.2609 5.28759 7.61273 9.36131 4.45347L9.56665 4.30413C13.6677 1.28096 18.7919 -0.0111113 23.8361 0.706043C28.8803 1.4232 33.4413 4.09223 36.5373 8.13864C39.6332 12.185 41.0167 17.2853 40.3898 22.3415C39.7629 27.3977 37.1758 32.0057 33.1853 35.1735Z" fill="url(#azure-web-apps_paint0_radial)"/>
<path opacity="0.6" d="M15.988 15.7682C21.4886 10.5405 28.7782 7.6111 36.3666 7.57885C35.3758 6.33835 34.2346 5.22583 32.9693 4.26685C29.2739 4.50351 25.6447 5.35989 22.2333 6.80018C18.7203 8.2954 15.5457 10.485 12.9 13.2375C14.1779 13.7215 15.2624 14.6103 15.988 15.7682Z" fill="white"/>
<path opacity="0.6" d="M6.36665 23.5762C5.58452 25.5271 4.9455 27.5324 4.45465 29.5762C4.88525 30.3081 5.36083 31.0125 5.87865 31.6855C6.27398 32.2012 6.69681 32.6953 7.14532 33.1655C7.69804 30.4437 8.52723 27.7855 9.61998 25.2322C8.39429 25.0181 7.26101 24.4412 6.36665 23.5762Z" fill="white"/>
<path opacity="0.55" d="M8.604 13.2055C7.7952 11.0361 7.26561 8.77255 7.028 6.46948C6.06768 7.48625 5.22008 8.60385 4.5 9.80282C4.77027 11.6382 5.20855 13.4449 5.80933 15.2001C6.53504 14.286 7.50358 13.5947 8.604 13.2055Z" fill="#F2F2F2"/>
<path d="M10.7 25.3334C14.1506 25.3334 16.948 22.5361 16.948 19.0854C16.948 15.6347 14.1506 12.8374 10.7 12.8374C7.24929 12.8374 4.45197 15.6347 4.45197 19.0854C4.45197 22.5361 7.24929 25.3334 10.7 25.3334Z" fill="url(#azure-web-apps_paint1_linear)"/>
<path opacity="0.55" d="M19.8093 30.4936C19.8087 29.9527 19.9168 29.4171 20.127 28.9188C20.3373 28.4204 20.6455 27.9693 21.0333 27.5923C18.9319 26.4352 16.9909 25.0079 15.26 23.3469C14.3507 24.3176 13.1546 24.9717 11.8467 25.2136C12.8719 26.2799 13.9822 27.2609 15.1667 28.1469C16.6306 29.2474 18.1979 30.203 19.8467 31.0003C19.8227 30.8324 19.8103 30.6631 19.8093 30.4936Z" fill="#F2F2F2"/>
<path opacity="0.55" d="M34.212 30.9787C32.0911 30.9785 29.9775 30.7324 27.9133 30.2454C27.9133 30.328 27.9266 30.4107 27.9266 30.4934C27.9298 31.555 27.5151 32.5752 26.772 33.3334C29.339 33.8406 31.9589 34.0278 34.572 33.8907C35.5553 32.9624 36.4375 31.9327 37.204 30.8187C36.2102 30.9253 35.2114 30.9787 34.212 30.9787Z" fill="#F2F2F2"/>
<path d="M23.868 34.5521C26.1095 34.5521 27.9267 32.735 27.9267 30.4935C27.9267 28.2519 26.1095 26.4348 23.868 26.4348C21.6265 26.4348 19.8093 28.2519 19.8093 30.4935C19.8093 32.735 21.6265 34.5521 23.868 34.5521Z" fill="url(#azure-web-apps_paint2_linear)"/>
<path opacity="0.7" d="M28.8599 19.6481C29.0716 18.7635 29.5625 17.9706 30.2599 17.3867C26.4878 14.6475 23.0611 11.4616 20.0546 7.89875C18.3148 5.83559 16.7946 3.59685 15.5186 1.21875C14.6691 1.48017 13.8386 1.80004 13.0333 2.17608C14.3911 4.77361 16.0264 7.21632 17.9106 9.46142C21.1235 13.2982 24.8016 16.7201 28.8599 19.6481Z" fill="#F2F2F2"/>
<path d="M33.1186 24.7387C35.5001 24.7387 37.4306 22.8082 37.4306 20.4267C37.4306 18.0453 35.5001 16.1147 33.1186 16.1147C30.7372 16.1147 28.8066 18.0453 28.8066 20.4267C28.8066 22.8082 30.7372 24.7387 33.1186 24.7387Z" fill="#F2F2F2"/>
<path opacity="0.55" d="M40.3613 23.3334C40.0946 23.2001 39.8813 23.0828 39.628 22.9468L39.5586 22.9094C39.3293 22.7894 39.1053 22.6668 38.8813 22.5441L38.7559 22.4748L38.1453 22.1335L37.9959 22.0481C37.7533 21.9121 37.5133 21.7815 37.2759 21.6375C37.0298 22.4802 36.5194 23.2215 35.8199 23.7521C36.0999 23.9174 36.3853 24.0801 36.6759 24.2428L36.8679 24.3521L37.6679 24.7921L37.7453 24.8348C38.3879 25.1841 39.044 25.5334 39.716 25.8774C39.9906 25.0446 40.2071 24.1936 40.364 23.3308L40.3613 23.3334Z" fill="#F2F2F2"/>
<path d="M10.7 25.3334C14.1506 25.3334 16.948 22.5361 16.948 19.0854C16.948 15.6347 14.1506 12.8374 10.7 12.8374C7.24929 12.8374 4.45197 15.6347 4.45197 19.0854C4.45197 22.5361 7.24929 25.3334 10.7 25.3334Z" fill="url(#azure-web-apps_paint3_linear)"/>
<path d="M23.868 34.5521C26.1095 34.5521 27.9267 32.735 27.9267 30.4935C27.9267 28.2519 26.1095 26.4348 23.868 26.4348C21.6265 26.4348 19.8093 28.2519 19.8093 30.4935C19.8093 32.735 21.6265 34.5521 23.868 34.5521Z" fill="#F2F2F2"/>
<path d="M47.1667 28.1894L46.3213 25.6348H45.9187H42.8893L41.596 24.1254L42.0067 20.7094L39.62 19.5094L39.3213 19.8081L37.188 21.9414L35.204 21.8028L33.0707 19.0828L30.516 19.9281L30.5 20.3308V23.3601L28.9907 24.6534L25.6307 24.2348L24.4333 26.6188L24.732 26.9174L26.8653 29.0508L26.7293 31.0321L23.964 33.1921L24.8093 35.7441L25.212 35.7601H28.2413L29.5347 37.2694L29.124 40.6854L31.5107 41.8828L31.8093 41.5841L33.9427 39.4508L35.9267 39.5894L38.06 42.3094L40.6147 41.4641L40.6307 41.0614V38.0348L42.14 36.7388L45.556 37.1494L46.756 34.7654L46.4573 34.4641L44.324 32.3308L44.4627 30.3468L47.1667 28.1894ZM37.196 35.6001C36.2239 35.9222 35.1781 35.9487 34.1909 35.6762C33.2038 35.4037 32.3196 34.8446 31.6503 34.0695C30.9811 33.2943 30.5568 32.3381 30.4311 31.3218C30.3055 30.3054 30.4842 29.2747 30.9445 28.3599C31.4049 27.4452 32.1263 26.6875 33.0174 26.1829C33.9085 25.6782 34.9292 25.4492 35.9505 25.5249C36.9718 25.6006 37.9477 25.9775 38.7547 26.608C39.5616 27.2385 40.1635 28.0941 40.484 29.0668C40.9139 30.3692 40.8091 31.789 40.1925 33.0141C39.576 34.2392 38.4981 35.1694 37.196 35.6001Z" fill="url(#azure-web-apps_paint4_linear)"/>
<path d="M20.8013 39.3413V37.224L20.5 37.1147L18.2333 36.3707L17.644 34.9333L18.796 32.4827L17.3 30.984L17.0013 31.1333L14.884 32.2L13.436 31.6053L12.5187 29.0667H10.4013L10.2893 29.3627L9.54799 31.6293L8.09732 32.224L5.68399 31.072L4.19865 32.5573L4.34532 32.856L5.41199 34.9733L4.81999 36.4213L2.23065 37.3333V39.4667L2.52665 39.5786L4.79332 40.3227L5.38799 41.7706L4.23599 44.2213L5.72132 45.7066L6.01732 45.5573L8.13465 44.4906L9.58265 45.0826L10.5133 47.648H12.6307L12.74 47.3493L13.484 45.0826L14.932 44.4906L17.3853 45.64L18.8707 44.1547L18.7213 43.8587L17.6547 41.7413L18.2493 40.2933L20.8013 39.3413ZM11.516 42.416C10.7095 42.4165 9.92088 42.1778 9.25001 41.7301C8.57915 41.2824 8.05613 40.6458 7.74712 39.9008C7.43811 39.1558 7.35698 38.3359 7.51401 37.5448C7.67103 36.7537 8.05915 36.027 8.62927 35.4565C9.19938 34.886 9.92589 34.4974 10.7169 34.3399C11.5079 34.1823 12.3278 34.2629 13.073 34.5714C13.8182 34.88 14.4552 35.4026 14.9033 36.0731C15.3515 36.7437 15.5907 37.5321 15.5907 38.3386C15.591 38.874 15.4859 39.4041 15.2813 39.8988C15.0766 40.3934 14.7766 40.8429 14.3982 41.2216C14.0198 41.6002 13.5704 41.9006 13.0759 42.1056C12.5814 42.3105 12.0513 42.416 11.516 42.416Z" fill="#50E6FF"/>
<path d="M35.5693 35.8613C38.4279 35.8613 40.7453 33.5439 40.7453 30.6853C40.7453 27.8267 38.4279 25.5093 35.5693 25.5093C32.7107 25.5093 30.3933 27.8267 30.3933 30.6853C30.3933 33.5439 32.7107 35.8613 35.5693 35.8613Z" fill="white"/>
<path d="M11.516 42.4137C13.7663 42.4137 15.5906 40.5894 15.5906 38.3391C15.5906 36.0887 13.7663 34.2644 11.516 34.2644C9.26557 34.2644 7.44128 36.0887 7.44128 38.3391C7.44128 40.5894 9.26557 42.4137 11.516 42.4137Z" fill="white"/>
<defs>
<radialGradient id="azure-web-apps_paint0_radial" cx="0" cy="0" r="1" gradientUnits="userSpaceOnUse" gradientTransform="translate(21.2633 19.8069) scale(19.4388)">
<stop offset="0.183" stop-color="#5EA0EF"/>
<stop offset="1" stop-color="#0078D4"/>
</radialGradient>
<linearGradient id="azure-web-apps_paint1_linear" x1="10.7506" y1="25.4961" x2="10.6786" y2="16.4401" gradientUnits="userSpaceOnUse">
<stop stop-color="#CCCCCC"/>
<stop offset="0.123" stop-color="#D7D7D7"/>
<stop offset="1" stop-color="#FCFCFC"/>
</linearGradient>
<linearGradient id="azure-web-apps_paint2_linear" x1="23.868" y1="34.5548" x2="23.868" y2="26.4348" gradientUnits="userSpaceOnUse">
<stop stop-color="#CCCCCC"/>
<stop offset="0.123" stop-color="#D7D7D7"/>
<stop offset="1" stop-color="#FCFCFC"/>
</linearGradient>
<linearGradient id="azure-web-apps_paint3_linear" x1="10.7506" y1="25.4961" x2="10.6786" y2="16.4401" gradientUnits="userSpaceOnUse">
<stop stop-color="#CCCCCC"/>
<stop offset="0.123" stop-color="#D7D7D7"/>
<stop offset="1" stop-color="#FCFCFC"/>
</linearGradient>
<linearGradient id="azure-web-apps_paint4_linear" x1="39.1382" y1="41.4751" x2="31.7312" y2="19.0888" gradientUnits="userSpaceOnUse">
<stop stop-color="#32BEDD"/>
<stop offset="0.576" stop-color="#32CEEF"/>
<stop offset="1" stop-color="#32D4F5"/>
</linearGradient>
</defs>
</svg>
