<svg data-slug-id="azure-sql" viewBox="0 0 28 28" xmlns="http://www.w3.org/2000/svg">
<path d="M22.54 11.1222C22.4745 9.01447 21.5801 7.01767 20.051 5.56548C18.5219 4.1133 16.4817 3.323 14.3733 3.36622C12.6681 3.34599 10.9989 3.85788 9.59822 4.83063C8.19749 5.80339 7.13486 7.18863 6.55822 8.79355C4.76251 9.03634 3.11334 9.91488 1.91004 11.2697C0.706744 12.6246 0.0290651 14.3659 0 16.1778C0.0537714 18.2158 0.914218 20.1491 2.39236 21.5532C3.87051 22.9572 5.84549 23.7172 7.88356 23.6662H21.4978C23.1843 23.6241 24.7924 22.9451 25.9986 21.7656C27.2049 20.5862 27.9199 18.9938 28 17.3087C27.9688 15.7982 27.4031 14.3478 26.4034 13.2151C25.4037 12.0824 24.0348 11.3409 22.54 11.1222Z" fill="url(#azure-sql_paint0_linear)"/>
<path d="M20.0667 17.7333V12.4444H18.6667V18.8689H22.4933V17.7333H20.0667ZM8.96 15.1356C8.67088 15.0194 8.40285 14.8565 8.16666 14.6533C8.10399 14.587 8.0552 14.5087 8.02315 14.4233C7.9911 14.3378 7.97643 14.2468 7.98 14.1556C7.97553 14.0643 7.99466 13.9734 8.03553 13.8917C8.07639 13.8099 8.13763 13.7401 8.21333 13.6889C8.4048 13.5568 8.63432 13.4912 8.86666 13.5022C9.42069 13.4773 9.96747 13.6359 10.4222 13.9533V12.6156C9.92523 12.4306 9.39653 12.346 8.86666 12.3667C8.25639 12.3343 7.65476 12.522 7.17111 12.8956C6.96033 13.0581 6.79117 13.2683 6.67759 13.509C6.564 13.7497 6.50922 14.014 6.51777 14.28C6.51777 15.0733 7.01555 15.6956 8.07333 16.1622C8.41669 16.3084 8.74063 16.4965 9.03777 16.7222C9.11058 16.7832 9.16919 16.8593 9.20949 16.9453C9.24979 17.0313 9.27082 17.125 9.27111 17.22C9.27102 17.3144 9.24839 17.4074 9.2051 17.4913C9.16181 17.5751 9.09911 17.6475 9.02222 17.7022C8.81066 17.8265 8.56727 17.886 8.32222 17.8733C7.69655 17.8682 7.09403 17.636 6.62666 17.22V18.6667C7.14044 18.9314 7.7135 19.0599 8.29111 19.04C8.94316 19.079 9.58946 18.8983 10.1267 18.5267C10.3165 18.3469 10.4617 18.1254 10.5508 17.8796C10.6399 17.6339 10.6705 17.3707 10.64 17.1111C10.6478 16.7128 10.5094 16.3255 10.2511 16.0222C9.88751 15.6396 9.44766 15.3375 8.96 15.1356ZM17.1111 17.6089C17.4489 17.0676 17.628 16.4424 17.628 15.8044C17.628 15.1664 17.4489 14.5412 17.1111 14C16.8684 13.5141 16.4902 13.1089 16.0222 12.8333C15.5481 12.5646 15.0117 12.4251 14.4667 12.4289C13.8792 12.4161 13.299 12.5612 12.7867 12.8489C12.3062 13.1166 11.9123 13.516 11.6511 14C11.376 14.5501 11.2373 15.1583 11.2467 15.7733C11.2497 16.3137 11.3775 16.846 11.62 17.3289C11.8578 17.8091 12.2309 18.2092 12.6933 18.48C13.1631 18.7668 13.6989 18.9275 14.2489 18.9467L15.5867 20.5022H17.4689L15.5556 18.7911C16.1998 18.5979 16.7524 18.1779 17.1111 17.6089ZM15.5556 17.22C15.4138 17.3958 15.2334 17.5364 15.0283 17.6309C14.8232 17.7253 14.599 17.771 14.3733 17.7644C14.1459 17.7723 13.9198 17.7256 13.7142 17.6281C13.5085 17.5307 13.3291 17.3854 13.1911 17.2044C12.8627 16.755 12.703 16.2043 12.74 15.6489C12.7038 15.0936 12.8634 14.5431 13.1911 14.0933C13.3375 13.9129 13.5225 13.7675 13.7325 13.6679C13.9424 13.5683 14.172 13.517 14.4044 13.5178C14.6316 13.5078 14.8576 13.5554 15.0616 13.656C15.2655 13.7566 15.4407 13.907 15.5711 14.0933C15.8777 14.5519 16.0252 15.0984 15.9911 15.6489C16.0455 16.2085 15.8903 16.7683 15.5556 17.22Z" fill="#F2F2F2"/>
<defs>
<linearGradient id="azure-sql_paint0_linear" x1="15.4124" y1="24.8002" x2="11.6916" y2="3.70688" gradientUnits="userSpaceOnUse">
<stop offset="0.15" stop-color="#0078D4"/>
<stop offset="0.8" stop-color="#5EA0EF"/>
<stop offset="1" stop-color="#83B9F9"/>
</linearGradient>
</defs>
</svg>
