<svg data-slug-id="azure-firewall01" viewBox="0 0 24 24" xmlns="http://www.w3.org/2000/svg">
<path d="M9.35999 4.84791C9.79199 2.11191 12.144 0.0479126 15.024 0.0479126C18.192 0.0479126 20.736 2.63991 20.736 5.80791C20.736 6.19191 20.688 6.52791 20.64 6.86391C22.512 7.05591 23.952 8.78391 23.952 10.8479C23.952 13.0559 22.272 14.8799 20.256 14.8799H9.69599C7.00799 14.8799 4.79999 12.5759 4.79999 9.79191C4.84799 7.19991 6.86399 5.08791 9.35999 4.84791Z" fill="#59B4D9"/>
<path d="M19.68 10.56C19.68 10.032 19.248 9.60004 18.72 9.60004H13.44C13.2648 9.60004 13.1021 9.65092 12.96 9.73396C12.8148 9.64731 12.6491 9.60107 12.48 9.60004H7.2C7.0248 9.60004 6.86208 9.65092 6.72 9.73396C6.57481 9.64731 6.40908 9.60107 6.24 9.60004H0.96C0.432 9.60004 0 10.032 0 10.56V12.96C0 13.1352 0.05088 13.298 0.13392 13.44C0.047273 13.5852 0.0010354 13.751 0 13.92L0 16.32C0 16.4952 0.05088 16.658 0.13392 16.8C0.047273 16.9452 0.0010354 17.111 0 17.28L0 19.68C0 19.8552 0.05088 20.018 0.13392 20.16C0.047273 20.3052 0.0010354 20.471 0 20.64L0 23.04C0 23.568 0.432 24 0.96 24H6.24C6.4152 24 6.57792 23.9492 6.72 23.8661C6.86208 23.9492 7.0248 24 7.2 24H12.48C12.6552 24 12.8179 23.9492 12.96 23.8661C13.1021 23.9492 13.2648 24 13.44 24H18.72C19.248 24 19.68 23.568 19.68 23.04V20.64C19.68 20.4648 19.6291 20.3021 19.5461 20.16C19.6291 20.018 19.68 19.8552 19.68 19.68V17.28C19.68 17.1048 19.6291 16.9421 19.5461 16.8C19.6291 16.658 19.68 16.4952 19.68 16.32V13.92C19.68 13.7448 19.6291 13.5821 19.5461 13.44C19.6291 13.298 19.68 13.1352 19.68 12.96V10.56Z" fill="#A0A1A2"/>
<path d="M7.20001 10.56H12.48V12.96H7.20001V10.56Z" fill="#DD5900"/>
<path d="M13.44 10.56H18.72V12.96H13.44V10.56ZM0.960022 10.56H6.24002V12.96H0.960022V10.56ZM7.20002 13.92H12.48V16.32H7.20002V13.92Z" fill="#BA141A"/>
<path d="M0.960022 17.28H6.24002V19.68H0.960022V17.28Z" fill="#DD5900"/>
<path d="M0.960022 13.92H6.24002V16.32H0.960022V13.92ZM7.20002 20.64H12.48V23.04H7.20002V20.64ZM13.44 17.28H18.72V19.68H13.44V17.28ZM13.44 13.92H18.72V16.32H13.44V13.92ZM7.20002 17.28H12.48V19.68H7.20002V17.28Z" fill="#BA141A"/>
<path d="M13.44 20.64H18.72V23.04H13.44V20.64Z" fill="#DD5900"/>
<path d="M0.960022 20.64H6.24002V23.04H0.960022V20.64Z" fill="#BA141A"/>
</svg>
