<svg data-slug-id="azure-firewall-manager" xmlns="http://www.w3.org/2000/svg"  viewBox="0 0 48 49">
	<path d="M21.54 18.1067C21.54 17.561 21.788 17.2881 22.3338 17.2881C29.9243 16.9905 28.2871 13.7658 33.7195 13.7658C35.2544 13.6684 36.7742 14.1165 38.0109 15.0308V7.06826C38.0717 6.88418 38.0847 6.68764 38.0485 6.49717C38.0123 6.3067 37.9282 6.1286 37.804 5.97966C37.6799 5.83072 37.5199 5.71587 37.3391 5.64593C37.1583 5.57599 36.9626 5.55327 36.7706 5.57993H2.53892C2.33756 5.56587 2.1355 5.59434 1.94586 5.66349C1.75622 5.73264 1.58326 5.84092 1.4382 5.98129C1.29315 6.12166 1.17926 6.29098 1.10394 6.47825C1.02861 6.66552 0.99353 6.86655 1.00098 7.06826V24.6802C1.02963 25.0654 1.19564 25.4276 1.46879 25.7007C1.74194 25.9739 2.10408 26.1399 2.48931 26.1685H21.54V18.1067Z" fill="#821010"/>
	<path d="M13.4525 7.56445H3.28223V12.0295H13.4525V7.56445Z" fill="#E62323"/>
	<path d="M24.8646 7.56445H14.6943V12.0295H24.8646V7.56445Z" fill="#FF7381"/>
	<path d="M36.5238 7.56445H26.3535V12.0295H36.5238V7.56445Z" fill="#E62323"/>
	<path d="M7.49917 13.7659H3.28223V18.2309H7.49917V13.7659Z" fill="#E62323"/>
	<path d="M19.1595 13.7659H8.98926V18.2309H19.1595V13.7659Z" fill="#FF7381"/>
	<path d="M20.3984 18.2309H21.5395C21.5395 17.6851 21.7875 17.4123 22.3333 17.4123C27.8897 17.2138 28.5099 15.4278 30.5687 14.4852V13.7659H20.3984V18.2309Z" fill="#E62323"/>
	<path d="M13.4525 19.719H3.28223V24.184H13.4525V19.719Z" fill="#E62323"/>
	<path d="M21.5407 19.719H14.6943V24.184H21.5407V19.719Z" fill="#FF7381"/>
	<path d="M45.2789 28.029C45.2789 35.4707 36.721 41.9945 34.3893 42.6395C34.1299 42.7139 33.8549 42.7139 33.5955 42.6395C31.2638 41.9945 22.7059 35.4459 22.7059 28.029V19.099C22.6939 18.9984 22.7049 18.8964 22.7381 18.8007C22.7712 18.7049 22.8257 18.618 22.8973 18.5463C22.969 18.4747 23.0559 18.4202 23.1517 18.3871C23.2474 18.3539 23.3494 18.3429 23.45 18.3548C30.3956 18.1068 28.9072 15.1301 33.8684 15.1301C38.8295 15.1301 37.3411 18.1068 44.2867 18.3548C44.3873 18.3429 44.4893 18.3539 44.585 18.3871C44.6808 18.4202 44.7677 18.4747 44.8394 18.5463C44.911 18.618 44.9655 18.7049 44.9986 18.8007C45.0318 18.8964 45.0428 18.9984 45.0309 19.099L45.2789 28.029Z" fill="#DFA500"/>
	<path d="M33.8695 29.0212V16.3704C38.5826 16.3704 37.0942 19.099 43.5437 19.347C43.7372 19.3588 43.9197 19.441 44.0568 19.5781C44.1939 19.7152 44.2761 19.8977 44.2878 20.0912V28.7731L33.8695 29.0212ZM33.8695 29.0212H23.6992C24.1953 35.4706 31.8851 40.4318 33.6214 41.424L34.1176 41.672L33.8695 29.0212Z" fill="url(#azure-firewall-manager_f7c98859-8439-4011-befc-3a612d93d2fd)"/>
	<path d="M24.1953 19.4711C30.6448 19.223 29.1564 16.4944 33.8695 16.4944V29.1452H23.6992V20.0912C23.6992 19.5951 23.9473 19.4711 24.1953 19.4711Z" fill="#FFD400"/>
	<path d="M44.2865 28.7732L33.8682 29.0212L34.1162 41.6721H34.3643C36.1007 40.4318 43.5423 35.2226 44.2865 28.7732Z" fill="#FFD400"/>
	<defs>
		<linearGradient id="azure-firewall-manager_f7c98859-8439-4011-befc-3a612d93d2fd" x1="33.9935" y1="16.3704" x2="33.9935" y2="41.8209" gradientUnits="userSpaceOnUse">
			<stop stop-color="#FFD70F"/>
			<stop offset="0.12" stop-color="#FFCC11"/>
			<stop offset="0.44" stop-color="#FEB517"/>
			<stop offset="0.75" stop-color="#FEA61A"/>
			<stop offset="1" stop-color="#FEA11B"/>
		</linearGradient>
	</defs>
</svg>