<svg data-slug-id="azure-arc" viewBox="0 0 36 36" xmlns="http://www.w3.org/2000/svg">
<path d="M14.3772 10.4947L7.94042 14.2376L1.5 10.4929L7.94042 6.75L14.3772 10.4947Z" fill="#5EA0EF"/>
<path d="M14.3781 27.3317L7.93945 23.614V31.0746L14.3781 27.3317Z" fill="#005BA1"/>
<path d="M7.94042 14.2376L7.93861 14.2358V14.2376L1.5 10.4929V27.3442L7.93861 31.0871L14.3772 27.3442V27.3315L7.93861 31.0744V23.6139L14.3772 27.3315V10.4947L7.94042 14.2376Z" fill="#0078D4"/>
<path d="M21.123 10.4947L27.5599 14.2376L34.0003 10.4929L27.5599 6.75L21.123 10.4947Z" fill="#9CEBFF"/>
<path d="M21.123 27.3317L27.5617 23.614V31.0746L21.123 27.3317Z" fill="#32BEDD"/>
<path d="M27.5599 14.2251H27.5617V23.6013L21.123 27.3316V10.4822L27.5599 14.2251Z" fill="url(#azure-arc_83334ee1-4186-4717-a19c-479ca8f39bee)"/>
<path d="M21.123 10.4947L27.5599 14.2376L34.0003 10.4929L27.5599 6.75L21.123 10.4947Z" fill="#9CEBFF"/>
<path d="M27.5599 14.2376L21.123 10.4947V27.3315L27.5617 23.6139V31.0744L21.123 27.3315V27.3442L27.5617 31.0871L34.0003 27.3442V10.4929L27.5599 14.2376Z" fill="#50E6FF"/>
<path d="M21.123 27.3317L27.5617 23.614V31.0746L21.123 27.3317Z" fill="#32BEDD"/>
<path d="M27.5599 14.2251H27.5617V23.6013L21.123 27.3316V10.4822L27.5599 14.2251Z" fill="url(#azure-arc_83334ee1-4186-4717-a19c-479ca8f39bef)"/>
<path d="M7.94126 14.2357H7.93945V23.612L14.3781 27.3441V10.4946L7.94126 14.2357Z" fill="url(#azure-arc_83334ee1-4186-4717-a19c-479ca8f39beg)"/>
<path d="M27.5412 20.7087C26.4145 23.5182 22.0054 25.3743 17.8851 25.3743H17.7388H17.5944C13.4741 25.3743 9.06494 23.5182 7.93827 20.7087C7.93827 20.7087 7.89314 17.8903 7.93827 17.6158C8.758 20.7521 13.0552 23.0722 17.4951 23.0722H17.7388H17.9844C22.417 23.0722 26.7215 20.7521 27.5412 17.6158C27.5863 17.8903 27.5412 20.7087 27.5412 20.7087ZM25.6941 13.1543C23.5132 14.9134 20.786 15.8549 17.9844 15.8157H17.7388H17.4951C14.6962 15.8552 11.9714 14.9165 9.79077 13.1615L8.24522 14.0643C9.72036 16.5253 13.7774 18.116 17.5944 18.116H17.8851C21.7038 18.116 25.7681 16.5217 27.2397 14.0517L25.6941 13.1543Z" fill="url(#azure-arc_83334ee1-4186-4717-a19c-479ca8f39bea)"/>
<defs>
<linearGradient id="azure-arc_83334ee1-4186-4717-a19c-479ca8f39bee" x1="27.5617" y1="18.9069" x2="21.123" y2="18.9069" gradientUnits="userSpaceOnUse">
<stop stop-color="#32BEDD"/>
<stop offset="0.998" stop-color="#9CEBFF" stop-opacity="0.5"/>
</linearGradient>
<linearGradient id="azure-arc_83334ee1-4186-4717-a19c-479ca8f39bef" x1="27.5617" y1="18.9069" x2="21.123" y2="18.9069" gradientUnits="userSpaceOnUse">
<stop stop-color="#32BEDD"/>
<stop offset="0.998" stop-color="#9CEBFF" stop-opacity="0.5"/>
</linearGradient>
<linearGradient id="azure-arc_83334ee1-4186-4717-a19c-479ca8f39beg" x1="7.94126" y1="18.9194" x2="14.3799" y2="18.9194" gradientUnits="userSpaceOnUse">
<stop stop-color="#005BA1"/>
<stop offset="0.998" stop-color="#005BA1" stop-opacity="0"/>
</linearGradient>
<linearGradient id="azure-arc_83334ee1-4186-4717-a19c-479ca8f39bea" x1="7.91841" y1="19.2643" x2="27.5611" y2="19.2643" gradientUnits="userSpaceOnUse">
<stop stop-color="#005BA1"/>
<stop offset="0.974" stop-color="#32BEDD"/>
</linearGradient>
</defs>
</svg>
