<svg data-slug-id="azure-vmware" viewBox="0 0 36 31" xmlns="http://www.w3.org/2000/svg">
<path d="M7.182 8.658L15.84 0H18.162L9.558 8.604C9.288 8.586 8.28 8.46 7.416 8.622C7.344 8.64 7.254 8.658 7.182 8.658V8.658ZM29.214 10.53C29.07 9.504 28.728 8.532 28.242 7.668L36 0H33.66L27.27 6.318C25.722 4.536 23.436 3.42 20.934 3.42C16.326 3.42 12.564 7.164 12.564 11.79C12.564 12.438 12.618 13.068 12.708 13.644L13.68 12.672C13.86 12.492 14.022 12.312 14.202 12.132V11.808C14.202 8.1 17.208 5.094 20.916 5.094C23.994 5.094 26.64 7.182 27.396 10.08C27.072 10.026 26.748 9.972 26.406 9.954C22.572 9.648 20.52 11.826 19.836 12.546L19.818 12.564C18.882 13.554 13.626 18.954 12.186 20.43H14.49C16.596 18.27 20.232 14.526 21.024 13.716L21.042 13.698C21.636 13.068 23.22 11.376 26.28 11.61C30.204 11.916 33.066 14.742 33.066 18.324C33.066 22.032 30.06 25.038 26.352 25.038L8.352 25.128C4.644 25.128 1.638 22.122 1.638 18.414C1.638 14.706 4.644 11.7 8.352 11.7C9.144 11.7 9.864 11.79 10.512 11.952C10.602 11.97 10.854 12.078 10.854 12.078C10.818 11.484 10.872 10.818 10.962 10.368C10.944 10.368 10.944 10.368 10.926 10.35C10.134 10.134 9.27 10.044 8.334 10.044C3.744 9.99 0 13.752 0 18.36C0 22.23 2.628 25.488 6.21 26.442L2.466 30.186L4.734 30.168L8.244 26.73H8.352L26.352 26.64C30.96 26.64 34.722 22.896 34.722 18.27C34.74 14.796 32.49 11.808 29.214 10.53V10.53Z" fill="url(#azure-vmware_ebdabe06-ff7a-4444-8050-c3bbcf118f67)"/>
<defs>
<linearGradient id="azure-vmware_ebdabe06-ff7a-4444-8050-c3bbcf118f67" x1="2.61432" y1="9.36324" x2="34.5056" y2="20.3443" gradientUnits="userSpaceOnUse">
<stop offset="0.068" stop-color="#6DB23F"/>
<stop offset="0.944" stop-color="#0094D2"/>
</linearGradient>
</defs>
</svg>
