<svg data-slug-id="azure-analytics" viewBox="0 0 48 48" xmlns="http://www.w3.org/2000/svg">
    <path d="M24 0L3.06665 11.9733V35.8933L24 48L44.9333 36.0267V12.0267L24 0ZM41.0667 33.52L24 43.3867L6.93332 33.624V14.3467L24 4.48L41.0667 14.3733V33.52Z" fill="#0078D4"/>
    <path d="M24 0L3.06665 11.9733L6.93332 14.3467L24 4.48L41.0667 14.3467L44.9333 11.9733L24 0Z" fill="url(#azure-analytics_paint0_linear)"/>
    <path d="M33.9733 27.9333C33.7696 27.5981 33.4694 27.3323 33.112 27.1707C32.0273 24.8029 30.3657 22.7452 28.2794 21.1863C26.1931 19.6274 23.7488 18.6171 21.1707 18.248L38.4427 8.26667L34.4267 5.96267L14.7573 17.3333C14.3752 17.5533 14.0765 17.8934 13.9076 18.3007C13.7387 18.7079 13.7092 19.1596 13.8236 19.5854C13.9379 20.0113 14.1898 20.3873 14.54 20.6552C14.8902 20.9231 15.3191 21.0677 15.76 21.0667C15.8413 21.0517 15.9215 21.0312 16 21.0053L16.3333 22.4C18.8411 21.8087 21.4747 22.0753 23.813 23.1572C26.1513 24.2391 28.0594 26.0738 29.232 28.368L9.63467 39.6933L13.6347 42.0027L33.2427 30.6667C33.5041 30.5103 33.7252 30.2948 33.888 30.0373L34.088 29.9893C34.0693 29.912 34.04 29.8427 34.0213 29.7653C34.1632 29.4792 34.233 29.1627 34.2246 28.8434C34.2163 28.5241 34.13 28.2117 33.9733 27.9333Z" fill="#50E6FF"/>
    <path d="M32.2426 24.0347C31.2669 24.0347 30.3131 24.324 29.5018 24.8661C28.6905 25.4082 28.0582 26.1786 27.6848 27.0801C27.3114 27.9815 27.2138 28.9735 27.4041 29.9304C27.5945 30.8874 28.0643 31.7665 28.7543 32.4564C29.4442 33.1463 30.3232 33.6162 31.2802 33.8065C32.2372 33.9969 33.2291 33.8992 34.1306 33.5258C35.032 33.1524 35.8025 32.5201 36.3446 31.7088C36.8866 30.8975 37.176 29.9437 37.176 28.968C37.176 27.6596 36.6562 26.4048 35.731 25.4796C34.8059 24.5544 33.551 24.0347 32.2426 24.0347ZM15.7573 14.0453C14.7816 14.0453 13.8278 14.3347 13.0165 14.8767C12.2052 15.4188 11.5729 16.1893 11.1995 17.0908C10.8261 17.9922 10.7284 18.9841 10.9188 19.9411C11.1091 20.8981 11.579 21.7771 12.2689 22.4671C12.9589 23.157 13.8379 23.6269 14.7949 23.8172C15.7518 24.0076 16.7438 23.9099 17.6452 23.5365C18.5467 23.1631 19.3171 22.5308 19.8592 21.7195C20.4013 20.9082 20.6906 19.9544 20.6906 18.9787C20.6906 17.6703 20.1709 16.4155 19.2457 15.4903C18.3205 14.5651 17.0657 14.0453 15.7573 14.0453Z" fill="url(#azure-analytics_paint1_linear)"/>
    <defs>
        <linearGradient id="azure-analytics_paint0_linear" x1="24" y1="14.3467" x2="24" y2="0" gradientUnits="userSpaceOnUse">
            <stop offset="0.199" stop-color="#005BA1"/>
            <stop offset="1" stop-color="#0078D4"/>
        </linearGradient>
        <linearGradient id="azure-analytics_paint1_linear" x1="24" y1="33.9013" x2="24" y2="14.0987" gradientUnits="userSpaceOnUse">
            <stop stop-color="#198AB3"/>
            <stop offset="0.172" stop-color="#32BEDD"/>
            <stop offset="0.5" stop-color="#198AB3"/>
            <stop offset="0.662" stop-color="#32BEDD"/>
            <stop offset="0.975" stop-color="#50E6FF"/>
        </linearGradient>
    </defs>
</svg>
