<svg data-slug-id="azure-sql-vm" viewBox="0 0 48 48" xmlns="http://www.w3.org/2000/svg">
<path d="M43.7833 4H3.43111C2.64073 4 2 4.64073 2 5.43111V31.37C2 32.1604 2.64073 32.8011 3.43111 32.8011H43.7833C44.5737 32.8011 45.2144 32.1604 45.2144 31.37V5.43111C45.2144 4.64073 44.5737 4 43.7833 4Z" fill="url(#azure-sql-vm_paint0_linear_1699_10703)"/>
<path d="M32.2831 41.5406C28.0153 40.8762 27.8364 37.7839 27.862 32.8262H19.3776C19.3776 37.7839 19.2242 40.8762 14.9564 41.5406C14.3517 41.6386 13.8023 41.9505 13.4083 42.4196C13.0143 42.8886 12.8019 43.4836 12.8098 44.0962H34.4298C34.4377 43.4836 34.2253 42.8886 33.8312 42.4196C33.4372 41.9505 32.8878 41.6386 32.2831 41.5406Z" fill="url(#azure-sql-vm_paint1_linear_1699_10703)"/>
<path d="M34.0202 21.1478V12.2544H31.4646V23.1155H37.9302V21.1478H34.0202ZM15.2624 16.7522C14.7818 16.5571 14.3337 16.2899 13.9335 15.96C13.8207 15.8463 13.7328 15.7102 13.6756 15.5606C13.6184 15.411 13.5931 15.2511 13.6013 15.0911C13.5967 14.9352 13.6318 14.7807 13.7034 14.6421C13.7749 14.5036 13.8805 14.3854 14.0102 14.2989C14.3355 14.0867 14.7218 13.9879 15.1091 14.0178C16.0184 13.9843 16.9143 14.2442 17.6646 14.7589V12.51C16.8468 12.2091 15.9804 12.0618 15.1091 12.0755C14.0713 12.0251 13.0489 12.3418 12.2213 12.97C11.8705 13.2502 11.5906 13.6091 11.4041 14.0175C11.2177 14.4259 11.1299 14.8725 11.148 15.3211C11.1713 16.0115 11.3968 16.6798 11.7966 17.2432C12.1964 17.8065 12.7528 18.2401 13.3968 18.49C13.9771 18.7243 14.5196 19.0429 15.0068 19.4355C15.1358 19.5347 15.2399 19.6626 15.3108 19.8089C15.3818 19.9553 15.4177 20.1162 15.4157 20.2789C15.4157 20.4376 15.3788 20.5941 15.3078 20.736C15.2368 20.878 15.1338 21.0014 15.0068 21.0966C14.6896 21.3107 14.3162 21.4263 13.9335 21.4289C12.8738 21.4179 11.8551 21.0177 11.0713 20.3044V22.86C11.942 23.2972 12.9087 23.5082 13.8824 23.4733C14.9941 23.4862 16.0797 23.1363 16.9746 22.4766C17.342 22.1967 17.6361 21.832 17.8319 21.4136C18.0277 20.9953 18.1194 20.5358 18.0991 20.0744C18.1146 19.7391 18.0639 19.404 17.9499 19.0883C17.8359 18.7726 17.6608 18.4825 17.4346 18.2344C16.8193 17.5973 16.08 17.0929 15.2624 16.7522ZM28.9091 20.9433C29.5091 19.9412 29.8106 18.7886 29.778 17.6211C29.7917 16.6191 29.5638 15.6285 29.1135 14.7333C28.704 13.9128 28.0647 13.2291 27.2735 12.7655C26.4948 12.3206 25.6148 12.083 24.718 12.0755C23.7262 12.0631 22.7485 12.3098 21.8813 12.7911C21.0449 13.2642 20.3687 13.976 19.9391 14.8355C19.427 15.7587 19.1546 16.7955 19.1468 17.8511C19.1373 18.8059 19.3471 19.7502 19.7602 20.6111C20.1748 21.4131 20.8026 22.0852 21.5746 22.5533C22.3465 23.0241 23.2266 23.2881 24.1302 23.32L26.3791 25.8755H29.548L26.4557 22.9111C27.4815 22.5677 28.3513 21.8701 28.9091 20.9433ZM26.3535 20.2789C26.1183 20.5796 25.8147 20.8199 25.4681 20.9799C25.1214 21.1399 24.7416 21.215 24.3602 21.1989C23.9759 21.2163 23.5932 21.1393 23.2457 20.9744C22.8982 20.8096 22.5964 20.5619 22.3668 20.2533C21.8235 19.5157 21.5525 18.6126 21.6002 17.6978C21.5567 16.7834 21.8272 15.8816 22.3668 15.1422C22.6127 14.8389 22.9249 14.5959 23.2793 14.432C23.6337 14.2681 24.0209 14.1876 24.4113 14.1966C24.7919 14.1789 25.171 14.256 25.5145 14.4211C25.858 14.5861 26.1551 14.8339 26.3791 15.1422C26.8864 15.8948 27.1374 16.7911 27.0946 17.6978C27.1964 18.6068 26.9698 19.5223 26.4557 20.2789H26.3535Z" fill="url(#azure-sql-vm_paint2_radial_1699_10703)"/>
<defs>
<linearGradient id="azure-sql-vm_paint0_linear_1699_10703" x1="23.62" y1="32.8267" x2="23.62" y2="4" gradientUnits="userSpaceOnUse">
<stop stop-color="#0078D4"/>
<stop offset="0.82" stop-color="#5EA0EF"/>
</linearGradient>
<linearGradient id="azure-sql-vm_paint1_linear_1699_10703" x1="23.6198" y1="43.9684" x2="23.6198" y2="32.8262" gradientUnits="userSpaceOnUse">
<stop offset="0.15" stop-color="#CCCCCC"/>
<stop offset="1" stop-color="#707070"/>
</linearGradient>
<radialGradient id="azure-sql-vm_paint2_radial_1699_10703" cx="0" cy="0" r="1" gradientUnits="userSpaceOnUse" gradientTransform="translate(24.718 18.95) scale(18.5789 18.5789)">
<stop stop-color="#F2F2F2"/>
<stop offset="0.58" stop-color="#EEEEEE"/>
<stop offset="1" stop-color="#E6E6E6"/>
</radialGradient>
</defs>
</svg>
