<svg data-slug-id="azure-sentinel01" viewBox="0 0 48 48" xmlns="http://www.w3.org/2000/svg">
<path d="M24.5738 47.367C24.2742 47.5577 23.893 47.5304 23.6207 47.367C22.3135 46.5501 18.5282 44.0719 14.3616 40.45C9.18745 35.9566 6.73653 32.0624 5.62 29.9383C4.50347 27.8141 3.44141 25.3905 3.44141 21.9319V7.11748C3.44141 6.7907 3.71373 6.51837 4.04052 6.51837C4.88473 6.51837 6.49144 6.49114 7.77137 6.30051C9.59594 6.02819 12.8094 5.18398 14.1982 4.31254C15.5871 3.4411 17.4661 1.80716 19.4269 1.09911C20.6251 0.663395 22.2046 0.554465 23.2666 0.527232C23.9474 0.5 24.0291 0.5 24.6555 0.5C25.7176 0.527232 27.3515 0.636162 28.577 1.07188C30.5377 1.77992 32.5801 3.27771 33.969 4.14915C35.3578 5.02059 38.4079 6.00095 40.2324 6.27328C41.4851 6.46391 43.0374 6.49114 43.9088 6.49114C44.2629 6.49114 44.5624 6.7907 44.5624 7.14472V21.9047C44.5624 25.3905 43.7454 27.7869 42.6289 29.911C41.5124 32.0352 38.8436 36.2017 33.6694 40.6679C29.5301 44.2898 25.8537 46.6045 24.5738 47.367Z" fill="#0078D4"/>
<path d="M28.3322 2.24387C27.1612 1.83538 25.6089 1.72645 24.6013 1.69922C24.0022 1.69922 23.9205 1.69922 23.2942 1.69922C22.2866 1.72645 20.7888 1.83538 19.645 2.24387C17.7932 2.89745 15.9959 4.47693 14.6887 5.2939C13.3816 6.11088 10.3043 6.92785 8.58866 7.20017C6.87302 7.4725 4.47656 7.41803 4.47656 7.41803C4.47656 7.41803 4.47656 18.7467 4.47656 22.0419C4.47656 25.337 5.45693 27.6245 6.519 29.6397C7.58106 31.6549 9.92305 35.3585 14.8249 39.6068C15.9687 40.5872 17.058 41.4858 18.0928 42.2756L31.5456 3.93228C30.538 3.30593 29.4215 2.65235 28.3322 2.24387Z" fill="#2687CE"/>
<path d="M24.0854 30.9189C27.3191 30.9189 29.9404 28.2976 29.9404 25.064C29.9404 21.8303 27.3191 19.209 24.0854 19.209C20.8518 19.209 18.2305 21.8303 18.2305 25.064C18.2305 28.2976 20.8518 30.9189 24.0854 30.9189Z" fill="white"/>
<path d="M24.084 14.3349C29.7211 14.3349 34.3506 18.6921 34.7863 24.2203H39.8516C39.4159 15.8871 32.5261 9.29688 24.084 9.29688C15.6419 9.29688 8.75213 15.9144 8.31641 24.2203H13.3816C13.8174 18.6921 18.4469 14.3349 24.084 14.3349Z" fill="white"/>
</svg>
