<svg data-slug-id="beaker01" viewBox="0 0 32 48" xmlns="http://www.w3.org/2000/svg">
    <g clip-path="url(#beaker01_e99a4d5f-00c7-4a9b-a989-7297975260ab)">
        <path opacity="0.2" d="M26.5682 32.8959C32.4882 36.3359 32.5682 41.9359 26.6482 45.3759C20.7282 48.8159 11.0482 48.8159 5.12827 45.3759C-0.871728 41.9359 -0.951728 36.3359 4.96827 32.8959C10.8882 29.4559 20.5682 29.4559 26.5682 32.8959Z" fill="#1F1D21"/>
        <path d="M11.4482 2.17602L11.6082 12.976L0.648264 37.856C0.648264 37.856 0.0882645 44.976 14.8882 44.976C29.6882 44.976 30.8082 38.176 30.6482 37.536C30.4882 36.816 19.6082 12.976 19.6082 12.976L19.7682 2.09602C19.7682 2.09602 17.7682 0.176025 15.5282 0.416025C13.2882 0.656025 11.2082 1.29602 11.4482 2.17602Z" fill="url(#beaker01_67926356-7c27-4a02-9e6d-8ce8b31d6f3a)"/>
        <path d="M23.7682 25.216C23.6882 25.056 23.6082 24.896 23.5282 24.736C22.7282 22.976 19.4482 21.696 15.6082 21.696C11.3682 21.696 8.00824 23.296 7.44826 25.216C7.44826 25.376 2.72826 36.256 2.64826 36.736C2.64826 36.896 2.56826 37.056 2.56826 37.296C2.56826 40.656 8.40824 43.376 15.5282 43.376C22.6482 43.376 28.4882 40.656 28.4882 37.296C28.4882 37.216 28.4882 36.816 28.3282 36.416C27.4482 33.616 23.7682 25.216 23.7682 25.216Z" fill="url(#beaker01_d082a571-13ca-47b1-aaee-5506a6dd8c18)"/>
        <path d="M15.6082 43.3761C22.7658 43.3761 28.5682 40.654 28.5682 37.2961C28.5682 33.9382 22.7658 31.2161 15.6082 31.2161C8.45063 31.2161 2.64825 33.9382 2.64825 37.2961C2.64825 40.654 8.45063 43.3761 15.6082 43.3761Z" fill="#0078D4"/>
        <path d="M15.6082 29.376C20.1149 29.376 23.7682 27.6568 23.7682 25.536C23.7682 23.4153 20.1149 21.696 15.6082 21.696C11.1016 21.696 7.44826 23.4153 7.44826 25.536C7.44826 27.6568 11.1016 29.376 15.6082 29.376Z" fill="#0078D4"/>
        <path d="M15.6082 0.335938C12.6482 0.335938 11.3682 1.37594 11.3682 2.33594C11.3682 3.29594 13.6082 4.01594 15.6082 4.01594C17.6082 4.01594 19.8482 3.21594 19.8482 2.33594C19.9282 1.37594 19.1282 0.335938 15.6082 0.335938ZM15.6082 3.37594C14.0082 3.37594 12.1682 2.81594 12.1682 2.09594C12.1682 1.37594 14.0082 0.815935 15.6082 0.815935C17.2082 0.815935 19.0482 1.37594 19.0482 2.09594C19.1282 2.81594 17.2082 3.37594 15.6082 3.37594Z" fill="#50E6FF"/>
        <path d="M15.6082 0.335938C12.6482 0.335938 11.3682 1.37594 11.3682 2.33594C11.3682 3.29594 13.6082 4.01594 15.6082 4.01594C17.6082 4.01594 19.8482 3.21594 19.8482 2.33594C19.9282 1.37594 19.1282 0.335938 15.6082 0.335938ZM15.6082 3.37594C14.0082 3.37594 12.1682 2.81594 12.1682 2.09594C12.1682 1.37594 14.0082 0.815935 15.6082 0.815935C17.2082 0.815935 19.0482 1.37594 19.0482 2.09594C19.1282 2.81594 17.2082 3.37594 15.6082 3.37594Z" fill="white"/>
        <path d="M20.3282 36.8159H10.8882V37.3759H20.3282V36.8159Z" fill="white"/>
        <path d="M17.8482 24.416H13.3682V24.976H17.8482V24.416Z" fill="white"/>
        <path d="M18.4882 28.4961H12.7282V29.0561H18.4882V28.4961Z" fill="white"/>
        <path d="M19.1282 32.656H12.1682V33.216H19.1282V32.656Z" fill="white"/>
        <path d="M15.7682 18.6561C16.917 18.6561 17.8482 17.7249 17.8482 16.5761C17.8482 15.4274 16.917 14.4961 15.7682 14.4961C14.6195 14.4961 13.6882 15.4274 13.6882 16.5761C13.6882 17.7249 14.6195 18.6561 15.7682 18.6561Z" fill="#50E6FF" fill-opacity="0.6" stroke="#50E6FF" stroke-linejoin="round"/>
    </g>
    <defs>
        <linearGradient id="beaker01_67926356-7c27-4a02-9e6d-8ce8b31d6f3a" x1="15.8824" y1="4.18986" x2="15.5557" y2="48.6307" gradientUnits="userSpaceOnUse">
            <stop offset="0.0185096" stop-color="#0078D4"/>
            <stop offset="0.5806" stop-color="#50E6FF"/>
        </linearGradient>
        <linearGradient id="beaker01_d082a571-13ca-47b1-aaee-5506a6dd8c18" x1="24.2226" y1="24.4472" x2="6.64274" y2="45.1293" gradientUnits="userSpaceOnUse">
            <stop offset="0.0185096" stop-color="#0078D4"/>
            <stop offset="0.8607" stop-color="#2BB2EB"/>
            <stop offset="1" stop-color="#3FCEF6"/>
        </linearGradient>
        <clipPath id="beaker01_e99a4d5f-00c7-4a9b-a989-7297975260ab">
            <rect width="31.2" height="48" fill="white"/>
        </clipPath>
    </defs>
</svg>
