<svg data-slug-id="book01" viewBox="0 0 48 48" xmlns="http://www.w3.org/2000/svg">
    <rect x="1" y="8.58423" width="46" height="33.5955" fill="#0078D4"/>
    <path d="M32.3996 6.00015C30.9507 6.00015 29.5501 6.21981 28.1978 6.65914C26.8455 7.09846 25.6187 7.74883 24.5176 8.61026V41.9213C25.696 41.2494 26.9566 40.7455 28.2992 40.4096C29.6419 40.0736 31.0087 39.9056 32.3996 39.9056H40.2816V6L32.3996 6.00015Z" fill="#50E6FF"/>
    <path d="M15.3426 6.00015C16.7915 6.00015 18.1921 6.21981 19.5444 6.65914C20.8967 7.09846 22.1234 7.74883 23.2246 8.61026V41.9213C22.0462 41.2494 20.7856 40.7455 19.443 40.4096C18.1003 40.0736 16.7335 39.9056 15.3426 39.9056H7.46057V6L15.3426 6.00015Z" fill="#50E6FF"/>
</svg>
