<svg data-slug-id="build12" viewBox="0 0 49 48" xmlns="http://www.w3.org/2000/svg">
<path d="M0.588867 48.001H48.5889V0.000976562H0.588867V48.001Z" fill="#0078D4"/>
<path d="M3.12842 37.987H20.8299V32.8486H3.12842V37.987Z" fill="#50E6FF"/>
<path d="M3.12842 45.4953H13.0929V40.3569H3.12842V45.4953Z" fill="white"/>
<path d="M30.5925 22.9072L27.0488 26.4509L38.667 38.0691L42.2107 34.5254L30.5925 22.9072Z" fill="#50E6FF"/>
<path d="M23.3532 5.00488C16.3502 5.00488 10.6719 10.6832 10.6719 17.6862C10.6719 24.6892 16.3502 30.3675 23.3532 30.3675C30.3562 30.3675 36.0345 24.6892 36.0345 17.6862C36.0345 10.6832 30.3562 5.00488 23.3532 5.00488ZM23.3532 25.3135C19.143 25.3135 15.7343 21.9049 15.7343 17.6946C15.7343 13.4844 19.143 10.0757 23.3532 10.0757C27.5634 10.0757 30.9721 13.4844 30.9721 17.6946C30.9721 21.9049 27.5634 25.3135 23.3532 25.3135Z" fill="#50E6FF"/>
</svg>
