<svg data-slug-id="build18" viewBox="0 0 48 48" xmlns="http://www.w3.org/2000/svg">
<path d="M21.8327 17.2087V2.8249H24.374V0.375H11.676V2.8249H14.292V17.5492L1.31172 36.9989C-0.864125 40.2544 1.46951 44.6143 5.38934 44.6143H21.0023C20.5455 43.6261 20.1967 42.588 19.9559 41.5001H7.66484C5.43087 41.5001 4.10211 39.017 5.33952 37.1567L13.2539 25.3058L23.4438 25.173L24.648 26.8754C25.4619 26.1446 26.3505 25.4968 27.3056 24.9487L21.8327 17.2087Z" fill="#0078D4"/>
<path d="M13.2542 25.3047L5.33976 37.1639C4.10235 39.0159 5.43111 41.5073 7.66508 41.5073H19.9561C19.7236 40.4526 19.6073 39.3564 19.6073 38.2352C19.6073 33.7341 21.5506 29.6813 24.6483 26.8826L23.4441 25.1802L13.2542 25.3047Z" fill="#50E6FF"/>
<path d="M47.5692 38.1603C47.5692 41.6151 46.1823 44.7377 43.94 47.0298C43.7407 47.2374 43.3172 47.6194 43.3172 47.6194L26.5831 47.7191C26.5831 47.7191 26.2759 47.445 26.1264 47.3038C23.7097 44.9951 22.2148 41.7563 22.2148 38.1603C22.2148 31.176 27.8953 25.5039 34.8879 25.5039C41.8971 25.5122 47.5692 31.176 47.5692 38.1603Z" fill="#50E6FF"/>
<path d="M34.9128 25.4956C27.9119 25.4956 22.2397 31.1594 22.2397 38.152C22.2397 41.4822 23.5353 44.5218 25.6447 46.7724C25.952 47.1045 26.2842 47.4201 26.6247 47.7191L28.078 46.2658L29.5811 44.7626C29.224 44.4802 28.9001 44.1564 28.5929 43.8242L27.0897 45.3273C26.2592 44.4221 25.5949 43.4006 25.1215 42.2795C24.6813 41.2331 24.4073 40.1452 24.3242 39.0157H26.0433C26.0184 38.7334 26.0018 38.4427 26.0018 38.152C26.0018 37.9859 26.0101 37.8198 26.0184 37.6537H24.2993C24.3575 36.3914 24.6315 35.1789 25.1215 34.0246C25.5616 32.9782 26.1679 32.0148 26.9153 31.1677L28.1361 32.3885C28.4351 32.048 28.7507 31.7159 29.0995 31.4252L27.8787 30.2044C28.7424 29.4404 29.714 28.8341 30.777 28.3774C31.9231 27.8874 33.1356 27.6216 34.3813 27.5552V29.266C34.5557 29.2577 34.7384 29.2493 34.9128 29.2493C35.1951 29.2493 35.4692 29.266 35.7433 29.2909V27.5718C36.881 27.6631 37.9938 27.9289 39.0485 28.369C40.178 28.8424 41.1995 29.5068 42.1047 30.3373L40.8922 31.5498C41.2327 31.857 41.5483 32.1809 41.8306 32.538L43.0514 31.3172C43.7324 32.1311 44.2971 33.0363 44.7124 34.0163C45.2024 35.1706 45.4764 36.3914 45.5345 37.6454H43.8155C43.8238 37.8115 43.8321 37.9776 43.8321 38.1437C43.8321 38.4344 43.8155 38.7251 43.7905 39.0074H45.5096C45.4183 40.1369 45.1525 41.2331 44.7124 42.2712C44.2639 43.3342 43.6494 44.2975 42.8853 45.1612L41.3905 43.6664C41.0915 44.0069 40.7676 44.3308 40.4271 44.6297L41.922 46.1246L43.367 47.5696C43.7075 47.2623 44.0314 46.9468 44.3304 46.6063C46.3567 44.364 47.5858 41.3992 47.5858 38.1354C47.5858 31.1677 41.9054 25.4956 34.9128 25.4956Z" fill="#0078D4"/>
<path d="M36.6984 37.5542C37.3877 38.2435 37.3877 39.3563 36.6984 40.0456C36.0091 40.7349 34.8963 40.7349 34.207 40.0456C33.5177 39.3563 30.1792 33.5347 30.1792 33.5347C30.1792 33.5347 36.0091 36.8732 36.6984 37.5542Z" fill="#0078D4"/>
</svg>
