<svg data-slug-id="build15" viewBox="0 0 49 48" xmlns="http://www.w3.org/2000/svg">
<path d="M35.9751 0.00390625H48.184V12.2128H43.132V5.05585H35.9751V0.00390625Z" fill="#0078D4"/>
<path d="M19.551 12.2089H14.499V0H26.7079V5.05195H19.551V12.2089Z" fill="#0078D4"/>
<path d="M43.132 21.4409H48.184V33.6498H35.9751V28.5978H43.132V21.4409Z" fill="#0078D4"/>
<path d="M14.499 33.6576V21.4487H19.551V28.6057H26.7079V33.6576H14.499Z" fill="#0078D4"/>
<path d="M24.1871 19.3723C22.7894 19.3723 21.6611 18.244 21.6611 16.8463C21.6611 15.4486 22.7894 14.3203 24.1871 14.3203C25.5848 14.3203 26.7131 15.4486 26.7131 16.8463C26.7131 18.2356 25.5764 19.3723 24.1871 19.3723Z" fill="#50E6FF"/>
<path d="M31.3438 12.216C29.9461 12.216 28.8179 11.0877 28.8179 9.69004C28.8179 8.29233 29.9461 7.16406 31.3438 7.16406C32.7415 7.16406 33.8698 8.29233 33.8698 9.69004C33.8698 11.0793 32.7331 12.216 31.3438 12.216Z" fill="#50E6FF"/>
<path d="M38.5011 19.3723C37.1034 19.3723 35.9751 18.244 35.9751 16.8463C35.9751 15.4486 37.1034 14.3203 38.5011 14.3203C39.8988 14.3203 41.027 15.4486 41.027 16.8463C41.027 18.2356 39.8904 19.3723 38.5011 19.3723Z" fill="#50E6FF"/>
<path d="M31.3438 26.528C29.9461 26.528 28.8179 25.3998 28.8179 24.002C28.8179 22.6043 29.9461 21.4761 31.3438 21.4761C32.7415 21.4761 33.8698 22.6043 33.8698 24.002C33.8698 25.3913 32.7331 26.528 31.3438 26.528Z" fill="#50E6FF"/>
<path d="M31.3438 19.3723C29.9461 19.3723 28.8179 18.244 28.8179 16.8463C28.8179 15.4486 29.9461 14.3203 31.3438 14.3203C32.7415 14.3203 33.8698 15.4486 33.8698 16.8463C33.8698 18.2356 32.7331 19.3723 31.3438 19.3723Z" fill="#50E6FF"/>
<path d="M2.71543 5.05585C1.31772 5.05585 0.189453 3.92758 0.189453 2.52988C0.189453 1.13217 1.31772 0.00390625 2.71543 0.00390625C4.11313 0.00390625 5.2414 1.13217 5.2414 2.52988C5.2414 3.91916 4.10471 5.05585 2.71543 5.05585Z" fill="#50E6FF"/>
<path d="M12.3986 0.00390625H7.34668V5.05585H12.3986V0.00390625Z" fill="#50E6FF"/>
<path d="M5.24189 7.16406H0.189941V12.216H5.24189V7.16406Z" fill="#50E6FF"/>
<path d="M12.3986 7.16406H7.34668V12.216H12.3986V7.16406Z" fill="#50E6FF"/>
<path d="M5.24189 14.3203H0.189941V19.3723H5.24189V14.3203Z" fill="#50E6FF"/>
<path d="M9.87265 19.3723C8.47495 19.3723 7.34668 18.244 7.34668 16.8463C7.34668 15.4486 8.47495 14.3203 9.87265 14.3203C11.2704 14.3203 12.3986 15.4486 12.3986 16.8463C12.3986 18.2356 11.2619 19.3723 9.87265 19.3723Z" fill="#50E6FF"/>
<path d="M5.24189 28.6323H0.189941V33.6843H5.24189V28.6323Z" fill="#50E6FF"/>
<path d="M12.3986 35.7881H7.34668V40.84H12.3986V35.7881Z" fill="#50E6FF"/>
<path d="M45.6578 48.0002C44.2601 48.0002 43.1318 46.8719 43.1318 45.4742C43.1318 44.0765 44.2601 42.9482 45.6578 42.9482C47.0555 42.9482 48.1838 44.0765 48.1838 45.4742C48.1838 46.8635 47.0471 48.0002 45.6578 48.0002Z" fill="#50E6FF"/>
<path d="M33.8698 42.9482H28.8179V48.0002H33.8698V42.9482Z" fill="#50E6FF"/>
<path d="M41.027 35.7881H35.9751V40.84H41.027V35.7881Z" fill="#50E6FF"/>
<path d="M17.0299 48.0002C15.6322 48.0002 14.5039 46.8719 14.5039 45.4742C14.5039 44.0765 15.6322 42.9482 17.0299 42.9482C18.4276 42.9482 19.5559 44.0765 19.5559 45.4742C19.5559 46.8635 18.4192 48.0002 17.0299 48.0002Z" fill="#50E6FF"/>
<path d="M12.3986 42.9482H7.34668V48.0002H12.3986V42.9482Z" fill="#50E6FF"/>
<path d="M26.7131 35.7881H21.6611V40.84H26.7131V35.7881Z" fill="#50E6FF"/>
</svg>
