<svg data-slug-id="build11" viewBox="0 0 49 48" xmlns="http://www.w3.org/2000/svg">
<path d="M34.5355 17.7038C36.6248 17.7038 38.3185 16.0101 38.3185 13.9207C38.3185 11.8314 36.6248 10.1377 34.5355 10.1377C32.4462 10.1377 30.7524 11.8314 30.7524 13.9207C30.7524 16.0101 32.4462 17.7038 34.5355 17.7038Z" fill="#0078D4"/>
<path d="M34.5352 16.0353C35.7032 16.0353 36.65 15.0884 36.65 13.9205C36.65 12.7525 35.7032 11.8057 34.5352 11.8057C33.3672 11.8057 32.4204 12.7525 32.4204 13.9205C32.4204 15.0884 33.3672 16.0353 34.5352 16.0353Z" fill="#50E6FF"/>
<path d="M41.8148 1.67872L40.492 0.423322C40.1634 0.111579 39.6747 0.0610264 39.2871 0.29694C38.4446 0.810895 36.7174 2.05787 34.6531 4.67819C31.8222 8.26745 31.7969 11.1995 31.7969 11.3175V11.8483L32.3108 11.7219C33.6336 11.3933 35.2429 11.0731 35.6052 11.1153C35.858 11.2922 36.5994 12.0168 37.0712 12.497L37.661 13.1037L37.779 12.2696C37.7874 12.2359 38.2929 8.68872 38.9417 6.85197C39.4388 5.44491 41.1323 3.63343 41.8316 2.91727C41.9917 2.74876 42.0844 2.52969 42.076 2.29378C42.076 2.05787 41.9833 1.8388 41.8148 1.67872Z" fill="#0078D4"/>
<path d="M31.4939 16.1772L31.5613 16.6743C31.713 17.7865 31.7888 21.2578 30.9884 26.4479C30.3565 30.5174 29.4549 32.8092 26.4133 38.1088C24.3491 41.7149 22.1922 44.1667 21.3665 45.0514C21.0379 45.3968 21.021 45.9445 21.3243 46.3152L22.268 47.4779C22.4449 47.697 22.7061 47.8234 22.9842 47.8318C22.9926 47.8318 23.0094 47.8318 23.0179 47.8318C23.2875 47.8318 23.5402 47.7223 23.7256 47.5285C25.3012 45.835 29.0842 41.7233 30.1037 40.0719C31.9152 37.1567 33.1958 34.6206 34.7546 29.6159C35.378 27.6275 35.8414 24.8639 36.1363 21.3926C36.3554 18.8144 36.3975 16.7923 36.3975 16.7755L36.406 16.371L31.4939 16.1772Z" fill="#0078D4"/>
<path d="M48.0247 9.16947L46.7945 7.58547C46.6513 7.40011 46.4322 7.28216 46.2048 7.2653C45.9688 7.24845 45.7413 7.33271 45.5728 7.49279C45.1347 7.91407 44.2585 8.71449 43.3654 9.279C42.7166 9.69185 41.3348 10.1721 39.5739 10.5934C39.2874 10.6608 39.0515 10.8546 38.9167 11.1158C38.7903 11.3769 38.7819 11.6887 38.8999 11.9583C39.1779 12.5734 39.3127 13.2306 39.3127 13.913C39.3127 14.4691 39.22 15.0083 39.0347 15.5223C38.8999 15.893 39.0094 16.3059 39.3043 16.567C39.4812 16.7271 39.7087 16.803 39.9362 16.803C40.0878 16.803 40.2311 16.7693 40.3743 16.7018C42.0341 15.8593 44.2332 14.6292 45.3201 13.5507C46.5418 12.329 47.536 11.1158 48.0162 10.5091C48.328 10.1215 48.328 9.56546 48.0247 9.16947Z" fill="#0078D4"/>
<path d="M30.7775 10.1434C30.6174 9.85692 30.3225 9.68841 29.9939 9.70526L29.539 9.73896L29.421 9.85692C29.3957 9.88219 27.2051 12.1908 24.8038 13.0249C23.8096 13.3703 22.689 13.6484 21.5011 13.9433C19.7148 14.3898 17.6927 14.8954 15.5695 15.7548C15.2493 15.8896 14.9376 16.0159 14.6259 16.1339C11.5337 17.3809 9.30095 18.2824 6.8407 20.1613C4.81016 21.7116 2.4426 23.9443 1.52422 24.829C1.1198 25.2166 1.09452 25.8485 1.44839 26.2698L2.22354 27.1797C2.4089 27.3988 2.66166 27.5252 2.94813 27.5504C2.97341 27.5504 2.99868 27.5504 3.03238 27.5504C3.28515 27.5504 3.52949 27.4578 3.72327 27.2892C5.32412 25.8906 11.0619 21.1892 17.7264 19.2261C23.2704 17.5915 27.6685 17.1028 29.2946 16.968C29.5979 16.9428 29.8591 16.7827 30.0192 16.5299C30.1793 16.2771 30.2046 15.9654 30.095 15.6874C29.8676 15.1228 29.758 14.5246 29.758 13.918C29.758 12.8648 30.095 11.8706 30.7185 11.0365C30.9123 10.7753 30.9376 10.4298 30.7775 10.1434Z" fill="#0078D4"/>
</svg>
