<svg data-slug-id="build08" viewBox="0 0 49 48" xmlns="http://www.w3.org/2000/svg">
<path d="M15.4897 0.0429688H2.84302V2.52841H4.12455V43.1042C4.12455 45.6149 6.37567 47.9908 9.15794 47.9908C11.9402 47.9908 14.1913 45.6149 14.1913 43.1042V2.52841H15.4897V0.0429688Z" fill="#0078D4"/>
<path d="M12.9521 5.01953H5.33032V42.3095C5.33032 44.4158 7.03341 46.1177 9.1412 46.1177C11.249 46.1177 12.9521 44.4158 12.9521 42.3095V5.01953Z" fill="#50E6FF"/>
<path d="M30.6573 12.6519H18.0022V15.1457H19.2922V43.1006C19.2922 45.6113 21.5433 47.9872 24.3256 47.9872C27.1078 47.9872 29.3589 45.6113 29.3589 43.1006V15.1457H30.6573V12.6519Z" fill="#0078D4"/>
<path d="M28.1193 20.0972H20.4976V42.3229C20.4976 44.4292 22.2006 46.1311 24.3084 46.1311C26.4162 46.1311 28.1193 44.4292 28.1193 42.3229V20.0972Z" fill="#50E6FF"/>
<path d="M45.7657 5.08203H33.1106V7.57589H34.527V43.1134C34.527 45.6242 36.7781 48.0001 39.5604 48.0001C42.3427 48.0001 44.5938 45.6242 44.5938 43.1134V7.56747H45.7573V5.08203H45.7657Z" fill="#0078D4"/>
<path d="M43.3542 12.605H35.7324V42.3207C35.7324 44.427 37.4355 46.1289 39.5433 46.1289C41.6511 46.1289 43.3542 44.427 43.3542 42.3207V12.605Z" fill="#50E6FF"/>
</svg>
