<svg data-slug-id="building15" viewBox="0 0 48 48" xmlns="http://www.w3.org/2000/svg">
<path d="M40.4513 0.160156H7.54883V47.7707H40.4513V0.160156Z" fill="#0078D4"/>
<path d="M27.746 5.23047H20.2285V12.7396H27.746V5.23047Z" fill="#50E6FF"/>
<path d="M37.0907 5.23047H29.5732V12.7396H37.0907V5.23047Z" fill="#50E6FF"/>
<path d="M18.3344 5.23047H10.8086V12.7396H18.3261V5.23047H18.3344Z" fill="#50E6FF"/>
<path d="M27.746 14.5581H20.2285V22.0672H27.746V14.5581Z" fill="#50E6FF"/>
<path d="M37.0907 14.5581H29.5732V22.0672H37.0907V14.5581Z" fill="#50E6FF"/>
<path d="M18.3344 14.5581H10.8086V22.0672H18.3261V14.5581H18.3344Z" fill="#50E6FF"/>
<path d="M27.746 23.894H20.2285V31.4031H27.746V23.894Z" fill="#50E6FF"/>
<path d="M37.0907 23.894H29.5732V31.4031H37.0907V23.894Z" fill="#50E6FF"/>
<path d="M18.3344 23.894H10.8086V31.4031H18.3261V23.894H18.3344Z" fill="#50E6FF"/>
<path d="M27.746 33.3057H20.2285V40.8147H27.746V33.3057Z" fill="#50E6FF"/>
</svg>
