<svg data-slug-id="build24" viewBox="0 0 49 48" xmlns="http://www.w3.org/2000/svg">
	<path d="M4.23249 6.24789C2.73911 6.24789 1.51917 5.02794 1.51917 3.53456C1.51917 2.04118 2.71808 0.800201 4.23249 0.800201C5.72587 0.800201 6.94582 2.02015 6.94582 3.51353C6.94582 5.02794 5.72587 6.24789 4.23249 6.24789Z" fill="#50E6FF"/>
	<path d="M12.3935 6.24789C10.8791 6.24789 9.68018 5.02794 9.68018 3.53456C9.68018 2.04118 10.8791 0.800201 12.3935 0.800201C13.8869 0.800201 15.1068 2.02015 15.1068 3.51353C15.1279 5.02794 13.8869 6.24789 12.3935 6.24789Z" fill="#50E6FF"/>
	<path d="M20.5756 6.24789C19.0612 6.24789 17.8622 5.02794 17.8622 3.53456C17.8622 2.04118 19.0612 0.800201 20.5756 0.800201C22.09 0.800201 23.2889 2.02015 23.2889 3.51353C23.2889 5.00691 22.09 6.24789 20.5756 6.24789Z" fill="#50E6FF"/>
	<path d="M28.8207 6.24789C27.3063 6.24789 26.1074 5.02794 26.1074 3.53456C26.1074 2.04118 27.3063 0.800201 28.8207 0.800201C30.3351 0.800201 31.534 2.02015 31.534 3.51353C31.534 5.00691 30.3141 6.24789 28.8207 6.24789Z" fill="#50E6FF"/>
	<path d="M36.9607 6.24789C35.4463 6.24789 34.2474 5.02794 34.2474 3.53456C34.2474 2.04118 35.4463 0.800201 36.9607 0.800201C38.4751 0.800201 39.674 2.02015 39.674 3.51353C39.674 5.00691 38.4541 6.24789 36.9607 6.24789Z" fill="#50E6FF"/>
	<path d="M45.1427 6.24789C43.6283 6.24789 42.4294 5.02794 42.4294 3.53456C42.4294 2.04118 43.6493 0.800201 45.1427 0.800201C46.6361 0.800201 47.856 2.02015 47.856 3.51353C47.8771 5.02794 46.6571 6.24789 45.1427 6.24789Z" fill="#50E6FF"/>
	<path d="M4.23249 14.4089C2.71808 14.4089 1.51917 13.1889 1.51917 11.6956C1.51917 10.2022 2.73911 8.98224 4.23249 8.98224C5.74691 8.98224 6.94582 10.2022 6.94582 11.6956C6.94582 13.1889 5.72587 14.4089 4.23249 14.4089Z" fill="#50E6FF"/>
	<path d="M45.1427 14.4089C43.6283 14.4089 42.4294 13.1889 42.4294 11.6956C42.4294 10.2022 43.6493 8.98224 45.1427 8.98224C46.6571 8.98224 47.856 10.2022 47.856 11.6956C47.8771 13.1889 46.6571 14.4089 45.1427 14.4089Z" fill="#50E6FF"/>
	<path d="M4.19044 22.6959C2.69706 22.6959 1.47711 21.476 1.47711 19.9826C1.47711 18.4682 2.69706 17.2483 4.19044 17.2483C5.70485 17.2483 6.90377 18.4682 6.90377 19.9616C6.9248 21.476 5.68382 22.6959 4.19044 22.6959Z" fill="#50E6FF"/>
	<path d="M20.5546 22.696C19.0402 22.696 17.8412 21.4761 17.8412 19.9827C17.8412 18.4893 19.0612 17.2693 20.5546 17.2693C22.048 17.2693 23.2679 18.4893 23.2679 19.9827C23.2889 21.4761 22.069 22.696 20.5546 22.696Z" fill="#50E6FF"/>
	<path d="M28.8207 22.696C27.3063 22.696 26.1074 21.4761 26.1074 19.9827C26.1074 18.4893 27.3273 17.2693 28.8207 17.2693C30.3351 17.2693 31.534 18.4893 31.534 19.9827C31.534 21.4761 30.3141 22.696 28.8207 22.696Z" fill="#50E6FF"/>
	<path d="M45.1427 22.612C43.6283 22.612 42.4294 21.3921 42.4294 19.8987C42.4294 18.4053 43.6493 17.1854 45.1427 17.1854C46.6571 17.1854 47.856 18.4053 47.856 19.8987C47.8771 21.3921 46.6571 22.612 45.1427 22.612Z" fill="#50E6FF"/>
	<path d="M42.4084 28.1229C42.4084 26.6085 43.6283 25.4096 45.1217 25.4096C46.6151 25.4096 47.835 26.6295 47.835 28.1229C47.835 29.6373 46.6151 30.8362 45.1217 30.8362C43.6283 30.8362 42.4084 29.6163 42.4084 28.1229Z" fill="#50E6FF"/>
	<path d="M42.4084 36.2416C42.4084 34.7272 43.6283 33.5283 45.1217 33.5283C46.6151 33.5283 47.835 34.7483 47.835 36.2416C47.835 37.7561 46.6151 38.955 45.1217 38.955C43.6283 38.955 42.4084 37.7561 42.4084 36.2416Z" fill="#50E6FF"/>
	<path d="M42.4084 44.4448C42.4084 42.9304 43.6283 41.7314 45.1217 41.7314C46.6151 41.7314 47.835 42.9514 47.835 44.4448C47.835 45.9382 46.6151 47.1581 45.1217 47.1581C43.6283 47.1791 42.4084 45.9592 42.4084 44.4448Z" fill="#50E6FF"/>
	<path d="M34.2474 44.4448C34.2474 42.9304 35.4673 41.7314 36.9607 41.7314C38.4541 41.7314 39.674 42.9514 39.674 44.4448C39.674 45.9592 38.4541 47.1581 36.9607 47.1581C35.4673 47.1791 34.2474 45.9592 34.2474 44.4448Z" fill="#50E6FF"/>
	<path d="M26.0443 44.4448C26.0443 42.9304 27.2643 41.7314 28.7576 41.7314C30.251 41.7314 31.471 42.9514 31.471 44.4448C31.471 45.9592 30.251 47.1581 28.7576 47.1581C27.2643 47.1791 26.0443 45.9592 26.0443 44.4448Z" fill="#50E6FF"/>
	<path d="M4.2956 30.8573C2.78119 30.8573 1.58228 29.6374 1.58228 28.144C1.58228 26.6506 2.80222 25.4307 4.2956 25.4307C5.81002 25.4307 7.00893 26.6506 7.00893 28.144C7.00893 29.6374 5.78898 30.8573 4.2956 30.8573Z" fill="#50E6FF"/>
	<path d="M20.6597 30.8573C19.1453 30.8573 17.9464 29.6374 17.9464 28.144C17.9464 26.6506 19.1664 25.4307 20.6597 25.4307C22.1531 25.4307 23.3731 26.6506 23.3731 28.144C23.3731 29.6374 22.1531 30.8573 20.6597 30.8573Z" fill="#50E6FF"/>
	<path d="M28.8207 25.4307C30.3351 25.4307 31.534 26.6506 31.534 28.144C31.534 29.6374 30.3141 30.8573 28.8207 30.8573C27.3273 30.8573 26.1074 29.6374 26.1074 28.144C26.0864 26.6506 27.3063 25.4307 28.8207 25.4307Z" fill="#50E6FF"/>
	<path d="M4.2956 39.0394C2.78119 39.0394 1.58228 37.8194 1.58228 36.326C1.58228 34.8116 2.80222 33.6127 4.2956 33.6127C5.81002 33.6127 7.00893 34.8326 7.00893 36.326C7.00893 37.8194 5.78898 39.0394 4.2956 39.0394Z" fill="#50E6FF"/>
	<path d="M4.2956 47.2003C2.78119 47.2003 1.58228 45.9804 1.58228 44.487C1.58228 42.9726 2.80222 41.7737 4.2956 41.7737C5.81002 41.7737 7.00893 42.9936 7.00893 44.487C7.00893 45.9804 5.78898 47.2003 4.2956 47.2003Z" fill="#50E6FF"/>
	<path d="M12.4567 47.2003C10.9423 47.2003 9.74335 45.9804 9.74335 44.487C9.74335 42.9726 10.9633 41.7737 12.4567 41.7737C13.9501 41.7737 15.17 42.9936 15.17 44.487C15.17 45.9804 13.9501 47.2003 12.4567 47.2003Z" fill="#50E6FF"/>
	<path d="M20.6597 47.2003C19.1453 47.2003 17.9464 45.9804 17.9464 44.487C17.9464 42.9726 19.1664 41.7737 20.6597 41.7737C22.1531 41.7737 23.3731 42.9936 23.3731 44.487C23.3731 45.9804 22.1531 47.2003 20.6597 47.2003Z" fill="#50E6FF"/>
	<path d="M12.4145 19.8985H9.72223V8.94003H20.5755V11.7165H12.4145V19.8985Z" fill="url(#build24_8b36b05f-31fb-43ac-af57-31558e0d9e12)"/>
	<path d="M20.6176 36.3468V39.0391H9.65912V28.1858H12.4145V36.3468H20.6176Z" fill="url(#build24_81a8b9d2-9fec-4edc-8049-6b59cac593fa)"/>
	<path d="M28.7787 11.7167V9.00333H39.6741V19.9197H36.8976V11.7167H28.7787Z" fill="url(#build24_c3512e93-ec97-4672-b2e9-a4cad4456887)"/>
	<path d="M36.9186 28.0807H39.6109V39.0391H28.7576V36.2627H36.9186V28.0807Z" fill="url(#build24_3f9ad467-12e9-4824-8db4-9a1e7edd3072)"/>
	<defs>
		<linearGradient id="build24_8b36b05f-31fb-43ac-af57-31558e0d9e12" x1="18.6028" y1="20.8756" x2="12.7288" y2="11.1689" gradientUnits="userSpaceOnUse">
			<stop stop-color="#0078D4"/>
			<stop offset="0.16" stop-color="#1380DA"/>
			<stop offset="0.53" stop-color="#3C91E5"/>
			<stop offset="0.82" stop-color="#559CEC"/>
			<stop offset="1" stop-color="#5EA0EF"/>
		</linearGradient>
		<linearGradient id="build24_81a8b9d2-9fec-4edc-8049-6b59cac593fa" x1="18.6257" y1="40.0068" x2="12.8608" y2="30.2947" gradientUnits="userSpaceOnUse">
			<stop stop-color="#0078D4"/>
			<stop offset="0.16" stop-color="#1380DA"/>
			<stop offset="0.53" stop-color="#3C91E5"/>
			<stop offset="0.82" stop-color="#559CEC"/>
			<stop offset="1" stop-color="#5EA0EF"/>
		</linearGradient>
		<linearGradient id="build24_c3512e93-ec97-4672-b2e9-a4cad4456887" x1="37.6936" y1="20.8931" x2="31.8633" y2="11.1838" gradientUnits="userSpaceOnUse">
			<stop stop-color="#0078D4"/>
			<stop offset="0.16" stop-color="#1380DA"/>
			<stop offset="0.53" stop-color="#3C91E5"/>
			<stop offset="0.82" stop-color="#559CEC"/>
			<stop offset="1" stop-color="#5EA0EF"/>
		</linearGradient>
		<linearGradient id="build24_3f9ad467-12e9-4824-8db4-9a1e7edd3072" x1="37.6381" y1="40.0162" x2="31.7641" y2="30.3095" gradientUnits="userSpaceOnUse">
			<stop stop-color="#0078D4"/>
			<stop offset="0.16" stop-color="#1380DA"/>
			<stop offset="0.53" stop-color="#3C91E5"/>
			<stop offset="0.82" stop-color="#559CEC"/>
			<stop offset="1" stop-color="#5EA0EF"/>
		</linearGradient>
	</defs>
</svg>
