<svg data-slug-id="building22" viewBox="0 0 49 49" xmlns="http://www.w3.org/2000/svg">
<path d="M46.8947 42.6716L30.9966 26.7676L25.8734 31.8926L41.7716 47.7966L46.8947 42.6716Z" fill="#0078D4"/>
<path d="M22.0515 17.7009L6.15332 1.79688L1.03013 6.92195L16.9283 22.8259L22.0515 17.7009Z" fill="#0078D4"/>
<path d="M5.57692 8.36776L3.38086 6.1709L2.48617 7.06592L4.68223 9.26278L5.57692 8.36776Z" fill="#50E6FF"/>
<path d="M7.1399 6.90878L4.94385 4.71191L4.04916 5.60693L6.24521 7.80379L7.1399 6.90878Z" fill="#50E6FF"/>
<path d="M8.62184 5.4493L6.42578 3.25244L5.53109 4.14746L7.72715 6.34432L8.62184 5.4493Z" fill="#50E6FF"/>
<path d="M42.5681 45.4439L40.3721 43.2471L39.4774 44.1421L41.6734 46.3389L42.5681 45.4439Z" fill="#50E6FF"/>
<path d="M44.0501 43.9849L41.854 41.7881L40.9593 42.6831L43.1554 44.88L44.0501 43.9849Z" fill="#50E6FF"/>
<path d="M45.572 42.4849L43.376 40.2881L42.4813 41.1831L44.6773 43.38L45.572 42.4849Z" fill="#50E6FF"/>
<path d="M31.055 24.4355L24.2241 17.6021L16.9459 24.8829L23.7769 31.7163L31.055 24.4355Z" fill="#0078D4"/>
<path d="M31.1837 21.8928L26.833 17.5405L18.213 26.1637L22.5637 30.5159L31.1837 21.8928Z" fill="#50E6FF"/>
<path d="M20.6851 34.5293C21.4711 33.7431 20.6155 31.6124 18.7741 29.7703C16.9327 27.9283 14.8028 27.0723 14.0169 27.8586C13.2309 28.6448 14.0865 30.7755 15.9279 32.6176C17.7693 34.4597 19.8992 35.3156 20.6851 34.5293Z" fill="#50E6FF"/>
<path d="M20.0348 33.8784C20.5513 33.3617 19.7685 31.741 18.2864 30.2583C16.8043 28.7757 15.1841 27.9926 14.6676 28.5093C14.1511 29.026 14.9339 30.6467 16.416 32.1294C17.8981 33.612 19.5183 34.3951 20.0348 33.8784Z" fill="#0078D4"/>
<path d="M15.419 40.4018C13.4064 40.4018 11.5088 39.5964 10.0712 38.1583C8.63365 36.7202 7.82861 34.8219 7.82861 32.8086" stroke="#0078D4" stroke-miterlimit="10"/>
<path d="M10.4736 32.8662C10.4736 34.2468 11.0487 35.4548 11.9112 36.3752C12.7737 37.238 14.0388 37.8133 15.4189 37.8133" stroke="#0078D4" stroke-miterlimit="10"/>
<path d="M15.4199 35.2822C14.7871 35.2822 14.1544 35.0521 13.6942 34.5919C13.234 34.1317 13.0039 33.499 13.0039 32.8662" stroke="#0078D4" stroke-miterlimit="10"/>
</svg>
