<svg data-slug-id="building08" viewBox="0 0 49 49" xmlns="http://www.w3.org/2000/svg">
<path fill-rule="evenodd" clip-rule="evenodd" d="M39.2634 12.7793C39.2634 15.2759 37.2395 17.2997 34.7428 17.2997C32.2465 17.2997 30.2227 15.2759 30.2227 12.7793C30.2227 10.2831 32.2465 8.25928 34.7428 8.25928C37.2395 8.25928 39.2634 10.2831 39.2634 12.7793Z" fill="#50E6FF"/>
<path fill-rule="evenodd" clip-rule="evenodd" d="M42.2041 17.3018H30.595C29.6583 17.3018 28.8997 16.5429 28.8997 15.6065C28.8997 14.6706 29.6583 13.9116 30.595 13.9116H42.2041C43.1404 13.9116 43.8994 14.6706 43.8994 15.6065C43.8994 16.5429 43.1404 17.3018 42.2041 17.3018Z" fill="#50E6FF"/>
<path fill-rule="evenodd" clip-rule="evenodd" d="M42.6785 12.7809C42.6785 14.4541 41.3222 15.8104 39.649 15.8104C37.9757 15.8104 36.6194 14.4541 36.6194 12.7809C36.6194 11.1081 37.9757 9.75146 39.649 9.75146C41.3222 9.75146 42.6785 11.1081 42.6785 12.7809Z" fill="#50E6FF"/>
<path fill-rule="evenodd" clip-rule="evenodd" d="M0.399658 48.7569H24.3992V0.759277H0.399658V48.7569Z" fill="#50E6FF"/>
<path fill-rule="evenodd" clip-rule="evenodd" d="M24.3989 48.7597H48.3996V24.7598H24.3989V48.7597Z" fill="#0078D4"/>
<path fill-rule="evenodd" clip-rule="evenodd" d="M6.39209 12.7591H10.892V8.25928H6.39209V12.7591Z" fill="white"/>
<path fill-rule="evenodd" clip-rule="evenodd" d="M13.8992 12.7591H18.3991V8.25928H13.8992V12.7591Z" fill="white"/>
<path fill-rule="evenodd" clip-rule="evenodd" d="M6.39209 20.2591H10.892V15.7593H6.39209V20.2591Z" fill="white"/>
<path fill-rule="evenodd" clip-rule="evenodd" d="M13.8992 20.2591H18.3991V15.7593H13.8992V20.2591Z" fill="white"/>
<path fill-rule="evenodd" clip-rule="evenodd" d="M6.39209 27.7591H10.892V23.2593H6.39209V27.7591Z" fill="white"/>
<path fill-rule="evenodd" clip-rule="evenodd" d="M13.8992 27.7591H18.3991V23.2593H13.8992V27.7591Z" fill="white"/>
<path fill-rule="evenodd" clip-rule="evenodd" d="M6.39209 35.2591H10.892V30.7593H6.39209V35.2591Z" fill="white"/>
<path fill-rule="evenodd" clip-rule="evenodd" d="M13.8992 35.2591H18.3991V30.7593H13.8992V35.2591Z" fill="white"/>
<path fill-rule="evenodd" clip-rule="evenodd" d="M9.39966 48.759H15.3996V42.7593H9.39966V48.759Z" fill="white"/>
<path fill-rule="evenodd" clip-rule="evenodd" d="M30.3979 35.2591H34.8979V30.7593H30.3979V35.2591Z" fill="#50E6FF"/>
<path fill-rule="evenodd" clip-rule="evenodd" d="M37.8979 35.2591H42.3979V30.7593H37.8979V35.2591Z" fill="#50E6FF"/>
<path fill-rule="evenodd" clip-rule="evenodd" d="M33.3989 48.759H39.3988V42.7593H33.3989V48.759Z" fill="white"/>
</svg>
