<svg data-slug-id="building19" viewBox="0 0 48 48" xmlns="http://www.w3.org/2000/svg">
<path d="M42.9535 25.2471H35.3838V47.9718H42.9535V25.2471Z" fill="#0078D4"/>
<path d="M24 0C10.7384 0 0 10.7319 0 23.9856H5.04645C5.04645 18.9421 7.01222 14.1626 10.5917 10.5853C14.1711 7.00801 18.9242 5.04342 24 5.04342C29.0465 5.04342 33.8288 7.00801 37.4083 10.5853C40.9878 14.1626 42.9535 18.9128 42.9535 23.9856H48C48 10.7319 37.2616 0 24 0Z" fill="#0078D4"/>
<path d="M35.3546 12.6079H12.6162V47.9412H35.3546V12.6079Z" fill="#3BCAF4"/>
<path d="M21.4768 26.5068H6.30811V46.7098H21.4768V26.5068Z" fill="#50E6FF"/>
<path d="M20.2151 27.7688V45.4501H7.59895V27.7688H20.2151ZM22.7383 25.2471H5.04639V47.9718H22.7383V25.2471Z" fill="#0078D4"/>
<path d="M17.6923 30.29H10.0933V32.8117H17.6629V30.29H17.6923Z" fill="#0078D4"/>
<path d="M17.6923 35.3325H10.0933V37.8542H17.6629V35.3325H17.6923Z" fill="#0078D4"/>
<path d="M17.6923 40.3765H10.0933V42.8982H17.6629V40.3765H17.6923Z" fill="#0078D4"/>
<path d="M22.7383 17.6816H17.6919V22.7251H22.7383V17.6816Z" fill="#50E6FF"/>
<path d="M30.3082 17.6816H25.2617V22.7251H30.3082V17.6816Z" fill="#50E6FF"/>
<path d="M30.3082 25.2471H25.2617V30.2905H30.3082V25.2471Z" fill="#50E6FF"/>
<path d="M30.3082 32.8115H25.2617V37.8549H30.3082V32.8115Z" fill="#50E6FF"/>
<path d="M30.3082 40.3765H25.2617V45.4492H30.3082V40.3765Z" fill="#50E6FF"/>
<path d="M42.9534 42.9272C44.3617 42.9272 45.4766 41.7836 45.4766 40.4055C45.4766 38.998 44.3324 37.8838 42.9534 37.8838C41.5451 37.8838 40.4302 39.0274 40.4302 40.4055C40.4302 41.7836 41.5451 42.9272 42.9534 42.9272Z" fill="#0078D4"/>
<path d="M46.7386 40.4056C46.7386 38.3237 45.0369 36.623 42.9538 36.623C40.8707 36.623 39.1689 38.3237 39.1689 40.4056C39.1689 42.0477 40.2252 43.4551 41.6922 43.9829V48.0001H44.2154V43.9829C45.6824 43.4258 46.7386 42.0477 46.7386 40.4056ZM42.9538 41.6665C42.2496 41.6665 41.6922 41.1093 41.6922 40.4056C41.6922 39.7019 42.2496 39.1448 42.9538 39.1448C43.6579 39.1448 44.2154 39.7019 44.2154 40.4056C44.2154 41.08 43.6286 41.6665 42.9538 41.6665Z" fill="#50E6FF"/>
</svg>
