<svg data-slug-id="building12" viewBox="0 0 49 49" xmlns="http://www.w3.org/2000/svg">
<path d="M4.2168 3.00977C4.2168 3.83561 3.54264 4.50977 2.7168 4.50977C1.89095 4.50977 1.2168 3.83561 1.2168 3.00977C1.2168 2.18392 1.89095 1.50977 2.7168 1.50977C3.54264 1.50977 4.2168 2.18392 4.2168 3.00977Z" fill="#0078D4"/>
<path d="M12.9126 3.00977C12.9126 3.83561 12.2384 4.50977 11.4126 4.50977C10.5868 4.50977 9.9126 3.83561 9.9126 3.00977C9.9126 2.18392 10.5868 1.50977 11.4126 1.50977C12.2384 1.50977 12.9126 2.18392 12.9126 3.00977Z" fill="#0078D4"/>
<path d="M21.6177 3.00977C21.6177 3.83561 20.9435 4.50977 20.1177 4.50977C19.2918 4.50977 18.6177 3.83561 18.6177 3.00977C18.6177 2.18392 19.2918 1.50977 20.1177 1.50977C20.9435 1.50977 21.6177 2.18392 21.6177 3.00977Z" fill="#0078D4"/>
<path d="M30.4663 3.00977C30.4663 3.83561 29.7922 4.50977 28.9663 4.50977C28.1405 4.50977 27.4663 3.83561 27.4663 3.00977C27.4663 2.18392 28.1405 1.50977 28.9663 1.50977C29.7922 1.50977 30.4663 2.18392 30.4663 3.00977Z" fill="#50E6FF"/>
<path d="M22.238 11.6722C22.238 12.8394 21.2852 13.7922 20.118 13.7922C18.9508 13.7922 17.998 12.8394 17.998 11.6722C17.998 10.505 18.9508 9.55225 20.118 9.55225C21.2852 9.55225 22.238 10.505 22.238 11.6722Z" fill="#0078D4"/>
<path d="M31.0861 11.6722C31.0861 12.8394 30.1333 13.7922 28.9662 13.7922C27.799 13.7922 26.8462 12.8394 26.8462 11.6722C26.8462 10.505 27.799 9.55225 28.9662 9.55225C30.1333 9.55225 31.0861 10.505 31.0861 11.6722Z" fill="#50E6FF"/>
<path d="M39.4668 3.00977C39.4668 3.83561 38.7926 4.50977 37.9668 4.50977C37.141 4.50977 36.4668 3.83561 36.4668 3.00977C36.4668 2.18392 37.141 1.50977 37.9668 1.50977C38.7926 1.50977 39.4668 2.18392 39.4668 3.00977Z" fill="#50E6FF"/>
<path d="M47.7168 3.00977C47.7168 3.83561 47.0426 4.50977 46.2168 4.50977C45.391 4.50977 44.7168 3.83561 44.7168 3.00977C44.7168 2.18392 45.391 1.50977 46.2168 1.50977C47.0426 1.50977 47.7168 2.18392 47.7168 3.00977Z" fill="#50E6FF"/>
<path d="M4.2168 11.6733C4.2168 12.4992 3.54264 13.1733 2.7168 13.1733C1.89095 13.1733 1.2168 12.4992 1.2168 11.6733C1.2168 10.8475 1.89095 10.1733 2.7168 10.1733C3.54264 10.1733 4.2168 10.8475 4.2168 11.6733Z" fill="#0078D4"/>
<path d="M12.9126 11.6733C12.9126 12.4992 12.2384 13.1733 11.4126 13.1733C10.5868 13.1733 9.9126 12.4992 9.9126 11.6733C9.9126 10.8475 10.5868 10.1733 11.4126 10.1733C12.2384 10.1733 12.9126 10.8475 12.9126 11.6733Z" fill="#0078D4"/>
<path d="M4.2168 20.4355C4.2168 21.2614 3.54264 21.9355 2.7168 21.9355C1.89095 21.9355 1.2168 21.2614 1.2168 20.4355C1.2168 19.6097 1.89095 18.9355 2.7168 18.9355C3.54264 18.9355 4.2168 19.6013 4.2168 20.4355Z" fill="#0078D4"/>
<path d="M4.2168 28.9468C4.2168 29.7726 3.54264 30.4468 2.7168 30.4468C1.89095 30.4468 1.2168 29.7726 1.2168 28.9468C1.2168 28.1209 1.89095 27.4468 2.7168 27.4468C3.54264 27.4468 4.2168 28.1125 4.2168 28.9468Z" fill="#0078D4"/>
<path d="M47.7168 29.2593C47.7168 30.0851 47.0426 30.7593 46.2168 30.7593C45.391 30.7593 44.7168 30.0851 44.7168 29.2593C44.7168 28.4334 45.391 27.7593 46.2168 27.7593C47.0426 27.7593 47.7168 28.4334 47.7168 29.2593Z" fill="#50E6FF"/>
<path d="M47.7168 20.4355C47.7168 21.2614 47.0426 21.9355 46.2168 21.9355C45.391 21.9355 44.7168 21.2614 44.7168 20.4355C44.7168 19.6097 45.391 18.9355 46.2168 18.9355C47.0426 18.9355 47.7168 19.6013 47.7168 20.4355Z" fill="#50E6FF"/>
<path d="M47.7168 11.6733C47.7168 12.4992 47.0426 13.1733 46.2168 13.1733C45.391 13.1733 44.7168 12.4992 44.7168 11.6733C44.7168 10.8475 45.391 10.1733 46.2168 10.1733C47.0426 10.1733 47.7168 10.8475 47.7168 11.6733Z" fill="#50E6FF"/>
<path d="M39.4575 11.6733C39.4575 12.4992 38.7834 13.1733 37.9575 13.1733C37.1317 13.1733 36.4575 12.4992 36.4575 11.6733C36.4575 10.8475 37.1317 10.1733 37.9575 10.1733C38.7918 10.1733 39.4575 10.8475 39.4575 11.6733Z" fill="#50E6FF"/>
<path d="M22.238 20.4383C22.238 21.6055 21.2852 22.5583 20.118 22.5583C18.9508 22.5583 17.998 21.6055 17.998 20.4383C17.998 19.2712 18.9508 18.3184 20.118 18.3184C21.2852 18.3184 22.238 19.2592 22.238 20.4383Z" fill="#0078D4"/>
<path d="M31.0861 20.4383C31.0861 21.6055 30.1333 22.5583 28.9662 22.5583C27.799 22.5583 26.8462 21.6055 26.8462 20.4383C26.8462 19.2712 27.799 18.3184 28.9662 18.3184C30.1333 18.3184 31.0861 19.2592 31.0861 20.4383Z" fill="#50E6FF"/>
<path d="M12.9126 20.4355C12.9126 21.2614 12.2384 21.9355 11.4126 21.9355C10.5868 21.9355 9.9126 21.2614 9.9126 20.4355C9.9126 19.6097 10.5868 18.9355 11.4126 18.9355C12.2384 18.9355 12.9126 19.6013 12.9126 20.4355Z" fill="#0078D4"/>
<path d="M39.4575 20.4355C39.4575 21.2614 38.7834 21.9355 37.9575 21.9355C37.1317 21.9355 36.4575 21.2614 36.4575 20.4355C36.4575 19.6097 37.1317 18.9355 37.9575 18.9355C38.7918 18.9355 39.4575 19.6013 39.4575 20.4355Z" fill="#50E6FF"/>
<path d="M31.0861 29.2582C31.0861 30.4253 30.1333 31.3781 28.9662 31.3781C27.799 31.3781 26.8462 30.4253 26.8462 29.2582C26.8462 28.091 27.799 27.1382 28.9662 27.1382C30.1333 27.1382 31.0861 28.091 31.0861 29.2582Z" fill="#50E6FF"/>
<path d="M39.4575 29.2593C39.4575 30.0851 38.7834 30.7593 37.9575 30.7593C37.1317 30.7593 36.4575 30.0851 36.4575 29.2593C36.4575 28.4334 37.1317 27.7593 37.9575 27.7593C38.7918 27.7593 39.4575 28.4334 39.4575 29.2593Z" fill="#50E6FF"/>
<path d="M23.2446 23.4863H10.4946V48.742H23.2446V23.4863Z" fill="#0078D4"/>
<path d="M10.4944 33.4468H0.5V48.7417H10.4944V33.4468Z" fill="#0078D4"/>
<path d="M28.5035 38.6035H20.7676V48.7327H28.5035V38.6035Z" fill="#0078D4"/>
<path d="M20.7668 25.998H13.1572V28.5093H20.7668V25.998Z" fill="#50E6FF"/>
<path d="M20.7668 36.1265H13.1572V38.6377H20.7668V36.1265Z" fill="#50E6FF"/>
<path d="M20.7668 43.8457H13.1572V46.3569H20.7668V43.8457Z" fill="#50E6FF"/>
<path d="M10.6462 36.1265H3.03662V38.6377H10.6462V36.1265Z" fill="#50E6FF"/>
<path d="M10.6462 43.8457H3.03662V46.3569H10.6462V43.8457Z" fill="#50E6FF"/>
<path d="M38.868 32.5709C36.8624 32.7816 35.1433 33.7844 33.9719 35.2339C32.8006 36.6833 32.177 38.5794 32.3877 40.585C32.5983 42.5906 33.6011 44.3097 35.0506 45.4811C36.5 46.6524 38.3961 47.276 40.3933 47.0653C42.3989 46.8547 44.118 45.8518 45.2978 44.4024C46.4691 42.953 47.0927 41.0569 46.882 39.0597C46.6714 37.0372 45.6433 35.3097 44.1686 34.1215C42.9298 33.1103 41.3455 32.5288 39.6517 32.5288C39.3905 32.5288 39.1377 32.5457 38.868 32.5709Z" fill="#50E6FF"/>
<path d="M36.635 37.8715L34.8653 36.439C34.1069 37.526 33.7614 38.7901 33.812 40.0289L36.0788 39.7929C36.0788 39.1272 36.2642 38.4614 36.635 37.8715Z" fill="#0078D4"/>
<path d="M41.59 36.7507L43.0226 34.981C41.9356 34.2226 40.6715 33.8855 39.4243 33.9361L39.6603 36.2029C40.3344 36.1945 41.0002 36.3799 41.59 36.7507Z" fill="#0078D4"/>
<path d="M38.8765 36.2883L38.6405 34.0215C37.4186 34.2406 36.2557 34.8473 35.354 35.8164L37.1237 37.249C37.6209 36.7602 38.236 36.4316 38.8765 36.2883Z" fill="#0078D4"/>
<path d="M36.1628 40.5835L33.896 40.8195C34.1151 42.0498 34.7218 43.2043 35.6909 44.106L37.1235 42.3363C36.6348 41.8391 36.3061 41.2324 36.1628 40.5835Z" fill="#0078D4"/>
<path d="M48.3655 38.8989C48.1126 36.4635 46.8654 34.3736 45.1126 32.9579C44.7756 32.6798 44.4048 32.4438 44.0256 32.2163L43.3346 33.5393C43.6295 33.7163 43.9076 33.9017 44.1688 34.1124C45.6435 35.309 46.6716 37.0281 46.8823 39.0506C47.093 41.0562 46.4694 42.9438 45.298 44.4017C44.1183 45.8511 42.3992 46.854 40.3935 47.0646C39.0537 47.2079 37.7643 46.9635 36.6183 46.4495L35.9272 47.7725C37.3261 48.4214 38.902 48.7247 40.5452 48.5478C42.9553 48.295 45.0368 47.0815 46.4525 45.3371C47.8683 43.5927 48.6183 41.3006 48.3655 38.8989Z" fill="#0078D4"/>
<path d="M35.0505 45.4835C33.6011 44.3121 32.5983 42.5846 32.3876 40.5874C32.1769 38.5818 32.7921 36.6942 33.9719 35.2363C35.1432 33.7869 36.8708 32.7841 38.868 32.5734C40.4859 32.4048 42.0365 32.7756 43.3258 33.5425L44.0168 32.2194C42.4663 31.3178 40.6208 30.888 38.7163 31.0902C36.3062 31.343 34.2247 32.5565 32.809 34.2925C31.4017 36.0369 30.6517 38.329 30.9045 40.7307C31.1573 43.1408 32.3708 45.2223 34.1151 46.638C34.6713 47.0846 35.2865 47.4638 35.9354 47.7672L36.6264 46.4442C36.0618 46.1914 35.5309 45.8711 35.0505 45.4835Z" fill="#A0A1A2"/>
<path d="M35.0505 45.4835C33.6011 44.3121 32.5983 42.5846 32.3876 40.5874C32.1769 38.5818 32.7921 36.6942 33.9719 35.2363C35.1432 33.7869 36.8708 32.7841 38.868 32.5734C40.4859 32.4048 42.0365 32.7756 43.3258 33.5425L44.0168 32.2194C42.4663 31.3178 40.6208 30.888 38.7163 31.0902C36.3062 31.343 34.2247 32.5565 32.809 34.2925C31.4017 36.0369 30.6517 38.329 30.9045 40.7307C31.1573 43.1408 32.3708 45.2223 34.1151 46.638C34.6713 47.0846 35.2865 47.4638 35.9354 47.7672L36.6264 46.4442C36.0618 46.1914 35.5309 45.8711 35.0505 45.4835Z" fill="#0078D4"/>
<path d="M43.646 35.4785L42.2134 37.2482C42.5673 37.6021 42.8285 38.015 43.0055 38.4532H45.3819C45.1291 37.3409 44.5392 36.2959 43.646 35.4785Z" fill="#0078D4"/>
<path d="M38.9607 40.5355C38.5562 40.1395 38.5562 39.4906 38.9523 39.0861C39.1545 38.8838 39.4157 38.7827 39.6854 38.7827C39.9466 38.7827 40.2079 38.867 40.4101 39.0692C40.4101 39.0692 40.4101 39.0692 40.4185 39.0692H43.0899H45.441H45.6601C46.073 39.0692 46.4101 39.3979 46.4101 39.8108C46.4101 40.2237 46.0815 40.5608 45.6686 40.5608H40.368C40.1742 40.7293 39.9382 40.8305 39.6938 40.8305C39.4242 40.8305 39.1629 40.7293 38.9607 40.5355Z" fill="#0078D4"/>
<path d="M45.6517 39.0692H45.4326H43.0815H40.4102C40.4102 39.0692 40.4102 39.0692 40.4017 39.0692C40.1995 38.867 39.9383 38.7827 39.677 38.7827C39.4158 38.7827 39.1461 38.8838 38.9439 39.0861C38.7416 39.2883 38.6489 39.5496 38.6489 39.8108H46.3933C46.3933 39.3979 46.0562 39.0692 45.6517 39.0692Z" fill="#0078D4"/>
</svg>
