<svg data-slug-id="building14" viewBox="0 0 48 49" xmlns="http://www.w3.org/2000/svg">
<path d="M23.8988 3.35632C25.9121 3.35632 27.8075 4.14003 29.2312 5.56419L31.0002 3.79453C29.0374 1.83104 26.4681 0.853516 23.8988 0.853516C21.3295 0.853516 18.7602 1.83104 16.7974 3.79453L18.5664 5.56419C19.9901 4.14846 21.8855 3.35632 23.8988 3.35632Z" fill="#0078D4"/>
<path d="M23.899 8.48865C24.5477 8.48865 25.1542 8.74146 25.6091 9.19651L27.3782 7.42685C26.4178 6.46618 25.1542 5.98584 23.899 5.98584C22.6439 5.98584 21.3803 6.46618 20.4199 7.42685L22.189 9.19651C22.6439 8.73303 23.2504 8.48865 23.899 8.48865Z" fill="#0078D4"/>
<path d="M47.8484 28.3569H38.2534V48.6406H47.8484V28.3569Z" fill="#0078D4"/>
<path d="M0.17627 28.3569V48.4805H14.5729V42.7502H22.0029V48.4805H38.2528V28.3569H0.17627Z" fill="#50E6FF"/>
<path d="M14.4134 11.7905H8.99675L8.68506 15.9703L14.7251 16.122L14.4134 11.7905Z" fill="#50E6FF"/>
<path d="M8.69357 15.9707L8.07861 28.3583H15.357L14.742 16.1308L8.69357 15.9707Z" fill="#0078D4"/>
<path d="M7.75889 34.2397H5.28223V36.7173H7.75889V34.2397Z" fill="#0078D7"/>
<path d="M14.11 34.2397H11.6333V36.7173H14.11V34.2397Z" fill="#0078D7"/>
<path d="M33.2999 34.2397H30.8232V36.7173H33.2999V34.2397Z" fill="#0078D7"/>
<path d="M26.9571 34.2397H24.4805V36.7173H26.9571V34.2397Z" fill="#0078D7"/>
<path d="M20.6051 34.2397H18.1284V36.7173H20.6051V34.2397Z" fill="#0078D7"/>
<path d="M26.7966 11.7905H21.2283L21.0767 15.9703L27.1167 16.122L26.7966 11.7905Z" fill="#50E6FF"/>
<path d="M21.0685 15.9707L20.2935 28.3583H27.7234L27.1085 16.1308L21.0685 15.9707Z" fill="#0078D4"/>
<path d="M39.1798 11.7905H33.6115L33.2998 15.9703L39.3398 16.122L39.1798 11.7905Z" fill="#50E6FF"/>
<path d="M33.2995 15.9707L32.6846 28.3583H40.1145L39.3395 16.1308L33.2995 15.9707Z" fill="#0078D4"/>
</svg>
