<svg data-slug-id="building18" viewBox="0 0 48 48" xmlns="http://www.w3.org/2000/svg">
<path d="M9.22861 25.7132C8.37878 25.712 7.55096 25.9833 6.8667 26.4873V32.9391C7.37644 33.3123 7.96736 33.5595 8.59104 33.6604C9.21473 33.7612 9.85343 33.7129 10.4548 33.5193C11.0562 33.3257 11.6032 32.9924 12.051 32.5467C12.4987 32.1009 12.8345 31.5555 13.0308 30.9549C13.2271 30.3544 13.2783 29.7159 13.1802 29.0918C13.0822 28.4677 12.8377 27.8757 12.4667 27.3642C12.0958 26.8528 11.6089 26.4366 11.0461 26.1496C10.4832 25.8626 9.86039 25.713 9.22861 25.7132ZM10.8446 31.3292C10.4706 31.7031 9.97856 31.9357 9.45228 31.9874C8.926 32.0392 8.39806 31.9069 7.95841 31.613C7.51877 31.3191 7.19462 30.8819 7.0412 30.3758C6.88778 29.8697 6.91458 29.3261 7.11704 28.8376C7.3195 28.3491 7.68509 27.9459 8.15151 27.6967C8.61793 27.4475 9.15633 27.3677 9.67497 27.471C10.1936 27.5743 10.6604 27.8542 10.9958 28.263C11.3312 28.6719 11.5144 29.1844 11.5143 29.7132C11.5146 30.0134 11.4556 30.3107 11.3407 30.588C11.2258 30.8653 11.0572 31.1172 10.8446 31.3292ZM25.8153 4.57031C27.0082 5.01902 27.9932 5.89277 28.581 7.02365C28.9866 7.80759 29.1837 8.68273 29.1532 9.56487C29.1226 10.447 28.8656 11.3065 28.4068 12.0605C27.9479 12.8145 27.3027 13.4378 26.5333 13.8703C25.7639 14.3028 24.896 14.5299 24.0134 14.5299C23.1307 14.5299 22.2629 14.3028 21.4934 13.8703C20.724 13.4378 20.0788 12.8145 19.62 12.0605C19.1611 11.3065 18.9041 10.447 18.8736 9.56487C18.8431 8.68273 19.0401 7.80759 19.4458 7.02365C20.0317 5.89418 21.0138 5.02061 22.2038 4.57031H6.8667V25.1456C7.65065 24.7407 8.52558 24.5444 9.40735 24.5754C10.2891 24.6064 11.1481 24.8638 11.9016 25.3228C12.6552 25.7817 13.278 26.4268 13.7101 27.1961C14.1423 27.9653 14.3693 28.8328 14.3693 29.7151C14.3693 30.5974 14.1423 31.4649 13.7101 32.2341C13.278 33.0033 12.6552 33.6484 11.9016 34.1074C11.1481 34.5664 10.2891 34.8237 9.40735 34.8548C8.52558 34.8858 7.65065 34.6895 6.8667 34.2846V45.7132H18.2953V36.5703H29.7239V45.7132H41.1524V25.2751C40.3685 25.6807 39.4933 25.8778 38.6112 25.8472C37.7291 25.8167 36.8696 25.5597 36.1156 25.1009C35.3616 24.642 34.7383 23.9968 34.3058 23.2274C33.8733 22.4579 33.6461 21.5901 33.6461 20.7075C33.6461 19.8248 33.8733 18.957 34.3058 18.1875C34.7383 17.4181 35.3616 16.7729 36.1156 16.3141C36.8696 15.8552 37.7291 15.5982 38.6112 15.5677C39.4933 15.5372 40.3685 15.7342 41.1524 16.1398V4.57031H25.8153ZM18.2953 22.856H13.7238V18.2846H18.2953V22.856ZM26.2953 31.9989H21.7239V27.4275H26.2953V31.9989ZM26.2953 22.856H21.7239V18.2846H26.2953V22.856ZM34.2953 31.9989H29.7239V27.4275H34.2953V31.9989ZM38.7905 16.7075C38.1584 16.707 37.5352 16.8563 36.9719 17.1432C36.4087 17.43 35.9214 17.8463 35.5502 18.3579C35.1789 18.8695 34.9341 19.4617 34.8359 20.0862C34.7377 20.7106 34.7889 21.3494 34.9853 21.9502C35.1817 22.551 35.5177 23.0968 35.9657 23.5427C36.4138 23.9886 36.9611 24.3219 37.5628 24.5154C38.1646 24.7089 38.8037 24.7571 39.4276 24.6559C40.0516 24.5547 40.6427 24.3071 41.1524 23.9334V17.4816C40.4682 16.9776 39.6404 16.7063 38.7905 16.7075ZM38.7905 22.9932C38.3385 22.9932 37.8965 22.8591 37.5206 22.608C37.1448 22.3568 36.8518 21.9998 36.6788 21.5822C36.5058 21.1645 36.4605 20.7049 36.5487 20.2615C36.6369 19.8182 36.8546 19.4109 37.1743 19.0912C37.4939 18.7716 37.9012 18.5539 38.3446 18.4657C38.788 18.3775 39.2476 18.4227 39.6652 18.5957C40.0829 18.7687 40.4399 19.0617 40.691 19.4376C40.9422 19.8135 41.0762 20.2554 41.0762 20.7075C41.0771 21.0079 41.0186 21.3055 40.9041 21.5832C40.7896 21.861 40.6212 22.1133 40.4088 22.3257C40.1964 22.5382 39.944 22.7065 39.6663 22.821C39.3886 22.9356 39.0909 22.9941 38.7905 22.9932ZM27.2355 7.02365C26.6729 6.25663 25.8553 5.71534 24.9295 5.497C24.0037 5.27865 23.0304 5.39757 22.1844 5.83239C21.3384 6.26721 20.6752 6.98944 20.3138 7.86933C19.9525 8.74923 19.9167 9.72913 20.213 10.633C20.5092 11.5369 21.118 12.3056 21.9301 12.8009C22.7421 13.2962 23.7042 13.4858 24.6435 13.3355C25.5827 13.1852 26.4376 12.7049 27.0546 11.981C27.6715 11.257 28.0101 10.3368 28.0096 9.38555C28.0094 8.53595 27.7382 7.70855 27.2355 7.02365ZM25.6256 11.0016C25.2516 11.3754 24.7595 11.6081 24.2332 11.6598C23.707 11.7116 23.179 11.5792 22.7394 11.2854C22.2997 10.9915 21.9756 10.5543 21.8222 10.0482C21.6687 9.54212 21.6955 8.9985 21.898 8.50997C22.1005 8.02145 22.466 7.61823 22.9325 7.36904C23.3989 7.11984 23.9373 7.04009 24.4559 7.14336C24.9746 7.24663 25.4414 7.52653 25.7767 7.93539C26.1121 8.34424 26.2954 8.85673 26.2953 9.38555C26.2956 9.68575 26.2366 9.98305 26.1217 10.2604C26.0067 10.5377 25.8381 10.7896 25.6256 11.0016ZM9.22861 25.7132C8.37878 25.712 7.55096 25.9833 6.8667 26.4873V32.9391C7.37644 33.3123 7.96736 33.5595 8.59104 33.6604C9.21473 33.7612 9.85343 33.7129 10.4548 33.5193C11.0562 33.3257 11.6032 32.9924 12.051 32.5467C12.4987 32.1009 12.8345 31.5555 13.0308 30.9549C13.2271 30.3544 13.2783 29.7159 13.1802 29.0918C13.0822 28.4677 12.8377 27.8757 12.4667 27.3642C12.0958 26.8528 11.6089 26.4366 11.0461 26.1496C10.4832 25.8626 9.86039 25.713 9.22861 25.7132ZM10.8446 31.3292C10.4706 31.7031 9.97856 31.9357 9.45228 31.9874C8.926 32.0392 8.39806 31.9069 7.95841 31.613C7.51877 31.3191 7.19462 30.8819 7.0412 30.3758C6.88778 29.8697 6.91458 29.3261 7.11704 28.8376C7.3195 28.3491 7.68509 27.9459 8.15151 27.6967C8.61793 27.4475 9.15633 27.3677 9.67497 27.471C10.1936 27.5743 10.6604 27.8542 10.9958 28.263C11.3312 28.6719 11.5144 29.1844 11.5143 29.7132C11.5146 30.0134 11.4556 30.3107 11.3407 30.588C11.2258 30.8653 11.0572 31.1172 10.8446 31.3292Z" fill="#0078D4"/>
<path d="M6.85734 26.4834V32.9352C6.34976 32.5643 5.93686 32.0788 5.65223 31.5183C5.36759 30.9578 5.21924 30.338 5.21924 29.7093C5.21924 29.0806 5.36759 28.4608 5.65223 27.9003C5.93686 27.3398 6.34976 26.8543 6.85734 26.4834Z" fill="#50E6FF"/>
<path d="M6.86013 23.0142V25.1475C6.02197 25.5804 5.31908 26.2356 4.8284 27.0413C4.33773 27.847 4.07818 28.7721 4.07818 29.7155C4.07818 30.6589 4.33773 31.584 4.8284 32.3897C5.31908 33.1954 6.02197 33.8506 6.86013 34.2835V36.4168C5.4746 35.9276 4.2749 35.0207 3.42632 33.8211C2.57775 32.6215 2.12207 31.1883 2.12207 29.7189C2.12207 28.2495 2.57775 26.8163 3.42632 25.6168C4.2749 24.4172 5.4746 23.5103 6.86013 23.021V23.0142Z" fill="#50E6FF"/>
<path d="M9.2286 25.7095C8.37878 25.7083 7.55096 25.9796 6.8667 26.4836V32.9354C7.37644 33.3086 7.96736 33.5558 8.59104 33.6567C9.21473 33.7575 9.85343 33.7092 10.4548 33.5156C11.0562 33.322 11.6032 32.9887 12.051 32.543C12.4987 32.0972 12.8345 31.5518 13.0308 30.9512C13.227 30.3507 13.2783 29.7122 13.1802 29.0881C13.0822 28.464 12.8377 27.8719 12.4667 27.3605C12.0958 26.8491 11.6089 26.4329 11.0461 26.1459C10.4832 25.8589 9.86039 25.7093 9.2286 25.7095ZM10.8446 31.3255C10.4706 31.6993 9.97856 31.932 9.45228 31.9837C8.926 32.0355 8.39806 31.9031 7.95841 31.6093C7.51877 31.3154 7.19462 30.8782 7.0412 30.3721C6.88778 29.866 6.91458 29.3224 7.11704 28.8339C7.3195 28.3454 7.68509 27.9422 8.15151 27.693C8.61793 27.4438 9.15633 27.364 9.67497 27.4673C10.1936 27.5706 10.6604 27.8505 10.9958 28.2593C11.3312 28.6682 11.5144 29.1807 11.5143 29.7095C11.5146 30.0097 11.4556 30.307 11.3407 30.5843C11.2258 30.8616 11.0572 31.1135 10.8446 31.3255Z" fill="#3BCAF4"/>
<path d="M16.3296 29.7092C16.3291 30.8447 16.0564 31.9634 15.5345 32.9718C15.0126 33.9801 14.2565 34.8487 13.3298 35.5047C12.403 36.1606 11.3325 36.5849 10.208 36.7419C9.08348 36.899 7.93771 36.7841 6.8667 36.4071V34.2807C7.65064 34.6863 8.52579 34.8833 9.40793 34.8528C10.2901 34.8223 11.1495 34.5653 11.9035 34.1064C12.6576 33.6476 13.2808 33.0024 13.7133 32.233C14.1458 31.4635 14.373 30.5957 14.373 29.713C14.373 28.8304 14.1458 27.9626 13.7133 27.1931C13.2808 26.4237 12.6576 25.7785 11.9035 25.3196C11.1495 24.8608 10.2901 24.6038 9.40793 24.5733C8.52579 24.5427 7.65064 24.7398 6.8667 25.1454V23.0121C7.93764 22.6347 9.08345 22.5196 10.2081 22.6765C11.3327 22.8333 12.4033 23.2575 13.3301 23.9134C14.257 24.5694 15.013 25.438 15.5349 26.4464C16.0568 27.4549 16.3293 28.5737 16.3296 29.7092Z" fill="#3BCAF4"/>
<path d="M41.1465 23.9347V17.4829C41.6541 17.8538 42.067 18.3393 42.3516 18.8998C42.6362 19.4604 42.7846 20.0802 42.7846 20.7088C42.7846 21.3375 42.6362 21.9573 42.3516 22.5178C42.067 23.0784 41.6541 23.5638 41.1465 23.9347Z" fill="#50E6FF"/>
<path d="M45.8855 20.702C45.8855 22.1715 45.4296 23.6048 44.5809 24.8044C43.7321 26.004 42.5322 26.9109 41.1465 27.4V25.2666C41.9844 24.8336 42.6871 24.1785 43.1777 23.3729C43.6682 22.5673 43.9277 21.6422 43.9277 20.699C43.9277 19.7558 43.6682 18.8308 43.1777 18.0251C42.6871 17.2195 41.9844 16.5644 41.1465 16.1314V13.998C42.532 14.4875 43.7316 15.3945 44.5803 16.594C45.429 17.7935 45.885 19.2266 45.8855 20.696V20.702Z" fill="#50E6FF"/>
<path opacity="0.74" d="M38.7986 16.709C38.1665 16.7085 37.5432 16.8578 36.98 17.1447C36.4167 17.4316 35.9295 17.8479 35.5582 18.3594C35.1869 18.871 34.9421 19.4633 34.844 20.0877C34.7458 20.7121 34.797 21.3509 34.9934 21.9518C35.1898 22.5526 35.5257 23.0983 35.9738 23.5442C36.4218 23.9901 36.9691 24.3235 37.5709 24.517C38.1726 24.7105 38.8117 24.7586 39.4357 24.6574C40.0596 24.5563 40.6507 24.3086 41.1605 23.9349V17.4831C40.4762 16.9791 39.6484 16.7078 38.7986 16.709ZM38.7986 22.9947C38.3465 22.9947 37.9046 22.8607 37.5287 22.6095C37.1528 22.3583 36.8598 22.0014 36.6868 21.5837C36.5138 21.166 36.4686 20.7065 36.5568 20.2631C36.645 19.8197 36.8627 19.4124 37.1823 19.0927C37.502 18.7731 37.9093 18.5554 38.3526 18.4672C38.796 18.379 39.2556 18.4243 39.6733 18.5973C40.0909 18.7703 40.4479 19.0632 40.6991 19.4391C40.9502 19.815 41.0843 20.2569 41.0843 20.709C41.0852 21.0094 41.0267 21.307 40.9121 21.5848C40.7976 21.8625 40.6293 22.1148 40.4168 22.3273C40.2044 22.5397 39.9521 22.708 39.6743 22.8226C39.3966 22.9371 39.099 22.9956 38.7986 22.9947Z" fill="#50E6FF"/>
<path opacity="0.74" d="M41.1609 14.0049V16.1382C40.377 15.7326 39.5018 15.5355 38.6197 15.566C37.7376 15.5965 36.8781 15.8536 36.1241 16.3124C35.37 16.7713 34.7468 17.4164 34.3143 18.1859C33.8818 18.9553 33.6546 19.8232 33.6546 20.7058C33.6546 21.5885 33.8818 22.4563 34.3143 23.2257C34.7468 23.9952 35.37 24.6404 36.1241 25.0992C36.8781 25.5581 37.7376 25.8151 38.6197 25.8456C39.5018 25.8761 40.377 25.6791 41.1609 25.2734V27.4068C40.0901 27.7838 38.9445 27.8986 37.8202 27.7415C36.6959 27.5845 35.6256 27.1601 34.6991 26.5041C33.7726 25.8481 33.0169 24.9795 32.4954 23.9711C31.9738 22.9628 31.7017 21.8441 31.7017 20.7089C31.7017 19.5736 31.9738 18.4549 32.4954 17.4466C33.0169 16.4383 33.7726 15.5697 34.6991 14.9136C35.6256 14.2576 36.6959 13.8333 37.8202 13.6762C38.9445 13.5191 40.0901 13.6339 41.1609 14.011V14.0049Z" fill="#50E6FF"/>
<path d="M29.2381 4.5661H25.8255C24.6613 4.12925 23.3782 4.12925 22.2141 4.5661H18.8022C19.4507 3.86304 20.2346 3.29829 21.1067 2.90573C21.9789 2.51318 22.9214 2.30092 23.8777 2.28171C24.8339 2.26249 25.7842 2.43672 26.6714 2.79392C27.5586 3.15113 28.3645 3.68394 29.0407 4.36038C29.1078 4.42743 29.1741 4.496 29.2381 4.5661Z" fill="#50E6FF"/>
<path opacity="0.74" d="M22.2058 4.57031C21.0143 5.01982 20.0307 5.89347 19.4439 7.02365H17.3105C17.6329 6.11343 18.1377 5.2786 18.794 4.57031H22.2058Z" fill="#50E6FF"/>
<path opacity="0.74" d="M27.2462 7.02287H20.7944C21.1653 6.51528 21.6508 6.10239 22.2113 5.81775C22.7719 5.53311 23.3917 5.38477 24.0203 5.38477C24.649 5.38477 25.2688 5.53311 25.8293 5.81775C26.3899 6.10239 26.8753 6.51528 27.2462 7.02287Z" fill="#50E6FF"/>
<path opacity="0.74" d="M30.6954 7.02365H28.5689C27.9811 5.89277 26.9961 5.01902 25.8032 4.57031H29.2158C29.8712 5.27859 30.3747 6.1135 30.6954 7.02365Z" fill="#50E6FF"/>
<path opacity="0.74" d="M27.2308 7.02539H20.779C20.3419 7.6215 20.0786 8.32705 20.0183 9.06373C19.9579 9.80042 20.1028 10.5394 20.437 11.1987C20.7711 11.858 21.2814 12.4119 21.9112 12.7988C22.541 13.1856 23.2657 13.3905 24.0049 13.3905C24.744 13.3905 25.4687 13.1856 26.0986 12.7988C26.7284 12.4119 27.2387 11.858 27.5728 11.1987C27.907 10.5394 28.0519 9.80042 27.9915 9.06373C27.9312 8.32705 27.6678 7.6215 27.2308 7.02539ZM25.6209 11.0033C25.2469 11.3772 24.7548 11.6098 24.2286 11.6616C23.7023 11.7133 23.1743 11.581 22.7347 11.2871C22.295 10.9932 21.9709 10.556 21.8175 10.0499C21.6641 9.54386 21.6909 9.00025 21.8933 8.51172C22.0958 8.02319 22.4614 7.61998 22.9278 7.37078C23.3942 7.12159 23.9326 7.04183 24.4513 7.1451C24.9699 7.24837 25.4367 7.52828 25.7721 7.93713C26.1075 8.34598 26.2907 8.85848 26.2906 9.3873C26.2909 9.68749 26.2319 9.98479 26.117 10.2621C26.002 10.5394 25.8335 10.7913 25.6209 11.0033Z" fill="#50E6FF"/>
<path opacity="0.74" d="M31.1013 9.3873C31.1008 10.4209 30.8746 11.4419 30.4386 12.3791C30.0026 13.3162 29.3673 14.1469 28.577 14.8131C27.7867 15.4792 26.8605 15.9648 25.8631 16.236C24.8657 16.5071 23.8211 16.5572 22.8023 16.3829C21.7836 16.2085 20.8151 15.8138 19.9647 15.2264C19.1142 14.6389 18.4023 13.8729 17.8785 12.9818C17.3548 12.0907 17.0319 11.0961 16.9324 10.0673C16.8329 9.03845 16.9592 8.00033 17.3025 7.02539H19.4358C19.0302 7.80933 18.8331 8.68448 18.8636 9.56662C18.8941 10.4488 19.1512 11.3082 19.61 12.0622C20.0689 12.8163 20.714 13.4395 21.4835 13.872C22.2529 14.3045 23.1208 14.5317 24.0034 14.5317C24.8861 14.5317 25.7539 14.3045 26.5233 13.872C27.2928 13.4395 27.938 12.8163 28.3968 12.0622C28.8556 11.3082 29.1127 10.4488 29.1432 9.56662C29.1737 8.68448 28.9767 7.80933 28.571 7.02539H30.7044C30.9701 7.78437 31.1044 8.58314 31.1013 9.3873Z" fill="#50E6FF"/>
</svg>
