<svg data-slug-id="building09" viewBox="0 0 48 49" xmlns="http://www.w3.org/2000/svg">
<path d="M0 48.7588H23.9956V0.759277H0V48.7588Z" fill="#0078D4"/>
<path d="M23.9951 48.7594H47.9907V24.7554H23.9951V48.7594Z" fill="#50E6FF"/>
<path d="M5.02002 10.8245H10.0735V5.771H5.02002V10.8245Z" fill="#50E6FF"/>
<path d="M12.6001 10.8245H17.6536V5.771H12.6001V10.8245Z" fill="#50E6FF"/>
<path d="M5.02002 18.387H10.0735V13.3335H5.02002V18.387Z" fill="#50E6FF"/>
<path d="M12.6001 18.387H17.6536V13.3335H12.6001V18.387Z" fill="#50E6FF"/>
<path d="M5.02002 25.9182H10.0735V20.8647H5.02002V25.9182Z" fill="#50E6FF"/>
<path d="M12.6001 25.9182H17.6536V20.8647H12.6001V25.9182Z" fill="#50E6FF"/>
<path d="M5.02002 33.5315H10.0735V28.478H5.02002V33.5315Z" fill="#50E6FF"/>
<path d="M12.6001 33.5315H17.6536V28.478H12.6001V33.5315Z" fill="#50E6FF"/>
<path d="M30.2446 33.4377H35.2981V28.3843H30.2446V33.4377Z" fill="#0078D4"/>
<path d="M37.8252 33.4377H42.8787V28.3843H37.8252V33.4377Z" fill="#0078D4"/>
<path d="M43.4259 14.4607H43.3922C43.5606 14.048 43.6533 13.6017 43.6533 13.1384C43.6533 11.1928 42.0699 9.60941 40.1243 9.60941C39.7116 9.60941 39.3157 9.68522 38.9451 9.81155C37.9766 8.61556 36.4942 7.84912 34.8266 7.84912C31.904 7.84912 29.5288 10.2158 29.5288 13.1384C29.5288 13.5932 29.5878 14.0396 29.6973 14.4607C28.6276 14.486 27.7686 15.3619 27.7686 16.44C27.7686 17.5349 28.6613 18.4277 29.7563 18.4277H43.4343C44.5292 18.4277 45.422 17.5349 45.422 16.44C45.4052 15.3451 44.5208 14.4607 43.4259 14.4607Z" fill="#0078D4"/>
<path d="M40.369 40.9854H32.772V48.7508H40.369V40.9854Z" fill="#0078D4"/>
<path d="M14.9755 40.9854H7.37842V48.7508H14.9755V40.9854Z" fill="#50E6FF"/>
</svg>
