<svg data-slug-id="building11" viewBox="0 0 48 49" xmlns="http://www.w3.org/2000/svg">
<path d="M3.74745 3.0069C3.74745 3.83116 3.07375 4.50403 2.24848 4.50403C1.42321 4.50403 0.749512 3.83116 0.749512 3.0069C0.749512 2.18263 1.42321 1.50977 2.24848 1.50977C3.07375 1.50977 3.74745 2.18263 3.74745 3.0069Z" fill="#0078D4"/>
<path d="M12.4379 3.0069C12.4379 3.83116 11.7642 4.50403 10.9389 4.50403C10.1136 4.50403 9.43994 3.83116 9.43994 3.0069C9.43994 2.18263 10.1136 1.50977 10.9389 1.50977C11.7642 1.50977 12.4379 2.18263 12.4379 3.0069Z" fill="#0078D4"/>
<path d="M21.1366 3.0069C21.1366 3.83116 20.4629 4.50403 19.6376 4.50403C18.8124 4.50403 18.1387 3.83116 18.1387 3.0069C18.1387 2.18263 18.8124 1.50977 19.6376 1.50977C20.4629 1.50977 21.1366 2.18263 21.1366 3.0069Z" fill="#0078D4"/>
<path d="M29.9794 3.0069C29.9794 3.83116 29.3057 4.50403 28.4804 4.50403C27.6551 4.50403 26.9814 3.83116 26.9814 3.0069C26.9814 2.18263 27.6551 1.50977 28.4804 1.50977C29.3057 1.50977 29.9794 2.18263 29.9794 3.0069Z" fill="#50E6FF"/>
<path d="M21.4824 11.6525C21.4824 12.6666 20.6535 13.4945 19.6382 13.4945C18.6228 13.4945 17.7939 12.6666 17.7939 11.6525C17.7939 10.6384 18.6228 9.81055 19.6382 9.81055C20.6535 9.81055 21.4824 10.6384 21.4824 11.6525Z" fill="#0078D4"/>
<path d="M30.3247 11.6525C30.3247 12.6666 29.4958 13.4945 28.4805 13.4945C27.4651 13.4945 26.6362 12.6666 26.6362 11.6525C26.6362 10.6384 27.4651 9.81055 28.4805 9.81055C29.4958 9.81055 30.3247 10.6384 30.3247 11.6525Z" fill="#50E6FF"/>
<path d="M38.973 3.0069C38.973 3.83116 38.2993 4.50403 37.4741 4.50403C36.6488 4.50403 35.9751 3.83116 35.9751 3.0069C35.9751 2.18263 36.6488 1.50977 37.4741 1.50977C38.2993 1.50977 38.973 2.18263 38.973 3.0069Z" fill="#50E6FF"/>
<path d="M47.2177 3.0069C47.2177 3.83116 46.544 4.50403 45.7187 4.50403C44.8934 4.50403 44.2197 3.83116 44.2197 3.0069C44.2197 2.18263 44.8934 1.50977 45.7187 1.50977C46.544 1.50977 47.2177 2.18263 47.2177 3.0069Z" fill="#50E6FF"/>
<path d="M3.74745 11.6514C3.74745 12.4757 3.07375 13.1486 2.24848 13.1486C1.42321 13.1486 0.749512 12.4757 0.749512 11.6514C0.749512 10.8272 1.42321 10.1543 2.24848 10.1543C3.07375 10.1543 3.74745 10.8272 3.74745 11.6514Z" fill="#0078D4"/>
<path d="M12.4379 11.6514C12.4379 12.4757 11.7642 13.1486 10.9389 13.1486C10.1136 13.1486 9.43994 12.4757 9.43994 11.6514C9.43994 10.8272 10.1136 10.1543 10.9389 10.1543C11.7642 10.1543 12.4379 10.8272 12.4379 11.6514Z" fill="#0078D4"/>
<path d="M3.74745 20.3975C3.74745 21.2218 3.07375 21.8947 2.24848 21.8947C1.42321 21.8947 0.749512 21.2218 0.749512 20.3975C0.749512 19.5733 1.42321 18.9004 2.24848 18.9004C3.07375 18.9004 3.74745 19.5648 3.74745 20.3975Z" fill="#0078D4"/>
<path d="M3.74745 28.8936C3.74745 29.7179 3.07375 30.3907 2.24848 30.3907C1.42321 30.3907 0.749512 29.7179 0.749512 28.8936C0.749512 28.0694 1.42321 27.3965 2.24848 27.3965C3.07375 27.3965 3.74745 28.0609 3.74745 28.8936Z" fill="#0078D4"/>
<path d="M47.2177 29.2061C47.2177 30.0304 46.544 30.7032 45.7187 30.7032C44.8934 30.7032 44.2197 30.0304 44.2197 29.2061C44.2197 28.3819 44.8934 27.709 45.7187 27.709C46.544 27.709 47.2177 28.3819 47.2177 29.2061Z" fill="#50E6FF"/>
<path d="M47.2177 20.3975C47.2177 21.2218 46.544 21.8947 45.7187 21.8947C44.8934 21.8947 44.2197 21.2218 44.2197 20.3975C44.2197 19.5733 44.8934 18.9004 45.7187 18.9004C46.544 18.9004 47.2177 19.5648 47.2177 20.3975Z" fill="#50E6FF"/>
<path d="M47.2177 11.6514C47.2177 12.4757 46.544 13.1486 45.7187 13.1486C44.8934 13.1486 44.2197 12.4757 44.2197 11.6514C44.2197 10.8272 44.8934 10.1543 45.7187 10.1543C46.544 10.1543 47.2177 10.8272 47.2177 11.6514Z" fill="#50E6FF"/>
<path d="M39.3437 11.6505C39.3437 12.6832 38.4997 13.5261 37.4658 13.5261C36.4319 13.5261 35.5879 12.6832 35.5879 11.6505C35.5879 10.6179 36.4319 9.7749 37.4658 9.7749C38.5103 9.7749 39.3437 10.6179 39.3437 11.6505Z" fill="#50E6FF"/>
<path d="M21.6355 20.3995C21.6355 21.498 20.7377 22.3947 19.6378 22.3947C18.538 22.3947 17.6401 21.498 17.6401 20.3995C17.6401 19.301 18.538 18.4043 19.6378 18.4043C20.7377 18.4043 21.6355 19.2898 21.6355 20.3995Z" fill="#0078D4"/>
<path d="M30.4783 20.3995C30.4783 21.498 29.5804 22.3947 28.4806 22.3947C27.3807 22.3947 26.4829 21.498 26.4829 20.3995C26.4829 19.301 27.3807 18.4043 28.4806 18.4043C29.5804 18.4043 30.4783 19.2898 30.4783 20.3995Z" fill="#50E6FF"/>
<path d="M12.9368 20.3995C12.9368 21.498 12.0389 22.3947 10.9391 22.3947C9.83924 22.3947 8.94141 21.498 8.94141 20.3995C8.94141 19.301 9.83924 18.4043 10.9391 18.4043C12.0389 18.4043 12.9368 19.2898 12.9368 20.3995Z" fill="#0078D4"/>
<path d="M21.4824 28.8947C21.4824 29.9088 20.6535 30.7367 19.6382 30.7367C18.6228 30.7367 17.7939 29.9088 17.7939 28.8947C17.7939 27.8806 18.6228 27.0527 19.6382 27.0527C20.6535 27.0527 21.4824 27.8702 21.4824 28.8947Z" fill="#0078D4"/>
<path d="M12.9224 28.8929C12.9224 29.9834 12.0311 30.8736 10.9392 30.8736C9.84737 30.8736 8.95605 29.9834 8.95605 28.8929C8.95605 27.8023 9.84737 26.9121 10.9392 26.9121C12.0311 26.9121 12.9224 27.7912 12.9224 28.8929Z" fill="#0078D4"/>
<path d="M3.74745 37.441C3.74745 38.2652 3.07375 38.9381 2.24848 38.9381C1.42321 38.9381 0.749512 38.2652 0.749512 37.441C0.749512 36.6167 1.42321 35.9438 2.24848 35.9438C3.07375 35.9438 3.74745 36.6167 3.74745 37.441Z" fill="#0078D4"/>
<path d="M12.4379 37.441C12.4379 38.2652 11.7642 38.9381 10.9389 38.9381C10.1136 38.9381 9.43994 38.2652 9.43994 37.441C9.43994 36.6167 10.1136 35.9438 10.9389 35.9438C11.7642 35.9438 12.4379 36.6167 12.4379 37.441Z" fill="#0078D4"/>
<path d="M39.4636 20.3995C39.4636 21.498 38.5658 22.3947 37.4659 22.3947C36.3661 22.3947 35.4683 21.498 35.4683 20.3995C35.4683 19.301 36.3661 18.4043 37.4659 18.4043C38.577 18.4043 39.4636 19.2898 39.4636 20.3995Z" fill="#50E6FF"/>
<path d="M40.3965 25.9512H27.6553V48.652H40.3965V25.9512Z" fill="#0078D4"/>
<path d="M27.655 33.3848H17.6675V48.6504H27.655V33.3848Z" fill="#0078D4"/>
<path d="M48.0006 38.5337H37.9204V48.6435H48.0006V38.5337Z" fill="#0078D4"/>
<path d="M12.505 42.9243H11.7471L10.8545 47.8951H12.2103C12.2271 47.34 12.6735 46.9026 13.2377 46.9026C13.8019 46.9026 14.2482 47.34 14.2651 47.8951H14.9724V45.3887H14.9893C14.9724 44.0345 13.8609 42.9243 12.505 42.9243ZM12.7577 44.9766V43.7486C13.5324 43.7486 14.1556 44.2953 14.1556 44.9766H12.7577Z" fill="#0078D4"/>
<path d="M11.7476 41.686H2.7959V47.8848H3.5117C3.54538 47.3465 3.98328 46.926 4.53908 46.926C5.08646 46.926 5.53278 47.3465 5.56646 47.8848L11.7476 47.8932V41.686Z" fill="#0078D4"/>
<path d="M13.2296 47.1626C12.8001 47.1626 12.438 47.5074 12.438 47.9532C12.438 48.399 12.7833 48.7438 13.2296 48.7438C13.6759 48.7438 14.0212 48.399 14.0212 47.9532C14.0212 47.5074 13.6591 47.1626 13.2296 47.1626Z" fill="#0078D4"/>
<path d="M4.53866 47.1782C4.10918 47.1782 3.74707 47.5231 3.74707 47.9688C3.74707 48.4146 4.09234 48.7595 4.53866 48.7595C4.98498 48.7595 5.33025 48.4146 5.33025 47.9688C5.32183 47.5231 4.96814 47.1782 4.53866 47.1782Z" fill="#0078D4"/>
<path d="M37.929 29.4473H30.3247V31.9537H37.929V29.4473Z" fill="#50E6FF"/>
<path d="M37.929 36.061H30.3247V38.5675H37.929V36.061Z" fill="#50E6FF"/>
<path d="M37.929 43.7637H30.3247V46.2701H37.929V43.7637Z" fill="#50E6FF"/>
<path d="M27.807 36.061H20.2026V38.5675H27.807V36.061Z" fill="#50E6FF"/>
<path d="M27.807 43.7637H20.2026V46.2701H27.807V43.7637Z" fill="#50E6FF"/>
</svg>
