<svg data-slug-id="build17" viewBox="0 0 48 48" xmlns="http://www.w3.org/2000/svg">
<path d="M39.0031 34.9849L31.3096 34.9931L26.3749 42.3828C25.5456 43.6309 26.4324 45.2977 27.9349 45.2977H42.6734C44.1924 45.2977 45.0791 43.5816 44.2088 42.3418L39.0031 34.9849Z" fill="#50E6FF"/>
<path d="M46.7951 42.2038L37.5907 28.9762V18.959H39.159V17.3086H37.5907H30.6198V18.959H32.2948V29.2061L23.657 42.2777C22.1954 44.4618 23.7637 47.4013 26.3912 47.4013H44.1019C46.7787 47.3931 48.3387 44.3879 46.7951 42.2038ZM42.665 45.2993H27.9266C26.424 45.2993 25.5373 43.6243 26.3665 42.3845L31.3013 34.9947L38.9948 34.9865L44.1923 42.3434C45.0708 43.5832 44.184 45.2993 42.665 45.2993Z" fill="#0078D4"/>
<path d="M30.2504 20.9773C29.298 20.7967 28.5754 19.9674 28.5754 18.9575V17.3071C28.5754 16.174 29.495 15.2544 30.6281 15.2544H37.5991V0.499512H25.2418V12.8075H12.9666V25.1238H0.740723V37.399L24.3879 37.4482L30.2586 28.5805V20.9773H30.2504Z" fill="#0078D4"/>
</svg>
