<svg data-slug-id="build22" viewBox="0 0 48 48" xmlns="http://www.w3.org/2000/svg">
<path d="M32.369 24.5629L36.516 20.6224C40.2502 16.8882 45.5043 7.91869 41.7701 4.18452C38.0359 0.450354 29.0664 5.72322 25.3323 9.43863L2.40186 33.57L12.4034 43.5715L27.3026 29.4042V24.5817H32.369V24.5629Z" fill="#0078D4"/>
<path d="M16.4377 45.0711L14.4111 43.0445L17.1695 40.2861L22.4049 37.0586L23.4369 38.0907L16.4377 45.0711Z" fill="#0078D4"/>
<path d="M6.22985 31.7686C6.17356 31.8061 6.0985 31.8436 6.02344 31.8436C6.07973 31.8436 6.15479 31.8248 6.22985 31.7686Z" fill="#0078D4"/>
<path d="M33.4198 16.6462C35.679 16.6462 37.5105 14.8148 37.5105 12.5555C37.5105 10.2963 35.679 8.46484 33.4198 8.46484C31.1606 8.46484 29.3291 10.2963 29.3291 12.5555C29.3291 14.8148 31.1606 16.6462 33.4198 16.6462Z" fill="#50E6FF"/>
<path d="M14.7376 33.241L12.7075 31.2109L4.44125 39.4772L6.47133 41.5073L14.7376 33.241Z" fill="#50E6FF"/>
<path d="M18.9524 41.997H25.6701C26.477 41.997 27.1525 41.3402 27.1525 40.5334V30.832L17.1885 40.2331L18.9524 41.997Z" fill="#0078D4"/>
<path d="M27.0959 43.8906C27.0959 43.9094 27.0771 43.9282 27.0771 43.9469C27.0771 43.9282 27.0959 43.9094 27.0959 43.8906Z" fill="#0078D4"/>
<path d="M27.0962 43.8735C27.1337 43.7422 27.1525 43.592 27.1525 43.4607V42.7852V43.4607C27.1713 43.6108 27.1337 43.7422 27.0962 43.8735Z" fill="#0078D4"/>
<path d="M27.0772 43.9469C26.8708 44.5286 26.3266 44.9414 25.6699 44.9414H19.7215C19.2336 44.9414 18.7645 44.7537 18.408 44.3972L15.7246 41.7139L18.6894 44.6599C18.8583 44.8288 19.1022 44.9226 19.3462 44.9226H25.6886C26.3266 44.9414 26.8708 44.5098 27.0772 43.9469Z" fill="#50E6FF"/>
<path d="M25.6702 41.9956H18.9524L17.2073 40.2505L15.7437 41.7141L18.427 44.3975C18.7648 44.7352 19.2526 44.9417 19.7405 44.9417H25.6889C26.3269 44.9417 26.8899 44.5288 27.0963 43.9471C27.0963 43.9284 27.115 43.9096 27.115 43.8908V43.8721C27.1526 43.7407 27.1713 43.5906 27.1713 43.4592V42.7837V40.532C27.1526 41.3388 26.4958 41.9956 25.6702 41.9956Z" fill="#50E6FF"/>
<path d="M0.881836 29.5187L2.92718 31.5641L5.68559 28.7869L8.89435 23.5516L7.88105 22.5195L0.881836 29.5187Z" fill="#0078D4"/>
<path d="M3.95947 27.0009V20.2832C3.95947 19.4763 4.61624 18.8008 5.42312 18.8008H15.1244L5.72335 28.7648L3.95947 27.0009Z" fill="#0078D4"/>
<path d="M2.06411 18.8789C2.04534 18.8789 2.02658 18.8977 2.00781 18.8977C2.04534 18.8789 2.04534 18.8789 2.06411 18.8789Z" fill="#0078D4"/>
<path d="M2.08301 18.8571C2.21436 18.8195 2.36448 18.8008 2.49583 18.8008H3.17136H2.49583C2.36448 18.8008 2.21436 18.8195 2.08301 18.8571Z" fill="#0078D4"/>
<path d="M2.02675 18.8945C1.44505 19.1009 1.03223 19.6451 1.03223 20.3019V26.2503C1.03223 26.7382 1.21987 27.2073 1.5764 27.5638L4.25975 30.2472L1.29493 27.2823C1.12605 27.1135 1.03223 26.8695 1.03223 26.6256V20.2831C1.03223 19.6451 1.44505 19.0822 2.02675 18.8945Z" fill="#50E6FF"/>
<path d="M3.95951 20.2832V27.0009L5.70463 28.7461L4.24098 30.2097L1.5764 27.5451C1.23864 27.2073 1.03223 26.7195 1.03223 26.2316V20.2832C1.03223 19.6452 1.44505 19.0823 2.02675 18.8758C2.04552 18.8758 2.06428 18.8571 2.08305 18.8571H2.10181C2.23316 18.8195 2.38328 18.8008 2.51463 18.8008H3.19016H5.44192C4.61628 18.8008 3.95951 19.4763 3.95951 20.2832Z" fill="#50E6FF"/>
<path d="M31.0556 25.3711H28.0532V28.3734H31.0556V25.3711Z" fill="#50E6FF"/>
<path d="M47.0994 25.3711H33.0635V28.3734H47.0994V25.3711Z" fill="#0078D4"/>
<path d="M31.0556 30.3789H28.0532V33.3813H31.0556V30.3789Z" fill="#50E6FF"/>
<path d="M47.0994 30.3789H33.0635V33.3813H47.0994V30.3789Z" fill="#0078D4"/>
<path d="M31.0556 35.3901H28.0532V38.3925H31.0556V35.3901Z" fill="#50E6FF"/>
<path d="M47.0994 35.3901H33.0635V38.3925H47.0994V35.3901Z" fill="#0078D4"/>
<path d="M31.0556 40.3828H28.0532V43.3852H31.0556V40.3828Z" fill="#50E6FF"/>
<path d="M47.0994 40.3984H33.0635V43.4008H47.0994V40.3984Z" fill="#0078D4"/>
<path d="M47.0994 25.3711H45.1104V28.3734H47.0994V25.3711Z" fill="#50E6FF"/>
<path d="M47.0994 30.3789H45.1104V33.3813H47.0994V30.3789Z" fill="#50E6FF"/>
<path d="M47.0994 35.3901H45.1104V38.3925H47.0994V35.3901Z" fill="#50E6FF"/>
<path d="M47.0994 40.3984H45.1104V43.4008H47.0994V40.3984Z" fill="#50E6FF"/>
</svg>
