<svg data-slug-id="build19" viewBox="0 0 48 48" xmlns="http://www.w3.org/2000/svg">
<path d="M36.042 10.3217L38.8532 7.46853V0H30.042V7.42657L32.8532 10.2797H32.8951V25.7203H30.084V43.5944C30.084 46.028 32.056 48 34.4895 48C36.9231 48 38.8951 46.028 38.8951 43.5944V25.7203H36L36.042 10.3217Z" fill="#50E6FF"/>
<path d="M18.9647 37.2188V13.5545C21.7339 12.5055 23.7059 9.86216 23.7059 6.75727C23.7059 3.77825 21.9017 1.17685 19.3003 0.0859375V7.63839H13.5521V0.0859375C10.9507 1.17685 9.14648 3.73629 9.14648 6.75727C9.14648 9.86216 11.1185 12.5475 13.8877 13.5545V37.1768C12.0416 38.0999 10.7409 40.03 10.7409 42.2538C10.7409 45.4006 13.3003 47.9181 16.4052 47.9181C19.5521 47.9181 22.0696 45.3587 22.0696 42.2538C22.1115 40.03 20.8528 38.1419 18.9647 37.2188ZM16.4472 44.2258C15.3563 44.2258 14.5171 43.3447 14.5171 42.2957C14.5171 41.2048 15.3982 40.3657 16.4472 40.3657C17.4961 40.3657 18.3773 41.2468 18.3773 42.2957C18.3773 43.3447 17.4961 44.2258 16.4472 44.2258Z" fill="#0078D4"/>
</svg>
