<svg data-slug-id="build03" viewBox="0 0 48 48" xmlns="http://www.w3.org/2000/svg">
<path d="M2.55989 5.04546C1.17041 5.04546 0.0419922 3.92527 0.0419922 2.52713C0.0419922 1.12899 1.17041 0.00878906 2.55989 0.00878906C3.95778 0.00878906 5.07778 1.12899 5.07778 2.52713C5.07778 3.91684 3.94936 5.04546 2.55989 5.04546Z" fill="#50E6FF"/>
<path d="M10.1131 5.04546C8.71521 5.04546 7.59521 3.91684 7.59521 2.52713C7.59521 1.13741 8.72364 0.00878906 10.1131 0.00878906C11.5026 0.00878906 12.631 1.13741 12.631 2.52713C12.6394 3.91684 11.5026 5.04546 10.1131 5.04546Z" fill="#50E6FF"/>
<path d="M17.6842 5.04546C16.2863 5.04546 15.1663 3.91684 15.1663 2.52713C15.1663 1.13741 16.2947 0.00878906 17.6842 0.00878906C19.0736 0.00878906 20.202 1.13741 20.202 2.52713C20.202 3.91684 19.082 5.04546 17.6842 5.04546Z" fill="#50E6FF"/>
<path d="M25.3138 5.04546C23.9159 5.04546 22.7959 3.91684 22.7959 2.52713C22.7959 1.13741 23.9159 0.00878906 25.3138 0.00878906C26.7117 0.00878906 27.8317 1.13741 27.8317 2.52713C27.8317 3.91684 26.7033 5.04546 25.3138 5.04546Z" fill="#50E6FF"/>
<path d="M32.8419 5.04546C31.444 5.04546 30.324 3.91684 30.324 2.52713C30.324 1.13741 31.4524 0.00878906 32.8419 0.00878906C34.2398 0.00878906 35.3598 1.13741 35.3598 2.52713C35.3598 3.91684 34.2313 5.04546 32.8419 5.04546Z" fill="#50E6FF"/>
<path d="M40.4295 5.04546C39.0316 5.04546 37.9116 3.91684 37.9116 2.52713C37.9116 1.13741 39.04 0.00878906 40.4295 0.00878906C41.819 0.00878906 42.9474 1.12899 42.9474 2.52713C42.9474 3.91684 41.819 5.04546 40.4295 5.04546Z" fill="#50E6FF"/>
<path d="M2.56038 12.6001C1.16248 12.6001 0.0424805 11.4715 0.0424805 10.0818C0.0424805 8.6921 1.1709 7.56348 2.56038 7.56348C3.95827 7.56348 5.07827 8.6921 5.07827 10.0818C5.07827 11.4715 3.94985 12.6001 2.56038 12.6001Z" fill="#50E6FF"/>
<path d="M40.4295 12.6001C39.0316 12.6001 37.9116 11.4715 37.9116 10.0818C37.9116 8.6921 39.04 7.56348 40.4295 7.56348C41.8274 7.56348 42.9474 8.6921 42.9474 10.0818C42.9474 11.4715 41.819 12.6001 40.4295 12.6001Z" fill="#50E6FF"/>
<path d="M2.5345 20.272C1.1366 20.272 0.0166016 19.1434 0.0166016 17.7537C0.0166016 16.364 1.14502 15.2354 2.5345 15.2354C3.93239 15.2354 5.05239 16.364 5.05239 17.7537C5.05239 19.1434 3.91555 20.272 2.5345 20.272Z" fill="#50E6FF"/>
<path d="M17.6761 20.272C16.2782 20.272 15.1582 19.1434 15.1582 17.7537C15.1582 16.364 16.2866 15.2354 17.6761 15.2354C19.0656 15.2354 20.194 16.364 20.194 17.7537C20.194 19.1434 19.0656 20.272 17.6761 20.272Z" fill="#50E6FF"/>
<path d="M25.3138 20.272C23.9159 20.272 22.7959 19.1434 22.7959 17.7537C22.7959 16.364 23.9243 15.2354 25.3138 15.2354C26.7117 15.2354 27.8317 16.364 27.8317 17.7537C27.8317 19.1434 26.7033 20.272 25.3138 20.272Z" fill="#50E6FF"/>
<path d="M40.4295 20.19C39.0316 20.19 37.9116 19.0614 37.9116 17.6717C37.9116 16.2819 39.04 15.1533 40.4295 15.1533C41.8274 15.1533 42.9474 16.2819 42.9474 17.6717C42.9474 19.0614 41.819 20.19 40.4295 20.19Z" fill="#50E6FF"/>
<path d="M2.61921 27.8306C1.22132 27.8306 0.101318 26.702 0.101318 25.3123C0.101318 23.9226 1.22974 22.7939 2.61921 22.7939C4.01711 22.7939 5.13711 23.9226 5.13711 25.3123C5.13711 26.702 4.00027 27.8306 2.61921 27.8306Z" fill="#50E6FF"/>
<path d="M17.7601 27.8306C16.3622 27.8306 15.2422 26.702 15.2422 25.3123C15.2422 23.9226 16.3706 22.7939 17.7601 22.7939C19.1496 22.7939 20.278 23.9226 20.278 25.3123C20.278 26.702 19.1496 27.8306 17.7601 27.8306Z" fill="#50E6FF"/>
<path d="M2.61872 35.3931C1.22083 35.3931 0.10083 34.2645 0.10083 32.8748C0.10083 31.4766 1.22925 30.3564 2.61872 30.3564C4.01662 30.3564 5.13662 31.4851 5.13662 32.8748C5.13662 34.2645 3.99978 35.3931 2.61872 35.3931Z" fill="#50E6FF"/>
<path d="M2.61872 42.9478C1.22083 42.9478 0.10083 41.8192 0.10083 40.4295C0.10083 39.0313 1.22925 37.9111 2.61872 37.9111C4.01662 37.9111 5.13662 39.0398 5.13662 40.4295C5.13662 41.8192 3.99978 42.9478 2.61872 42.9478Z" fill="#50E6FF"/>
<path d="M10.1724 42.9478C8.77454 42.9478 7.65454 41.8192 7.65454 40.4295C7.65454 39.0313 8.78296 37.9111 10.1724 37.9111C11.5619 37.9111 12.6903 39.0398 12.6903 40.4295C12.6903 41.8192 11.5619 42.9478 10.1724 42.9478Z" fill="#50E6FF"/>
<path d="M17.7601 42.9478C16.3622 42.9478 15.2422 41.8192 15.2422 40.4295C15.2422 39.0313 16.3706 37.9111 17.7601 37.9111C19.1496 37.9111 20.278 39.0398 20.278 40.4295C20.278 41.8192 19.1496 42.9478 17.7601 42.9478Z" fill="#50E6FF"/>
<path d="M45.5237 43.6059L38.2311 36.3878C39.3342 34.9475 39.9827 33.1451 39.9827 31.1995C39.9827 26.4745 36.1427 22.6338 31.4185 22.6338C26.6942 22.6338 22.8542 26.4745 22.8542 31.1995C22.8542 35.9245 26.6942 39.7652 31.4185 39.7652C33.2879 39.7652 35.0227 39.1672 36.4206 38.1565L43.7469 45.4083L45.5237 43.6059ZM31.4185 37.2385C28.0837 37.2385 25.3721 34.5264 25.3721 31.1911C25.3721 27.8558 28.0837 25.1437 31.4185 25.1437C34.7532 25.1437 37.4648 27.8558 37.4648 31.1911C37.4648 34.5264 34.7532 37.2385 31.4185 37.2385Z" fill="#0078D4"/>
<path d="M10.1308 17.6886H7.63818V7.54785H17.6845V10.1083H10.1308V17.6886Z" fill="#0078D4"/>
<path d="M17.7345 32.8919V35.385H7.58716V25.3369H10.1472V32.8919H17.7345Z" fill="#0078D4"/>
<path d="M25.2712 10.1092V7.59082H35.3597V17.6894H32.7997V10.1092H25.2712Z" fill="#0078D4"/>
</svg>
