<svg data-slug-id="build05" viewBox="0 0 49 49" xmlns="http://www.w3.org/2000/svg">
<path d="M5.13856 7.85535C3.74286 7.85535 2.61621 6.72737 2.61621 5.33002C2.61621 3.93267 3.74286 2.80469 5.13856 2.80469C6.53426 2.80469 7.66091 3.93267 7.66091 5.33002C7.66091 6.71895 6.52586 7.85535 5.13856 7.85535Z" fill="#50E6FF"/>
<path d="M12.7055 7.85535C11.3098 7.85535 10.1831 6.72737 10.1831 5.33002C10.1831 3.93267 11.3098 2.80469 12.7055 2.80469C14.1012 2.80469 15.2278 3.93267 15.2278 5.33002C15.2278 6.71895 14.0927 7.85535 12.7055 7.85535Z" fill="#50E6FF"/>
<path d="M20.2982 7.85535C18.9025 7.85535 17.7759 6.72737 17.7759 5.33002C17.7759 3.93267 18.9025 2.80469 20.2982 2.80469C21.6939 2.80469 22.8206 3.93267 22.8206 5.33002C22.8206 6.71895 21.6939 7.85535 20.2982 7.85535Z" fill="#50E6FF"/>
<path d="M27.8646 7.85535C26.4689 7.85535 25.3423 6.72737 25.3423 5.33002C25.3423 3.93267 26.4689 2.80469 27.8646 2.80469C29.2603 2.80469 30.387 3.93267 30.387 5.33002C30.387 6.71895 29.2603 7.85535 27.8646 7.85535Z" fill="#50E6FF"/>
<path d="M35.4069 7.85535C34.0112 7.85535 32.8845 6.72737 32.8845 5.33002C32.8845 3.93267 34.0112 2.80469 35.4069 2.80469C36.8026 2.80469 37.9292 3.93267 37.9292 5.33002C37.9292 6.71895 36.7942 7.85535 35.4069 7.85535Z" fill="#50E6FF"/>
<path d="M42.9992 7.85535C41.6035 7.85535 40.4768 6.72737 40.4768 5.33002C40.4768 3.93267 41.6035 2.80469 42.9992 2.80469C44.3949 2.80469 45.5215 3.93267 45.5215 5.33002C45.5215 6.71895 44.3949 7.85535 42.9992 7.85535Z" fill="#50E6FF"/>
<path d="M5.13856 15.4335C3.74286 15.4335 2.61621 14.3055 2.61621 12.9081C2.61621 11.5108 3.74286 10.3828 5.13856 10.3828C6.53426 10.3828 7.66091 11.5108 7.66091 12.9081C7.66091 14.2971 6.52586 15.4335 5.13856 15.4335Z" fill="#50E6FF"/>
<path d="M12.7055 15.4335C11.3098 15.4335 10.1831 14.3055 10.1831 12.9081C10.1831 11.5108 11.3098 10.3828 12.7055 10.3828C14.1012 10.3828 15.2278 11.5108 15.2278 12.9081C15.2278 14.2971 14.0927 15.4335 12.7055 15.4335Z" fill="#50E6FF"/>
<path d="M20.2982 15.4335C18.9025 15.4335 17.7759 14.3055 17.7759 12.9081C17.7759 11.5108 18.9025 10.3828 20.2982 10.3828C21.6939 10.3828 22.8206 11.5108 22.8206 12.9081C22.8206 14.2971 21.6939 15.4335 20.2982 15.4335Z" fill="#50E6FF"/>
<path d="M27.8646 15.4335C26.4689 15.4335 25.3423 14.3055 25.3423 12.9081C25.3423 11.5108 26.4689 10.3828 27.8646 10.3828C29.2603 10.3828 30.387 11.5108 30.387 12.9081C30.387 14.2971 29.2603 15.4335 27.8646 15.4335Z" fill="#50E6FF"/>
<path d="M35.4069 15.4335C34.0112 15.4335 32.8845 14.3055 32.8845 12.9081C32.8845 11.5108 34.0112 10.3828 35.4069 10.3828C36.8026 10.3828 37.9292 11.5108 37.9292 12.9081C37.9292 14.2971 36.7942 15.4335 35.4069 15.4335Z" fill="#50E6FF"/>
<path d="M42.9992 15.4335C41.6035 15.4335 40.4768 14.3055 40.4768 12.9081C40.4768 11.5108 41.6035 10.3828 42.9992 10.3828C44.3949 10.3828 45.5215 11.5108 45.5215 12.9081C45.5215 14.2971 44.3949 15.4335 42.9992 15.4335Z" fill="#50E6FF"/>
<path d="M5.13856 23.0345C3.74286 23.0345 2.61621 21.9066 2.61621 20.5092C2.61621 19.1119 3.74286 17.9839 5.13856 17.9839C6.53426 17.9839 7.66091 19.1119 7.66091 20.5092C7.66091 21.9066 6.52586 23.0345 5.13856 23.0345Z" fill="#50E6FF"/>
<path d="M12.7055 23.0345C11.3098 23.0345 10.1831 21.9066 10.1831 20.5092C10.1831 19.1119 11.3098 17.9839 12.7055 17.9839C14.1012 17.9839 15.2278 19.1119 15.2278 20.5092C15.2278 21.9066 14.0927 23.0345 12.7055 23.0345Z" fill="#50E6FF"/>
<path d="M20.2982 23.0345C18.9025 23.0345 17.7759 21.9066 17.7759 20.5092C17.7759 19.1119 18.9025 17.9839 20.2982 17.9839C21.6939 17.9839 22.8206 19.1119 22.8206 20.5092C22.8206 21.9066 21.6939 23.0345 20.2982 23.0345Z" fill="#50E6FF"/>
<path d="M27.8646 23.0345C26.4689 23.0345 25.3423 21.9066 25.3423 20.5092C25.3423 19.1119 26.4689 17.9839 27.8646 17.9839C29.2603 17.9839 30.387 19.1119 30.387 20.5092C30.387 21.9066 29.2603 23.0345 27.8646 23.0345Z" fill="#50E6FF"/>
<path d="M35.4069 23.0345C34.0112 23.0345 32.8845 21.9066 32.8845 20.5092C32.8845 19.1119 34.0112 17.9839 35.4069 17.9839C36.8026 17.9839 37.9292 19.1119 37.9292 20.5092C37.9292 21.9066 36.7942 23.0345 35.4069 23.0345Z" fill="#50E6FF"/>
<path d="M42.9992 23.0345C41.6035 23.0345 40.4768 21.9066 40.4768 20.5092C40.4768 19.1119 41.6035 17.9839 42.9992 17.9839C44.3949 17.9839 45.5215 19.1119 45.5215 20.5092C45.5215 21.9066 44.3949 23.0345 42.9992 23.0345Z" fill="#50E6FF"/>
<path d="M5.13856 30.6083C3.74286 30.6083 2.61621 29.4803 2.61621 28.0829C2.61621 26.6856 3.74286 25.5576 5.13856 25.5576C6.53426 25.5576 7.66091 26.6856 7.66091 28.0829C7.66091 29.4803 6.52586 30.6083 5.13856 30.6083Z" fill="#50E6FF"/>
<path d="M12.7055 30.6083C11.3098 30.6083 10.1831 29.4803 10.1831 28.0829C10.1831 26.6856 11.3098 25.5576 12.7055 25.5576C14.1012 25.5576 15.2278 26.6856 15.2278 28.0829C15.2278 29.4803 14.0927 30.6083 12.7055 30.6083Z" fill="#50E6FF"/>
<path d="M20.2982 30.6083C18.9025 30.6083 17.7759 29.4803 17.7759 28.0829C17.7759 26.6856 18.9025 25.5576 20.2982 25.5576C21.6939 25.5576 22.8206 26.6856 22.8206 28.0829C22.8206 29.4803 21.6939 30.6083 20.2982 30.6083Z" fill="#50E6FF"/>
<path d="M5.13856 38.1864C3.74286 38.1864 2.61621 37.0584 2.61621 35.6611C2.61621 34.2637 3.74286 33.1357 5.13856 33.1357C6.53426 33.1357 7.66091 34.2637 7.66091 35.6611C7.66091 37.0584 6.52586 38.1864 5.13856 38.1864Z" fill="#50E6FF"/>
<path d="M12.7055 38.1864C11.3098 38.1864 10.1831 37.0584 10.1831 35.6611C10.1831 34.2637 11.3098 33.1357 12.7055 33.1357C14.1012 33.1357 15.2278 34.2637 15.2278 35.6611C15.2278 37.0584 14.0927 38.1864 12.7055 38.1864Z" fill="#50E6FF"/>
<path d="M20.2982 38.1864C18.9025 38.1864 17.7759 37.0584 17.7759 35.6611C17.7759 34.2637 18.9025 33.1357 20.2982 33.1357C21.6939 33.1357 22.8206 34.2637 22.8206 35.6611C22.8206 37.0584 21.6939 38.1864 20.2982 38.1864Z" fill="#50E6FF"/>
<path d="M5.13856 45.7601C3.74286 45.7601 2.61621 44.6322 2.61621 43.2348C2.61621 41.8375 3.74286 40.7095 5.13856 40.7095C6.53426 40.7095 7.66091 41.8375 7.66091 43.2348C7.66091 44.6322 6.52586 45.7601 5.13856 45.7601Z" fill="#50E6FF"/>
<path d="M12.7055 45.7601C11.3098 45.7601 10.1831 44.6322 10.1831 43.2348C10.1831 41.8375 11.3098 40.7095 12.7055 40.7095C14.1012 40.7095 15.2278 41.8375 15.2278 43.2348C15.2278 44.6322 14.0927 45.7601 12.7055 45.7601Z" fill="#50E6FF"/>
<path d="M20.2982 45.7601C18.9025 45.7601 17.7759 44.6322 17.7759 43.2348C17.7759 41.8375 18.9025 40.7095 20.2982 40.7095C21.6939 40.7095 22.8206 41.8375 22.8206 43.2348C22.8206 44.6322 21.6939 45.7601 20.2982 45.7601Z" fill="#50E6FF"/>
<path d="M48.1025 46.5032L40.7961 39.2639C41.8975 37.816 42.5534 36.0146 42.5534 34.0617C42.5534 29.3225 38.711 25.4756 33.9774 25.4756C29.2437 25.4756 25.4014 29.3225 25.4014 34.0617C25.4014 38.8009 29.2437 42.6478 33.9774 42.6478C35.8523 42.6478 37.5843 42.0502 38.9884 41.0316L46.3285 48.3046L48.1025 46.5032ZM33.9774 40.1225C30.6394 40.1225 27.9237 37.4036 27.9237 34.0617C27.9237 30.7199 30.6394 28.0009 33.9774 28.0009C37.3153 28.0009 40.031 30.7199 40.031 34.0617C40.031 37.4036 37.3153 40.1225 33.9774 40.1225Z" fill="#0078D4"/>
</svg>
