<svg data-slug-id="building04" viewBox="0 0 48 49" xmlns="http://www.w3.org/2000/svg">
<path d="M6.04736 48.7415H27.8478V13.3101H6.04736V48.7415Z" fill="#0078D4"/>
<path d="M27.0239 48.7425H48.0001V20.8452H27.0239V48.7425Z" fill="#0078D4"/>
<path d="M0 5.78483H10.1012V0.759277H0V5.78483Z" fill="#50E6FF"/>
<path d="M2.68311 48.742H7.60334V4.50537H2.68311V48.742Z" fill="#50E6FF"/>
<path d="M39.1518 48.759V41.208H34.0886V48.759H39.1518Z" fill="#50E6FF"/>
<path d="M18.966 48.759V41.208H13.9028V48.759H18.966Z" fill="#50E6FF"/>
<path d="M10.1091 23.469H15.1387V18.4351H10.1091V23.469Z" fill="#50E6FF"/>
<path d="M17.6787 23.469H22.7083V18.4351H17.6787V23.469Z" fill="#50E6FF"/>
<path d="M10.1091 30.9612H15.1387V25.9272H10.1091V30.9612Z" fill="#50E6FF"/>
<path d="M17.6787 30.9612H22.7083V25.9272H17.6787V30.9612Z" fill="#50E6FF"/>
<path d="M10.1096 38.5389H15.1392V33.5049H10.1096V38.5389Z" fill="#50E6FF"/>
<path d="M17.6792 38.5389H22.7088V33.5049H17.6792V38.5389Z" fill="#50E6FF"/>
<path d="M30.2947 30.9612H35.3242V25.9272H30.2947V30.9612Z" fill="#50E6FF"/>
<path d="M30.2952 38.5389H35.3247V33.5049H30.2952V38.5389Z" fill="#50E6FF"/>
<path d="M37.865 30.9612H42.8946V25.9272H37.865V30.9612Z" fill="#50E6FF"/>
<path d="M37.865 38.5389H42.8946V33.5049H37.865V38.5389Z" fill="#50E6FF"/>
<path d="M40.9517 11.4399C40.9517 13.9316 38.9332 15.9604 36.4352 15.9604C33.9457 15.9604 31.9187 13.9401 31.9187 11.4399C31.9187 8.93976 33.9373 6.91943 36.4352 6.91943C38.9332 6.91943 40.9517 8.94818 40.9517 11.4399Z" fill="#50E6FF"/>
<path d="M43.7693 15.9597H32.1122C31.1786 15.9597 30.4216 15.2021 30.4216 14.2677C30.4216 13.3333 31.1786 12.5757 32.1122 12.5757H43.7777C44.7113 12.5757 45.4683 13.3333 45.4683 14.2677C45.4683 15.2021 44.7113 15.9597 43.7693 15.9597Z" fill="#50E6FF"/>
<path d="M43.9622 11.4409C43.9622 13.1077 42.6165 14.4545 40.9512 14.4545C39.2859 14.4545 37.9402 13.1077 37.9402 11.4409C37.9402 9.77413 39.2859 8.42725 40.9512 8.42725C42.6165 8.42725 43.9622 9.77413 43.9622 11.4409Z" fill="#50E6FF"/>
</svg>
