<svg data-slug-id="build07" viewBox="0 0 49 48" xmlns="http://www.w3.org/2000/svg">
<path d="M18.5638 33.9509C27.3531 33.9509 34.4782 26.8258 34.4782 18.0365C34.4782 9.2472 27.3531 2.12207 18.5638 2.12207C9.77454 2.12207 2.64941 9.2472 2.64941 18.0365C2.64941 26.8258 9.77454 33.9509 18.5638 33.9509Z" fill="#F8F7F6"/>
<path d="M48.1577 44.4229L32.4638 28.7318C34.7344 25.7771 36.0867 22.0714 36.0867 18.0568C36.0867 8.36663 28.2231 0.512695 18.5313 0.512695C8.83944 0.512695 0.984131 8.36663 0.984131 18.0568C0.984131 27.7469 8.83944 35.6008 18.5313 35.6008C22.4213 35.6008 26.0109 34.3322 28.9243 32.1955L44.6516 47.9201L48.1577 44.4229ZM6.02622 18.0568C6.02622 11.146 11.6276 5.54555 18.5396 5.54555C25.4516 5.54555 31.053 11.146 31.053 18.0568C31.053 24.9676 25.4433 30.568 18.5313 30.568C11.6276 30.568 6.02622 24.9676 6.02622 18.0568Z" fill="#0078D4"/>
<path d="M14.7663 10.5444H12.3455V25.5345H14.7663V10.5444Z" fill="#0078D4"/>
<path d="M19.7746 15.6343H17.3538V25.5331H19.7746V15.6343Z" fill="#50E6FF"/>
<path d="M24.8503 20.6689H22.4294V25.5349H24.8503V20.6689Z" fill="#50E6FF"/>
</svg>
