<svg data-slug-id="build02" viewBox="0 0 49 48" xmlns="http://www.w3.org/2000/svg">
<path d="M43.1535 2.52734H12.8384V48H43.1535V2.52734Z" fill="#0078D4"/>
<path d="M38.1007 0H17.8906V5.05251H38.1007V0Z" fill="#50E6FF"/>
<path d="M32.2064 22.7379L25.4697 16.0012L31.5411 9.92975C29.2812 8.9904 26.7951 8.73535 24.3914 9.19626C21.9878 9.65718 19.7724 10.8138 18.0202 12.5225C16.268 14.2312 15.0561 16.4168 14.5349 18.8081C14.0137 21.1994 14.2062 23.6911 15.0885 25.974L1.68669 39.375C0.742878 40.3246 0.213135 41.6091 0.213135 42.9479C0.213135 44.2868 0.742878 45.5713 1.68669 46.5209C2.63631 47.4647 3.92079 47.9944 5.25966 47.9944C6.59853 47.9944 7.88301 47.4647 8.83263 46.5209L22.2336 33.1191C24.5164 34.0012 27.0079 34.1937 29.3991 33.6725C31.7903 33.1513 33.9758 31.9395 35.6845 30.1875C37.3931 28.4354 38.5497 26.2202 39.0108 23.8167C39.4718 21.4132 39.2169 18.9272 38.2778 16.6673L32.2064 22.7379ZM7.04572 44.734C6.69245 45.0874 6.24231 45.328 5.75225 45.4256C5.26218 45.5231 4.7542 45.4731 4.29254 45.282C3.83088 45.0908 3.43629 44.767 3.15867 44.3515C2.88104 43.9361 2.73286 43.4476 2.73286 42.9479C2.73286 42.4482 2.88104 41.9598 3.15867 41.5443C3.43629 41.1289 3.83088 40.8051 4.29254 40.6139C4.7542 40.4227 5.26218 40.3727 5.75225 40.4703C6.24231 40.5678 6.69245 40.8085 7.04572 41.1619C7.51932 41.6356 7.78538 42.2781 7.78538 42.9479C7.78538 43.6178 7.51932 44.2602 7.04572 44.734Z" fill="#50E6FF"/>
</svg>
