<svg data-slug-id="build10" viewBox="0 0 49 48" xmlns="http://www.w3.org/2000/svg">
<path d="M9.43115 34.2753C10.0712 34.8311 10.568 35.5553 10.8627 36.3637L15.2417 33.7953C14.6438 33.1974 14.1975 32.4479 13.9617 31.6143L9.43115 34.2753Z" fill="#50E6FF"/>
<path d="M5.52422 36.5682L8.26106 34.9598C7.64632 34.5303 6.90527 34.2861 6.10527 34.2861C4.01685 34.2861 2.32422 35.9788 2.32422 38.0672C2.32422 40.1556 4.01685 41.8567 6.10527 41.8567C8.19369 41.8567 9.88632 40.164 9.88632 38.0756C9.88632 37.7135 9.8358 37.3598 9.73475 37.023L6.7958 38.7493L5.52422 36.5682Z" fill="#0078D4"/>
<path d="M8.26126 34.9585L5.52441 36.5669L6.80441 38.748L9.74336 37.0217C9.49915 36.1711 8.96862 35.4469 8.26126 34.9585Z" fill="#0078D4"/>
<path d="M22.5686 29.7771C22.3412 27.8992 20.7496 26.4424 18.8128 26.4424C16.7244 26.4424 15.0317 28.135 15.0317 30.2234C15.0317 30.4676 15.057 30.7034 15.0991 30.9392L18.6023 28.8845L22.5686 29.7771Z" fill="#0078D4"/>
<path d="M16.3789 33.1286C17.0357 33.6844 17.8863 34.0212 18.8126 34.0212C20.1684 34.0212 21.3473 33.3138 22.021 32.2444L19.0231 31.5791L16.3789 33.1286Z" fill="#0078D4"/>
<path d="M16.379 33.1319L19.0232 31.574L22.0211 32.2393C22.3832 31.6582 22.6022 30.9677 22.6022 30.2266C22.6022 30.0751 22.5937 29.9235 22.5769 29.7719L18.6106 28.8877L15.1074 30.9424C15.259 31.8182 15.7222 32.5845 16.379 33.1319Z" fill="#0078D4"/>
<path d="M47.7726 18.0677C47.7726 15.9793 46.0799 14.2866 43.9915 14.2866C41.9031 14.2866 40.2104 15.9793 40.2104 18.0677C40.2104 18.9771 40.5304 19.8193 41.0694 20.4677L42.9136 17.4108L45.0778 18.7161L43.2336 21.7729C43.4778 21.8235 43.7389 21.8487 43.9999 21.8487C46.0799 21.8487 47.7726 20.1561 47.7726 18.0677Z" fill="#0078D4"/>
<path d="M42.9052 17.4077L41.061 20.4646C41.6 21.1214 42.3579 21.593 43.2252 21.7698L45.0695 18.713L42.9052 17.4077Z" fill="#0078D4"/>
<path d="M37.0945 13.206V10.6966H34.4924C34.2734 9.03763 33.6166 7.51342 32.6398 6.25026L34.4756 4.41447L32.6987 2.64605L30.8629 4.47342C29.5913 3.505 28.0587 2.84816 26.3998 2.62921V0.0439453H23.8819V2.63763C22.2145 2.85658 20.6903 3.51342 19.4187 4.48184L17.5829 2.64605L15.8061 4.41447L17.6334 6.25026C16.665 7.51342 16.0082 9.04605 15.7808 10.6966H13.1787V13.206H15.7808C15.9998 14.865 16.6566 16.3892 17.6334 17.6524L15.7977 19.4882L17.5745 21.2566L19.4103 19.4208C20.6819 20.3892 22.2145 21.046 23.8734 21.265V23.8587H26.3913V21.265C28.0587 21.046 29.5829 20.3892 30.8545 19.4208L32.6903 21.2566L34.4671 19.4882L32.6313 17.6524C33.5998 16.3892 34.2566 14.8566 34.484 13.206H37.0945ZM25.145 17.7113C21.9619 17.7113 19.3766 15.1345 19.3766 11.9597C19.3766 8.785 21.9619 6.20816 25.145 6.20816C28.3282 6.20816 30.9134 8.785 30.9134 11.9597C30.9134 15.1345 28.3282 17.7113 25.145 17.7113Z" fill="#0078D4"/>
<path d="M43.9832 5.07374C45.3474 6.43795 46.0968 8.24848 46.0968 10.1853H48.4968C48.4968 7.52427 47.419 5.12427 45.6758 3.38111C43.9326 1.63795 41.5326 0.560059 38.8716 0.560059V2.96006C40.8084 2.96006 42.6189 3.70953 43.9832 5.07374Z" fill="#0078D4"/>
<path d="M40.5136 8.54011C40.9515 8.97801 41.1957 9.55906 41.1957 10.1738H43.5957C43.5957 8.86853 43.0736 7.69801 42.2146 6.83906C41.3641 5.98853 40.1851 5.45801 38.8799 5.45801V7.85801C39.4946 7.86643 40.0757 8.10222 40.5136 8.54011Z" fill="#0078D4"/>
<path d="M42.5424 22.8961C41.7087 22.6519 40.9761 22.1887 40.3782 21.5908L37.0435 27.115C37.8435 27.4182 38.5761 27.8645 39.2077 28.4203L42.5424 22.8961Z" fill="#50E6FF"/>
<path d="M23.8565 30.0635C23.8565 30.1224 23.8649 30.173 23.8649 30.2319C23.8649 31.0572 23.6628 31.8403 23.3091 32.5308L27.4607 33.4572C27.4943 32.5898 27.688 31.7561 28.008 30.9898L23.8565 30.0635Z" fill="#50E6FF"/>
<path d="M34.5262 37.5162C36.6144 37.5162 38.3072 35.8234 38.3072 33.7352C38.3072 31.6469 36.6144 29.9541 34.5262 29.9541C32.438 29.9541 30.7451 31.6469 30.7451 33.7352C30.7451 35.8234 32.438 37.5162 34.5262 37.5162Z" fill="#50E6FF"/>
<path d="M48.6233 46.2081L41.1706 38.7554C42.2485 37.3491 42.8885 35.5891 42.8885 33.686C42.8885 29.0796 39.1496 25.3491 34.5517 25.3491C29.9454 25.3491 26.2148 29.0796 26.2148 33.686C26.2148 38.2923 29.9454 42.0228 34.5517 42.0228C36.3959 42.0228 38.1054 41.4165 39.4864 40.406L46.9559 47.8754L48.6233 46.2081ZM28.6064 33.686C28.6064 30.4018 31.2675 27.7407 34.5517 27.7407C37.8359 27.7407 40.497 30.4018 40.497 33.686C40.497 36.9702 37.8359 39.6312 34.5517 39.6312C31.2675 39.6228 28.6064 36.9618 28.6064 33.686Z" fill="#0078D4"/>
<path d="M13.1786 7.6071V6.45342H11.9828C11.8817 5.6871 11.5786 4.98816 11.1322 4.4071L11.9743 3.565L11.1575 2.74816L10.307 3.59026C9.71751 3.14395 9.01856 2.84079 8.25224 2.73973V1.54395H7.09856V2.73973C6.33224 2.84079 5.6333 3.14395 5.04382 3.59026L4.20172 2.74816L3.38487 3.565L4.22698 4.4071C3.78066 4.98816 3.47751 5.6871 3.37645 6.45342H2.18066V7.6071H3.37645C3.47751 8.37342 3.78066 9.07237 4.22698 9.65342L3.38487 10.4955L4.20172 11.3124L5.04382 10.4703C5.6333 10.9166 6.33224 11.2197 7.09856 11.3208V12.5166H8.26066V11.3208C9.02698 11.2197 9.72593 10.9166 10.3154 10.4703L11.1575 11.3124L11.9743 10.4955L11.1322 9.65342C11.5786 9.07237 11.8817 8.37342 11.9828 7.6071H13.1786ZM7.67961 9.67868C6.21435 9.67868 5.02698 8.49131 5.02698 7.03447C5.02698 5.57763 6.21435 4.38184 7.67961 4.38184C9.14488 4.38184 10.3322 5.56921 10.3322 7.02605C10.3322 8.48289 9.14488 9.67868 7.67961 9.67868Z" fill="#50E6FF"/>
</svg>
