<svg data-slug-id="building17" viewBox="0 0 48 48" xmlns="http://www.w3.org/2000/svg">
<path d="M42.9904 27.5489C42.2663 18.1863 34.7307 10.7265 25.3345 10.1203V5.02649H32.9037V0H25.3345H23.2549H22.8002V10.1203C13.4376 10.7602 5.9358 18.2031 5.22014 27.5404H0V47.9916H48V27.5489H42.9904Z" fill="#50E6FF"/>
<path d="M2.61865 45.3586H7.6283V30.2539H2.61865V45.3586Z" fill="#0078D4"/>
<path d="M10.1792 45.3586H15.1888V30.2539H10.1792V45.3586Z" fill="#0078D4"/>
<path d="M17.7231 45.3586H22.7328V30.2539H17.7231V45.3586Z" fill="#0078D4"/>
<path d="M25.3091 45.3586H30.3187V30.2539H25.3091V45.3586Z" fill="#0078D4"/>
<path d="M32.9541 45.3586H37.9637V30.2539H32.9541V45.3586Z" fill="#0078D4"/>
<path d="M40.54 45.3586H45.5497V30.2539H40.54V45.3586Z" fill="#0078D4"/>
</svg>
