<svg data-slug-id="building23" viewBox="0 0 49 49" xmlns="http://www.w3.org/2000/svg">
<path d="M28.353 24.6968H6.96094V28.8968H28.353V24.6968Z" fill="#0078D4"/>
<path d="M13.1586 25.197V26.497H6.96094V25.197V22.697C6.96094 21.997 8.36042 21.397 10.0598 21.397C11.7592 21.397 13.1586 21.997 13.1586 22.697V25.197Z" fill="#0078D4"/>
<path d="M10.0598 21.2969C8.36042 21.2969 6.96094 21.8969 6.96094 22.5969V23.6969C6.96094 22.9969 8.36042 22.3969 10.0598 22.3969C11.7592 22.3969 13.1586 22.9969 13.1586 23.6969V22.5969C13.1586 21.8969 11.7592 21.2969 10.0598 21.2969Z" fill="#50E6FF"/>
<path d="M10.0598 24.0967C8.36042 24.0967 6.96094 24.5967 6.96094 25.0967V25.2967C6.96094 24.6967 8.36042 24.2967 10.0598 24.2967C11.7592 24.2967 13.1586 24.7967 13.1586 25.2967V25.0967C13.1586 24.5967 11.7592 24.0967 10.0598 24.0967Z" fill="#50E6FF"/>
<path d="M19.3562 24.5971V27.9971H12.2588V24.5971V19.4971C12.2588 18.6971 13.8582 17.9971 15.8575 17.9971C17.8567 17.9971 19.4561 18.6971 19.4561 19.4971V24.5971H19.3562Z" fill="#0078D4"/>
<path d="M15.7578 17.7969C13.7586 17.7969 12.1592 18.4969 12.1592 19.2969V20.4969C12.1592 19.6969 13.7586 18.9969 15.7578 18.9969C17.7571 18.9969 19.3565 19.6969 19.3565 20.4969V19.2969C19.3565 18.4969 17.7571 17.7969 15.7578 17.7969Z" fill="#50E6FF"/>
<path d="M15.7578 21.7969C13.7586 21.7969 12.1592 22.2969 12.1592 22.8969V23.0969C12.1592 22.4969 13.7586 21.9969 15.7578 21.9969C17.7571 21.9969 19.3565 22.4969 19.3565 23.0969V22.8969C19.3565 22.2969 17.7571 21.7969 15.7578 21.7969Z" fill="#50E6FF"/>
<path d="M15.7578 23.1968C13.7586 23.1968 12.1592 23.6968 12.1592 24.2968V24.4968C12.1592 23.8968 13.7586 23.3968 15.7578 23.3968C17.7571 23.3968 19.3565 23.8968 19.3565 24.4968V24.2968C19.3565 23.6968 17.7571 23.1968 15.7578 23.1968Z" fill="#50E6FF"/>
<path d="M31.3521 27.0967L34.6508 4.09668H38.5494L41.8482 27.0967" stroke="#0078D4" stroke-width="0.75" stroke-miterlimit="10" stroke-linecap="round" stroke-linejoin="round"/>
<path d="M39.4487 3.59668H33.6509V4.19668H39.4487V3.59668Z" fill="#0078D4"/>
<path d="M43.7475 26.897H29.5527V28.897H43.7475V26.897Z" fill="#0078D4"/>
<path d="M38.7491 1.79688H34.4507V3.09687H38.7491V1.79688Z" fill="#0078D4"/>
<path d="M31.3521 27.0969L40.3487 17.7969L33.8511 9.79688L38.3495 4.29688" stroke="#0078D4" stroke-width="0.75" stroke-miterlimit="10" stroke-linecap="round" stroke-linejoin="round"/>
<path d="M41.848 27.0969C41.648 26.7969 32.6514 17.7969 32.6514 17.7969L39.149 9.79688L34.6506 4.29688" stroke="#0078D4" stroke-width="0.75" stroke-miterlimit="10" stroke-linecap="round" stroke-linejoin="round"/>
<path d="M28.3529 24.9968V27.8968H16.6572V24.9968V16.6968C16.6572 15.2968 19.2563 14.1968 22.4551 14.1968C25.6539 14.1968 28.2529 15.2968 28.2529 16.6968V24.9968H28.3529Z" fill="#0078D4"/>
<path d="M46.0462 31.1968H4.66162V34.4968H46.0462V31.1968Z" fill="#0078D4"/>
<path d="M15.5577 36.7969H10.5596V45.0969H15.5577V36.7969Z" fill="#0078D4"/>
<path d="M39.4488 36.7969H34.4507V45.0969H39.4488V36.7969Z" fill="#0078D4"/>
<path d="M16.3574 47.3968C15.5577 47.3968 14.858 47.2968 14.0583 46.5968L13.7584 46.3968C13.2586 45.9968 13.0587 45.7968 12.6588 45.7968C12.259 45.7968 12.159 45.7968 11.8591 46.0968C11.7592 46.1968 11.5592 46.2968 11.4593 46.3968C10.6596 46.9968 10.2597 47.2968 8.96019 47.2968H8.86023C7.8606 47.2968 7.16086 46.9968 6.56108 46.2968C6.16123 46.0968 5.76138 45.7968 5.66142 45.7968C5.46149 45.7968 5.36153 45.7968 5.36153 45.7968H4.86171V45.2968C4.86171 45.2968 4.86171 44.3968 4.86171 43.9968L4.06201 43.4968L5.26157 43.2968C5.26157 43.2968 5.36153 43.2968 5.56145 43.2968C5.96131 43.2968 6.86097 43.3968 7.56071 44.0968L7.66067 44.1968C8.46038 44.7968 8.46038 44.7968 8.96019 44.7968C9.36004 44.7968 9.65993 44.5968 10.2597 44.0968C10.8595 43.4968 11.6592 43.1968 12.5589 43.1968H12.7588C13.4585 43.1968 14.2582 43.2968 15.2579 44.0968L15.3578 44.1968C16.0576 44.7968 16.0576 44.7968 16.4574 44.7968C16.8573 44.7968 17.2571 44.3968 17.557 44.1968C17.657 44.0968 17.7569 43.9968 17.8569 43.9968C18.2567 43.6968 18.8565 43.1968 20.0561 43.1968H20.156C21.3556 43.1968 21.7554 43.3968 22.7551 44.1968C23.4548 44.7968 23.5548 44.7968 23.7547 44.7968H23.8547C24.1545 44.7968 24.4544 44.5968 24.8543 44.2968C24.9542 44.1968 25.0542 44.0968 25.2541 43.9968C25.8539 43.5968 26.4537 43.1968 27.5533 43.1968C28.7528 43.1968 29.1527 43.4968 29.9524 44.0968L30.2523 44.3968C30.6521 44.7968 30.7521 44.7968 31.1519 44.7968C31.5518 44.7968 31.7517 44.5968 32.2515 44.2968C32.3515 44.1968 32.4515 44.0968 32.5514 43.9968C33.2512 43.4968 33.751 43.1968 34.9505 43.1968C36.2501 43.1968 36.8498 43.6968 37.5496 44.2968C37.9494 44.7968 38.0494 44.7968 38.4492 44.7968C38.8491 44.7968 39.049 44.5968 39.4489 44.2968L39.6488 44.0968C40.0486 43.6968 40.7484 43.1968 41.9479 43.1968C42.9476 43.1968 43.6473 43.2968 44.447 44.0968C44.547 44.1968 44.9468 44.4968 45.1468 44.6968C45.3467 44.7968 45.4466 44.7968 45.6466 44.7968C45.7465 44.7968 45.7465 44.7968 45.7465 44.7968L46.3463 44.6968V47.2968L45.9465 47.3968C45.9465 47.3968 45.8465 47.3968 45.6466 47.3968C45.1468 47.3968 44.347 47.2968 43.6473 46.6968C43.5473 46.5968 43.3474 46.3968 43.2475 46.2968C42.8476 45.8968 42.7476 45.7968 42.3478 45.7968C41.648 45.7968 41.3482 45.9968 41.0483 46.3968C40.4485 46.9968 39.6488 47.3968 38.7491 47.3968H38.6492C37.7495 47.3968 37.1497 47.2968 36.2501 46.5968L35.9502 46.3968C35.4503 45.9968 35.3504 45.7968 34.8506 45.7968C34.3508 45.7968 34.2508 45.8968 33.8509 46.1968C33.751 46.2968 33.651 46.3968 33.5511 46.3968C32.8513 46.8968 32.3515 47.2968 31.2519 47.2968C29.9524 47.2968 29.4526 46.9968 28.7528 46.4968C28.6529 46.3968 28.5529 46.2968 28.4529 46.1968C28.0531 45.8968 27.9531 45.6968 27.4533 45.6968C26.9535 45.6968 26.8535 45.7968 26.5537 46.0968C26.4537 46.1968 26.3537 46.2968 26.1538 46.4968C25.554 46.9968 25.0542 47.2968 23.8547 47.2968C22.855 47.2968 22.2553 47.1968 21.4555 46.4968L21.3556 46.3968C20.8558 45.8968 20.6558 45.7968 20.356 45.7968C19.8561 45.7968 19.7562 45.7968 19.1564 46.3968C18.0568 47.0968 17.2571 47.3968 16.3574 47.3968Z" fill="#50E6FF"/>
<path d="M5.56223 43.697C5.96208 43.697 6.66182 43.797 7.2616 44.397C8.16126 45.297 8.26123 45.297 8.96097 45.397H9.06093C9.66071 45.397 10.0606 45.097 10.6603 44.497C11.2601 43.997 11.8599 43.797 12.5596 43.797C12.6596 43.797 12.6596 43.797 12.7596 43.797C13.4593 43.797 14.0591 43.897 14.9587 44.597C15.7584 45.297 15.8584 45.397 16.4582 45.397C17.1579 45.397 17.6577 44.697 18.0576 44.397C18.4574 44.097 18.9573 43.697 19.9569 43.697H20.0568C21.0565 43.697 21.4563 43.797 22.356 44.597C23.1557 45.297 23.3556 45.297 23.6555 45.297C23.7555 45.297 23.7555 45.297 23.8554 45.297C24.4552 45.297 24.8551 44.897 25.4548 44.397C26.0546 43.997 26.4545 43.697 27.4541 43.697C28.4537 43.697 28.7536 43.897 29.5533 44.497C30.2531 45.097 30.453 45.297 31.0528 45.297C31.7525 45.297 32.0524 44.897 32.6522 44.397C33.2519 43.897 33.6518 43.697 34.7514 43.697C35.851 43.697 36.3508 44.097 37.0505 44.697C37.6503 45.197 37.8502 45.397 38.45 45.397C39.1498 45.397 39.5496 44.897 39.9495 44.497C40.3493 44.097 40.9491 43.797 41.9487 43.797C41.9487 43.797 41.9487 43.797 42.0487 43.797C42.9483 43.797 43.4482 43.897 44.1479 44.597C44.1479 44.597 44.5478 44.997 44.9476 45.197C45.1475 45.297 45.4474 45.397 45.6473 45.397C45.7473 45.397 45.8473 45.397 45.8473 45.397V46.997C45.8473 46.997 45.7473 46.997 45.5474 46.997C45.1475 46.997 44.4478 46.897 43.848 46.397C43.2482 45.797 42.9483 45.297 42.2486 45.297H42.1486C41.3489 45.297 40.9491 45.597 40.5492 46.097C40.0494 46.597 39.4496 46.897 38.55 46.897H38.45C37.5504 46.897 37.0505 46.797 36.3508 46.197C35.6511 45.597 35.4511 45.297 34.6514 45.297C33.8517 45.297 33.6518 45.597 33.052 46.097C32.4522 46.597 32.0524 46.897 31.0528 46.897C29.9532 46.897 29.4534 46.697 28.8536 46.197C28.2538 45.697 28.0539 45.297 27.1542 45.297C26.2545 45.297 26.0546 45.797 25.5548 46.197C24.955 46.597 24.5552 46.897 23.6555 46.897C22.7558 46.897 22.256 46.797 21.5563 46.197C20.9565 45.597 20.6566 45.297 20.0568 45.297C19.4571 45.297 19.2571 45.397 18.5574 45.997C17.8577 46.597 17.1579 46.897 16.3582 46.897C16.3582 46.897 16.3582 46.897 16.2583 46.897C15.4586 46.897 14.9587 46.797 14.259 46.197C13.5593 45.597 13.2594 45.297 12.5596 45.297C11.8599 45.297 11.7599 45.497 11.0602 46.097C10.2605 46.697 10.0606 46.897 8.861 46.897H8.76104C7.66145 46.897 7.16163 46.497 6.86175 46.097C6.56186 45.697 6.06204 45.397 5.76215 45.297C5.56223 45.297 5.3623 45.297 5.3623 45.297V43.697C5.26234 43.697 5.3623 43.697 5.56223 43.697ZM5.56223 42.697C5.3623 42.697 5.16238 42.697 5.16238 42.697L2.46338 43.197L4.26271 44.297C4.26271 44.797 4.26271 45.297 4.26271 45.297V46.397L5.3623 46.297C5.3623 46.297 5.46227 46.297 5.56223 46.297C5.56223 46.297 5.86212 46.497 6.06204 46.697C6.76178 47.497 7.66145 47.797 8.76104 47.797H8.861C10.2605 47.797 10.6603 47.497 11.56 46.797C11.7599 46.597 11.8599 46.497 12.0598 46.397C12.1598 46.297 12.2597 46.197 12.3597 46.197C12.3597 46.197 12.4597 46.197 12.5596 46.197C12.8595 46.197 12.8595 46.197 13.3593 46.697L13.6592 46.897C14.6588 47.697 15.3586 47.797 16.2583 47.797H16.3582C17.3578 47.797 18.2575 47.397 19.1572 46.597C19.657 46.097 19.657 46.097 20.0568 46.097C20.2568 46.097 20.2568 46.097 20.7566 46.597L20.9565 46.697C21.8562 47.497 22.5559 47.697 23.7555 47.697C25.055 47.697 25.6548 47.297 26.3545 46.797C26.5544 46.697 26.6544 46.497 26.7544 46.397C27.0542 46.097 27.0542 46.097 27.3541 46.097C27.754 46.097 27.754 46.097 28.0539 46.397C28.1538 46.497 28.2538 46.597 28.4537 46.697C29.2534 47.397 30.0531 47.597 31.2527 47.697C32.5522 47.697 33.2519 47.197 33.8517 46.697C33.9517 46.597 34.0516 46.497 34.1516 46.397C34.5515 46.097 34.5515 46.097 34.8514 46.097C35.1512 46.097 35.1512 46.097 35.6511 46.497L35.9509 46.697C36.9506 47.497 37.6503 47.597 38.6499 47.597H38.7499C39.7495 47.597 40.7492 47.197 41.4489 46.397C41.7488 46.097 41.9487 45.997 42.3486 45.897C42.4485 45.897 42.5485 45.897 42.8484 46.297C42.9483 46.397 43.1483 46.597 43.2482 46.697C44.0479 47.397 45.0476 47.497 45.5474 47.497C45.7473 47.497 45.9472 47.497 45.9472 47.497L46.8469 47.397V46.497V44.897V43.797L45.7473 43.997C45.6473 43.997 45.5474 43.997 45.5474 43.997C45.3475 43.897 45.0476 43.597 44.9476 43.497C43.948 42.597 43.1483 42.397 42.1486 42.397H42.0487C40.6492 42.397 39.8495 42.897 39.3497 43.397C39.2497 43.497 39.2497 43.497 39.1498 43.597C38.8499 43.897 38.7499 43.997 38.55 43.997C38.2501 43.997 38.2501 43.997 37.7503 43.597C37.0505 42.997 36.3508 42.397 34.8514 42.397C33.4519 42.397 32.8521 42.797 32.1524 43.297C32.0524 43.397 31.9524 43.497 31.8525 43.597C31.4526 43.897 31.3527 43.997 31.1527 43.997C30.9528 43.997 30.9528 43.997 30.5529 43.697C30.453 43.597 30.353 43.497 30.2531 43.397C29.4534 42.697 28.8536 42.397 27.5541 42.397C26.1546 42.397 25.5548 42.897 24.8551 43.297C24.7551 43.397 24.5552 43.497 24.4552 43.597C24.1553 43.797 23.9554 43.997 23.8554 43.997H23.7555H23.6555C23.5555 43.997 23.4556 43.897 22.9558 43.497C21.8562 42.597 21.3564 42.397 20.0568 42.397H19.9569C18.5574 42.397 17.8577 42.997 17.4578 43.297C17.3578 43.397 17.2579 43.497 17.1579 43.597C16.958 43.797 16.6581 44.097 16.4582 44.097C16.2583 44.097 16.2583 44.097 16.2583 44.097C16.1583 44.097 15.9584 43.797 15.6585 43.597L15.4586 43.797C14.359 42.797 13.4593 42.797 12.7596 42.797C12.6596 42.797 12.5596 42.797 12.5596 42.797C11.56 42.797 10.6603 43.097 10.0606 43.797C9.46078 44.297 9.36082 44.397 9.16089 44.397C8.96097 44.397 8.861 44.397 8.861 44.397C8.76104 44.397 8.46115 44.097 8.16126 43.797L8.0613 43.697C6.96171 42.797 6.06204 42.697 5.56223 42.697Z" fill="white"/>
<path d="M24.2545 21.4967C24.2545 22.3967 23.5547 23.0967 22.6551 23.0967C21.7554 23.0967 21.0557 22.3967 21.0557 21.4967C21.0557 20.5967 22.4551 18.0967 22.6551 18.0967C22.855 18.0967 24.2545 20.5967 24.2545 21.4967Z" fill="#50E6FF"/>
<path d="M21.9558 21.297C21.9558 21.097 21.9558 20.997 22.0558 20.897C21.8558 21.097 21.6558 21.297 21.6558 21.597C21.6558 22.097 22.0558 22.497 22.5558 22.497C22.8558 22.497 23.1558 22.297 23.2558 22.097C23.1558 22.197 22.9558 22.297 22.7558 22.297C22.3558 22.197 21.9558 21.797 21.9558 21.297Z" fill="#0078D4"/>
<path d="M22.4551 14.0967C19.2563 14.0967 16.6572 15.1967 16.6572 16.5967V17.7967C16.6572 16.3967 19.2563 15.2967 22.4551 15.2967C25.6539 15.2967 28.2529 16.3967 28.2529 17.7967V16.5967C28.3529 15.1967 25.7538 14.0967 22.4551 14.0967Z" fill="#50E6FF"/>
</svg>
