<svg data-slug-id="building02" viewBox="0 0 49 49" xmlns="http://www.w3.org/2000/svg">
<path d="M43.3998 26.0361H35.8264V48.7564H43.3998V26.0361Z" fill="#50E6FF"/>
<path d="M24.4664 0.794434C11.2213 0.794434 0.483887 11.5319 0.483887 24.777H5.53284C5.53284 19.7196 7.50193 14.9652 11.0783 11.3888C14.6546 7.81248 19.4091 5.84339 24.4664 5.84339C29.5238 5.84339 34.2782 7.81248 37.8546 11.3888C41.4309 14.9652 43.4 19.7196 43.4 24.777H48.449C48.449 11.5319 37.7115 0.794434 24.4664 0.794434Z" fill="#50E6FF"/>
<path d="M35.8263 13.415H13.106V48.7577H35.8263V13.415Z" fill="#0078D4"/>
<path d="M21.9418 27.3018H6.79492V47.4976H21.9418V27.3018Z" fill="white"/>
<path d="M20.6793 28.5606V46.232H8.05695V28.5606H20.6793ZM23.2038 26.0361H5.53247V48.7564H23.2038V26.0361Z" fill="#50E6FF"/>
<path d="M18.1547 31.0869H10.5813V33.6114H18.1547V31.0869Z" fill="#50E6FF"/>
<path d="M18.1547 36.1377H10.5813V38.6622H18.1547V36.1377Z" fill="#50E6FF"/>
<path d="M18.1547 41.1846H10.5813V43.709H18.1547V41.1846Z" fill="#50E6FF"/>
<path d="M23.204 18.4658H18.155V23.5148H23.204V18.4658Z" fill="white"/>
<path d="M30.7772 18.4658H25.7283V23.5148H30.7772V18.4658Z" fill="white"/>
<path d="M30.7772 26.0361H25.7283V31.0851H30.7772V26.0361Z" fill="white"/>
<path d="M30.7772 33.6099H25.7283V38.6588H30.7772V33.6099Z" fill="white"/>
<path d="M30.7772 41.1846H25.7283V46.2335H30.7772V41.1846Z" fill="white"/>
<path d="M43.3995 43.7096C44.7937 43.7096 45.924 42.5794 45.924 41.1851C45.924 39.7909 44.7937 38.6606 43.3995 38.6606C42.0052 38.6606 40.875 39.7909 40.875 41.1851C40.875 42.5794 42.0052 43.7096 43.3995 43.7096Z" fill="white"/>
<path d="M47.1865 41.1856C47.1865 39.0987 45.4867 37.3989 43.3998 37.3989C41.3129 37.3989 39.613 39.0987 39.613 41.1856C39.613 42.835 40.6649 44.2318 42.1375 44.7536V48.7591H44.662V44.7536C46.1346 44.2318 47.1865 42.8266 47.1865 41.1856ZM43.3998 42.4479C42.7013 42.4479 42.1375 41.8841 42.1375 41.1856C42.1375 40.4872 42.7013 39.9234 43.3998 39.9234C44.0982 39.9234 44.662 40.4872 44.662 41.1856C44.662 41.8841 44.0982 42.4479 43.3998 42.4479Z" fill="#0078D4"/>
</svg>
