<svg data-slug-id="build06" viewBox="0 0 49 49" xmlns="http://www.w3.org/2000/svg">
<path d="M48.1915 26.7635V21.7194H42.9873C42.5579 18.4688 41.2779 15.3867 39.2821 12.7762L42.9621 9.09624L39.4 5.53414L35.72 9.21413C33.1095 7.21835 30.0274 5.93835 26.7769 5.50888V0.304688H21.7327V5.50888C18.4821 5.93835 15.4 7.21835 12.7895 9.21413L9.10954 5.53414L5.54745 9.09624L9.22744 12.7762C7.23165 15.3867 5.95166 18.4688 5.52219 21.7194H0.30957V26.7635H5.51376C6.06955 30.8646 7.95586 34.6793 10.8864 37.6098C13.8169 40.5403 17.6232 42.4267 21.7327 42.9824V48.1866H26.7769V42.9824C30.0274 42.553 33.1095 41.273 35.72 39.2772L39.4 42.9572L42.9621 39.3951L39.2821 35.7151C41.2779 33.1046 42.5579 30.0225 42.9873 26.772H48.1915V26.7635ZM10.3895 24.2457C10.3895 21.0373 11.5011 17.9299 13.539 15.4541C15.5769 12.9783 18.4064 11.2773 21.5474 10.6541C24.6884 10.031 27.9558 10.511 30.7853 12.0268C33.6147 13.5341 35.8295 15.9846 37.0589 18.9488C38.2884 21.913 38.4484 25.2057 37.5137 28.2793C36.5789 31.3446 34.6168 33.9972 31.9474 35.7825C29.2779 37.5677 26.0779 38.3677 22.8863 38.0477C19.6948 37.7361 16.7137 36.3214 14.4401 34.0562C13.1516 32.7762 12.1243 31.2435 11.4253 29.5593C10.7432 27.8667 10.3811 26.0646 10.3895 24.2457Z" fill="#50E6FF"/>
<path d="M29.0674 25.0635L23.3074 19.3035L28.4948 14.1162C26.5664 13.3162 24.4359 13.0972 22.3811 13.493C20.3264 13.8888 18.4317 14.8741 16.9327 16.3393C15.4338 17.7962 14.398 19.6656 13.9517 21.712C13.5054 23.7583 13.6738 25.8888 14.4233 27.834L2.97067 39.2866C2.16225 40.0951 1.70752 41.1982 1.70752 42.3435C1.70752 43.4887 2.16225 44.5835 2.97067 45.4003C3.77909 46.2087 4.88225 46.6635 6.02751 46.6635C7.17277 46.6635 8.2675 46.2087 9.08434 45.4003L20.5369 33.9477C22.4906 34.7056 24.6127 34.8656 26.659 34.4193C28.7053 33.973 30.5664 32.9372 32.0316 31.4382C33.4885 29.9393 34.4822 28.0446 34.8779 25.9983C35.2737 23.9435 35.0548 21.8214 34.2548 19.8846L29.0674 25.0635ZM7.56855 43.8593C7.2654 44.1624 6.87803 44.3645 6.4654 44.4487C6.04435 44.5329 5.61488 44.4908 5.21909 44.3224C4.8233 44.1624 4.48646 43.8845 4.25067 43.5308C4.01488 43.1772 3.88857 42.7561 3.88857 42.335C3.88857 41.9056 4.01488 41.4929 4.25067 41.1393C4.48646 40.7856 4.8233 40.5077 5.21909 40.3477C5.61488 40.1877 6.04435 40.1456 6.4654 40.2214C6.88645 40.3056 7.2654 40.5077 7.56855 40.8108C7.97276 41.2151 8.20013 41.7624 8.20013 42.335C8.20013 42.9077 7.97276 43.455 7.56855 43.8593Z" fill="#0078D4"/>
</svg>
