<svg data-slug-id="building01" viewBox="0 0 48 49" xmlns="http://www.w3.org/2000/svg">
<path d="M6.04712 48.7414H27.8475V13.3101H6.04712V48.7414Z" fill="#0078D4"/>
<path d="M27.0234 48.7425H47.9996V20.8452H27.0234V48.7425Z" fill="#0078D4"/>
<path d="M0 5.78483H10.1012V0.759277H0V5.78483Z" fill="#50E6FF"/>
<path d="M2.68311 48.7425H7.60332V4.50586H2.68311V48.7425Z" fill="#50E6FF"/>
<path d="M39.1516 48.759V41.208H34.0884V48.759H39.1516Z" fill="#50E6FF"/>
<path d="M18.9655 48.759V41.208H13.9023V48.759H18.9655Z" fill="#50E6FF"/>
<path d="M10.1096 23.469H15.1392V18.4351H10.1096V23.469Z" fill="#50E6FF"/>
<path d="M17.6787 23.469H22.7083V18.4351H17.6787V23.469Z" fill="#50E6FF"/>
<path d="M10.1096 30.9612H15.1392V25.9272H10.1096V30.9612Z" fill="#50E6FF"/>
<path d="M17.6787 30.9612H22.7083V25.9272H17.6787V30.9612Z" fill="#50E6FF"/>
<path d="M10.1096 38.5393H15.1392V33.5054H10.1096V38.5393Z" fill="#50E6FF"/>
<path d="M17.6787 38.5393H22.7083V33.5054H17.6787V38.5393Z" fill="#50E6FF"/>
<path d="M30.2949 30.9612H35.3245V25.9272H30.2949V30.9612Z" fill="#50E6FF"/>
<path d="M30.2949 38.5393H35.3245V33.5054H30.2949V38.5393Z" fill="#50E6FF"/>
<path d="M37.8647 30.9612H42.8943V25.9272H37.8647V30.9612Z" fill="#50E6FF"/>
<path d="M37.8647 38.5393H42.8943V33.5054H37.8647V38.5393Z" fill="#50E6FF"/>
</svg>
