<svg data-slug-id="building20" viewBox="0 0 48 49" xmlns="http://www.w3.org/2000/svg">
<path d="M27.0239 48.1061H48.0003V20.2085H27.0239V48.1061Z" fill="#50E6FF"/>
<path d="M6.04736 48.1051H27.848V12.6733H6.04736V48.1051Z" fill="#50E6FF"/>
<path d="M0 5.14816H10.1013V0.122559H0V5.14816Z" fill="#0078D4"/>
<path d="M2.68311 48.1058H7.60338V3.86865H2.68311V48.1058Z" fill="#0078D4"/>
<path d="M39.1521 48.1228V40.5718H34.0889V48.1228H39.1521Z" fill="#0078D4"/>
<path d="M18.9661 48.1228V40.5718H13.9028V48.1228H18.9661Z" fill="#0078D4"/>
<path d="M10.1099 22.8324H15.1395V17.7983H10.1099V22.8324Z" fill="#0078D4"/>
<path d="M17.6792 22.8324H22.7088V17.7983H17.6792V22.8324Z" fill="#0078D4"/>
<path d="M10.1099 30.3245H15.1395V25.2905H10.1099V30.3245Z" fill="#0078D4"/>
<path d="M17.6792 30.3245H22.7088V25.2905H17.6792V30.3245Z" fill="#0078D4"/>
<path d="M10.1099 37.9027H15.1395V32.8687H10.1099V37.9027Z" fill="#0078D4"/>
<path d="M17.6792 37.9027H22.7088V32.8687H17.6792V37.9027Z" fill="#0078D4"/>
<path d="M30.2954 30.3245H35.325V25.2905H30.2954V30.3245Z" fill="#0078D4"/>
<path d="M30.2954 37.9027H35.325V32.8687H30.2954V37.9027Z" fill="#0078D4"/>
<path d="M37.8652 30.3245H42.8948V25.2905H37.8652V30.3245Z" fill="#0078D4"/>
<path d="M37.8652 37.9027H42.8948V32.8687H37.8652V37.9027Z" fill="#0078D4"/>
</svg>
