<svg data-slug-id="build04" viewBox="0 0 49 49" xmlns="http://www.w3.org/2000/svg">
<path d="M18.4427 16.3936C18.6956 13.8061 19.7154 11.4461 21.2831 9.54977L17.8022 6.06885C15.5265 8.69007 14.0179 11.9856 13.5964 15.6182C15.3074 15.8036 16.9088 16.3346 18.35 17.1269L18.4427 16.3936Z" fill="#0078D4"/>
<path d="M23.0705 7.75459C24.9753 6.19534 27.3353 5.16708 29.9144 4.91423V0.000488281C25.9783 0.278625 22.3962 1.8463 19.5896 4.27367L23.0705 7.75459Z" fill="#0078D4"/>
<path d="M32.4424 0.000488281V4.91423C35.0299 5.16708 37.3898 6.18691 39.2862 7.75459L42.7671 4.27367C39.9605 1.8463 36.3784 0.278625 32.4424 0.000488281Z" fill="#0078D4"/>
<path d="M43.9134 16.3936H48.8271C48.549 12.4576 46.9813 8.8755 44.5539 6.06885L41.073 9.54977C42.6407 11.4461 43.6605 13.8061 43.9134 16.3936Z" fill="#50E6FF"/>
<path d="M41.082 25.7647L44.5629 29.2457C46.9987 26.439 48.558 22.8569 48.8361 18.9209H43.9224C43.6611 21.5084 42.6413 23.8684 41.082 25.7647Z" fill="#50E6FF"/>
<path d="M32.1389 46.7616L20.9292 35.5519C22.5221 33.5965 23.483 31.1017 23.483 28.3878C23.483 22.1339 18.4091 17.0601 12.1552 17.0601C5.90139 17.0601 0.835938 22.1339 0.835938 28.3878C0.835938 34.6416 5.90982 39.7155 12.1637 39.7155C14.7933 39.7155 17.2038 38.8221 19.1255 37.3219L30.3521 48.5485L32.1389 46.7616Z" fill="#0078D4"/>
<path d="M12.1633 37.2866C17.0788 37.2866 21.0637 33.3017 21.0637 28.3862C21.0637 23.4707 17.0788 19.4858 12.1633 19.4858C7.24777 19.4858 3.26294 23.4707 3.26294 28.3862C3.26294 33.3017 7.24777 37.2866 12.1633 37.2866Z" fill="#50E6FF"/>
<path d="M13.4787 22.1167H10.9502V31.0339H13.4787V22.1167Z" fill="#0078D4"/>
<path d="M13.4783 32.2153H10.9414V34.7607H13.4783V32.2153Z" fill="#0078D4"/>
<path d="M39.1007 11.1784L37.3139 9.3916L32.5771 14.1283C32.1473 13.9598 31.6753 13.8586 31.178 13.8586C29.0794 13.8586 27.3853 15.5612 27.3853 17.6514C27.3853 19.7416 29.0878 21.4442 31.178 21.4442C33.2683 21.4442 34.9708 19.7416 34.9708 17.6514C34.9708 16.9771 34.7938 16.3366 34.4819 15.7887L39.1007 11.1784Z" fill="#0078D4"/>
</svg>
