<svg data-slug-id="building10" viewBox="0 0 49 49" xmlns="http://www.w3.org/2000/svg">
<path d="M43.3234 28.3081C42.5993 18.9456 35.0638 11.4858 25.6675 10.8796V5.78576H33.2367V0.759277H25.6675H23.5879H23.1332V10.8796C13.7706 11.5195 6.26881 18.9624 5.55314 28.2997H0.333008V48.7509H48.333V28.3081H43.3234Z" fill="#0078D4"/>
<path d="M2.95166 46.1184H7.96131V31.0137H2.95166V46.1184Z" fill="#50E6FF"/>
<path d="M10.5122 46.1184H15.5219V31.0137H10.5122V46.1184Z" fill="#50E6FF"/>
<path d="M18.0557 46.1184H23.0653V31.0137H18.0557V46.1184Z" fill="#50E6FF"/>
<path d="M25.6421 46.1184H30.6517V31.0137H25.6421V46.1184Z" fill="#50E6FF"/>
<path d="M33.2866 46.1184H38.2963V31.0137H33.2866V46.1184Z" fill="#50E6FF"/>
<path d="M40.873 46.1184H45.8827V31.0137H40.873V46.1184Z" fill="#50E6FF"/>
</svg>
