<svg data-slug-id="building25" viewBox="0 0 49 49" xmlns="http://www.w3.org/2000/svg">
<path d="M16.5186 25.1147C20.0494 19.2825 24.7298 15.0933 31.6273 15.0933C37.3752 15.0933 42.1377 21.6647 44.1084 25.0325C48.5425 32.4254 24.3193 34.7254 24.3193 34.7254C23.9087 34.479 16.5186 35.629 17.0933 28.2361L16.5186 25.1147Z" fill="#50E6FF"/>
<path d="M41.9733 38.4219H18.8175C17.6679 38.4219 16.7647 37.6005 16.5183 36.5326L13.8086 23.3076H46.8179L44.3545 36.5326C44.1082 37.6005 43.1228 38.4219 41.9733 38.4219Z" fill="#0078D4"/>
<path d="M13.8909 7.6183L11.1812 6.79688L10.1958 10.2469L12.9055 11.0683L13.973 7.6183H13.8909Z" fill="#50E6FF"/>
<path d="M12.3307 11.8896L10.1958 11.2324L4.53002 29.4681C4.3658 29.961 4.69425 30.536 5.18693 30.7003L5.43327 30.7824C5.92594 30.9467 6.50073 30.6181 6.66496 30.1253L12.3307 11.8896Z" fill="#0078D4"/>
<path d="M10.1844 11.1951L9.99121 11.8232L12.1896 12.4994L12.3828 11.8713L10.1844 11.1951Z" fill="#50E6FF"/>
<path d="M1.49219 8.02914L1.98486 7.53629C2.06698 7.45414 2.2312 7.372 2.31332 7.28986C3.13444 7.12557 5.84416 6.71486 10.0319 7.70057C15.0408 8.85057 19.0643 11.2327 20.1318 12.3006C20.8708 13.0399 21.1171 13.697 21.2814 13.9434C21.2814 14.0256 21.1992 14.1077 21.1992 14.0256C20.4602 13.697 17.5863 12.3006 14.9587 11.397C11.9205 10.3291 10.2783 9.91843 10.2783 9.91843C10.2783 9.91843 5.35149 8.43986 1.5743 8.19343C1.49219 8.19343 1.49219 8.11129 1.49219 8.02914Z" fill="#0078D4"/>
<path d="M14.2194 8.27549L10.6064 7.12549L9.62109 10.4112L13.2341 11.4791L14.2194 8.27549Z" fill="#0078D4"/>
<path d="M47.475 23.3076H13.1519V25.6076H47.475V23.3076Z" fill="#0078D4"/>
<path d="M37.3749 41.954C39.2343 41.954 40.7416 40.4461 40.7416 38.5861C40.7416 36.7261 39.2343 35.2183 37.3749 35.2183C35.5156 35.2183 34.0083 36.7261 34.0083 38.5861C34.0083 40.4461 35.5156 41.954 37.3749 41.954Z" fill="white"/>
<path d="M37.3752 41.2969C38.8718 41.2969 40.085 40.0833 40.085 38.5862C40.085 37.0891 38.8718 35.8755 37.3752 35.8755C35.8787 35.8755 34.6655 37.0891 34.6655 38.5862C34.6655 40.0833 35.8787 41.2969 37.3752 41.2969Z" fill="#0078D4"/>
<path d="M37.3751 40.1468C38.2367 40.1468 38.9352 39.4481 38.9352 38.5861C38.9352 37.7241 38.2367 37.0254 37.3751 37.0254C36.5134 37.0254 35.8149 37.7241 35.8149 38.5861C35.8149 39.4481 36.5134 40.1468 37.3751 40.1468Z" fill="white"/>
<path d="M23.58 41.954C25.4393 41.954 26.9466 40.4461 26.9466 38.5861C26.9466 36.7261 25.4393 35.2183 23.58 35.2183C21.7207 35.2183 20.2134 36.7261 20.2134 38.5861C20.2134 40.4461 21.7207 41.954 23.58 41.954Z" fill="white"/>
<path d="M23.5803 41.2969C25.0769 41.2969 26.29 40.0833 26.29 38.5862C26.29 37.0891 25.0769 35.8755 23.5803 35.8755C22.0838 35.8755 20.8706 37.0891 20.8706 38.5862C20.8706 40.0833 22.0838 41.2969 23.5803 41.2969Z" fill="#0078D4"/>
<path d="M23.5802 40.1468C24.4418 40.1468 25.1403 39.4481 25.1403 38.5861C25.1403 37.7241 24.4418 37.0254 23.5802 37.0254C22.7185 37.0254 22.02 37.7241 22.02 38.5861C22.02 39.4481 22.7185 40.1468 23.5802 40.1468Z" fill="white"/>
<path d="M46.3252 26.0181H14.3834L14.3013 25.6074H46.4074L46.3252 26.0181Z" fill="#50E6FF"/>
</svg>
