<svg data-slug-id="build01" viewBox="0 0 48 49" xmlns="http://www.w3.org/2000/svg">
<path d="M17.9031 34.0564C26.7115 34.0564 33.861 26.9154 33.861 18.0985C33.861 9.2901 26.7199 2.14062 17.9031 2.14062C9.08625 2.14062 1.95361 9.2901 1.95361 18.0985C1.95361 26.9154 9.09467 34.0564 17.9031 34.0564Z" fill="#50E6FF"/>
<path d="M47.4947 44.5571L31.7557 28.8182C34.0294 25.854 35.3852 22.1403 35.3852 18.115C35.3852 8.39712 27.5031 0.523438 17.7852 0.523438C8.07571 0.531859 0.193604 8.40554 0.193604 18.115C0.193604 27.8329 8.06729 35.7066 17.7852 35.7066C21.6841 35.7066 25.2883 34.435 28.202 32.2961L43.9747 48.0603L47.4947 44.5571ZM5.25466 18.115C5.25466 11.1845 10.8715 5.56765 17.802 5.56765C24.7325 5.56765 30.3494 11.1845 30.3494 18.115C30.3494 25.0455 24.7241 30.6624 17.7936 30.6624C10.8715 30.6624 5.25466 25.0455 5.25466 18.115Z" fill="#0078D4"/>
<path d="M23.385 13.9993C23.385 10.9088 20.8503 8.34033 17.7261 8.34033C14.9471 8.34033 12.6229 10.3866 12.1766 13.0645H14.4671C14.644 12.5088 14.9219 12.0203 15.3345 11.6077C15.9914 10.9509 16.825 10.5972 17.7261 10.5972C18.6271 10.5972 19.4608 10.9424 20.1177 11.6077C20.7745 12.2645 21.1282 13.0982 21.1282 13.9993C21.1282 14.1761 21.1282 14.6898 21.1282 15.3551H12.1008V26.673H23.385C23.385 26.673 23.385 14.2435 23.385 13.9993Z" fill="#0078D4"/>
<path d="M17.7264 22.36C18.4759 22.36 19.0822 21.7537 19.0822 21.0042C19.0822 20.2548 18.4759 19.6484 17.7264 19.6484C16.9769 19.6484 16.3706 20.2548 16.3706 21.0042C16.3706 21.7537 16.9769 22.36 17.7264 22.36Z" fill="#50E6FF"/>
</svg>
