<svg data-slug-id="building24" viewBox="0 0 49 49" xmlns="http://www.w3.org/2000/svg">
<path d="M36.5587 25.4327C36.7582 25.4992 36.8912 25.2332 36.7582 25.1001C35.7609 24.1689 33.6332 22.2401 32.3699 21.5749C30.7077 20.6437 25.7875 18.1162 25.7875 18.1162L25.0562 19.38C25.0562 19.38 29.3779 22.3066 31.2396 23.3708C32.6359 24.1689 35.2954 25.0336 36.5587 25.4327Z" fill="#50E6FF"/>
<path d="M34.9629 24.4348C35.0958 24.5013 35.2288 24.3017 35.0958 24.2352C34.165 23.3705 31.8379 21.2421 30.5081 20.5105C28.8459 19.5793 23.9257 17.0518 23.9257 17.0518L23.1943 18.3155C23.1943 18.3155 27.5161 21.2421 29.3778 22.3063C30.907 23.171 33.7661 24.0357 34.9629 24.4348Z" fill="#0078D4"/>
<path d="M12.6224 25.0341C12.4894 25.1671 12.6224 25.4332 12.8218 25.3667C14.1516 24.9676 16.8777 24.0364 18.0745 23.3713C19.7367 22.4401 24.3244 19.3805 24.3244 19.3805L23.593 18.1167C23.593 18.1167 18.8723 20.3782 17.0106 21.5089C15.6809 22.2405 13.6197 24.1029 12.6224 25.0341Z" fill="#50E6FF"/>
<path d="M14.2182 24.1693C14.0852 24.2358 14.2182 24.4354 14.3511 24.3688C15.5479 23.9698 18.5399 23.0386 19.8697 22.2404C21.5319 21.3092 26.1197 18.2496 26.1197 18.2496L25.3883 16.9858C25.3883 16.9858 20.6676 19.2473 18.8059 20.378C17.4096 21.2427 15.149 23.3046 14.2182 24.1693Z" fill="#0078D4"/>
<path d="M24.7905 4.94653C24.724 4.74699 24.4579 4.74699 24.4579 4.94653C24.1254 6.2768 23.5933 9.13689 23.5933 10.5337C23.5933 12.4626 23.9258 17.9832 23.9258 17.9832H25.3891C25.3891 17.9832 25.7882 12.7951 25.7882 10.6002C25.6552 9.00386 25.0566 6.2768 24.7905 4.94653Z" fill="#50E6FF"/>
<path d="M24.7241 6.80875C24.7241 6.67573 24.5246 6.67573 24.458 6.80875C24.192 8.07251 23.5269 11.1321 23.5269 12.662C23.5269 14.5908 23.8594 20.1115 23.8594 20.1115H25.3227C25.3227 20.1115 25.7218 14.9234 25.7218 12.7285C25.6553 10.9991 24.9902 8.07251 24.7241 6.80875Z" fill="#0078D4"/>
<path d="M25.1229 22.2398C25.1229 23.6366 24.1252 23.7031 24.1252 22.3728C24.1252 21.1756 23.7261 21.0425 23.7261 21.0425L24.4577 20.71L25.5885 21.0425C25.5885 21.0425 25.1229 21.109 25.1229 22.2398Z" fill="#0078D4"/>
<path d="M39.6837 28.0269H38.686V45.5864H39.6837V28.0269Z" fill="#0078D4"/>
<path d="M39.6844 29.8227C39.6844 31.2195 38.6867 31.1529 38.6867 29.8227C38.6867 28.6919 37.9551 28.3594 37.9551 28.3594H38.8863H39.7509L40.2831 28.4259C40.2831 28.4259 39.6844 28.6919 39.6844 29.8227Z" fill="#0078D4"/>
<path d="M48.0614 32.2833C48.1944 32.3498 48.3274 32.1503 48.1944 32.0173C47.3966 31.2856 45.8008 29.8888 44.9365 29.3567C43.6732 28.6251 40.0163 26.7627 40.0163 26.7627L39.4844 27.6939C39.4844 27.6939 42.7423 29.8888 44.1386 30.687C45.1359 31.3521 47.0641 32.0173 48.0614 32.2833Z" fill="#50E6FF"/>
<path d="M46.8645 31.5519C46.9975 31.5519 47.064 31.4854 46.931 31.4189C46.1996 30.7537 44.4709 29.2239 43.4736 28.6253C42.2103 27.8936 38.5534 26.0312 38.5534 26.0312L38.0215 26.9624C38.0215 26.9624 41.2794 29.1574 42.6757 29.9556C43.806 30.6207 45.9337 31.2858 46.8645 31.5519Z" fill="#0078D4"/>
<path d="M30.0429 32.0177C29.9099 32.1507 30.0429 32.2837 30.1759 32.2837C31.1732 31.9511 33.2343 31.286 34.0987 30.7539C35.362 30.0222 38.8194 27.7608 38.8194 27.7608L38.2875 26.8296C38.2875 26.8296 34.7636 28.5589 33.3673 29.3571C32.37 29.9557 30.8407 31.3525 30.0429 32.0177Z" fill="#50E6FF"/>
<path d="M31.3059 31.3523C31.2394 31.4189 31.3059 31.5519 31.3723 31.5519C32.3032 31.2858 34.4973 30.5542 35.4947 29.9556C36.758 29.2239 40.2154 26.9624 40.2154 26.9624L39.6835 26.0312C39.6835 26.0312 36.1596 27.7606 34.7633 28.5588C33.6995 29.1574 31.9708 30.6872 31.3059 31.3523Z" fill="#0078D4"/>
<path d="M39.2183 16.9855C39.1518 16.8525 38.9522 16.8525 38.9522 16.9855C38.7527 17.9832 38.2871 20.1117 38.2871 21.1759C38.2871 22.6392 38.4866 26.763 38.4866 26.763H39.5509C39.5509 26.763 39.8169 22.8387 39.8169 21.2424C39.8834 19.9786 39.4178 17.9832 39.2183 16.9855Z" fill="#50E6FF"/>
<path d="M39.1519 18.382C39.1519 18.249 38.9524 18.249 38.9524 18.382C38.7528 19.3132 38.2207 21.6412 38.2207 22.7719C38.2207 24.2352 38.4202 28.359 38.4202 28.359H39.4845C39.4845 28.359 39.7505 24.4347 39.7505 22.8384C39.8835 21.5081 39.3514 19.3132 39.1519 18.382Z" fill="#0078D4"/>
<path d="M39.1518 28.6918C40.2167 28.6918 41.08 27.8282 41.08 26.7629C41.08 25.6976 40.2167 24.834 39.1518 24.834C38.0869 24.834 37.2236 25.6976 37.2236 26.7629C37.2236 27.8282 38.0869 28.6918 39.1518 28.6918Z" fill="white"/>
<path d="M39.1517 28.2259C39.9596 28.2259 40.6145 27.5708 40.6145 26.7626C40.6145 25.9545 39.9596 25.2993 39.1517 25.2993C38.3439 25.2993 37.689 25.9545 37.689 26.7626C37.689 27.5708 38.3439 28.2259 39.1517 28.2259Z" fill="#0078D4"/>
<path d="M39.1518 27.6278C39.6293 27.6278 40.0165 27.2407 40.0165 26.7631C40.0165 26.2856 39.6293 25.8984 39.1518 25.8984C38.6742 25.8984 38.2871 26.2856 38.2871 26.7631C38.2871 27.2407 38.6742 27.6278 39.1518 27.6278Z" fill="#50E6FF"/>
<path d="M18.2743 32.2833C18.4073 32.3498 18.5403 32.1503 18.4073 32.0173C17.6094 31.2856 16.0137 29.8888 15.1494 29.3567C13.8861 28.6251 10.2292 26.7627 10.2292 26.7627L9.69727 27.6939C9.69727 27.6939 12.9552 29.8888 14.3515 30.687C15.3488 31.3521 17.3435 32.0173 18.2743 32.2833Z" fill="#50E6FF"/>
<path d="M17.0774 31.5519C17.2104 31.5519 17.2769 31.4854 17.1439 31.4189C16.4125 30.7537 14.6838 29.2239 13.6865 28.6253C12.4232 27.8936 8.76629 26.0312 8.76629 26.0312L8.23438 26.9624C8.23438 26.9624 11.4923 29.1574 12.8886 29.9556C14.0189 30.6207 16.213 31.2858 17.0774 31.5519Z" fill="#0078D4"/>
<path d="M0.322171 32.0177C0.189193 32.1507 0.322171 32.2837 0.455149 32.2837C1.45248 31.9511 3.51364 31.286 4.37799 30.7539C5.64128 30.0222 9.09871 27.7608 9.09871 27.7608L8.56679 26.8296C8.56679 26.8296 5.04288 28.5589 3.64662 29.3571C2.58279 29.9557 1.05355 31.3525 0.322171 32.0177Z" fill="#50E6FF"/>
<path d="M1.51924 31.3523C1.45275 31.4189 1.51924 31.5519 1.58573 31.5519C2.51657 31.2858 4.71071 30.5542 5.70804 29.9556C6.97133 29.2239 10.4288 26.9624 10.4288 26.9624L9.89684 26.0312C9.89684 26.0312 6.37293 27.7606 4.97666 28.5588C3.91284 29.1574 2.25062 30.6872 1.51924 31.3523Z" fill="#0078D4"/>
<path d="M9.43168 16.9855C9.36517 16.8525 9.16562 16.8525 9.16562 16.9855C8.96608 17.9832 8.50049 20.1117 8.50049 21.1759C8.50049 22.6392 8.70003 26.763 8.70003 26.763H9.76425C9.76425 26.763 10.0303 22.8387 10.0303 21.2424C10.0968 19.9786 9.63122 17.9832 9.43168 16.9855Z" fill="#50E6FF"/>
<path d="M9.36478 18.382C9.36478 18.249 9.16524 18.249 9.16524 18.382C8.9657 19.3132 8.43359 21.6412 8.43359 22.7719C8.43359 24.2352 8.63313 28.359 8.63313 28.359H9.69735C9.69735 28.359 9.96341 24.4347 9.96341 22.8384C10.0964 21.5081 9.56432 19.3132 9.36478 18.382Z" fill="#0078D4"/>
<path d="M9.76382 28.0269H8.76611V45.5864H9.76382V28.0269Z" fill="#0078D4"/>
<path d="M25.1227 19.7124H24.125V45.5197H25.1227V19.7124Z" fill="#0078D4"/>
<path d="M24.6571 21.1761C26.1259 21.1761 27.3167 19.9849 27.3167 18.5155C27.3167 17.0461 26.1259 15.855 24.6571 15.855C23.1883 15.855 21.9976 17.0461 21.9976 18.5155C21.9976 19.9849 23.1883 21.1761 24.6571 21.1761Z" fill="white"/>
<path d="M24.6572 20.4442C25.7221 20.4442 26.5854 19.5806 26.5854 18.5153C26.5854 17.45 25.7221 16.5864 24.6572 16.5864C23.5923 16.5864 22.729 17.45 22.729 18.5153C22.729 19.5806 23.5923 20.4442 24.6572 20.4442Z" fill="#0078D4"/>
<path d="M24.6576 19.3797C25.1352 19.3797 25.5223 18.9926 25.5223 18.5151C25.5223 18.0375 25.1352 17.6504 24.6576 17.6504C24.1801 17.6504 23.793 18.0375 23.793 18.5151C23.793 18.9926 24.1801 19.3797 24.6576 19.3797Z" fill="white"/>
<path d="M9.7643 29.8223C9.7643 31.2191 8.83311 31.1526 8.76659 29.8223C8.76659 28.6916 8.16797 28.359 8.16797 28.359L9.03265 28.2925H9.89732H10.4959C10.4959 28.359 9.7643 28.7581 9.7643 29.8223Z" fill="#0078D4"/>
<path d="M9.3647 28.6918C10.4296 28.6918 11.2929 27.8282 11.2929 26.7629C11.2929 25.6976 10.4296 24.834 9.3647 24.834C8.2998 24.834 7.43652 25.6976 7.43652 26.7629C7.43652 27.8282 8.2998 28.6918 9.3647 28.6918Z" fill="white"/>
<path d="M9.36461 28.2259C10.1725 28.2259 10.8274 27.5708 10.8274 26.7626C10.8274 25.9545 10.1725 25.2993 9.36461 25.2993C8.55675 25.2993 7.90186 25.9545 7.90186 26.7626C7.90186 27.5708 8.55675 28.2259 9.36461 28.2259Z" fill="#0078D4"/>
<path d="M9.36517 27.6278C9.84271 27.6278 10.2298 27.2407 10.2298 26.7631C10.2298 26.2856 9.84271 25.8984 9.36517 25.8984C8.88762 25.8984 8.50049 26.2856 8.50049 26.7631C8.50049 27.2407 8.88762 27.6278 9.36517 27.6278Z" fill="#50E6FF"/>
</svg>
