<svg data-slug-id="build23" viewBox="0 0 48 48" xmlns="http://www.w3.org/2000/svg">
<g clip-path="url(#build23_clip0)">
<path d="M35.7904 0.00390625H47.9993V12.2128H42.9473V5.05585H35.7904V0.00390625Z" fill="#50E6FF"/>
<path d="M19.3664 12.2089H14.3145V0H26.5233V5.05195H19.3664V12.2089Z" fill="#50E6FF"/>
<path d="M42.9473 21.4407H47.9993V33.6495H35.7904V28.5976H42.9473V21.4407Z" fill="#50E6FF"/>
<path d="M14.3145 33.6574V21.4485H19.3664V28.6054H26.5233V33.6574H14.3145Z" fill="#50E6FF"/>
<path d="M24.0024 19.3723C22.6047 19.3723 21.4764 18.244 21.4764 16.8463C21.4764 15.4486 22.6047 14.3203 24.0024 14.3203C25.4001 14.3203 26.5284 15.4486 26.5284 16.8463C26.5284 18.2356 25.3917 19.3723 24.0024 19.3723Z" fill="#0078D4"/>
<path d="M31.1592 12.216C29.7614 12.216 28.6332 11.0877 28.6332 9.69004C28.6332 8.29233 29.7614 7.16406 31.1592 7.16406C32.5569 7.16406 33.6851 8.29233 33.6851 9.69004C33.6851 11.0793 32.5484 12.216 31.1592 12.216Z" fill="#0078D4"/>
<path d="M38.3164 19.3723C36.9187 19.3723 35.7904 18.244 35.7904 16.8463C35.7904 15.4486 36.9187 14.3203 38.3164 14.3203C39.7141 14.3203 40.8424 15.4486 40.8424 16.8463C40.8424 18.2356 39.7057 19.3723 38.3164 19.3723Z" fill="#0078D4"/>
<path d="M31.1592 26.528C29.7614 26.528 28.6332 25.3998 28.6332 24.002C28.6332 22.6043 29.7614 21.4761 31.1592 21.4761C32.5569 21.4761 33.6851 22.6043 33.6851 24.002C33.6851 25.3913 32.5484 26.528 31.1592 26.528Z" fill="#0078D4"/>
<path d="M31.1592 19.3723C29.7614 19.3723 28.6332 18.244 28.6332 16.8463C28.6332 15.4486 29.7614 14.3203 31.1592 14.3203C32.5569 14.3203 33.6851 15.4486 33.6851 16.8463C33.6851 18.2356 32.5484 19.3723 31.1592 19.3723Z" fill="#0078D4"/>
<path d="M2.53061 5.05585C1.13291 5.05585 0.00463867 3.92758 0.00463867 2.52988C0.00463867 1.13217 1.13291 0.00390625 2.53061 0.00390625C3.92832 0.00390625 5.05658 1.13217 5.05658 2.52988C5.05658 3.91916 3.9199 5.05585 2.53061 5.05585Z" fill="#0078D4"/>
<path d="M12.2139 0.00390625H7.16199V5.05585H12.2139V0.00390625Z" fill="#0078D4"/>
<path d="M5.0572 7.16406H0.00524902V12.216H5.0572V7.16406Z" fill="#0078D4"/>
<path d="M12.2139 7.16406H7.16199V12.216H12.2139V7.16406Z" fill="#0078D4"/>
<path d="M5.0572 14.3203H0.00524902V19.3723H5.0572V14.3203Z" fill="#0078D4"/>
<path d="M9.68796 19.3723C8.29026 19.3723 7.16199 18.244 7.16199 16.8463C7.16199 15.4486 8.29026 14.3203 9.68796 14.3203C11.0857 14.3203 12.2139 15.4486 12.2139 16.8463C12.2139 18.2356 11.0772 19.3723 9.68796 19.3723Z" fill="#0078D4"/>
<path d="M5.0572 28.6323H0.00524902V33.6843H5.0572V28.6323Z" fill="#0078D4"/>
<path d="M12.2139 35.7881H7.16199V40.84H12.2139V35.7881Z" fill="#0078D4"/>
<path d="M45.4731 47.9999C44.0754 47.9999 42.9471 46.8717 42.9471 45.474C42.9471 44.0763 44.0754 42.948 45.4731 42.948C46.8708 42.948 47.9991 44.0763 47.9991 45.474C47.9991 46.8633 46.8624 47.9999 45.4731 47.9999Z" fill="#0078D4"/>
<path d="M33.6851 42.948H28.6332V47.9999H33.6851V42.948Z" fill="#0078D4"/>
<path d="M40.8424 35.7881H35.7904V40.84H40.8424V35.7881Z" fill="#0078D4"/>
<path d="M16.8452 47.9999C15.4475 47.9999 14.3192 46.8717 14.3192 45.474C14.3192 44.0763 15.4475 42.948 16.8452 42.948C18.2429 42.948 19.3712 44.0763 19.3712 45.474C19.3712 46.8633 18.2345 47.9999 16.8452 47.9999Z" fill="#0078D4"/>
<path d="M12.2139 42.948H7.16199V47.9999H12.2139V42.948Z" fill="#0078D4"/>
<path d="M26.5284 35.7881H21.4764V40.84H26.5284V35.7881Z" fill="#0078D4"/>
</g>
<defs>
<clipPath id="build23_clip0">
<rect width="47.9993" height="48" fill="white"/>
</clipPath>
</defs>
</svg>
