<svg data-slug-id="build14" viewBox="0 0 49 48" xmlns="http://www.w3.org/2000/svg">
<path d="M48.2686 26.5439V21.5152H43.0628C42.6325 18.2669 41.35 15.1872 39.3588 12.5801L43.0375 8.90143L39.4769 5.34087L35.8067 9.01955C33.1995 7.02834 30.1199 5.7543 26.8715 5.31556V0.118164H21.8344V5.324C18.5861 5.7543 15.5064 7.03678 12.8993 9.02799L9.22907 5.34087L5.66851 8.90143L9.34719 12.5801C7.35598 15.1872 6.08194 18.2669 5.6432 21.5152H0.445801V26.5523H5.65164C6.2085 30.6529 8.09003 34.4581 11.0178 37.3859C13.9455 40.3136 17.7508 42.1952 21.8513 42.752V47.9579H26.8884V42.752C30.1368 42.3217 33.2164 41.0392 35.8235 39.048L39.5022 42.7267L43.0628 39.1661L39.3841 35.4875C41.3753 32.8803 42.6493 29.8007 43.0881 26.5523H48.2686V26.5439ZM10.5115 24.0296C10.5115 20.8234 11.6253 17.7269 13.6502 15.2463C15.6836 12.7742 18.5101 11.0783 21.6488 10.4539C24.7875 9.82954 28.0528 10.3105 30.8793 11.8207C33.7058 13.331 35.9164 15.7694 37.1398 18.7309C38.3632 21.6924 38.5235 24.983 37.5954 28.0457C36.6673 31.1085 34.7014 33.7578 32.0352 35.5381C29.369 37.3184 26.1712 38.1199 22.9904 37.8077C19.801 37.4956 16.8227 36.0865 14.5615 33.8169C13.2705 32.5344 12.2496 31.0072 11.5493 29.3282C10.8659 27.6492 10.5115 25.852 10.5115 24.0296Z" fill="#50E6FF"/>
<path d="M29.3275 25.1535L23.278 19.104L28.7369 13.645C26.7035 12.8013 24.4761 12.5735 22.3161 12.9869C20.1562 13.4003 18.1649 14.4381 16.5956 15.9737C15.0178 17.5093 13.9294 19.4752 13.4654 21.6183C13.0013 23.7698 13.17 26.0057 13.9632 28.056L1.9062 40.1045C1.05403 40.9567 0.581543 42.1126 0.581543 43.3107C0.581543 44.5088 1.05403 45.6647 1.9062 46.5169C2.75838 47.369 3.91429 47.8415 5.11239 47.8415C6.31049 47.8415 7.46641 47.369 8.31858 46.5169L20.3671 34.4852C22.4174 35.2783 24.6533 35.4471 26.8048 34.983C28.9563 34.519 30.9138 33.4221 32.4494 31.8528C33.985 30.275 35.0227 28.2922 35.4362 26.1323C35.8496 23.9723 35.6218 21.7364 34.7781 19.7115L29.3275 25.1535ZM6.72392 44.9222C6.4033 45.2428 5.99831 45.4538 5.55957 45.5466C5.12083 45.631 4.66521 45.5888 4.25178 45.42C3.83835 45.2513 3.48399 44.956 3.23087 44.5847C2.97775 44.2135 2.85119 43.7747 2.85119 43.3276C2.85119 42.8804 2.98618 42.4416 3.23087 42.0704C3.48399 41.6992 3.83835 41.4038 4.25178 41.2351C4.66521 41.0664 5.12083 41.0157 5.55957 41.1085C5.99831 41.1929 6.4033 41.4123 6.72392 41.7329C7.14579 42.1548 7.39047 42.7369 7.39047 43.336C7.39047 43.9182 7.14579 44.4919 6.72392 44.9222Z" fill="#0078D4"/>
<path d="M27.4882 31.6078H24.957C24.957 27.3554 21.4977 23.8876 17.2368 23.8876V21.3564C22.8898 21.3564 27.4882 25.9548 27.4882 31.6078Z" fill="#50E6FF"/>
<path d="M23.522 31.6065H20.9908C20.9908 29.5393 19.3118 27.8603 17.2446 27.8603V25.3291C20.7039 25.3207 23.522 28.1388 23.522 31.6065Z" fill="#50E6FF"/>
</svg>
