<svg data-slug-id="build21" viewBox="0 0 48 48" xmlns="http://www.w3.org/2000/svg">
<path d="M33.7787 42.808H31.2192V39.3301L32.4947 34.0156H33.7787V42.808Z" fill="#0078D4"/>
<path d="M18.9918 40.8682C18.9833 40.9362 18.9493 40.9957 18.9067 41.0467C18.9493 40.9957 18.9833 40.9362 18.9918 40.8682Z" fill="#0078D4"/>
<path d="M24.0002 1.18359C19.3149 1.18359 16.9766 10.129 16.9766 14.8143L17.7078 44.3885H30.2756L31.0069 14.8143C31.0239 10.129 28.694 1.18359 24.0002 1.18359Z" fill="#0078D4"/>
<path d="M24.0002 15.3256C26.0102 15.3256 27.6396 13.6962 27.6396 11.6863C27.6396 9.67628 26.0102 8.04688 24.0002 8.04688C21.9902 8.04688 20.3608 9.67628 20.3608 11.6863C20.3608 13.6962 21.9902 15.3256 24.0002 15.3256Z" fill="#50E6FF"/>
<path d="M25.2585 36.4297H22.7075V46.8206H25.2585V36.4297Z" fill="#50E6FF"/>
<path d="M33.4216 39.2931L37.6477 35.067C38.1579 34.5568 38.1579 33.7235 37.6562 33.2133L31.5679 27.125L31.2192 39.2931H33.4216Z" fill="#0078D4"/>
<path d="M39.7314 35.3667C39.7399 35.3837 39.7485 35.3922 39.7485 35.4092C39.7399 35.3922 39.7399 35.3837 39.7314 35.3667Z" fill="#0078D4"/>
<path d="M39.7229 35.3478C39.6634 35.2372 39.5869 35.1352 39.5018 35.0502L39.0767 34.625L39.5018 35.0502C39.5869 35.1437 39.6634 35.2457 39.7229 35.3478Z" fill="#0078D4"/>
<path d="M37.6562 33.2153C37.6562 33.2153 37.6648 33.2153 37.6562 33.2153L39.0678 34.6269L37.6562 33.2153Z" fill="#50E6FF"/>
<path d="M39.7227 35.3477C39.7227 35.3562 39.7312 35.3562 39.7312 35.3647C39.7227 35.3562 39.7227 35.3562 39.7227 35.3477Z" fill="#50E6FF"/>
<path d="M39.748 35.4102C39.9776 35.8948 39.901 36.5071 39.4929 36.9152L35.7515 40.6566C35.4453 40.9628 35.0287 41.1413 34.5865 41.1413H31.2192H34.9266C35.1392 41.1413 35.3518 41.0563 35.5049 40.9032L39.4929 36.9152C39.901 36.5071 39.9776 35.9033 39.748 35.4102Z" fill="#50E6FF"/>
<path d="M37.6477 35.069L33.4216 39.2951H31.2192V41.1403H34.5865C35.0202 41.1403 35.4453 40.9703 35.7515 40.6556L39.4929 36.9142C39.901 36.5061 39.9861 35.9023 39.748 35.4092C39.7395 35.3922 39.7395 35.3837 39.731 35.3666C39.731 35.3581 39.7225 35.3581 39.7225 35.3496C39.6629 35.2391 39.5864 35.1371 39.5014 35.052L39.0762 34.6269L37.6647 33.2153C38.1664 33.7255 38.1664 34.5588 37.6477 35.069Z" fill="#50E6FF"/>
<path d="M14.2217 42.808H16.7811V39.3301L15.5057 34.0156H14.2217V42.808Z" fill="#0078D4"/>
<path d="M14.5786 39.2931L10.3525 35.067C9.84227 34.5568 9.84227 33.7235 10.344 33.2133L16.4323 27.125L16.7809 39.2931H14.5786Z" fill="#0078D4"/>
<path d="M8.26945 35.3667C8.26094 35.3837 8.25244 35.3922 8.25244 35.4092C8.26094 35.3922 8.26945 35.3837 8.26945 35.3667Z" fill="#0078D4"/>
<path d="M8.27783 35.3478C8.33735 35.2372 8.41388 35.1352 8.49892 35.0502L8.92408 34.625L8.49892 35.0502C8.41388 35.1437 8.33735 35.2457 8.27783 35.3478Z" fill="#0078D4"/>
<path d="M10.3439 33.2153L8.92383 34.6269L10.3439 33.2153Z" fill="#50E6FF"/>
<path d="M8.27755 35.3477C8.27755 35.3562 8.26904 35.3562 8.26904 35.3647C8.27755 35.3562 8.27755 35.3562 8.27755 35.3477Z" fill="#50E6FF"/>
<path d="M8.25234 35.4102C8.02275 35.8948 8.09928 36.5071 8.50744 36.9152L12.2489 40.6566C12.555 40.9628 12.9716 41.1413 13.4138 41.1413H16.7811H13.0737C12.8611 41.1413 12.6485 41.0563 12.4954 40.9032L8.50744 36.9152C8.10778 36.5071 8.02275 35.9033 8.25234 35.4102Z" fill="#50E6FF"/>
<path d="M10.3525 35.069L14.5786 39.2951H16.7809V41.1403H13.4136C12.98 41.1403 12.5548 40.9703 12.2487 40.6556L8.50728 36.9142C8.09912 36.5061 8.01409 35.9023 8.25218 35.4092C8.26068 35.3922 8.26068 35.3837 8.26919 35.3666C8.26919 35.3581 8.27769 35.3581 8.27769 35.3496C8.33721 35.2391 8.41374 35.1371 8.49877 35.052L8.92394 34.6269L10.3355 33.2153C9.83378 33.7255 9.84228 34.5588 10.3525 35.069Z" fill="#50E6FF"/>
</svg>
