<svg data-slug-id="build20" viewBox="0 0 48 48" xmlns="http://www.w3.org/2000/svg">
<path d="M41.1184 38.618H36.2951C36.2951 38.5589 36.2951 38.4997 36.2951 38.4405C36.2951 36.6355 34.8451 35.1855 33.0401 35.1855H31.4126C31.2942 31.1907 27.9801 27.9653 23.9261 27.9653C19.8722 27.9653 16.558 31.1907 16.3804 35.2151H15.0489C13.2438 35.2151 11.7939 36.665 11.7939 38.4701C11.7939 38.5293 11.7939 38.5884 11.7939 38.6476H6.88179C4.48493 38.618 2.56152 40.571 2.56152 42.9383C2.56152 45.3056 4.48493 47.2586 6.88179 47.2586H41.1184C43.5153 47.2586 45.4387 45.3352 45.4387 42.9383C45.4387 40.5414 43.5153 38.618 41.1184 38.618ZM25.0506 40.5118C25.0506 41.1037 24.5771 41.5771 23.9853 41.5771C23.3935 41.5771 22.92 41.1037 22.92 40.5118V32.7295C22.92 32.1376 23.3935 31.6642 23.9853 31.6642C24.5771 31.6642 25.0506 32.1376 25.0506 32.7295V40.5118Z" fill="#50E6FF"/>
<path d="M28.0392 16.1883C28.2759 14.8567 28.3943 13.3771 28.3943 11.8384C28.3943 5.71309 25.376 0.74183 23.9852 0.74183C22.5057 0.712239 19.5762 5.71309 19.5762 11.8384C19.5762 13.3475 19.6946 14.7679 19.9017 16.0995C17.2681 17.9933 15.4927 21.5442 15.4927 24.74V29.6521C15.4927 30.0959 16.0253 30.2735 16.3212 29.948L20.6119 25.0655V25.4798C20.6711 25.7757 20.9966 26.0716 21.5292 26.2787V28.9419C21.5884 29.4154 22.6833 29.8 23.9852 29.8C25.2872 29.8 26.3821 29.4154 26.4413 28.9419V26.2787C26.9739 26.0716 27.329 25.7757 27.3586 25.4798V25.3022L31.4421 29.948C31.7381 30.2735 32.2707 30.0664 32.2707 29.6521V24.74C32.3299 21.6034 30.6136 18.1117 28.0392 16.1883Z" fill="#0078D4"/>
</svg>
