<svg data-slug-id="building26" viewBox="0 0 49 49" xmlns="http://www.w3.org/2000/svg">
<path d="M27.3016 0.207031H23.8008V3.70781H27.3016V0.207031Z" fill="#0078D4"/>
<path d="M32.261 0.207031H28.7603V3.70781H32.261V0.207031Z" fill="#50E6FF"/>
<path d="M32.261 5.16553H28.7603V8.66631H32.261V5.16553Z" fill="#0078D4"/>
<path d="M37.2205 5.16553H33.7197V8.66631H37.2205V5.16553Z" fill="#50E6FF"/>
<path d="M37.2205 10.1265H33.7197V13.6272H37.2205V10.1265Z" fill="#0078D4"/>
<path d="M42.1795 10.1265H38.6787V13.6272H42.1795V10.1265Z" fill="#50E6FF"/>
<path d="M17.3826 15.0845H13.8818V18.5853H17.3826V15.0845Z" fill="#0078D4"/>
<path d="M22.3426 15.0845H18.8418V18.5853H22.3426V15.0845Z" fill="#0078D4"/>
<path d="M27.3016 15.0845H23.8008V18.5853H27.3016V15.0845Z" fill="#0078D4"/>
<path d="M30.5102 18.5849C29.5418 18.5849 28.7603 17.8034 28.7603 16.8349C28.7603 15.8665 29.5418 15.085 30.5102 15.085C31.4787 15.085 32.261 15.8665 32.261 16.8349C32.261 17.7975 31.4728 18.5849 30.5102 18.5849Z" fill="#0078D4"/>
<path d="M37.2205 15.0845H33.7197V18.5853H37.2205V15.0845Z" fill="#0078D4"/>
<path d="M42.1795 15.0845H38.6787V18.5853H42.1795V15.0845Z" fill="#0078D4"/>
<path d="M47.1394 15.0845H43.6387V18.5853H47.1394V15.0845Z" fill="#50E6FF"/>
<path d="M37.2205 20.0454H33.7197V23.5462H37.2205V20.0454Z" fill="#0078D4"/>
<path d="M40.4287 23.5463C39.4602 23.5463 38.6787 22.7648 38.6787 21.7964C38.6787 20.8279 39.4602 20.0464 40.4287 20.0464C41.3971 20.0464 42.1786 20.8279 42.1786 21.7964C42.1795 22.7589 41.3921 23.5463 40.4287 23.5463Z" fill="#50E6FF"/>
<path d="M30.5102 28.5048C29.5418 28.5048 28.7603 27.7233 28.7603 26.7549C28.7603 25.7864 29.5418 25.0049 30.5102 25.0049C31.4787 25.0049 32.261 25.7864 32.261 26.7549C32.261 27.7166 31.4728 28.5048 30.5102 28.5048Z" fill="#0078D4"/>
<path d="M37.2205 25.0039H33.7197V28.5047H37.2205V25.0039Z" fill="#50E6FF"/>
<path d="M32.261 29.9648H28.7603V33.4656H32.261V29.9648Z" fill="#50E6FF"/>
<path d="M32.0677 35.1333H25.8291V48.3145H32.0677V35.1333Z" fill="#0078D4"/>
<path d="M1.07666 35.1333V48.2134H10.4345V44.4903H15.2642V48.2134H25.8289V35.1333H1.07666Z" fill="#50E6FF"/>
<path d="M10.3335 24.3662H6.81162L6.61035 27.083L10.5347 27.1832L10.3335 24.3662Z" fill="#50E6FF"/>
<path d="M6.61055 27.084L6.20801 35.1332H10.9375L10.5349 27.1842L6.61055 27.084Z" fill="#0078D4"/>
<path d="M6.00679 38.957H4.39746V40.5672H6.00763V38.957H6.00679Z" fill="#0078D7"/>
<path d="M10.1321 38.957H8.52197V40.5672H10.1321V38.957Z" fill="#0078D7"/>
<path d="M22.6092 38.957H20.999V40.5672H22.6092V38.957Z" fill="#0078D7"/>
<path d="M18.4837 38.957H16.8735V40.5672H18.4837V38.957Z" fill="#0078D7"/>
<path d="M14.3584 38.957H12.749V40.5672H14.3592V38.957H14.3584Z" fill="#0078D7"/>
<path d="M18.3834 24.3662H14.7613L14.6611 27.083L18.5855 27.1832L18.3834 24.3662Z" fill="#50E6FF"/>
<path d="M14.66 27.084L14.1572 35.1332H18.9869L18.5844 27.1842L14.66 27.084Z" fill="#0078D4"/>
<path d="M26.4327 24.3662H22.8106L22.6094 27.083L26.5338 27.1832L26.4327 24.3662Z" fill="#50E6FF"/>
<path d="M22.6096 27.084L22.207 35.1332H27.0367L26.534 27.1842L22.6096 27.084Z" fill="#0078D4"/>
</svg>
