<svg data-slug-id="build13" viewBox="0 0 49 49" xmlns="http://www.w3.org/2000/svg">
<path d="M43.3675 10.3324L18.096 33.3218H0.40332V0.496582H43.3675V10.3324Z" fill="#50E6FF"/>
<path d="M27.5945 33.7359C27.5945 30.6286 28.8071 27.698 31.005 25.5001C33.2029 23.3022 36.1335 22.0896 39.2408 22.0896C42.3482 22.0896 45.2787 23.3022 47.4766 25.5001C47.805 25.8286 48.1082 26.1738 48.3945 26.5359V5.55908H5.45557V38.418H28.5798C28.4703 38.1654 28.3693 37.9128 28.2766 37.6517C27.8219 36.3886 27.5945 35.0749 27.5945 33.7359Z" fill="#0078D7"/>
<path d="M39.2494 24.606C34.2136 24.606 30.1294 28.6902 30.1294 33.726C30.1294 35.8733 30.8789 37.8523 32.1168 39.4102L25.6831 45.8439L28.2347 48.3954L34.8873 41.7428C36.1842 42.4502 37.6663 42.8544 39.2494 42.8544C44.2852 42.8544 48.3694 38.7702 48.3694 33.7344C48.3694 28.6902 44.2852 24.606 39.2494 24.606ZM39.2494 39.2165C36.2178 39.2165 33.7673 36.766 33.7673 33.7344C33.7673 30.7028 36.2178 28.2523 39.2494 28.2523C42.281 28.2523 44.7315 30.7028 44.7315 33.7344C44.7231 36.766 42.2726 39.2165 39.2494 39.2165Z" fill="#0078D4"/>
</svg>
