<svg data-slug-id="building07" viewBox="0 0 49 49" xmlns="http://www.w3.org/2000/svg">
<path d="M0.933105 48.7591H24.933V0.759277H0.933105V48.7591Z" fill="#0078D4"/>
<path d="M5.96045 10.8145H11.0046V5.78711H5.96045V10.8145Z" fill="#50E6FF"/>
<path d="M13.5559 10.8145H18.6001V5.78711H13.5559V10.8145Z" fill="#50E6FF"/>
<path d="M5.96045 18.3491H11.0046V13.3218H5.96045V18.3491Z" fill="#50E6FF"/>
<path d="M13.5559 18.3491H18.6001V13.3218H13.5559V18.3491Z" fill="#50E6FF"/>
<path d="M5.96045 25.9116H11.0046V20.8843H5.96045V25.9116Z" fill="#50E6FF"/>
<path d="M13.5559 25.9116H18.6001V20.8843H13.5559V25.9116Z" fill="#50E6FF"/>
<path d="M5.96045 33.4902H11.0046V28.4629H5.96045V33.4902Z" fill="#50E6FF"/>
<path d="M13.5559 33.4902H18.6001V28.4629H13.5559V33.4902Z" fill="#50E6FF"/>
<path d="M9.177 48.7591H15.1812V40.978H9.177V48.7591Z" fill="#50E6FF"/>
<path d="M24.9329 48.7591H48.9328V0.759277H24.9329V48.7591Z" fill="#50E6FF"/>
<path d="M31.2319 10.8145H36.2761V5.78711H31.2319V10.8145Z" fill="#0078D4"/>
<path d="M38.8364 10.8145H43.8806V5.78711H38.8364V10.8145Z" fill="#0078D4"/>
<path d="M31.2319 18.3491H36.2761V13.3218H31.2319V18.3491Z" fill="#0078D4"/>
<path d="M38.8364 18.3491H43.8806V13.3218H38.8364V18.3491Z" fill="#0078D4"/>
<path d="M31.2319 25.9116H36.2761V20.8843H31.2319V25.9116Z" fill="#0078D4"/>
<path d="M38.8364 25.9116H43.8806V20.8843H38.8364V25.9116Z" fill="#0078D4"/>
<path d="M31.2319 33.4902H36.2761V28.4629H31.2319V33.4902Z" fill="#0078D4"/>
<path d="M38.8364 33.4902H43.8806V28.4629H38.8364V33.4902Z" fill="#0078D4"/>
<path d="M34.5835 48.7591H40.5877V40.978H34.5835V48.7591Z" fill="#0078D4"/>
</svg>
