<svg data-slug-id="building13" viewBox="0 0 49 49" xmlns="http://www.w3.org/2000/svg">
<path d="M48.8987 22.8921H39.25V43.2788H48.8987V22.8921Z" fill="#0078D4"/>
<path d="M0.966797 22.8921V43.1232H15.4398V37.3651H22.9097V43.1232H39.2502V22.8921H0.966797Z" fill="#50E6FF"/>
<path d="M15.2839 6.23975H9.83713L9.52588 10.4416L15.5952 10.5972L15.2839 6.23975Z" fill="#50E6FF"/>
<path d="M9.52581 10.4429L8.90332 22.8928H16.2176L15.5951 10.5985L9.52581 10.4429Z" fill="#0078D4"/>
<path d="M8.59252 28.8066H6.10254V31.2966H8.59252V28.8066Z" fill="#0078D7"/>
<path d="M14.9729 28.8066H12.4829V31.2966H14.9729V28.8066Z" fill="#0078D7"/>
<path d="M34.2703 28.8066H31.7803V31.2966H34.2703V28.8066Z" fill="#0078D7"/>
<path d="M27.8899 28.8066H25.3999V31.2966H27.8899V28.8066Z" fill="#0078D7"/>
<path d="M21.5095 28.8066H19.0195V31.2966H21.5095V28.8066Z" fill="#0078D7"/>
<path d="M27.7337 6.23975H22.1312L21.9756 10.4416L28.0449 10.5972L27.7337 6.23975Z" fill="#50E6FF"/>
<path d="M21.9764 10.4429L21.1982 22.8928H28.6682L28.0457 10.5985L21.9764 10.4429Z" fill="#0078D4"/>
<path d="M40.1842 6.23975H34.5818L34.2705 10.4416L40.3398 10.5972L40.1842 6.23975Z" fill="#50E6FF"/>
<path d="M34.2704 10.4429L33.6479 22.8928H41.1179L40.3398 10.5985L34.2704 10.4429Z" fill="#0078D4"/>
</svg>
