<svg data-slug-id="building05" viewBox="0 0 48 49" xmlns="http://www.w3.org/2000/svg">
<path d="M5.06004 23.4995C7.85004 23.4995 10.1118 21.2377 10.1118 18.4477C10.1118 15.6577 7.85004 13.396 5.06004 13.396C2.27004 13.396 0.00830078 15.6577 0.00830078 18.4477C0.00830078 21.2377 2.27004 23.4995 5.06004 23.4995Z" fill="#50E6FF"/>
<path d="M5.06004 36.1284C7.85004 36.1284 10.1118 33.8666 10.1118 31.0766C10.1118 28.2866 7.85004 26.0249 5.06004 26.0249C2.27004 26.0249 0.00830078 28.2866 0.00830078 31.0766C0.00830078 33.8666 2.27004 36.1284 5.06004 36.1284Z" fill="#0078D4"/>
<path d="M47.9999 18.4482V41.9135C47.9999 44.3384 47.5031 46.6537 46.6107 48.7586H14.0269C13.1344 46.6537 12.6377 44.3384 12.6377 41.9135V18.4482C12.6377 8.72358 20.5942 0.76709 30.3188 0.76709C35.1853 0.76709 39.5972 2.75411 42.805 5.96196C46.0129 9.16982 47.9999 13.5817 47.9999 18.4482Z" fill="#0078D4"/>
<path d="M42.805 29.9585C39.5972 26.7507 35.1853 24.7637 30.3188 24.7637C20.5942 24.7637 12.6377 32.7202 12.6377 42.4448V48.7594H25.2671V43.7077C25.2671 40.9208 27.5319 38.656 30.3188 38.656C33.1057 38.656 35.3705 40.9208 35.3705 43.7077V48.7594H47.9999V42.4448C47.9999 37.5783 46.0129 33.1664 42.805 29.9585Z" fill="#50E6FF"/>
</svg>
