<svg data-slug-id="building03" viewBox="0 0 49 49" xmlns="http://www.w3.org/2000/svg">
<path d="M42.9483 26.0215V39.9166C42.6133 39.9166 42.292 40.0496 42.0551 40.2865C41.8182 40.5234 41.6851 40.8447 41.6851 41.1797C41.6851 41.5148 41.8182 41.8361 42.0551 42.073C42.292 42.3099 42.6133 42.4429 42.9483 42.4429V48.7589H35.3691V26.0215H42.9483Z" fill="#50E6FF"/>
<path d="M24.0006 0.759277C10.7455 0.759277 0 11.5048 0 24.7599H5.05275C5.05275 19.7346 7.04904 14.9151 10.6024 11.3617C14.1559 7.80832 18.9753 5.81203 24.0006 5.81203C29.0259 5.81203 33.8453 7.80832 37.3987 11.3617C40.9521 14.9151 42.9484 19.7346 42.9484 24.7599H48.0012C48.0012 11.5048 37.2556 0.759277 24.0006 0.759277Z" fill="#50E6FF"/>
<path d="M30.3172 23.4946H25.2644V26.021H30.3172V23.4946Z" fill="#0078D4"/>
<path d="M17.6839 31.0767H10.1047V33.603H17.6839V31.0767Z" fill="#0078D4"/>
<path d="M17.6839 36.1274H10.1047V38.6538H17.6839V36.1274Z" fill="#0078D4"/>
<path d="M17.6839 41.1821H10.1047V43.7085H17.6839V41.1821Z" fill="#0078D4"/>
<path d="M12.6321 13.3887V26.0206H5.05298V48.758H35.3695V13.3887H12.6321ZM20.2112 46.2316H7.57936V28.5469H20.2112V46.2316ZM22.7376 23.4942H17.6849V18.4414H22.7376V23.4942ZM30.3168 46.2316H25.264V41.1788H30.3168V46.2316ZM30.3168 38.6524H25.264V33.5997H30.3168V38.6524ZM30.3168 31.0733H25.264V26.0206H30.3168V31.0733ZM30.3168 23.4942H25.264V18.4414H30.3168V23.4942Z" fill="#0078D4"/>
<path d="M46.7373 41.1793C46.7374 40.4845 46.5465 39.8031 46.1855 39.2095C45.8245 38.6159 45.3072 38.133 44.6902 37.8135C44.0732 37.494 43.3803 37.3504 42.6872 37.3981C41.994 37.4459 41.3274 37.6833 40.7601 38.0844C40.1928 38.4855 39.7467 39.0348 39.4705 39.6723C39.1943 40.3099 39.0987 41.011 39.1941 41.6992C39.2895 42.3874 39.5723 43.0361 40.0116 43.5744C40.4508 44.1128 41.0295 44.52 41.6846 44.7516V48.7584H44.211V44.7516C44.9492 44.4896 45.5884 44.0057 46.0407 43.3661C46.493 42.7265 46.7364 41.9626 46.7373 41.1793ZM42.9478 42.4425C42.6979 42.4425 42.4537 42.3684 42.246 42.2296C42.0383 42.0908 41.8763 41.8935 41.7807 41.6627C41.6851 41.4318 41.6601 41.1779 41.7089 40.9328C41.7576 40.6878 41.8779 40.4627 42.0546 40.2861C42.2312 40.1094 42.4563 39.9891 42.7013 39.9403C42.9464 39.8916 43.2004 39.9166 43.4312 40.0122C43.662 40.1078 43.8593 40.2697 43.9981 40.4775C44.1369 40.6852 44.211 40.9294 44.211 41.1793C44.211 41.5143 44.0779 41.8356 43.841 42.0725C43.6041 42.3094 43.2828 42.4425 42.9478 42.4425Z" fill="#0078D4"/>
</svg>
