<svg data-slug-id="business-critical-applications" viewBox="0 0 48 48" xmlns="http://www.w3.org/2000/svg">
<path fill-rule="evenodd" clip-rule="evenodd" d="M4.57812 32.9886H41.9876V6.26367H4.57812V32.9886Z" fill="#EBEBEB"/>
<path fill-rule="evenodd" clip-rule="evenodd" d="M29.8842 35.666H28.8599H18.7207H18.1918C19.597 40.6655 17.7093 41.3823 9.44141 41.3823V43.9999H19.9565H27.6336H37.5561V41.3823C29.2882 41.3823 28.4772 40.6681 29.8842 35.666Z" fill="#7A7A7A"/>
<path fill-rule="evenodd" clip-rule="evenodd" d="M42.4039 4C42.4091 4 42.4151 4.00087 42.4212 4.00087C42.4151 4.00087 42.4091 4 42.4039 4H4.33917C3.78275 4 3.2788 4.22362 2.87891 4.57293C3.2788 4.22362 3.78189 4 4.33831 4H42.4039Z" fill="#707070"/>
<path fill-rule="evenodd" clip-rule="evenodd" d="M42.4288 4.0022L38.5159 7.3349H41.6436V32.3332H9.15931L5.24292 35.6677H42.4021C43.693 35.6677 45.0002 34.5149 45.0002 33.2208V6.46727C45.0002 5.17059 43.711 4.01867 42.4288 4.0022Z" fill="#3E3E3E"/>
<path fill-rule="evenodd" clip-rule="evenodd" d="M2.00086 33.2206V6.46712C2.00086 5.72517 2.34572 5.03609 2.87719 4.57324C2.34572 5.03609 2 5.72517 2 6.46799V33.2206C2 34.5156 3.04317 35.6684 4.33659 35.6684H5.24215L5.24301 35.6675H4.33745C3.04403 35.6675 2.00086 34.5147 2.00086 33.2206Z" fill="white"/>
<path fill-rule="evenodd" clip-rule="evenodd" d="M5.25898 32.3328V7.33444H38.5156L42.4285 4.00173C42.4251 4.00173 42.4225 4.00087 42.4191 4.00087C42.4139 4.00087 42.4079 4 42.4019 4H4.33708C3.78066 4 3.27757 4.22362 2.87682 4.57293C2.3462 5.03578 2.00049 5.72573 2.00049 6.46681V33.2203C2.00049 34.5144 3.04365 35.6672 4.33708 35.6672H5.24264L9.15903 32.3328H5.25898Z" fill="#707070"/>
<path fill-rule="evenodd" clip-rule="evenodd" d="M9.44531 43.9994H37.5592V41.3809H9.44531V43.9994Z" fill="#9FA0A1"/>
<path fill-rule="evenodd" clip-rule="evenodd" d="M24.1102 5.81511C24.1102 6.15488 23.8376 6.43051 23.4996 6.43051C23.1617 6.43051 22.8899 6.15488 22.8899 5.81511C22.8899 5.47447 23.1617 5.19971 23.4996 5.19971C23.8376 5.19971 24.1102 5.47447 24.1102 5.81511Z" fill="#B7D332"/>
<path fill-rule="evenodd" clip-rule="evenodd" d="M25.8398 14.7496H38.5788V13.8828H25.8398V14.7496Z" fill="#0078D4"/>
<path fill-rule="evenodd" clip-rule="evenodd" d="M25.8398 19.5386H38.5788V18.6719H25.8398V19.5386Z" fill="#0078D4"/>
<path fill-rule="evenodd" clip-rule="evenodd" d="M25.8398 24.3277H38.5788V23.4609H25.8398V24.3277Z" fill="#0078D4"/>
<path fill-rule="evenodd" clip-rule="evenodd" d="M8.21558 19.0688C8.21558 23.0369 11.4061 26.2534 15.3432 26.2534C17.0279 26.2534 18.5733 25.6606 19.7936 24.6759L15.3432 19.0688H8.21558Z" fill="#3C3C41"/>
<path fill-rule="evenodd" clip-rule="evenodd" d="M15.3432 19.069L19.7936 13.4628C18.5733 12.4781 17.0279 11.8853 15.3432 11.8853C11.4061 11.8853 8.21558 15.1018 8.21558 19.069H15.3432Z" fill="#75757A"/>
<path fill-rule="evenodd" clip-rule="evenodd" d="M19.7817 13.4624L15.3313 19.0686L15.3322 19.0695L19.7817 24.6757C21.4123 23.3591 22.4597 21.3387 22.4597 19.0686C22.4597 16.7994 21.4123 14.779 19.7817 13.4624Z" fill="#50E6FF"/>
</svg>
