<svg data-slug-id="calculator-reorder" xmlns="http://www.w3.org/2000/svg" viewBox="0 0 49 49">
	<path d="M46.8,38.2l-5.7,4.3c-0.6,0.5-1.4,0-1.4-0.7v-3.4h-8.9c-0.4,0-0.7-0.2-0.9-0.5L14.4,13.3H3.5c-0.5,0-1-0.4-1-1
		c0-0.5,0.4-1,1-1h11.4c0.4,0,0.7,0.2,0.9,0.5l15.5,24.5h8.3v-3.2c0-0.7,0.8-1.1,1.4-0.7l5.8,4.4C47.3,37.1,47.3,37.8,46.8,38.2z
		M14.1,36.2H3.6c-0.6,0-1,0.5-1,1c0,0.6,0.5,1,1,1h11c0.3,0,0.7-0.2,0.9-0.5l6.8-10.4l-1.2-1.9L14.1,36.2z M31.6,13h7.9v3.4
		c0,0.7,0.8,1.2,1.4,0.7l5.7-4.3c0.5-0.4,0.5-1.1,0-1.4L41,7c-0.6-0.4-1.4,0-1.4,0.7v3.2h-8.5c-0.3,0-0.7,0.2-0.9,0.5l-7.1,10.8
		l1.2,1.9L31.6,13z"/>
</svg>
