<svg data-slug-id="calculator01" viewBox="0 0 48 49" xmlns="http://www.w3.org/2000/svg">
<path d="M39.8623 0.810059H7.5498V47.8101H39.8623V0.810059Z" fill="#0078D4"/>
<path d="M33.9873 6.68457H13.4248V15.4971H33.9873V6.68457Z" fill="#50E6FF"/>
<path d="M16.3623 21.3721H13.4248V24.3096H16.3623V21.3721Z" fill="#50E6FF"/>
<path d="M16.3623 30.1851H13.4248V33.1226H16.3623V30.1851Z" fill="#50E6FF"/>
<path d="M16.3623 38.9976H13.4248V41.9351H16.3623V38.9976Z" fill="#50E6FF"/>
<path d="M25.1748 21.3721H22.2373V24.3096H25.1748V21.3721Z" fill="#50E6FF"/>
<path d="M25.1748 30.1851H22.2373V33.1226H25.1748V30.1851Z" fill="#50E6FF"/>
<path d="M25.1748 38.9976H22.2373V41.9351H25.1748V38.9976Z" fill="#50E6FF"/>
<path d="M33.9873 21.3721H31.0498V24.3096H33.9873V21.3721Z" fill="#50E6FF"/>
<path d="M33.9873 30.1851H31.0498V33.1226H33.9873V30.1851Z" fill="#50E6FF"/>
<path d="M33.9873 38.9976H31.0498V41.9351H33.9873V38.9976Z" fill="#50E6FF"/>
</svg>
