<svg data-slug-id="calculator04" viewBox="0 0 48 48" xmlns="http://www.w3.org/2000/svg">
<g clip-path="url(#calculator04_clip0)">
<path d="M38 1.9L9.1 1.9L9.1 13L38 13L38 1.9Z" fill="#0078D4"/>
<path d="M14.3999 20.3L10.6999 20.3L10.6999 24L14.3999 24L14.3999 20.3Z" fill="#0078D4"/>
<path d="M14.3999 31.3L10.6999 31.3L10.6999 35L14.3999 35L14.3999 31.3Z" fill="#0078D4"/>
<path d="M14.3999 42.3L10.6999 42.3L10.6999 46L14.3999 46L14.3999 42.3Z" fill="#0078D4"/>
<path d="M25.3999 20.3L21.6999 20.3L21.6999 24L25.3999 24L25.3999 20.3Z" fill="#0078D4"/>
<path d="M25.3999 31.3L21.6999 31.3L21.6999 35L25.3999 35L25.3999 31.3Z" fill="#0078D4"/>
<path d="M25.3999 42.3L21.6999 42.3L21.6999 46L25.3999 46L25.3999 42.3Z" fill="#0078D4"/>
<path d="M36.3999 20.3L32.6999 20.3L32.6999 24L36.3999 24L36.3999 20.3Z" fill="#0078D4"/>
<path d="M36.3999 31.3L32.6999 31.3L32.6999 35L36.3999 35L36.3999 31.3Z" fill="#0078D4"/>
<path d="M36.3999 42.3L32.6999 42.3L32.6999 46L36.3999 46L36.3999 42.3Z" fill="#0078D4"/>
</g>
<defs>
<clipPath id="calculator04_clip0">
<rect x="38" y="46" width="28.9" height="44.1" transform="rotate(-180 38 46)" fill="white"/>
</clipPath>
</defs>
</svg>
