<svg data-slug-id="calculator02" viewBox="0 0 49 49" xmlns="http://www.w3.org/2000/svg">
<path d="M43.8373 43.3584H33.7351V48.3765H43.8373V43.3584Z" fill="#0078D7"/>
<path d="M43.8373 33.2729H33.7351V38.291H43.8373V33.2729Z" fill="#0078D7"/>
<path d="M43.8458 0.385742H5.93115V18.0417H43.8458V0.385742Z" fill="#0078D7"/>
<path d="M38.7483 5.42871H10.9695V13.0316H38.7483V5.42871Z" fill="#50E6FF"/>
<path d="M43.8373 23.1611H33.7351V28.1792H43.8373V23.1611Z" fill="#0078D7"/>
<path d="M15.9654 43.3584H5.86328V48.3765H15.9654V43.3584Z" fill="#0078D7"/>
<path d="M15.9654 33.2729H5.86328V38.291H15.9654V33.2729Z" fill="#0078D7"/>
<path d="M15.9654 23.1611H5.86328V28.1792H15.9654V23.1611Z" fill="#0078D7"/>
<path d="M29.9855 43.3584H19.8833V48.3765H29.9855V43.3584Z" fill="#0078D7"/>
<path d="M29.9855 33.2729H19.8833V38.291H29.9855V33.2729Z" fill="#0078D7"/>
<path d="M29.9855 23.1611H19.8833V28.1792H29.9855V23.1611Z" fill="#0078D7"/>
</svg>
