<svg data-slug-id="calculator03" viewBox="0 0 49 49" xmlns="http://www.w3.org/2000/svg">
<path d="M36.7195 43.3267H33.5852V48.3412H36.7195V43.3267Z" fill="#0078D7"/>
<path d="M36.7195 37.5652C36.7279 35.9246 37.3093 34.4269 38.2782 33.249H33.5852V38.2636H36.7195V37.5652Z" fill="#0078D7"/>
<path d="M43.696 0.385742H5.78149V18.0292H43.696V0.385742Z" fill="#0078D7"/>
<path d="M38.5985 5.4248H10.8198V13.0223H38.5985V5.4248Z" fill="#50E6FF"/>
<path d="M43.6873 23.1436H33.5852V28.1581H43.6873V23.1436Z" fill="#0078D7"/>
<path d="M15.8157 43.3267H5.71362V48.3412H15.8157V43.3267Z" fill="#0078D7"/>
<path d="M15.8157 33.249H5.71362V38.2636H15.8157V33.249Z" fill="#0078D7"/>
<path d="M15.8157 23.1436H5.71362V28.1581H15.8157V23.1436Z" fill="#0078D7"/>
<path d="M29.8358 43.3267H19.7336V48.3412H29.8358V43.3267Z" fill="#0078D7"/>
<path d="M29.8358 33.249H19.7336V38.2636H29.8358V33.249Z" fill="#0078D7"/>
<path d="M29.8358 23.1436H19.7336V28.1581H29.8358V23.1436Z" fill="#0078D7"/>
<path d="M48.6921 37.0779C48.6921 34.3098 46.4256 32.0381 43.6452 32.0381C41.1513 32.0381 39.0702 33.8723 38.6742 36.2449H40.7385C40.8733 35.7569 41.1429 35.311 41.5136 34.9408C42.0865 34.3687 42.8448 34.0574 43.6452 34.0574C44.4457 34.0574 45.2039 34.3687 45.7769 34.9408C46.3498 35.5129 46.6615 36.2702 46.6615 37.0694C46.6615 37.2293 46.6615 37.6836 46.6615 38.281H38.5984V48.3858H48.6837V38.9541C48.6921 38.037 48.6921 37.2966 48.6921 37.0779Z" fill="#0078D4"/>
<path d="M43.6455 44.4471C44.3617 44.4471 44.9515 43.8666 44.9515 43.143C44.9515 42.4278 44.3701 41.8389 43.6455 41.8389C42.9294 41.8389 42.3396 42.4194 42.3396 43.143C42.348 43.8581 42.9294 44.4471 43.6455 44.4471Z" fill="#50E6FF"/>
</svg>
