<svg data-slug-id="calender06" viewBox="0 0 48 49" xmlns="http://www.w3.org/2000/svg">
<path d="M15.4813 32.2581C11.9013 32.2581 8.59541 31.0978 5.91846 29.1318V47.6076H46.9436V17.6821L32.3655 17.7466L31.4785 18.6249C30.2529 26.352 23.5606 32.2581 15.4813 32.2581Z" fill="#0078D4"/>
<path d="M30.9385 11.2432C31.1804 12.0086 31.3658 12.7983 31.4868 13.6121C31.6077 14.4178 31.6722 15.2397 31.6722 16.0776C31.6722 16.9398 31.5997 17.7939 31.4706 18.6238H46.9357V11.2673L30.9385 11.2432Z" fill="#50E6FF"/>
<path d="M15.4814 30.5498C23.4792 30.5498 29.9627 24.0709 29.9627 16.0786C29.9627 8.0864 23.4792 1.60742 15.4814 1.60742C7.48352 1.60742 1 8.0864 1 16.0786C1 24.0709 7.48352 30.5498 15.4814 30.5498Z" fill="#50E6FF"/>
<path d="M25.9746 11.0886L23.2606 8.36816L12.6291 19.0253L7.631 14.0464L4.91699 16.754L12.5906 24.4148L12.597 24.4084L12.6355 24.4469L25.9746 11.0886Z" fill="#0078D4"/>
</svg>
