<svg data-slug-id="calender02" viewBox="0 0 48 49" xmlns="http://www.w3.org/2000/svg">
<path d="M0 48.393H48V4.88916H0V48.393Z" fill="#0078D4"/>
<path d="M0 5.49582H48V0.392578H0V5.49582Z" fill="#50E6FF"/>
<path d="M11.2588 35.6353H6.23145V40.6627H11.2588V35.6353Z" fill="#50E6FF"/>
<path d="M18.8631 35.6353H13.8357V40.6627H18.8631V35.6353Z" fill="#50E6FF"/>
<path d="M26.4336 35.6353H21.4062V40.6627H26.4336V35.6353Z" fill="#50E6FF"/>
<path d="M33.9954 35.6353H28.968V40.6627H33.9954V35.6353Z" fill="white"/>
<path d="M41.5999 35.6353H36.5725V40.6627H41.5999V35.6353Z" fill="#50E6FF"/>
<path d="M11.2588 28.0728H6.23145V33.1002H11.2588V28.0728Z" fill="#50E6FF"/>
<path d="M18.8631 28.0728H13.8357V33.1002H18.8631V28.0728Z" fill="white"/>
<path d="M26.4336 28.0728H21.4062V33.1002H26.4336V28.0728Z" fill="#50E6FF"/>
<path d="M33.9954 28.0728H28.968V33.1002H33.9954V28.0728Z" fill="#50E6FF"/>
<path d="M41.5999 28.0728H36.5725V33.1002H41.5999V28.0728Z" fill="#50E6FF"/>
<path d="M11.2588 20.5103H6.23145V25.5377H11.2588V20.5103Z" fill="#50E6FF"/>
<path d="M18.8631 20.5103H13.8357V25.5377H18.8631V20.5103Z" fill="#50E6FF"/>
<path d="M26.4336 20.5103H21.4062V25.5377H26.4336V20.5103Z" fill="white"/>
<path d="M33.9954 20.5103H28.968V25.5377H33.9954V20.5103Z" fill="#50E6FF"/>
<path d="M41.5999 20.5103H36.5725V25.5377H41.5999V20.5103Z" fill="#50E6FF"/>
<path d="M11.2588 12.9907H6.23145V18.0182H11.2588V12.9907Z" fill="white"/>
<path d="M18.8631 12.9907H13.8357V18.0182H18.8631V12.9907Z" fill="#50E6FF"/>
<path d="M26.4336 12.9907H21.4062V18.0182H26.4336V12.9907Z" fill="#50E6FF"/>
<path d="M33.9954 12.9907H28.968V18.0182H33.9954V12.9907Z" fill="#50E6FF"/>
<path d="M41.5999 12.9907H36.5725V18.0182H41.5999V12.9907Z" fill="#50E6FF"/>
</svg>
