<svg data-slug-id="calender04" viewBox="0 0 48 49" xmlns="http://www.w3.org/2000/svg">
<path d="M0 43.3643H48V6.4043H0V43.3643Z" fill="#0078D4"/>
<path d="M0 10.3986H47.9832V5.39648H0V10.3986Z" fill="#50E6FF"/>
<path d="M7.47813 9.21701C8.1525 9.21701 8.69919 8.67032 8.69919 7.99595C8.69919 7.32159 8.1525 6.7749 7.47813 6.7749C6.80376 6.7749 6.25708 7.32159 6.25708 7.99595C6.25708 8.67032 6.80376 9.21701 7.47813 9.21701Z" fill="white"/>
<path d="M3.68834 9.21701C4.36271 9.21701 4.90939 8.67032 4.90939 7.99595C4.90939 7.32159 4.36271 6.7749 3.68834 6.7749C3.01397 6.7749 2.46729 7.32159 2.46729 7.99595C2.46729 8.67032 3.01397 9.21701 3.68834 9.21701Z" fill="white"/>
<path d="M11.3517 9.21701C12.026 9.21701 12.5727 8.67032 12.5727 7.99595C12.5727 7.32159 12.026 6.7749 11.3517 6.7749C10.6773 6.7749 10.1306 7.32159 10.1306 7.99595C10.1306 8.67032 10.6773 9.21701 11.3517 9.21701Z" fill="white"/>
<path d="M16.4042 15.4355H6.22314V25.5492H16.4042V15.4355Z" fill="#50E6FF"/>
<path d="M29.036 15.4355H18.855V25.5492H29.036V15.4355Z" fill="#50E6FF"/>
<path d="M41.6759 15.4355H31.4949V25.5492H41.6759V15.4355Z" fill="white"/>
<path d="M16.4042 28.0723H6.22314V38.1859H16.4042V28.0723Z" fill="white"/>
<path d="M29.036 28.0723H18.855V38.1859H29.036V28.0723Z" fill="white"/>
<path d="M41.6759 28.0723H31.4949V38.1859H41.6759V28.0723Z" fill="#50E6FF"/>
</svg>
