<svg data-slug-id="calender07" viewBox="0 0 49 48" xmlns="http://www.w3.org/2000/svg">
<g clip-path="url(#calender07_clip0)">
<path d="M0.5 42.9718H48.5V6.01178H0.5V42.9718Z" fill="#50E6FF"/>
<path d="M0.5 10.0061H48.4832V5.00403H0.5V10.0061Z" fill="#0078D4"/>
<path d="M7.97801 8.82467C8.65238 8.82467 9.19906 8.27799 9.19906 7.60362C9.19906 6.92925 8.65238 6.38257 7.97801 6.38257C7.30364 6.38257 6.75696 6.92925 6.75696 7.60362C6.75696 8.27799 7.30364 8.82467 7.97801 8.82467Z" fill="#50E6FF"/>
<path d="M4.18835 8.82467C4.86271 8.82467 5.4094 8.27799 5.4094 7.60362C5.4094 6.92925 4.86271 6.38257 4.18835 6.38257C3.51398 6.38257 2.96729 6.92925 2.96729 7.60362C2.96729 8.27799 3.51398 8.82467 4.18835 8.82467Z" fill="#50E6FF"/>
<path d="M11.8516 8.82467C12.5259 8.82467 13.0726 8.27799 13.0726 7.60362C13.0726 6.92925 12.5259 6.38257 11.8516 6.38257C11.1772 6.38257 10.6305 6.92925 10.6305 7.60362C10.6305 8.27799 11.1772 8.82467 11.8516 8.82467Z" fill="#50E6FF"/>
<path d="M16.9043 15.0429H6.72321V25.1566H16.9043V15.0429Z" fill="#0078D4"/>
<path d="M29.5361 15.0429H19.355V25.1566H29.5361V15.0429Z" fill="#0078D4"/>
<path d="M42.1758 15.0429H31.9948V25.1566H42.1758V15.0429Z" fill="#0078D4"/>
<path d="M16.9043 27.6798H6.72321V37.7935H16.9043V27.6798Z" fill="#0078D4"/>
<path d="M29.5361 27.6798H19.355V37.7935H29.5361V27.6798Z" fill="#0078D4"/>
<path d="M42.1758 27.6798H31.9948V37.7935H42.1758V27.6798Z" fill="#0078D4"/>
</g>
<defs>
<clipPath id="calender07_clip0">
<rect width="48" height="48" fill="white" transform="translate(0.5)"/>
</clipPath>
</defs>
</svg>
