<svg data-slug-id="calender03" viewBox="0 0 48 49" xmlns="http://www.w3.org/2000/svg">
<path d="M0 48.4609H48V0.460938H0V48.4609Z" fill="#0078D4"/>
<path d="M0 5.49289H48V0.46875H0V5.49289Z" fill="#50E6FF"/>
<path d="M19.5429 15.2095V36.6593H14.9293V20.4197C14.4401 20.8511 13.7907 21.2317 12.9725 21.5785C12.1544 21.9168 11.3194 22.1452 10.4675 22.2551V18.3644C12.787 17.6793 14.8787 16.6304 16.7427 15.2179H19.5429V15.2095Z" fill="#50E6FF"/>
<path d="M28.5925 32.8311H37.4908V36.6627H23.5234V35.081C23.5234 33.9645 23.7259 32.958 24.1307 32.0361C24.5356 31.1226 25.0754 30.2683 25.767 29.4902C26.4502 28.712 27.5551 27.7732 29.0733 26.682C30.4228 25.7178 31.3758 24.8635 31.9494 24.1108C32.5229 23.3665 32.8097 22.5714 32.8097 21.734C32.8097 19.9155 31.7807 19.0105 29.7227 19.0105C27.9177 19.0105 26.1887 19.7295 24.544 21.1589V17.0905C26.3658 15.9064 28.4238 15.3228 30.718 15.3228C32.8265 15.3228 34.4881 15.8556 35.7027 16.9213C36.9172 17.9871 37.5245 19.4419 37.5245 21.2857C37.5245 22.3176 37.3474 23.2565 36.9847 24.0939C36.622 24.9312 36.1075 25.7178 35.4328 26.4452C34.758 27.1726 33.6784 28.0523 32.1855 29.0842C30.7601 30.0991 29.807 30.8773 29.3263 31.4102C28.8287 31.9515 28.5925 32.4251 28.5925 32.8311Z" fill="#50E6FF"/>
</svg>
