<svg data-slug-id="call" viewBox="0 0 50 50" xmlns="http://www.w3.org/2000/svg">
<path d="M27.2908 26.712L27.1558 26.6668C27.2366 26.645 27.3158 26.6222 27.3935 26.5982C27.3597 26.6367 27.3255 26.6747 27.2908 26.712Z" fill="currentColor"/>
<path d="M18.7637 10.8102C16.8892 10.3354 14.9288 10.5374 13.3917 11.3974C11.8272 12.2727 10.7289 13.8229 10.6747 15.9C10.5901 19.1424 11.3416 23.4939 14.3226 28.6041C17.2653 33.6486 20.5149 36.6723 23.21 38.4701C24.9128 39.6059 26.795 39.636 28.4024 38.8953C29.9848 38.1661 31.2707 36.7108 31.9385 34.9054C32.2746 33.9966 32.1954 32.9862 31.722 32.141L30.0057 29.0761C28.9144 27.1271 26.5582 26.2737 24.4718 27.0718L23.2736 27.5301C22.6929 27.7522 22.1589 27.6498 21.8554 27.3517C20.838 26.3525 20.1112 24.9957 19.7815 23.534C19.6778 23.0744 19.8884 22.5309 20.3973 22.1469L21.4793 21.3303C23.2887 19.9648 23.8 17.4667 22.6725 15.5001L20.9231 12.449C20.4551 11.6327 19.6758 11.0413 18.7637 10.8102ZM12.4741 15.9469C12.5104 14.5554 13.2145 13.5591 14.2706 12.9682C15.3542 12.362 16.8326 12.1779 18.3217 12.5551C18.7609 12.6664 19.1362 12.9512 19.3616 13.3443L21.1109 16.3954C21.7874 17.5754 21.4807 19.0743 20.395 19.8936L19.313 20.7101C18.3784 21.4154 17.7314 22.6257 18.0256 23.9301C18.4247 25.6991 19.3088 27.3737 20.5941 28.636C21.5326 29.5578 22.8714 29.6111 23.9166 29.2113L25.1149 28.753C26.3668 28.274 27.7804 28.7861 28.4352 29.9556L30.1515 33.0204C30.3675 33.4058 30.4035 33.8666 30.2503 34.281C29.728 35.6933 28.7484 36.754 27.6491 37.2605C26.5753 37.7553 25.3601 37.7406 24.2089 36.9727C21.7415 35.3268 18.682 32.5051 15.8774 27.6971C13.0632 22.8729 12.3983 18.8512 12.4741 15.9469Z" fill="currentColor"/>
<path d="M29.9368 10.7136C29.5023 10.4722 28.9544 10.6287 28.713 11.0632C28.4716 11.4977 28.6282 12.0457 29.0628 12.2871L29.7538 12.671C34.1368 15.106 37.0486 19.5341 37.5476 24.5232L37.6043 25.0898C37.6536 25.5844 38.0948 25.9453 38.5893 25.8958C39.0839 25.8463 39.4448 25.4053 39.3953 24.9108L39.3386 24.3441C38.781 18.7681 35.5267 13.819 30.628 11.0976L29.9368 10.7136Z" fill="currentColor"/>
<path d="M27.8281 15.5372C28.0839 15.111 28.6367 14.9728 29.0629 15.2285L29.2863 15.3626C32.2257 17.1263 34.2439 20.0904 34.8074 23.4718L34.8875 23.9523C34.9693 24.4426 34.6381 24.9063 34.1477 24.988C33.6574 25.0698 33.1937 24.7385 33.112 24.2483L33.0319 23.7677C32.5551 20.9065 30.8474 18.3984 28.3602 16.9061L28.1368 16.772C27.7106 16.5163 27.5723 15.9635 27.8281 15.5372Z" fill="currentColor"/>
</svg>
