<svg data-slug-id="charts45" viewBox="0 0 48 49" xmlns="http://www.w3.org/2000/svg">
<path d="M7.11328 22.3026L6.31836 20.9829L17.81 14.091L29.5871 7.04474L41.2949 4.60596L41.6113 6.11862L30.1505 8.50338L18.6049 15.4107L7.11328 22.3026Z" fill="#50E6FF"/>
<path d="M6.44947 23.9151C7.70745 23.9151 8.7339 22.8886 8.7339 21.6306C8.7339 20.3726 7.71517 19.3462 6.44947 19.3462C5.19149 19.3462 4.16504 20.3649 4.16504 21.6306C4.17276 22.8886 5.19149 23.9151 6.44947 23.9151Z" fill="#0078D4"/>
<path d="M18.1809 17C19.4389 17 20.4653 15.9736 20.4653 14.7156C20.4653 13.4576 19.4466 12.4312 18.1809 12.4312C16.9229 12.4312 15.8965 13.4499 15.8965 14.7156C15.8965 15.9736 16.9152 17 18.1809 17Z" fill="#0078D4"/>
<path d="M29.8264 9.93117C31.0844 9.93117 32.1109 8.90472 32.1109 7.64674C32.1109 6.38876 31.0921 5.3623 29.8264 5.3623C28.5684 5.3623 27.542 6.38104 27.542 7.64674C27.542 8.90472 28.5684 9.93117 29.8264 9.93117Z" fill="#0078D4"/>
<path d="M45.3933 45.2008V42.6309H1.89648V45.2008H45.3933Z" fill="#0078D4"/>
<path d="M41.2952 7.76222C42.5532 7.76222 43.5796 6.73577 43.5796 5.47779C43.5796 4.21981 42.5609 3.19336 41.2952 3.19336C40.0372 3.19336 39.0107 4.21209 39.0107 5.47779C39.0107 6.73577 40.0295 7.76222 41.2952 7.76222Z" fill="#0078D4"/>
<path d="M11.3431 26.2998H1.98926V40.6855H11.3431V26.2998Z" fill="#50E6FF"/>
<path d="M11.3431 38.0073H1.98926V40.6854H11.3431V38.0073Z" fill="#0078D4"/>
<path d="M22.9036 21.5386H13.5498V40.6784H22.9036V21.5386Z" fill="#50E6FF"/>
<path d="M22.9036 26.647H13.5498V40.6777H22.9036V26.647Z" fill="#0078D4"/>
<path d="M34.5423 14.7163H25.1885V40.6863H34.5423V14.7163Z" fill="#50E6FF"/>
<path d="M34.5423 31.4321H25.1885V40.6856H34.5423V31.4321Z" fill="#0078D4"/>
<path d="M46.1028 10.0156H36.749V40.6857H46.1028V10.0156Z" fill="#50E6FF"/>
<path d="M46.1028 22.0088H36.749V40.6856H46.1028V22.0088Z" fill="#0078D4"/>
</svg>
