<svg data-slug-id="charts12" viewBox="0 0 48 49" xmlns="http://www.w3.org/2000/svg">
<path d="M41.6658 13.564C38.1664 13.564 35.3315 10.7282 35.3315 7.22756C35.3315 3.72695 38.1664 0.891113 41.6658 0.891113C45.1653 0.891113 48.0001 3.72695 48.0001 7.22756C48.0086 10.7282 45.1737 13.564 41.6658 13.564Z" fill="#50E6FF"/>
<path d="M41.6658 31.1534C38.1664 31.1534 35.3315 28.3175 35.3315 24.8169C35.3315 21.3163 38.1664 18.4805 41.6658 18.4805C45.1653 18.4805 48.0001 21.3163 48.0001 24.8169C48.0086 28.3091 45.1737 31.1534 41.6658 31.1534Z" fill="#50E6FF"/>
<path d="M12.6097 18.4805H0V31.0945H12.6097V18.4805Z" fill="#0078D4"/>
<path d="M12.6097 0.766113H0V13.3801H12.6097V0.766113Z" fill="#0078D4"/>
<path d="M12.6097 36.1523H0V48.7663H12.6097V36.1523Z" fill="#0078D4"/>
<path d="M41.6658 48.731C38.1664 48.731 35.3315 45.8952 35.3315 42.3946C35.3315 38.8939 38.1664 36.0581 41.6658 36.0581C45.1653 36.0581 48.0001 38.8939 48.0001 42.3946C48.0086 45.8952 45.1737 48.731 41.6658 48.731Z" fill="#50E6FF"/>
<path d="M31.6045 42.5779L26.4731 37.4448V40.0114H19.02V45.1361H26.4731V47.7026L31.6045 42.5779Z" fill="#0078D4"/>
<path d="M31.6045 24.9105L26.4731 19.7773V22.3439H19.02V27.4686H26.4731V30.0351L31.6045 24.9105Z" fill="#0078D4"/>
<path d="M31.6045 7.17657L26.4731 2.04346V4.61001H19.02V9.74312H26.4731V12.3097L31.6045 7.17657Z" fill="#0078D4"/>
</svg>
