<svg data-slug-id="charts05" viewBox="0 0 49 49" xmlns="http://www.w3.org/2000/svg">
<path d="M23.5509 24.3187L4.60352 43.2661L5.4967 44.1593L24.4441 25.2119L23.5509 24.3187Z" fill="#50E6FF"/>
<path d="M23.4001 24.566L17.082 43.5161L18.2804 43.9157L24.5984 24.9655L23.4001 24.566Z" fill="#50E6FF"/>
<path d="M23.8037 24.1668L4.85352 30.4849L5.25306 31.6832L24.2032 25.3652L23.8037 24.1668Z" fill="#50E6FF"/>
<path d="M5.25684 17.8568L4.85742 19.0552L23.8076 25.3712L24.207 24.1729L5.25684 17.8568Z" fill="#50E6FF"/>
<path d="M24.444 24.3182L23.5508 25.2114L42.4982 44.1589L43.3914 43.2657L24.444 24.3182Z" fill="#50E6FF"/>
<path d="M24.6007 24.5776L23.4023 24.9771L29.7184 43.9272L30.9168 43.5278L24.6007 24.5776Z" fill="#50E6FF"/>
<path d="M24.2021 24.1693L23.8027 25.3677L42.7529 31.6837L43.1523 30.4854L24.2021 24.1693Z" fill="#50E6FF"/>
<path d="M42.749 17.8504L23.7988 24.1685L24.1984 25.3668L43.1485 19.0488L42.749 17.8504Z" fill="#50E6FF"/>
<path d="M18.2863 5.62451L17.0879 6.02393L23.4039 24.9741L24.6023 24.5747L18.2863 5.62451Z" fill="#50E6FF"/>
<path d="M42.4982 5.37337L23.5508 24.3208L24.444 25.214L43.3914 6.26656L42.4982 5.37337Z" fill="#50E6FF"/>
<path d="M23.9994 36.1359C17.7172 36.1359 12.6309 31.0496 12.6309 24.7674C12.6309 18.4853 17.7172 13.3989 23.9994 13.3989C30.2815 13.3989 35.3679 18.4853 35.3679 24.7674C35.3679 31.0496 30.2815 36.1359 23.9994 36.1359Z" fill="#0078D4"/>
<path d="M10.1053 38.6606H0V48.766H10.1053V38.6606Z" fill="#0078D4"/>
<path d="M20.2109 41.188H15.1582V46.2407H20.2109V41.188Z" fill="#0078D4"/>
<path d="M35.369 38.6606H25.2637V48.766H35.369V38.6606Z" fill="#0078D4"/>
<path d="M45.4745 41.188H40.4219V46.2407H45.4745V41.188Z" fill="#0078D4"/>
<path d="M10.1053 13.3989H0V23.5043H10.1053V13.3989Z" fill="#0078D4"/>
<path d="M7.57806 28.5552H2.52539V33.6078H7.57806V28.5552Z" fill="#0078D4"/>
<path d="M45.4745 15.9224H40.4219V20.975H45.4745V15.9224Z" fill="#0078D4"/>
<path d="M48.0018 26.0317H37.8965V36.1371H48.0018V26.0317Z" fill="#0078D4"/>
<path d="M20.2109 3.28955H15.1582V8.34222H20.2109V3.28955Z" fill="#0078D4"/>
<path d="M48.0018 0.766113H37.8965V10.8714H48.0018V0.766113Z" fill="#0078D4"/>
</svg>
