<svg data-slug-id="charts54" viewBox="0 0 48 48" xmlns="http://www.w3.org/2000/svg">
<path d="M10.1535 27.9376H0.150391V48.0001H10.1535V27.9376Z" fill="#50E6FF"/>
<path d="M47.8493 12.9219H37.8462V47.9916H47.8493V12.9219Z" fill="#0078D4"/>
<path d="M22.7663 22.899H12.7632V47.9918H22.7663V22.899Z" fill="#50E6FF"/>
<path d="M35.3037 10.4239H25.3005V47.992H35.3037V10.4239Z" fill="#0078D4"/>
<path d="M18.1409 38.3408L17.2627 37.455L29.7833 24.9964L42.3876 12.521L43.2742 13.4151L30.6699 25.8821L18.1409 38.3408Z" fill="#50E6FF"/>
<path d="M42.7559 15.7965C44.3542 15.7965 45.6498 14.5021 45.6498 12.9053C45.6498 11.3086 44.3542 10.0142 42.7559 10.0142C41.1577 10.0142 39.8621 11.3086 39.8621 12.9053C39.8621 14.5021 41.1577 15.7965 42.7559 15.7965Z" fill="#50E6FF"/>
<path d="M30.2269 28.3302C31.8251 28.3302 33.1208 27.0358 33.1208 25.4391C33.1208 23.8423 31.8251 22.5479 30.2269 22.5479C28.6286 22.5479 27.333 23.8423 27.333 25.4391C27.333 27.0358 28.6286 28.3302 30.2269 28.3302Z" fill="#50E6FF"/>
<path d="M17.7059 40.9313C19.3041 40.9313 20.5998 39.6369 20.5998 38.0402C20.5998 36.4434 19.3041 35.149 17.7059 35.149C16.1076 35.149 14.812 36.4434 14.812 38.0402C14.812 39.6369 16.1076 40.9313 17.7059 40.9313Z" fill="#0078D4"/>
<path d="M5.21908 31.4303C6.81733 31.4303 8.11297 30.1359 8.11297 28.5392C8.11297 26.9424 6.81733 25.648 5.21908 25.648C3.62083 25.648 2.3252 26.9424 2.3252 28.5392C2.3252 30.1359 3.62083 31.4303 5.21908 31.4303Z" fill="#0078D4"/>
<path d="M13.675 12.396L11.676 14.3931L18.2165 20.9274L20.2155 18.9303L13.675 12.396Z" fill="#50E6FF"/>
<path d="M9.5934 2.31837C5.65403 2.31837 2.45068 5.51032 2.45068 9.45431C2.45068 13.3983 5.64567 16.5902 9.5934 16.5902C13.5411 16.5902 16.7361 13.3983 16.7361 9.45431C16.7361 5.51032 13.5411 2.31837 9.5934 2.31837ZM9.5934 13.7492C7.21807 13.7492 5.30275 11.8274 5.30275 9.46266C5.30275 7.08959 7.22643 5.17609 9.5934 5.17609C11.9604 5.17609 13.884 7.09794 13.884 9.46266C13.884 11.8274 11.9687 13.7492 9.5934 13.7492Z" fill="#50E6FF"/>
<path d="M5.59349 27.8494L4.80737 28.8263L17.2778 38.8424L18.0639 37.8655L5.59349 27.8494Z" fill="#0078D4"/>
<path d="M17.2627 37.4553L18.1409 38.341L25.2418 31.2886V29.5172L17.2627 37.4553Z" fill="#0078D4"/>
</svg>
