<svg data-slug-id="charts34" viewBox="0 0 49 49" xmlns="http://www.w3.org/2000/svg">
<path d="M11.1151 23.9996L10.3569 22.9887L20.4742 15.4071L33.6577 10.0747L41.5426 17.9259L40.6581 18.8188L33.3545 11.5573L21.0975 16.5191L11.1151 23.9996Z" fill="#50E6FF"/>
<path d="M33.5062 13.344C34.9019 13.344 36.0334 12.2125 36.0334 10.8168C36.0334 9.42102 34.9019 8.28955 33.5062 8.28955C32.1105 8.28955 30.979 9.42102 30.979 10.8168C30.979 12.2125 32.1105 13.344 33.5062 13.344Z" fill="#0078D4"/>
<path d="M41.0965 20.8986C42.4923 20.8986 43.6237 19.7672 43.6237 18.3714C43.6237 16.9757 42.4923 15.8442 41.0965 15.8442C39.7008 15.8442 38.5693 16.9757 38.5693 18.3714C38.5693 19.7672 39.7008 20.8986 41.0965 20.8986Z" fill="#0078D4"/>
<path d="M20.8788 18.4572C22.2745 18.4572 23.406 17.3258 23.406 15.93C23.406 14.5343 22.2745 13.4028 20.8788 13.4028C19.483 13.4028 18.3516 14.5343 18.3516 15.93C18.3516 17.3258 19.483 18.4572 20.8788 18.4572Z" fill="#0078D4"/>
<path d="M10.7362 26.0217C12.1319 26.0217 13.2634 24.8902 13.2634 23.4945C13.2634 22.0988 12.1319 20.9673 10.7362 20.9673C9.34045 20.9673 8.20898 22.0988 8.20898 23.4945C8.20898 24.8902 9.34045 26.0217 10.7362 26.0217Z" fill="#0078D4"/>
<path d="M11.1151 36.6363L10.3569 35.6254L20.4742 28.0438L33.6577 22.7114L41.5426 30.5626L40.6581 31.4555L33.3545 24.1941L21.0975 29.1558L11.1151 36.6363Z" fill="#50E6FF"/>
<path d="M33.5062 25.9787C34.9019 25.9787 36.0334 24.8473 36.0334 23.4515C36.0334 22.0558 34.9019 20.9243 33.5062 20.9243C32.1105 20.9243 30.979 22.0558 30.979 23.4515C30.979 24.8473 32.1105 25.9787 33.5062 25.9787Z" fill="#0078D4"/>
<path d="M41.0965 33.5354C42.4923 33.5354 43.6237 32.4039 43.6237 31.0082C43.6237 29.6124 42.4923 28.481 41.0965 28.481C39.7008 28.481 38.5693 29.6124 38.5693 31.0082C38.5693 32.4039 39.7008 33.5354 41.0965 33.5354Z" fill="#0078D4"/>
<path d="M20.8788 31.092C22.2745 31.092 23.406 29.9605 23.406 28.5648C23.406 27.1691 22.2745 26.0376 20.8788 26.0376C19.483 26.0376 18.3516 27.1691 18.3516 28.5648C18.3516 29.9605 19.483 31.092 20.8788 31.092Z" fill="#0078D4"/>
<path d="M10.7362 38.6565C12.1319 38.6565 13.2634 37.525 13.2634 36.1293C13.2634 34.7335 12.1319 33.6021 10.7362 33.6021C9.34045 33.6021 8.20898 34.7335 8.20898 36.1293C8.20898 37.525 9.34045 38.6565 10.7362 38.6565Z" fill="#0078D4"/>
<path d="M5.69884 3.24268H3.15479V46.2472H5.69884V3.24268Z" fill="#0078D4"/>
<path d="M46.2026 46.2633V43.7192L3.16438 43.7192V46.2633L46.2026 46.2633Z" fill="#0078D4"/>
</svg>
