<svg data-slug-id="charts49" viewBox="0 0 48 48" xmlns="http://www.w3.org/2000/svg">
<path d="M3.56587 6.24798C2.07248 6.24798 0.852539 5.02803 0.852539 3.53465C0.852539 2.04127 2.05145 0.800293 3.56587 0.800293C5.05925 0.800293 6.27919 2.02024 6.27919 3.51362C6.27919 5.02803 5.05925 6.24798 3.56587 6.24798Z" fill="#50E6FF"/>
<path d="M11.727 6.24798C10.2126 6.24798 9.01367 5.02803 9.01367 3.53465C9.01367 2.04127 10.2126 0.800293 11.727 0.800293C13.2204 0.800293 14.4403 2.02024 14.4403 3.51362C14.4614 5.02803 13.2204 6.24798 11.727 6.24798Z" fill="#50E6FF"/>
<path d="M19.9086 6.24798C18.3942 6.24798 17.1953 5.02803 17.1953 3.53465C17.1953 2.04127 18.3942 0.800293 19.9086 0.800293C21.4231 0.800293 22.622 2.02024 22.622 3.51362C22.622 5.007 21.4231 6.24798 19.9086 6.24798Z" fill="#50E6FF"/>
<path d="M28.1538 6.24798C26.6393 6.24798 25.4404 5.02803 25.4404 3.53465C25.4404 2.04127 26.6393 0.800293 28.1538 0.800293C29.6682 0.800293 30.8671 2.02024 30.8671 3.51362C30.8671 5.007 29.6471 6.24798 28.1538 6.24798Z" fill="#50E6FF"/>
<path d="M36.2944 6.24798C34.78 6.24798 33.5811 5.02803 33.5811 3.53465C33.5811 2.04127 34.78 0.800293 36.2944 0.800293C37.8088 0.800293 39.0077 2.02024 39.0077 3.51362C39.0077 5.007 37.7878 6.24798 36.2944 6.24798Z" fill="#50E6FF"/>
<path d="M44.476 6.24798C42.9616 6.24798 41.7627 5.02803 41.7627 3.53465C41.7627 2.04127 42.9826 0.800293 44.476 0.800293C45.9694 0.800293 47.1893 2.02024 47.1893 3.51362C47.2104 5.02803 45.9904 6.24798 44.476 6.24798Z" fill="#50E6FF"/>
<path d="M3.56587 14.4091C2.05145 14.4091 0.852539 13.1891 0.852539 11.6957C0.852539 10.2024 2.07248 8.98242 3.56587 8.98242C5.08028 8.98242 6.27919 10.2024 6.27919 11.6957C6.27919 13.1891 5.05925 14.4091 3.56587 14.4091Z" fill="#50E6FF"/>
<path d="M44.476 14.4091C42.9616 14.4091 41.7627 13.1891 41.7627 11.6957C41.7627 10.2024 42.9826 8.98242 44.476 8.98242C45.9904 8.98242 47.1893 10.2024 47.1893 11.6957C47.2104 13.1891 45.9904 14.4091 44.476 14.4091Z" fill="#50E6FF"/>
<path d="M3.52387 22.6962C2.03049 22.6962 0.810547 21.4763 0.810547 19.9829C0.810547 18.4685 2.03049 17.2485 3.52387 17.2485C5.03829 17.2485 6.2372 18.4685 6.2372 19.9619C6.25823 21.4763 5.01726 22.6962 3.52387 22.6962Z" fill="#50E6FF"/>
<path d="M19.8881 22.6962C18.3737 22.6962 17.1748 21.4762 17.1748 19.9829C17.1748 18.4895 18.3947 17.2695 19.8881 17.2695C21.3815 17.2695 22.6015 18.4895 22.6015 19.9829C22.6225 21.4762 21.4025 22.6962 19.8881 22.6962Z" fill="#50E6FF"/>
<path d="M28.1538 22.6962C26.6393 22.6962 25.4404 21.4762 25.4404 19.9829C25.4404 18.4895 26.6604 17.2695 28.1538 17.2695C29.6682 17.2695 30.8671 18.4895 30.8671 19.9829C30.8671 21.4762 29.6471 22.6962 28.1538 22.6962Z" fill="#50E6FF"/>
<path d="M44.476 22.6122C42.9616 22.6122 41.7627 21.3923 41.7627 19.8989C41.7627 18.4055 42.9826 17.1855 44.476 17.1855C45.9904 17.1855 47.1893 18.4055 47.1893 19.8989C47.2104 21.3923 45.9904 22.6122 44.476 22.6122Z" fill="#50E6FF"/>
<path d="M41.7422 28.123C41.7422 26.6086 42.9621 25.4097 44.4555 25.4097C45.9489 25.4097 47.1688 26.6296 47.1688 28.123C47.1688 29.6374 45.9489 30.8363 44.4555 30.8363C42.9621 30.8363 41.7422 29.6164 41.7422 28.123Z" fill="#50E6FF"/>
<path d="M41.7422 36.2416C41.7422 34.7272 42.9621 33.5283 44.4555 33.5283C45.9489 33.5283 47.1688 34.7483 47.1688 36.2416C47.1688 37.7561 45.9489 38.955 44.4555 38.955C42.9621 38.955 41.7422 37.7561 41.7422 36.2416Z" fill="#50E6FF"/>
<path d="M41.7422 44.4448C41.7422 42.9304 42.9621 41.7314 44.4555 41.7314C45.9489 41.7314 47.1688 42.9514 47.1688 44.4448C47.1688 45.9382 45.9489 47.1581 44.4555 47.1581C42.9621 47.1791 41.7422 45.9592 41.7422 44.4448Z" fill="#50E6FF"/>
<path d="M33.5811 44.4448C33.5811 42.9304 34.801 41.7314 36.2944 41.7314C37.7878 41.7314 39.0077 42.9514 39.0077 44.4448C39.0077 45.9592 37.7878 47.1581 36.2944 47.1581C34.801 47.1791 33.5811 45.9592 33.5811 44.4448Z" fill="#50E6FF"/>
<path d="M25.3779 44.4448C25.3779 42.9304 26.5979 41.7314 28.0913 41.7314C29.5846 41.7314 30.8046 42.9514 30.8046 44.4448C30.8046 45.9592 29.5846 47.1581 28.0913 47.1581C26.5979 47.1791 25.3779 45.9592 25.3779 44.4448Z" fill="#50E6FF"/>
<path d="M3.62934 30.8573C2.11493 30.8573 0.916016 29.6374 0.916016 28.144C0.916016 26.6506 2.13596 25.4307 3.62934 25.4307C5.14376 25.4307 6.34267 26.6506 6.34267 28.144C6.34267 29.6374 5.12272 30.8573 3.62934 30.8573Z" fill="#50E6FF"/>
<path d="M19.9936 30.8573C18.4792 30.8573 17.2803 29.6374 17.2803 28.144C17.2803 26.6506 18.5002 25.4307 19.9936 25.4307C21.487 25.4307 22.7069 26.6506 22.7069 28.144C22.7069 29.6374 21.487 30.8573 19.9936 30.8573Z" fill="#50E6FF"/>
<path d="M28.154 25.4307C29.6684 25.4307 30.8674 26.6506 30.8674 28.144C30.8674 29.6374 29.6474 30.8573 28.154 30.8573C26.6606 30.8573 25.4407 29.6374 25.4407 28.144C25.4197 26.6506 26.6396 25.4307 28.154 25.4307Z" fill="#50E6FF"/>
<path d="M3.62934 39.0394C2.11493 39.0394 0.916016 37.8195 0.916016 36.3261C0.916016 34.8117 2.13596 33.6128 3.62934 33.6128C5.14376 33.6128 6.34267 34.8327 6.34267 36.3261C6.34267 37.8195 5.12272 39.0394 3.62934 39.0394Z" fill="#50E6FF"/>
<path d="M3.62934 47.2006C2.11493 47.2006 0.916016 45.9806 0.916016 44.4873C0.916016 42.9728 2.13596 41.7739 3.62934 41.7739C5.14376 41.7739 6.34267 42.9939 6.34267 44.4873C6.34267 45.9806 5.12272 47.2006 3.62934 47.2006Z" fill="#50E6FF"/>
<path d="M11.7905 47.2006C10.2761 47.2006 9.07715 45.9806 9.07715 44.4873C9.07715 42.9728 10.2971 41.7739 11.7905 41.7739C13.2839 41.7739 14.5038 42.9939 14.5038 44.4873C14.5038 45.9806 13.2839 47.2006 11.7905 47.2006Z" fill="#50E6FF"/>
<path d="M19.9936 47.2006C18.4792 47.2006 17.2803 45.9806 17.2803 44.4873C17.2803 42.9728 18.5002 41.7739 19.9936 41.7739C21.487 41.7739 22.7069 42.9939 22.7069 44.4873C22.7069 45.9806 21.487 47.2006 19.9936 47.2006Z" fill="#50E6FF"/>
<path d="M11.748 19.8984H9.05566V8.93994H19.909V11.7164H11.748V19.8984Z" fill="#0078D4"/>
<path d="M19.9507 36.347V39.0393H8.99219V28.186H11.7476V36.347H19.9507Z" fill="#0078D4"/>
<path d="M28.1123 11.7167V9.00342H39.0077V19.9198H36.2312V11.7167H28.1123Z" fill="#0078D4"/>
<path d="M36.2518 28.0806H38.9441V39.039H28.0908V36.2626H36.2518V28.0806Z" fill="#0078D4"/>
</svg>
