<svg data-slug-id="charts38" viewBox="0 0 49 49" xmlns="http://www.w3.org/2000/svg">
<path d="M10.6327 23.9996L9.87451 22.9887L19.9917 15.4071L33.1753 10.0747L41.0602 17.9259L40.1757 18.8188L32.8721 11.5573L20.6151 16.5191L10.6327 23.9996Z" fill="#50E6FF"/>
<path d="M33.0238 13.344C34.4195 13.344 35.551 12.2125 35.551 10.8168C35.551 9.42102 34.4195 8.28955 33.0238 8.28955C31.628 8.28955 30.4966 9.42102 30.4966 10.8168C30.4966 12.2125 31.628 13.344 33.0238 13.344Z" fill="#0078D4"/>
<path d="M40.6141 20.8986C42.0099 20.8986 43.1413 19.7672 43.1413 18.3714C43.1413 16.9757 42.0099 15.8442 40.6141 15.8442C39.2184 15.8442 38.0869 16.9757 38.0869 18.3714C38.0869 19.7672 39.2184 20.8986 40.6141 20.8986Z" fill="#0078D4"/>
<path d="M20.3963 18.4572C21.7921 18.4572 22.9235 17.3258 22.9235 15.93C22.9235 14.5343 21.7921 13.4028 20.3963 13.4028C19.0006 13.4028 17.8691 14.5343 17.8691 15.93C17.8691 17.3258 19.0006 18.4572 20.3963 18.4572Z" fill="#0078D4"/>
<path d="M10.2538 26.0217C11.6495 26.0217 12.781 24.8902 12.781 23.4945C12.781 22.0988 11.6495 20.9673 10.2538 20.9673C8.85803 20.9673 7.72656 22.0988 7.72656 23.4945C7.72656 24.8902 8.85803 26.0217 10.2538 26.0217Z" fill="#0078D4"/>
<path d="M10.6327 36.6363L9.87451 35.6254L19.9917 28.0438L33.1753 22.7114L41.0602 30.5626L40.1757 31.4555L32.8721 24.1941L20.6151 29.1558L10.6327 36.6363Z" fill="#50E6FF"/>
<path d="M33.0238 25.9787C34.4195 25.9787 35.551 24.8473 35.551 23.4515C35.551 22.0558 34.4195 20.9243 33.0238 20.9243C31.628 20.9243 30.4966 22.0558 30.4966 23.4515C30.4966 24.8473 31.628 25.9787 33.0238 25.9787Z" fill="#0078D4"/>
<path d="M40.6141 33.5354C42.0099 33.5354 43.1413 32.4039 43.1413 31.0082C43.1413 29.6124 42.0099 28.481 40.6141 28.481C39.2184 28.481 38.0869 29.6124 38.0869 31.0082C38.0869 32.4039 39.2184 33.5354 40.6141 33.5354Z" fill="#0078D4"/>
<path d="M20.3963 31.092C21.7921 31.092 22.9235 29.9605 22.9235 28.5648C22.9235 27.1691 21.7921 26.0376 20.3963 26.0376C19.0006 26.0376 17.8691 27.1691 17.8691 28.5648C17.8691 29.9605 19.0006 31.092 20.3963 31.092Z" fill="#0078D4"/>
<path d="M10.2538 38.6565C11.6495 38.6565 12.781 37.525 12.781 36.1293C12.781 34.7335 11.6495 33.6021 10.2538 33.6021C8.85803 33.6021 7.72656 34.7335 7.72656 36.1293C7.72656 37.525 8.85803 38.6565 10.2538 38.6565Z" fill="#0078D4"/>
<path d="M5.21641 3.24268H2.67236V46.2472H5.21641V3.24268Z" fill="#0078D4"/>
<path d="M45.7202 46.2633V43.7192L2.68195 43.7192V46.2633L45.7202 46.2633Z" fill="#0078D4"/>
<path d="M20.5021 7.79852C17.8067 7.63205 15.4859 9.68354 15.3195 12.3789C15.153 15.0742 20.1814 21.7428 20.1814 21.7428C20.1814 21.7428 24.916 15.6764 25.0824 12.9787C25.2489 10.2858 23.1974 7.96499 20.5021 7.79852Z" fill="#0078D4"/>
<path d="M23.1458 12.8438C23.0454 14.4693 21.6475 15.7056 20.022 15.6052C18.3965 15.5049 17.1602 14.107 17.2606 12.4815C17.361 10.856 18.7588 9.61969 20.3843 9.72006C22.0099 9.82043 23.2461 11.2183 23.1458 12.8438Z" fill="#50E6FF"/>
</svg>
