<svg data-slug-id="charts07" viewBox="0 0 48 49" xmlns="http://www.w3.org/2000/svg">
<path d="M35.369 10.8714C38.1595 10.8714 40.4217 8.60924 40.4217 5.81875C40.4217 3.02825 38.1595 0.766113 35.369 0.766113C32.5785 0.766113 30.3164 3.02825 30.3164 5.81875C30.3164 8.60924 32.5785 10.8714 35.369 10.8714Z" fill="#50E6FF"/>
<path d="M30.3168 25.263C32.4097 25.263 34.1063 23.5664 34.1063 21.4736C34.1063 19.3807 32.4097 17.6841 30.3168 17.6841C28.2239 17.6841 26.5273 19.3807 26.5273 21.4736C26.5273 23.5664 28.2239 25.263 30.3168 25.263Z" fill="#0078D4"/>
<path d="M17.1372 38.0282C18.1836 38.0282 19.0319 37.1799 19.0319 36.1335C19.0319 35.0871 18.1836 34.2388 17.1372 34.2388C16.0907 34.2388 15.2424 35.0871 15.2424 36.1335C15.2424 37.1799 16.0907 38.0282 17.1372 38.0282Z" fill="#0078D4"/>
<path d="M23.5791 33.8617C24.9743 33.8617 26.1054 32.7306 26.1054 31.3354C26.1054 29.9402 24.9743 28.8091 23.5791 28.8091C22.1838 28.8091 21.0527 29.9402 21.0527 31.3354C21.0527 32.7306 22.1838 33.8617 23.5791 33.8617Z" fill="#0078D4"/>
<path d="M11.0912 40.6242C11.7887 40.6242 12.3542 40.0587 12.3542 39.3612C12.3542 38.6636 11.7887 38.0981 11.0912 38.0981C10.3936 38.0981 9.82812 38.6636 9.82812 39.3612C9.82812 40.0587 10.3936 40.6242 11.0912 40.6242Z" fill="#0078D4"/>
<path d="M5.38803 42.1164C6.08558 42.1164 6.65106 41.5509 6.65106 40.8534C6.65106 40.1558 6.08558 39.5903 5.38803 39.5903C4.69048 39.5903 4.125 40.1558 4.125 40.8534C4.125 41.5509 4.69048 42.1164 5.38803 42.1164Z" fill="#0078D4"/>
<path d="M42.9474 0.766113C42.9474 24.4882 23.7221 43.7135 0 43.7135V48.7661H48V0.766113H42.9474Z" fill="#0078D4"/>
</svg>
