<svg data-slug-id="charts15" viewBox="0 0 48 49" xmlns="http://www.w3.org/2000/svg">
<path d="M44.8873 43.6639H3.07031C1.42152 43.6639 0.0839844 42.3277 0.0839844 40.6807V8.82353C0.0839844 7.17647 1.42152 5.84033 3.07031 5.84033H44.8873C46.5361 5.84033 47.8737 7.17647 47.8737 8.82353V40.6807C47.8737 42.3277 46.5361 43.6639 44.8873 43.6639Z" fill="#0078D4"/>
<path d="M15.1169 25.1281L19.5081 29.1785L26.3725 22.3046L30.301 25.96L42.9697 12.313V36.1029H4.99707L15.1169 25.1281Z" fill="#50E6FF"/>
<path d="M29.7036 39.2376H18.2798C17.9349 39.2376 17.6489 38.9518 17.6489 38.6073C17.6489 38.2628 17.9349 37.9771 18.2798 37.9771H29.7036C30.0485 37.9771 30.3345 38.2628 30.3345 38.6073C30.3345 38.9518 30.0485 39.2376 29.7036 39.2376Z" fill="white"/>
</svg>
