<svg data-slug-id="charts22" viewBox="0 0 49 49" xmlns="http://www.w3.org/2000/svg">
<path d="M31.51 38.6724H30.3734H19.1671H18.5861C20.1437 44.1667 18.0557 44.9505 8.91211 44.9505V47.8241H20.5394H29.0263H39.9969V44.9505C30.8533 44.9589 29.9608 44.1752 31.51 38.6724Z" fill="#50E6FF"/>
<path d="M8.90381 47.8311H39.997V44.9575H8.90381V47.8311Z" fill="#0078D4"/>
<path d="M48.5005 3.28564H0.500977V38.7463H48.5005V3.28564Z" fill="#0078D4"/>
<path d="M45.916 5.8208H3.04395V36.1495H45.916V5.8208Z" fill="#50E6FF"/>
<path d="M15.5633 20.0474H10.6211V31.0783H15.5633V20.0474Z" fill="#0078D4"/>
<path d="M23.2505 15.9341H18.1904V31.0773H23.2505V15.9341Z" fill="#0078D4"/>
<path d="M30.8287 10.8052H25.7686V31.0805H30.8287V10.8052Z" fill="#0078D4"/>
<path d="M38.3885 15.9844H33.2778V31.0855H38.3885V15.9844Z" fill="#0078D4"/>
</svg>
