<svg data-slug-id="charts18" viewBox="0 0 48 49" xmlns="http://www.w3.org/2000/svg">
<path d="M5.05262 0.789551H0V5.83936H5.05262V0.789551Z" fill="#0078D4"/>
<path d="M5.05262 7.94531H0V12.9951H5.05262V7.94531Z" fill="#0078D4"/>
<path d="M40.5062 7.94531H35.4536V12.9951H40.5062V7.94531Z" fill="#0078D4"/>
<path d="M47.9999 7.94531H42.9473V12.9951H47.9999V7.94531Z" fill="#50E6FF"/>
<path d="M47.9999 0.766113H42.9473V5.81592H47.9999V0.766113Z" fill="#50E6FF"/>
<path d="M5.05262 15.1016H0V20.1514H5.05262V15.1016Z" fill="#0078D4"/>
<path d="M40.5062 15.1016H35.4536V20.1514H40.5062V15.1016Z" fill="#0078D4"/>
<path d="M47.9999 15.1016H42.9473V20.1514H47.9999V15.1016Z" fill="#50E6FF"/>
<path d="M5.05262 22.2539H0V27.3037H5.05262V22.2539Z" fill="#0078D4"/>
<path d="M12.6307 22.2539H7.57812V27.3037H12.6307V22.2539Z" fill="#50E6FF"/>
<path d="M40.5062 22.2539H35.4536V27.3037H40.5062V22.2539Z" fill="#0078D4"/>
<path d="M47.9999 22.2539H42.9473V27.3037H47.9999V22.2539Z" fill="#50E6FF"/>
<path d="M5.05262 29.4062H0V34.4561H5.05262V29.4062Z" fill="#0078D4"/>
<path d="M12.6307 29.4062H7.57812V34.4561H12.6307V29.4062Z" fill="#50E6FF"/>
<path d="M40.5062 29.4062H35.4536V34.4561H40.5062V29.4062Z" fill="#0078D4"/>
<path d="M47.9999 29.4062H42.9473V34.4561H47.9999V29.4062Z" fill="#50E6FF"/>
<path d="M5.05262 36.562H0V41.6118H5.05262V36.562Z" fill="#0078D4"/>
<path d="M12.6307 36.562H7.57812V41.6118H12.6307V36.562Z" fill="#50E6FF"/>
<path d="M40.5062 36.562H35.4536V41.6118H40.5062V36.562Z" fill="#0078D4"/>
<path d="M47.9999 36.562H42.9473V41.6118H47.9999V36.562Z" fill="#50E6FF"/>
<path d="M5.05262 43.7144H0V48.7642H5.05262V43.7144Z" fill="#0078D4"/>
<path d="M12.6307 43.7144H7.57812V48.7642H12.6307V43.7144Z" fill="#50E6FF"/>
<path d="M40.5062 43.7144H35.4536V48.7642H40.5062V43.7144Z" fill="#0078D4"/>
<path d="M47.9999 43.7144H42.9473V48.7642H47.9999V43.7144Z" fill="#50E6FF"/>
<path d="M30.3331 31.1052L25.2552 26.0386V28.5971H17.6763V33.6638H25.2552V36.1803L30.3331 31.1052Z" fill="#0078D4"/>
<path d="M30.3331 18.4149L25.2552 13.3398V15.9068H17.6763V20.9735H25.2552V23.49L30.3331 18.4149Z" fill="#0078D4"/>
<path d="M30.3331 43.6907L25.2552 38.624V41.1826H17.6763V46.2492H25.2552V48.7657L30.3331 43.6907Z" fill="#0078D4"/>
</svg>
