<svg data-slug-id="charts20" viewBox="0 0 48 49" xmlns="http://www.w3.org/2000/svg">
<path d="M10.1535 28.7036H0.150391V48.7661H10.1535V28.7036Z" fill="#50E6FF"/>
<path d="M47.8493 13.688H37.8462V48.7576H47.8493V13.688Z" fill="#0078D4"/>
<path d="M22.7663 23.6685H12.7632V48.7612H22.7663V23.6685Z" fill="#50E6FF"/>
<path d="M35.3034 11.1919H25.3003V48.7599H35.3034V11.1919Z" fill="#0078D4"/>
<path d="M13.6747 13.1646L11.6758 15.1616L18.2163 21.6959L20.2153 19.6988L13.6747 13.1646Z" fill="#0078D4"/>
<path d="M9.5934 3.08643C5.65403 3.08643 2.45068 6.27837 2.45068 10.2223C2.45068 14.1663 5.64567 17.3583 9.5934 17.3583C13.5411 17.3583 16.7361 14.1663 16.7361 10.2223C16.7361 6.27837 13.5411 3.08643 9.5934 3.08643ZM9.5934 14.5173C7.21807 14.5173 5.30275 12.5954 5.30275 10.2307C5.30275 7.85763 7.22643 5.94414 9.5934 5.94414C11.9604 5.94414 13.884 7.86599 13.884 10.2307C13.884 12.5954 11.9687 14.5173 9.5934 14.5173Z" fill="#0078D4"/>
</svg>
