<svg data-slug-id="charts01" viewBox="0 0 48 49" xmlns="http://www.w3.org/2000/svg">
<path d="M0 48.6172H15.2183V33.3989H0V48.6172Z" fill="#0078D4"/>
<path d="M17.2998 20.6525V28.7855C17.2998 30.7315 18.8965 32.3282 20.8424 32.3282H28.9755C30.9214 32.3282 32.5181 30.7315 32.5181 28.7855V20.6525C32.5181 18.7065 30.9214 17.1099 28.9755 17.1099H20.8923C18.8965 17.1099 17.2998 18.6566 17.2998 20.6525Z" fill="#0078D4"/>
<path d="M32.7317 8.25052C32.7317 12.3919 36.0747 15.7349 40.2161 15.7349H40.3159C44.4573 15.7349 47.8003 12.3919 47.8003 8.25052C47.8003 4.10915 44.4573 0.766113 40.3159 0.766113H40.2161C36.0747 0.766113 32.7317 4.10915 32.7317 8.25052Z" fill="#50E6FF"/>
</svg>
