<svg data-slug-id="charts14" viewBox="0 0 48 49" xmlns="http://www.w3.org/2000/svg">
<path d="M5.05265 26.0278L0 31.0805V36.1331L7.57898 28.5542L5.05265 26.0278Z" fill="#50E6FF"/>
<path d="M22.7381 38.6603V18.4497L12.6328 28.555L22.7381 38.6603Z" fill="#50E6FF"/>
<path d="M30.3144 26.031L25.2617 20.9783V36.1363L42.946 18.452L47.9987 23.5046V8.31299L30.3144 26.031Z" fill="#50E6FF"/>
<path d="M25.2617 36.134V48.7656H47.9987V23.5024L42.946 18.4497L25.2617 36.134Z" fill="#0078D4"/>
<path d="M22.7369 38.6595L10.1053 26.0278L0 36.1331V48.7648H22.7369V38.6595Z" fill="#0078D4"/>
<path d="M23.999 16.7367C25.3942 16.7367 26.5253 15.6057 26.5253 14.2104C26.5253 12.8152 25.3942 11.6841 23.999 11.6841C22.6037 11.6841 21.4727 12.8152 21.4727 14.2104C21.4727 15.6057 22.6037 16.7367 23.999 16.7367Z" fill="#50E6FF"/>
</svg>
