<svg data-slug-id="charts03" viewBox="0 0 48 49" xmlns="http://www.w3.org/2000/svg">
<g clip-path="url(#charts03_clip0)">
<path d="M24.0141 0.766113C10.7513 0.766113 0 11.5174 0 24.7802C0 38.043 10.7513 48.7943 24.0141 48.7943C37.2769 48.7943 48.0282 38.043 48.0282 24.7802C48 11.5174 37.2769 0.766113 24.0141 0.766113ZM24.0141 35.983C17.8342 35.983 12.8113 30.9601 12.8113 24.7802C12.8113 18.6003 17.8342 13.5774 24.0141 13.5774C30.194 13.5774 35.2169 18.6003 35.2169 24.7802C35.2169 30.9601 30.194 35.983 24.0141 35.983Z" fill="#0078D4"/>
<path d="M23.9859 13.5774L23.9295 0.766113C15.4921 0.794332 8.07059 5.16823 3.80957 11.7996L14.3351 19.1647C16.254 15.8349 19.866 13.5774 23.9859 13.5774Z" fill="#50E6FF"/>
<path d="M12.8113 24.7799C12.8113 22.7482 13.3474 20.8293 14.3069 19.1926L3.80952 11.7993L3.75309 11.884C1.38272 15.6088 0 20.011 0 24.7799C0 28.3073 0.761905 31.6653 2.14462 34.6847L13.8554 29.5207C13.1781 28.0815 12.8113 26.473 12.8113 24.7799Z" fill="#3BCAF4"/>
</g>
<defs>
<clipPath id="charts03_clip0">
<path d="M0 0.766113H48V48.7661H0V0.766113Z" fill="white"/>
</clipPath>
</defs>
</svg>
