<svg data-slug-id="charts27" viewBox="0 0 49 49" xmlns="http://www.w3.org/2000/svg">
<path d="M7.96706 0.781738H5.41943V48.7311H7.96706V0.781738Z" fill="#0078D4"/>
<path d="M43.4573 0.781738H40.9097V48.7311H43.4573V0.781738Z" fill="#0078D4"/>
<path d="M25.7415 0.781738H23.1938V48.7311H25.7415V0.781738Z" fill="#0078D4"/>
<path d="M24.4675 44.8677C27.9292 44.8677 30.7354 42.0615 30.7354 38.5999C30.7354 35.1382 27.9292 32.332 24.4675 32.332C21.0059 32.332 18.1997 35.1382 18.1997 38.5999C18.1997 42.0615 21.0059 44.8677 24.4675 44.8677Z" fill="#50E6FF"/>
<path d="M6.82009 18.3409C10.2817 18.3409 13.0879 15.5346 13.0879 12.073C13.0879 8.61138 10.2817 5.80518 6.82009 5.80518C3.35845 5.80518 0.552246 8.61138 0.552246 12.073C0.552246 15.5346 3.35845 18.3409 6.82009 18.3409Z" fill="#50E6FF"/>
<path d="M42.1492 18.3409C45.6108 18.3409 48.417 15.5346 48.417 12.073C48.417 8.61138 45.6108 5.80518 42.1492 5.80518C38.6876 5.80518 35.8813 8.61138 35.8813 12.073C35.8813 15.5346 38.6876 18.3409 42.1492 18.3409Z" fill="#50E6FF"/>
</svg>
