<svg data-slug-id="charts39" viewBox="0 0 48 49" xmlns="http://www.w3.org/2000/svg">
<path d="M7.37202 27.5286L6.7832 26.7382L14.6797 20.8178L24.9719 16.6558L31.1262 22.7859L30.4325 23.4795L24.7299 17.8173L15.1637 21.6889L7.37202 27.5286Z" fill="#50E6FF"/>
<path d="M24.8512 19.2126C25.9401 19.2126 26.8273 18.3334 26.8273 17.2364C26.8273 16.1475 25.9481 15.2603 24.8512 15.2603C23.7623 15.2603 22.875 16.1394 22.875 17.2364C22.8831 18.3253 23.7623 19.2126 24.8512 19.2126Z" fill="#0078D4"/>
<path d="M30.7794 25.109C31.8683 25.109 32.7555 24.2299 32.7555 23.1329C32.7555 22.044 31.8763 21.1567 30.7794 21.1567C29.6905 21.1567 28.8032 22.0359 28.8032 23.1329C28.8032 24.2218 29.6824 25.109 30.7794 25.109Z" fill="#0078D4"/>
<path d="M14.9942 23.2052C16.0831 23.2052 16.9704 22.326 16.9704 21.2291C16.9704 20.1402 16.0912 19.2529 14.9942 19.2529C13.9053 19.2529 13.0181 20.1321 13.0181 21.2291C13.0261 22.318 13.9053 23.2052 14.9942 23.2052Z" fill="#0078D4"/>
<path d="M7.08162 29.1095C8.17052 29.1095 9.05777 28.2303 9.05777 27.1334C9.05777 26.0445 8.17859 25.1572 7.08162 25.1572C5.99272 25.1572 5.10547 26.0364 5.10547 27.1334C5.10547 28.2223 5.99272 29.1095 7.08162 29.1095Z" fill="#0078D4"/>
<path d="M7.37202 37.3934L6.7832 36.6029L14.6797 30.6825L24.9719 26.5205L31.1262 32.6506L30.4325 33.3443L24.7299 27.6739L15.1637 31.5456L7.37202 37.3934Z" fill="#50E6FF"/>
<path d="M24.8512 29.0695C25.9401 29.0695 26.8273 28.1903 26.8273 27.0933C26.8273 26.0044 25.9481 25.1172 24.8512 25.1172C23.7623 25.1172 22.875 25.9964 22.875 27.0933C22.8831 28.1903 23.7623 29.0695 24.8512 29.0695Z" fill="#0078D4"/>
<path d="M30.7794 34.9738C31.8683 34.9738 32.7555 34.0946 32.7555 32.9976C32.7555 31.9087 31.8763 31.0215 30.7794 31.0215C29.6905 31.0215 28.8032 31.9007 28.8032 32.9976C28.8032 34.0865 29.6824 34.9738 30.7794 34.9738Z" fill="#0078D4"/>
<path d="M14.9942 33.0617C16.0831 33.0617 16.9704 32.1825 16.9704 31.0855C16.9704 29.9966 16.0912 29.1094 14.9942 29.1094C13.9053 29.1094 13.0181 29.9886 13.0181 31.0855C13.0261 32.1825 13.9053 33.0617 14.9942 33.0617Z" fill="#0078D4"/>
<path d="M7.08162 38.966C8.17052 38.966 9.05777 38.0868 9.05777 36.9898C9.05777 35.9009 8.17859 35.0137 7.08162 35.0137C5.99272 35.0137 5.10547 35.8929 5.10547 36.9898C5.10547 38.0868 5.99272 38.966 7.08162 38.966Z" fill="#0078D4"/>
<path d="M3.14554 45.1769V11.3242H1V47.637H1.00807V47.6451H34.9253V45.1769H3.14554Z" fill="#0078D4"/>
<path d="M1.08887 9.00125H47.0001V1.76611H1.08887V9.00125Z" fill="#0078D4"/>
<path d="M7.2271 7.50892L5.52519 5.79894C5.77523 5.4763 5.92042 5.07301 5.92042 4.63745C5.92042 3.58888 5.06543 2.73389 4.00879 2.73389C2.95216 2.73389 2.09717 3.58888 2.09717 4.63745C2.09717 5.69408 2.95216 6.54101 4.00879 6.54101C4.42822 6.54101 4.82345 6.40388 5.13802 6.16997L6.848 7.87995L7.2271 7.50892ZM2.64565 4.63745C2.64565 3.88731 3.25866 3.2743 4.00879 3.2743C4.75892 3.2743 5.37194 3.87925 5.37194 4.63745C5.37194 5.38758 4.75892 6.00059 4.00879 6.00059C3.25866 6.00059 2.64565 5.38758 2.64565 4.63745Z" fill="white"/>
<path d="M47.0002 11.3726H37.3291V18.7529H47.0002V11.3726Z" fill="#0078D4"/>
<path d="M46.984 38.0142H37.3291V47.6691H46.976V38.0142H46.984Z" fill="#50E6FF"/>
<path d="M46.9921 21.0762H37.3291V23.4234H46.9921V21.0762Z" fill="#0078D4"/>
<path d="M46.9921 24.7217H37.3291V27.0689H46.9921V24.7217Z" fill="#0078D4"/>
<path d="M46.9921 33.167H37.3291V35.5948H46.9921V33.167Z" fill="#0078D4"/>
<path d="M46.9921 28.416H37.3291V30.7632H46.9921V28.416Z" fill="#50E6FF"/>
</svg>
