<svg data-slug-id="charts21" viewBox="0 0 49 49" xmlns="http://www.w3.org/2000/svg">
<path d="M25.2588 10.8402C29.433 11.0282 33.2208 12.7304 36.1049 15.4205L40.9394 10.4985C38.744 8.3838 36.3196 6.75644 33.7218 5.66377C31.1239 4.57109 28.2802 3.96987 25.2588 3.88672V10.8402Z" fill="#50E6FF"/>
<path d="M11.7917 40.1675L6.99181 45.0487C6.9657 45.0205 6.93876 44.9922 6.91349 44.9656C4.87985 42.7511 3.30851 40.3122 2.24663 37.7011C1.17465 35.0567 0.585186 32.1629 0.500977 29.0869H7.28991C7.44881 33.1787 9.03708 37.0901 11.785 40.1567L11.7917 40.1675Z" fill="#0078D4"/>
<path d="M7.29159 27.5469C7.45921 23.4557 9.05583 19.5478 11.8102 16.4872L6.99602 11.5859C4.91858 13.8212 3.31861 16.2909 2.24663 18.9344C1.17465 21.578 0.585186 24.4718 0.500977 27.5486L7.29159 27.5469Z" fill="#0078D4"/>
<path d="M12.8805 15.4014C15.7689 12.7137 19.5633 11.0174 23.7435 10.8386V3.88672C20.7246 3.96987 17.8817 4.57109 15.2838 5.66377C12.686 6.75644 10.2608 8.3838 8.06543 10.4985L12.8805 15.4014Z" fill="#0078D4"/>
<path d="M43.4485 26.5681V30.5247H48.5011V23.0406V18.0513H43.4485H35.8697V23.0406H39.8755L29.8791 32.9129L24.5015 27.6026L24.4998 27.6009L13.4541 38.5093L13.4549 38.511L17.0262 42.0377L24.4998 34.6576L29.8791 39.9687L43.4485 26.5681Z" fill="#0078D4"/>
</svg>
