<svg data-slug-id="charts56" viewBox="0 0 49 48" xmlns="http://www.w3.org/2000/svg">
<g clip-path="url(#charts56_clip0)">
<path d="M10.6052 12.6323H0.5V48H10.6052V12.6323Z" fill="#0078D4"/>
<path d="M23.2363 0.000488281H13.1311V47.9995H23.2363V0.000488281Z" fill="#0078D4"/>
<path d="M35.8687 12.6323H25.7634V48H35.8687V12.6323Z" fill="#0078D4"/>
<path d="M48.4998 30.3159H38.3945V47.9998H48.4998V30.3159Z" fill="#0078D4"/>
<path d="M13.1311 48C13.1311 44.985 14.3288 42.0934 16.4608 39.9615C18.5928 37.8296 21.4844 36.6318 24.4995 36.6318C27.5146 36.6318 30.4061 37.8296 32.5381 39.9615C34.6701 42.0934 35.8679 44.985 35.8679 48H13.1311Z" fill="#50E6FF"/>
<path d="M24.4996 35.3663C27.2901 35.3663 29.5522 33.1042 29.5522 30.3138C29.5522 27.5233 27.2901 25.2612 24.4996 25.2612C21.7092 25.2612 19.447 27.5233 19.447 30.3138C19.447 33.1042 21.7092 35.3663 24.4996 35.3663Z" fill="#50E6FF"/>
</g>
<defs>
<clipPath id="charts56_clip0">
<rect width="48" height="48" fill="white" transform="translate(0.5)"/>
</clipPath>
</defs>
</svg>
