<svg data-slug-id="charts02" viewBox="0 0 48 48" xmlns="http://www.w3.org/2000/svg">
<path d="M36.2449 31.0311L33.7259 22.0485H28.688C27.9883 22.0485 27.2886 21.634 27.1487 20.943L25.1895 12.2368L18.1924 38.6318C18.0525 39.1845 17.6327 39.5991 17.0729 39.7373C16.9329 39.7373 16.793 39.7373 16.6531 39.7373C16.2332 39.7373 15.8134 39.5991 15.5335 39.1845L9.37609 32.5513L6.7172 35.3151C6.43732 35.5915 6.01749 35.7297 5.59767 35.7297H0V47.8907H47.8601V32.1367H37.7843C37.0845 32.1367 36.5248 31.7221 36.2449 31.0311Z" fill="#0078D4"/>
<path d="M8.25656 29.3722C8.53644 29.0958 8.95627 28.9576 9.37609 28.9576C9.79592 28.9576 10.2157 29.0958 10.4956 29.5103L15.9534 35.3145L23.7901 5.74108C23.93 4.91192 24.4898 4.49734 25.1895 4.49734C25.8892 4.49734 26.449 5.05011 26.7289 5.60288L29.9475 19.0076H34.8455C35.5452 19.0076 36.105 19.4222 36.3848 20.1132L38.9038 29.0958H47.8601V0.766113H0V32.6888H4.89796L8.25656 29.3722Z" fill="#50E6FF"/>
<path d="M38.9038 29.0965L36.3848 20.1139C36.2449 19.4229 35.5452 19.0084 34.8455 19.0084H29.9475L26.7289 5.60359C26.5889 4.91263 25.8892 4.49805 25.1895 4.49805C24.4898 4.49805 23.93 4.91263 23.6501 5.60359L15.8134 35.177L10.3557 29.3729C10.0758 29.0965 9.65598 28.9583 9.23615 28.8201C8.81633 28.8201 8.3965 28.9583 8.11662 29.2347L4.75802 32.6895H0V35.7298H5.59767C6.01749 35.7298 6.43732 35.5916 6.7172 35.3152L9.37609 32.5513L15.5335 39.1846C15.8134 39.461 16.2332 39.7374 16.6531 39.7374C16.793 39.7374 16.9329 39.7374 17.0729 39.7374C17.6327 39.5992 18.0525 39.1846 18.1924 38.6318L25.1895 12.2369L27.2886 20.9431C27.4286 21.634 28.1283 22.0486 28.828 22.0486H33.8659L36.3848 31.0312C36.5248 31.7222 37.2245 32.1367 37.9242 32.1367H48V29.0965H38.9038Z" fill="white"/>
</svg>
