<svg data-slug-id="charts40" viewBox="0 0 48 49" xmlns="http://www.w3.org/2000/svg">
<path d="M30.8913 37.5503H29.7718H18.7428H18.1706C19.7047 42.957 17.6482 43.7282 8.65918 43.7282V46.5559H20.1028H28.4533H39.2501V43.7282C30.2444 43.7365 29.3654 42.9653 30.8913 37.5503Z" fill="#50E6FF"/>
<path d="M8.65039 46.5641H39.2413V43.7363H8.65039V46.5641Z" fill="#50E6FF"/>
<path d="M47.6171 2.72949H0.383301V37.6241H47.6171V2.72949Z" fill="#0078D4"/>
<path d="M31.5381 10.343H43.7446V7.66455H31.5381V10.343Z" fill="white"/>
<path d="M31.5381 14.3728H43.7446V11.686H31.5381V14.3728Z" fill="#50E6FF"/>
<path d="M31.5381 18.262H43.7446V15.5835H31.5381V18.262Z" fill="#50E6FF"/>
<path d="M31.5381 22.2341H43.7446V19.5557H31.5381V22.2341Z" fill="#50E6FF"/>
<path d="M31.5381 26.3391H43.587V23.6606H31.5381V26.3391Z" fill="#50E6FF"/>
<path d="M31.5381 30.22H38.313V27.5415H31.5381V30.22Z" fill="#50E6FF"/>
<path d="M16.4208 7.39062C9.62094 7.39062 4.11475 12.9051 4.11475 19.6966C4.11475 26.4882 9.62094 32.0026 16.4208 32.0026C23.2206 32.0026 28.7268 26.4882 28.7268 19.6966C28.7185 12.8968 23.2206 7.39062 16.4208 7.39062ZM16.4208 25.435C13.253 25.435 10.6741 22.8643 10.6741 19.6883C10.6741 16.5123 13.2447 13.9417 16.4208 13.9417C19.5968 13.9417 22.1674 16.5123 22.1674 19.6883C22.1674 22.8643 19.5885 25.435 16.4208 25.435Z" fill="white"/>
<path d="M16.4042 13.95L16.3793 7.38232C12.0506 7.39891 8.25269 9.63787 6.06348 13.0378L11.4619 16.8108C12.4404 15.1109 14.2979 13.95 16.4042 13.95Z" fill="#50E6FF"/>
<path d="M10.6824 19.6964C10.6824 18.6516 10.956 17.6731 11.4453 16.8356L6.06347 13.0459L6.0386 13.0874C4.8196 14.9946 4.11475 17.2502 4.11475 19.6964C4.11475 21.5042 4.50449 23.229 5.21764 24.7714L11.2214 22.1261C10.8648 21.3881 10.6824 20.5672 10.6824 19.6964Z" fill="#3BCAF4"/>
</svg>
