<svg data-slug-id="charts-rise" viewBox="0 0 48 48" xmlns="http://www.w3.org/2000/svg">
<path d="M24.7578 10.202C28.9321 10.3923 32.7198 12.1161 35.604 14.8403L40.4385 9.8559C38.2431 7.71445 35.8188 6.06647 33.2209 4.95996C30.623 3.85345 27.7793 3.24461 24.7578 3.1604V10.202Z" fill="#0078D4"/>
<path d="M11.2908 39.9011L6.49087 44.8442C6.46477 44.8156 6.43782 44.7869 6.41256 44.76C4.3789 42.5175 2.80755 40.0476 1.74566 37.4034C0.673677 34.7256 0.0842096 31.7951 0 28.6802H6.78898C6.94788 32.8238 8.53616 36.7847 11.2841 39.8902L11.2908 39.9011Z" fill="#50E6FF"/>
<path d="M6.79066 27.1205C6.95828 22.9774 8.55491 19.02 11.3093 15.9206L6.49508 10.9573C4.41763 13.2208 2.81765 15.7219 1.74566 18.3989C0.673676 21.0759 0.0842096 24.0064 0 27.1221L6.79066 27.1205Z" fill="#50E6FF"/>
<path d="M12.3795 14.8209C15.2679 12.0992 19.0623 10.3814 23.2425 10.2003V3.1604C20.2236 3.24461 17.3807 3.85345 14.7828 4.95996C12.185 6.06647 9.75972 7.71445 7.56438 9.8559L12.3795 14.8209Z" fill="#50E6FF"/>
<path d="M42.9478 26.1289V30.1356H48.0004V22.5567V17.5042H42.9478H35.3689V22.5567H39.3748L29.3783 32.5541L24.0006 27.1765L23.999 27.1748L12.9532 38.2214L12.954 38.2231L16.5254 41.7944L23.999 34.3208L29.3783 39.6993L42.9478 26.1289Z" fill="#50E6FF"/>
</svg>
