<svg data-slug-id="charts25" viewBox="0 0 50 50" xmlns="http://www.w3.org/2000/svg">
<path d="M0.394531 43.9968H49.0023V6.56885H0.394531V43.9968Z" fill="#0078D4"/>
<path d="M0.394531 10.8989H48.9852V5.8335H0.394531V10.8989Z" fill="#50E6FF"/>
<path d="M7.96698 9.70252C8.64989 9.70252 9.20349 9.14891 9.20349 8.466C9.20349 7.7831 8.64989 7.22949 7.96698 7.22949C7.28407 7.22949 6.73047 7.7831 6.73047 8.466C6.73047 9.14891 7.28407 9.70252 7.96698 9.70252Z" fill="#0078D4"/>
<path d="M4.12958 9.70252C4.81249 9.70252 5.36609 9.14891 5.36609 8.466C5.36609 7.7831 4.81249 7.22949 4.12958 7.22949C3.44667 7.22949 2.89307 7.7831 2.89307 8.466C2.89307 9.14891 3.44667 9.70252 4.12958 9.70252Z" fill="#0078D4"/>
<path d="M11.8898 9.70252C12.5727 9.70252 13.1263 9.14891 13.1263 8.466C13.1263 7.7831 12.5727 7.22949 11.8898 7.22949C11.2069 7.22949 10.6533 7.7831 10.6533 8.466C10.6533 9.14891 11.2069 9.70252 11.8898 9.70252Z" fill="#0078D4"/>
<path d="M13.6424 37.3721H12.4331V38.5532H13.6424V37.3721Z" fill="white"/>
<path d="M16.0614 36.1338H14.8521V38.5524H16.0614V36.1338Z" fill="white"/>
<path d="M19.6887 34.9238H17.27V38.5518H19.6887V34.9238Z" fill="white"/>
<path d="M23.3171 32.5068H20.8984V38.5535H23.3171V32.5068Z" fill="white"/>
<path d="M28.7588 27.6689H25.1309V38.5529H28.7588V27.6689Z" fill="white"/>
<path d="M35.4106 15.5762H30.5732V38.5534H35.4106V15.5762Z" fill="#50E6FF"/>
</svg>
