<svg data-slug-id="charts47" viewBox="0 0 48 48" xmlns="http://www.w3.org/2000/svg">
<path d="M40.0172 0.859375H32.262H0.932617V8.15225H32.262H40.0172H47.0667V0.859375H40.0172Z" fill="#0078D4"/>
<path d="M13.5471 10.5215H0.932617V17.8144H13.5471V10.5215Z" fill="#0078D4"/>
<path d="M29.3323 10.5215H16.7178V17.8144H29.3323V10.5215Z" fill="#0078D4"/>
<path d="M44.8752 10.5215H32.2607V17.8144H44.8752V10.5215Z" fill="#0078D4"/>
<path d="M10.8701 20.7583H0.932617V28.0512H10.8701V20.7583Z" fill="#3BCAF4"/>
<path d="M26.6552 20.7583H16.7178V28.0512H26.6552V20.7583Z" fill="#3BCAF4"/>
<path d="M42.1982 20.7583H32.2607V28.0512H42.1982V20.7583Z" fill="#3BCAF4"/>
<path d="M8.43641 30.0229H0.932617V37.3158H8.43641V30.0229Z" fill="#50E6FF"/>
<path d="M24.2216 30.0229H16.7178V37.3158H24.2216V30.0229Z" fill="#50E6FF"/>
<path d="M39.7645 30.0229H32.2607V37.3158H39.7645V30.0229Z" fill="#50E6FF"/>
<path d="M5.8405 39.8472H0.932617V47.14H5.8405V39.8472Z" fill="#50E6FF"/>
<path d="M21.6257 39.8472H16.7178V47.14H21.6257V39.8472Z" fill="#50E6FF"/>
<path d="M37.1686 39.8472H32.2607V47.14H37.1686V39.8472Z" fill="#50E6FF"/>
<path d="M44.0235 4.98827C44.2831 4.64756 44.4454 4.21761 44.4454 3.7471C44.4454 3.05756 44.1047 2.45726 43.5855 2.0841C43.2529 1.84885 42.8473 1.71094 42.4092 1.71094C41.2816 1.71094 40.373 2.6195 40.373 3.7471C40.373 4.8747 41.2816 5.78327 42.4092 5.78327C42.8473 5.78327 43.2529 5.64536 43.5855 5.4101C43.5936 5.40199 43.6017 5.39388 43.6098 5.39388L45.4351 7.21913L45.8407 6.81352L44.0235 4.98827ZM43.5855 4.59888C43.3178 4.96393 42.8878 5.19919 42.4092 5.19919C41.6061 5.19919 40.9571 4.55021 40.9571 3.7471C40.9571 2.94399 41.6061 2.29502 42.4092 2.29502C42.8959 2.29502 43.3178 2.53027 43.5855 2.89532C43.7639 3.13057 43.8613 3.43073 43.8613 3.7471C43.8613 4.06348 43.7558 4.36363 43.5855 4.59888Z" fill="#50E6FF"/>
</svg>
