<svg data-slug-id="charts37" viewBox="0 0 49 49" xmlns="http://www.w3.org/2000/svg">
<path d="M7.75185 0.766113H0.190918V8.3102H7.75185V0.766113Z" fill="#0078D4"/>
<path d="M48.1837 0.766113H12.8208V8.3102H48.1837V0.766113Z" fill="#0078D4"/>
<path d="M7.75185 13.395H0.190918V20.9307H7.75185V13.395Z" fill="#0078D4"/>
<path d="M48.1837 13.395H12.8208V20.9307H48.1837V13.395Z" fill="#0078D4"/>
<path d="M7.75185 26.0249H0.190918V33.569H7.75185V26.0249Z" fill="#0078D4"/>
<path d="M48.1837 26.0249H12.8208V33.569H48.1837V26.0249Z" fill="#0078D4"/>
<path d="M7.75185 38.6567H0.190918V46.1672H7.75185V38.6567Z" fill="#0078D4"/>
<path d="M48.1837 38.6567H12.8208V46.1587H48.1837V38.6567Z" fill="#0078D4"/>
<path d="M43.2329 0.766113H12.8208V8.3102H43.2329V0.766113Z" fill="#50E6FF"/>
<path d="M38.0295 13.395H12.8208V20.9307H38.0295V13.395Z" fill="#50E6FF"/>
<path d="M30.4854 26.0249H12.8208V33.569H30.4854V26.0249Z" fill="#50E6FF"/>
<path d="M22.9413 38.6567H12.8208V46.1587H22.9413V38.6567Z" fill="#50E6FF"/>
<path d="M5.25118 0.766113H0.190918V8.3102H5.25118V0.766113Z" fill="#50E6FF"/>
<path d="M5.24276 13.395H0.190918V20.9307H5.24276V13.395Z" fill="#50E6FF"/>
<path d="M5.25118 26.0249H0.190918V33.569H5.25118V26.0249Z" fill="#50E6FF"/>
<path d="M5.25118 38.6567H0.190918V46.1587H5.25118V38.6567Z" fill="#50E6FF"/>
</svg>
