<svg data-slug-id="charts46" viewBox="0 0 49 48" xmlns="http://www.w3.org/2000/svg">
<path d="M7.7041 22.1058L6.90918 20.7861L18.4008 13.8942L30.178 6.84796L41.8857 4.40918L42.2021 5.92184L30.7414 8.3066L19.1957 15.2139L7.7041 22.1058Z" fill="#0078D4"/>
<path d="M6.90845 23.626C8.16644 23.626 9.19289 22.5995 9.19289 21.3416C9.19289 20.0836 8.17415 19.0571 6.90845 19.0571C5.65047 19.0571 4.62402 20.0759 4.62402 21.3416C4.63174 22.5995 5.65047 23.626 6.90845 23.626Z" fill="#50E6FF"/>
<path d="M18.7708 16.8032C20.0287 16.8032 21.0552 15.7768 21.0552 14.5188C21.0552 13.2608 20.0365 12.2344 18.7708 12.2344C17.5128 12.2344 16.4863 13.2531 16.4863 14.5188C16.4863 15.7768 17.5051 16.8032 18.7708 16.8032Z" fill="#50E6FF"/>
<path d="M30.4163 9.73439C31.6742 9.73439 32.7007 8.70794 32.7007 7.44996C32.7007 6.19198 31.682 5.16553 30.4163 5.16553C29.1583 5.16553 28.1318 6.18426 28.1318 7.44996C28.1318 8.70794 29.1583 9.73439 30.4163 9.73439Z" fill="#50E6FF"/>
<path d="M41.885 7.56544C43.143 7.56544 44.1694 6.53899 44.1694 5.28101C44.1694 4.02303 43.1507 2.99658 41.885 2.99658C40.627 2.99658 39.6006 4.01531 39.6006 5.28101C39.6006 6.53899 40.6193 7.56544 41.885 7.56544Z" fill="#50E6FF"/>
<path d="M11.9329 26.103H2.5791V40.4888H11.9329V26.103Z" fill="#0078D4"/>
<path d="M11.9329 37.8105H2.5791V40.4886H11.9329V37.8105Z" fill="#50E6FF"/>
<path d="M23.4944 21.3418H14.1406V40.4816H23.4944V21.3418Z" fill="#0078D4"/>
<path d="M23.4944 26.4502H14.1406V40.4809H23.4944V26.4502Z" fill="#50E6FF"/>
<path d="M35.1321 14.5195H25.7783V40.4895H35.1321V14.5195Z" fill="#0078D4"/>
<path d="M35.1321 31.2354H25.7783V40.4888H35.1321V31.2354Z" fill="#50E6FF"/>
<path d="M46.6937 9.81885H37.3398V40.4889H46.6937V9.81885Z" fill="#0078D4"/>
<path d="M46.6937 21.812H37.3398V40.4888H46.6937V21.812Z" fill="#50E6FF"/>
</svg>
