<svg data-slug-id="charts-light"  viewBox="0 0 48 48" xmlns="http://www.w3.org/2000/svg">
<g clip-path="url(#charts-light_clip0)">
<path d="M5.05248 0.0234375H0V5.07326H5.05248V0.0234375Z" fill="#50E6FF"/>
<path d="M5.05248 7.17938H0V12.2292H5.05248V7.17938Z" fill="#50E6FF"/>
<path d="M40.5049 7.17938H35.4525V12.2292H40.5049V7.17938Z" fill="#50E6FF"/>
<path d="M47.9987 7.17938H42.9462V12.2292H47.9987V7.17938Z" fill="#0078D4"/>
<path d="M47.9987 0H42.9462V5.04982H47.9987V0Z" fill="#0078D4"/>
<path d="M5.05248 14.3357H0V19.3855H5.05248V14.3357Z" fill="#50E6FF"/>
<path d="M40.5049 14.3357H35.4525V19.3855H40.5049V14.3357Z" fill="#50E6FF"/>
<path d="M47.9987 14.3357H42.9462V19.3855H47.9987V14.3357Z" fill="#0078D4"/>
<path d="M5.05248 21.4875H0V26.5374H5.05248V21.4875Z" fill="#50E6FF"/>
<path d="M12.6306 21.4875H7.57812V26.5374H12.6306V21.4875Z" fill="#0078D4"/>
<path d="M40.5049 21.4875H35.4525V26.5374H40.5049V21.4875Z" fill="#50E6FF"/>
<path d="M47.9987 21.4875H42.9462V26.5374H47.9987V21.4875Z" fill="#0078D4"/>
<path d="M5.05248 28.64H0V33.6898H5.05248V28.64Z" fill="#50E6FF"/>
<path d="M12.6306 28.64H7.57812V33.6898H12.6306V28.64Z" fill="#0078D4"/>
<path d="M40.5049 28.64H35.4525V33.6898H40.5049V28.64Z" fill="#50E6FF"/>
<path d="M47.9987 28.64H42.9462V33.6898H47.9987V28.64Z" fill="#0078D4"/>
<path d="M5.05248 35.7957H0V40.8455H5.05248V35.7957Z" fill="#50E6FF"/>
<path d="M12.6306 35.7957H7.57812V40.8455H12.6306V35.7957Z" fill="#0078D4"/>
<path d="M40.5049 35.7957H35.4525V40.8455H40.5049V35.7957Z" fill="#50E6FF"/>
<path d="M47.9987 35.7957H42.9462V40.8455H47.9987V35.7957Z" fill="#0078D4"/>
<path d="M5.05248 42.9481H0V47.9979H5.05248V42.9481Z" fill="#50E6FF"/>
<path d="M12.6306 42.9481H7.57812V47.9979H12.6306V42.9481Z" fill="#0078D4"/>
<path d="M40.5049 42.9481H35.4525V47.9979H40.5049V42.9481Z" fill="#50E6FF"/>
<path d="M47.9987 42.9481H42.9462V47.9979H47.9987V42.9481Z" fill="#0078D4"/>
<path d="M30.3321 30.3392L25.2543 25.2725V27.8311H17.6756V32.8978H25.2543V35.4142L30.3321 30.3392Z" fill="#50E6FF"/>
<path d="M30.3321 17.6489L25.2543 12.5738V15.1408H17.6756V20.2075H25.2543V22.724L30.3321 17.6489Z" fill="#50E6FF"/>
<path d="M30.3321 42.9251L25.2543 37.8584V40.417H17.6756V45.4836H25.2543V48.0001L30.3321 42.9251Z" fill="#50E6FF"/>
</g>
<defs>
<clipPath id="charts-light_clip0">
<rect width="47.9987" height="48.0001" fill="white"/>
</clipPath>
</defs>
</svg>
