<svg data-slug-id="charts19" viewBox="0 0 48 49" xmlns="http://www.w3.org/2000/svg">
<path d="M10.1535 28.7036H0.150391V48.7661H10.1535V28.7036Z" fill="#50E6FF"/>
<path d="M47.8493 13.688H37.8462V48.7576H47.8493V13.688Z" fill="#0078D4"/>
<path d="M22.7663 23.665H12.7632V48.7577H22.7663V23.665Z" fill="#50E6FF"/>
<path d="M35.3039 11.1899H25.3008V48.758H35.3039V11.1899Z" fill="#0078D4"/>
<path d="M18.1409 39.1068L17.2627 38.221L29.7833 25.7624L42.3876 13.2871L43.2742 14.1812L30.6699 26.6482L18.1409 39.1068Z" fill="#50E6FF"/>
<path d="M42.7557 16.5625C44.354 16.5625 45.6496 15.2681 45.6496 13.6714C45.6496 12.0747 44.354 10.7803 42.7557 10.7803C41.1575 10.7803 39.8618 12.0747 39.8618 13.6714C39.8618 15.2681 41.1575 16.5625 42.7557 16.5625Z" fill="#50E6FF"/>
<path d="M30.2269 29.0962C31.8251 29.0962 33.1208 27.8018 33.1208 26.2051C33.1208 24.6084 31.8251 23.314 30.2269 23.314C28.6286 23.314 27.333 24.6084 27.333 26.2051C27.333 27.8018 28.6286 29.0962 30.2269 29.0962Z" fill="#50E6FF"/>
<path d="M17.7059 41.6973C19.3041 41.6973 20.5998 40.4029 20.5998 38.8062C20.5998 37.2094 19.3041 35.915 17.7059 35.915C16.1076 35.915 14.812 37.2094 14.812 38.8062C14.812 40.4029 16.1076 41.6973 17.7059 41.6973Z" fill="#0078D4"/>
<path d="M5.21908 32.1963C6.81733 32.1963 8.11297 30.9019 8.11297 29.3052C8.11297 27.7085 6.81733 26.4141 5.21908 26.4141C3.62083 26.4141 2.3252 27.7085 2.3252 29.3052C2.3252 30.9019 3.62083 32.1963 5.21908 32.1963Z" fill="#0078D4"/>
<path d="M13.6747 13.1621L11.6758 15.1592L18.2163 21.6935L20.2153 19.6964L13.6747 13.1621Z" fill="#0078D4"/>
<path d="M9.5934 3.08447C5.65403 3.08447 2.45068 6.27642 2.45068 10.2204C2.45068 14.1644 5.64567 17.3563 9.5934 17.3563C13.5411 17.3563 16.7361 14.1644 16.7361 10.2204C16.7361 6.27642 13.5411 3.08447 9.5934 3.08447ZM9.5934 14.5153C7.21807 14.5153 5.30275 12.5935 5.30275 10.2287C5.30275 7.85568 7.22643 5.94218 9.5934 5.94218C11.9604 5.94218 13.884 7.86403 13.884 10.2287C13.884 12.5935 11.9687 14.5153 9.5934 14.5153Z" fill="#0078D4"/>
<path d="M5.59324 28.6154L4.80713 29.5923L17.2775 39.6084L18.0637 38.6315L5.59324 28.6154Z" fill="#0078D4"/>
<path d="M17.2627 38.2213L18.1409 39.107L25.2418 32.0547V30.2832L17.2627 38.2213Z" fill="#0078D4"/>
</svg>
