<svg data-slug-id="charts48" viewBox="0 0 48 48" xmlns="http://www.w3.org/2000/svg">
<path d="M15.8906 1.61865H1.80664V8.67238H15.8906V1.61865Z" fill="#0078D4"/>
<path d="M31.1591 1.61865H17.0752V8.67238H31.1591V1.61865Z" fill="#0078D4"/>
<path d="M46.1923 1.61865H32.1084V8.67238H46.1923V1.61865Z" fill="#0078D4"/>
<path d="M14.0075 10.9634H1.80664V18.0171H14.0075V10.9634Z" fill="#0078D4"/>
<path d="M29.276 10.9634H17.0752V18.0171H29.276V10.9634Z" fill="#0078D4"/>
<path d="M44.3092 10.9634H32.1084V18.0171H44.3092V10.9634Z" fill="#0078D4"/>
<path d="M11.4182 20.8652H1.80664V27.919H11.4182V20.8652Z" fill="#3BCAF4"/>
<path d="M26.6868 20.8652H17.0752V27.919H26.6868V20.8652Z" fill="#3BCAF4"/>
<path d="M41.72 20.8652H32.1084V27.919H41.72V20.8652Z" fill="#3BCAF4"/>
<path d="M9.06437 29.8257H1.80664V36.8794H9.06437V29.8257Z" fill="#50E6FF"/>
<path d="M24.3329 29.8257H17.0752V36.8794H24.3329V29.8257Z" fill="#50E6FF"/>
<path d="M39.3661 29.8257H32.1084V36.8794H39.3661V29.8257Z" fill="#50E6FF"/>
<path d="M6.55359 39.3276H1.80664V46.3814H6.55359V39.3276Z" fill="#50E6FF"/>
<path d="M21.8221 39.3276H17.0752V46.3814H21.8221V39.3276Z" fill="#50E6FF"/>
<path d="M36.8553 39.3276H32.1084V46.3814H36.8553V39.3276Z" fill="#50E6FF"/>
</svg>
