<svg data-slug-id="charts16" viewBox="0 0 48 49" xmlns="http://www.w3.org/2000/svg">
<path d="M25.2671 0.773926H22.7412V48.7654H25.2671V0.773926Z" fill="#0078D4"/>
<path d="M19.3738 7.93018H0.00878906V27.2952H19.3738V7.93018Z" fill="#0078D4"/>
<path d="M38.3173 27.2952C32.9708 27.2952 28.6348 22.9591 28.6348 17.6127C28.6348 12.2663 32.9708 7.93018 38.3173 7.93018C43.6637 7.93018 47.9998 12.2663 47.9998 17.6127C47.9998 22.9591 43.6637 27.2952 38.3173 27.2952Z" fill="#0078D4"/>
<path d="M2.53466 36.5591C1.13701 36.5591 0.00878906 37.6873 0.00878906 39.085C0.00878906 40.4826 1.13701 41.6108 2.53466 41.6108C3.93231 41.6108 5.06053 40.4826 5.06053 39.085C5.06053 37.6873 3.93231 36.5591 2.53466 36.5591Z" fill="#0078D4"/>
<path d="M9.69091 41.6108C11.0859 41.6108 12.2168 40.48 12.2168 39.085C12.2168 37.69 11.0859 36.5591 9.69091 36.5591C8.29591 36.5591 7.16504 37.69 7.16504 39.085C7.16504 40.48 8.29591 41.6108 9.69091 41.6108Z" fill="#50E6FF"/>
<path d="M16.8481 36.5591C15.4505 36.5591 14.3223 37.6873 14.3223 39.085C14.3223 40.4826 15.4505 41.6108 16.8481 41.6108C18.2458 41.6108 19.374 40.4826 19.374 39.085C19.374 37.6873 18.2458 36.5591 16.8481 36.5591Z" fill="#0078D4"/>
<path d="M31.1606 36.5591C29.763 36.5591 28.6348 37.6873 28.6348 39.085C28.6348 40.4826 29.763 41.6108 31.1606 41.6108C32.5583 41.6108 33.6865 40.4826 33.6865 39.085C33.6865 37.6873 32.5583 36.5591 31.1606 36.5591Z" fill="#0078D4"/>
<path d="M38.3179 41.6108C39.7129 41.6108 40.8437 40.48 40.8437 39.085C40.8437 37.69 39.7129 36.5591 38.3179 36.5591C36.9229 36.5591 35.792 37.69 35.792 39.085C35.792 40.48 36.9229 41.6108 38.3179 41.6108Z" fill="#50E6FF"/>
<path d="M45.4741 41.6108C46.8691 41.6108 48 40.48 48 39.085C48 37.69 46.8691 36.5591 45.4741 36.5591C44.0791 36.5591 42.9482 37.69 42.9482 39.085C42.9482 40.48 44.0791 41.6108 45.4741 41.6108Z" fill="#50E6FF"/>
</svg>
