<svg data-slug-id="charts10" viewBox="0 0 48 49" xmlns="http://www.w3.org/2000/svg">
<path d="M6.7698 42.2272H5.50684V24.0747H18.9953V25.3341H6.7698V42.2272Z" fill="#0078D4"/>
<path d="M41.5427 6.28174H6.1377V7.54116H41.5427V6.28174Z" fill="#0078D4"/>
<path d="M42.1823 25.3358H21.0908V24.0763H40.9193V6.91455H42.1823V25.3358Z" fill="#50E6FF"/>
<path d="M42.8312 41.6143H6.56738V42.8737H42.8312V41.6143Z" fill="#50E6FF"/>
<path d="M12.8483 0.941895H0.117676V13.6369H12.8483V0.941895Z" fill="#50E6FF"/>
<path d="M30.3864 0.766113H17.6558V13.4611H30.3864V0.766113Z" fill="#50E6FF"/>
<path d="M47.9162 0.859863H35.1855V13.5549H47.9162V0.859863Z" fill="#0078D4"/>
<path d="M12.756 18.3721H0.0253906V31.0671H12.756V18.3721Z" fill="#50E6FF"/>
<path d="M30.3864 18.3721H17.6558V31.0671H30.3864V18.3721Z" fill="#0078D4"/>
<path d="M47.9167 18.3721H35.186V31.0671H47.9167V18.3721Z" fill="#0078D4"/>
<path d="M12.9328 35.8955H0.202148V48.5905H12.9328V35.8955Z" fill="#0078D4"/>
<path d="M30.3864 36.0708H17.6558V48.7658H30.3864V36.0708Z" fill="#0078D4"/>
<path d="M48.0007 35.9888H35.27V48.6838H48.0007V35.9888Z" fill="#0078D4"/>
</svg>
