<svg data-slug-id="charts32" viewBox="0 0 48 49" xmlns="http://www.w3.org/2000/svg">
<path d="M8.05176 42.6313C11.9928 46.1513 17.1128 48.3913 22.7465 48.6861V43.785C18.4686 43.5071 14.5781 41.8061 11.5381 39.145L8.05176 42.6313Z" fill="#0078D4"/>
<path d="M25.2725 0.848145V5.97657C29.5419 6.26288 33.424 7.95551 36.4556 10.5997L40.0598 6.99551C36.1104 3.41657 30.9567 1.14288 25.2725 0.848145Z" fill="#50E6FF"/>
<path d="M6.14873 8.79736C2.60346 12.7637 0.355043 17.9089 0.0771484 23.5847H5.0961C5.38241 19.3153 7.09188 15.4247 9.74452 12.3932L6.14873 8.79736Z" fill="#0078D4"/>
<path d="M22.7464 0.848145C17.0706 1.14288 11.9169 3.40814 7.95898 6.97867L11.5632 10.5829C14.5948 7.93867 18.4769 6.24604 22.7464 5.96814V0.848145Z" fill="#0078D4"/>
<path d="M36.4809 39.1255C33.4493 41.7865 29.5504 43.4876 25.2725 43.7739V48.675C30.9061 48.3802 36.0261 46.1402 39.9672 42.6118L36.4809 39.1255Z" fill="#50E6FF"/>
<path d="M0.0849609 26.1099C0.39654 31.7604 2.67022 36.8888 6.23233 40.8214L9.72707 37.3267C7.07443 34.2951 5.37338 30.3962 5.09549 26.1099H0.0849609Z" fill="#0078D4"/>
<path d="M47.9173 26.1099H42.9067C42.6288 30.3878 40.9362 34.2783 38.292 37.3183L41.7867 40.813C45.3404 36.872 47.6057 31.752 47.9173 26.1099Z" fill="#50E6FF"/>
<path d="M41.8702 8.81299L38.2744 12.4088C40.9186 15.4404 42.6197 19.314 42.906 23.5835H47.9249C47.647 17.9161 45.407 12.7709 41.8702 8.81299Z" fill="#50E6FF"/>
<path d="M13.8505 34.9458H12.6562V36.1121H13.8505V34.9458Z" fill="#0078D4"/>
<path d="M16.2391 33.7227H15.0449V36.1111H16.2391V33.7227Z" fill="#0078D4"/>
<path d="M19.821 32.5273H17.4326V36.11H19.821V32.5273Z" fill="#0078D4"/>
<path d="M23.404 30.1411H21.0156V36.1121H23.404V30.1411Z" fill="#0078D4"/>
<path d="M28.7779 25.3638H25.1953V36.1116H28.7779V25.3638Z" fill="#0078D4"/>
<path d="M35.3457 13.4224H30.5688V36.1123H35.3457V13.4224Z" fill="#50E6FF"/>
</svg>
