<svg data-slug-id="charts44" viewBox="0 0 48 49" xmlns="http://www.w3.org/2000/svg">
<path fill-rule="evenodd" clip-rule="evenodd" d="M31.8572 44.1734L30.5379 44.644L30.2942 45.4507L30.8656 46.6272L30.9413 46.7868L30.1009 47.5935L28.7564 46.9297L27.9581 47.249L27.5211 48.4843L27.4707 48.6524L26.311 48.6272L25.832 47.207L25.0337 46.8625L23.8572 47.4339L23.6976 47.5095L22.8909 46.6608L23.5547 45.3246L23.2354 44.5179L22.0001 44.0809L21.832 44.0305L21.8572 42.8709L23.2774 42.3919L23.6219 41.5935L23.0505 40.4171L22.9749 40.2658L23.8152 39.4675L25.1514 40.1398L25.9665 39.8456L26.3867 38.6692L26.4455 38.6104L27.5967 38.6356L28.0841 39.9465L28.8825 40.1902L30.0589 39.6188L30.2186 39.5431L30.6556 40.0053L31.0169 40.3835L30.9497 40.5179L30.3362 41.728L30.6304 42.5347L31.8152 42.9549L31.874 43.0137L31.8572 44.1734ZM26.9413 45.1566C27.8404 45.1734 28.5799 44.4507 28.5967 43.5515C28.6135 42.6524 27.8993 41.9045 27.0001 41.8877C26.1009 41.8709 25.353 42.5935 25.3362 43.4927C25.3194 44.3919 26.0421 45.1398 26.9413 45.1566Z" fill="#0078D4"/>
<path fill-rule="evenodd" clip-rule="evenodd" d="M33.5801 42.3077H47.8742V39.8203H33.5801V42.3077Z" fill="#50E6FF"/>
<path fill-rule="evenodd" clip-rule="evenodd" d="M33.5801 46.6353H47.8742V44.1479H33.5801V46.6353Z" fill="#50E6FF"/>
<path fill-rule="evenodd" clip-rule="evenodd" d="M33.5801 42.3077H39.5969V39.8203H33.5801V42.3077Z" fill="#0078D4"/>
<path fill-rule="evenodd" clip-rule="evenodd" d="M33.5801 46.6353H43.1095V44.1479H33.5801V46.6353Z" fill="#0078D4"/>
<path d="M45.5206 0.820312H7.67188V30.9296H45.5206V0.820312Z" fill="#50E6FF"/>
<path d="M40.4542 5.65234H2.68945V35.9633H11.7567V44.9549L20.7483 35.9633H40.4626V5.65234H40.4542Z" fill="#0078D4"/>
<path fill-rule="evenodd" clip-rule="evenodd" d="M34.672 15.6609C36.5795 15.6609 38.1257 17.2155 38.1257 19.1146C38.1257 21.0138 36.5711 22.5684 34.672 22.5684C34.0081 22.5684 33.3946 22.3751 32.8652 22.0558L30.5375 23.7785C30.8148 24.2743 30.9745 24.8541 30.9745 25.4592C30.9745 27.3667 29.4199 28.9214 27.5207 28.9214C25.6131 28.9214 24.0669 27.3667 24.0669 25.4592C24.0669 24.4172 24.5375 23.476 25.2686 22.8457L22.3946 18.518C21.9409 18.7365 21.4367 18.8625 20.9072 18.8625C20.1341 18.8625 19.4199 18.602 18.8484 18.1735C16.5207 20.1735 14.193 22.1314 12.4367 23.5516C12.4451 23.6609 12.4535 23.7701 12.4535 23.8793C12.4535 25.7869 10.8988 27.3331 8.99968 27.3331C7.09212 27.3331 5.5459 25.7785 5.5459 23.8793C5.5459 21.9802 7.10052 20.4256 8.99968 20.4256C10.1846 20.4256 11.235 21.0306 11.8568 21.9466C13.5627 20.5432 15.7728 18.6777 17.8148 16.9382C17.5879 16.476 17.4535 15.9634 17.4535 15.4172C17.4535 13.5096 19.0081 11.9634 20.9072 11.9634C22.8064 11.9634 24.361 13.518 24.361 15.4172C24.361 16.1987 24.0921 16.9214 23.6551 17.5012L26.7224 22.1146C26.9829 22.0558 27.2518 22.0138 27.5291 22.0138C28.235 22.0138 28.8904 22.2239 29.4367 22.5936L31.714 20.9046C31.3946 20.3835 31.2098 19.7701 31.2098 19.123C31.2098 17.2155 32.7644 15.6609 34.672 15.6609ZM34.672 20.9634C35.6888 20.9634 36.5123 20.1398 36.5123 19.123C36.5123 18.1062 35.6888 17.2827 34.672 17.2827C33.6551 17.2827 32.8316 18.1062 32.8316 19.123C32.8316 20.1314 33.6551 20.9634 34.672 20.9634ZM27.5207 27.3163C28.5375 27.3163 29.361 26.4928 29.361 25.476C29.361 24.4592 28.5375 23.6356 27.5207 23.6356C26.5039 23.6356 25.6804 24.4592 25.6804 25.476C25.6804 26.4928 26.5039 27.3163 27.5207 27.3163ZM20.8988 17.2491C21.9156 17.2491 22.7392 16.4256 22.7392 15.4088C22.7392 14.392 21.9156 13.5684 20.8988 13.5684C19.882 13.5684 19.0585 14.392 19.0585 15.4088C19.0585 16.4256 19.8904 17.2491 20.8988 17.2491ZM8.98287 25.7281C9.99968 25.7281 10.8232 24.9046 10.8232 23.8877C10.8232 22.8709 9.99968 22.0474 8.98287 22.0474C7.96607 22.0474 7.14254 22.8709 7.14254 23.8877C7.15094 24.9046 7.97447 25.7281 8.98287 25.7281Z" fill="#50E6FF"/>
</svg>
