<svg data-slug-id="charts08" viewBox="0 0 48 49" xmlns="http://www.w3.org/2000/svg">
<path d="M47.9961 0.766113H0V12.9756H47.9961V0.766113Z" fill="#0078D4"/>
<path d="M12.2095 15.0811H0V34.4479H12.2095V15.0811Z" fill="#0078D4"/>
<path d="M41.8909 48.7625C38.5228 48.7625 35.7861 46.0259 35.7861 42.6578V21.1858C35.7861 17.8177 38.5228 15.0811 41.8909 15.0811C45.259 15.0811 47.9957 17.8177 47.9957 21.1858V42.6578C47.9957 46.0259 45.259 48.7625 41.8909 48.7625Z" fill="#0078D4"/>
<path d="M33.6815 36.5522H0V48.7618H33.6815V36.5522Z" fill="#0078D4"/>
<path d="M33.6823 15.0811H14.3154V20.1333H33.6823V15.0811Z" fill="#0078D4"/>
<path d="M16.8415 34.4468C15.4438 34.4468 14.3154 33.3185 14.3154 31.9207V24.7634C14.3154 23.3656 15.4438 22.2373 16.8415 22.2373C18.2393 22.2373 19.3677 23.3656 19.3677 24.7634V31.9207C19.3677 33.3185 18.2309 34.4468 16.8415 34.4468Z" fill="#50E6FF"/>
<path d="M33.6805 29.3965H21.4709V34.4487H33.6805V29.3965Z" fill="#0078D4"/>
<path d="M26.5232 22.2373H21.4709V27.2895H26.5232V22.2373Z" fill="#0078D4"/>
<path d="M31.1548 27.2895C29.757 27.2895 28.6287 26.1612 28.6287 24.7634C28.6287 23.3656 29.757 22.2373 31.1548 22.2373C32.5526 22.2373 33.6809 23.3656 33.6809 24.7634C33.6809 26.1612 32.5441 27.2895 31.1548 27.2895Z" fill="#50E6FF"/>
</svg>
