<svg data-slug-id="charts26" viewBox="0 0 49 49" xmlns="http://www.w3.org/2000/svg">
<path d="M5.55417 48.7656C8.34471 48.7656 10.6069 46.5034 10.6069 43.7129C10.6069 40.9223 8.34471 38.6602 5.55417 38.6602C2.76364 38.6602 0.501465 40.9223 0.501465 43.7129C0.501465 46.5034 2.76364 48.7656 5.55417 48.7656Z" fill="#0078D4"/>
<path d="M18.187 48.7656C20.9775 48.7656 23.2397 46.5034 23.2397 43.7129C23.2397 40.9223 20.9775 38.6602 18.187 38.6602C15.3965 38.6602 13.1343 40.9223 13.1343 43.7129C13.1343 46.5034 15.3965 48.7656 18.187 48.7656Z" fill="#0078D4"/>
<path d="M30.8178 48.7656C33.6084 48.7656 35.8706 46.5034 35.8706 43.7129C35.8706 40.9223 33.6084 38.6602 30.8178 38.6602C28.0273 38.6602 25.7651 40.9223 25.7651 43.7129C25.7651 46.5034 28.0273 48.7656 30.8178 48.7656Z" fill="#0078D4"/>
<path d="M43.4507 48.7656C46.2412 48.7656 48.5034 46.5034 48.5034 43.7129C48.5034 40.9223 46.2412 38.6602 43.4507 38.6602C40.6601 38.6602 38.3979 40.9223 38.3979 43.7129C38.3979 46.5034 40.6601 48.7656 43.4507 48.7656Z" fill="#50E6FF"/>
<path d="M10.6069 13.3945H0.501465V36.1317H10.6069V13.3945Z" fill="#0078D4"/>
<path d="M23.2397 5.81689H13.1343V36.1331H23.2397V5.81689Z" fill="#0078D4"/>
<path d="M35.8706 0.766113H25.7651V36.1351H35.8706V0.766113Z" fill="#0078D4"/>
<path d="M48.5034 28.5591H38.3979V36.1381H48.5034V28.5591Z" fill="#50E6FF"/>
<path d="M48.5022 22.2388H0.501465V24.7651H48.5022V22.2388Z" fill="#50E6FF"/>
</svg>
