<svg data-slug-id="charts06" viewBox="0 0 48 49" xmlns="http://www.w3.org/2000/svg">
<path d="M2.4314 20.9501H20.1591V3.18799H2.4314V20.9501Z" fill="#0078D4"/>
<path d="M27.875 20.9501H45.6028V3.18799H27.875V20.9501Z" fill="#0078D4"/>
<path d="M2.4314 46.3139H20.1591V28.5518H2.4314V46.3139Z" fill="#0078D4"/>
<path d="M27.875 46.3139H45.6028V28.5518H27.875V46.3139Z" fill="#0078D4"/>
<path d="M37.3212 38.1189H10.6367V11.3911H37.3212V38.1189ZM11.903 36.8501H36.0549V12.6598H11.903V36.8501Z" fill="#50E6FF"/>
<path d="M39.1616 37.5672C39.1616 38.9797 38.0135 40.13 36.6038 40.13C35.194 40.13 34.0459 38.9797 34.0459 37.5672C34.0459 36.1547 35.194 35.0044 36.6038 35.0044C38.0135 35.0044 39.1616 36.1547 39.1616 37.5672Z" fill="#50E6FF"/>
<path d="M13.9543 37.4852C13.9543 38.8977 12.8063 40.048 11.3965 40.048C9.98671 40.048 8.83862 38.8977 8.83862 37.4852C8.83862 36.0727 9.98671 34.9224 11.3965 34.9224C12.8063 34.9224 13.9543 36.0727 13.9543 37.4852Z" fill="#50E6FF"/>
<path d="M13.9543 11.9735C13.9543 13.386 12.8063 14.5363 11.3965 14.5363C9.98671 14.5363 8.83862 13.386 8.83862 11.9735C8.83862 10.561 9.98671 9.41064 11.3965 9.41064C12.8063 9.41064 13.9543 10.561 13.9543 11.9735Z" fill="#50E6FF"/>
<path d="M39.1616 11.9735C39.1616 13.386 38.0135 14.5363 36.6038 14.5363C35.194 14.5363 34.0459 13.386 34.0459 11.9735C34.0459 10.561 35.194 9.41064 36.6038 9.41064C38.0135 9.41064 39.1616 10.561 39.1616 11.9735Z" fill="#50E6FF"/>
</svg>
