<svg data-slug-id="charts04" viewBox="0 0 48 49" xmlns="http://www.w3.org/2000/svg">
<path d="M48.0003 0.766113C48.0003 14.0209 37.255 24.7663 24.0002 24.7663C10.7453 24.7663 0 14.0209 0 0.766113" fill="#0078D4"/>
<path d="M5.05267 48.766C7.84318 48.766 10.1053 46.5038 10.1053 43.7133C10.1053 40.9228 7.84318 38.6606 5.05267 38.6606C2.26216 38.6606 0 40.9228 0 43.7133C0 46.5038 2.26216 48.766 5.05267 48.766Z" fill="#0078D4"/>
<path d="M17.7275 33.5654C19.1228 33.5654 20.2538 32.4343 20.2538 31.039C20.2538 29.6438 19.1228 28.5127 17.7275 28.5127C16.3322 28.5127 15.2012 29.6438 15.2012 31.039C15.2012 32.4343 16.3322 33.5654 17.7275 33.5654Z" fill="#0078D4"/>
<path d="M17.7265 18.5199C20.517 18.5199 22.7792 16.2577 22.7792 13.4672C22.7792 10.6767 20.517 8.41455 17.7265 8.41455C14.936 8.41455 12.6738 10.6767 12.6738 13.4672C12.6738 16.2577 14.936 18.5199 17.7265 18.5199Z" fill="#50E6FF"/>
<path d="M30.3163 48.766C33.1068 48.766 35.369 46.5038 35.369 43.7133C35.369 40.9228 33.1068 38.6606 30.3163 38.6606C27.5258 38.6606 25.2637 40.9228 25.2637 43.7133C25.2637 46.5038 27.5258 48.766 30.3163 48.766Z" fill="#0078D4"/>
<path d="M42.9472 48.766C45.7377 48.766 47.9999 46.5038 47.9999 43.7133C47.9999 40.9228 45.7377 38.6606 42.9472 38.6606C40.1567 38.6606 37.8945 40.9228 37.8945 43.7133C37.8945 46.5038 40.1567 48.766 42.9472 48.766Z" fill="#0078D4"/>
</svg>
