<svg data-slug-id="charts41" viewBox="0 0 49 49" xmlns="http://www.w3.org/2000/svg">
<path d="M25.0278 33.6361C29.8481 33.6361 33.7557 29.7285 33.7557 24.9081C33.7557 20.0878 29.8481 16.1802 25.0278 16.1802C20.2075 16.1802 16.2998 20.0878 16.2998 24.9081C16.2998 29.7285 20.2075 33.6361 25.0278 33.6361Z" fill="#50E6FF"/>
<path d="M29.1712 20.7007L22.6666 27.2053L20.7189 25.2545L19.4204 26.5561L22.6666 29.8023L30.4728 21.9992L29.1712 20.7007Z" fill="#0078D4"/>
<g clip-path="url(#charts41_clip0)">
<path d="M24.9936 0.923828C11.7308 0.923828 0.979492 11.6751 0.979492 24.9379C0.979492 38.2007 11.7308 48.952 24.9936 48.952C38.2564 48.952 49.0077 38.2007 49.0077 24.9379C48.9795 11.6751 38.2564 0.923828 24.9936 0.923828ZM24.9936 36.1408C18.8137 36.1408 13.7908 31.1178 13.7908 24.9379C13.7908 18.758 18.8137 13.7351 24.9936 13.7351C31.1735 13.7351 36.1964 18.758 36.1964 24.9379C36.1964 31.1178 31.1735 36.1408 24.9936 36.1408Z" fill="#0078D4"/>
<path d="M24.9654 13.7351L24.909 0.923828C16.4716 0.952047 9.05009 5.32594 4.78906 11.9573L15.3146 19.3224C17.2335 15.9926 20.8455 13.7351 24.9654 13.7351Z" fill="#50E6FF"/>
<path d="M13.7908 24.9376C13.7908 22.9059 14.3269 20.987 15.2864 19.3503L4.78902 11.957L4.73258 12.0417C2.36221 15.7666 0.979492 20.1687 0.979492 24.9376C0.979492 28.465 1.7414 31.823 3.12411 34.8424L14.8349 29.6784C14.1576 28.2392 13.7908 26.6308 13.7908 24.9376Z" fill="#3BCAF4"/>
</g>
<defs>
<clipPath id="charts41_clip0">
<path d="M0.979492 0.923828H48.9795V48.9238H0.979492V0.923828Z" fill="white"/>
</clipPath>
</defs>
</svg>
