<svg data-slug-id="charts53" viewBox="0 0 48 48" xmlns="http://www.w3.org/2000/svg">
<path fill-rule="evenodd" clip-rule="evenodd" d="M31.8572 43.521L30.5379 43.9916L30.2942 44.7983L30.8656 45.9748L30.9413 46.1345L30.1009 46.9412L28.7564 46.2773L27.9581 46.5967L27.5211 47.832L27.4707 48L26.311 47.9748L25.832 46.5546L25.0337 46.2101L23.8572 46.7815L23.6976 46.8572L22.8909 46.0084L23.5547 44.6723L23.2354 43.8656L22.0001 43.4286L21.832 43.3782L21.8572 42.2185L23.2774 41.7395L23.6219 40.9412L23.0505 39.7647L22.9749 39.6135L23.8152 38.8151L25.1514 39.4874L25.9665 39.1933L26.3867 38.0168L26.4455 37.958L27.5967 37.9832L28.0841 39.2941L28.8825 39.5378L30.0589 38.9664L30.2186 38.8908L30.6556 39.353L31.0169 39.7311L30.9497 39.8656L30.3362 41.0757L30.6304 41.8824L31.8152 42.3025L31.874 42.3614L31.8572 43.521ZM26.9413 44.5042C27.8404 44.521 28.5799 43.7983 28.5967 42.8992C28.6135 42 27.8993 41.2521 27.0001 41.2353C26.1009 41.2185 25.353 41.9412 25.3362 42.8404C25.3194 43.7395 26.0421 44.4874 26.9413 44.5042Z" fill="#0078D4"/>
<path fill-rule="evenodd" clip-rule="evenodd" d="M33.5801 41.6554H47.8742V39.168H33.5801V41.6554Z" fill="#50E6FF"/>
<path fill-rule="evenodd" clip-rule="evenodd" d="M33.5801 45.983H47.8742V43.4956H33.5801V45.983Z" fill="#50E6FF"/>
<path fill-rule="evenodd" clip-rule="evenodd" d="M33.5801 41.6554H39.5969V39.168H33.5801V41.6554Z" fill="#0078D4"/>
<path fill-rule="evenodd" clip-rule="evenodd" d="M33.5801 45.983H43.1095V43.4956H33.5801V45.983Z" fill="#0078D4"/>
<path d="M45.5206 0.167969H7.67188V30.2772H45.5206V0.167969V0.167969Z" fill="#50E6FF"/>
<path d="M40.4542 5H2.68945V35.3109H11.7567V44.3025L20.7483 35.3109H40.4626V5H40.4542Z" fill="#0078D4"/>
<path fill-rule="evenodd" clip-rule="evenodd" d="M34.672 15.0085C36.5795 15.0085 38.1257 16.5631 38.1257 18.4623C38.1257 20.3615 36.5711 21.9161 34.672 21.9161C34.0081 21.9161 33.3946 21.7228 32.8652 21.4035L30.5375 23.1262C30.8148 23.622 30.9745 24.2018 30.9745 24.8068C30.9745 26.7144 29.4199 28.269 27.5207 28.269C25.6131 28.269 24.0669 26.7144 24.0669 24.8068C24.0669 23.7648 24.5375 22.8236 25.2686 22.1934L22.3946 17.8657C21.9409 18.0841 21.4367 18.2102 20.9072 18.2102C20.1341 18.2102 19.4198 17.9497 18.8484 17.5211C16.5207 19.5211 14.193 21.4791 12.4367 22.8993C12.4451 23.0085 12.4535 23.1178 12.4535 23.227C12.4535 25.1346 10.8988 26.6808 8.99968 26.6808C7.09212 26.6808 5.5459 25.1262 5.5459 23.227C5.5459 21.3278 7.10052 19.7732 8.99968 19.7732C10.1846 19.7732 11.235 20.3783 11.8568 21.2942C13.5627 19.8909 15.7728 18.0253 17.8148 16.2858C17.5879 15.8236 17.4535 15.311 17.4535 14.7648C17.4535 12.8573 19.0081 11.311 20.9072 11.311C22.8064 11.311 24.361 12.8657 24.361 14.7648C24.361 15.5463 24.0921 16.269 23.6551 16.8488L26.7224 21.4623C26.9829 21.4035 27.2518 21.3615 27.5291 21.3615C28.235 21.3615 28.8904 21.5715 29.4367 21.9413L31.714 20.2522C31.3946 19.7312 31.2098 19.1178 31.2098 18.4707C31.2098 16.5631 32.7644 15.0085 34.672 15.0085ZM34.672 20.311C35.6888 20.311 36.5123 19.4875 36.5123 18.4707C36.5123 17.4539 35.6888 16.6304 34.672 16.6304C33.6551 16.6304 32.8316 17.4539 32.8316 18.4707C32.8316 19.4791 33.6551 20.311 34.672 20.311ZM27.5207 26.664C28.5375 26.664 29.361 25.8404 29.361 24.8236C29.361 23.8068 28.5375 22.9833 27.5207 22.9833C26.5039 22.9833 25.6804 23.8068 25.6804 24.8236C25.6804 25.8404 26.5039 26.664 27.5207 26.664ZM20.8988 16.5967C21.9156 16.5967 22.7392 15.7732 22.7392 14.7564C22.7392 13.7396 21.9156 12.9161 20.8988 12.9161C19.882 12.9161 19.0585 13.7396 19.0585 14.7564C19.0585 15.7732 19.8904 16.5967 20.8988 16.5967ZM8.98287 25.0757C9.99968 25.0757 10.8232 24.2522 10.8232 23.2354C10.8232 22.2186 9.99968 21.3951 8.98287 21.3951C7.96607 21.3951 7.14254 22.2186 7.14254 23.2354C7.15094 24.2522 7.97447 25.0757 8.98287 25.0757Z" fill="#50E6FF"/>
</svg>
