<svg data-slug-id="charts28" viewBox="0 0 50 50" xmlns="http://www.w3.org/2000/svg">
<path d="M11.1272 13.5591H0.894043V49.3753H11.1272V13.5591Z" fill="#50E6FF"/>
<path d="M23.9183 0.766113H13.6851V49.3738H23.9183V0.766113Z" fill="#50E6FF"/>
<path d="M36.7107 13.5591H26.4775V49.3753H36.7107V13.5591Z" fill="#50E6FF"/>
<path d="M49.5018 31.4663H39.2686V49.3744H49.5018V31.4663Z" fill="#50E6FF"/>
<path d="M13.6851 49.3751C13.6851 46.3219 14.898 43.3937 17.0569 41.2347C19.2159 39.0757 22.1441 37.8628 25.1974 37.8628C28.2507 37.8628 31.1789 39.0757 33.3379 41.2347C35.4969 43.3937 36.7098 46.3219 36.7098 49.3751H13.6851Z" fill="#0078D4"/>
<path d="M25.1977 36.5809C28.0235 36.5809 30.3143 34.2901 30.3143 31.4643C30.3143 28.6384 28.0235 26.3477 25.1977 26.3477C22.3718 26.3477 20.0811 28.6384 20.0811 31.4643C20.0811 34.2901 22.3718 36.5809 25.1977 36.5809Z" fill="#0078D4"/>
</svg>
