<svg data-slug-id="chat" viewBox="0 0 50 50" xmlns="http://www.w3.org/2000/svg">
<path d="M25 10C33.2842 10 40 16.7157 40 25C40 33.2842 33.2842 40 25 40C22.5725 40 20.2267 39.4219 18.1193 38.332L12.3806 39.9329C11.3832 40.2115 10.3489 39.6287 10.0704 38.6314C9.97819 38.3014 9.97824 37.9523 10.0704 37.6226L11.6719 31.8883C10.5796 29.779 10 27.4304 10 25C10 16.7157 16.7157 10 25 10ZM25 12.25C17.9584 12.25 12.25 17.9584 12.25 25C12.25 27.2044 12.8092 29.3251 13.8595 31.2062L14.0855 31.6108L12.4164 37.5871L18.3963 35.9188L18.8006 36.1442C20.6801 37.1921 22.7983 37.75 25 37.75C32.0416 37.75 37.75 32.0416 37.75 25C37.75 17.9584 32.0416 12.25 25 12.25ZM20.125 26.5H26.8724C27.4937 26.5 27.9974 27.0037 27.9974 27.625C27.9974 28.1945 27.5741 28.6652 27.025 28.7398L26.8724 28.75H20.125C19.5037 28.75 19 28.2463 19 27.625C19 27.0554 19.4232 26.5847 19.9723 26.5102L20.125 26.5H26.8724H20.125ZM20.125 21.25H29.8817C30.503 21.25 31.0067 21.7537 31.0067 22.375C31.0067 22.9445 30.5834 23.4152 30.0344 23.4898L29.8817 23.5H20.125C19.5037 23.5 19 22.9963 19 22.375C19 21.8054 19.4232 21.3348 19.9723 21.2603L20.125 21.25H29.8817H20.125Z" fill="currentColor"/>
</svg>
