<svg data-slug-id="checkmark07" viewBox="0 0 48 49" xmlns="http://www.w3.org/2000/svg">
<path d="M21.6501 37.9071C30.6501 37.9071 37.9501 30.6071 37.9501 21.6071C37.9501 12.6071 30.6501 5.30713 21.6501 5.30713C12.6501 5.30713 5.3501 12.6071 5.3501 21.6071C5.3501 30.6071 12.6501 37.9071 21.6501 37.9071Z" fill="#0078D4"/>
<path d="M38.0001 3.90869L34.4001 7.50869L34.3501 7.55869C34.6001 7.75869 34.8001 7.95869 35.0001 8.20869C36.7501 9.95869 38.1001 11.9587 39.0501 14.2087C40.0501 16.5587 40.5501 19.0087 40.5501 21.5587C40.5501 24.1087 40.0501 26.6087 39.0501 28.9087C38.1001 31.1587 36.7501 33.2087 35.0001 34.9087C33.2501 36.6587 31.2501 38.0087 29.0001 38.9587C26.6501 39.9587 24.2001 40.4587 21.6001 40.4587C19.0001 40.4587 16.5501 39.9587 14.2501 38.9587C12.0001 38.0087 9.9501 36.6587 8.2501 34.9087C8.0501 34.7087 7.8001 34.4587 7.6001 34.2587L5.8501 36.1087C9.4501 40.0587 14.5501 42.6587 20.2501 43.0087V45.6087H10.1001V48.1087H32.8001V45.6087H22.7501V43.0587C34.1001 42.5087 43.1501 33.1087 43.1501 21.6087C43.1501 16.2587 41.2001 11.3587 37.9501 7.60869L39.8501 5.70869L38.0001 3.90869Z" fill="#50E6FF"/>
<path d="M29.3001 13.8579L17.3501 25.8079L13.7501 22.2079L11.3501 24.6079L17.3501 30.6079L31.7001 16.2579L29.3001 13.8579Z" fill="#50E6FF"/>
</svg>
