<svg data-slug-id="checkmark14" viewBox="0 0 61 61" xmlns="http://www.w3.org/2000/svg">
  <path d="M44.409668,43.277832 L47.090332,40.597168 L24.78125,18.2880859 L13.909668,29.159668 L16.590332,31.840332 L24.78125,23.6494141 L44.409668,43.277832 L44.409668,43.277832 Z M30.5,61 C33.2998047,61 36.0003255,60.6376139 38.6015625,59.9128418 C41.2027995,59.1880697 43.6352539,58.165446 45.8989258,56.8449707 C48.1625977,55.5244954 50.2227376,53.9359538 52.0793457,52.0793457 C53.9359538,50.2227376 55.5244954,48.1625977 56.8449707,45.8989258 C58.165446,43.6352539 59.1880697,41.2027995 59.9128418,38.6015625 C60.6376139,36.0003255 61,33.2998047 61,30.5 C61,27.7001953 60.6376139,24.9996745 59.9128418,22.3984375 C59.1880697,19.7972005 58.165446,17.3647461 56.8449707,15.1010742 C55.5244954,12.8374023 53.9359538,10.7772624 52.0793457,8.9206543 C50.2227376,7.06404622 48.1625977,5.47550456 45.8989258,4.1550293 C43.6352539,2.83455404 41.2027995,1.81193034 38.6015625,1.0871582 C36.0003255,0.362386068 33.2998047,0 30.5,0 C27.7001953,0 24.9996745,0.362386068 22.3984375,1.0871582 C19.7972005,1.81193034 17.3647461,2.83455404 15.1010742,4.1550293 C12.8374023,5.47550456 10.7772624,7.06404622 8.9206543,8.9206543 C7.06404622,10.7772624 5.47550456,12.8374023 4.1550293,15.1010742 C2.83455404,17.3647461 1.81193034,19.7922363 1.0871582,22.3835449 C0.362386068,24.9748535 0,27.6803385 0,30.5 C0,33.2998047 0.362386068,36.0003255 1.0871582,38.6015625 C1.81193034,41.2027995 2.83455404,43.6352539 4.1550293,45.8989258 C5.47550456,48.1625977 7.06404622,50.2227376 8.9206543,52.0793457 C10.7772624,53.9359538 12.8374023,55.5244954 15.1010742,56.8449707 C17.3647461,58.165446 19.7922363,59.1880697 22.3835449,59.9128418 C24.9748535,60.6376139 27.6803385,61 30.5,61 L30.5,61 Z M30.5,3.8125 C32.9423828,3.8125 35.3003743,4.13020833 37.5739746,4.765625 C39.8475749,5.40104167 41.9722493,6.29956055 43.947998,7.46118164 C45.9237467,8.62280273 47.7257487,10.0177409 49.3540039,11.6459961 C50.9822591,13.2742513 52.3771973,15.0762533 53.5388184,17.052002 C54.7004395,19.0277507 55.5989583,21.1474609 56.234375,23.4111328 C56.8697917,25.6748047 57.1875,28.0377604 57.1875,30.5 C57.1875,32.9423828 56.8697917,35.3003743 56.234375,37.5739746 C55.5989583,39.8475749 54.7004395,41.9722493 53.5388184,43.947998 C52.3771973,45.9237467 50.9822591,47.7257487 49.3540039,49.3540039 C47.7257487,50.9822591 45.9237467,52.3771973 43.947998,53.5388184 C41.9722493,54.7004395 39.8475749,55.5989583 37.5739746,56.234375 C35.3003743,56.8697917 32.9423828,57.1875 30.5,57.1875 C28.0576172,57.1875 25.6996257,56.8697917 23.4260254,56.234375 C21.1524251,55.5989583 19.0277507,54.7004395 17.052002,53.5388184 C15.0762533,52.3771973 13.2742513,50.9822591 11.6459961,49.3540039 C10.0177409,47.7257487 8.62280273,45.9237467 7.46118164,43.947998 C6.29956055,41.9722493 5.40104167,39.8475749 4.765625,37.5739746 C4.13020833,35.3003743 3.8125,32.9423828 3.8125,30.5 C3.8125,28.0576172 4.13020833,25.6996257 4.765625,23.4260254 C5.40104167,21.1524251 6.29956055,19.0277507 7.46118164,17.052002 C8.62280273,15.0762533 10.0177409,13.2742513 11.6459961,11.6459961 C13.2742513,10.0177409 15.0762533,8.62280273 17.052002,7.46118164 C19.0277507,6.29956055 21.1474609,5.40104167 23.4111328,4.765625 C25.6748047,4.13020833 28.0377604,3.8125 30.5,3.8125 Z" transform="translate(30.500000, 30.500000) scale(-1, 1) rotate(-180.000000) translate(-30.500000, -30.500000)" fill="#0074C4"></path>
</svg>