<svg data-slug-id="checkmark06" viewBox="0 0 48 49" xmlns="http://www.w3.org/2000/svg">
<path d="M23.4195 33.8613C23.0411 32.2299 23.8905 30.6154 25.4378 30.0267C25.976 29.8249 26.5057 29.7156 27.0187 29.7156C27.5148 29.7156 27.9689 29.8081 28.3894 29.9931C28.3726 26.9742 28.3474 23.6946 28.3474 23.2993C28.3474 21.4072 29.9956 20.2804 31.5849 20.2804C31.669 20.2804 31.7615 20.2804 31.8456 20.2888C32.8463 20.3561 34.5702 20.8354 34.8982 23.3245C34.9654 23.8543 34.9823 25.4353 34.9739 27.1255C35.142 27.1255 35.3102 27.1423 35.4868 27.1676C36.7903 27.3526 37.7069 28.1178 38.0601 29.2615C38.0937 29.2615 38.1357 29.2615 38.1694 29.2615C38.5394 29.2615 38.9094 29.3288 39.271 29.4549C39.6073 29.5726 40.0362 29.7744 40.4315 30.1024V0.283203H5.14624V43.0863H26.7328C26.5141 42.8004 26.0264 42.1276 25.9087 41.951C25.1434 40.7401 23.4364 33.9286 23.4195 33.8613Z" fill="#50E6FF"/>
<path d="M31.7027 48.0981H40.9276C40.9865 48.0981 42.6515 40.2523 42.8365 39.5375C43.0215 38.8227 42.8197 35.7113 42.8197 34.6517C42.8197 33.5921 42.517 32.6503 41.4238 32.5746C41.3649 32.5662 41.306 32.5662 41.2556 32.5662C40.4903 32.5662 40.1456 32.953 40.0446 33.1044C40.0278 33.1212 40.0194 33.1296 40.0194 33.1296C40.011 33.1296 40.0026 33.1128 40.0026 33.0876C40.0026 32.9867 40.0026 32.8017 39.9858 32.6671C39.969 32.4569 40.1203 31.4394 38.7412 30.9516C38.531 30.8759 38.346 30.8507 38.1694 30.8507C37.4798 30.8507 37.0173 31.3384 36.8071 31.6328C36.7903 31.658 36.765 31.6664 36.7398 31.6664C36.6978 31.6664 36.6557 31.6328 36.6557 31.5823C36.6473 31.2207 36.6389 30.6068 36.6389 30.4387C36.6389 30.1948 36.7146 28.9418 35.2598 28.74C35.1252 28.7232 35.0075 28.7148 34.8898 28.7148C34.1329 28.7148 33.7209 29.0764 33.5191 29.337C33.5022 29.3623 33.477 29.3707 33.4602 29.3707C33.4182 29.3707 33.3761 29.337 33.3761 29.2866C33.3929 28.185 33.435 24.2831 33.3341 23.5431C33.2163 22.6769 32.922 21.9537 31.7447 21.878C31.6858 21.878 31.6354 21.8696 31.5849 21.8696C30.517 21.8696 29.9283 22.5928 29.9283 23.3076C29.9283 23.9299 29.9788 32.0028 29.9956 34.8871C29.9956 34.9965 29.9115 35.0553 29.8274 35.0553C29.7601 35.0553 29.7013 35.0217 29.6676 34.946C29.4069 34.2228 29.0369 33.2221 28.7174 32.4989C28.339 31.6328 27.6999 31.3132 27.0187 31.3132C26.6823 31.3132 26.3376 31.3889 26.0012 31.515C25.0762 31.8682 24.7903 32.7848 24.9584 33.5164C25.1098 34.1555 26.716 40.2775 27.2458 41.11C27.7755 41.9425 30.231 44.8521 30.7608 45.5333C31.2906 46.206 31.7027 48.0981 31.7027 48.0981Z" fill="#0078D4"/>
<path d="M28.0699 5.23682L17.6845 15.6222L14.5731 12.5108L12.5044 14.5879L17.6845 19.768L30.147 7.3139L28.0699 5.23682Z" fill="#0078D4"/>
</svg>
