<svg data-slug-id="checkmark12" viewBox="0 0 49 49" xmlns="http://www.w3.org/2000/svg">
<path d="M41.0594 32.6692C41.5735 32.6692 42.0715 32.7174 42.5534 32.8058V1.10791H1.55811V41.572H32.8909C32.8748 41.347 32.8588 41.122 32.8588 40.889C32.8588 36.3573 36.5374 32.6692 41.0594 32.6692ZM26.4252 11.3043C26.4252 8.36348 28.7705 5.93692 31.6941 5.93692C34.6339 5.93692 37.0595 8.33134 37.0595 11.3043C37.0595 14.2451 34.682 16.6234 31.7423 16.6234C28.8026 16.6234 26.4252 14.229 26.4252 11.3043Z" fill="#50E6FF"/>
<path d="M37.0587 11.3044C37.0587 8.33143 34.641 5.93701 31.6933 5.93701C28.7697 5.93701 26.4243 8.35553 26.4243 11.3044C26.4243 14.2291 28.8018 16.6235 31.7415 16.6235C34.6812 16.6235 37.0587 14.2452 37.0587 11.3044Z" fill="#0078D4"/>
<path d="M41.0592 32.6693C41.0994 32.6693 41.1395 32.6693 41.1797 32.6693L35.983 27.5029L29.5172 34.0192L12.4332 17.3467L1.47754 28.2421L1.50967 28.4751V42.1747H32.963C32.8987 41.7569 32.8666 41.331 32.8666 40.8971C32.8585 36.3574 36.5372 32.6693 41.0592 32.6693Z" fill="#0078D4"/>
<path d="M41.0589 47.1081C44.479 47.1081 47.2515 44.3273 47.2515 40.8971C47.2515 37.4668 44.479 34.686 41.0589 34.686C37.6388 34.686 34.8662 37.4668 34.8662 40.8971C34.8662 44.3273 37.6388 47.1081 41.0589 47.1081Z" fill="#0078D4"/>
<path d="M43.9986 37.8999L39.3882 42.528L38.0067 41.138L37.083 42.062L39.3882 44.3761L44.9222 38.8239L43.9986 37.8999Z" fill="#50E6FF"/>
</svg>
