<svg data-slug-id="checkmark13" viewBox="0 0 49 48" xmlns="http://www.w3.org/2000/svg">
<path d="M21.9832 37.7987C30.9831 37.7987 38.2829 30.4988 38.2829 21.499C38.2829 12.4991 30.9831 5.19922 21.9832 5.19922C12.9834 5.19922 5.68347 12.4991 5.68347 21.499C5.68347 30.4988 12.9834 37.7987 21.9832 37.7987Z" fill="#50E6FF"/>
<path d="M38.333 3.8009L34.733 7.40084L34.683 7.45084C34.933 7.65084 35.133 7.85084 35.333 8.10083C37.083 9.8508 38.4329 11.8508 39.3829 14.1007C40.3829 16.4507 40.8829 18.9007 40.8829 21.4506C40.8829 24.0006 40.3829 26.5005 39.3829 28.8005C38.4329 31.0505 37.083 33.1004 35.333 34.8004C33.583 36.5504 31.5831 37.9003 29.3331 38.8503C26.9831 39.8503 24.5332 40.3503 21.9332 40.3503C19.3333 40.3503 16.8833 39.8503 14.5833 38.8503C12.3334 37.9003 10.2834 36.5504 8.58343 34.8004C8.38344 34.6004 8.13344 34.3504 7.93344 34.1504L6.18347 36.0004C9.78341 39.9503 14.8833 42.5503 20.5832 42.9003V45.5002H10.4334V48.0002H33.133V45.5002H23.0832V42.9503C34.433 42.4003 43.4829 33.0004 43.4829 21.5006C43.4829 16.1507 41.5329 11.2508 38.283 7.50084L40.1829 5.60087L38.333 3.8009Z" fill="#0078D4"/>
<path d="M29.633 13.75L17.6832 25.6998L14.0832 22.0999L11.6833 24.4998L17.6832 30.4997L32.033 16.15L29.633 13.75Z" fill="#0078D4"/>
</svg>
