<svg data-slug-id="checkmark01" viewBox="0 0 48 49" xmlns="http://www.w3.org/2000/svg">
<path d="M24.1685 39.2889C32.6791 39.2889 39.5784 32.3945 39.5784 23.8898C39.5784 15.3851 32.6791 8.49072 24.1685 8.49072C15.6578 8.49072 8.75854 15.3851 8.75854 23.8898C8.75854 32.3945 15.6578 39.2889 24.1685 39.2889Z" fill="#0078D4"/>
<path d="M32.7756 18.6812L30.6429 16.5415L19.9369 27.24L16.7335 24.0304L14.5923 26.1701L19.9369 31.511L32.7756 18.6812Z" fill="#50E6FF"/>
<path d="M41.8376 40.132C45.3614 36.1896 47.6037 31.0678 47.8988 25.4321H42.9925C42.7144 29.7115 41.0115 33.6034 38.3477 36.6445L41.8376 40.132Z" fill="#0078D4"/>
<path d="M6.17069 8.11182C2.58797 12.0711 0.311893 17.2266 0.0168457 22.9044H5.15067C5.43729 18.6334 7.1317 14.7499 9.7787 11.7173L6.17069 8.11182Z" fill="#50E6FF"/>
<path d="M7.97461 42.0331C11.9451 45.5796 17.0958 47.8288 22.7776 48.1068V43.0861C18.5036 42.7997 14.6174 41.0896 11.5826 38.436L7.97461 42.0331Z" fill="#0078D4"/>
<path d="M0.0168457 25.4321C0.311893 31.1099 2.58797 36.2654 6.16226 40.2247L9.77027 36.6192C7.12327 33.5866 5.42886 29.7031 5.15067 25.4321H0.0168457Z" fill="#0078D4"/>
<path d="M41.8293 8.20166L38.3394 11.6892C41.0032 14.7218 42.7061 18.6137 42.9927 22.9016H47.8989C47.6038 17.2659 45.3615 12.1441 41.8293 8.20166Z" fill="#50E6FF"/>
<path d="M25.3064 48.0893C30.9629 47.7776 36.0883 45.5032 40.0335 41.9398L36.5351 38.4438C33.4919 41.0974 29.5888 42.7991 25.3064 43.0771V48.0893Z" fill="#0078D4"/>
<path d="M25.3064 0.260254V5.27254C29.5888 5.55053 33.4834 7.24376 36.5182 9.8889L40.0166 6.39293C36.0798 2.838 30.9544 0.571942 25.3064 0.260254Z" fill="#50E6FF"/>
<path d="M22.7775 0.252441C17.1126 0.52201 11.962 2.77122 7.99146 6.3093L11.591 9.90636C14.6258 7.26122 18.5036 5.55957 22.7691 5.27315V0.252441H22.7775Z" fill="#50E6FF"/>
</svg>
