<svg data-slug-id="checkmark08" viewBox="0 0 56 52" xmlns="http://www.w3.org/2000/svg">
<g filter="url(#checkmark08_filter0_d)">
<path d="M4 43.0796H52V6.11963H4V43.0796Z" fill="#0078D4"/>
<path d="M39.858 19.1135L37.0763 16.3228L23.1128 30.2764L18.9348 26.0903L16.1421 28.881L23.1128 35.8469L39.858 19.1135Z" fill="#50E6FF"/>
<path d="M4 10.11H51.9832V5.10791H4V10.11Z" fill="#50E6FF"/>
<path d="M11.4779 8.93283C12.1523 8.93283 12.6989 8.38614 12.6989 7.71178C12.6989 7.03741 12.1523 6.49072 11.4779 6.49072C10.8035 6.49072 10.2568 7.03741 10.2568 7.71178C10.2568 8.38614 10.8035 8.93283 11.4779 8.93283Z" fill="#0078D4"/>
<path d="M7.68834 8.93283C8.36271 8.93283 8.90939 8.38614 8.90939 7.71178C8.90939 7.03741 8.36271 6.49072 7.68834 6.49072C7.01397 6.49072 6.46729 7.03741 6.46729 7.71178C6.46729 8.38614 7.01397 8.93283 7.68834 8.93283Z" fill="#0078D4"/>
<path d="M15.3514 8.93283C16.0258 8.93283 16.5725 8.38614 16.5725 7.71178C16.5725 7.03741 16.0258 6.49072 15.3514 6.49072C14.6771 6.49072 14.1304 7.03741 14.1304 7.71178C14.1304 8.38614 14.6771 8.93283 15.3514 8.93283Z" fill="#0078D4"/>
</g>
<defs>
<filter id="checkmark08_filter0_d" x="0" y="0.10791" width="56" height="56" filterUnits="userSpaceOnUse" color-interpolation-filters="sRGB">
<feFlood flood-opacity="0" result="BackgroundImageFix"/>
<feColorMatrix in="SourceAlpha" type="matrix" values="0 0 0 0 0 0 0 0 0 0 0 0 0 0 0 0 0 0 127 0"/>
<feOffset dy="4"/>
<feGaussianBlur stdDeviation="2"/>
<feColorMatrix type="matrix" values="0 0 0 0 0 0 0 0 0 0 0 0 0 0 0 0 0 0 0.25 0"/>
<feBlend mode="normal" in2="BackgroundImageFix" result="effect1_dropShadow"/>
<feBlend mode="normal" in="SourceGraphic" in2="effect1_dropShadow" result="shape"/>
</filter>
</defs>
</svg>
