<svg data-slug-id="checkmark09" viewBox="0 0 48 49" xmlns="http://www.w3.org/2000/svg">
<path d="M33.5645 24.0319C33.5645 29.3322 29.2673 33.6294 23.9671 33.6294C18.6668 33.6294 14.3696 29.3322 14.3696 24.0319C14.3696 18.7316 23.9679 2.479 23.9679 2.479C23.9679 2.479 33.5645 18.7316 33.5645 24.0319Z" fill="#0078D7"/>
<path d="M24 40.2569C20.3079 40.2569 16.832 39.817 14.2135 39.019C11.438 38.1729 9.97168 37.0447 9.97168 35.7571C9.97168 34.3589 11.7561 33.1218 14.9963 32.274C15.1678 32.2292 15.3425 32.3317 15.3874 32.5032C15.4322 32.6747 15.3297 32.8493 15.1582 32.8942C12.3113 33.6386 10.6119 34.7091 10.6119 35.7571C10.6119 36.7066 11.9924 37.6721 14.4002 38.406C16.9602 39.1865 20.3696 39.6159 24 39.6159C27.6305 39.6159 31.0399 39.1865 33.5999 38.406C36.0068 37.6721 37.3882 36.7066 37.3882 35.7571C37.3882 34.6634 35.5709 33.5633 32.5262 32.8141C32.3547 32.7716 32.249 32.5985 32.2914 32.4263C32.3339 32.2548 32.507 32.149 32.6792 32.1915C36.1286 33.04 38.0284 34.3068 38.0284 35.7571C38.0284 37.0447 36.5613 38.1729 33.7866 39.019C31.1681 39.817 27.6922 40.2569 24 40.2569Z" fill="#0078D4"/>
<path d="M24 44.6693C17.9321 44.6693 12.22 43.8352 7.91723 42.3208C3.45665 40.7512 1 38.5998 1 36.2634C1 33.3644 4.71542 30.8076 11.1944 29.2484C11.4524 29.1867 11.712 29.3453 11.7745 29.6033C11.8362 29.8613 11.6775 30.1209 11.4195 30.1834C5.58558 31.5872 1.9615 33.9165 1.9615 36.2634C1.9615 38.1335 4.24828 40.0108 8.23613 41.4138C12.4395 42.8929 18.0379 43.7078 24 43.7078C29.9621 43.7078 35.5605 42.8929 39.7639 41.4138C43.7517 40.0108 46.0385 38.1335 46.0385 36.2634C46.0385 33.8908 42.3543 31.5472 36.4242 30.1466C36.1662 30.0857 36.006 29.8269 36.0669 29.5681C36.1278 29.3093 36.3866 29.1498 36.6454 29.2107C39.7086 29.9342 42.267 30.9238 44.0458 32.0712C45.9784 33.3187 47 34.7682 47 36.2634C47 38.5998 44.5434 40.7512 40.0828 42.3208C35.7792 43.8352 30.0679 44.6693 24 44.6693Z" fill="#0078D4"/>
<path d="M30.7491 19.6701L28.9479 17.8657L21.6597 25.1539L19.2551 22.7462L17.4507 24.5506L21.6565 28.754L21.6621 28.7484L21.6653 28.754L30.7491 19.6701Z" fill="#50E6FF"/>
</svg>
