<svg data-slug-id="cloud12" viewBox="0 0 48 49" xmlns="http://www.w3.org/2000/svg">
<path d="M47.7389 20.948C47.7641 20.8385 47.781 20.7375 47.8062 20.628C47.9326 19.9712 48 19.2891 48 18.5901C48 12.6112 43.1478 7.77749 37.1836 7.77749C36.3496 7.77749 35.5325 7.87012 34.7659 8.05538C32.2976 4.16485 27.9509 1.57959 22.9975 1.57959C15.3064 1.57959 9.08108 7.81959 9.08108 15.4912C9.08108 15.6849 9.08108 15.8701 9.0895 16.0554C8.39031 15.8196 7.64058 15.6849 6.85714 15.6849C3.06634 15.6849 0 18.7501 0 22.5396C0 26.0933 2.70411 29.0154 6.1748 29.3522L37.1836 29.4112C41.2608 29.4112 44.7989 27.1627 46.6437 23.8533C46.6943 23.7606 46.7448 23.668 46.7954 23.567C47.0734 22.9943 47.4861 22.1017 47.7389 20.948Z" fill="#0078D4"/>
<path d="M16 46.6655L29.8409 29.4155H20.7727L16 46.6655Z" fill="white"/>
<path d="M15.5 34.4155H21.5L33.398 17.4155H20.648L15.5 34.4155Z" fill="white"/>
<defs>
<mask id="cloud12_mask0" mask-type="alpha" maskUnits="userSpaceOnUse" x="11" y="29" width="21" height="19">
<rect x="11" y="29.4155" width="21" height="18" fill="#C4C4C4"/>
</mask>
</defs>
<g mask="url(#cloud12_mask0)">
<path d="M16 46.6655L29.8409 29.4155H20.7727L16 46.6655Z" fill="#50E6FF"/>
<path d="M15.5 34.4155H21.5L33.398 17.4155H20.648L15.5 34.4155Z" fill="#50E6FF"/>
</g>
</svg>
