<svg data-slug-id="cloud13" viewBox="0 0 48 49" xmlns="http://www.w3.org/2000/svg">
<path d="M38.0818 21.5492C38.0818 16.0412 33.4591 11.5796 27.7523 11.5796C22.8227 11.5796 18.7114 14.8962 17.6886 19.3579C16.6659 18.3313 15.2341 17.6996 13.6591 17.6996C10.55 17.6996 8.03409 20.1278 8.03409 23.1286C8.03409 23.168 8.03409 23.2273 8.03409 23.2668C4.59773 23.9182 2 26.84 2 30.3541C2 34.3419 5.35455 37.5796 9.48636 37.5796H40.2091C43.9523 37.5796 47 34.6381 47 31.0253C47 27.4125 43.9523 24.471 40.2091 24.471C39.2068 24.471 38.2659 24.6882 37.4068 25.0633C37.8364 23.9775 38.0818 22.793 38.0818 21.5492Z" fill="#50E6FF"/>
</svg>
