<svg data-slug-id="cloud11" viewBox="0 0 49 49" xmlns="http://www.w3.org/2000/svg">
<path d="M38.5713 12.9918H48.6898V2.87988H38.5713V12.9918Z" fill="#50E6FF"/>
<path d="M23.2673 41.837C23.2757 41.7865 23.2841 41.736 23.301 41.6855C23.3599 41.3739 23.3936 41.054 23.3936 40.7256C23.3936 37.8967 21.1039 35.615 18.2838 35.615C17.8881 35.615 17.5009 35.657 17.1389 35.7497C15.9772 33.9142 13.9232 32.6934 11.583 32.6934C7.95478 32.6934 5.00845 35.6402 5.00845 39.269C5.00845 39.3617 5.00845 39.4459 5.00845 39.5385C4.68014 39.429 4.32658 39.3617 3.95618 39.3617C2.17155 39.3532 0.723633 40.8014 0.723633 42.5864C0.723633 44.2619 2.00318 45.6427 3.63629 45.8026L18.2754 45.8279C20.2031 45.8279 21.8699 44.767 22.7454 43.201C22.7706 43.1589 22.7959 43.1168 22.8211 43.0663C22.9474 42.8053 23.141 42.3843 23.2673 41.837Z" fill="#0078D4"/>
<path d="M36.0291 15.4922H24.0165V18.9779H30.1533L18.4521 30.6643L20.9018 33.1144L32.5946 21.4196V27.549H36.0796V15.4922H36.0291Z" fill="#0078D4"/>
</svg>
