<svg data-slug-id="cloud-path" viewBox="0 0 48 48" xmlns="http://www.w3.org/2000/svg">
    <path d="M37.9346 32.8763C39.9177 32.8763 41.5254 31.2531 41.5254 29.2507C41.5254 27.2483 39.9177 25.625 37.9346 25.625C35.9514 25.625 34.3438 27.2483 34.3438 29.2507C34.3438 31.2531 35.9514 32.8763 37.9346 32.8763Z" fill="#9CEBFF"/>
    <path d="M37.9338 22.8096C36.5806 22.788 35.2563 23.2053 34.1554 24.0002L22.2307 15.5312L3.09766 29.2493L22.2307 43.9143L34.3698 34.6066C35.4276 35.3112 36.6666 35.6875 37.9338 35.6889C39.6253 35.6889 41.2475 35.0104 42.4435 33.8027C43.6396 32.5951 44.3115 30.9571 44.3115 29.2493C44.3115 27.5414 43.6396 25.9034 42.4435 24.6958C41.2475 23.4881 39.6253 22.8096 37.9338 22.8096ZM22.2307 40.3968L7.78714 29.4116L22.2307 18.9675L32.36 26.2188C31.861 27.149 31.6029 28.1914 31.6097 29.2493C31.5662 30.3972 31.8251 31.5363 32.36 32.5502L22.2307 40.3968ZM37.9338 32.9561C37.4344 32.9996 36.9314 32.9379 36.4569 32.7747C35.9823 32.6116 35.5466 32.3507 35.1772 32.0085C34.8078 31.6663 34.5128 31.2504 34.3111 30.787C34.1093 30.3237 34.0051 29.8231 34.0051 29.3169C34.0051 28.8107 34.1093 28.3101 34.3111 27.8468C34.5128 27.3834 34.8078 26.9674 35.1772 26.6253C35.5466 26.2831 35.9823 26.0222 36.4569 25.8591C36.9314 25.6959 37.4344 25.6342 37.9338 25.6777C38.8361 25.7563 39.6763 26.1738 40.2885 26.8476C40.9007 27.5214 41.2403 28.4025 41.2403 29.3169C41.2403 30.2313 40.9007 31.1124 40.2885 31.7862C39.6763 32.46 38.8361 32.8775 37.9338 32.9561Z" fill="#0078D4"/>
    <path d="M37.9345 33.8211C40.4356 33.8211 42.4632 31.7739 42.4632 29.2484C42.4632 26.723 40.4356 24.6758 37.9345 24.6758C35.4333 24.6758 33.4058 26.723 33.4058 29.2484C33.4058 31.7739 35.4333 33.8211 37.9345 33.8211Z" fill="white"/>
    <path d="M6.5287 33.8211C9.02983 33.8211 11.0574 31.7739 11.0574 29.2484C11.0574 26.723 9.02983 24.6758 6.5287 24.6758C4.02757 24.6758 2 26.723 2 29.2484C2 31.7739 4.02757 33.8211 6.5287 33.8211Z" fill="#50E6FF"/>
    <path d="M22.2318 47.0008C24.733 47.0008 26.7605 44.9536 26.7605 42.4281C26.7605 39.9027 24.733 37.8555 22.2318 37.8555C19.7307 37.8555 17.7031 39.9027 17.7031 42.4281C17.7031 44.9536 19.7307 47.0008 22.2318 47.0008Z" fill="#50E6FF"/>
    <path d="M37.9331 1C36.7423 1.03468 35.5703 1.3083 34.4853 1.80493C33.4004 2.30156 32.4241 3.01126 31.6136 3.89268C30.803 4.77409 30.1742 5.80958 29.764 6.93882C29.3537 8.06805 29.1702 9.26844 29.224 10.47C29.224 14.6098 34.4226 24.2962 36.7808 30.0865C36.8741 30.3139 37.0321 30.5084 37.2348 30.6451C37.4375 30.7819 37.6758 30.8549 37.9197 30.8549C38.1635 30.8549 38.4018 30.7819 38.6045 30.6451C38.8072 30.5084 38.9652 30.3139 39.0585 30.0865C41.4435 24.2421 46.6421 14.4745 46.6421 10.47C46.7148 8.05248 45.8417 5.70328 44.2118 3.9309C42.5818 2.15853 40.3262 1.10559 37.9331 1ZM37.9331 13.8251C37.1623 13.8305 36.4074 13.6042 35.7643 13.1752C35.1213 12.7462 34.6191 12.1337 34.3217 11.4157C34.0243 10.6978 33.9451 9.90668 34.0941 9.14313C34.2432 8.37957 34.6138 7.67803 35.1588 7.12772C35.7038 6.57742 36.3986 6.20321 37.1549 6.05269C37.9111 5.90218 38.6945 5.98215 39.4056 6.28244C40.1167 6.58273 40.7233 7.08978 41.1482 7.73909C41.5731 8.3884 41.7971 9.15064 41.7918 9.92888C41.7918 10.9622 41.3853 11.9532 40.6616 12.6839C39.938 13.4146 38.9565 13.8251 37.9331 13.8251Z" fill="#50E6FF"/>
</svg>
