<svg data-slug-id="cloud02" viewBox="0 0 48 49" xmlns="http://www.w3.org/2000/svg">
<path d="M47.7137 30.0379C47.739 29.9284 47.7558 29.8273 47.7811 29.7179C47.9074 29.061 47.9747 28.3789 47.9747 27.68C47.9747 21.701 43.1251 16.8673 37.164 16.8673C36.3305 16.8673 35.5138 16.96 34.7476 17.1452C32.2806 13.2547 27.9361 10.6694 22.9854 10.6694C15.2984 10.6694 9.0763 16.9094 9.0763 24.581C9.0763 24.7747 9.0763 24.96 9.08472 25.1452C8.3859 24.9094 7.63655 24.7747 6.85353 24.7747C3.06473 24.7747 0 27.84 0 31.6294C0 35.1831 2.70268 38.1052 6.17155 38.4421L37.164 38.501C41.2391 38.501 44.7753 36.2526 46.6192 32.9431C46.6697 32.8505 46.7202 32.7579 46.7707 32.6568C47.0486 32.0842 47.4611 31.1915 47.7137 30.0379Z" fill="#0078D4"/>
<path d="M29.6889 20.6378C29.6889 17.1593 26.8362 14.2671 23.3193 14.2671C20.1931 14.2671 17.5749 16.5731 17.0669 19.5825H19.646C19.8414 18.9572 20.154 18.41 20.623 17.941C21.3654 17.1984 22.3033 16.8076 23.3193 16.8076C24.3353 16.8076 25.2731 17.1984 26.0156 17.941C26.7581 18.6836 27.1488 19.6216 27.1488 20.6378C27.1488 20.8332 27.1488 21.4195 27.1488 22.1621H16.9888V34.9035H29.6889C29.6889 34.9035 29.6889 20.9114 29.6889 20.6378Z" fill="#50E6FF"/>
<path d="M23.3194 29.7375C24.1611 29.7375 24.8434 29.0551 24.8434 28.2132C24.8434 27.3714 24.1611 26.689 23.3194 26.689C22.4777 26.689 21.7954 27.3714 21.7954 28.2132C21.7954 29.0551 22.4777 29.7375 23.3194 29.7375Z" fill="#0078D4"/>
</svg>
