<svg data-slug-id="cloud10" viewBox="0 0 48 49" xmlns="http://www.w3.org/2000/svg">
<path d="M47.5284 27.5355C47.6884 26.786 47.781 26.0113 47.781 25.2113C47.781 19.3165 42.9979 14.5418 37.1116 14.5418C36.2863 14.5418 35.4863 14.6344 34.7284 14.8197C32.2947 10.9797 28.0084 8.43652 23.1242 8.43652C15.5452 8.43652 9.40629 14.5839 9.40629 22.1544C9.40629 22.3481 9.40629 22.5334 9.41471 22.7102C8.72418 22.4744 7.98313 22.3481 7.20839 22.3481C3.46945 22.3481 0.446289 25.3713 0.446289 29.1102C0.446289 32.6134 3.11576 35.4934 6.53471 35.8302L37.1031 35.8892C41.2379 35.8892 44.8084 33.5481 46.5852 30.1207C47.1747 28.8913 47.2337 28.6218 47.5284 27.5355Z" fill="#50E6FF"/>
<path d="M24.0252 19.3502L15.0146 28.3607L17.6252 30.9713L22.2231 26.3734L22.2146 43.906H25.8862V26.3734L30.4841 30.9713L33.0946 28.3607L24.0673 19.3081L24.0252 19.3502Z" fill="#0078D4"/>
</svg>
