<svg data-slug-id="cloud19" viewBox="0 0 48 48" xmlns="http://www.w3.org/2000/svg">
    <rect x="3" y="21" width="10" height="2" fill="#C4C4C4"/>
    <rect x="3" y="29" width="10" height="2" fill="#C4C4C4"/>
    <rect y="25" width="13" height="2" fill="#C4C4C4"/>
    <path d="M9.20675 28.3101C9.18674 28.2236 9.1734 28.1437 9.15339 28.0572C9.05336 27.538 9 26.9988 9 26.4463C9 21.7201 12.8414 17.8992 17.563 17.8992C18.2232 17.8992 18.8701 17.9725 19.477 18.1189C21.431 15.0436 24.8722 13 28.7936 13C34.8824 13 39.8108 17.9325 39.8108 23.9967C39.8108 24.1498 39.8108 24.2962 39.8041 24.4427C40.3577 24.2563 40.9512 24.1498 41.5714 24.1498C44.5725 24.1498 47 26.5728 47 29.5682C47 32.3773 44.8592 34.6871 42.1116 34.9534L17.563 35C14.3352 35 11.5342 33.2227 10.0737 30.6067C10.0337 30.5334 9.99369 30.4602 9.95367 30.3803C9.7336 29.9277 9.40681 29.2221 9.20675 28.3101Z" fill="#0078D4"/>
</svg>
