<svg data-slug-id="cloud01" viewBox="0 0 48 49" xmlns="http://www.w3.org/2000/svg">
<path d="M48 0.583496H0V48.5835H48V0.583496Z" fill="white"/>
<path d="M0 48.5835H48V0.583496H0V48.5835Z" fill="black"/>
<path d="M0 48.5835H48V0.583496H0V48.5835Z" fill="#0078D4"/>
<path d="M38.6875 27.2382H38.6033C38.9569 26.3365 39.159 25.359 39.159 24.3225C39.159 20.0331 35.7659 16.5528 31.5814 16.5528C30.6973 16.5528 29.8469 16.7129 29.0555 17.0079C26.9758 14.3618 23.7848 12.668 20.2149 12.668C13.9423 12.668 8.8485 17.8843 8.8485 24.3225C8.8485 25.3337 8.98322 26.3112 9.22739 27.2466C6.92042 27.3056 5.06812 29.227 5.06812 31.6034C5.06812 34.0135 6.97936 35.977 9.32842 35.977H38.6875C41.045 35.977 42.9478 34.0219 42.9478 31.6034C42.9478 29.1933 41.045 27.2382 38.6875 27.2382Z" fill="#50E6FF"/>
</svg>
