<svg data-slug-id="cloud18" viewBox="0 0 48 49" xmlns="http://www.w3.org/2000/svg">
<path d="M43.0389 7.57959H33.1245V11.5405H40.2363L25.7373 26.0395L28.5399 28.8421L43.0389 14.3512V21.463H46.9998V11.5405V7.57959H43.0389Z" fill="#0078D4"/>
<path d="M42.1157 31.3206C42.1157 25.9422 37.7579 21.5763 32.3714 21.5763C31.8611 21.5763 31.367 21.6087 30.881 21.6897C29.6012 17.7936 25.9237 14.9829 21.5983 14.9829C16.4305 14.9829 12.1942 18.9924 11.8378 24.0711C11.1412 23.8929 10.4041 23.7957 9.65082 23.7957C4.87991 23.7876 1 27.6675 1 32.4546C1 36.772 4.15901 40.3522 8.29811 41.0002L8.80842 41.065C9.09192 41.0974 32.4605 41.0488 32.4605 41.0488C37.8065 41.0164 42.1157 36.6748 42.1157 31.3206Z" fill="#50E6FF"/>
<path d="M32.3473 27.5219V25.0757H12.9072V27.5219H32.3473Z" fill="#0078D4"/>
<path d="M32.3473 32.4223V29.9761H12.9072V32.4223H32.3473Z" fill="#0078D4"/>
<path d="M32.3473 37.1366V34.6904H12.9072V37.1366H32.3473Z" fill="#0078D4"/>
</svg>
