<svg data-slug-id="cloud05" viewBox="0 0 48 49" xmlns="http://www.w3.org/2000/svg">
<path d="M41.8573 40.5508C45.3833 36.6013 47.6302 31.4644 47.9247 25.8223H43.0102C42.7325 30.1086 41.0242 34.016 38.365 37.0561L41.8573 40.5508Z" fill="#0078D4"/>
<path d="M6.15996 8.4668C2.57506 12.4331 0.302949 17.5953 0 23.288H5.1333C5.41942 19.0101 7.1193 15.1195 9.7701 12.0795L6.15996 8.4668Z" fill="#50E6FF"/>
<path d="M7.96948 42.4617C11.9415 46.0154 17.1 48.2722 22.7803 48.5501V43.5143C18.497 43.228 14.6091 41.5185 11.5712 38.8574L7.96948 42.4617Z" fill="#0078D4"/>
<path d="M0 25.8223C0.294534 31.5149 2.56665 36.6771 6.14313 40.6435L9.75327 37.0308C7.11088 33.9908 5.41942 30.1002 5.1333 25.8223H0Z" fill="#0078D4"/>
<path d="M41.8405 8.56006L38.3481 12.0548C41.0158 15.0949 42.7241 18.9938 43.0018 23.2886H47.9163C47.6217 17.638 45.3749 12.5096 41.8405 8.56006Z" fill="#50E6FF"/>
<path d="M25.3129 48.5321C30.9679 48.2205 36.1096 45.9384 40.0479 42.3762L36.5472 38.873C33.5009 41.5341 29.5962 43.2352 25.3044 43.5131V48.5321H25.3129Z" fill="#0078D4"/>
<path d="M25.313 0.591309V5.6103C29.5963 5.8882 33.4926 7.58085 36.5389 10.2335L40.0397 6.73031C36.0929 3.1766 30.9596 0.90289 25.313 0.591309Z" fill="#50E6FF"/>
<path d="M22.78 0.583496C17.0997 0.861393 11.9495 3.10983 7.97754 6.65513L11.5793 10.2594C14.6088 7.60672 18.4966 5.90565 22.7715 5.61091V0.583496H22.78Z" fill="#50E6FF"/>
<path d="M36.7912 26.3029C36.7996 26.244 36.8164 26.185 36.8248 26.1345C36.8922 25.7808 36.9258 25.4187 36.9258 25.0482C36.9258 21.8566 34.3424 19.2713 31.153 19.2713C30.707 19.2713 30.2778 19.3218 29.8654 19.4229C28.5442 17.3429 26.2301 15.9702 23.5877 15.9702C19.4894 15.9702 16.1654 19.2966 16.1654 23.3977C16.1654 23.4987 16.1654 23.5998 16.1738 23.7008C15.8036 23.5745 15.3996 23.5071 14.9789 23.5071C12.9592 23.5071 11.3267 25.1408 11.3267 27.1619C11.3267 29.0567 12.7741 30.6146 14.617 30.7998L31.153 30.8335C33.3241 30.8335 35.2091 29.6377 36.2021 27.8693C36.2274 27.8187 36.261 27.7682 36.2863 27.7177C36.4377 27.3977 36.6565 26.9177 36.7912 26.3029Z" fill="#50E6FF"/>
</svg>
