<svg data-slug-id="cloud06" viewBox="0 0 48 49" xmlns="http://www.w3.org/2000/svg">
<path d="M6.15994 8.4624C2.57506 12.4287 0.302948 17.5909 0 23.2835H5.13329C5.4194 19.0056 7.11928 15.1151 9.77007 12.0751L6.15994 8.4624Z" fill="#50E6FF"/>
<path d="M7.96924 42.4577C11.9412 46.0114 17.0998 48.2683 22.78 48.5462V43.5104C18.4967 43.2241 14.6088 41.5146 11.571 38.8535L7.96924 42.4577Z" fill="#0078D4"/>
<path d="M0 25.8179C0.294533 31.5105 2.56664 36.6727 6.14311 40.639L9.75324 37.0263C7.11086 33.9863 5.4194 30.0958 5.13329 25.8179H0Z" fill="#0078D4"/>
<path d="M41.8407 8.55615L38.3484 12.0509C41.016 15.0909 42.7243 18.9899 43.002 23.2846H47.9165C47.622 17.6341 45.3751 12.5056 41.8407 8.55615Z" fill="#50E6FF"/>
<path d="M25.313 0.587402V5.60637C29.5963 5.88427 33.4926 7.57691 36.5389 10.2296L40.0396 6.72638C36.0929 3.17268 30.9596 0.898983 25.313 0.587402Z" fill="#50E6FF"/>
<path d="M22.7802 0.57959C17.0999 0.857486 11.9498 3.10592 7.97778 6.6512L11.5795 10.2554C14.609 7.60278 18.4968 5.90172 22.7717 5.60698V0.57959H22.7802Z" fill="#50E6FF"/>
<path d="M36.7914 26.299C36.7998 26.24 36.8166 26.1811 36.825 26.1306C36.8924 25.7769 36.926 25.4148 36.926 25.0442C36.926 21.8527 34.3425 19.2674 31.1532 19.2674C30.7072 19.2674 30.278 19.3179 29.8656 19.419C28.5444 17.3389 26.2303 15.9663 23.5879 15.9663C19.4897 15.9663 16.1657 19.2926 16.1657 23.3937C16.1657 23.4948 16.1657 23.5958 16.1741 23.6969C15.8038 23.5706 15.3999 23.5032 14.9791 23.5032C12.9595 23.5032 11.3269 25.1369 11.3269 27.1579C11.3269 29.0527 12.7743 30.6106 14.6173 30.7959L31.1532 30.8295C33.3243 30.8295 35.2093 29.6337 36.2023 27.8653C36.2275 27.8148 36.2612 27.7643 36.2865 27.7137C36.4379 27.3937 36.6567 26.9137 36.7914 26.299Z" fill="#50E6FF"/>
<path d="M47.9162 25.8184H43.0017C42.926 26.972 42.7493 28.0921 42.48 29.1784C43.4056 30.1047 43.9106 31.3426 43.9021 32.6479C43.9021 34.5679 42.7913 36.2774 41.1167 37.0858V37.2795H44.3061C46.4099 33.9279 47.7058 30.0205 47.9162 25.8184Z" fill="#0078D4"/>
<path d="M29.0663 44.3708V42.8887C27.8545 43.2171 26.6006 43.4276 25.3047 43.5118V48.5308C28.3594 48.3624 31.2627 47.6213 33.905 46.4087H31.1112C29.9836 46.4087 29.0663 45.4992 29.0663 44.3708Z" fill="#0078D4"/>
<path d="M47.1925 38.5411H40.4771V44.3433H37.4981V42.9285H35.773V40.0064H37.4981V38.5327H31.111C30.6734 38.5327 30.3284 38.878 30.3284 39.3159V44.3685C30.3284 44.798 30.6734 45.1517 31.111 45.1517H34.1321H47.1925C47.6301 45.1517 47.9751 44.8064 47.9751 44.3685V39.3159C47.9835 38.8864 47.6301 38.5411 47.1925 38.5411ZM42.3285 40.9243H41.2682V39.8632H42.3285V40.9243ZM44.4491 40.9243H43.3888V39.8632H44.4491V40.9243ZM46.5698 40.9243H45.5094V39.8632H46.5698V40.9243Z" fill="#50E6FF"/>
<path d="M38.9791 28.9824C36.951 28.9824 35.3101 30.6245 35.3101 32.6456C35.3101 34.3635 36.4966 35.8035 38.0955 36.1993V40.5698H36.3367V42.3299H38.0955V43.7446H39.8543V36.1993C41.4532 35.8035 42.6397 34.3719 42.6397 32.6456C42.6481 30.6245 41.0072 28.9824 38.9791 28.9824ZM38.9791 34.5656C37.9188 34.5656 37.052 33.7067 37.052 32.6456C37.052 31.5845 37.9104 30.7256 38.9791 30.7256C40.0478 30.7256 40.9062 31.5845 40.9062 32.6456C40.9062 33.7067 40.0394 34.5656 38.9791 34.5656Z" fill="#0078D4"/>
</svg>
