<svg data-slug-id="cloud17" viewBox="0 0 48 49" xmlns="http://www.w3.org/2000/svg">
<path d="M0.0336914 18.229V5.56192H5.09475V10.0968C9.44844 4.46411 16.2527 0.841309 23.9074 0.841309C37.0527 0.841309 47.7138 11.5324 47.7138 24.7146C47.7138 37.8969 37.0527 48.5795 23.9074 48.5795C10.7621 48.5795 0.10106 37.8969 0.10106 24.7146C0.10106 24.2417 0.117902 23.7772 0.143165 23.3128H4.80002C4.76633 23.7772 4.74949 24.2417 4.74949 24.7146C4.74949 35.3212 13.3221 43.9264 23.9074 43.9264C34.4927 43.9264 43.0653 35.3297 43.0653 24.7146C43.0653 14.0996 34.4843 5.50281 23.9074 5.50281C17.6842 5.50281 12.16 8.47536 8.66529 13.0862H12.6737V18.1615H5.09475V18.229H0.0336914Z" fill="#0078D4"/>
<path d="M33.4989 25.9505C33.5999 25.5705 33.6589 25.1651 33.6589 24.7513C33.6589 22.2095 31.6041 20.1489 29.0694 20.1489C28.4799 20.1489 27.9241 20.2587 27.402 20.4614C26.1726 18.4347 23.9578 17.0835 21.4231 17.0835C17.5578 17.0835 14.4336 20.2249 14.4336 24.0926C14.4336 24.726 14.5178 25.3425 14.6778 25.9251C13.5325 26.2123 12.6904 27.2425 12.6904 28.4755C12.6904 29.928 13.861 31.1018 15.3094 31.1018H32.7915C34.2399 31.1018 35.4105 29.928 35.4105 28.4755C35.4105 27.2763 34.602 26.2629 33.4989 25.9505Z" fill="#50E6FF"/>
</svg>
