<svg data-slug-id="cloud-migration" viewBox="0 0 48 48" xmlns="http://www.w3.org/2000/svg">
	<path d="M46.4005 27.4193C46.341 25.5137 45.6064 23.6913 44.3278 22.2772C43.0492 20.863 41.3098 19.9492 39.4198 19.6986C39.3043 17.0356 38.1446 14.5251 36.1918 12.7108C34.239 10.8965 31.6502 9.92428 28.9858 10.0046C26.843 9.98215 24.7454 10.6216 22.9795 11.8356C21.2136 13.0497 19.8655 14.7792 19.1191 16.7879C16.8173 17.0555 14.69 18.147 13.1303 19.8609C11.5706 21.5747 10.6838 23.7952 10.6338 26.112C10.7678 28.6724 11.8933 31.0802 13.7718 32.8252C15.6504 34.5702 18.1344 35.5154 20.6978 35.4606H37.9645H38.4085C40.5266 35.4285 42.5482 34.5695 44.0415 33.067C45.5348 31.5644 46.3814 29.5376 46.4005 27.4193V27.4193Z" fill="url(#cloud-migration_088c0fca-da62-4129-8ed8-a37763197789)"/>
	<path d="M38.7534 29.1212C38.695 27.1645 37.9439 25.2921 36.6339 23.8375C35.3239 22.3829 33.54 21.4406 31.6 21.1785C31.4656 18.4543 30.2648 15.8924 28.2571 14.0462C26.2494 12.2 23.5959 11.2178 20.87 11.3118C18.6657 11.2646 16.5007 11.9008 14.6723 13.1329C12.8439 14.3651 11.4417 16.133 10.658 18.1938C8.32245 18.4809 6.16636 19.5931 4.57875 21.33C2.99114 23.0669 2.07656 25.314 2 27.6659C2.10278 30.3138 3.25082 32.813 5.19264 34.6161C7.13446 36.4192 9.71177 37.3792 12.36 37.2859H13.2727H30.0214H30.4654C32.6384 37.2735 34.7208 36.4131 36.2688 34.8881C37.8169 33.363 38.7084 31.2938 38.7534 29.1212V29.1212Z" fill="url(#cloud-migration_5715a010-02b7-45a0-ad91-1d7f8287f7b4)"/>
	<path d="M13.8911 24.5579H15.9877C16.0657 24.5563 16.1433 24.5708 16.2154 24.6006C16.2876 24.6303 16.3528 24.6745 16.4071 24.7306L21.3404 29.6639C21.3994 29.7193 21.4464 29.7862 21.4786 29.8604C21.5107 29.9347 21.5273 30.0147 21.5273 30.0956C21.5273 30.1765 21.5107 30.2566 21.4786 30.3308C21.4464 30.405 21.3994 30.4719 21.3404 30.5273L14.6311 37.1133C14.5759 37.1682 14.5105 37.2117 14.4386 37.2414C14.3666 37.271 14.2895 37.2861 14.2117 37.286H12.2137C12.1027 37.2679 11.9988 37.2198 11.9132 37.1469C11.8276 37.0739 11.7635 36.979 11.7279 36.8723C11.6924 36.7656 11.6867 36.6513 11.7114 36.5416C11.7362 36.4319 11.7905 36.331 11.8684 36.25L17.5664 30.4779C17.6247 30.4248 17.6714 30.36 17.7032 30.2878C17.7351 30.2156 17.7516 30.1375 17.7516 30.0586C17.7516 29.9797 17.7351 29.9016 17.7032 29.8294C17.6714 29.7572 17.6247 29.6924 17.5664 29.6393L13.4717 25.5693C13.3886 25.4865 13.332 25.3809 13.3091 25.2658C13.2861 25.1508 13.2978 25.0315 13.3428 24.9232C13.3877 24.8148 13.4638 24.7223 13.5614 24.6572C13.659 24.5922 13.7738 24.5577 13.8911 24.5579V24.5579ZM22.3517 16.2453H24.4977C24.6579 16.254 24.8083 16.3248 24.9171 16.4426L28.6911 20.2659C28.7463 20.3209 28.7901 20.3863 28.8199 20.4582C28.8498 20.5302 28.8652 20.6074 28.8652 20.6853C28.8652 20.7632 28.8498 20.8403 28.8199 20.9123C28.7901 20.9843 28.7463 21.0496 28.6911 21.1046L23.7577 25.8159C23.7026 25.8709 23.6372 25.9144 23.5653 25.944C23.4933 25.9737 23.4162 25.9888 23.3384 25.9886H21.5377C21.4231 25.9832 21.3122 25.9458 21.2176 25.8808C21.123 25.8158 21.0485 25.7256 21.0023 25.6205C20.9562 25.5154 20.9403 25.3995 20.9565 25.2859C20.9726 25.1722 21.0201 25.0654 21.0937 24.9773L24.8677 21.1786C24.9735 21.0646 25.0323 20.9148 25.0323 20.7593C25.0323 20.6037 24.9735 20.454 24.8677 20.3399L21.9324 17.3799C21.7819 17.3243 21.6597 17.2112 21.5927 17.0655C21.5256 16.9198 21.5191 16.7534 21.5747 16.6029C21.6303 16.4525 21.7434 16.3303 21.8892 16.2632C22.0349 16.1961 22.2013 16.1897 22.3517 16.2453V16.2453ZM26.7671 26.1119H28.8637C29.019 26.1207 29.1667 26.1815 29.2831 26.2846L32.3664 29.3679C32.4722 29.482 32.5309 29.6318 32.5309 29.7873C32.5309 29.9428 32.4722 30.0926 32.3664 30.2066L27.9017 34.7206C27.8475 34.7767 27.7822 34.821 27.7101 34.8507C27.6379 34.8804 27.5604 34.8949 27.4824 34.8933H25.4597C25.3424 34.8936 25.2277 34.859 25.1301 34.794C25.0325 34.7289 24.9564 34.6364 24.9114 34.528C24.8665 34.4197 24.8548 34.3004 24.8777 34.1854C24.9007 34.0704 24.9573 33.9647 25.0404 33.8819L28.5431 30.3299C28.6488 30.2159 28.7076 30.0661 28.7076 29.9106C28.7076 29.7551 28.6488 29.6053 28.5431 29.4913L26.3477 27.2466C26.2683 27.1701 26.2119 27.0728 26.1847 26.9659C26.1576 26.859 26.1609 26.7466 26.1943 26.6414C26.2276 26.5363 26.2897 26.4425 26.3734 26.3708C26.4572 26.299 26.5594 26.2521 26.6684 26.2353L26.7671 26.1119Z" fill="white"/>
	<defs>
		<linearGradient id="cloud-migration_088c0fca-da62-4129-8ed8-a37763197789" x1="28.5171" y1="34.844" x2="28.5171" y2="8.64794" gradientUnits="userSpaceOnUse">
			<stop stop-color="#0078D4"/>
			<stop offset="0.16" stop-color="#1380DA"/>
			<stop offset="0.53" stop-color="#3C91E5"/>
			<stop offset="0.82" stop-color="#559CEC"/>
			<stop offset="1" stop-color="#5EA0EF"/>
		</linearGradient>
		<linearGradient id="cloud-migration_5715a010-02b7-45a0-ad91-1d7f8287f7b4" x1="20.3767" y1="43.9705" x2="20.3767" y2="4.3805" gradientUnits="userSpaceOnUse">
			<stop stop-color="#198AB3"/>
			<stop offset="0.11" stop-color="#22A5CB"/>
			<stop offset="0.23" stop-color="#29BADE"/>
			<stop offset="0.37" stop-color="#2EC9EB"/>
			<stop offset="0.53" stop-color="#31D1F3"/>
			<stop offset="0.78" stop-color="#32D4F5"/>
		</linearGradient>
	</defs>
</svg>
