<svg data-slug-id="cloud08" viewBox="0 0 48 44" xmlns="http://www.w3.org/2000/svg">
<rect y="0.57959" width="48" height="43" rx="5" fill="#0078D4"/>
<path d="M10.1149 30.5796C7.29206 30.5796 5 28.2747 5 25.4361C5 22.8401 6.90603 20.7051 9.39111 20.3655C9.19809 19.5648 9.07746 18.7157 9.07746 17.8422C9.10159 12.165 13.6616 7.57959 19.3073 7.57959C23.1917 7.57959 26.5695 9.7874 28.3067 13.0142C29.1511 12.6017 30.1162 12.3591 31.1295 12.3591C34.6521 12.3591 37.5232 15.2463 37.5232 18.7885C37.5232 19.3222 37.4508 19.856 37.3302 20.3655C37.5232 20.3412 37.7162 20.3412 37.9092 20.3412C40.7079 20.3169 43 22.5975 43 25.4361C43 28.2747 40.7079 30.5796 37.8851 30.5796H10.1149Z" fill="#50E6FF"/>
<rect x="16" y="34.5796" width="16" height="1" fill="white"/>
</svg>
