<svg data-slug-id="cloud-gradient" viewBox="0 0 48 48" xmlns="http://www.w3.org/2000/svg">
    <path d="M46.5196 28.1628C46.4472 25.7378 45.5146 23.4175 43.8886 21.6169C42.2626 19.8163 40.0492 18.6527 37.6441 18.3341C37.4978 14.946 36.0222 11.752 33.5371 9.44442C31.052 7.1368 27.7577 5.90147 24.368 6.00615C21.6288 5.95657 18.9418 6.7591 16.6784 8.30281C14.415 9.84651 12.6871 12.0552 11.7333 14.6235C8.83344 14.974 6.15546 16.353 4.18592 18.5101C2.21638 20.6673 1.08595 23.4593 1 26.379C1.12907 29.6539 2.55099 32.744 4.95422 34.9724C7.35744 37.2008 10.546 38.3857 13.8212 38.2675C14.202 38.2675 14.5879 38.2496 14.9482 38.2189H35.7044C35.8895 38.2152 36.0733 38.1877 36.2513 38.1371C38.9185 38.1185 41.4754 37.0706 43.3886 35.2122C45.3018 33.3537 46.4234 30.8283 46.5196 28.1628V28.1628Z" fill="url(#cloud-gradient_871ec9eb-0fb8-499a-86ac-9a467c19bafb)"/>
    <defs>
        <linearGradient id="cloud-gradient_871ec9eb-0fb8-499a-86ac-9a467c19bafb" x1="23.7623" y1="38.2675" x2="23.7623" y2="6.00615" gradientUnits="userSpaceOnUse">
            <stop stop-color="#0078D4"/>
            <stop offset="0.156" stop-color="#1380DA"/>
            <stop offset="0.528" stop-color="#3C91E5"/>
            <stop offset="0.822" stop-color="#559CEC"/>
            <stop offset="1" stop-color="#5EA0EF"/>
        </linearGradient>
    </defs>
</svg>
