<svg data-slug-id="cloud09" viewBox="0 0 48 49" xmlns="http://www.w3.org/2000/svg">
<g clip-path="url(#cloud09_clip0)">
<path d="M47.7393 32.6377C47.7645 32.5282 47.7814 32.4272 47.8066 32.3177C47.9328 31.6609 48.0001 30.9788 48.0001 30.2882C48.0001 24.3261 43.1614 19.5009 37.2203 19.5009C36.3872 19.5009 35.571 19.5935 34.8136 19.7788C32.3564 15.8967 28.0226 13.3198 23.0829 13.3198C15.4167 13.3198 9.21474 19.543 9.21474 27.1977C9.21474 27.3914 9.21474 27.5767 9.22315 27.7619C8.5247 27.5261 7.77575 27.3914 7.00156 27.3914C3.22315 27.3914 0.168457 30.4482 0.168457 34.2293C0.168457 37.7746 2.8613 40.6882 6.31993 41.0251L37.2203 41.084C41.2849 41.084 44.8108 38.844 46.6453 35.5346C46.6958 35.4419 46.7463 35.3493 46.7968 35.2482C47.0745 34.684 47.4868 33.7914 47.7393 32.6377Z" fill="#0078D4"/>
<path d="M37.9858 13.3033H47.9073V3.3833H37.9858V13.3033Z" fill="#50E6FF"/>
<path d="M35.3101 15.7021H17.6467V20.8221H26.6678L12.0591 35.4327L15.6608 39.0369L30.2695 24.4264V33.4453H35.3943V15.7021H35.3101Z" fill="#50E6FF"/>
</g>
<defs>
<clipPath id="cloud09_clip0">
<rect y="0.57959" width="48" height="48" fill="white"/>
</clipPath>
</defs>
</svg>
