<svg data-slug-id="cloud-path-purple" viewBox="0 0 48 48" xmlns="http://www.w3.org/2000/svg">
	<path d="M37.7599 33.2021C39.7334 33.2021 41.3332 31.6022 41.3332 29.6288C41.3332 27.6553 39.7334 26.0554 37.7599 26.0554C35.7864 26.0554 34.1865 27.6553 34.1865 29.6288C34.1865 31.6022 35.7864 33.2021 37.7599 33.2021Z" fill="#9CEBFF"/>
	<path d="M37.7599 23.2821C36.4133 23.2608 35.0954 23.6721 33.9999 24.4554L22.1333 16.1088L3.09326 29.6288L22.1333 44.0821L34.2133 34.9088C35.2659 35.6032 36.4989 35.974 37.7599 35.9754C39.4432 35.9754 41.0575 35.3068 42.2477 34.1165C43.4379 32.9263 44.1066 31.312 44.1066 29.6288C44.1066 27.9455 43.4379 26.3312 42.2477 25.141C41.0575 23.9508 39.4432 23.2821 37.7599 23.2821ZM22.1333 40.6154L7.75993 29.7888L22.1333 19.4954L32.2133 26.6421C31.7167 27.5588 31.4599 28.5862 31.4666 29.6288C31.4233 30.7602 31.681 31.8828 32.2133 32.8821L22.1333 40.6154ZM37.7599 33.2821C37.2629 33.325 36.7624 33.2641 36.2902 33.1034C35.818 32.9426 35.3843 32.6854 35.0167 32.3482C34.6491 32.011 34.3556 31.601 34.1548 31.1444C33.9541 30.6877 33.8504 30.1943 33.8504 29.6954C33.8504 29.1966 33.9541 28.7032 34.1548 28.2465C34.3556 27.7898 34.6491 27.3799 35.0167 27.0427C35.3843 26.7054 35.818 26.4483 36.2902 26.2875C36.7624 26.1267 37.2629 26.0659 37.7599 26.1088C38.6578 26.1863 39.4939 26.5977 40.1031 27.2617C40.7124 27.9258 41.0504 28.7942 41.0504 29.6954C41.0504 30.5966 40.7124 31.465 40.1031 32.1291C39.4939 32.7932 38.6578 33.2046 37.7599 33.2821Z" fill="#50E6FF"/>
	<path d="M22.1331 22.0285C24.6221 22.0285 26.6398 20.0108 26.6398 17.5218C26.6398 15.0328 24.6221 13.0151 22.1331 13.0151C19.6442 13.0151 17.6265 15.0328 17.6265 17.5218C17.6265 20.0108 19.6442 22.0285 22.1331 22.0285Z" fill="url(#cloud-path-purple_85991)"/>
	<path d="M6.50667 34.1346C8.99563 34.1346 11.0133 32.1168 11.0133 29.6279C11.0133 27.1389 8.99563 25.1212 6.50667 25.1212C4.0177 25.1212 2 27.1389 2 29.6279C2 32.1168 4.0177 34.1346 6.50667 34.1346Z" fill="url(#cloud-path-purple_85992)"/>
	<path d="M22.1331 47.1217C24.6221 47.1217 26.6398 45.104 26.6398 42.6151C26.6398 40.1261 24.6221 38.1084 22.1331 38.1084C19.6442 38.1084 17.6265 40.1261 17.6265 42.6151C17.6265 45.104 19.6442 47.1217 22.1331 47.1217Z" fill="url(#cloud-path-purple_85993)"/>
	<path d="M37.7598 1.78833C36.5748 1.82251 35.4085 2.09218 34.3288 2.58164C33.2491 3.07111 32.2777 3.77056 31.471 4.63925C30.6644 5.50794 30.0387 6.52849 29.6305 7.64143C29.2222 8.75436 29.0395 9.93742 29.0931 11.1217C29.0931 15.2017 34.2664 24.7483 36.6131 30.455C36.7059 30.6792 36.8632 30.8708 37.0649 31.0056C37.2666 31.1404 37.5038 31.2123 37.7464 31.2123C37.9891 31.2123 38.2263 31.1404 38.428 31.0056C38.6297 30.8708 38.7869 30.6792 38.8798 30.455C41.2531 24.695 46.4264 15.0683 46.4264 11.1217C46.4988 8.73902 45.63 6.42372 44.008 4.67693C42.3859 2.93014 40.1412 1.8924 37.7598 1.78833ZM37.7598 14.4283C36.9928 14.4336 36.2415 14.2106 35.6016 13.7878C34.9617 13.365 34.4619 12.7613 34.166 12.0537C33.87 11.3461 33.7912 10.5665 33.9395 9.81392C34.0879 9.06139 34.4567 8.36997 34.9991 7.82761C35.5414 7.28524 36.2328 6.91644 36.9854 6.76809C37.7379 6.61975 38.5176 6.69857 39.2252 6.99453C39.9328 7.29048 40.5364 7.79021 40.9592 8.43015C41.3821 9.07009 41.6051 9.82133 41.5998 10.5883C41.5998 11.6068 41.1952 12.5835 40.4751 13.3036C39.7549 14.0238 38.7782 14.4283 37.7598 14.4283Z" fill="url(#cloud-path-purple_85994)"/>
	<defs>
		<linearGradient id="cloud-path-purple_85991" x1="22.1331" y1="22.0285" x2="22.1331" y2="13.0151" gradientUnits="userSpaceOnUse">
			<stop stop-color="#773ADC"/>
			<stop offset="1" stop-color="#B77AF4"/>
		</linearGradient>
		<linearGradient id="cloud-path-purple_85992" x1="6.50667" y1="34.1346" x2="6.50667" y2="25.1212" gradientUnits="userSpaceOnUse">
			<stop stop-color="#773ADC"/>
			<stop offset="1" stop-color="#B77AF4"/>
		</linearGradient>
		<linearGradient id="cloud-path-purple_85993" x1="22.1331" y1="47.1217" x2="22.1331" y2="38.1084" gradientUnits="userSpaceOnUse">
			<stop stop-color="#773ADC"/>
			<stop offset="1" stop-color="#B77AF4"/>
		</linearGradient>
		<linearGradient id="cloud-path-purple_85994" x1="37.7598" y1="1.78833" x2="37.7598" y2="31.2283" gradientUnits="userSpaceOnUse">
			<stop stop-color="#B77AF4"/>
			<stop offset="0.62" stop-color="#8C4FE4"/>
			<stop offset="1" stop-color="#773ADC"/>
		</linearGradient>
	</defs>
</svg>
