<svg data-slug-id="cloud16" viewBox="0 0 48 49" xmlns="http://www.w3.org/2000/svg">
<path d="M46.7274 23.0537C46.7621 20.3315 45.7146 17.707 43.8151 15.7569C41.9156 13.8067 39.3195 12.6906 36.5974 12.6537C35.6703 12.6549 34.748 12.7861 33.8574 13.0437C32.3447 10.4638 29.9936 8.48018 27.1959 7.42341C24.3982 6.36663 21.3228 6.30051 18.4822 7.23606C15.6417 8.17161 13.2075 10.0523 11.5853 12.5648C9.96315 15.0773 9.25096 18.0698 9.56742 21.0437C8.69505 20.7297 7.76488 20.609 6.84126 20.6899C5.91765 20.7709 5.02265 21.0515 4.2182 21.5125C3.41374 21.9734 2.71904 22.6036 2.18217 23.3595C1.64529 24.1154 1.27906 24.9789 1.10882 25.8903C0.938573 26.8017 0.968382 27.7392 1.19618 28.6379C1.42398 29.5367 1.84433 30.3752 2.42814 31.0954C3.01195 31.8157 3.74528 32.4005 4.57739 32.8094C5.40951 33.2183 6.32053 33.4416 7.24742 33.4637H37.1274C39.7569 33.2896 42.2192 32.1124 44.0057 30.1752C45.7922 28.238 46.7665 25.6886 46.7274 23.0537Z" fill="#0078D4"/>
<path d="M15.4677 27.8063H14.6377V18.9663H18.7877V19.6963H15.4677V22.9263H18.6077V23.6663H15.4677V27.8063Z" fill="white" stroke="white" stroke-width="0.41" stroke-miterlimit="10"/>
<path d="M20.3574 27.8063V18.9663H21.1774V22.9263H25.6974V18.9663H26.5274V27.8063H25.6974V23.6663H21.1774V27.8063H20.3574Z" fill="white" stroke="white" stroke-width="0.41" stroke-miterlimit="10"/>
<path d="M29.4775 18.9663H28.6475V27.8163H29.4775V18.9663Z" fill="white" stroke="white" stroke-width="0.41" stroke-miterlimit="10"/>
<path d="M36.0172 25.0466C35.4672 23.2966 34.6572 23.2966 34.6572 23.2966C36.5872 23.2966 36.4972 21.1766 36.4972 21.1766C36.5109 20.8886 36.4655 20.6009 36.3637 20.3313C36.2619 20.0616 36.1059 19.8156 35.9054 19.6085C35.7049 19.4014 35.4641 19.2376 35.1978 19.1272C34.9315 19.0168 34.6455 18.9621 34.3572 18.9666H31.6572V27.8066H32.4872V23.6666H33.7772C34.4172 23.6666 34.7772 24.5866 34.7772 24.5866L36.1672 27.8066H37.0872C36.6404 26.9241 36.282 25.9996 36.0172 25.0466ZM33.8072 22.8366H32.5172V19.6966H33.9872C35.7372 19.6966 35.5572 21.1766 35.5572 21.1766C35.5757 21.4071 35.5423 21.6389 35.4595 21.8549C35.3767 22.0708 35.2467 22.2655 35.0789 22.4247C34.9111 22.5839 34.7098 22.7035 34.4897 22.7748C34.2697 22.846 34.0365 22.8671 33.8072 22.8366Z" fill="white" stroke="white" stroke-width="0.41" stroke-miterlimit="10"/>
<path d="M23.9473 42.5754C35.3851 42.5754 44.6573 41.8322 44.6573 40.9154C44.6573 39.9986 35.3851 39.2554 23.9473 39.2554C12.5095 39.2554 3.2373 39.9986 3.2373 40.9154C3.2373 41.8322 12.5095 42.5754 23.9473 42.5754Z" fill="#50E6FF"/>
</svg>
