<svg data-slug-id="cloud15" viewBox="0 0 48 49" xmlns="http://www.w3.org/2000/svg">
<path d="M22.7244 0.57959H0V23.3164H22.7244V0.57959Z" fill="#0078D4"/>
<path d="M22.7244 25.8413H0V48.5782H22.7244V25.8413Z" fill="#0078D4"/>
<path d="M47.9998 25.8413H25.2754V48.5782H47.9998V25.8413Z" fill="#0078D4"/>
<path d="M22.7244 25.8413H0V48.5782H22.7244V25.8413Z" fill="#0078D4"/>
<path d="M44.4134 13.7406H44.3713C44.565 13.269 44.666 12.7637 44.666 12.2248C44.666 9.9932 42.8558 8.18267 40.6246 8.18267C40.1531 8.18267 39.6985 8.26688 39.2775 8.41004C38.1661 7.03741 36.4738 6.16162 34.571 6.16162C31.2284 6.16162 28.5173 8.8732 28.5173 12.2164C28.5173 12.7385 28.5846 13.2521 28.7109 13.7321C27.4817 13.7658 26.4966 14.7679 26.4966 16.0058C26.4966 17.2606 27.5154 18.2795 28.7699 18.2795H44.4219C45.6764 18.2795 46.6951 17.2606 46.6951 16.0058C46.6867 14.7595 45.6679 13.7406 44.4134 13.7406Z" fill="#50E6FF"/>
</svg>
