<svg data-slug-id="cloud07" viewBox="0 0 49 49" xmlns="http://www.w3.org/2000/svg">
<path d="M41.5287 29.4244C44.9522 29.4244 47.7321 26.6464 47.7321 23.2249C47.7321 20.0959 45.4204 17.5226 42.4065 17.1132C42.6406 16.1481 42.7869 15.1246 42.7869 14.0719C42.7576 7.22906 37.2272 1.70215 30.38 1.70215C25.6689 1.70215 21.5723 4.36325 19.4655 8.25256C18.4414 7.75543 17.2709 7.463 16.0419 7.463C11.7697 7.463 8.28762 10.9429 8.28762 15.2124C8.28762 15.8557 8.3754 16.4991 8.52171 17.1132C8.28762 17.0839 8.05353 17.0839 7.81944 17.0839C4.4251 17.0547 1.64526 19.8035 1.64526 23.2249C1.64526 26.6464 4.4251 29.4244 7.8487 29.4244H41.5287Z" fill="#0078D4"/>
<path d="M31.1116 34.1909C29.3852 36.7643 24.7326 41.7941 24.7326 41.7941C24.7326 41.7941 19.0559 36.2672 17.7391 33.4891C16.949 31.8515 16.3638 30.594 15.9834 29.4243H11.1553C11.799 31.793 12.9987 34.9512 14.5496 37.1737C16.715 40.3027 18.3536 41.8818 19.9337 43.4902C21.5138 45.0985 24.7326 47.7889 24.7326 47.7889C24.7326 47.7889 29.7071 43.4024 31.5798 41.0922C33.4525 38.782 36.4665 34.7173 37.2858 32.1731C37.6369 31.0619 37.9003 30.2139 38.1051 29.4243H33.2769C32.8673 31.0034 32.1943 32.641 31.1116 34.1909Z" fill="#0078D4"/>
<path d="M38.6026 18.4583C38.6026 18.4583 37.4614 18.5168 36.8762 18.3706C35.7935 18.1366 33.8915 17.1424 31.9895 15.651C30.0875 14.1596 27.1614 12.522 24.7327 12.522C22.304 12.522 19.6997 14.0426 18.2074 15.2123C16.715 16.382 14.4034 18.2243 12.7062 18.2828C11.6821 18.3121 10.6287 18.2828 10.6287 18.2828C10.6287 18.2828 10.6287 24.9795 10.6287 26.6171C10.6287 27.1727 10.8042 28.1962 11.1554 29.4244H16.042C15.7787 28.6348 15.6324 27.8745 15.5446 27.0557C15.369 25.0379 15.4568 22.1429 15.4568 22.1429C15.4568 22.1429 16.6565 22.1429 17.5929 21.5288C18.5293 20.9147 20.519 19.4525 21.7773 18.546C22.5966 17.9319 23.65 17.3763 24.4693 17.3763C25.2887 17.3763 25.9032 17.1424 28.1855 18.8677C30.4679 20.593 30.9654 20.8562 31.6091 21.1779C32.2822 21.4995 33.6282 22.0844 33.6282 22.0844C33.6282 22.0844 33.8038 24.687 33.716 26.4124C33.6574 27.3774 33.5111 28.3716 33.2478 29.3951H38.0759C38.3393 28.3131 38.4856 27.3481 38.5441 26.003C38.6904 23.6635 38.6026 18.4583 38.6026 18.4583Z" fill="#50E6FF"/>
</svg>
