<svg data-slug-id="cloud03" viewBox="0 0 48 49" xmlns="http://www.w3.org/2000/svg">
<path d="M29.1856 40.2261H0.5V11.5405H29.1856V40.2261Z" fill="#0078D7"/>
<path d="M47.4908 28.8079H30.2234V11.5405H47.5002V28.8079H47.4908Z" fill="#0078D7"/>
<path d="M40.4175 40.325H30.158V30.0654H40.4175V40.325Z" fill="#0078D7"/>
<path d="M47.5 36.0361H41.5293V30.0654H47.5V36.0361Z" fill="#0078D7"/>
<path d="M47.5001 40.1239H44.2205V36.8442H47.5001V40.1239Z" fill="#0078D7"/>
<path d="M21.0658 23.3016C21.0658 20.6947 18.9541 18.583 16.3471 18.583C14.0953 18.583 12.2172 20.1528 11.75 22.2645C11.2828 21.7786 10.6287 21.4796 9.90924 21.4796C8.48898 21.4796 7.33968 22.6289 7.33968 24.0492C7.33968 24.0678 7.33968 24.0959 7.33968 24.1146C5.76992 24.4229 4.58325 25.8058 4.58325 27.469C4.58325 29.3565 6.11564 30.8888 8.0031 30.8888H22.0375C23.7475 30.8888 25.1397 29.4966 25.1397 27.7867C25.1397 26.0768 23.7475 24.6845 22.0375 24.6845C21.5797 24.6845 21.1499 24.7873 20.7574 24.9649C20.9537 24.4509 21.0658 23.8903 21.0658 23.3016Z" fill="#50E6FF"/>
</svg>
