<svg data-slug-id="cloud04" viewBox="0 0 48 49" xmlns="http://www.w3.org/2000/svg">
<path d="M35.3284 10.8359C34.7639 5.07942 29.8939 0.583496 23.9707 0.583496C17.7105 0.583496 12.6215 5.61726 12.5625 11.8527V20.1219L17.6347 20.1387V11.8191L17.6263 11.8107C17.7274 8.41565 20.5163 5.68448 23.9455 5.68448C27.3747 5.68448 30.1635 8.40725 30.2647 11.8107V20.1303H35.3032V11.8275C35.32 11.4325 35.3453 11.0208 35.3284 10.8359Z" fill="#50E6FF"/>
<path d="M40.3837 48.4938H7.55762V18.2324H40.3837V48.4938Z" fill="#0078D4"/>
<path d="M32.8008 33.6607H32.7081C32.7587 33.4002 32.7924 33.1312 32.7924 32.8539C32.7924 30.6018 30.964 28.7782 28.706 28.7782C27.8971 28.7782 27.1472 29.0135 26.5153 29.4084C25.5043 27.1143 23.2041 25.5176 20.5332 25.5176C16.927 25.5176 13.9949 28.4336 13.9949 32.0388C13.9949 32.627 14.0707 33.1985 14.2224 33.7363C13.1608 34.0052 12.3772 34.9632 12.3772 36.1061C12.3772 37.4591 13.4725 38.5516 14.829 38.5516H20.2214C20.3225 38.56 20.4236 38.56 20.5247 38.56C20.6258 38.56 20.727 38.56 20.8281 38.5516H32.7924C34.1489 38.5516 35.2442 37.4591 35.2442 36.1061C35.2527 34.7531 34.1489 33.6607 32.8008 33.6607Z" fill="white"/>
</svg>
