<svg data-slug-id="code05" viewBox="0 0 48 49" xmlns="http://www.w3.org/2000/svg">
<path d="M12.5527 42.9881H45.4166V0.0742188H12.5527V42.9881Z" fill="#50E6FF"/>
<path d="M2.53271 48.0741H35.3966V5.16016H2.53271V48.0741Z" fill="#0078D4"/>
<path d="M13.3971 37.859C11.9789 37.859 10.9321 37.5554 10.2652 36.9481C9.59832 36.3408 9.2691 35.3456 9.2691 33.9708V30.5802C9.2691 29.062 8.6444 28.3029 7.39502 28.3029V26.4389C8.6444 26.4389 9.2691 25.6377 9.2691 24.0436V20.8638C9.2691 19.5059 9.60677 18.5022 10.2821 17.8528C10.9575 17.2033 11.9958 16.8828 13.3887 16.8828V18.7468C12.1393 18.7468 11.5146 19.4637 11.5146 20.8891V23.9171C11.5146 25.7389 10.8899 26.8775 9.64053 27.333V27.3836C10.8899 27.7884 11.5146 28.9017 11.5146 30.7236V33.7346C11.5146 34.5106 11.6581 35.0841 11.9451 35.4468C12.2322 35.8095 12.7133 35.9866 13.3887 35.9866V37.859H13.3971Z" fill="#50E6FF"/>
<path d="M24.3374 35.9944C25.0127 35.9944 25.5024 35.8173 25.7809 35.4546C26.068 35.0919 26.2115 34.5268 26.2115 33.7424V30.7314C26.2115 28.9096 26.8362 27.7962 28.0856 27.3914V27.3408C26.8362 26.8853 26.2115 25.7467 26.2115 23.9249V20.8969C26.2115 19.4631 25.5868 18.7546 24.3374 18.7546V16.8906C25.7387 16.8906 26.7686 17.2111 27.4524 17.8606C28.1362 18.51 28.4654 19.5137 28.4654 20.8716V24.0514C28.4654 25.6455 29.0901 26.4467 30.3395 26.4467V28.3107C29.0901 28.3107 28.4654 29.0698 28.4654 30.588V33.9786C28.4654 35.3534 28.1362 36.3486 27.4693 36.9559C26.8024 37.5632 25.7641 37.8668 24.3374 37.8668V35.9944Z" fill="#50E6FF"/>
</svg>
