<svg data-slug-id="code11" viewBox="0 0 49 48" xmlns="http://www.w3.org/2000/svg">
<path d="M0.134766 38.6656H48.1348V1.76562H0.134766V38.6656Z" fill="#0078D4"/>
<path d="M0.134766 5.76562H48.1348V0.765625H0.134766V5.76562Z" fill="#50E6FF"/>
<path d="M7.63457 4.56602C8.33457 4.56602 8.8346 4.06602 8.8346 3.36602C8.8346 2.66602 8.23457 2.16602 7.63457 2.16602C6.93457 2.16602 6.43457 2.66602 6.43457 3.36602C6.43457 4.06602 6.93457 4.56602 7.63457 4.56602Z" fill="#0078D4"/>
<path d="M3.83477 4.56602C4.53477 4.56602 5.03477 4.06602 5.03477 3.36602C5.03477 2.66602 4.53477 2.16602 3.83477 2.16602C3.13477 2.16602 2.63477 2.66602 2.63477 3.36602C2.63477 4.06602 3.13477 4.56602 3.83477 4.56602Z" fill="#0078D4"/>
<path d="M11.4349 4.56602C12.1349 4.56602 12.6349 4.06602 12.6349 3.36602C12.6349 2.66602 12.1349 2.16602 11.4349 2.16602C10.7349 2.16602 10.2349 2.66602 10.2349 3.36602C10.2349 4.06602 10.8349 4.56602 11.4349 4.56602Z" fill="#0078D4"/>
<path d="M20.8346 14.8656L11.9346 23.7656L15.5346 27.3656L21.9346 20.9656V47.0656H27.0346V20.9656L33.4346 27.3656L37.0346 23.7656L28.1346 14.8656L24.5346 11.2656L20.8346 14.8656Z" fill="#50E6FF"/>
</svg>
