<svg data-slug-id="code02" viewBox="0 0 48 49" xmlns="http://www.w3.org/2000/svg">
<path d="M0 43.0454H48V6.08545H0V43.0454Z" fill="#0078D4"/>
<path d="M0 10.0758H47.9832V5.07373H0V10.0758Z" fill="#50E6FF"/>
<path d="M7.47789 8.89865C8.15226 8.89865 8.69894 8.35196 8.69894 7.6776C8.69894 7.00323 8.15226 6.45654 7.47789 6.45654C6.80352 6.45654 6.25684 7.00323 6.25684 7.6776C6.25684 8.35196 6.80352 8.89865 7.47789 8.89865Z" fill="#0078D4"/>
<path d="M3.68834 8.89865C4.36271 8.89865 4.90939 8.35196 4.90939 7.6776C4.90939 7.00323 4.36271 6.45654 3.68834 6.45654C3.01397 6.45654 2.46729 7.00323 2.46729 7.6776C2.46729 8.35196 3.01397 8.89865 3.68834 8.89865Z" fill="#0078D4"/>
<path d="M11.3514 8.89865C12.0258 8.89865 12.5725 8.35196 12.5725 7.6776C12.5725 7.00323 12.0258 6.45654 11.3514 6.45654C10.6771 6.45654 10.1304 7.00323 10.1304 7.6776C10.1304 8.35196 10.6771 8.89865 11.3514 8.89865Z" fill="#0078D4"/>
<path d="M35.2503 17.6479L33.4482 19.4501L39.284 25.2858L33.3809 31.189L35.183 32.9911L42.8882 25.2858L35.2503 17.6479Z" fill="#50E6FF"/>
<path d="M12.5896 32.9911L14.4001 31.189L8.56429 25.3532L14.4674 19.4501L12.6653 17.6479L4.95166 25.3532L12.5896 32.9911Z" fill="#50E6FF"/>
<path d="M31.5537 27.8871C32.9582 27.8871 34.0968 26.7485 34.0968 25.3439C34.0968 23.9394 32.9582 22.8008 31.5537 22.8008C30.1491 22.8008 29.0105 23.9394 29.0105 25.3439C29.0105 26.7485 30.1491 27.8871 31.5537 27.8871Z" fill="white"/>
<path d="M23.8903 27.8871C25.2949 27.8871 26.4335 26.7485 26.4335 25.3439C26.4335 23.9394 25.2949 22.8008 23.8903 22.8008C22.4858 22.8008 21.3472 23.9394 21.3472 25.3439C21.3472 26.7485 22.4858 27.8871 23.8903 27.8871Z" fill="white"/>
<path d="M16.3957 27.8871C17.8002 27.8871 18.9389 26.7485 18.9389 25.3439C18.9389 23.9394 17.8002 22.8008 16.3957 22.8008C14.9911 22.8008 13.8525 23.9394 13.8525 25.3439C13.8525 26.7485 14.9911 27.8871 16.3957 27.8871Z" fill="white"/>
</svg>
