<svg data-slug-id="code06" viewBox="0 0 48 49" xmlns="http://www.w3.org/2000/svg">
<path d="M47.992 10.0542H0.0256348V40.5131H47.992V10.0542Z" fill="#0078D4"/>
<path d="M48.0006 5.14453H0.0090332V10.1887H48.0006V5.14453Z" fill="#50E6FF"/>
<path d="M12.5774 30.0675C15.8325 30.0675 18.4713 27.4246 18.4713 24.1644C18.4713 20.9042 15.8325 18.2612 12.5774 18.2612C9.32236 18.2612 6.68359 20.9042 6.68359 24.1644C6.68359 27.4246 9.32236 30.0675 12.5774 30.0675Z" fill="#0078D4"/>
<path d="M21.3982 25.1V23.2305H19.4812C19.313 22.001 18.8338 20.8726 18.1191 19.9294L19.4728 18.5736L18.1612 17.26L16.8075 18.6158C15.8658 17.9 14.7392 17.4115 13.5117 17.2515V15.3315H11.6536V17.2515C10.426 17.42 9.29938 17.9 8.35771 18.6158L7.00405 17.26L5.69244 18.5736L7.04609 19.9294C6.32302 20.8726 5.83537 22.001 5.67562 23.2305H3.75024V25.0915H5.66722C5.83537 26.321 6.31462 27.4494 7.02928 28.3926L5.67562 29.7484L6.98724 31.0621L8.34089 29.7063C9.28256 30.4221 10.4092 30.9105 11.6367 31.0705V32.9989H13.4949V31.0789C14.7224 30.9105 15.849 30.4305 16.7907 29.7147L18.1444 31.0705L19.456 29.7568L18.1023 28.401C18.817 27.4579 19.3046 26.3294 19.4644 25.1H21.3982ZM7.47489 24.1652C7.47489 22.801 8.00458 21.5126 8.97147 20.5526C9.93837 19.5842 11.2163 19.0536 12.5784 19.0536C13.9405 19.0536 15.2269 19.5842 16.1853 20.5526C17.1522 21.521 17.6819 22.801 17.6819 24.1652C17.6819 25.5294 17.1522 26.8179 16.1853 27.7779C15.2184 28.7463 13.9405 29.2768 12.5784 29.2768C11.2163 29.2768 9.92996 28.7463 8.97147 27.7779C8.00458 26.8179 7.47489 25.5294 7.47489 24.1652Z" fill="#50E6FF"/>
<path d="M13.1836 22.8616H13.0827L14.8819 18.4995H11.9981L10.0391 24.4195H12.4437H12.595L10.6024 29.6658L15.6891 22.8616H13.1836Z" fill="#50E6FF"/>
<path d="M42.8885 15.1909H25.3079V17.7004H42.8885V15.1909Z" fill="#50E6FF"/>
<path d="M40.4166 22.8008H25.3079V25.3103H40.4166V22.8008Z" fill="#50E6FF"/>
<path d="M37.8439 30.3823H25.3079V32.8918H37.8439V30.3823Z" fill="#50E6FF"/>
</svg>
