<svg data-slug-id="code14" viewBox="0 0 48 48" xmlns="http://www.w3.org/2000/svg">
<path d="M15.0088 14.9983L13.2485 13.238L2.53503 23.9515L13.2569 34.6734L15.0256 32.9046L6.06407 23.9431L15.0088 14.9983Z" fill="#50E6FF"/>
<path d="M33.0839 33.0334L34.8442 34.7937L45.6082 24.0297L34.7853 13.2068L33.025 14.9755L42.0792 24.0297L33.0839 33.0334Z" fill="#50E6FF"/>
<path d="M16.4747 26.3956C17.8655 26.3956 18.993 25.2681 18.993 23.8772C18.993 22.4864 17.8655 21.3589 16.4747 21.3589C15.0839 21.3589 13.9564 22.4864 13.9564 23.8772C13.9564 25.2681 15.0839 26.3956 16.4747 26.3956Z" fill="#0078D4"/>
<path d="M24.021 26.3956C25.4118 26.3956 26.5393 25.2681 26.5393 23.8772C26.5393 22.4864 25.4118 21.3589 24.021 21.3589C22.6301 21.3589 21.5026 22.4864 21.5026 23.8772C21.5026 25.2681 22.6301 26.3956 24.021 26.3956Z" fill="#0078D4"/>
<path d="M31.6181 26.3956C33.009 26.3956 34.1365 25.2681 34.1365 23.8772C34.1365 22.4864 33.009 21.3589 31.6181 21.3589C30.2273 21.3589 29.0998 22.4864 29.0998 23.8772C29.0998 25.2681 30.2273 26.3956 31.6181 26.3956Z" fill="#50E6FF"/>
</svg>
