<svg data-slug-id="code09" viewBox="0 0 48 48" xmlns="http://www.w3.org/2000/svg">
<path d="M38.0091 5.16797H27.9092V15.2799H38.0175L38.0091 5.16797Z" fill="#50E6FF"/>
<path d="M40.4839 37.9141H32.8584V45.5506H40.4923L40.4839 37.9141Z" fill="#50E6FF"/>
<path d="M25.2495 17.7656H17.624V25.4022H25.2579L25.2495 17.7656Z" fill="#50E6FF"/>
<path d="M17.6917 32.7422H7.5918V42.8541H17.7002V32.7422H17.6917Z" fill="#50E6FF"/>
<path d="M10.1843 12.6719H0.0927734V22.7838H10.2011V12.6719H10.1843Z" fill="#50E6FF"/>
<path d="M15.2258 25.8906H0.134766V40.9953H15.2342V25.8906H15.2258Z" fill="#0078D4"/>
<path d="M47.9578 10.2148H32.791V25.3869H47.9578V10.2148Z" fill="#0078D4"/>
<path d="M22.7753 5.16797H7.28027V20.6684H22.7753V5.16797Z" fill="#0078D4"/>
<path d="M35.4003 30.3867H20.2588V45.5335H35.4003V30.3867Z" fill="#0078D4"/>
<path d="M37.3613 17.3362C37.6727 17.3362 37.8747 17.3951 37.9757 17.5046C38.0767 17.614 38.102 17.8161 38.0515 18.0855C37.9926 18.3718 37.8832 18.5739 37.7232 18.7002C37.5633 18.8264 37.3192 18.8854 36.991 18.8854H36.5028L36.8058 17.3362H37.3613ZM35.375 20.4683H36.1914L36.385 19.4832H37.0836C37.3866 19.4832 37.6391 19.4495 37.8411 19.3906C38.0431 19.3232 38.2198 19.2222 38.3797 19.0706C38.5144 18.9443 38.6238 18.8096 38.708 18.6581C38.7922 18.5065 38.8511 18.3381 38.8847 18.1613C38.9689 17.7235 38.9016 17.3783 38.6912 17.1341C38.4723 16.8899 38.1357 16.7636 37.6643 16.7636H36.0988L35.375 20.4683ZM39.4907 15.7617H40.2987L40.1051 16.7468H40.8206C41.2751 16.7468 41.5865 16.8226 41.7548 16.9826C41.9231 17.1425 41.9821 17.3951 41.9063 17.7403L41.5696 19.4663H40.7532L41.0731 17.8245C41.1067 17.6393 41.0983 17.513 41.031 17.4456C40.9636 17.3783 40.829 17.3446 40.627 17.3446H39.9873L39.5749 19.4663H38.7669L39.4907 15.7617ZM43.7159 17.3362C44.0273 17.3362 44.2293 17.3951 44.3303 17.5046C44.4313 17.614 44.4565 17.8161 44.406 18.0855C44.3471 18.3718 44.2377 18.5739 44.0778 18.7002C43.9179 18.8264 43.6738 18.8854 43.3455 18.8854H42.849L43.152 17.3362H43.7159ZM41.7296 20.4683H42.546L42.7311 19.4832H43.4297C43.7411 19.4832 43.9852 19.4495 44.1872 19.3906C44.3892 19.3232 44.566 19.2222 44.7259 19.0706C44.8605 18.9443 44.97 18.8096 45.0541 18.6581C45.1383 18.5065 45.1972 18.3381 45.2309 18.1613C45.315 17.7235 45.2477 17.3783 45.0373 17.1341C44.8185 16.8899 44.4818 16.7636 44.0105 16.7636H42.445L41.7296 20.4683Z" fill="white"/>
<path d="M29.8872 36.9551C29.601 37.0898 28.953 37.2161 28.1786 37.2666C27.1434 37.3508 26.2933 37.2666 26.2765 37.1067C26.2765 37.0225 26.6805 36.8457 27.1434 36.7109C26.2765 36.7783 25.6368 36.9551 25.6536 37.1488C25.6705 37.3761 26.6131 37.5276 27.7999 37.5024C28.9782 37.4771 29.9293 37.2414 29.9209 37.014C29.9125 36.9972 29.8956 36.9719 29.8872 36.9551Z" fill="white"/>
<path d="M28.3554 38.0661C27.4296 38.1587 26.6553 38.0661 26.6468 37.864C26.63 37.7967 26.731 37.7125 26.8909 37.6367C26.5374 37.7293 26.3102 37.864 26.3186 37.9903C26.3354 38.2513 27.1434 38.4113 28.1366 38.3861C28.751 38.3608 29.2728 38.2598 29.6011 38.1419L29.3065 37.9146C29.0287 37.9735 28.7005 38.024 28.3554 38.0661Z" fill="white"/>
<path d="M30.8048 39.3601C30.7795 39.4274 30.7374 39.5116 30.6785 39.5621C30.6364 39.6042 30.5523 39.6463 30.4765 39.6716C30.2072 39.8063 29.4076 39.9158 28.4144 39.941C28.2882 39.941 28.1872 39.941 28.0609 39.941C26.6806 39.941 25.4686 39.8063 25.4686 39.6042C25.4686 39.4948 25.8389 39.3769 26.285 39.3095L26.1924 39.2422C25.477 39.3095 24.9468 39.5285 24.9468 39.7305V39.7474C24.972 40.0084 25.7632 40.1431 26.7816 40.2104C27.1183 40.2357 27.497 40.2273 27.8842 40.2273C29.5507 40.2273 30.9226 39.9158 30.9226 39.52C30.8889 39.4527 30.8637 39.4106 30.8048 39.3601Z" fill="white"/>
<path d="M31.2678 39.707C31.1415 40.1112 29.8538 40.4816 28.2209 40.4816C27.7159 40.4816 26.8911 40.4311 26.0747 40.3469C26.6302 40.5658 27.1605 40.6584 28.2294 40.6584C29.9379 40.6584 31.2762 40.2627 31.2762 39.8165C31.293 39.7828 31.2846 39.7407 31.2678 39.707Z" fill="white"/>
<path d="M31.2256 36.9771C31.0489 36.6235 30.586 36.4888 30.1904 36.6824C30.1399 36.7077 30.0978 36.733 30.0557 36.7666C30.426 36.6403 30.7711 36.7498 30.8974 37.0276C31.0489 37.3392 30.8721 37.6423 30.5186 37.9117C30.4345 37.9791 30.0473 38.2653 29.9463 38.2822C30.1735 38.2822 30.4765 38.198 30.8048 37.9875C31.192 37.7433 31.4024 37.3476 31.2256 36.9771Z" fill="white"/>
<path d="M28.2797 38.9672C27.5222 39.0177 26.8994 38.9251 26.8826 38.7483C26.8826 38.723 26.8994 38.6977 26.9246 38.6641C26.6974 38.7314 26.5459 38.8409 26.5459 38.9335C26.5459 39.1608 27.2276 39.3545 28.0693 39.3545C28.7174 39.3545 29.2645 39.245 29.4833 39.085C29.3571 39.0008 29.214 38.8914 29.1046 38.824C28.8689 38.883 28.5827 38.9419 28.2797 38.9672Z" fill="white"/>
<path d="M28.4231 36.972C28.4231 36.972 28.6672 36.8373 28.6504 36.4584C28.6335 36.0879 28.0949 35.7259 28.1117 35.2207C28.1285 34.7156 28.7514 34.2862 28.9955 34.1346C29.2395 33.9831 30.0391 33.7305 30.0391 33.7305C30.0391 33.7305 29.3995 34.1262 29.0796 34.3788C28.7514 34.6398 28.642 34.9934 28.684 35.246C28.7261 35.4902 29.2227 35.8859 29.1301 36.1806C29.0291 36.4837 28.7009 36.9299 28.4231 36.972Z" fill="white"/>
<path d="M29.0036 31.9531C29.0036 31.9531 29.3739 32.4415 29.1298 33.0392C28.8857 33.637 28.4144 34.0412 28.0862 34.2853C27.7579 34.5295 27.3792 34.9 27.4717 35.4136C27.5643 35.9272 27.9094 36.2808 27.9852 36.365C28.0525 36.4492 28.1367 36.7018 28.1367 36.7018C28.1367 36.7018 27.5559 36.1966 27.3371 35.9103C27.1182 35.6241 26.8489 35.1357 27.1098 34.6979C27.3539 34.2769 27.9094 33.9654 28.507 33.4518C29.0962 32.9382 29.0541 32.1973 29.0036 31.9531Z" fill="white"/>
<path d="M27.4467 43.8503H27.1185V43.564H27.1016C26.967 43.8082 26.8071 43.9345 26.5293 43.9345C26.3357 43.9345 26.1758 43.884 26.0664 43.7745C25.9401 43.6651 25.8896 43.5304 25.8896 43.3535C25.8896 42.9747 26.0664 42.7726 26.5125 42.7052L27.0427 42.6631C27.0427 42.3264 26.9586 42.1495 26.6892 42.1495C26.4451 42.1495 26.1842 42.1916 25.9991 42.3516V42.0233C26.0496 41.9812 26.3273 41.8633 26.7145 41.8633C27.1353 41.8633 27.4215 42.0233 27.4215 42.5284V43.8503H27.4467ZM27.0596 42.9073L26.6387 42.9494C26.4788 42.9747 26.462 42.9915 26.3946 43.042C26.3273 43.0925 26.3021 43.1936 26.3021 43.3114C26.3021 43.4041 26.3189 43.463 26.3862 43.5135C26.4536 43.564 26.5125 43.5809 26.6135 43.5809C26.7734 43.5809 26.8155 43.5556 26.9249 43.4462C27.0343 43.3367 27.0511 43.1767 27.0511 43.0083V42.8989H27.0596V42.9073Z" fill="white"/>
<path d="M31.1498 43.8503H30.8216V43.564H30.8048C30.6701 43.8082 30.5102 43.9345 30.2324 43.9345C30.0389 43.9345 29.8789 43.884 29.7695 43.7745C29.6433 43.6651 29.5928 43.5304 29.5928 43.3535C29.5928 42.9747 29.7695 42.7726 30.2156 42.7052L30.7458 42.6631C30.7458 42.3264 30.6617 42.1495 30.3924 42.1495C30.1483 42.1495 29.8874 42.1916 29.7022 42.3516V42.0233C29.7527 41.9812 30.0304 41.8633 30.4176 41.8633C30.8384 41.8633 31.1246 42.0233 31.1246 42.5284V43.8503H31.1498ZM30.7711 42.9073L30.3503 42.9494C30.1904 42.9747 30.1735 42.9915 30.1062 43.042C30.0389 43.0925 30.0136 43.1936 30.0136 43.3114C30.0136 43.4041 30.0304 43.463 30.0978 43.5135C30.1651 43.564 30.224 43.5809 30.325 43.5809C30.4849 43.5809 30.527 43.5556 30.6364 43.4462C30.7459 43.3367 30.7627 43.1767 30.7627 43.0083V42.8989H30.7711V42.9073Z" fill="white"/>
<path d="M29.4497 41.8555L28.8774 43.8256H28.3387L27.6738 41.8555H28.1367L28.5997 43.3794L29.0037 41.8555H29.4497Z" fill="white"/>
<path d="M25.5867 42.9893V41.1875H25.1406V42.9893C25.1406 43.4945 25.208 43.9828 24.9639 44.1596C24.8713 44.227 24.7703 44.2859 24.6777 44.3112L24.9386 44.6058C25.1406 44.4964 25.3426 44.3364 25.4689 44.168C25.6036 43.9828 25.5867 43.3177 25.5867 42.9893Z" fill="white"/>
<path d="M10.3444 11.9149C10.2686 11.8897 10.2013 11.8812 10.1171 11.8812C9.77204 11.8812 9.57005 12.0917 9.57005 12.4622C9.57005 12.8242 9.76363 13.0263 10.1087 13.0263C10.1845 13.0263 10.2434 13.0179 10.3444 13.0095V11.9149ZM10.3444 10.332H11.0261V13.481C10.6726 13.5483 10.4201 13.5736 10.1424 13.5736C9.30913 13.5736 8.87988 13.1947 8.87988 12.479C8.87988 11.7886 9.3428 11.334 10.0498 11.334C10.1592 11.334 10.2434 11.3424 10.3444 11.3676V10.332Z" fill="white"/>
<path d="M11.4296 11.0387H12.1113V10.3398H11.4296V11.0387ZM12.1113 11.3839V12.9583C12.1113 13.5056 12.0692 13.7582 11.9514 13.9855C11.842 14.2044 11.6905 14.3391 11.3959 14.4907L10.7646 14.1876C11.0676 14.0445 11.2107 13.9266 11.3033 13.7329C11.4043 13.5393 11.4296 13.312 11.4296 12.7226V11.3839H12.1113Z" fill="white"/>
<path d="M13.5929 12.6202C13.1384 12.6623 12.9953 12.7381 12.9953 12.9149C12.9953 13.0496 13.0794 13.1086 13.2646 13.1086C13.3656 13.1086 13.4582 13.1001 13.5929 13.0749V12.6202ZM12.5239 11.5341C12.8269 11.391 13.1131 11.332 13.4245 11.332C13.778 11.332 14.0053 11.4246 14.1063 11.6015C14.1652 11.7025 14.182 11.8372 14.182 12.1151V13.4959C13.879 13.538 13.4919 13.5716 13.2057 13.5716C12.6334 13.5716 12.3809 13.3696 12.3809 12.9318C12.3809 12.4518 12.7175 12.2329 13.5592 12.1656V12.014C13.5592 11.8877 13.5003 11.8456 13.3235 11.8456C13.071 11.8456 12.7849 11.913 12.5239 12.0561V11.5341Z" fill="white"/>
<path d="M14.5186 11.4914C14.9226 11.3819 15.2508 11.3398 15.5875 11.3398C15.941 11.3398 16.1935 11.4156 16.3365 11.5756C16.4796 11.7187 16.5217 11.8787 16.5217 12.2239V13.5542H15.84V12.2492C15.84 11.9882 15.7474 11.8955 15.5117 11.8955C15.4191 11.8955 15.335 11.904 15.2003 11.9461V13.5626H14.5186V11.4914Z" fill="white"/>
<path d="M18.1463 11.8877H18.1211H18.0706C17.9359 11.8793 17.7844 11.9214 17.675 11.9803C17.5151 12.073 17.4309 12.2413 17.4309 12.4771C17.4309 12.8139 17.5992 13.0075 17.9022 13.0075C17.9948 13.0075 18.0706 12.9907 18.1547 12.9654V12.9149V12.7297C18.1547 12.6539 18.1547 12.5613 18.1547 12.4687L18.1463 12.1571L18.1379 11.9298V11.8877H18.1463ZM16.7912 13.9168C17.0269 14.0431 17.271 14.1021 17.5235 14.1021C17.9696 14.1021 18.1631 13.9168 18.1631 13.4874V13.4706C18.0285 13.538 17.8938 13.5632 17.7171 13.5632C17.1195 13.5632 16.7407 13.1675 16.7407 12.5444C16.7407 11.7698 17.3046 11.332 18.2978 11.332C18.5924 11.332 18.8617 11.3657 19.19 11.4331L18.9543 11.9214C18.7691 11.8877 18.9375 11.913 18.8028 11.9046V11.9719L18.8112 12.2582L18.8196 12.6286C18.828 12.7213 18.828 12.8139 18.828 12.9065V13.0917C18.828 13.6727 18.7775 13.9505 18.6345 14.1694C18.424 14.4978 18.0537 14.6662 17.5319 14.6662C17.2626 14.6662 17.0353 14.6241 16.7996 14.5315V13.9168H16.7912Z" fill="white"/>
<path d="M20.2333 13.0587C20.4942 13.0587 20.6457 12.8397 20.6457 12.4693C20.6457 12.0988 20.4942 11.8799 20.2333 11.8799C19.964 11.8799 19.8125 12.0988 19.8125 12.4693C19.8125 12.8397 19.964 13.0587 20.2333 13.0587ZM20.2417 11.3242C20.9235 11.3242 21.3359 11.7536 21.3359 12.444C21.3359 13.1513 20.8982 13.5975 20.208 13.5975C19.5263 13.5975 19.1055 13.1681 19.1055 12.4777C19.1139 11.7705 19.5515 11.3242 20.2417 11.3242Z" fill="white"/>
<path d="M47.9916 25.5039H37.8916V35.6158H48V25.5039H47.9916Z" fill="#50E6FF"/>
<path d="M44.0018 27.5755C43.7578 27.4239 43.5305 27.365 43.3033 27.2134C43.1602 27.1208 42.9666 26.8851 42.7983 26.6914C42.7646 27.0114 42.672 27.1376 42.5626 27.2303C42.3269 27.4155 42.1839 27.466 41.9819 27.5755C41.8135 27.6597 40.8877 28.2154 40.8877 29.3941C40.8877 30.5728 41.8809 31.4485 42.9919 31.4485C44.0944 31.4485 45.0539 30.6486 45.0539 29.4362C45.0539 28.2154 44.1533 27.6597 44.0018 27.5755Z" fill="#0078D4"/>
<path d="M43.6319 30.4102C43.7076 30.4102 43.7834 30.4186 43.8423 30.4523C43.9012 30.4859 43.9265 30.5702 43.9517 30.6207C43.9685 30.6628 43.9517 30.6965 43.918 30.7133C43.8844 30.7302 43.8844 30.7217 43.8507 30.6628C43.817 30.6038 43.7918 30.5449 43.6319 30.5449C43.472 30.5449 43.4215 30.6038 43.3457 30.6628C43.27 30.7302 43.2363 30.747 43.2111 30.7133C43.1858 30.6796 43.1942 30.6375 43.2447 30.5954C43.2952 30.5533 43.3794 30.4775 43.4551 30.4438C43.514 30.4102 43.5561 30.4102 43.6319 30.4102Z" fill="white"/>
<path d="M42.8742 30.9354C42.9668 31.0112 43.1014 31.0702 43.396 31.0702C43.6906 31.0702 43.8926 30.9859 43.9852 30.9186C44.0273 30.8849 44.0441 30.9102 44.0525 30.9354C44.0609 30.9523 44.0693 30.9775 44.0357 31.0112C44.0104 31.0365 43.8 31.1796 43.5559 31.2049C43.3034 31.2302 42.9752 31.2386 42.7732 31.0617C42.7395 31.0281 42.7479 30.9859 42.7732 30.9691C42.7984 30.9523 42.8153 30.9354 42.8405 30.9354C42.8573 30.927 42.8573 30.927 42.8742 30.9354Z" fill="white"/>
<path d="M41.7466 30.5864C42.0916 30.578 42.159 30.519 42.4704 30.3843C44.1285 29.6434 44.4399 28.9614 44.4988 28.8098C44.5577 28.6583 44.6419 28.4057 44.5577 28.1194C44.5409 28.0689 44.5241 28.0184 44.5156 27.9847C44.2968 27.7406 44.078 27.6058 44.0106 27.5637C43.775 27.4122 43.5393 27.3533 43.3121 27.2017C43.169 27.1091 42.9754 26.8733 42.8071 26.6797C42.7734 26.9996 42.6808 27.1259 42.5714 27.2185C42.3357 27.4038 42.1926 27.4543 41.9906 27.5637C41.8223 27.6564 40.8965 28.1952 40.8965 29.3824C40.8965 29.7613 40.9975 30.1065 41.1742 30.4011H41.2163C41.3005 30.4853 41.452 30.5864 41.7466 30.5864Z" fill="#0078D4"/>
<path d="M44.5658 28.1059C44.8688 28.4848 45.0203 28.9226 45.0203 29.4278C45.0203 29.714 44.9613 29.9919 44.8519 30.2445C44.7509 30.4802 44.5994 30.6907 44.4058 30.8675C44.0271 31.2211 43.5221 31.4148 42.9834 31.4148C42.7141 31.4148 42.4532 31.3643 42.2007 31.2632C41.9566 31.1622 41.7294 31.0191 41.5442 30.8423C41.1402 30.4634 40.9214 29.9498 40.9214 29.4025C40.9214 28.9142 41.0813 28.4764 41.3927 28.1059C41.6368 27.828 41.8893 27.6681 41.9903 27.6176C42.0408 27.5923 42.0829 27.567 42.1249 27.5418C42.2596 27.4744 42.3943 27.4071 42.571 27.2639C42.6636 27.1882 42.773 27.0787 42.8151 26.784C42.9666 26.9608 43.1434 27.1629 43.278 27.2555C43.3959 27.3313 43.5221 27.3902 43.6399 27.4407C43.7493 27.4913 43.8672 27.5418 43.985 27.6176H43.9934C44.3217 27.8112 44.5068 28.0301 44.5658 28.1059ZM44.0018 27.5755C43.7662 27.4239 43.5305 27.365 43.3033 27.2134C43.1602 27.1208 42.9666 26.8851 42.7983 26.6914C42.7646 27.0114 42.672 27.1376 42.5626 27.2303C42.3269 27.4155 42.1839 27.466 41.9819 27.5755C41.8135 27.6681 40.8877 28.2069 40.8877 29.3941C40.8877 29.773 40.9887 30.1182 41.1654 30.4129C41.5358 31.0443 42.2428 31.4485 42.9919 31.4485C44.0944 31.4485 45.0539 30.6486 45.0539 29.4362C45.0539 28.771 44.7846 28.308 44.5153 28.0049C44.288 27.7439 44.0692 27.6091 44.0018 27.5755Z" fill="#0078D4"/>
<path d="M42.8235 26.7734C42.8908 26.9587 42.8824 27.0597 42.8824 27.1018C42.8824 27.1439 42.8571 27.2534 42.7898 27.3039C42.7561 27.3291 42.7477 27.346 42.7477 27.346C42.7477 27.3628 42.7898 27.3796 42.7898 27.4217C42.7898 27.4723 42.7646 27.5733 42.5205 27.8175C42.2764 28.0616 41.9313 28.2721 41.6536 28.4068C41.3842 28.5415 41.258 28.5331 41.2159 28.4658C41.1822 28.3984 41.2327 28.2637 41.4011 28.0701C41.5694 27.8848 42.1081 27.6154 42.1081 27.6154L42.7814 27.1523L42.8151 26.9755" fill="#50E6FF"/>
<path d="M42.8238 26.7734C42.7817 27.0765 42.6891 27.1692 42.5629 27.2618C42.3524 27.4133 42.1504 27.5144 42.1084 27.5396C41.9905 27.5986 41.5613 27.8343 41.334 28.1795C41.2667 28.2805 41.334 28.3226 41.3509 28.3311C41.3677 28.3395 41.5192 28.3563 41.8559 28.1542C42.1925 27.9522 42.3356 27.8343 42.5292 27.6407C42.6302 27.5396 42.647 27.4723 42.647 27.447C42.647 27.4133 42.6218 27.4049 42.5881 27.3881C42.5713 27.3796 42.5629 27.3712 42.5881 27.3628C42.6134 27.346 42.7059 27.3039 42.7312 27.287C42.7564 27.2702 42.8659 27.1944 42.8659 27.0765C42.8574 26.9587 42.849 26.8745 42.8238 26.7734Z" fill="white"/>
<path d="M41.7888 30.1013C41.7972 29.7476 42.1255 29.4109 42.5547 29.4024C43.0934 29.394 43.4637 29.9329 43.733 29.9245C43.9603 29.916 44.4064 29.4698 44.6168 29.4698C44.844 29.4698 44.9114 29.7055 44.9114 29.8487C44.9114 29.9918 44.8693 30.2444 44.7514 30.4044C44.642 30.5643 44.5747 30.6233 44.4484 30.6149C44.2801 30.598 43.9519 30.0928 43.7414 30.076C43.4721 30.0676 42.8998 30.6317 42.4453 30.6317C42.1675 30.6317 42.0834 30.5896 41.9992 30.5307C41.8477 30.4465 41.7804 30.3033 41.7888 30.1013Z" fill="white"/>
<path d="M42.9666 32.3398H42.7141V32.8113C42.7141 32.9461 42.6552 33.0639 42.5121 33.0639C42.369 33.0639 42.3101 32.9545 42.3101 32.8113V32.3398H42.0576V32.8113C42.0576 33.0892 42.2344 33.3081 42.5121 33.3081C42.7899 33.3081 42.9666 33.0892 42.9666 32.8113V32.3398Z" fill="#0078D4"/>
<path d="M45.2559 33.2924H45.5084V32.0547H45.2559V33.2924Z" fill="#0078D4"/>
<path d="M41.848 32.3318C41.6292 32.2813 41.4945 32.5002 41.4861 32.5086C41.4861 32.517 41.4861 32.517 41.4777 32.517C41.4693 32.517 41.4693 32.5086 41.4693 32.5086L41.444 32.3402H41.2168V33.2832H41.4693V32.7696C41.4693 32.7275 41.5787 32.5254 41.7975 32.5759C41.907 32.6012 41.9575 32.6517 41.9575 32.6517V32.3655C41.9154 32.3486 41.8901 32.3402 41.848 32.3318Z" fill="#0078D4"/>
<path d="M43.5558 32.5756C43.6989 32.5756 43.8083 32.685 43.8083 32.8282C43.8083 32.9713 43.6989 33.0808 43.5558 33.0808C43.4127 33.0808 43.3033 32.9713 43.3033 32.8282C43.3033 32.685 43.4127 32.5756 43.5558 32.5756ZM43.3033 33.6028V33.266V33.1397C43.3033 33.1397 43.3033 33.1313 43.3117 33.1313C43.3201 33.1313 43.3201 33.1397 43.3201 33.1397C43.3369 33.1902 43.4464 33.367 43.682 33.3165C43.8924 33.2576 44.0439 33.0639 44.0439 32.8366C44.0439 32.5588 43.8167 32.3398 43.5474 32.3398C43.278 32.3398 43.0508 32.5672 43.0508 32.8366V33.6112H43.3033V33.6028Z" fill="#0078D4"/>
<path d="M44.9024 32.8288C44.9024 32.9719 44.793 33.0814 44.6499 33.0814C44.5068 33.0814 44.3974 32.9719 44.3974 32.8288C44.3974 32.6857 44.5068 32.5762 44.6499 32.5762C44.793 32.5762 44.9024 32.6857 44.9024 32.8288ZM44.894 33.2919H45.1465V32.8288C45.1465 32.5509 44.9192 32.332 44.6499 32.332C44.3806 32.332 44.1533 32.5594 44.1533 32.8288C44.1533 33.0561 44.3048 33.2498 44.5152 33.3087C44.7509 33.3676 44.8519 33.1824 44.8772 33.1403C44.8772 33.1319 44.8772 33.1319 44.8856 33.1319C44.894 33.1319 44.894 33.1403 44.894 33.1403" fill="#0078D4"/>
<path d="M40.4923 32.2646H40.3913V33.0728H40.4923C40.7111 33.0728 40.8458 33.056 40.8458 32.6687C40.8458 32.2982 40.7195 32.2646 40.4923 32.2646ZM40.4165 33.2918H40.1304V32.0625H40.4418C40.8205 32.0625 41.0983 32.1299 41.0983 32.6771C41.0983 33.216 40.7953 33.2918 40.4165 33.2918Z" fill="#0078D4"/>
<path d="M12.4564 33.14C12.4564 35.8258 10.2765 38.0065 7.58319 38.0065C4.88987 38.0065 2.70996 35.8258 2.70996 33.14C2.70996 30.4541 4.88987 28.2734 7.58319 28.2734C10.2765 28.2819 12.4564 30.4541 12.4564 33.14Z" fill="white"/>
<path d="M7.58318 37.9816C4.95719 37.9816 2.8362 35.8598 2.8362 33.2497C2.8362 30.6313 4.96561 28.5095 7.58318 28.5095C10.2007 28.5095 12.3302 30.6313 12.3302 33.2497C12.3302 35.8682 10.2007 37.9816 7.58318 37.9816ZM7.58318 28.2148C4.79728 28.2148 2.5332 30.4713 2.5332 33.2497C2.5332 36.0282 4.79728 38.2847 7.58318 38.2847C10.3691 38.2847 12.6332 36.0282 12.6332 33.2497C12.6332 30.4713 10.3691 28.2148 7.58318 28.2148Z" fill="#0078D7"/>
<path d="M7.58325 28.9219C8.71949 28.9219 9.74632 29.3513 10.5207 30.0669C10.1419 30.0585 9.76316 30.2774 9.74632 30.7994C9.71266 31.8435 10.992 32.0624 10.3018 34.1504L9.72949 35.8764L8.18083 31.313C8.15558 31.2457 8.18083 31.2036 8.27341 31.2036H8.71108C8.73633 31.2036 8.75316 31.1867 8.75316 31.1615V30.9005C8.75316 30.8752 8.73633 30.8584 8.71108 30.8584C7.87783 30.8921 7.053 30.8921 6.23659 30.8584C6.21134 30.8584 6.1945 30.8752 6.1945 30.9005V31.1615C6.1945 31.1867 6.21134 31.2036 6.23659 31.2036H6.67425C6.77525 31.2036 6.8005 31.2373 6.82575 31.2962L7.46542 33.039L6.50592 35.927L4.93201 31.2962C4.91518 31.2373 4.93201 31.2036 4.99093 31.2036H5.49593C5.52118 31.2036 5.53801 31.1867 5.53801 31.1615V30.9005C5.53801 30.8752 5.52118 30.8584 5.49593 30.8584C4.96568 30.8836 4.43543 30.8921 3.94727 30.9005C4.71318 29.7049 6.05142 28.9219 7.58325 28.9219Z" fill="#0078D4"/>
<path d="M11.3959 31.1875C11.7326 31.8021 11.9178 32.501 11.9178 33.2503C11.9178 34.8921 11.0088 36.315 9.66211 37.0475L11.0172 33.225C11.2276 32.6357 11.4212 31.8358 11.3959 31.1875Z" fill="#0078D7"/>
<path d="M9.03107 37.3339C8.57657 37.4938 8.08841 37.5864 7.57499 37.5864C7.13733 37.5864 6.70808 37.5191 6.3125 37.4012L7.65916 33.5703L9.03107 37.3339Z" fill="#0078D7"/>
<path d="M5.72314 37.1655C4.25865 36.4751 3.24023 34.9764 3.24023 33.2504C3.24023 32.6105 3.38332 32.0043 3.6274 31.457L5.72314 37.1655Z" fill="#0078D7"/>
</svg>
