<svg data-slug-id="code03" viewBox="0 0 48 49" xmlns="http://www.w3.org/2000/svg">
<path d="M42.9338 5.13867H15.2563V20.2439H17.6883V7.68005H40.4008V30.342H27.8707V30.4178H27.8875V32.8918H27.9548H42.9338H42.9422V32.8329V5.14709V5.13867H42.9338Z" fill="#50E6FF"/>
<path d="M5.06543 25.3462V42.9928V43.018H22.7288V25.3462H5.06543ZM20.3642 27.7782V40.443H7.49741V27.7782H20.3642Z" fill="#50E6FF"/>
<path d="M47.9832 10.1976H47.9916V5.14855H47.9832H45.4839V2.58193H42.9341V0.091049V0.0742188H37.8682V0.091049V2.59035H35.3941V0.091049V0.0742188H30.3198V0.091049V2.59035H27.8457V0.091049V0.0742188H22.7209V0.091049V2.59035H20.2468V0.091049V0.0742188H15.1557V0.091049V2.59035H12.6227V5.15697H10.1487V10.2061H12.6227V12.6801H10.1487V17.7797H12.6227V20.2453H10.1487H10.0982V20.2537V20.4894V22.854H7.57363V20.4894V20.2537H5.06592V20.4894V22.854H2.39832V25.3365H0.0336606H0.0168303H0V27.861H0.0168303H0.0336606H2.39832V30.3856H0.0336606H0.0168303H0V32.927H0.0168303H0.0336606H2.39832V35.4515H0.0336606H0.0168303H0V37.976H0.0168303H0.0336606H2.39832V40.5006H0.0336606H0.0168303H0V42.9915H0.0168303H0.0336606H2.39832V45.6759H5.06592V48.0406V48.0574H7.57363V48.0406V45.6759H10.0982V48.0406V48.0574H12.6396V48.0406V45.6759H15.1641V48.0406V48.0574H17.6886V48.0406V45.6759H20.2132V48.0406V48.0574H22.7461V48.0406V45.6759H25.2791V42.9999H27.6438H27.871V40.4838H27.6438H25.2791V37.976V37.9592H27.6438H27.871H27.9551V37.9424H27.9635V35.4683H27.9551V35.4431H30.3198V37.976H35.3941V35.4431H37.8682V37.976H42.9425V35.4431H45.4923V32.8344H47.9916H48V27.819H47.9916H45.4923V25.3449H47.9916H48V20.2453H47.9916H45.4923V17.7713H47.9916H48V12.6717H47.9916H45.4923V10.1976H47.9832ZM15.2567 20.2874V20.4809V22.8372H12.6816V20.4809V20.2622H15.2567V20.2874ZM25.2791 35.4263V32.9522H27.6438H27.871H27.8878V35.4263H27.871H27.6438H25.2791ZM25.2791 30.2846V27.8274V27.7096H27.6438H27.871H27.8794V27.8274V30.2846H27.871H27.6438H25.2791ZM27.871 25.3028H27.6438H25.2791V22.8372H22.7293V20.4725V20.2537H27.871H27.8962V25.2944H27.871V25.3028ZM17.6971 20.2622H20.331V20.279V20.4725V22.8288H20.2805H17.6971V20.4725V20.279V20.2622ZM5.06592 43.0251V42.9999V25.3449H22.7293V43.0167H5.06592V43.0251ZM42.9425 32.8344V32.8849H42.9341H27.9551H27.8878V30.4192H27.871V30.3435H40.4095V7.68151H17.6886V20.2369H15.2651V5.14014H42.9425H42.9509V5.15697V32.8344H42.9425Z" fill="#0078D4"/>
<path d="M20.3554 27.7749H7.49707V40.4397H20.3554V27.7749Z" fill="#0078D4"/>
</svg>
