<svg data-slug-id="code08" viewBox="0 0 48 48" xmlns="http://www.w3.org/2000/svg">
<path d="M0 42.9717H48V6.01172H0V42.9717Z" fill="#0078D4"/>
<path d="M0 10.006H47.9832V5.00391H0V10.006Z" fill="#50E6FF"/>
<path d="M7.47813 8.82492C8.1525 8.82492 8.69919 8.27823 8.69919 7.60387C8.69919 6.9295 8.1525 6.38281 7.47813 6.38281C6.80376 6.38281 6.25708 6.9295 6.25708 7.60387C6.25708 8.27823 6.80376 8.82492 7.47813 8.82492Z" fill="white"/>
<path d="M3.68834 8.82492C4.36271 8.82492 4.90939 8.27823 4.90939 7.60387C4.90939 6.9295 4.36271 6.38281 3.68834 6.38281C3.01397 6.38281 2.46729 6.9295 2.46729 7.60387C2.46729 8.27823 3.01397 8.82492 3.68834 8.82492Z" fill="white"/>
<path d="M11.3517 8.82492C12.026 8.82492 12.5727 8.27823 12.5727 7.60387C12.5727 6.9295 12.026 6.38281 11.3517 6.38281C10.6773 6.38281 10.1306 6.9295 10.1306 7.60387C10.1306 8.27823 10.6773 8.82492 11.3517 8.82492Z" fill="white"/>
<path d="M15.0233 20.1992H2.40015V32.8224H15.0233V20.1992Z" fill="#50E6FF"/>
<path d="M17.592 20.1992V32.8224H30.2236L17.592 20.1992Z" fill="#50E6FF"/>
<path d="M39.1156 20.1992C35.6293 20.1992 32.7998 23.0287 32.7998 26.515C32.7998 30.0013 35.6293 32.8308 39.1156 32.8308C42.6019 32.8308 45.4314 30.0013 45.4314 26.515C45.4314 23.0203 42.6019 20.1992 39.1156 20.1992Z" fill="#50E6FF"/>
</svg>
