<svg data-slug-id="code07" viewBox="0 0 48 49" xmlns="http://www.w3.org/2000/svg">
<path d="M0 42.7642H48V5.8042H0V42.7642Z" fill="#0078D4"/>
<path d="M0 10.0797H47.9832V5.07764H0V10.0797Z" fill="#50E6FF"/>
<path d="M7.47813 8.89865C8.1525 8.89865 8.69919 8.35196 8.69919 7.6776C8.69919 7.00323 8.1525 6.45654 7.47813 6.45654C6.80376 6.45654 6.25708 7.00323 6.25708 7.6776C6.25708 8.35196 6.80376 8.89865 7.47813 8.89865Z" fill="#0078D4"/>
<path d="M3.68834 8.89865C4.36271 8.89865 4.90939 8.35196 4.90939 7.6776C4.90939 7.00323 4.36271 6.45654 3.68834 6.45654C3.01397 6.45654 2.46729 7.00323 2.46729 7.6776C2.46729 8.35196 3.01397 8.89865 3.68834 8.89865Z" fill="#0078D4"/>
<path d="M11.3517 8.89865C12.026 8.89865 12.5727 8.35196 12.5727 7.6776C12.5727 7.00323 12.026 6.45654 11.3517 6.45654C10.6773 6.45654 10.1306 7.00323 10.1306 7.6776C10.1306 8.35196 10.6773 8.89865 11.3517 8.89865Z" fill="#0078D4"/>
<path d="M26.5178 23.9722H21.4062V29.0837H26.5178V23.9722Z" fill="white"/>
<path d="M31.63 18.9136L29.8279 20.7157L35.6637 26.5515L29.7605 32.4546L31.5626 34.2567L39.2679 26.5515L31.63 18.9136Z" fill="#50E6FF"/>
<path d="M16.1262 34.2567L17.9367 32.4546L12.1009 26.6188L18.0041 20.7157L16.202 18.9136L8.48828 26.6188L16.1262 34.2567Z" fill="#50E6FF"/>
</svg>
