<svg data-slug-id="code04" viewBox="0 0 48 49" xmlns="http://www.w3.org/2000/svg">
<path d="M15.0089 15.0728L13.2486 13.3125L2.53516 24.026L13.257 34.7478L15.0258 32.9791L6.0642 24.0175L15.0089 15.0728Z" fill="#0078D4"/>
<path d="M33.0839 33.1079L34.8442 34.8682L45.6082 24.1042L34.7852 13.2812L33.0249 15.05L42.0791 24.1042L33.0839 33.1079Z" fill="#0078D4"/>
<path d="M16.4746 26.4698C17.8655 26.4698 18.993 25.3423 18.993 23.9514C18.993 22.5606 17.8655 21.4331 16.4746 21.4331C15.0838 21.4331 13.9563 22.5606 13.9563 23.9514C13.9563 25.3423 15.0838 26.4698 16.4746 26.4698Z" fill="#50E6FF"/>
<path d="M24.021 26.4698C25.4119 26.4698 26.5394 25.3423 26.5394 23.9514C26.5394 22.5606 25.4119 21.4331 24.021 21.4331C22.6302 21.4331 21.5027 22.5606 21.5027 23.9514C21.5027 25.3423 22.6302 26.4698 24.021 26.4698Z" fill="#50E6FF"/>
<path d="M31.6182 26.4698C33.009 26.4698 34.1365 25.3423 34.1365 23.9514C34.1365 22.5606 33.009 21.4331 31.6182 21.4331C30.2274 21.4331 29.0999 22.5606 29.0999 23.9514C29.0999 25.3423 30.2274 26.4698 31.6182 26.4698Z" fill="#0078D4"/>
</svg>
