<svg data-slug-id="code-navy" viewBox="0 0 60 60" xmlns="http://www.w3.org/2000/svg">
<path d="M0 53.7141H60V7.5141H0V53.7141Z" fill="#243A5E"/>
<path d="M0 12.5023H59.9789V6.24963H0V12.5023Z" fill="#50E6FF"/>
<path d="M9.34724 11.0308C10.1902 11.0308 10.8736 10.3475 10.8736 9.50453C10.8736 8.66157 10.1902 7.97821 9.34724 7.97821C8.50428 7.97821 7.82092 8.66157 7.82092 9.50453C7.82092 10.3475 8.50428 11.0308 9.34724 11.0308Z" fill="#243A5E"/>
<path d="M4.61042 11.0308C5.45338 11.0308 6.13674 10.3475 6.13674 9.50453C6.13674 8.66157 5.45338 7.97821 4.61042 7.97821C3.76746 7.97821 3.08411 8.66157 3.08411 9.50453C3.08411 10.3475 3.76746 11.0308 4.61042 11.0308Z" fill="#243A5E"/>
<path d="M14.1892 11.0308C15.0321 11.0308 15.7155 10.3475 15.7155 9.50453C15.7155 8.66157 15.0321 7.97821 14.1892 7.97821C13.3462 7.97821 12.6628 8.66157 12.6628 9.50453C12.6628 10.3475 13.3462 11.0308 14.1892 11.0308Z" fill="#243A5E"/>
<path d="M44.0629 21.9673L41.8102 24.22L49.105 31.5147L41.726 38.8937L43.9786 41.1463L53.6102 31.5147L44.0629 21.9673Z" fill="#50E6FF"/>
<path d="M15.737 41.1463L18.0002 38.8937L10.7054 31.5989L18.0844 24.22L15.8317 21.9673L6.18964 31.5989L15.737 41.1463Z" fill="#50E6FF"/>
<path d="M39.4422 34.7659C41.1979 34.7659 42.6211 33.3427 42.6211 31.587C42.6211 29.8313 41.1979 28.408 39.4422 28.408C37.6865 28.408 36.2632 29.8313 36.2632 31.587C36.2632 33.3427 37.6865 34.7659 39.4422 34.7659Z" fill="#50E6FF"/>
<path d="M29.8629 34.7659C31.6186 34.7659 33.0419 33.3427 33.0419 31.587C33.0419 29.8313 31.6186 28.408 29.8629 28.408C28.1072 28.408 26.684 29.8313 26.684 31.587C26.684 33.3427 28.1072 34.7659 29.8629 34.7659Z" fill="#50E6FF"/>
<path d="M20.4945 34.7659C22.2502 34.7659 23.6734 33.3427 23.6734 31.587C23.6734 29.8313 22.2502 28.408 20.4945 28.408C18.7388 28.408 17.3156 29.8313 17.3156 31.587C17.3156 33.3427 18.7388 34.7659 20.4945 34.7659Z" fill="#50E6FF"/>
</svg>
