<svg data-slug-id="cognitive-services" viewBox="0 0 48 48" xmlns="http://www.w3.org/2000/svg">
<path d="M47 30.3929C46.9448 27.9384 46.008 25.5858 44.361 23.7652C42.7139 21.9445 40.4667 20.7775 38.03 20.4774C37.8837 17.0517 36.3933 13.8218 33.882 11.4874C31.3706 9.153 28.0405 7.90227 24.6133 8.00624C21.845 7.94619 19.1259 8.74414 16.8291 10.2906C14.5322 11.8371 12.7701 14.0564 11.7844 16.644C8.85076 17.0005 6.1444 18.4042 4.16302 20.5968C2.18164 22.7895 1.05846 25.6238 1 28.5785C1.12647 31.8912 2.56143 35.0187 4.99027 37.275C7.4191 39.5314 10.6436 40.7326 13.9567 40.6151H15.0811H36.0622C36.2487 40.6417 36.438 40.6417 36.6244 40.6151C39.3419 40.5894 41.943 39.5089 43.8789 37.6017C45.8147 35.6944 46.9338 33.1097 47 30.3929Z" fill="url(#cognitive-services_paint0_linear)"/>
<path d="M14.8506 27.8682H12.6017C12.4479 27.2015 12.0541 26.6147 11.4954 26.2197C10.9367 25.8248 10.2522 25.6492 9.57237 25.7266C8.89254 25.804 8.26498 26.1289 7.80935 26.6394C7.35372 27.1498 7.10189 27.8101 7.10189 28.4943C7.10189 29.1785 7.35372 29.8388 7.80935 30.3492C8.26498 30.8597 8.89254 31.1846 9.57237 31.262C10.2522 31.3394 10.9367 31.1639 11.4954 30.7689C12.0541 30.3739 12.4479 29.7871 12.6017 29.1204H14.8506C14.9862 29.1204 15.1162 29.1743 15.212 29.2701C15.3079 29.366 15.3617 29.496 15.3617 29.6315V40.6204H16.6139V29.6315C16.6139 29.1639 16.4282 28.7153 16.0975 28.3847C15.7668 28.054 15.3183 27.8682 14.8506 27.8682ZM9.86728 30.1171C9.5438 30.1171 9.22758 30.0212 8.95861 29.8414C8.68965 29.6617 8.48001 29.4063 8.35622 29.1074C8.23243 28.8086 8.20004 28.4797 8.26315 28.1624C8.32626 27.8452 8.48203 27.5537 8.71077 27.325C8.9395 27.0963 9.23093 26.9405 9.5482 26.8774C9.86546 26.8143 10.1943 26.8467 10.4932 26.9705C10.792 27.0943 11.0475 27.3039 11.2272 27.5729C11.4069 27.8418 11.5028 28.158 11.5028 28.4815C11.5028 28.9153 11.3305 29.3313 11.0238 29.638C10.7171 29.9448 10.3011 30.1171 9.86728 30.1171Z" fill="#9CEBFF"/>
<path d="M23.8467 28.4229V25.8673C23.8467 25.3929 23.6582 24.9379 23.3227 24.6024C22.9872 24.2669 22.5322 24.0784 22.0578 24.0784H18.0967C17.9611 24.0784 17.8311 24.0246 17.7353 23.9287C17.6394 23.8329 17.5856 23.7029 17.5856 23.5673V9.99731L16.9978 10.304L16.3333 10.6618V23.4395C16.3333 23.9072 16.5191 24.3557 16.8498 24.6864C17.1805 25.0171 17.629 25.2029 18.0967 25.2029H22.0578C22.1283 25.2029 22.198 25.2167 22.2632 25.2437C22.3283 25.2707 22.3874 25.3102 22.4373 25.3601C22.4871 25.4099 22.5266 25.469 22.5536 25.5342C22.5806 25.5993 22.5944 25.6691 22.5944 25.7395V28.2951C21.977 28.4297 21.4244 28.7721 21.029 29.2651C20.6336 29.7582 20.4194 30.372 20.4222 31.004C20.4218 31.5276 20.5689 32.0407 20.8468 32.4845C21.1246 32.9283 21.5219 33.2849 21.9931 33.5132C22.4644 33.7415 22.9904 33.8324 23.5109 33.7754C24.0314 33.7184 24.5253 33.5159 24.9359 33.1911C25.3466 32.8662 25.6574 32.4322 25.8327 31.9388C26.0079 31.4454 26.0406 30.9125 25.9269 30.4014C25.8131 29.8903 25.5577 29.4216 25.1897 29.0491C24.8218 28.6765 24.3563 28.4152 23.8467 28.2951V28.4229ZM23.2078 32.7673C22.8843 32.7673 22.5681 32.6714 22.2991 32.4917C22.0301 32.312 21.8205 32.0565 21.6967 31.7577C21.5729 31.4588 21.5405 31.1299 21.6037 30.8127C21.6668 30.4954 21.8225 30.204 22.0513 29.9752C22.28 29.7465 22.5714 29.5907 22.8887 29.5276C23.206 29.4645 23.5348 29.4969 23.8337 29.6207C24.1325 29.7445 24.388 29.9541 24.5677 30.2231C24.7474 30.4921 24.8433 30.8083 24.8433 31.1318C24.8433 31.3465 24.801 31.5592 24.7188 31.7577C24.6366 31.9561 24.5162 32.1364 24.3643 32.2883C24.2124 32.4401 24.0321 32.5606 23.8337 32.6428C23.6352 32.725 23.4226 32.7673 23.2078 32.7673Z" fill="#F2F2F2"/>
<path d="M38.1314 23.0347C37.4501 23.0371 36.7933 23.2892 36.2853 23.7432C35.7772 24.1972 35.4532 24.8217 35.3745 25.4985C35.2959 26.1752 35.4679 26.8574 35.8582 27.4159C36.2485 27.9743 36.8299 28.3704 37.4925 28.5291V29.0402C37.4925 29.1107 37.4786 29.1805 37.4517 29.2456C37.4247 29.3107 37.3852 29.3699 37.3353 29.4197C37.2855 29.4695 37.2263 29.5091 37.1612 29.536C37.0961 29.563 37.0263 29.5769 36.9558 29.5769H31.8447V20.5813C31.8447 20.3498 31.7991 20.1205 31.7105 19.9065C31.6219 19.6926 31.492 19.4982 31.3283 19.3345C31.1645 19.1707 30.9701 19.0408 30.7562 18.9522C30.5423 18.8636 30.313 18.818 30.0814 18.818H27.4492C27.3146 18.2005 26.9722 17.6479 26.4791 17.2525C25.9861 16.8572 25.3723 16.643 24.7403 16.6458C24.2167 16.6453 23.7035 16.7925 23.2597 17.0703C22.8159 17.3482 22.4594 17.7455 22.2311 18.2167C22.0028 18.6879 21.9119 19.2139 21.9688 19.7344C22.0258 20.2549 22.2284 20.7488 22.5532 21.1595C22.8781 21.5702 23.3121 21.8809 23.8055 22.0562C24.2989 22.2315 24.8317 22.2641 25.3428 22.1504C25.8539 22.0367 26.3226 21.7812 26.6952 21.4133C27.0678 21.0454 27.3291 20.5799 27.4492 20.0702H30.1836C30.3192 20.0702 30.4492 20.1241 30.545 20.2199C30.6409 20.3158 30.6947 20.4458 30.6947 20.5813V40.6169H31.9469V30.8291H37.0581C37.5325 30.8291 37.9875 30.6406 38.323 30.3052C38.6585 29.9697 38.847 29.5147 38.847 29.0402V28.5291C39.4622 28.3902 40.0122 28.0466 40.4068 27.5545C40.8014 27.0624 41.0173 26.451 41.0192 25.8202C41.0194 25.4457 40.9441 25.0749 40.7978 24.7301C40.6515 24.3853 40.4371 24.0735 40.1675 23.8135C39.8979 23.5535 39.5786 23.3504 39.2288 23.2166C38.879 23.0828 38.5057 23.0209 38.1314 23.0347ZM24.7403 21.0669C24.4168 21.0669 24.1006 20.971 23.8316 20.7912C23.5626 20.6115 23.353 20.3561 23.2292 20.0572C23.1054 19.7584 23.073 19.4295 23.1361 19.1123C23.1993 18.795 23.355 18.5036 23.5838 18.2748C23.8125 18.0461 24.1039 17.8903 24.4212 17.8272C24.7385 17.7641 25.0673 17.7965 25.3662 17.9203C25.665 18.0441 25.9205 18.2537 26.1002 18.5227C26.2799 18.7916 26.3758 19.1079 26.3758 19.4313C26.3758 19.6461 26.3335 19.8588 26.2513 20.0572C26.1691 20.2557 26.0487 20.436 25.8968 20.5878C25.7449 20.7397 25.5646 20.8602 25.3662 20.9424C25.1677 21.0246 24.9551 21.0669 24.7403 21.0669ZM38.1314 27.4558C37.8069 27.4608 37.4882 27.3693 37.2159 27.1926C36.9436 27.016 36.73 26.7624 36.6022 26.464C36.4745 26.1657 36.4385 25.836 36.4987 25.5171C36.5588 25.1982 36.7126 24.9044 36.9403 24.6731C37.1679 24.4418 37.4593 24.2834 37.7772 24.2182C38.0952 24.153 38.4253 24.1839 38.7257 24.3069C39.026 24.4299 39.283 24.6395 39.4639 24.909C39.6448 25.1784 39.7414 25.4957 39.7414 25.8202C39.7414 26.2496 39.5726 26.6618 39.2714 26.9678C38.9702 27.2738 38.5607 27.4491 38.1314 27.4558Z" fill="#9CEBFF"/>
<defs>
<linearGradient id="cognitive-services_paint0_linear" x1="24" y1="50.1985" x2="24" y2="0.569577" gradientUnits="userSpaceOnUse">
<stop stop-color="#0078D4"/>
<stop offset="0.16" stop-color="#1380DA"/>
<stop offset="0.53" stop-color="#3C91E5"/>
<stop offset="0.82" stop-color="#559CEC"/>
<stop offset="1" stop-color="#5EA0EF"/>
</linearGradient>
</defs>
</svg>
