<svg data-slug-id="cognitive-services01" viewBox="0 0 36 36" xmlns="http://www.w3.org/2000/svg">
    <g clip-path="url(#cognitive-services01_550b3275-6b40-4fa0-b4c1-a9324c6fa228)">
        <path fill-rule="evenodd" clip-rule="evenodd" d="M23.897 32.64l-.99.354-.182.605.428.882.057.12-.63.605-1.009-.498-.599.24-.328.926-.037.126-.87-.019-.36-1.065-.598-.258-.883.428-.12.057-.605-.637.498-1.002-.24-.605-.926-.328-.126-.037.019-.87 1.065-.36.259-.598-.43-.883-.056-.113.63-.599 1.003.505.611-.221.315-.882.044-.045.864.02.366.983.599.182.882-.428.12-.057.328.347.27.283-.05.101-.46.908.22.605.89.315.044.044-.013.87zm-3.688.738c.675.013 1.23-.53 1.242-1.204a1.224 1.224 0 00-1.197-1.247 1.23 1.23 0 00-1.249 1.203 1.23 1.23 0 001.204 1.248z" fill="#0078D4"/>
        <path fill-rule="evenodd" clip-rule="evenodd" d="M25.19 31.242h10.722v-1.866H25.189v1.866zM25.19 34.487h10.722v-1.865H25.189v1.865z" fill="#50E6FF"/>
        <path fill-rule="evenodd" clip-rule="evenodd" d="M25.19 31.242h4.513v-1.866h-4.514v1.866zM25.19 34.487h7.148v-1.865h-7.149v1.865z" fill="#0078D4"/>
        <path d="M34.147.126H5.755v22.582h28.392V.126z" fill="#50E6FF"/>
        <path d="M30.346 3.75H2.017v22.733H8.82v6.744l6.745-6.744h14.788V3.75h-.006z" fill="#0078D4"/>
        <path fill-rule="evenodd" clip-rule="evenodd" d="M26.009 11.256c1.43 0 2.59 1.166 2.59 2.59a2.599 2.599 0 01-2.59 2.59c-.498 0-.958-.144-1.355-.384l-1.747 1.293c.208.371.328.806.328 1.26a2.6 2.6 0 01-2.59 2.597 2.59 2.59 0 01-1.69-4.557l-2.156-3.246c-.34.164-.718.259-1.116.259-.58 0-1.115-.196-1.544-.517a226.167 226.167 0 01-4.81 4.033 2.595 2.595 0 01-2.578 2.836 2.595 2.595 0 01-2.59-2.59 2.599 2.599 0 012.59-2.59c.889 0 1.677.454 2.143 1.14a367.505 367.505 0 004.47-3.756 2.577 2.577 0 01-.271-1.14c0-1.431 1.166-2.59 2.59-2.59a2.599 2.599 0 012.591 2.59c0 .586-.201 1.128-.53 1.563l2.302 3.46a2.54 2.54 0 012.036.36l1.708-1.268c-.24-.39-.378-.85-.378-1.336a2.601 2.601 0 012.597-2.597zm0 3.977a1.38 1.38 0 100-2.76 1.38 1.38 0 000 2.76zm-5.365 4.765a1.38 1.38 0 10.001-2.76 1.38 1.38 0 000 2.76zm-4.967-7.55a1.38 1.38 0 10.001-2.76 1.38 1.38 0 000 2.76zM6.74 18.806a1.38 1.38 0 10-1.38-1.38c.005.762.623 1.38 1.38 1.38z" fill="#50E6FF"/>
    </g>
    <defs>
        <clipPath id="cognitive-services01_550b3275-6b40-4fa0-b4c1-a9324c6fa228">
            <path fill="#fff" d="M0 0h36v36H0z"/>
        </clipPath>
    </defs>
</svg>
