<svg data-slug-id="computer-vision01" viewBox="0 0 48 48" xmlns="http://www.w3.org/2000/svg">
<g clip-path="url(#computer-vision01_clip0)">
<path d="M1.57311 13.0427C1.17493 13.0427 0.793062 12.8845 0.511508 12.6029C0.229953 12.3214 0.0717773 11.9395 0.0717773 11.5413V1.50133C0.0717773 1.10316 0.229953 0.721285 0.511508 0.43973C0.793062 0.158176 1.17493 0 1.57311 0H10.9731C11.3713 0 11.7532 0.158176 12.0347 0.43973C12.3163 0.721285 12.4744 1.10316 12.4744 1.50133C12.4744 1.89951 12.3163 2.28138 12.0347 2.56294C11.7532 2.84449 11.3713 3.00267 10.9731 3.00267H3.07444V11.536C3.07515 11.7336 3.03683 11.9294 2.9617 12.1122C2.88656 12.2949 2.77609 12.4611 2.6366 12.6011C2.49712 12.741 2.33138 12.8521 2.14888 12.9279C1.96638 13.0037 1.77072 13.0427 1.57311 13.0427ZM47.9278 11.5413V1.50133C47.9271 1.10337 47.7687 0.721911 47.4873 0.440509C47.2059 0.159107 46.8244 0.000704983 46.4264 0L37.0264 0C36.6283 0 36.2464 0.158176 35.9648 0.43973C35.6833 0.721285 35.5251 1.10316 35.5251 1.50133C35.5251 1.89951 35.6833 2.28138 35.9648 2.56294C36.2464 2.84449 36.6283 3.00267 37.0264 3.00267H44.9251V11.536C44.9251 11.9342 45.0833 12.316 45.3648 12.5976C45.6464 12.8792 46.0283 13.0373 46.4264 13.0373C46.8246 13.0373 47.2065 12.8792 47.488 12.5976C47.7696 12.316 47.9278 11.9342 47.9278 11.536V11.5413ZM12.4744 46.4987C12.4744 46.1005 12.3163 45.7186 12.0347 45.4371C11.7532 45.1555 11.3713 44.9973 10.9731 44.9973H3.07444V36.464C3.07444 36.0658 2.91627 35.684 2.63471 35.4024C2.35316 35.1208 1.97129 34.9627 1.57311 34.9627C1.17493 34.9627 0.793062 35.1208 0.511508 35.4024C0.229953 35.684 0.0717773 36.0658 0.0717773 36.464V46.504C0.0731886 46.9013 0.231987 47.2818 0.513389 47.5622C0.794791 47.8426 1.17585 48 1.57311 48H10.9731C11.3713 48 11.7532 47.8418 12.0347 47.5603C12.3163 47.2787 12.4744 46.8968 12.4744 46.4987ZM47.9278 46.4987V36.4587C47.9278 36.0605 47.7696 35.6786 47.488 35.3971C47.2065 35.1155 46.8246 34.9573 46.4264 34.9573C46.0283 34.9573 45.6464 35.1155 45.3648 35.3971C45.0833 35.6786 44.9251 36.0605 44.9251 36.4587V44.992H37.0264C36.6283 44.992 36.2464 45.1502 35.9648 45.4317C35.6833 45.7133 35.5251 46.0952 35.5251 46.4933C35.5251 46.8915 35.6833 47.2734 35.9648 47.5549C36.2464 47.8365 36.6283 47.9947 37.0264 47.9947H46.4264C46.8235 47.994 47.2041 47.8363 47.4854 47.5561C47.7666 47.2758 47.9257 46.8957 47.9278 46.4987Z" fill="#50E6FF"/>
<path d="M23.3731 42.9333C33.9092 42.9333 42.4504 34.3921 42.4504 23.856C42.4504 13.3199 33.9092 4.77866 23.3731 4.77866C12.837 4.77866 4.29578 13.3199 4.29578 23.856C4.29578 34.3921 12.837 42.9333 23.3731 42.9333Z" fill="#0078D4"/>
<path d="M23.3734 40.7065C32.478 40.7065 39.8587 33.3257 39.8587 24.2211C39.8587 15.1165 32.478 7.73581 23.3734 7.73581C14.2688 7.73581 6.88806 15.1165 6.88806 24.2211C6.88806 33.3257 14.2688 40.7065 23.3734 40.7065Z" fill="url(#computer-vision01_paint0_linear)"/>
<path d="M23.373 37.4055C30.806 37.4055 36.8316 31.3799 36.8316 23.9469C36.8316 16.5138 30.806 10.4882 23.373 10.4882C15.94 10.4882 9.91431 16.5138 9.91431 23.9469C9.91431 31.3799 15.94 37.4055 23.373 37.4055Z" fill="#5EA0EF"/>
<path d="M23.3728 32.9839C28.3139 32.9839 32.3195 28.9783 32.3195 24.0372C32.3195 19.0961 28.3139 15.0906 23.3728 15.0906C18.4317 15.0906 14.4261 19.0961 14.4261 24.0372C14.4261 28.9783 18.4317 32.9839 23.3728 32.9839Z" fill="#005BA1"/>
<path d="M20.4291 23.4294C21.9136 23.4294 23.1171 22.2259 23.1171 20.7414C23.1171 19.2568 21.9136 18.0534 20.4291 18.0534C18.9445 18.0534 17.7411 19.2568 17.7411 20.7414C17.7411 22.2259 18.9445 23.4294 20.4291 23.4294Z" fill="white"/>
<path d="M23.3732 25.3201C24.0315 25.3201 24.5652 24.7865 24.5652 24.1281C24.5652 23.4698 24.0315 22.9361 23.3732 22.9361C22.7148 22.9361 22.1812 23.4698 22.1812 24.1281C22.1812 24.7865 22.7148 25.3201 23.3732 25.3201Z" fill="white"/>
</g>
<defs>
<linearGradient id="computer-vision01_paint0_linear" x1="23.3734" y1="40.7065" x2="23.3734" y2="7.73581" gradientUnits="userSpaceOnUse">
<stop stop-color="#5EA0EF"/>
<stop offset="1" stop-color="#0078D4"/>
</linearGradient>
<clipPath id="computer-vision01_clip0">
<rect width="48" height="48" fill="white"/>
</clipPath>
</defs>
</svg>
