<svg data-slug-id="computer13" viewBox="0 0 48 48" xmlns="http://www.w3.org/2000/svg">
<rect x="0.5" y="0.5" width="47" height="47" stroke="white"/>
<path d="M29.6245 36.8789H30.0401C29.7739 37.898 29.6082 38.7693 29.6155 39.5C29.6246 40.4105 29.9048 41.1556 30.613 41.6894C31.2773 42.19 32.2589 42.4554 33.546 42.6071C34.7451 42.7484 36.2796 42.7973 38.2022 42.8026V44.5176H28.347H20.3391H9.86914V42.8021C11.8014 42.7951 13.4004 42.7447 14.6938 42.6031C16.0874 42.4504 17.185 42.1866 17.9739 41.7127C18.7983 41.2174 19.2624 40.5062 19.3963 39.5606C19.5032 38.8058 19.3981 37.9148 19.1445 36.8789H29.6245Z" fill="#50E6FF" stroke="white"/>
<path d="M38.2024 42.8032V44.5178H9.86133V42.8032H38.2024Z" fill="#50E6FF" stroke="white"/>
<path d="M1.77344 35.9427V3.48193H46.2262V35.9427H1.77344Z" fill="#0078D4" stroke="white"/>
<path d="M5.43018 19.4448C5.43018 13.8207 9.98872 9.26221 15.6127 9.26221C21.2366 9.26221 25.7877 13.8128 25.7953 19.4375C25.7949 25.0616 21.236 29.6273 15.6127 29.6273C9.98896 29.6273 5.43018 25.061 5.43018 19.4448ZM10.1227 19.4288C10.1227 22.4684 12.5911 24.9188 15.6127 24.9188C18.6428 24.9188 21.1027 22.4679 21.1027 19.4288C21.1027 16.3902 18.6513 13.9388 15.6127 13.9388C12.5736 13.9388 10.1227 16.3987 10.1227 19.4288Z" fill="white" stroke="white"/>
<path d="M15.0945 13.978C13.4807 14.1272 12.0673 14.9873 11.1713 16.2318L7.31272 13.5367C9.06655 11.0726 11.8755 9.43613 15.0747 9.26852L15.0945 13.978Z" fill="#50E6FF" stroke="white"/>
<path d="M10.6468 17.1101C10.3143 17.8146 10.1307 18.6027 10.1307 19.437C10.1307 20.085 10.2375 20.7063 10.4493 21.286L6.14666 23.1837C5.68008 22.028 5.43018 20.7638 5.43018 19.437C5.43018 17.5895 5.91478 15.8661 6.77186 14.3811L10.6468 17.1101Z" fill="#3BCAF4" stroke="white"/>
<path d="M42.6735 11.3701V12.8451H29.3662V11.3701H42.6735Z" fill="white" stroke="white"/>
<path d="M42.6735 16.2563V17.7314H29.3662V16.2563H42.6735Z" fill="white" stroke="white"/>
<path d="M34.3702 11.3701V12.8451H29.3662V11.3701H34.3702Z" fill="#50E6FF" stroke="white"/>
<path d="M37.8512 16.2563V17.7314H29.3662V16.2563H37.8512Z" fill="#50E6FF" stroke="white"/>
<path d="M42.6735 20.9829V22.45H29.3662V20.9829H42.6735Z" fill="white" stroke="white"/>
<path d="M42.6735 25.7974V27.1446H29.3662V25.7974H42.6735Z" fill="white" stroke="white"/>
<path d="M34.3702 20.9829V22.45H29.3662V20.9829H34.3702Z" fill="#50E6FF" stroke="white"/>
<path d="M37.8512 25.7974V27.1446H29.3662V25.7974H37.8512Z" fill="#50E6FF" stroke="white"/>
</svg>
