<svg data-slug-id="computer16" viewBox="0 0 48 48" xmlns="http://www.w3.org/2000/svg">
<path d="M30.7134 36.9062H29.6227H18.8862H18.3287C19.8233 42.1735 17.8198 42.9249 9.0625 42.9249V45.6797H20.203H28.3382H38.8486V42.9249C30.0832 42.9329 29.2269 42.1816 30.7134 36.9062Z" fill="#50E6FF"/>
<path d="M9.0542 45.6879H38.8484V42.9331H9.0542V45.6879Z" fill="#50E6FF"/>
<path d="M47 3H1V36.9789H47V3Z" fill="#0078D4"/>
<path fill-rule="evenodd" clip-rule="evenodd" d="M15.0166 25.3941V11.5957C15.0166 11.2564 14.9197 10.9333 14.7581 10.6586C14.7419 10.6182 14.7177 10.5778 14.6935 10.5455V10.5374C14.2815 9.83455 13.5221 9.35791 12.6496 9.35791C11.4539 9.35791 10.4683 10.2466 10.3068 11.4018C10.2017 11.3937 10.0886 11.3857 9.97553 11.3857C8.11743 11.3857 6.6148 12.8964 6.6148 14.7545C6.6148 15.0372 6.65519 15.32 6.71982 15.5785C5.48378 16.9438 4.71631 18.7615 4.71631 20.7488C4.71631 24.053 6.79253 26.8563 9.70893 27.955C9.71701 27.9954 9.71701 28.0358 9.72509 28.0762C9.98361 29.4011 11.05 30.4675 12.3749 30.726C13.1101 30.8714 13.8129 30.7745 14.4188 30.4998C14.7823 30.3382 15.0247 29.9828 15.0247 29.5869L15.0166 25.3941Z" fill="#50E6FF"/>
<path fill-rule="evenodd" clip-rule="evenodd" d="M16.3333 25.3941V11.5957C16.3333 11.2564 16.4302 10.9333 16.5918 10.6586C16.6079 10.6182 16.6322 10.5778 16.6564 10.5455V10.5374C17.0684 9.83455 17.8278 9.35791 18.7003 9.35791C19.896 9.35791 20.8816 10.2466 21.0431 11.4018C21.1482 11.3937 21.2613 11.3857 21.3744 11.3857C23.2325 11.3857 24.7351 12.8964 24.7351 14.7545C24.7351 15.0372 24.6947 15.32 24.6301 15.5785C25.8661 16.9438 26.6336 18.7615 26.6336 20.7488C26.6336 24.053 24.5574 26.8563 21.641 27.955C21.6329 27.9954 21.6329 28.0358 21.6248 28.0762C21.3663 29.4011 20.2999 30.4675 18.975 30.726C18.2398 30.8714 17.537 30.7745 16.9311 30.4998C16.5676 30.3382 16.3252 29.9828 16.3252 29.5869L16.3333 25.3941Z" fill="#50E6FF"/>
<path d="M30.2124 12.0318H42.0961V9.42236H30.2124V12.0318Z" fill="white"/>
<path d="M30.2124 15.9502H42.0961V13.3408H30.2124V15.9502Z" fill="#50E6FF"/>
<path d="M30.2124 19.7388H42.0961V17.1294H30.2124V19.7388Z" fill="#50E6FF"/>
<path d="M30.2124 23.6089H42.0961V20.9995H30.2124V23.6089Z" fill="#50E6FF"/>
<path d="M30.2124 27.6075H36.8127V24.998H30.2124V27.6075Z" fill="#50E6FF"/>
</svg>
