<svg data-slug-id="computer00" viewBox="0 0 48 48" xmlns="http://www.w3.org/2000/svg">
<path d="M33.6994 35.2667H32.7353H23.2551H22.7731C24.0585 40.0015 22.291 40.6545 14.5783 40.6545V43.1035H24.3799H31.4498H40.7693V40.6545C33.2173 40.6545 32.4139 39.8382 33.6994 35.2667Z" fill="#0078D4"/>
<path d="M48 4.89648H7.50842V35.2643H48V4.89648Z" fill="#0078D4"/>
<path d="M45.911 7.02026H9.75772V32.9798H45.911V7.02026Z" fill="#50E6FF"/>
<path d="M5.5929 33.0631H15.2719V23.5301H5.5929V33.0631ZM3.74466 21.7305V35.0086H17.0228V21.7305H3.74466Z" fill="#50E6FF"/>
<path d="M5.59338 33.0628H15.2723V23.5298H5.59338V33.0628Z" fill="#0078D4"/>
<path d="M17.0719 35.0095H3.74506V21.7313H17.0232V35.0095H17.0719ZM18.9687 29.3188V27.4706H20.9143V25.4764H18.9687V23.6282V23.5309H20.9143V21.6827H18.9687V19.8344H17.0719V17.8889H15.2723V19.8344H15.2236H13.2781V17.8889H11.4299V19.8344H9.48434V17.8889H7.53882V19.8344H5.64194V18.0835V17.8889H3.74506V18.0835V19.8344H1.75091V21.6827H-6.10352e-05V23.5796H1.79954V25.4764H-6.10352e-05V27.3733H1.79954V29.2702H-6.10352e-05V31.1671H1.79954V33.064H-6.10352e-05V34.9608H1.79954V37.0036H3.7937V38.8032H5.69058V37.0036H7.58746V38.8032H9.48434V37.0036H11.3812V38.8032H13.2781V37.0036H15.175V38.8032H17.0719V37.0036H18.9687V35.0095H20.7683H20.9629V33.1126H20.7683H18.9687V31.2157H20.9143V29.3188H18.9687Z" fill="#0078D4"/>
</svg>
