<svg data-slug-id="computer12" viewBox="0 0 49 48" xmlns="http://www.w3.org/2000/svg">
<path d="M31.2324 36.7305H30.1321H19.2528H18.6862C20.197 42.0593 18.169 42.8229 9.30127 42.8229V45.6146H20.5829H28.8184H39.4678V42.8229C30.5919 42.8311 29.7298 42.0675 31.2324 36.7305Z" fill="#50E6FF"/>
<path d="M9.29297 45.6149H39.4677V42.8232H9.29297V45.6149Z" fill="#50E6FF"/>
<path d="M47.7198 2.38477H0.975586V36.7963H47.7198V2.38477Z" fill="#0078D4"/>
<path d="M42.9903 11.0801C42.9903 10.4396 42.473 9.92236 41.8326 9.92236H28.1944C27.554 9.92236 26.9546 10.4396 26.9546 11.0801C26.9546 11.7205 27.554 12.2378 28.1944 12.2378H41.8326C42.473 12.2378 42.9903 11.7205 42.9903 11.0801Z" fill="white"/>
<path d="M29.4341 11.0798C29.4341 12.3525 30.4686 13.3789 31.7331 13.3789C33.0058 13.3789 34.0321 12.3443 34.0321 11.0798C34.0321 9.80716 32.9976 8.78081 31.7331 8.78081C30.4686 8.7726 29.4341 9.80716 29.4341 11.0798Z" fill="#50E6FF"/>
<path d="M42.9903 18.4942C42.9903 17.8537 42.473 17.3364 41.8326 17.3364H28.1944C27.554 17.3364 26.9546 17.8537 26.9546 18.4942C26.9546 19.1346 27.554 19.6519 28.1944 19.6519H41.8326C42.473 19.6437 42.9903 19.1264 42.9903 18.4942Z" fill="white"/>
<path d="M36.3643 18.486C36.3643 19.7587 37.3988 20.7851 38.6633 20.7851C39.936 20.7851 40.9623 19.7505 40.9623 18.486C40.9623 17.2134 39.9278 16.187 38.6633 16.187C37.3906 16.187 36.3643 17.2134 36.3643 18.486Z" fill="#50E6FF"/>
<path d="M42.9903 25.7525C42.9903 25.112 42.473 24.5947 41.8326 24.5947H28.1944C27.554 24.5947 26.9546 25.112 26.9546 25.7525C26.9546 26.3929 27.554 26.9102 28.1944 26.9102H41.8326C42.473 26.9102 42.9903 26.3929 42.9903 25.7525Z" fill="white"/>
<path d="M29.5083 25.7443C29.5083 27.017 30.5429 28.0434 31.8073 28.0434C33.08 28.0434 34.1064 27.0088 34.1064 25.7443C34.1064 24.4717 33.0718 23.4453 31.8073 23.4453C30.5429 23.4453 29.5083 24.4799 29.5083 25.7443Z" fill="#50E6FF"/>
<path d="M14.392 9.80737C14.392 9.55283 14.1539 9.34756 13.8911 9.41325C13.7023 9.4543 13.5791 9.63494 13.5791 9.82379V28.2242C13.5791 28.4213 13.7433 28.5855 13.9404 28.5855H14.0389C14.236 28.5855 14.4002 28.4213 14.4002 28.2242V9.80737H14.392Z" fill="#50E6FF"/>
<path d="M16.0345 14.6111C16.0345 14.3565 15.7963 14.1513 15.5254 14.217C15.3365 14.258 15.2134 14.4387 15.2134 14.6275V28.2246C15.2134 28.4217 15.3776 28.5859 15.5747 28.5859H15.6732C15.8702 28.5859 16.0345 28.4217 16.0345 28.2246V14.6111Z" fill="#50E6FF"/>
<path d="M17.5448 12.2786C17.5448 12.024 17.3067 11.8188 17.0439 11.8844C16.8551 11.9255 16.7319 12.1061 16.7319 12.295V28.224C16.7319 28.421 16.8962 28.5852 17.0932 28.5852H17.1917C17.3888 28.5852 17.553 28.421 17.553 28.224V12.2786H17.5448Z" fill="#50E6FF"/>
<path d="M20.5667 23.1169C20.5667 22.8624 20.3286 22.6571 20.0576 22.7228C19.8688 22.7639 19.7456 22.9445 19.7456 23.1334V28.2241C19.7456 28.4211 19.9098 28.5853 20.1069 28.5853H20.2054C20.4025 28.5853 20.5667 28.4211 20.5667 28.2241V23.1169Z" fill="#50E6FF"/>
<path d="M6.85428 26.1301C6.85428 25.8756 6.61617 25.6703 6.34521 25.736C6.15637 25.7771 6.0332 25.9577 6.0332 26.1465V28.2239C6.0332 28.4209 6.19742 28.5852 6.39448 28.5852H6.49301C6.69007 28.5852 6.85428 28.4209 6.85428 28.2239V26.1301V26.1301Z" fill="#50E6FF"/>
<path d="M5.34354 27.7722C5.34354 27.5177 5.10543 27.3124 4.83447 27.3781C4.64562 27.4191 4.52246 27.5998 4.52246 27.7886V28.2238C4.52246 28.4209 4.68668 28.5851 4.88374 28.5851H4.98227C5.17933 28.5851 5.34354 28.4209 5.34354 28.2238V27.7722Z" fill="#50E6FF"/>
<path d="M22.1018 26.5413C22.1018 26.2867 21.8637 26.0814 21.5928 26.1471C21.4039 26.1882 21.2808 26.3688 21.2808 26.5577V28.2245C21.2808 28.4215 21.445 28.5857 21.642 28.5857H21.7406C21.9376 28.5857 22.1018 28.4215 22.1018 28.2245V26.5413Z" fill="#50E6FF"/>
<path d="M23.6127 28.0188C23.6127 27.7643 23.3746 27.559 23.1118 27.6247C22.923 27.6657 22.7998 27.8464 22.7998 28.0352V28.2241C22.7998 28.4211 22.964 28.5853 23.1611 28.5853H23.2596C23.4567 28.5853 23.6209 28.4211 23.6209 28.2241V28.0188H23.6127Z" fill="#50E6FF"/>
<path d="M19.0559 20.2351C19.0559 19.9806 18.8178 19.7753 18.5469 19.841C18.358 19.882 18.2349 20.0627 18.2349 20.2515V28.2324C18.2349 28.4295 18.3991 28.5937 18.5961 28.5937H18.6947C18.8917 28.5937 19.0559 28.4295 19.0559 28.2324V20.2351Z" fill="#50E6FF"/>
<path d="M12.7743 20.2348C12.7743 20.0131 12.6101 19.8242 12.413 19.8242C12.216 19.8242 12.0518 20.0131 12.0518 20.2348V28.2239C12.0518 28.4209 12.216 28.5852 12.413 28.5852C12.6101 28.5852 12.7743 28.4209 12.7743 28.2239V20.2348Z" fill="#50E6FF"/>
<path d="M11.3787 18.3137C11.3787 18.0592 11.1406 17.8539 10.8696 17.9196C10.6808 17.9607 10.5576 18.1413 10.5576 18.3301V28.2242C10.5576 28.4212 10.7218 28.5855 10.9189 28.5855H11.0174C11.2145 28.5855 11.3787 28.4212 11.3787 28.2242V18.3137V18.3137Z" fill="#50E6FF"/>
<path d="M9.86796 22.9773C9.86796 22.7228 9.62984 22.5175 9.35889 22.5832C9.17004 22.6242 9.04688 22.8049 9.04688 22.9937V28.224C9.04688 28.4211 9.21109 28.5853 9.40815 28.5853H9.50668C9.70374 28.5853 9.86796 28.4211 9.86796 28.224V22.9773V22.9773Z" fill="#50E6FF"/>
<path d="M8.35721 21.6062C8.35721 21.3517 8.1191 21.1464 7.84814 21.2121C7.65929 21.2531 7.53613 21.4338 7.53613 21.6226V28.2241C7.53613 28.4212 7.70035 28.5854 7.89741 28.5854H7.99594C8.193 28.5854 8.35721 28.4212 8.35721 28.2241V21.6062V21.6062Z" fill="#50E6FF"/>
</svg>
