<svg data-slug-id="computer10" viewBox="0 0 49 49" xmlns="http://www.w3.org/2000/svg">
<path d="M30.8403 37.8301H29.7497H19.0131H18.4557C19.9503 43.0974 17.9467 43.8487 9.18945 43.8487V46.6035H20.33H28.4652H38.9755V43.8487C30.2102 43.8568 29.3538 43.1055 30.8403 37.8301Z" fill="#50E6FF"/>
<path d="M9.18115 46.6118H38.9753V43.8569H9.18115V46.6118Z" fill="#50E6FF"/>
<path d="M47.127 3.92383H1.12695V37.9028H47.127V3.92383Z" fill="#0078D4"/>
<path fill-rule="evenodd" clip-rule="evenodd" d="M15.1436 26.3179V12.5195C15.1436 12.1802 15.0466 11.8571 14.8851 11.5824C14.8689 11.542 14.8447 11.5016 14.8204 11.4693V11.4612C14.4084 10.7584 13.649 10.2817 12.7765 10.2817C11.5809 10.2817 10.5953 11.1704 10.4337 12.3256C10.3287 12.3176 10.2156 12.3095 10.1025 12.3095C8.24439 12.3095 6.74175 13.8202 6.74175 15.6783C6.74175 15.961 6.78214 16.2438 6.84677 16.5023C5.61074 17.8676 4.84326 19.6853 4.84326 21.6727C4.84326 24.9769 6.91948 27.7802 9.83589 28.8789C9.84396 28.9193 9.84396 28.9596 9.85204 29C10.1106 30.3249 11.1769 31.3913 12.5018 31.6498C13.237 31.7953 13.9399 31.6983 14.5458 31.4236C14.9093 31.2621 15.1517 30.9066 15.1517 30.5107L15.1436 26.3179Z" fill="#50E6FF"/>
<path fill-rule="evenodd" clip-rule="evenodd" d="M16.4602 26.3179V12.5195C16.4602 12.1802 16.5572 11.8571 16.7187 11.5824C16.7349 11.542 16.7591 11.5016 16.7834 11.4693V11.4612C17.1954 10.7584 17.9548 10.2817 18.8273 10.2817C20.0229 10.2817 21.0085 11.1704 21.1701 12.3256C21.2751 12.3176 21.3882 12.3095 21.5013 12.3095C23.3594 12.3095 24.8621 13.8202 24.8621 15.6783C24.8621 15.961 24.8217 16.2438 24.757 16.5023C25.9931 17.8676 26.7605 19.6853 26.7605 21.6727C26.7605 24.9769 24.6843 27.7802 21.7679 28.8789C21.7598 28.9193 21.7598 28.9596 21.7518 29C21.4932 30.3249 20.4269 31.3913 19.102 31.6498C18.3668 31.7953 17.664 31.6983 17.058 31.4236C16.6945 31.2621 16.4521 30.9066 16.4521 30.5107L16.4602 26.3179Z" fill="#50E6FF"/>
<path d="M30.3394 12.9556H42.2231V10.3462H30.3394V12.9556Z" fill="white"/>
<path d="M30.3394 16.8741H42.2231V14.2646H30.3394V16.8741Z" fill="#50E6FF"/>
<path d="M30.3394 20.6626H42.2231V18.0532H30.3394V20.6626Z" fill="#50E6FF"/>
<path d="M30.3394 24.5328H42.2231V21.9233H30.3394V24.5328Z" fill="#50E6FF"/>
<path d="M30.3394 28.5313H36.9396V25.9219H30.3394V28.5313Z" fill="#50E6FF"/>
</svg>
