<svg data-slug-id="computer15" viewBox="0 0 48 48" xmlns="http://www.w3.org/2000/svg">
<path d="M30.7076 36.4028H29.6357H19.0368H18.4848C19.9567 41.5943 17.9809 42.3382 9.3418 42.3382V45.0579H20.3327H28.3558H38.7307V42.3382C30.0836 42.3462 29.2437 41.6023 30.7076 36.4028Z" fill="#50E6FF"/>
<path d="M46.7697 2.94238H1.23047V36.4669H46.7697V2.94238Z" fill="#0078D4"/>
<path d="M27.8438 11.4297H12.2134V11.8296H27.8438V11.4297Z" fill="white"/>
<path d="M27.8438 25.8198H12.2134V26.2198H27.8438V25.8198Z" fill="white"/>
<path d="M42.1624 11.6533C42.1624 11.0293 41.6585 10.5254 41.0345 10.5254H27.7479C27.124 10.5254 26.54 11.0293 26.54 11.6533C26.54 12.2772 27.124 12.7812 27.7479 12.7812H41.0345C41.6585 12.7812 42.1624 12.2772 42.1624 11.6533Z" fill="white"/>
<path d="M28.9556 11.6534C28.9556 12.8933 29.9635 13.8932 31.1953 13.8932C32.4352 13.8932 33.4351 12.8853 33.4351 11.6534C33.4351 10.4135 32.4272 9.41362 31.1953 9.41362C29.9635 9.40562 28.9556 10.4135 28.9556 11.6534Z" fill="#50E6FF"/>
<path d="M42.1624 18.957C42.1624 18.333 41.6585 17.8291 41.0345 17.8291H27.7479C27.124 17.8291 26.54 18.333 26.54 18.957C26.54 19.5809 27.124 20.0849 27.7479 20.0849H41.0345C41.6585 20.0769 42.1624 19.5729 42.1624 18.957Z" fill="white"/>
<path d="M35.707 18.9488C35.707 20.1886 36.7149 21.1885 37.9468 21.1885C39.1867 21.1885 40.1866 20.1806 40.1866 18.9488C40.1866 17.7089 39.1787 16.709 37.9468 16.709C36.7069 16.709 35.707 17.7089 35.707 18.9488Z" fill="#50E6FF"/>
<path d="M42.1624 26.0278C42.1624 25.4039 41.6585 24.8999 41.0345 24.8999H27.7479C27.124 24.8999 26.54 25.4039 26.54 26.0278C26.54 26.6517 27.124 27.1557 27.7479 27.1557H41.0345C41.6585 27.1557 42.1624 26.6517 42.1624 26.0278Z" fill="white"/>
<path d="M29.0273 26.02C29.0273 27.2599 30.0352 28.2598 31.2671 28.2598C32.507 28.2598 33.5069 27.2519 33.5069 26.02C33.5069 24.7802 32.499 23.7803 31.2671 23.7803C30.0352 23.7803 29.0273 24.7882 29.0273 26.02Z" fill="#50E6FF"/>
<path d="M15.4292 9.27002V14.0775H22.8044V9.27002H15.4292Z" fill="#50E6FF"/>
<path d="M5.98975 28.6675V31.8511H9.3334V28.6675H5.98975Z" fill="#50E6FF"/>
<path d="M10.1336 30.2436C10.1336 29.8036 9.78168 29.4517 9.34172 29.4517C8.90177 29.4517 8.5498 29.8036 8.5498 30.2436C8.5498 30.6835 8.90177 31.0355 9.34172 31.0355C9.78168 31.0355 10.1336 30.6835 10.1336 30.2436Z" fill="white"/>
<path d="M5.98975 21.7163V24.9H9.3334V21.7163H5.98975Z" fill="#50E6FF"/>
<path d="M10.1336 23.2846C10.1336 22.8446 9.78168 22.4927 9.34172 22.4927C8.90177 22.4927 8.5498 22.8446 8.5498 23.2846C8.5498 23.7245 8.90177 24.0765 9.34172 24.0765C9.78168 24.0765 10.1336 23.7245 10.1336 23.2846Z" fill="white"/>
<path d="M5.98975 14.7651V17.9488H9.3334V14.7651H5.98975Z" fill="#50E6FF"/>
<path d="M10.1336 16.3407C10.1336 15.9008 9.78168 15.5488 9.34172 15.5488C8.90177 15.5488 8.5498 15.9008 8.5498 16.3407C8.5498 16.7807 8.90177 17.1327 9.34172 17.1327C9.78168 17.1327 10.1336 16.7807 10.1336 16.3407Z" fill="white"/>
<path d="M5.98975 7.80566V10.9893H9.3334V7.80566H5.98975Z" fill="#50E6FF"/>
<path d="M10.1336 9.38957C10.1336 8.94962 9.78168 8.59766 9.34172 8.59766C8.90177 8.59766 8.5498 8.94962 8.5498 9.38957C8.5498 9.82953 8.90177 10.1815 9.34172 10.1815C9.78168 10.1815 10.1336 9.82153 10.1336 9.38957Z" fill="white"/>
<path d="M16.245 11.6215C16.245 11.1816 15.893 10.8296 15.4531 10.8296C15.0131 10.8296 14.6611 11.1816 14.6611 11.6215C14.6611 12.0615 15.0131 12.4134 15.4531 12.4134C15.893 12.4134 16.245 12.0615 16.245 11.6215Z" fill="white"/>
<path d="M15.4292 16.5493V21.3568H22.8044V16.5493H15.4292Z" fill="#50E6FF"/>
<path d="M16.245 18.9086C16.245 18.4687 15.893 18.1167 15.4531 18.1167C15.0131 18.1167 14.6611 18.4687 14.6611 18.9086C14.6611 19.3486 15.0131 19.7005 15.4531 19.7005C15.893 19.7005 16.245 19.3406 16.245 18.9086Z" fill="white"/>
<path d="M15.4292 23.6763V28.4838H22.8044V23.6763H15.4292Z" fill="#50E6FF"/>
<path d="M16.245 26.0278C16.245 25.5878 15.893 25.2358 15.4531 25.2358C15.0131 25.2358 14.6611 25.5878 14.6611 26.0278C14.6611 26.4677 15.0131 26.8197 15.4531 26.8197C15.893 26.8197 16.245 26.4677 16.245 26.0278Z" fill="white"/>
<path d="M12.4135 11.8295H15.3332V11.4295H12.4135V9.19775H9.3418V9.59771H12.0135V16.085H9.3418V16.485H12.0135V18.6768V18.8767V19.0767V23.0603H9.3418V23.4603H12.0135V30.1156H9.3418V30.5155H12.4135V26.22H15.3332V25.82H12.4135V23.4603V19.0767H15.3332V18.6768H12.4135V16.085V11.8295Z" fill="white"/>
</svg>
