<svg data-slug-id="computer14" viewBox="0 0 48 48" xmlns="http://www.w3.org/2000/svg">
<path d="M30.8913 36.9038H29.7718H18.7428H18.1706C19.7047 42.3105 17.6482 43.0817 8.65918 43.0817V45.9094H20.1028H28.4533H39.2501V43.0817C30.2444 43.09 29.3654 42.3188 30.8913 36.9038Z" fill="#50E6FF"/>
<path d="M8.65039 45.9176H39.2413V43.0898H8.65039V45.9176Z" fill="#50E6FF"/>
<path d="M47.6171 2.08301H0.383301V36.9777H47.6171V2.08301Z" fill="#0078D4"/>
<path d="M31.5381 9.69653H43.7446V7.01807H31.5381V9.69653Z" fill="white"/>
<path d="M31.5381 13.7263H43.7446V11.0396H31.5381V13.7263Z" fill="#50E6FF"/>
<path d="M31.5381 17.6155H43.7446V14.937H31.5381V17.6155Z" fill="#50E6FF"/>
<path d="M31.5381 21.5876H43.7446V18.9092H31.5381V21.5876Z" fill="#50E6FF"/>
<path d="M31.5381 25.6926H43.587V23.0142H31.5381V25.6926Z" fill="#50E6FF"/>
<path d="M31.5381 29.5735H38.313V26.895H31.5381V29.5735Z" fill="#50E6FF"/>
<path d="M16.4208 6.74414C9.62094 6.74414 4.11475 12.2586 4.11475 19.0501C4.11475 25.8417 9.62094 31.3562 16.4208 31.3562C23.2206 31.3562 28.7268 25.8417 28.7268 19.0501C28.7185 12.2503 23.2206 6.74414 16.4208 6.74414ZM16.4208 24.7885C13.253 24.7885 10.6741 22.2179 10.6741 19.0419C10.6741 15.8658 13.2447 13.2952 16.4208 13.2952C19.5968 13.2952 22.1674 15.8658 22.1674 19.0419C22.1674 22.2179 19.5885 24.7885 16.4208 24.7885Z" fill="white"/>
<path d="M16.4042 13.3035L16.3793 6.73584C12.0506 6.75242 8.25269 8.99139 6.06348 12.3913L11.4619 16.1644C12.4404 14.4644 14.2979 13.3035 16.4042 13.3035Z" fill="#50E6FF"/>
<path d="M10.6824 19.05C10.6824 18.0051 10.956 17.0266 11.4453 16.1891L6.06347 12.3994L6.0386 12.4409C4.8196 14.3481 4.11475 16.6037 4.11475 19.05C4.11475 20.8577 4.50449 22.5826 5.21764 24.1249L11.2214 21.4797C10.8648 20.7416 10.6824 19.9207 10.6824 19.05Z" fill="#3BCAF4"/>
</svg>
