<svg data-slug-id="compute33" viewBox="0 0 48 48" xmlns="http://www.w3.org/2000/svg">
<g clip-path="url(#compute33_343029b3-38ae-4c27-aa0e-c86f9edf84da)">
<path d="M45.8664 2.32016H1.06643C0.182775 2.32016 -0.533569 3.0365 -0.533569 3.92016V32.7202C-0.533569 33.6038 0.182775 34.3202 1.06643 34.3202H45.8664C46.7501 34.3202 47.4664 33.6038 47.4664 32.7202V3.92016C47.4664 3.0365 46.7501 2.32016 45.8664 2.32016Z" fill="url(#compute33_a188f3fc-b3ed-46c7-a196-2bdacdc9e8db)"/>
<path d="M31.4664 13.6535V22.9601L23.4664 27.6535V18.3201L31.4664 13.6535Z" fill="#50E6FF"/>
<path d="M31.4664 13.6535L23.4931 18.3468L15.4664 13.6535L23.4931 8.98682L31.4664 13.6535Z" fill="#C3F1FF"/>
<path d="M23.4664 18.3468V27.6535L15.4664 22.9601V13.6535L23.4664 18.3468Z" fill="#9CEBFF"/>
<path d="M15.4664 22.9602L23.4664 18.3202V27.6535L15.4664 22.9602Z" fill="#C3F1FF"/>
<path d="M31.4664 22.9602L23.4664 18.3202V27.6535L31.4664 22.9602Z" fill="#9CEBFF"/>
<path d="M33.0935 44.0002C28.3468 43.2535 28.1601 39.8402 28.1868 34.3202H18.6668C18.6668 39.8402 18.6668 43.2535 13.8401 44.0002C13.1897 44.0788 12.591 44.3941 12.1582 44.8859C11.7254 45.3777 11.4887 46.0117 11.4935 46.6668H35.4935C35.4638 46.0133 35.2084 45.3902 34.7708 44.9039C34.3331 44.4177 33.7403 44.0982 33.0935 44.0002V44.0002Z" fill="url(#compute33_a0ece440-3abd-4fc0-a5ba-02f17cc307f0)"/>
<path d="M12.4801 5.51978H5.14672C4.67994 5.51978 4.23227 5.7052 3.90221 6.03527C3.57215 6.36533 3.38672 6.81299 3.38672 7.27978V14.6398C3.38672 14.8732 3.47943 15.097 3.64446 15.262C3.8095 15.4271 4.03333 15.5198 4.26672 15.5198H4.85339C5.08678 15.5198 5.31061 15.4271 5.47564 15.262C5.64067 15.097 5.73339 14.8732 5.73339 14.6398V7.83978H12.4801C12.7088 7.83284 12.9258 7.73707 13.0851 7.57279C13.2444 7.4085 13.3335 7.18862 13.3334 6.95978V6.39978C13.3335 6.17093 13.2444 5.95105 13.0851 5.78676C12.9258 5.62248 12.7088 5.52671 12.4801 5.51978V5.51978Z" fill="white"/>
<path d="M12.4801 28.6135H5.7068V21.8668C5.7068 21.7513 5.68404 21.6368 5.63981 21.5301C5.59559 21.4233 5.53077 21.3263 5.44905 21.2446C5.36734 21.1628 5.27033 21.098 5.16356 21.0538C5.05679 21.0096 4.94236 20.9868 4.8268 20.9868H4.2668C4.15124 20.9868 4.0368 21.0096 3.93004 21.0538C3.82327 21.098 3.72626 21.1628 3.64454 21.2446C3.56283 21.3263 3.49801 21.4233 3.45378 21.5301C3.40956 21.6368 3.3868 21.7513 3.3868 21.8668V29.3335C3.38326 29.5668 3.42618 29.7986 3.51304 30.0152C3.5999 30.2318 3.72898 30.429 3.89277 30.5953C4.05655 30.7615 4.25177 30.8936 4.46706 30.9837C4.68235 31.0738 4.91341 31.1202 5.1468 31.1202H12.4801C12.6068 31.1141 12.7307 31.0815 12.844 31.0246C12.9572 30.9677 13.0573 30.8876 13.1377 30.7896C13.2181 30.6916 13.2771 30.5779 13.3108 30.4556C13.3445 30.3334 13.3523 30.2055 13.3335 30.0802V29.4935C13.3336 29.2646 13.2445 29.0448 13.0852 28.8805C12.9259 28.7162 12.7089 28.6204 12.4801 28.6135V28.6135Z" fill="white"/>
<path d="M41.8931 5.60006H34.6665C34.4331 5.60006 34.2093 5.69277 34.0442 5.85781C33.8792 6.02284 33.7865 6.24667 33.7865 6.48006V7.04006C33.7753 7.16217 33.7898 7.28526 33.829 7.40144C33.8682 7.51761 33.9313 7.62432 34.0141 7.71471C34.097 7.80509 34.1978 7.87717 34.3102 7.92631C34.4225 7.97545 34.5439 8.00057 34.6665 8.00006H41.4131V14.6934C41.4131 14.9268 41.5059 15.1506 41.6709 15.3156C41.8359 15.4807 42.0598 15.5734 42.2931 15.5734H42.9065C43.1399 15.5734 43.3637 15.4807 43.5287 15.3156C43.6938 15.1506 43.7865 14.9268 43.7865 14.6934V7.36006C43.7872 7.11727 43.7376 6.87697 43.641 6.65425C43.5443 6.43154 43.4026 6.23123 43.2248 6.06593C43.047 5.90063 42.8369 5.77391 42.6077 5.69373C42.3785 5.61356 42.1352 5.58167 41.8931 5.60006Z" fill="white"/>
<path d="M42.8 21.0402H42.24C42.0066 21.0402 41.7827 21.1329 41.6177 21.2979C41.4527 21.4629 41.36 21.6868 41.36 21.9202V28.6935H34.6666C34.4332 28.6935 34.2094 28.7862 34.0444 28.9512C33.8793 29.1163 33.7866 29.3401 33.7866 29.5735V30.1601C33.7866 30.3935 33.8793 30.6174 34.0444 30.7824C34.2094 30.9474 34.4332 31.0401 34.6666 31.0401H42C42.4692 31.0402 42.9197 30.8556 43.254 30.5263C43.5883 30.197 43.7796 29.7494 43.7866 29.2801V21.9202C43.7875 21.795 43.7618 21.6712 43.711 21.5568C43.6603 21.4424 43.5858 21.3402 43.4924 21.2569C43.399 21.1736 43.289 21.1112 43.1695 21.0739C43.0501 21.0365 42.9241 21.025 42.8 21.0402V21.0402Z" fill="white"/>
</g>
<defs>
<linearGradient id="compute33_a188f3fc-b3ed-46c7-a196-2bdacdc9e8db" x1="23.4664" y1="34.3202" x2="23.4664" y2="2.32016" gradientUnits="userSpaceOnUse">
<stop stop-color="#0078D4"/>
<stop offset="0.82" stop-color="#5EA0EF"/>
</linearGradient>
<linearGradient id="compute33_a0ece440-3abd-4fc0-a5ba-02f17cc307f0" x1="23.4935" y1="46.6668" x2="23.4935" y2="34.3202" gradientUnits="userSpaceOnUse">
<stop stop-color="#1490DF"/>
<stop offset="0.98" stop-color="#1F56A3"/>
</linearGradient>
<clipPath id="compute33_343029b3-38ae-4c27-aa0e-c86f9edf84da">
<path d="M0 0H48V48H0V0Z" fill="white"/>
</clipPath>
</defs>
</svg>
