<svg data-slug-id="computer08" viewBox="0 0 48 49" xmlns="http://www.w3.org/2000/svg">
<path d="M27.3767 32.189H26.8317H21.4583H21.1797C21.9266 34.8235 20.9254 35.1993 16.541 35.1993V36.5772H22.1163H26.1858H31.4461V35.1993C27.0618 35.2033 26.6339 34.8275 27.3767 32.189Z" fill="#50E6FF"/>
<path d="M16.5361 36.579H31.4453V35.2012H16.5361V36.579Z" fill="#0078D4"/>
<path d="M35.5231 15.2188H12.5073V32.222H35.5231V15.2188Z" fill="#0078D4"/>
<path d="M34.2837 16.4365H13.7266V30.979H34.2837V16.4365Z" fill="#50E6FF"/>
<path d="M41.1401 40.2523C44.5214 36.4648 46.6761 31.5387 46.9586 26.1279H42.2457C41.9794 30.2385 40.3411 33.9856 37.791 36.9009L41.1401 40.2523Z" fill="#0078D4"/>
<path d="M6.90727 9.4834C3.46943 13.2871 1.29052 18.2375 1 23.6966H5.92272C6.19711 19.5942 7.82725 15.8632 10.3693 12.9479L6.90727 9.4834Z" fill="#50E6FF"/>
<path d="M8.64209 42.0853C12.4511 45.4933 17.3981 47.6575 22.8454 47.924V43.0948C18.7377 42.8202 15.0094 41.1808 12.0961 38.6289L8.64209 42.0853Z" fill="#0078D4"/>
<path d="M1 26.1279C1.28245 31.5871 3.46136 36.5375 6.89113 40.3412L10.3532 36.8767C7.81918 33.9614 6.19711 30.2304 5.92272 26.1279H1Z" fill="#0078D4"/>
<path d="M41.1235 9.56982L37.7744 12.9212C40.3326 15.8366 41.9708 19.5756 42.2371 23.6942H46.9501C46.6676 18.2754 44.5129 13.3573 41.1235 9.56982Z" fill="#50E6FF"/>
<path d="M25.2737 47.9064C30.6968 47.6076 35.6276 45.4191 39.4043 42.003L36.0472 38.6436C33.1258 41.1955 29.3813 42.8268 25.2656 43.0933V47.9064H25.2737Z" fill="#0078D4"/>
<path d="M25.2754 1.93115V6.74427C29.383 7.01077 33.1195 8.63399 36.0408 11.1778L39.398 7.81834C35.6131 4.41039 30.6904 2.22995 25.2754 1.93115Z" fill="#50E6FF"/>
<path d="M22.8446 1.92383C17.3973 2.19033 12.4585 4.34654 8.64941 7.74641L12.1034 11.2028C15.0086 8.65896 18.737 7.02767 22.8365 6.74502V1.92383H22.8446Z" fill="#50E6FF"/>
</svg>
