<svg data-slug-id="computer04" viewBox="0 0 48 49" xmlns="http://www.w3.org/2000/svg">
<path d="M24.0659 18.9693C31.0845 18.9693 37.4936 21.5807 42.3704 25.8891L47.5767 21.0452C41.3901 15.3529 33.1358 11.8848 24.0659 11.8848C14.9384 11.8848 6.62642 15.4023 0.42334 21.1606L5.65436 25.9797C10.5476 21.6219 16.9979 18.9693 24.0659 18.9693Z" fill="#0078D7"/>
<path d="M9.38623 29.4146L13.0768 32.8086C16.0918 30.4114 19.9142 28.9698 24.0743 28.9698C28.2014 28.9698 31.9991 30.3867 35.0059 32.751L38.6717 29.3323C34.7258 26.0042 29.6348 23.9941 24.0743 23.9941C18.4643 24.0024 13.3404 26.0454 9.38623 29.4146Z" fill="#0078D7"/>
<path d="M16.8003 36.2409L18.6703 37.9626C20.2355 36.9905 22.089 36.4221 24.0661 36.4221C26.0349 36.4221 27.8719 36.974 29.4289 37.9379L31.2824 36.2079C29.2394 34.791 26.7516 33.959 24.0661 33.959C21.364 33.959 18.8598 34.7992 16.8003 36.2409Z" fill="#50E6FF"/>
</svg>
