<svg data-slug-id="computer03" viewBox="0 0 48 49" xmlns="http://www.w3.org/2000/svg">
<path d="M47.9278 0.923828H0V43.9035H47.9278V0.923828Z" fill="#0078D4"/>
<path d="M8.78264 3.45204C9.48131 3.45204 10.0477 2.88608 10.0477 2.18794C10.0477 1.48979 9.48131 0.923828 8.78264 0.923828C8.08397 0.923828 7.51758 1.48979 7.51758 2.18794C7.51758 2.88608 8.08397 3.45204 8.78264 3.45204Z" fill="#50E6FF"/>
<path d="M3.75945 3.45204C4.45812 3.45204 5.02451 2.88608 5.02451 2.18794C5.02451 1.48979 4.45812 0.923828 3.75945 0.923828C3.06077 0.923828 2.49438 1.48979 2.49438 2.18794C2.49438 2.88608 3.06077 3.45204 3.75945 3.45204Z" fill="#50E6FF"/>
<path d="M3.75945 3.45204C4.45812 3.45204 5.02451 2.88608 5.02451 2.18794C5.02451 1.48979 4.45812 0.923828 3.75945 0.923828C3.06077 0.923828 2.49438 1.48979 2.49438 2.18794C2.49438 2.88608 3.06077 3.45204 3.75945 3.45204Z" fill="#50E6FF"/>
<path d="M8.81926 3.45204C9.51794 3.45204 10.0843 2.88608 10.0843 2.18794C10.0843 1.48979 9.51794 0.923828 8.81926 0.923828C8.12059 0.923828 7.5542 1.48979 7.5542 2.18794C7.5542 2.88608 8.12059 3.45204 8.81926 3.45204Z" fill="#50E6FF"/>
<path d="M29.0239 3.45204C29.7225 3.45204 30.2889 2.88608 30.2889 2.18794C30.2889 1.48979 29.7225 0.923828 29.0239 0.923828C28.3252 0.923828 27.7588 1.48979 27.7588 2.18794C27.7588 2.88608 28.3252 3.45204 29.0239 3.45204Z" fill="#50E6FF"/>
<path d="M34.1205 3.45204C34.8192 3.45204 35.3856 2.88608 35.3856 2.18794C35.3856 1.48979 34.8192 0.923828 34.1205 0.923828C33.4219 0.923828 32.8555 1.48979 32.8555 2.18794C32.8555 2.88608 33.4219 3.45204 34.1205 3.45204Z" fill="#50E6FF"/>
<path d="M34.0844 3.45204C34.7831 3.45204 35.3495 2.88608 35.3495 2.18794C35.3495 1.48979 34.7831 0.923828 34.0844 0.923828C33.3857 0.923828 32.8193 1.48979 32.8193 2.18794C32.8193 2.88608 33.3857 3.45204 34.0844 3.45204Z" fill="#50E6FF"/>
<path d="M29.0602 3.45204C29.7589 3.45204 30.3253 2.88608 30.3253 2.18794C30.3253 1.48979 29.7589 0.923828 29.0602 0.923828C28.3616 0.923828 27.7952 1.48979 27.7952 2.18794C27.7952 2.88608 28.3616 3.45204 29.0602 3.45204Z" fill="#50E6FF"/>
<path d="M48.0001 0.923828H37.8796V33.7906H48.0001V0.923828Z" fill="#50E6FF"/>
<path d="M48 0.923828H40.4097V3.45204H48V0.923828Z" fill="#0078D4"/>
<path d="M48 0.923828H40.4097V3.45204H48V0.923828Z" fill="#0078D4"/>
<path d="M48 0.923828H40.4097V3.45204H48V0.923828Z" fill="#0078D4"/>
<path d="M48 0.923828H40.4097V3.45204H48V0.923828Z" fill="#0078D4"/>
<path d="M48 0.923828H40.4097V3.45204H48V0.923828Z" fill="#0078D4"/>
<path d="M48 0.923828H40.4097V3.45204H48V0.923828Z" fill="#0078D4"/>
</svg>
