<svg data-slug-id="computer07" viewBox="0 0 48 49" xmlns="http://www.w3.org/2000/svg">
<path d="M35.532 33.7071V31.7786H32.8832V28.5113H29.8547V25.8418H27.9229V28.5113H25.1222V25.8418H23.1904V28.5113H20.3812V25.8418H18.4494V28.5113H15.2691V31.7786H12.6118V33.7071H15.2691V36.5113H12.6118V38.4397H15.2691V41.2355H12.6118V43.1639H15.2691V46.0944H18.4494V48.9155H20.3812V46.0944H23.1904V48.9155H25.1222V46.0944H27.9229V48.9155H29.8547V46.0944H32.8832V43.1639H35.532V41.2355H32.8832V38.4397H35.532V36.5113H32.8832V33.7071H35.532Z" fill="#0078D4"/>
<path d="M29.8883 31.502H18.2637V43.1062H29.8883V31.502Z" fill="#50E6FF"/>
<path d="M23.9241 3.00459C27.155 3.00459 30.3016 3.61933 33.2879 4.82354C36.3754 6.06986 39.1424 7.90565 41.5129 10.2804L42.8795 8.91617C37.6492 3.69512 30.7825 1.07617 23.9241 1.07617C17.0658 1.07617 10.2074 3.6867 4.96875 8.91617L6.33536 10.272C8.71427 7.89722 11.4812 6.06986 14.5603 4.81512C17.5466 3.61091 20.6932 3.00459 23.9241 3.00459Z" fill="#0078D4"/>
<path d="M23.9241 9.45381C28.8422 9.45381 33.4651 11.3654 36.9407 14.8349L38.3073 13.4707C34.334 9.50434 29.1291 7.52539 23.9241 7.52539C18.7192 7.52539 13.5143 9.50434 9.54102 13.4707L10.9076 14.8349C14.3916 11.3654 19.0145 9.45381 23.9241 9.45381Z" fill="#0078D4"/>
<path d="M23.9239 16.7897C26.8765 16.7897 29.6519 17.935 31.744 20.0234L33.1106 18.6592C30.5714 16.1245 27.2477 14.8613 23.9239 14.8613C20.6002 14.8613 17.2765 16.1245 14.7373 18.6592L16.1039 20.0234C18.196 17.9434 20.9714 16.7897 23.9239 16.7897Z" fill="#0078D4"/>
</svg>
