<svg data-slug-id="computer06" viewBox="0 0 49 49" xmlns="http://www.w3.org/2000/svg">
<path d="M31.0103 38.8301H29.8736H18.6672H18.0862C19.6438 44.3245 17.5558 45.1082 8.41211 45.1082V47.9818H20.0395H28.5265H39.4972V45.1082C30.3535 45.1166 29.461 44.3329 31.0103 38.8301Z" fill="#50E6FF"/>
<path d="M8.40381 47.9888H39.4973V45.1152H8.40381V47.9888Z" fill="#50E6FF"/>
<path d="M48.001 3.44336H0.000976562V38.904H48.001V3.44336Z" fill="#0078D4"/>
<path d="M45.4164 5.97852H2.54395V36.3072H45.4164V5.97852Z" fill="#0078D4"/>
<path d="M44.6235 9.01749L42.818 7.20898L35.5128 14.5141L33.1024 12.1008L31.2939 13.9093L35.5098 18.1223L35.5158 18.1163L35.5187 18.1223L44.6235 9.01749Z" fill="#50E6FF"/>
<path d="M44.6235 22.7011L42.818 20.8926L35.5128 28.1977L33.1024 25.7844L31.2939 27.5929L35.5098 31.8058L35.5158 31.7999L35.5187 31.8058L44.6235 22.7011Z" fill="#50E6FF"/>
<path d="M9.34536 23.8691H4.37012V35.0251H9.34536V23.8691Z" fill="#50E6FF"/>
<path d="M15.5553 20.2012H10.5884V35.0647H15.5553V20.2012Z" fill="#50E6FF"/>
<path d="M21.7614 17.6621H16.811V35.0734H21.7656V17.6621H21.7614Z" fill="#50E6FF"/>
<path d="M27.9787 14.4668H23.0283V35.079H27.9746V14.4668H27.9787Z" fill="#50E6FF"/>
</svg>
