<svg data-slug-id="computer01" viewBox="0 0 48 49" xmlns="http://www.w3.org/2000/svg">
<path d="M8.55615 9.66602V39.9232V40.0089H38.7594V9.66602H8.55615ZM34.738 13.866V35.5517H12.7487V13.866H34.738Z" fill="#50E6FF"/>
<path d="M8.55615 40.0095V9.66669H38.7594V40.0095H8.55615ZM26.0107 0.923828V5.38097H21.5615V0.923828H17.1123V5.38097H12.7487V0.923828H8.47059V5.38097H4.02139V9.66669H0V14.0381H4.02139V18.4095H0V22.781H4.02139V27.1524H0V31.5238H4.02139V35.8953H0V40.181H4.02139V44.8095H8.55615V48.9238H12.8342V44.8095H17.1979V48.9238H21.5615V44.8095H25.9251V48.9238H30.2888V44.8095H34.6524V48.8381H39.016V44.8095H43.3797V40.181H47.8289V35.8953H43.3797V31.5238H48V27.2381H47.4866H43.4652V23.0381H47.9144V18.4953H43.4652V14.0381H47.9144V9.92383H43.4652V5.38097H39.1016V0.923828H34.9947V5.29526H34.9091H30.4599V0.923828H26.0107Z" fill="#0078D4"/>
<path d="M34.7378 13.8682H12.7485V35.5539H34.7378V13.8682Z" fill="#0078D4"/>
</svg>
