<svg data-slug-id="computer11" viewBox="0 0 48 48" xmlns="http://www.w3.org/2000/svg">
<path d="M30.6943 36.3789H29.6245H19.0457H18.4948C19.9639 41.5605 17.9918 42.303 9.36914 42.303V45.0176H20.3391H28.347H38.7022V42.303C30.0716 42.311 29.2333 41.5685 30.6943 36.3789Z" fill="#50E6FF"/>
<path d="M9.36133 45.0178H38.7024V42.3032H9.36133V45.0178Z" fill="#50E6FF"/>
<path d="M46.7262 2.98193H1.27344V36.4427H46.7262V2.98193Z" fill="#0078D4"/>
<path d="M15.6127 8.76221C9.71257 8.76221 4.93018 13.5446 4.93018 19.4448C4.93018 25.3369 9.71257 30.1273 15.6127 30.1273C21.5129 30.1273 26.2953 25.3369 26.2953 19.4368C26.2873 13.5366 21.5129 8.76221 15.6127 8.76221ZM15.6127 24.4188C12.8662 24.4188 10.6227 22.1912 10.6227 19.4288C10.6227 16.6743 12.8503 14.4388 15.6127 14.4388C18.3752 14.4388 20.6027 16.6663 20.6027 19.4288C20.6027 22.1912 18.3672 24.4188 15.6127 24.4188Z" fill="white"/>
<path d="M15.5965 14.4549L15.5726 8.75439C11.8201 8.77036 8.52274 10.7105 6.62256 13.6645L11.3091 16.938C12.1634 15.4609 13.7682 14.4549 15.5965 14.4549Z" fill="#50E6FF"/>
<path d="M10.6307 19.437C10.6307 18.5268 10.8702 17.6805 11.2934 16.9539L6.62278 13.6646L6.59882 13.7045C5.53696 15.3572 4.93018 17.3212 4.93018 19.437C4.93018 21.0098 5.2655 22.5028 5.88825 23.8441L11.1018 21.5447C10.7904 20.906 10.6307 20.1954 10.6307 19.437Z" fill="#3BCAF4"/>
<path fill-rule="evenodd" clip-rule="evenodd" d="M28.8662 13.3451H43.1735V10.8701H28.8662V13.3451Z" fill="white"/>
<path fill-rule="evenodd" clip-rule="evenodd" d="M28.8662 18.2314H43.1735V15.7563H28.8662V18.2314Z" fill="white"/>
<path fill-rule="evenodd" clip-rule="evenodd" d="M28.8662 13.3451H34.8702V10.8701H28.8662V13.3451Z" fill="#50E6FF"/>
<path fill-rule="evenodd" clip-rule="evenodd" d="M28.8662 18.2314H38.3512V15.7563H28.8662V18.2314Z" fill="#50E6FF"/>
<path fill-rule="evenodd" clip-rule="evenodd" d="M28.8662 22.95H43.1735V20.4829H28.8662V22.95Z" fill="white"/>
<path fill-rule="evenodd" clip-rule="evenodd" d="M28.8662 27.6446H43.1735V25.2974H28.8662V27.6446Z" fill="white"/>
<path fill-rule="evenodd" clip-rule="evenodd" d="M28.8662 22.95H34.8702V20.4829H28.8662V22.95Z" fill="#50E6FF"/>
<path fill-rule="evenodd" clip-rule="evenodd" d="M28.8662 27.6446H38.3512V25.2974H28.8662V27.6446Z" fill="#50E6FF"/>
</svg>
