<svg data-slug-id="computer09" viewBox="0 0 49 49" xmlns="http://www.w3.org/2000/svg">
<path d="M31.5472 36.9258H30.3859H18.9669H18.3863C19.9346 42.5385 17.8057 43.3127 8.51562 43.3127V46.2158H20.3217H28.8376H40.063V43.3127C30.9665 43.3127 29.9988 42.345 31.5472 36.9258Z" fill="#0078D4"/>
<path d="M8.51562 46.2171H40.063V43.314H8.51562V46.2171Z" fill="#0078D4"/>
<path d="M48.7727 0.923828H0V36.9227H48.7727V0.923828Z" fill="#0078D4"/>
<path d="M46.2565 3.44141H2.70947V34.2146H46.2565V3.44141Z" fill="#50E6FF"/>
<path d="M7.93542 48.924C6.96771 48.924 6 48.1499 6 46.9886V23.7635C6 22.7958 6.77417 21.8281 7.93542 21.8281H18.9673C19.9351 21.8281 20.9028 22.6023 20.9028 23.7635V46.9886C20.9028 47.9563 20.1286 48.924 18.9673 48.924H7.93542Z" fill="#0078D4"/>
<path d="M11.6123 47.3786H14.9025V46.2173H11.6123V47.3786Z" fill="#50E6FF"/>
<path d="M13.9352 23.9585C13.9352 24.3456 13.7416 24.5392 13.3546 24.5392C12.9675 24.5392 12.7739 24.3456 12.7739 23.9585C12.7739 23.5714 12.9675 23.3779 13.3546 23.3779C13.5481 23.3779 13.9352 23.5714 13.9352 23.9585Z" fill="#50E6FF"/>
<path d="M6.96777 44.8627H19.548V25.8955H6.96777V44.8627Z" fill="white"/>
<path d="M7.93555 28.6006H18.5804V27.0522H7.93555V28.6006Z" fill="#50E6FF"/>
<path d="M7.93555 42.7305H18.5804V42.1499H7.93555V42.7305Z" fill="#0078D4"/>
<path d="M7.93555 43.8946H18.5804V43.314H7.93555V43.8946Z" fill="#0078D4"/>
<path d="M7.93555 41.566H18.5804V33.2437H7.93555V41.566Z" fill="#3BCAF4"/>
<path d="M7.93555 32.4743H18.5804V29.1841H7.93555V32.4743Z" fill="#50E6FF"/>
</svg>
