<svg data-slug-id="contact-us" viewBox="0 0 50 50" xmlns="http://www.w3.org/2000/svg">
<path d="M14.875 13H35.125C37.7245 13 39.8488 15.0347 39.9923 17.5984L40 17.875V32.125C40 34.7245 37.9653 36.8488 35.4016 36.9923L35.125 37H14.875C12.2755 37 10.1511 34.9653 10.0077 32.4016L10 32.125V17.875C10 15.2755 12.0347 13.1511 14.5984 13.0077L14.875 13H35.125H14.875ZM37.75 21.0595L25.524 27.4956C25.2429 27.6435 24.9147 27.6646 24.6202 27.559L24.476 27.4956L12.25 21.061V32.125C12.25 33.5023 13.3107 34.6318 14.6597 34.7413L14.875 34.75H35.125C36.5023 34.75 37.6318 33.6893 37.7413 32.3402L37.75 32.125V21.0595ZM35.125 15.25H14.875C13.4977 15.25 12.3682 16.3107 12.2587 17.6597L12.25 17.875V18.5185L25 25.2288L37.75 18.517V17.875C37.75 16.4977 36.6893 15.3682 35.3402 15.2587L35.125 15.25Z" fill="currentColor"/>
</svg>
