<svg data-slug-id="content-moderator01" viewBox="0 0 48 48" xmlns="http://www.w3.org/2000/svg">
<path d="M46.3973 3.32019H1.60267C0.717538 3.32019 0 4.03773 0 4.92286V33.7175C0 34.6027 0.717538 35.3202 1.60267 35.3202H46.3973C47.2825 35.3202 48 34.6027 48 33.7175V4.92286C48 4.03773 47.2825 3.32019 46.3973 3.32019Z" fill="url(#content-moderator01_paint0_linear)"/>
<path d="M33.6265 45.0002C28.8798 44.2562 28.6931 40.8322 28.7065 35.3202H19.2931C19.2931 40.8322 19.1198 44.2562 14.3731 45.0002C13.7297 45.0988 13.1409 45.4194 12.7089 45.9064C12.277 46.3934 12.0289 47.0162 12.0078 47.6669H36.0078C35.983 47.0148 35.7316 46.3918 35.297 45.905C34.8623 45.4183 34.2716 45.0983 33.6265 45.0002Z" fill="url(#content-moderator01_paint1_linear)"/>
<path opacity="0.3" d="M14.2772 30.6806H4.7519C4.53973 30.6806 4.33625 30.5963 4.18622 30.4463C4.03619 30.2963 3.9519 30.0928 3.9519 29.8806V8.75796C3.9519 8.54578 4.03619 8.3423 4.18622 8.19227C4.33625 8.04224 4.53973 7.95796 4.7519 7.95796H14.2772C14.4894 7.95796 14.6929 8.04224 14.8429 8.19227C14.993 8.3423 15.0772 8.54578 15.0772 8.75796V29.8806C15.0772 30.0928 14.993 30.2963 14.8429 30.4463C14.6929 30.5963 14.4894 30.6806 14.2772 30.6806ZM29.5626 29.8806V8.75796C29.5626 8.54578 29.4783 8.3423 29.3283 8.19227C29.1782 8.04224 28.9747 7.95796 28.7626 7.95796H19.2372C19.0251 7.95796 18.8216 8.04224 18.6716 8.19227C18.5215 8.3423 18.4372 8.54578 18.4372 8.75796V29.8806C18.4372 30.0928 18.5215 30.2963 18.6716 30.4463C18.8216 30.5963 19.0251 30.6806 19.2372 30.6806H28.7626C28.9747 30.6806 29.1782 30.5963 29.3283 30.4463C29.4783 30.2963 29.5626 30.0928 29.5626 29.8806Z" fill="white"/>
<path d="M43.2511 7.95796H33.7231C33.2813 7.95796 32.9231 8.31613 32.9231 8.75796V29.8806C32.9231 30.3225 33.2813 30.6806 33.7231 30.6806H43.2511C43.6929 30.6806 44.0511 30.3225 44.0511 29.8806V8.75796C44.0511 8.31613 43.6929 7.95796 43.2511 7.95796Z" fill="#FAA21D"/>
<path d="M39.4669 22.6665H37.5203C37.4066 22.671 37.2956 22.6313 37.2106 22.5557C37.1256 22.4801 37.0731 22.3746 37.0643 22.2612L36.8563 13.3918C36.8576 13.3338 36.8706 13.2767 36.8944 13.2237C36.9182 13.1708 36.9523 13.1232 36.9948 13.0836C37.0373 13.0441 37.0873 13.0135 37.1418 12.9936C37.1964 12.9737 37.2543 12.965 37.3123 12.9678H39.6776C39.7355 12.9653 39.7933 12.9744 39.8476 12.9944C39.902 13.0144 39.9518 13.045 39.9943 13.0845C40.0367 13.1239 40.0709 13.1714 40.0948 13.2242C40.1187 13.2769 40.1319 13.3339 40.1336 13.3918L39.9229 22.2612C39.9141 22.3746 39.8616 22.4801 39.7766 22.5557C39.6916 22.6313 39.5806 22.671 39.4669 22.6665ZM38.4936 23.7625C38.1861 23.7625 37.8855 23.8537 37.6299 24.0245C37.3742 24.1953 37.175 24.4381 37.0573 24.7222C36.9396 25.0063 36.9088 25.3189 36.9688 25.6205C37.0288 25.922 37.1769 26.1991 37.3943 26.4165C37.6117 26.6339 37.8887 26.782 38.1903 26.842C38.4919 26.9019 38.8045 26.8712 39.0886 26.7535C39.3726 26.6358 39.6154 26.4366 39.7863 26.1809C39.9571 25.9252 40.0483 25.6246 40.0483 25.3172C40.0455 24.9053 39.8793 24.5114 39.5863 24.2219C39.2934 23.9324 38.8975 23.771 38.4856 23.7732L38.4936 23.7625ZM27.6536 17.0665C27.6303 17.0432 27.6027 17.0247 27.5723 17.0121C27.5418 16.9995 27.5092 16.993 27.4763 16.993C27.4433 16.993 27.4107 16.9995 27.3803 17.0121C27.3499 17.0247 27.3222 17.0432 27.2989 17.0665L22.7656 21.5998L21.0403 19.8772C21.017 19.8539 20.9894 19.8354 20.9589 19.8228C20.9285 19.8101 20.8959 19.8037 20.8629 19.8037C20.83 19.8037 20.7974 19.8101 20.767 19.8228C20.7365 19.8354 20.7089 19.8539 20.6856 19.8772L20.2856 20.2772C20.2623 20.3004 20.2438 20.3281 20.2312 20.3585C20.2186 20.3889 20.2121 20.4216 20.2121 20.4545C20.2121 20.4874 20.2186 20.52 20.2312 20.5505C20.2438 20.5809 20.2623 20.6085 20.2856 20.6318L22.5789 22.9252C22.6279 22.9694 22.6916 22.9939 22.7576 22.9939C22.8236 22.9939 22.8873 22.9694 22.9363 22.9252L28.0536 17.8078C28.0769 17.7845 28.0954 17.7569 28.108 17.7265C28.1206 17.696 28.1271 17.6634 28.1271 17.6305C28.1271 17.5976 28.1206 17.5649 28.108 17.5345C28.0954 17.5041 28.0769 17.4764 28.0536 17.4532L27.6536 17.0665ZM12.9869 17.0665C12.9637 17.0432 12.936 17.0247 12.9056 17.0121C12.8752 16.9995 12.8426 16.993 12.8096 16.993C12.7767 16.993 12.7441 16.9995 12.7136 17.0121C12.6832 17.0247 12.6556 17.0432 12.6323 17.0665L8.09895 21.5998L6.40028 19.8532C6.35128 19.8089 6.28762 19.7845 6.22161 19.7845C6.15561 19.7845 6.09195 19.8089 6.04295 19.8532L5.64295 20.2532C5.59946 20.302 5.57544 20.3651 5.57544 20.4305C5.57544 20.4959 5.59946 20.559 5.64295 20.6078L7.93628 22.9012H7.94961C7.97289 22.9245 8.00054 22.9429 8.03097 22.9556C8.06139 22.9682 8.09401 22.9747 8.12695 22.9747C8.15989 22.9747 8.1925 22.9682 8.22293 22.9556C8.25336 22.9429 8.281 22.9245 8.30428 22.9012L13.3923 17.8078C13.4156 17.7845 13.4341 17.7569 13.4467 17.7265C13.4593 17.696 13.4658 17.6634 13.4658 17.6305C13.4658 17.5976 13.4593 17.5649 13.4467 17.5345C13.4341 17.5041 13.4156 17.4764 13.3923 17.4532L12.9869 17.0665ZM43.2429 31.1998H33.7229C33.378 31.1991 33.0474 31.0618 32.8035 30.8179C32.5596 30.574 32.4223 30.2434 32.4216 29.8985V8.75716C32.4223 8.41224 32.5596 8.08165 32.8035 7.83776C33.0474 7.59386 33.378 7.45653 33.7229 7.45583H43.2483C43.5932 7.45653 43.9238 7.59386 44.1677 7.83776C44.4116 8.08165 44.5489 8.41224 44.5496 8.75716V29.8798C44.5489 30.2247 44.4116 30.5553 44.1677 30.7992C43.9238 31.0431 43.5932 31.1805 43.2483 31.1812L43.2429 31.1998ZM33.7229 8.45583C33.6432 8.45653 33.567 8.4885 33.5106 8.54486C33.4543 8.60122 33.4223 8.67746 33.4216 8.75716V29.8798C33.4223 29.9595 33.4543 30.0358 33.5106 30.0921C33.567 30.1485 33.6432 30.1805 33.7229 30.1812H43.2483C43.328 30.1805 43.4042 30.1485 43.4606 30.0921C43.5169 30.0358 43.5489 29.9595 43.5496 29.8798V8.75716C43.5489 8.67746 43.5169 8.60122 43.4606 8.54486C43.4042 8.4885 43.328 8.45653 43.2483 8.45583H33.7229Z" fill="white"/>
<defs>
<linearGradient id="content-moderator01_paint0_linear" x1="24" y1="35.3202" x2="24" y2="3.32019" gradientUnits="userSpaceOnUse">
<stop stop-color="#0078D4"/>
<stop offset="0.817" stop-color="#5EA0EF"/>
</linearGradient>
<linearGradient id="content-moderator01_paint1_linear" x1="24.0078" y1="47.6802" x2="24.0078" y2="35.3202" gradientUnits="userSpaceOnUse">
<stop offset="0.149" stop-color="#CCCCCC"/>
<stop offset="1" stop-color="#707070"/>
</linearGradient>
</defs>
</svg>
