<svg data-slug-id="custom-vision-service01" viewBox="0 0 48 48" xmlns="http://www.w3.org/2000/svg">
<path d="M23.6003 -0.48582C20.3177 -0.492581 17.0699 0.185513 14.0642 1.50513C11.0586 2.82475 8.36134 4.75686 6.14477 7.17801C3.92819 9.59915 2.24107 12.4561 1.19123 15.5662C0.141379 18.6764 -0.248109 21.9713 0.047652 25.2405C0.343413 28.5097 1.31792 31.6813 2.90889 34.5525C4.49987 37.4237 6.67232 39.9315 9.28743 41.9155C11.9025 43.8995 14.9028 45.3162 18.0964 46.075C21.2901 46.8337 24.6069 46.9179 27.8349 46.3222L27.1389 45.7222L25.1069 43.6608C24.9344 43.4864 24.8196 43.2632 24.7781 43.0214C24.7366 42.7795 24.7704 42.5308 24.8749 42.3088L26.2216 39.4555L25.8136 38.4688L23.3016 37.6475L22.8909 37.5275C22.6424 37.4548 22.4241 37.3036 22.2688 37.0963C22.1135 36.8891 22.0296 36.6371 22.0296 36.3782V33.4822C22.0301 33.2349 22.1073 32.9938 22.2506 32.7922C22.3939 32.5907 22.5962 32.4385 22.8296 32.3568L25.8109 31.2902L26.2189 30.3088L24.9949 27.9248L24.8003 27.5355C24.6847 27.3089 24.6441 27.0515 24.6844 26.8003C24.7246 26.5492 24.8437 26.3173 25.0243 26.1382L27.0616 24.1222C27.2377 23.9477 27.4636 23.8322 27.7082 23.7916C27.9528 23.751 28.2039 23.7873 28.4269 23.8955L31.2909 25.2822L32.2909 24.9062L33.0909 22.5062C33.1495 22.3312 33.2481 22.1723 33.3789 22.0422L33.5256 21.8955C33.6371 21.7844 33.7693 21.6964 33.9148 21.6364C34.0603 21.5765 34.2162 21.5458 34.3736 21.5462H37.2323C37.4733 21.546 37.7088 21.6184 37.9081 21.754C38.1074 21.8895 38.2612 22.0819 38.3496 22.3062L39.3896 24.9728L40.3443 25.2395L42.8109 23.9755L43.2003 23.7808C43.3654 23.6965 43.5482 23.6526 43.7336 23.6528C43.8916 23.6523 44.0482 23.6832 44.1942 23.7436C44.3402 23.804 44.4728 23.8928 44.5843 24.0048L45.6936 25.1195L46.6056 26.0395C46.7752 26.2098 46.8895 26.4273 46.9336 26.6635C47.1105 25.4904 47.1996 24.3058 47.2003 23.1195C47.201 20.0199 46.5911 16.9504 45.4054 14.0865C44.2197 11.2226 42.4814 8.62037 40.2899 6.42834C38.0983 4.23632 35.4965 2.49748 32.6328 1.31113C29.7692 0.124788 26.6999 -0.48582 23.6003 -0.48582Z" fill="#0078D4"/>
<path d="M25.1068 43.661C24.9343 43.4865 24.8195 43.2633 24.778 43.0215C24.7365 42.7797 24.7703 42.5309 24.8748 42.309L26.2215 39.4556L25.8135 38.469L23.3015 37.6476L22.8908 37.5276C22.6423 37.455 22.424 37.3037 22.2687 37.0964C22.1134 36.8892 22.0295 36.6372 22.0295 36.3783V33.4823C22.03 33.235 22.1072 32.9939 22.2505 32.7923C22.3937 32.5908 22.5961 32.4387 22.8295 32.357L25.8108 31.2903L26.2188 30.309L24.9948 27.925L24.8002 27.5356C24.6846 27.309 24.644 27.0516 24.6843 26.8004C24.7245 26.5493 24.8435 26.3174 25.0242 26.1383L27.0615 24.1223C27.2376 23.9478 27.4635 23.8323 27.7081 23.7917C27.9526 23.7511 28.2038 23.7874 28.4268 23.8956L31.2908 25.2823L32.2908 24.9063L33.0908 22.5063C33.1494 22.3313 33.248 22.1724 33.3788 22.0423L33.5255 21.8956C33.6369 21.7845 33.7692 21.6965 33.9147 21.6365C34.0602 21.5766 34.2161 21.5459 34.3735 21.5463H37.2322C37.4732 21.5461 37.7087 21.6185 37.908 21.7541C38.1073 21.8896 38.2611 22.082 38.3495 22.3063L39.3895 24.973L40.3442 25.2396L42.8108 23.9756L43.2002 23.781C43.3202 23.7116 43.4536 23.6685 43.5915 23.6548C43.7295 23.641 43.8688 23.6567 44.0002 23.701C44.0002 23.6583 44.0002 23.6156 44.0002 23.573C44.0012 19.5393 42.8061 15.5959 40.566 12.2414C38.3259 8.88691 35.1414 6.27204 31.4151 4.72745C27.6889 3.18285 23.5883 2.77789 19.6319 3.56379C15.6755 4.34969 12.041 6.29114 9.18806 9.14264C6.33506 11.9941 4.39171 15.6276 3.60374 19.5836C2.81578 23.5396 3.21859 27.6404 4.76124 31.3674C6.30388 35.0944 8.91709 38.2803 12.2704 40.5222C15.6237 42.7641 19.5665 43.9612 23.6002 43.9623C24.1788 43.9623 24.7495 43.9223 25.3175 43.8743L25.1068 43.661Z" fill="url(#custom-vision-service01_paint0_linear)"/>
<path d="M26.2213 39.4555L25.8133 38.4688L23.3013 37.6475L22.8906 37.5275C22.642 37.4548 22.4238 37.3036 22.2685 37.0963C22.1132 36.8891 22.0292 36.6371 22.0293 36.3782V33.4822C22.0297 33.2349 22.1069 32.9938 22.2502 32.7922C22.3935 32.5907 22.5958 32.4385 22.8293 32.3568L25.8106 31.2902L26.2186 30.3088L24.9946 27.9248L24.7999 27.5355C24.6844 27.3089 24.6438 27.0515 24.684 26.8003C24.7243 26.5492 24.8433 26.3173 25.0239 26.1382L27.0613 24.1222C27.2374 23.9477 27.4633 23.8322 27.7079 23.7916C27.9524 23.751 28.2036 23.7873 28.4266 23.8955L31.2906 25.2822L32.2906 24.9062L33.0906 22.5062C33.1491 22.3312 33.2478 22.1723 33.3786 22.0422L33.5253 21.8955C33.6367 21.7844 33.769 21.6964 33.9145 21.6364C34.06 21.5765 34.2159 21.5458 34.3733 21.5462H37.2319C37.473 21.546 37.7084 21.6184 37.9077 21.754C38.107 21.8895 38.2609 22.0819 38.3493 22.3062L39.3893 24.9728L40.1253 25.1808C40.5183 21.8289 39.8832 18.4367 38.3042 15.4541C36.7251 12.4714 34.2767 10.0392 31.2836 8.47992C28.2906 6.92067 24.8942 6.30807 21.545 6.72334C18.1958 7.13862 15.0519 8.56215 12.5303 10.8052C10.0087 13.0482 8.22844 16.0047 7.42565 19.2827C6.62287 22.5607 6.83547 26.0053 8.03527 29.1597C9.23506 32.3141 11.3654 35.0293 14.1437 36.9452C16.922 38.8611 20.2171 39.8873 23.5919 39.8875C24.4371 39.8814 25.2804 39.8101 26.1146 39.6742L26.2213 39.4555Z" fill="#5EA0EF"/>
<path d="M22.0292 33.482C22.0297 33.2347 22.1069 32.9936 22.2502 32.792C22.3935 32.5905 22.5958 32.4383 22.8292 32.3566L25.8106 31.29L26.2186 30.3086L24.9946 27.9246L24.7999 27.5353C24.6843 27.3087 24.6437 27.0513 24.684 26.8001C24.7243 26.549 24.8433 26.3171 25.0239 26.138L27.0612 24.122C27.2373 23.9475 27.4633 23.832 27.7078 23.7914C27.9524 23.7508 28.2035 23.7871 28.4266 23.8953L31.2906 25.282L32.2906 24.906L33.0906 22.506C33.1491 22.331 33.2477 22.1721 33.3786 22.042L33.5252 21.8953C33.6367 21.7842 33.7689 21.6962 33.9145 21.6362C34.06 21.5763 34.2159 21.5456 34.3732 21.546H34.5039C34.1728 19.529 33.2893 17.6433 31.9513 16.0982C30.6133 14.553 28.8733 13.4089 26.9244 12.7928C24.9756 12.1768 22.8941 12.1129 20.9111 12.6083C18.9281 13.1036 17.1212 14.1389 15.691 15.599C14.2608 17.0592 13.2632 18.8872 12.809 20.88C12.3549 22.8728 12.4619 24.9525 13.1182 26.8882C13.7745 28.8239 14.9545 30.5398 16.527 31.8455C18.0996 33.1512 20.0032 33.9954 22.0266 34.2846L22.0292 33.482Z" fill="#005BA1"/>
<path d="M19.9578 22.586C21.7929 22.586 23.2805 21.0984 23.2805 19.2633C23.2805 17.4283 21.7929 15.9407 19.9578 15.9407C18.1227 15.9407 16.6351 17.4283 16.6351 19.2633C16.6351 21.0984 18.1227 22.586 19.9578 22.586Z" fill="#83B9F9"/>
<path d="M23.6006 24.9276C24.4151 24.9276 25.0753 24.2674 25.0753 23.4529C25.0753 22.6385 24.4151 21.9783 23.6006 21.9783C22.7862 21.9783 22.126 22.6385 22.126 23.4529C22.126 24.2674 22.7862 24.9276 23.6006 24.9276Z" fill="#83B9F9"/>
<path d="M48.0004 36.2394V33.3621L47.8457 33.2181L44.9124 32.2234L44.1524 30.2421L45.6111 27.2181L45.7657 26.8768L44.8537 25.9594L43.7337 24.8474L43.3497 25.0421L40.4724 26.5168L38.4884 25.9621L37.2351 22.7408H34.3764L34.2297 22.8874L33.2377 25.8208L31.2244 26.5754L27.8964 24.9754L25.8671 26.9808L26.0617 27.3594L27.5364 30.2341L26.7151 32.2154L23.2484 33.4714V36.3674L23.6591 36.4874L26.7311 37.5034L27.5551 39.4848L25.9817 42.8208L28.0137 44.8821L28.4004 44.6874L31.2804 43.2128L33.2617 44.0341L34.5231 47.5008H37.4004L37.5204 47.0901L38.5364 44.0181L40.4964 43.1941L43.8591 44.7674L45.8937 42.7354L45.6991 42.3488L44.2244 39.4688L44.7924 37.4554L48.0004 36.2394ZM35.8804 38.9061C35.0814 38.9108 34.2989 38.6785 33.6319 38.2385C32.9649 37.7986 32.4434 37.1707 32.1332 36.4343C31.8231 35.6979 31.7383 34.8861 31.8895 34.1015C32.0407 33.3169 32.4212 32.5948 32.9829 32.0265C33.5445 31.4581 34.262 31.0691 35.0448 30.9085C35.8275 30.748 36.6403 30.8232 37.3803 31.1246C38.1203 31.4259 38.7543 31.94 39.2022 32.6017C39.6501 33.2634 39.8917 34.0431 39.8964 34.8421V34.8661C39.8943 35.9325 39.4712 36.955 38.7191 37.7111C37.9671 38.4672 36.9468 38.8957 35.8804 38.9034V38.9061Z" fill="#50E6FF"/>
<defs>
<linearGradient id="custom-vision-service01_paint0_linear" x1="23.6002" y1="43.9623" x2="23.6002" y2="3.17295" gradientUnits="userSpaceOnUse">
<stop stop-color="#5EA0EF"/>
<stop offset="1" stop-color="#0078D4"/>
</linearGradient>
</defs>
</svg>
