<svg data-slug-id="database11" viewBox="0 0 48 49" xmlns="http://www.w3.org/2000/svg">
<path d="M0 10.9608H47.8155V0.787109H0V10.9608Z" fill="#0078D4"/>
<path d="M0 36.1952H47.8155V26.0215H0V36.1952Z" fill="#0078D4"/>
<path d="M0 23.6952H47.8155V13.5215H0V23.6952Z" fill="#0078D4"/>
<path d="M0 48.7108H47.8155V38.5371H0V48.7108Z" fill="#0078D4"/>
<path d="M22.5279 5.9092C22.5279 7.26793 21.4208 8.37505 20.062 8.37505C18.7033 8.37505 17.5962 7.26793 17.5962 5.9092C17.5962 4.55047 18.7033 3.44336 20.062 3.44336C21.4292 3.44336 22.5279 4.55047 22.5279 5.9092Z" fill="white"/>
<path d="M7.4312 5.9092C7.4312 7.26793 6.32408 8.37505 4.96535 8.37505C3.60662 8.37505 2.49951 7.26793 2.49951 5.9092C2.49951 4.55047 3.60662 3.44336 4.96535 3.44336C6.33247 3.44336 7.4312 4.55047 7.4312 5.9092Z" fill="#50E6FF"/>
<path d="M14.9795 5.9092C14.9795 7.26793 13.8724 8.37505 12.5137 8.37505C11.155 8.37505 10.0479 7.26793 10.0479 5.9092C10.0479 4.55047 11.155 3.44336 12.5137 3.44336C13.8808 3.44336 14.9795 4.55047 14.9795 5.9092Z" fill="#50E6FF"/>
<path d="M22.5279 18.4951C22.5279 19.8539 21.4208 20.961 20.062 20.961C18.7033 20.961 17.5962 19.8539 17.5962 18.4951C17.5962 17.1364 18.7033 16.0293 20.062 16.0293C21.4292 16.0293 22.5279 17.1364 22.5279 18.4951Z" fill="white"/>
<path d="M7.4312 18.4951C7.4312 19.8539 6.32408 20.961 4.96535 20.961C3.60662 20.961 2.49951 19.8539 2.49951 18.4951C2.49951 17.1364 3.60662 16.0293 4.96535 16.0293C6.33247 16.0293 7.4312 17.1364 7.4312 18.4951Z" fill="#50E6FF"/>
<path d="M14.9795 18.4951C14.9795 19.8539 13.8724 20.961 12.5137 20.961C11.155 20.961 10.0479 19.8539 10.0479 18.4951C10.0479 17.1364 11.155 16.0293 12.5137 16.0293C13.8808 16.0293 14.9795 17.1364 14.9795 18.4951Z" fill="#50E6FF"/>
<path d="M22.5279 31.0733C22.5279 32.432 21.4208 33.5391 20.062 33.5391C18.7033 33.5391 17.5962 32.432 17.5962 31.0733C17.5962 29.7145 18.7033 28.6074 20.062 28.6074C21.4292 28.6074 22.5279 29.7145 22.5279 31.0733Z" fill="white"/>
<path d="M7.4312 31.0733C7.4312 32.432 6.32408 33.5391 4.96535 33.5391C3.60662 33.5391 2.49951 32.432 2.49951 31.0733C2.49951 29.7145 3.60662 28.6074 4.96535 28.6074C6.33247 28.6074 7.4312 29.7145 7.4312 31.0733Z" fill="#50E6FF"/>
<path d="M14.9795 31.0733C14.9795 32.432 13.8724 33.5391 12.5137 33.5391C11.155 33.5391 10.0479 32.432 10.0479 31.0733C10.0479 29.7145 11.155 28.6074 12.5137 28.6074C13.8808 28.6074 14.9795 29.7145 14.9795 31.0733Z" fill="#50E6FF"/>
<path d="M22.5279 43.6514C22.5279 45.0101 21.4208 46.1172 20.062 46.1172C18.7033 46.1172 17.5962 45.0101 17.5962 43.6514C17.5962 42.2927 18.7033 41.1855 20.062 41.1855C21.4292 41.1855 22.5279 42.2927 22.5279 43.6514Z" fill="white"/>
<path d="M7.4312 43.6514C7.4312 45.0101 6.32408 46.1172 4.96535 46.1172C3.60662 46.1172 2.49951 45.0101 2.49951 43.6514C2.49951 42.2927 3.60662 41.1855 4.96535 41.1855C6.33247 41.1855 7.4312 42.2927 7.4312 43.6514Z" fill="#50E6FF"/>
<path d="M14.9795 43.6514C14.9795 45.0101 13.8724 46.1172 12.5137 46.1172C11.155 46.1172 10.0479 45.0101 10.0479 43.6514C10.0479 42.2927 11.155 41.1855 12.5137 41.1855C13.8808 41.1855 14.9795 42.2927 14.9795 43.6514Z" fill="#50E6FF"/>
</svg>
