<svg data-slug-id="data05" viewBox="0 0 48 49" xmlns="http://www.w3.org/2000/svg">
<path d="M7.23032 0.931641H0.0336914V8.12827H7.23032V0.931641Z" fill="#0078D4"/>
<path d="M13.82 0.931641C11.8312 0.931641 10.2217 2.54119 10.2217 4.52996C10.2217 6.51872 11.8312 8.12827 13.82 8.12827C15.8088 8.12827 17.4183 6.51872 17.4183 4.52996C17.4183 2.54119 15.8088 0.931641 13.82 0.931641Z" fill="#50E6FF"/>
<path d="M26.393 0.931641H21.5896V48.8811H26.393V0.931641Z" fill="#0078D4"/>
<path d="M44.393 0.931641C42.4042 0.931641 40.7947 2.54119 40.7947 4.52996C40.7947 6.51872 42.4042 8.12827 44.393 8.12827C46.3818 8.12827 47.9913 6.51872 47.9913 4.52996C47.9913 2.54119 46.3818 0.931641 44.393 0.931641Z" fill="#50E6FF"/>
<path d="M3.63201 11.1113C1.64324 11.1113 0.0336914 12.7209 0.0336914 14.7096C0.0336914 16.6984 1.64324 18.308 3.63201 18.308C5.62077 18.308 7.23032 16.6984 7.23032 14.7096C7.23032 12.7293 5.61234 11.1113 3.63201 11.1113Z" fill="#50E6FF"/>
<path d="M17.6457 11.1113H10.2131V18.5439H17.6457V11.1113Z" fill="#0078D4"/>
<path d="M7.23032 21.3184H0.0336914V28.515H7.23032V21.3184Z" fill="#0078D4"/>
<path d="M13.82 21.3184C11.8312 21.3184 10.2217 22.9279 10.2217 24.9167C10.2217 26.9054 11.8312 28.515 13.82 28.515C15.8088 28.515 17.4183 26.9054 17.4183 24.9167C17.4183 22.9279 15.8088 21.3184 13.82 21.3184Z" fill="#50E6FF"/>
<path d="M44.393 21.3184C42.4042 21.3184 40.7947 22.9279 40.7947 24.9167C40.7947 26.9054 42.4042 28.515 44.393 28.515C46.3818 28.515 47.9913 26.9054 47.9913 24.9167C47.9913 22.9279 46.3818 21.3184 44.393 21.3184Z" fill="#50E6FF"/>
<path d="M3.63201 31.5059C1.64324 31.5059 0.0336914 33.1154 0.0336914 35.1042C0.0336914 37.0929 1.64324 38.7025 3.63201 38.7025C5.62077 38.7025 7.23032 37.0929 7.23032 35.1042C7.23032 33.1154 5.61234 31.5059 3.63201 31.5059Z" fill="#50E6FF"/>
<path d="M17.629 31.2871H10.2217V38.6944H17.629V31.2871Z" fill="#0078D4"/>
<path d="M7.23032 41.6934H0.0336914V48.89H7.23032V41.6934Z" fill="#0078D4"/>
<path d="M13.82 41.6934C11.8312 41.6934 10.2217 43.3029 10.2217 45.2917C10.2217 47.2804 11.8312 48.89 13.82 48.89C15.8088 48.89 17.4183 47.2804 17.4183 45.2917C17.4183 43.3029 15.8088 41.6934 13.82 41.6934Z" fill="#50E6FF"/>
<path d="M44.393 41.6934C42.4042 41.6934 40.7947 43.3029 40.7947 45.2917C40.7947 47.2804 42.4042 48.89 44.393 48.89C46.3818 48.89 47.9913 47.2804 47.9913 45.2917C47.9913 43.3029 46.3818 41.6934 44.393 41.6934Z" fill="#50E6FF"/>
<path d="M34.2052 11.1113C32.2165 11.1113 30.6069 12.7209 30.6069 14.7096C30.6069 16.6984 32.2165 18.308 34.2052 18.308C36.194 18.308 37.8036 16.6984 37.8036 14.7096C37.8036 12.7293 36.194 11.1113 34.2052 11.1113Z" fill="#50E6FF"/>
<path d="M34.2052 31.5059C32.2165 31.5059 30.6069 33.1154 30.6069 35.1042C30.6069 37.0929 32.2165 38.7025 34.2052 38.7025C36.194 38.7025 37.8036 37.0929 37.8036 35.1042C37.8036 33.1154 36.194 31.5059 34.2052 31.5059Z" fill="#50E6FF"/>
</svg>
