<svg data-slug-id="database18" viewBox="0 0 48 49" xmlns="http://www.w3.org/2000/svg">
<path d="M15.1207 9.83789H4.31396V10.5606H14.7118L17.5741 15.0124C17.8077 14.9256 18.0414 14.8678 18.3042 14.7811L15.1207 9.83789Z" fill="#50E6FF"/>
<path d="M33.0541 39.1532H42.0792V38.4305H33.463L29.8996 32.9092C29.666 32.967 29.4323 33.0537 29.1694 33.1115L33.0541 39.1532Z" fill="#50E6FF"/>
<path d="M14.7415 38.4288H4.34375V39.1515H15.1504L18.9766 33.1676C18.7137 33.1098 18.4508 33.052 18.2172 32.9941L14.7415 38.4288Z" fill="#50E6FF"/>
<path d="M33.4336 10.5606H42.0497V9.83789H33.0247L29.812 14.8967C30.0749 14.9835 30.3085 15.0413 30.5422 15.128L33.4336 10.5606Z" fill="#50E6FF"/>
<path d="M43.1017 24.3813H32.9668V25.104H43.1017V24.3813Z" fill="#50E6FF"/>
<path d="M15.0631 24.3813H5.5415V25.104H15.0631V24.3813Z" fill="#50E6FF"/>
<path d="M31.185 21.0863H16.815V17.8776C16.815 17.8776 16.6106 16.3455 23.7956 16.1142C31.0097 15.9119 31.1558 17.8776 31.1558 17.8776V21.0863H31.185Z" fill="#50E6FF"/>
<path d="M23.9999 23.3395C26.5701 23.3395 28.527 23.0505 29.7537 22.7036C30.4839 22.5012 30.6884 22.4434 31.0388 22.241C31.2433 22.1254 31.4185 22.0098 31.5354 21.8652C31.5646 21.8363 31.5646 21.8074 31.5646 21.7785V17.9049C31.5646 17.876 31.5646 17.8471 31.5646 17.8182C31.5646 16.3728 27.6216 15.7368 23.9415 15.7368C20.2613 15.7368 16.3184 16.4017 16.3184 17.8182C16.3184 17.8471 16.3184 17.876 16.3184 17.9049V21.7496C16.3184 21.8074 16.3476 21.8942 16.406 21.9231C17.1362 22.4723 19.9109 23.3395 23.9999 23.3395ZM23.9707 16.4595C28.4394 16.4595 30.8636 17.3556 30.8636 17.8471C30.8636 18.3385 28.4394 19.2346 23.9707 19.2346C19.502 19.2346 17.0777 18.3385 17.0777 17.8471C17.0777 17.3556 19.502 16.4595 23.9707 16.4595Z" fill="#0078D4"/>
<path d="M24.0004 27.8491C26.5999 27.8491 28.5275 27.56 29.7543 27.2131C30.4552 27.0108 30.7765 26.8662 31.0686 26.6928C31.273 26.5772 31.4191 26.4615 31.5651 26.2881V22.4434C31.4483 22.5012 31.3022 22.5879 31.1562 22.6746C29.725 23.484 26.7751 23.7731 24.0004 23.7731C21.1089 23.7731 17.9545 23.3973 16.5526 22.5879C16.5526 22.5879 16.4358 22.5301 16.3481 22.4723V26.3748C16.8447 26.9241 19.707 27.8491 24.0004 27.8491Z" fill="#0078D4"/>
<path d="M24.0004 28.3117C21.1089 28.3117 17.9545 27.9359 16.5526 27.1265C16.5526 27.1265 16.4358 27.0687 16.3481 27.0108V30.0751C16.3481 30.104 16.3481 30.104 16.3481 30.1329C16.3481 31.5783 20.2911 32.2142 23.9712 32.2142C27.6513 32.2142 31.5943 31.5493 31.5943 30.1329V30.104V26.9819C31.4775 27.0687 31.3899 27.1265 31.1854 27.2421C30.8933 27.3866 30.5429 27.5312 30.134 27.6468C28.5568 28.1382 26.2202 28.3117 24.0004 28.3117Z" fill="#0078D4"/>
<path d="M42.605 12.528C43.9193 12.528 45 11.4584 45 10.1575C45 8.85669 43.9193 7.78711 42.605 7.78711C41.2906 7.78711 40.21 8.85669 40.21 10.1575C40.21 11.4584 41.2906 12.528 42.605 12.528Z" fill="#0078D4"/>
<path d="M42.605 36.5493C41.2906 36.5493 40.21 37.6189 40.21 38.9197C40.21 40.2206 41.2906 41.2902 42.605 41.2902C43.9193 41.2902 45 40.2206 45 38.9197C45 37.59 43.9193 36.5493 42.605 36.5493Z" fill="#0078D4"/>
<path d="M42.605 22.1255C41.2906 22.1255 40.21 23.1951 40.21 24.4959C40.21 25.7968 41.2906 26.8663 42.605 26.8663C43.9193 26.8663 45 25.7968 45 24.4959C45 23.1951 43.9193 22.1255 42.605 22.1255Z" fill="#0078D4"/>
<path d="M5.395 7.78711C4.08067 7.78711 3 8.85669 3 10.1575C3 11.4584 4.08067 12.528 5.395 12.528C6.70933 12.528 7.79 11.4584 7.79 10.1575C7.79 8.85669 6.70933 7.78711 5.395 7.78711Z" fill="#0078D4"/>
<path d="M5.395 36.5493C4.08067 36.5493 3 37.6189 3 38.9197C3 40.2206 4.08067 41.2902 5.395 41.2902C6.70933 41.2902 7.79 40.2206 7.79 38.9197C7.79 37.59 6.70933 36.5493 5.395 36.5493Z" fill="#0078D4"/>
<path d="M5.395 22.1255C4.08067 22.1255 3 23.1951 3 24.4959C3 25.7968 4.08067 26.8663 5.395 26.8663C6.70933 26.8663 7.79 25.7968 7.79 24.4959C7.79 23.1951 6.70933 22.1255 5.395 22.1255Z" fill="#0078D4"/>
</svg>
