<svg data-slug-id="data01" viewBox="0 0 48 49" xmlns="http://www.w3.org/2000/svg">
<path d="M30.7538 10.7333C30.5938 8.788 28.977 7.25537 27.0822 7.25537C25.1117 7.25537 23.5117 8.85537 23.5117 10.8259V13.7227C23.5117 15.6175 25.0359 17.2343 27.0822 17.4027C29.078 17.4027 30.7622 15.7185 30.7622 13.7227L30.7538 10.7333ZM28.5222 13.7227C28.5222 14.5733 27.7559 15.1712 27.1665 15.1712C26.3749 15.1038 25.7349 14.4554 25.7349 13.7227V10.8259C25.7349 10.1017 26.3496 9.48695 27.0738 9.48695C27.8065 9.48695 28.4633 10.127 28.5222 10.8259V13.7227Z" fill="#0078D4"/>
<path d="M18.5428 17.4444C17.8523 17.4444 17.2881 16.8802 17.2881 16.1896V8.577C17.2881 7.88648 17.8523 7.32227 18.5428 7.32227C19.2333 7.32227 19.7976 7.88648 19.7976 8.577V16.1812C19.7976 16.8802 19.2333 17.4444 18.5428 17.4444Z" fill="#50E6FF"/>
<path d="M13.5663 10.7333C13.4063 8.788 11.7895 7.25537 9.89475 7.25537C7.92422 7.25537 6.32422 8.85537 6.32422 10.8259V13.7227C6.32422 15.6175 7.84843 17.2343 9.89475 17.4027C11.8905 17.4027 13.5747 15.7185 13.5747 13.7227L13.5663 10.7333ZM11.3432 13.7227C11.3432 14.5733 10.5768 15.1712 9.98738 15.1712C9.1958 15.1038 8.5558 14.4554 8.5558 13.7227V10.8259C8.5558 10.1017 9.17053 9.48695 9.89475 9.48695C10.6274 9.48695 11.2842 10.127 11.3432 10.8259V13.7227Z" fill="#0078D4"/>
<path d="M1.35542 17.4444C0.66489 17.4444 0.100679 16.8802 0.100679 16.1896V8.577C0.0922579 7.88648 0.656469 7.32227 1.35542 7.32227C2.04594 7.32227 2.61015 7.88648 2.61015 8.577V16.1812C2.61015 16.8802 2.04594 17.4444 1.35542 17.4444Z" fill="#50E6FF"/>
<path d="M47.9413 10.7333C47.7813 8.788 46.1645 7.25537 44.2697 7.25537C42.2992 7.25537 40.6992 8.85537 40.6992 10.8259V13.7227C40.6992 15.6175 42.2234 17.2343 44.2697 17.4027C46.2655 17.4027 47.9497 15.7185 47.9497 13.7227L47.9413 10.7333ZM45.7097 13.7227C45.7097 14.5733 44.9434 15.1712 44.354 15.1712C43.5624 15.1038 42.9224 14.4554 42.9224 13.7227V10.8259C42.9224 10.1017 43.5371 9.48695 44.2613 9.48695C44.994 9.48695 45.6508 10.127 45.7097 10.8259V13.7227Z" fill="#0078D4"/>
<path d="M35.722 17.4444C35.0315 17.4444 34.4673 16.8802 34.4673 16.1896V8.577C34.4673 7.88648 35.0315 7.32227 35.722 7.32227C36.4126 7.32227 36.9768 7.88648 36.9768 8.577V16.1812C36.9852 16.8802 36.421 17.4444 35.722 17.4444Z" fill="#50E6FF"/>
<path d="M30.7538 35.9994C30.5938 34.0541 28.977 32.5215 27.0822 32.5215C25.1117 32.5215 23.5117 34.1215 23.5117 36.092V38.9889C23.5117 40.8836 25.0359 42.5004 27.0822 42.6689C29.078 42.6689 30.7622 40.9846 30.7622 38.9889L30.7538 35.9994ZM28.5222 38.9889C28.5222 39.8394 27.7559 40.4373 27.1665 40.4373C26.3749 40.3699 25.7349 39.7215 25.7349 38.9889V36.092C25.7349 35.3678 26.3496 34.7531 27.0738 34.7531C27.8065 34.7531 28.4633 35.3931 28.5222 36.092V38.9889Z" fill="#0078D4"/>
<path d="M18.5428 42.7094C17.8523 42.7094 17.2881 42.1452 17.2881 41.4546V33.8504C17.2881 33.1599 17.8523 32.5957 18.5428 32.5957C19.2333 32.5957 19.7976 33.1599 19.7976 33.8504V41.4546C19.7976 42.1452 19.2333 42.7094 18.5428 42.7094Z" fill="#50E6FF"/>
<path d="M13.5663 35.9994C13.4063 34.0541 11.7895 32.5215 9.89475 32.5215C7.92422 32.5215 6.32422 34.1215 6.32422 36.092V38.9889C6.32422 40.8836 7.84843 42.5004 9.89475 42.6689C11.8905 42.6689 13.5747 40.9846 13.5747 38.9889L13.5663 35.9994ZM11.3432 38.9889C11.3432 39.8394 10.5768 40.4373 9.98738 40.4373C9.1958 40.3699 8.5558 39.7215 8.5558 38.9889V36.092C8.5558 35.3678 9.17053 34.7531 9.89475 34.7531C10.6274 34.7531 11.2842 35.3931 11.3432 36.092V38.9889Z" fill="#0078D4"/>
<path d="M1.35581 42.7094C0.665285 42.7094 0.101074 42.1452 0.101074 41.4546V33.8504C0.101074 33.1599 0.665285 32.5957 1.35581 32.5957C2.04634 32.5957 2.61055 33.1599 2.61055 33.8504V41.4546C2.61055 42.1452 2.04634 42.7094 1.35581 42.7094Z" fill="#50E6FF"/>
<path d="M47.9413 35.9994C47.7813 34.0541 46.1645 32.5215 44.2697 32.5215C42.2992 32.5215 40.6992 34.1215 40.6992 36.092V38.9889C40.6992 40.8836 42.2234 42.5004 44.2697 42.6689C46.2655 42.6689 47.9497 40.9846 47.9497 38.9889L47.9413 35.9994ZM45.7097 38.9889C45.7097 39.8394 44.9434 40.4373 44.354 40.4373C43.5624 40.3699 42.9224 39.7215 42.9224 38.9889V36.092C42.9224 35.3678 43.5371 34.7531 44.2613 34.7531C44.994 34.7531 45.6508 35.3931 45.7097 36.092V38.9889Z" fill="#0078D4"/>
<path d="M35.722 42.7094C35.0315 42.7094 34.4673 42.1452 34.4673 41.4546V33.8504C34.4673 33.1599 35.0315 32.5957 35.722 32.5957C36.4126 32.5957 36.9768 33.1599 36.9768 33.8504V41.4546C36.9852 42.1452 36.421 42.7094 35.722 42.7094Z" fill="#50E6FF"/>
<path d="M17.2887 26.6831C17.4487 28.6284 19.0655 30.161 20.9603 30.161C22.9308 30.161 24.5308 28.561 24.5308 26.5905V23.6937C24.5308 21.7989 23.0066 20.1821 20.9603 20.0137C18.9645 20.0137 17.2803 21.6979 17.2803 23.6937L17.2887 26.6831ZM19.5119 23.6937C19.5119 22.8431 20.2782 22.2453 20.8676 22.2453C21.6592 22.3126 22.2992 22.961 22.2992 23.6937V26.5905C22.2992 27.3147 21.6845 27.9295 20.9603 27.9295C20.2276 27.9295 19.5708 27.2895 19.5119 26.5905V23.6937Z" fill="#50E6FF"/>
<path d="M29.4989 19.9707C30.1894 19.9707 30.7536 20.5349 30.7536 21.2254V28.8297C30.7536 29.5202 30.1894 30.0844 29.4989 30.0844C28.8084 30.0844 28.2441 29.5202 28.2441 28.8297V21.2254C28.2441 20.5349 28.8084 19.9707 29.4989 19.9707Z" fill="#0078D4"/>
<path d="M34.4757 26.6831C34.6357 28.6284 36.2525 30.161 38.1473 30.161C40.1178 30.161 41.7178 28.561 41.7178 26.5905V23.6937C41.7178 21.7989 40.1936 20.1821 38.1473 20.0137C36.1515 20.0137 34.4673 21.6979 34.4673 23.6937L34.4757 26.6831ZM36.6989 23.6937C36.6989 22.8431 37.4652 22.2453 38.0547 22.2453C38.8462 22.3126 39.4862 22.961 39.4862 23.6937V26.5905C39.4862 27.3147 38.8715 27.9295 38.1473 27.9295C37.4147 27.9295 36.7578 27.2895 36.6989 26.5905V23.6937Z" fill="#50E6FF"/>
<path d="M46.6864 19.9707C47.3769 19.9707 47.9411 20.5349 47.9411 21.2254V28.8297C47.9411 29.5202 47.3769 30.0844 46.6864 30.0844C45.9959 30.0844 45.4316 29.5202 45.4316 28.8297V21.2254C45.4316 20.5349 45.9959 19.9707 46.6864 19.9707Z" fill="#0078D4"/>
<path d="M0.101194 26.6831C0.261194 28.6284 1.87804 30.161 3.77277 30.161C5.7433 30.161 7.3433 28.561 7.3433 26.5905V23.6937C7.3433 21.7989 5.81909 20.1821 3.77277 20.0137C1.77698 20.0137 0.0927734 21.6979 0.0927734 23.6937L0.101194 26.6831ZM2.32435 23.6937C2.32435 22.8431 3.09067 22.2453 3.68014 22.2453C4.47172 22.3126 5.11172 22.961 5.11172 23.6937V26.5905C5.11172 27.3147 4.49698 27.9295 3.77277 27.9295C3.04014 27.9295 2.3833 27.2895 2.32435 26.5905V23.6937Z" fill="#50E6FF"/>
<path d="M12.3114 19.9707C13.0019 19.9707 13.5661 20.5349 13.5661 21.2254V28.8297C13.5661 29.5202 13.0019 30.0844 12.3114 30.0844C11.6209 30.0844 11.0566 29.5202 11.0566 28.8297V21.2254C11.0566 20.5349 11.6209 19.9707 12.3114 19.9707Z" fill="#0078D4"/>
</svg>
