<svg data-slug-id="database17" viewBox="0 0 48 49" xmlns="http://www.w3.org/2000/svg">
<path d="M10.1053 0.802734H0V48.769H10.1053V0.802734Z" fill="#0078D4"/>
<path d="M22.7361 0.802734H12.6309V48.769H22.7361V0.802734Z" fill="#0078D4"/>
<path d="M35.3689 0.802734H25.2637V48.769H35.3689V0.802734Z" fill="#0078D4"/>
<path d="M47.9998 0.802734H37.8945V48.769H47.9998V0.802734Z" fill="#0078D4"/>
<path d="M6.24824 42.4902H3.70508V45.0352H6.24824V42.4902Z" fill="#50E6FF"/>
<path d="M6.24824 37.4355H3.70508V39.9805H6.24824V37.4355Z" fill="#50E6FF"/>
<path d="M18.9396 42.4902H16.3965V45.0352H18.9396V42.4902Z" fill="#50E6FF"/>
<path d="M18.9396 37.4355H16.3965V39.9805H18.9396V37.4355Z" fill="#50E6FF"/>
<path d="M31.5959 42.4902H29.0527V45.0352H31.5959V42.4902Z" fill="#50E6FF"/>
<path d="M31.5959 37.4355H29.0527V39.9805H31.5959V37.4355Z" fill="#50E6FF"/>
<path d="M44.176 42.4902H41.6328V45.0352H44.176V42.4902Z" fill="#50E6FF"/>
<path d="M44.176 37.4355H41.6328V39.9805H44.176V37.4355Z" fill="#50E6FF"/>
</svg>
