<svg data-slug-id="data07" viewBox="0 0 48 49" xmlns="http://www.w3.org/2000/svg">
<path d="M43.9472 15.606H20.2964V39.2301H43.9472V15.606Z" fill="#50E6FF"/>
<path d="M20.2697 31.441V39.576H43.9382V34.5992V34.6524L40.1857 30.8821L36.442 34.6524L26.5505 25.0005L20.252 31.308L20.2697 31.441Z" fill="#0078D4"/>
<path d="M40.8068 21.5053C40.8068 23.2086 39.4318 24.5837 37.7285 24.5837C36.0252 24.5837 34.6501 23.1997 34.6501 21.5053C34.6501 19.802 36.0074 18.4004 37.7019 18.4004C39.4051 18.4004 40.8068 19.7843 40.8068 21.5053Z" fill="#0078D4"/>
<path d="M17.3601 2.29004H4.05322V11.525H6.10248V13.5565L8.15174 11.525H17.3601V2.29004Z" fill="#0078D4"/>
<path d="M17.3334 31.6362H4.0354V47.5424H17.3334V31.6362Z" fill="#50E6FF"/>
<path d="M43.965 42.2373H20.261V47.5601H43.965V42.2373Z" fill="#0078D4"/>
<path d="M43.956 2.33447H20.2964V6.23783H43.956V2.33447Z" fill="#0078D4"/>
<path d="M17.3513 15.6235H4.09766V18.8793H17.3513V15.6235Z" fill="#0078D4"/>
<path d="M17.3513 19.9795H4.09766V23.2352H17.3513V19.9795Z" fill="#0078D4"/>
<path d="M17.3513 24.3354H4.09766V27.5912H17.3513V24.3354Z" fill="#50E6FF"/>
<path d="M43.956 7.61279H20.2964V11.5161H43.956V7.61279Z" fill="#0078D4"/>
</svg>
