<svg data-slug-id="data09" viewBox="0 0 48 48" xmlns="http://www.w3.org/2000/svg">
<path d="M7.23032 0.0078125H0.0336914V7.20444H7.23032V0.0078125Z" fill="#50E6FF"/>
<path d="M13.82 0.00805664C11.8312 0.00805664 10.2217 1.61761 10.2217 3.60637C10.2217 5.59514 11.8312 7.20469 13.82 7.20469C15.8088 7.20469 17.4183 5.59514 17.4183 3.60637C17.4183 1.61761 15.8088 0.00805664 13.82 0.00805664Z" fill="#0078D4"/>
<path d="M26.393 0.00805664H21.5897V47.9575H26.393V0.00805664Z" fill="#50E6FF"/>
<path d="M44.3931 0.00805664C42.4043 0.00805664 40.7947 1.61761 40.7947 3.60637C40.7947 5.59514 42.4043 7.20469 44.3931 7.20469C46.3818 7.20469 47.9914 5.59514 47.9914 3.60637C47.9914 1.61761 46.3818 0.00805664 44.3931 0.00805664Z" fill="#50E6FF"/>
<path d="M3.63207 10.1877C1.6433 10.1877 0.0337524 11.7973 0.0337524 13.7861C0.0337524 15.7748 1.6433 17.3844 3.63207 17.3844C5.62083 17.3844 7.23038 15.7748 7.23038 13.7861C7.23038 11.8057 5.6124 10.1877 3.63207 10.1877Z" fill="#0078D4"/>
<path d="M17.6458 10.1877H10.2132V17.6203H17.6458V10.1877Z" fill="#50E6FF"/>
<path d="M7.23038 20.3945H0.0337524V27.5912H7.23038V20.3945Z" fill="#50E6FF"/>
<path d="M13.82 20.3945C11.8312 20.3945 10.2217 22.0041 10.2217 23.9928C10.2217 25.9816 11.8312 27.5912 13.82 27.5912C15.8088 27.5912 17.4183 25.9816 17.4183 23.9928C17.4183 22.0041 15.8088 20.3945 13.82 20.3945Z" fill="#0078D4"/>
<path d="M44.3931 20.3945C42.4043 20.3945 40.7947 22.0041 40.7947 23.9928C40.7947 25.9816 42.4043 27.5912 44.3931 27.5912C46.3818 27.5912 47.9914 25.9816 47.9914 23.9928C47.9914 22.0041 46.3818 20.3945 44.3931 20.3945Z" fill="#50E6FF"/>
<path d="M3.63207 30.5823C1.6433 30.5823 0.0337524 32.1918 0.0337524 34.1806C0.0337524 36.1694 1.6433 37.7789 3.63207 37.7789C5.62083 37.7789 7.23038 36.1694 7.23038 34.1806C7.23038 32.1918 5.6124 30.5823 3.63207 30.5823Z" fill="#0078D4"/>
<path d="M17.629 30.3633H10.2217V37.7706H17.629V30.3633Z" fill="#50E6FF"/>
<path d="M7.23038 40.7698H0.0337524V47.9664H7.23038V40.7698Z" fill="#50E6FF"/>
<path d="M13.82 40.7698C11.8312 40.7698 10.2217 42.3793 10.2217 44.3681C10.2217 46.3569 11.8312 47.9664 13.82 47.9664C15.8088 47.9664 17.4183 46.3569 17.4183 44.3681C17.4183 42.3793 15.8088 40.7698 13.82 40.7698Z" fill="#0078D4"/>
<path d="M44.3931 40.7698C42.4043 40.7698 40.7947 42.3793 40.7947 44.3681C40.7947 46.3569 42.4043 47.9664 44.3931 47.9664C46.3818 47.9664 47.9914 46.3569 47.9914 44.3681C47.9914 42.3793 46.3818 40.7698 44.3931 40.7698Z" fill="#50E6FF"/>
<path d="M34.2052 10.1877C32.2164 10.1877 30.6069 11.7973 30.6069 13.7861C30.6069 15.7748 32.2164 17.3844 34.2052 17.3844C36.1939 17.3844 37.8035 15.7748 37.8035 13.7861C37.8035 11.8057 36.1939 10.1877 34.2052 10.1877Z" fill="#50E6FF"/>
<path d="M34.2052 30.5823C32.2164 30.5823 30.6069 32.1918 30.6069 34.1806C30.6069 36.1694 32.2164 37.7789 34.2052 37.7789C36.1939 37.7789 37.8035 36.1694 37.8035 34.1806C37.8035 32.1918 36.1939 30.5823 34.2052 30.5823Z" fill="#50E6FF"/>
</svg>
