<svg data-slug-id="data02" viewBox="0 0 48 49" xmlns="http://www.w3.org/2000/svg">
<path d="M14.3396 39.113C7.19194 39.113 1.37817 33.2992 1.37817 26.1599V16.1348H13.1232C20.2708 16.1348 26.0846 21.9485 26.0846 29.0962V39.113H14.3396Z" fill="#50E6FF"/>
<path d="M31.001 39.1258V31.7936C31.001 28.01 34.0798 24.9312 37.8634 24.9312H46.6218V32.2634C46.6218 36.0469 43.5429 39.1258 39.7594 39.1258H31.001Z" fill="#50E6FF"/>
<path d="M30.5808 21.415C32.3043 21.415 33.7016 20.0177 33.7016 18.2942C33.7016 16.5706 32.3043 15.1733 30.5808 15.1733C28.8572 15.1733 27.46 16.5706 27.46 18.2942C27.46 20.0177 28.8572 21.415 30.5808 21.415Z" fill="#0078D4"/>
<path d="M47.6445 17.5581C47.4348 13.1369 45.5556 9.00941 42.3509 5.94733C39.1378 2.86846 34.9096 1.17383 30.4633 1.17383C26.2351 1.17383 22.1663 2.72584 19.0119 5.54464L18.3911 6.09833L20.7904 8.49766L21.3441 8.01109C23.8609 5.78793 27.0992 4.57148 30.4717 4.57148C34.1629 4.57148 37.6277 6.00605 40.2368 8.61511C42.6529 11.0312 44.0875 14.2359 44.2636 17.642L44.3056 18.3886H47.6865L47.6445 17.5581Z" fill="#0078D4"/>
<path d="M38.1319 10.7049C36.0849 8.65794 33.3584 7.52539 30.4641 7.52539C27.9306 7.52539 25.4725 8.41465 23.5346 10.0254L22.8718 10.5791L25.2712 12.9784L25.8165 12.5422C27.1504 11.4851 28.7527 10.923 30.4557 10.923C32.3265 10.923 34.1135 11.6194 35.4893 12.8777C36.8567 14.1277 37.7041 15.8308 37.8802 17.668L37.9473 18.3811H41.3366L41.2695 17.5338C41.0765 14.9667 39.9608 12.5422 38.1319 10.7049Z" fill="#0078D4"/>
<path d="M27.3431 38.5934V29.0968C27.3431 21.2444 20.9756 14.877 13.1232 14.877H0.119873V26.1521C0.119873 34.0045 6.48733 40.372 14.3397 40.372H24.8431V48.6689H27.3598V38.5934H27.3431ZM6.06787 34.4324C3.8531 32.2176 2.63666 29.2813 2.63666 26.1605V17.3937H13.1232C16.2524 17.3937 19.1887 18.6102 21.3951 20.8249C23.6015 23.0397 24.8263 25.976 24.8263 29.0968V35.1119C23.9454 33.8199 22.2256 31.6219 19.1551 28.6605C15.9756 25.5984 13.1149 24.0213 11.3615 23.2662C10.9169 23.0733 10.531 23.627 10.8581 23.9793C12.7122 25.9508 16.0511 29.5162 17.1082 30.7075C18.2407 31.9827 21.781 36.0263 23.3833 37.8636H14.3397C11.2105 37.8636 8.27425 36.6387 6.06787 34.4324Z" fill="#0078D4"/>
<path d="M37.8637 23.6738C33.3755 23.6738 29.7429 27.3064 29.7429 31.7946V38.59V48.6739H32.2597V40.3937H39.7597C44.248 40.3937 47.8805 36.7611 47.8805 32.2728V23.6738H37.8637ZM45.3637 32.2644C45.3637 35.3517 42.847 37.8685 39.7597 37.8685H33.0902C34.0802 36.5681 35.8671 34.2359 36.555 33.4641C37.1003 32.8517 38.5768 31.2745 39.7765 29.991C40.1876 29.5547 39.659 28.8752 39.1305 29.1688C38.0483 29.7728 36.6808 30.704 35.2127 32.1218C33.8621 33.4222 32.9141 34.496 32.2597 35.3181V31.7946C32.2597 28.7074 34.7765 26.1906 37.8637 26.1906H45.3637V32.2644Z" fill="#0078D4"/>
</svg>
