<svg data-slug-id="database21" viewBox="0 0 48 49" xmlns="http://www.w3.org/2000/svg">
<path d="M45.1193 13.4351V36.7358L24.8105 48.4611V25.1605L45.1193 13.4351Z" fill="#0078D4"/>
<path d="M23.9291 0.488281L3.75 12.1386L3.77388 12.1523L24.0588 23.864L27.6034 21.8171L44.2107 12.2307L44.2141 12.2273L44.238 12.2137L23.9291 0.488281Z" fill="#0078D4"/>
<path d="M23.3088 25.1605V48.4611L3 36.7357V13.4385L23.3088 25.1605Z" fill="#0078D4"/>
<path d="M45.1184 13.4351V13.4385L24.8096 25.1604L45.1184 13.4351Z" fill="#0078D4"/>
<path d="M44.2108 12.2275L27.6035 21.8173L44.2108 12.2275Z" fill="#0078D4"/>
<path d="M23.9398 0.467761L23.9262 0.460938L3.72656 12.1215L3.75045 12.1352L3.77433 12.1488L23.9262 0.515522L44.2111 12.2273L44.235 12.2136L44.2589 12.2L23.9398 0.467761Z" fill="#0078D4"/>
<path d="M39.0025 23.9385V40.2183L24.8105 48.4093V32.133L39.0025 23.9385Z" fill="#50E6FF"/>
<path d="M38.155 22.6935L24.0587 30.8334L9.87012 22.6389L23.9666 14.5024L38.155 22.6935Z" fill="#50E6FF"/>
<path d="M23.3087 32.1335V48.4098L9.12012 40.2187V23.9424L23.3087 32.1335Z" fill="#50E6FF"/>
<path d="M39.0015 23.939V23.9424L24.8096 32.1334L39.0015 23.939Z" fill="#6B6B6B"/>
<path d="M38.155 22.6934L24.0586 30.8332L38.155 22.6934Z" fill="#6B6B6B"/>
<path d="M24.2169 5.21338L18.0762 8.75796L18.083 8.76136L22.2075 8.77161V11.3473H26.3014V8.77841L30.3884 8.78526H30.3918L30.3986 8.78181L24.2169 5.21338Z" fill="#50E6FF"/>
</svg>
