<svg data-slug-id="data-lake-store" viewBox="0 0 120 120" xmlns="http://www.w3.org/2000/svg">
<path d="M114 24.0003H64.6C64.0717 24.0206 63.5529 23.8555 63.1334 23.5336L49 14.1336C48.5561 13.8708 48.0494 13.7326 47.5334 13.7336H6.00004C5.3042 13.7334 4.63583 14.0052 4.13761 14.491C3.63938 14.9768 3.35077 15.638 3.33337 16.3336V103.667C3.35077 104.363 3.63938 105.024 4.13761 105.51C4.63583 105.995 5.3042 106.267 6.00004 106.267H114C114.696 106.267 115.364 105.995 115.862 105.51C116.361 105.024 116.649 104.363 116.667 103.667V26.667C116.667 25.9597 116.386 25.2815 115.886 24.7814C115.386 24.2813 114.707 24.0003 114 24.0003Z" fill="#005BA1"/>
<path d="M38.3337 18.7997H14.7337C14.1446 18.7997 13.667 19.2772 13.667 19.8663V22.8664C13.667 23.4555 14.1446 23.933 14.7337 23.933H38.3337C38.9228 23.933 39.4003 23.4555 39.4003 22.8664V19.8663C39.4003 19.2772 38.9228 18.7997 38.3337 18.7997Z" fill="white"/>
<path d="M18.067 18.7997H14.4003C13.9953 18.7997 13.667 19.128 13.667 19.533V23.1997C13.667 23.6047 13.9953 23.933 14.4003 23.933H18.067C18.472 23.933 18.8003 23.6047 18.8003 23.1997V19.533C18.8003 19.128 18.472 18.7997 18.067 18.7997Z" fill="#1AC3F2"/>
<path d="M114 23.8667H60C59.6493 23.8555 59.3004 23.9213 58.9779 24.0595C58.6554 24.1978 58.3671 24.405 58.1334 24.6667L49.1334 33.3334C48.6197 33.7946 47.9569 34.055 47.2667 34.0667H6.00004C5.2928 34.0667 4.61452 34.3477 4.11442 34.8478C3.61433 35.3479 3.33337 36.0261 3.33337 36.7334V103.4C3.35077 104.096 3.63938 104.757 4.13761 105.243C4.63583 105.728 5.3042 106 6.00004 106H114C114.696 106 115.364 105.728 115.862 105.243C116.361 104.757 116.649 104.096 116.667 103.4V26.6667C116.685 26.3055 116.629 25.9443 116.503 25.6052C116.377 25.2661 116.184 24.9562 115.934 24.6943C115.685 24.4324 115.385 24.2239 115.052 24.0817C114.72 23.9394 114.362 23.8663 114 23.8667V23.8667Z"/>
<path d="M67.8668 38.0001C67.6923 37.9518 67.5079 37.9518 67.3334 38.0001C67.3334 38.0001 66.7334 38.0001 66.4668 38.4667L45.4001 69.0667C45.3065 69.2289 45.2572 69.4128 45.2572 69.6001C45.2572 69.7873 45.3065 69.9713 45.4001 70.1334C45.4986 70.3186 45.6415 70.4765 45.816 70.5929C45.9905 70.7093 46.1913 70.7804 46.4001 70.8001H58.8668L53.3334 89.3334C53.2789 89.4418 53.2477 89.5605 53.2419 89.6817C53.2361 89.803 53.2558 89.9241 53.2998 90.0372C53.3438 90.1503 53.4111 90.253 53.4973 90.3385C53.5834 90.4239 53.6866 90.4903 53.8001 90.5334C53.9506 90.5896 54.1163 90.5896 54.2668 90.5334C54.6668 90.5334 54.8668 90.5334 55.1334 90.0667L76.8668 59.0001C76.8668 59.0001 76.8668 58.6001 76.8668 58.3334C76.8497 58.0445 76.7229 57.7731 76.5122 57.5748C76.3014 57.3765 76.0228 57.2662 75.7334 57.2667H62.4001L67.8001 39.0667C67.9288 38.922 68.0053 38.7383 68.0174 38.5449C68.0295 38.3516 67.9765 38.1597 67.8668 38.0001V38.0001Z" fill="white"/>
</svg>
