<svg data-slug-id="database20" viewBox="0 0 49 49" xmlns="http://www.w3.org/2000/svg">
<path d="M40.0243 24.3493C39.8246 26.3879 38.381 28.3891 35.6934 29.9409C29.8606 33.3108 20.3708 33.29 14.5005 29.9035C11.7297 28.3059 10.2611 26.2423 10.0947 24.1538V29.6455C10.0739 29.9118 10.0739 30.1822 10.0947 30.4484C10.2611 32.5369 11.7297 34.6005 14.5005 36.1981C20.3708 39.5888 29.8606 39.6054 35.6934 36.2355C38.3852 34.6837 39.8246 32.6784 40.0243 30.644C40.0576 30.3153 40.0576 29.9908 40.0243 29.6621V24.3493Z" fill="#0078D4"/>
<path d="M40.0243 33.0583C39.8246 35.0969 38.381 37.098 35.6934 38.6498C29.8606 42.0197 20.3708 41.9989 14.5005 38.6124C11.7297 37.0148 10.2611 34.9513 10.0947 32.8628V38.3544C10.0739 38.6207 10.0739 38.8911 10.0947 39.1574C10.2611 41.2459 11.7297 43.3095 14.5005 44.907C20.3708 48.2977 29.8606 48.3143 35.6934 44.9444C38.3852 43.3927 39.8246 41.3874 40.0243 39.3529C40.0576 39.0243 40.0576 38.6998 40.0243 38.3711V33.0583Z" fill="#0078D4"/>
<path d="M40.0243 20.8556V15.4305C40.0576 15.106 40.0576 14.7815 40.0243 14.4611C39.8246 12.4018 38.356 10.3715 35.6268 8.79469C29.7566 5.40401 20.2668 5.38737 14.4339 8.75726C11.7089 10.3299 10.2653 12.3602 10.0947 14.4278C10.0739 14.7024 10.0739 14.977 10.0947 15.2516V20.839C10.0739 21.1052 10.0739 21.3756 10.0947 21.6419C10.2611 23.7304 11.7297 25.7939 14.5005 27.3915C20.3708 30.7822 29.8606 30.7989 35.6934 27.429C38.3852 25.8771 39.8246 23.8718 40.0243 21.8375C40.0576 21.5088 40.0576 21.1801 40.0243 20.8556Z" fill="#0078D4"/>
<path d="M40.0226 14.994C40.0485 10.2147 33.3602 6.30404 25.0839 6.25918C16.8076 6.21431 10.0773 10.0523 10.0513 14.8315C10.0254 19.6107 16.7137 23.5214 24.9901 23.5663C33.2664 23.6111 39.9967 19.7732 40.0226 14.994Z" fill="#50E6FF"/>
<path d="M30.353 18.4227L32.2293 19.1841L34.6256 17.2038L32.7784 16.4549C32.949 16.1886 33.078 15.9141 33.1654 15.6395L35.3953 15.5313L35.0167 13.1183L32.8242 13.2265C32.6536 12.9477 32.4373 12.6773 32.1752 12.4152L33.7811 11.4874L30.7898 9.76088L29.1839 10.6886C28.7554 10.543 28.3144 10.4265 27.8568 10.3308L28.0481 9.02033L23.8462 8.7998L23.6548 10.1103C23.1763 10.1561 22.7021 10.231 22.2444 10.3267L20.9297 9.24498L17.485 10.6345L18.7996 11.7162C18.4793 11.9326 18.2047 12.1655 17.9634 12.4068L15.7626 12.0616L14.6851 14.4121L16.89 14.7575C16.89 15.0404 16.9358 15.3191 17.0232 15.5979L14.9596 16.1512L16.7527 18.3603L18.8163 17.807C18.9702 17.9152 19.1366 18.0192 19.3114 18.119C19.4944 18.2272 19.6858 18.3271 19.8855 18.4186L18.9286 19.6126L22.7353 20.6444L23.7005 19.442C24.1707 19.492 24.6491 19.5169 25.1276 19.5169L25.7308 20.8025L29.7788 20.1826L29.1798 18.9053C29.5833 18.7597 29.9785 18.6016 30.353 18.4227Z" fill="#0078D4"/>
<path d="M29.3907 14.7943C29.3982 13.4225 27.4782 12.3001 25.1024 12.2872C22.7266 12.2743 20.7946 13.3759 20.7871 14.7476C20.7797 16.1193 22.6996 17.2418 25.0754 17.2547C27.4513 17.2675 29.3833 16.166 29.3907 14.7943Z" fill="#50E6FF"/>
<path d="M13.4803 1.46094H5.28573H1.81543V4.92235V13.1058H5.28573V4.92235H13.4803V1.46094Z" fill="#50E6FF"/>
<path d="M47.8775 13.1058V4.92235V1.46094H44.4114H36.2168V4.92235H44.4114V13.1058H47.8775Z" fill="#50E6FF"/>
<path d="M36.2168 36.137H44.4114H47.8775V32.6756V24.4922H44.4114V32.6756H36.2168V36.137Z" fill="#50E6FF"/>
<path d="M1.81543 24.4946V32.6781V36.1395H5.28573H13.4803V32.6781H5.28573V24.4946H1.81543Z" fill="#50E6FF"/>
</svg>
