<svg data-slug-id="database02" viewBox="0 0 48 49" xmlns="http://www.w3.org/2000/svg">
<path d="M5.98389 7.13426V41.8009C5.98389 45.488 14.0451 48.3622 23.9415 48.3622H24.0588C34.0725 48.3622 42.0164 45.3707 42.0164 41.6836V7.25996L41.8572 7.08398L5.98389 7.13426Z" fill="#0078D4"/>
<path d="M42.0164 7.23512C42.0164 10.8049 33.9636 13.7964 24.0588 13.7964C14.1624 13.7964 5.98389 10.8049 5.98389 7.23512C5.98389 3.66539 14.0451 0.673846 23.9415 0.673846C33.9552 0.665466 42.0164 3.65701 42.0164 7.23512Z" fill="#50E6FF"/>
<path d="M37.7845 30.4066V24.1973H34.0974V28.0687C34.0974 28.3201 34.1477 28.5212 33.9215 28.5212H30.9299C30.4523 28.5212 30.511 27.9514 30.511 27.9514V24.1973H26.0278L26.8239 24.7252V28.7139C26.8239 28.7139 26.6312 31.4038 29.0278 31.4038H33.7204C34.0807 31.4038 34.5583 31.1356 34.5835 30.9932C34.6086 30.8591 34.6254 32.0825 33.4019 32.1663H27.3015V35.0406H34.5081C35.2371 35.0406 36.2426 34.9232 36.9549 33.9093C37.5834 33.0127 37.7761 32.292 37.7761 31.7473C37.7845 31.3535 37.7845 30.4066 37.7845 30.4066Z" fill="#50E6FF"/>
<path d="M12.8972 26.0586V31.8154H9.70459V22.5978C9.70459 22.5978 9.98112 20.595 11.8246 20.595C13.6682 20.595 14.062 20.9553 14.9251 22.6061C15.7882 24.2569 17.4642 27.3239 17.4642 27.3239C17.4642 27.3239 19.7267 22.2123 20.0451 21.4414C20.3635 20.6704 21.3356 20.4609 22.3914 20.5364C23.4305 20.6118 24.5031 21.1732 24.5534 22.6397V31.8154H21.3607V26.0586C21.3607 26.0586 19.4082 30.5333 19.0395 31.0612C18.6792 31.5891 18.0759 31.8321 17.3887 31.8321C16.7016 31.8321 15.7882 31.7567 15.3525 30.9523C14.9084 30.1478 12.8972 26.0586 12.8972 26.0586Z" fill="#50E6FF"/>
<path d="M38.4465 6.88444C38.4465 9.30616 32.0026 11.2586 24.176 11.2586C16.3494 11.2586 9.78809 9.29778 9.78809 6.88444C9.78809 4.46272 16.232 2.51025 24.0587 2.51025C31.8853 2.51025 38.4465 4.4711 38.4465 6.88444Z" fill="#0078D4"/>
</svg>
