<svg data-slug-id="database03" viewBox="0 0 48 49" xmlns="http://www.w3.org/2000/svg">
<path d="M19.4013 39.3051C30.0389 39.3051 38.6623 30.6817 38.6623 20.0442C38.6623 9.40663 30.0389 0.783203 19.4013 0.783203C8.7638 0.783203 0.140381 9.40663 0.140381 20.0442C0.140381 30.6817 8.7638 39.3051 19.4013 39.3051Z" fill="#50E6FF"/>
<path d="M10.6242 17.7395C11.5406 17.7395 12.1459 17.9076 12.4486 18.2439C12.7513 18.5802 12.8269 19.1603 12.6672 19.9842C12.4991 20.8417 12.1796 21.4471 11.7088 21.817C11.238 22.1785 10.5149 22.3634 9.53971 22.3634H8.07685L8.97642 17.7395H10.6242ZM4.7644 27.0379H7.16887L7.74056 24.1037H9.80033C10.7083 24.1037 11.4566 24.0113 12.0451 23.8179C12.6336 23.6245 13.1632 23.305 13.6508 22.8595C14.0544 22.4895 14.3823 22.0776 14.6261 21.632C14.8783 21.1864 15.0548 20.6904 15.1557 20.1523C15.408 18.8408 15.2146 17.8235 14.584 17.0921C13.9451 16.3607 12.9278 15.9992 11.5406 15.9992H6.91665L4.7644 27.0379ZM16.9213 13.0566H19.3089L18.7372 15.9908H20.8642C22.201 15.9908 23.1258 16.2262 23.6302 16.6886C24.1347 17.1594 24.2944 17.9076 24.0842 18.9585L23.0837 24.0953H20.6625L21.6125 19.2107C21.7218 18.6559 21.6797 18.2775 21.4948 18.0758C21.3098 17.874 20.9063 17.7731 20.301 17.7731H18.3925L17.1651 24.1037H14.7774L16.9213 13.0566ZM29.406 17.7395C30.3224 17.7395 30.9277 17.9076 31.2303 18.2439C31.533 18.5802 31.6087 19.1603 31.4489 19.9842C31.2808 20.8417 30.9613 21.4471 30.4905 21.817C30.0197 22.1785 29.2967 22.3634 28.3214 22.3634H26.8586L27.7582 17.7395H29.406ZM23.5461 27.0379H25.9506L26.5223 24.1037H28.5821C29.4901 24.1037 30.2383 24.0113 30.8268 23.8179C31.4153 23.6245 31.945 23.305 32.4326 22.8595C32.8361 22.4895 33.164 22.0776 33.4078 21.632C33.66 21.1864 33.8366 20.6904 33.9375 20.1523C34.1897 18.8408 33.9963 17.8235 33.3658 17.0921C32.7268 16.3607 31.7096 15.9992 30.3224 15.9992H25.6984L23.5461 27.0379Z" fill="#0078D4"/>
<path d="M29.9104 27.7952V45.1645C29.9104 47.0141 33.9459 48.4517 38.9061 48.4517H38.965C43.9841 48.4517 47.9607 46.9552 47.9607 45.1057V27.7363L29.9104 27.7952Z" fill="#0078D4"/>
<path d="M47.969 27.7931C47.969 29.5838 43.9335 31.0803 38.9648 31.0803C34.0046 31.0803 29.9019 29.5838 29.9019 27.7931C29.9019 26.0023 33.9373 24.5059 38.906 24.5059C43.9335 24.5059 47.969 26.0023 47.969 27.7931Z" fill="#50E6FF"/>
<path d="M46.1867 27.6181C46.1867 28.8288 42.9583 29.8124 39.0321 29.8124C35.1144 29.8124 31.8271 28.8288 31.8271 27.6181C31.8271 26.4075 35.0555 25.4238 38.9817 25.4238C42.9079 25.4238 46.1867 26.4075 46.1867 27.6181Z" fill="#0078D4"/>
<path d="M45.7832 39.4061V36.2954H43.9337V38.2375C43.9337 38.3636 43.9589 38.4645 43.8496 38.4645H42.3531C42.1177 38.4645 42.1429 38.1786 42.1429 38.1786V36.2954H39.8982L40.2933 36.556V38.557C40.2933 38.557 40.1924 39.9021 41.4031 39.9021H43.7571C43.9421 39.9021 44.1775 39.7676 44.1859 39.7003C44.1943 39.6331 44.2111 40.2468 43.5974 40.2888H40.5371V41.7265H44.1438C44.5054 41.7265 45.0182 41.6676 45.3713 41.1548C45.6908 40.7008 45.7832 40.3477 45.7832 40.0703C45.7832 39.8769 45.7832 39.4061 45.7832 39.4061Z" fill="#50E6FF"/>
<path d="M33.3151 37.2172V40.1009H31.7178V35.4853C31.7178 35.4853 31.8607 34.4848 32.7855 34.4848C33.7103 34.4848 33.9037 34.6698 34.3408 35.4937C34.7612 36.3176 35.6019 37.8561 35.6019 37.8561C35.6019 37.8561 36.7369 35.2919 36.8966 34.9136C37.0564 34.5269 37.544 34.4176 38.0736 34.4596C38.5949 34.4932 39.1329 34.7791 39.1582 35.5105V40.1093H37.5608V37.2256C37.5608 37.2256 36.5772 39.4703 36.4006 39.7309C36.2156 40 35.913 40.1177 35.5767 40.1177C35.232 40.1177 34.778 40.0756 34.551 39.6805C34.324 39.277 33.3151 37.2172 33.3151 37.2172Z" fill="#50E6FF"/>
</svg>
