<svg data-slug-id="database14" viewBox="0 0 48 49" xmlns="http://www.w3.org/2000/svg">
<path d="M45.3881 28.7227H48V16.1855H0V28.7311H27.7873C30.0537 26.5068 33.1627 25.1418 36.5835 25.1418C40.0042 25.1418 43.1216 26.5068 45.3881 28.7227Z" fill="#0078D7"/>
<path d="M25.7567 31.3105H0V43.8561H25.6051C24.5856 42.0362 24.0042 39.9467 24.0042 37.7139C24.0042 35.3801 24.6446 33.1894 25.7567 31.3105Z" fill="#0078D7"/>
<path d="M48 0.958984H0V13.5045H48V0.958984Z" fill="#0078D7"/>
<path d="M7.82723 9.91716C9.26975 9.91716 10.4391 8.74777 10.4391 7.30526C10.4391 5.86275 9.26975 4.69336 7.82723 4.69336C6.38472 4.69336 5.21533 5.86275 5.21533 7.30526C5.21533 8.74777 6.38472 9.91716 7.82723 9.91716Z" fill="#50E6FF"/>
<path d="M7.82723 40.2648C9.26975 40.2648 10.4391 39.0954 10.4391 37.6529C10.4391 36.2104 9.26975 35.041 7.82723 35.041C6.38472 35.041 5.21533 36.2104 5.21533 37.6529C5.21533 39.0954 6.38472 40.2648 7.82723 40.2648Z" fill="#50E6FF"/>
<path d="M7.82723 25.1398C9.26975 25.1398 10.4391 23.9704 10.4391 22.5279C10.4391 21.0854 9.26975 19.916 7.82723 19.916C6.38472 19.916 5.21533 21.0854 5.21533 22.5279C5.21533 23.9704 6.38472 25.1398 7.82723 25.1398Z" fill="#50E6FF"/>
<path d="M29.7842 40.0634C29.1101 38.2856 29.1691 36.3477 29.9611 34.6121C30.7447 32.8764 32.1601 31.5536 33.9379 30.8796C34.9827 30.4836 36.0611 30.3404 37.1565 30.4583L36.8447 32.2024L40.7204 30.096L37.8221 26.709L37.485 28.6131C36.0611 28.4446 34.6204 28.6216 33.2807 29.1271C31.0311 29.9781 29.2449 31.6547 28.2507 33.8454C27.2565 36.036 27.1807 38.4878 28.0317 40.7374C28.6383 42.3551 29.6915 43.7537 31.0733 44.7732L31.4103 45.026L32.5224 43.5094L32.1854 43.2566C31.0985 42.4478 30.2644 41.3356 29.7842 40.0634Z" fill="#0078D7"/>
<path d="M44.8828 34.3597C44.3436 32.9273 43.4505 31.6635 42.2878 30.6777L41.0661 32.0932C41.9845 32.8768 42.6922 33.871 43.1219 35.0169C44.5121 38.6988 42.6501 42.8189 38.9681 44.2091C38.3447 44.445 37.6875 44.5882 37.0134 44.6388L37.123 42.7262L33.5 45.237L36.7691 48.6156L36.8955 46.5345C37.8307 46.4839 38.7491 46.2986 39.6253 45.97C44.2762 44.2175 46.6353 39.0105 44.8828 34.3597Z" fill="#0078D7"/>
</svg>
