<svg data-slug-id="database06" viewBox="0 0 48 49" xmlns="http://www.w3.org/2000/svg">
<path d="M19.368 39.2955C30.0599 39.2955 38.7274 30.628 38.7274 19.9361C38.7274 9.24417 30.0599 0.57666 19.368 0.57666C8.67605 0.57666 0.00854492 9.24417 0.00854492 19.9361C0.00854492 30.628 8.67605 39.2955 19.368 39.2955Z" fill="#50E6FF"/>
<path d="M29.8599 27.7235V45.1798C29.8599 47.0324 33.9187 48.4892 38.9038 48.4892H38.9628C43.9984 48.4892 47.9983 46.9819 47.9983 45.1209V27.6646L29.8599 27.7235Z" fill="#0078D4"/>
<path d="M47.9986 27.7233C47.9986 29.5254 43.9314 31.0327 38.9294 31.0327C33.9275 31.0327 29.8013 29.5254 29.8013 27.7233C29.8013 25.9213 33.8685 24.4224 38.8705 24.4224C43.9314 24.4224 47.9986 25.9297 47.9986 27.7233Z" fill="#50E6FF"/>
<path d="M46.1965 27.5544C46.1965 28.7754 42.9377 29.7606 38.9883 29.7606C35.0306 29.7606 31.7212 28.7754 31.7212 27.5544C31.7212 26.3334 34.98 25.3481 38.9294 25.3481C42.8788 25.3481 46.1965 26.3334 46.1965 27.5544Z" fill="#0078D4"/>
<path d="M45.8091 39.3947V36.2706H43.9565V38.2158C43.9565 38.3421 43.9818 38.4432 43.8723 38.4432H42.365C42.1292 38.4432 42.1545 38.1569 42.1545 38.1569V36.2622H39.8977L40.2935 36.5317V38.5442C40.2935 38.5442 40.1924 39.9 41.405 39.9H43.7713C43.9565 39.9 44.1923 39.7653 44.2007 39.6979C44.2092 39.6305 44.226 40.2452 43.6113 40.2874H40.5377V41.7357H44.1671C44.5291 41.7357 45.0428 41.6768 45.3965 41.1631C45.7165 40.7084 45.8091 40.3463 45.8091 40.0768C45.8091 39.8663 45.8091 39.3947 45.8091 39.3947Z" fill="#50E6FF"/>
<path d="M33.2788 37.2025V40.0992H31.6704V35.4594C31.6704 35.4594 31.8136 34.4489 32.7399 34.4489C33.6661 34.4489 33.8682 34.6341 34.2977 35.4594C34.7356 36.293 35.5777 37.834 35.5777 37.834C35.5777 37.834 36.7229 35.2573 36.8745 34.8699C37.0345 34.4826 37.5229 34.3731 38.0534 34.4152C38.5755 34.4489 39.1144 34.7352 39.1397 35.4762V40.0992H37.5313V37.2025C37.5313 37.2025 36.5461 39.4593 36.3608 39.7203C36.1755 39.9898 35.8724 40.1077 35.5356 40.1077C35.1987 40.1077 34.7272 40.0656 34.5082 39.6698C34.2893 39.2656 33.2788 37.2025 33.2788 37.2025Z" fill="#50E6FF"/>
<path d="M24.7402 19.8571C23.8981 20.2529 21.9108 20.6234 19.5782 20.7918C16.4541 21.0192 13.8857 20.7918 13.8521 20.2782C13.8352 20.0255 15.0815 19.495 16.4709 19.0908C13.8268 19.3266 11.9069 19.8655 11.9237 20.4381C11.949 21.1287 14.8457 21.6086 18.4077 21.4907C21.9697 21.3813 24.8412 20.7245 24.8159 20.034C24.8159 19.975 24.7907 19.9161 24.7402 19.8571Z" fill="#0078D4"/>
<path d="M20.109 23.227C17.3217 23.5049 15.006 23.227 14.9471 22.6038C14.9218 22.3849 15.1913 22.1491 15.6628 21.9302C14.5766 22.2249 13.9029 22.6123 13.9197 23.008C13.945 23.7659 16.4039 24.2964 19.4017 24.1869C21.2374 24.1196 22.8542 23.8333 23.831 23.4375L22.9468 22.7554C22.1469 22.9575 21.1701 23.1259 20.109 23.227Z" fill="#0078D4"/>
<path d="M27.5273 27.117C27.4431 27.3359 27.3252 27.5885 27.1568 27.7485C27.022 27.8833 26.7694 27.9927 26.5252 28.0769C25.7252 28.5064 23.2916 28.8264 20.2854 28.8938C19.9317 28.9022 19.5781 28.9022 19.216 28.9022C15.0224 28.9022 11.3678 28.5064 11.3678 27.8833C11.3678 27.5717 12.4541 27.1843 13.8098 26.9738L13.5151 26.7549C11.3425 26.957 9.75098 27.597 9.75098 28.2285C9.75098 28.2454 9.75098 28.2622 9.7594 28.279C9.86045 29.0453 12.2267 29.458 15.275 29.6601C16.2939 29.7527 17.4392 29.719 18.5928 29.719C23.6453 29.719 27.7378 28.7675 27.7378 27.5885C27.7462 27.4201 27.6704 27.2686 27.5273 27.117Z" fill="#0078D4"/>
<path d="M28.9001 28.1685C28.5465 29.4316 24.6476 30.5179 19.7299 30.5179C18.2141 30.5179 15.7131 30.3747 13.2627 30.0968C14.9384 30.7452 16.5552 31.0231 19.7888 31.0231C24.9339 31.0231 28.9843 29.8358 28.9843 28.4884C28.9843 28.3874 28.9507 28.2779 28.9001 28.1685Z" fill="#0078D4"/>
<path d="M28.7825 19.9575C28.2604 18.8796 26.8626 18.4839 25.65 19.0649C25.5068 19.1323 25.3721 19.2165 25.2458 19.3091C26.3405 18.947 27.4015 19.2586 27.8057 20.0922C28.2604 21.0269 27.7046 21.9448 26.652 22.7532C26.3994 22.9469 25.2289 23.8058 24.9426 23.8479C25.6416 23.8648 26.5257 23.5953 27.5278 22.9637C28.673 22.2564 29.3046 21.0354 28.7825 19.9575Z" fill="#0078D4"/>
<path d="M19.8817 25.9223C17.608 26.1159 15.7218 25.8212 15.6797 25.2739C15.6713 25.1897 15.7134 25.097 15.7976 25.0044C15.0902 25.2233 14.6523 25.5181 14.6523 25.8381C14.6523 26.537 16.6986 27.1012 19.2248 27.1012C21.1785 27.1012 22.8458 26.7643 23.4942 26.2844C23.1237 26.0317 22.6689 25.7286 22.3405 25.5096C21.6669 25.6949 20.8164 25.8465 19.8817 25.9223Z" fill="#0078D4"/>
<path d="M20.3195 19.8998C20.3195 19.8998 21.0774 19.4788 21.0184 18.3588C20.9595 17.2389 19.3343 16.1442 19.3679 14.6284C19.4016 13.1127 21.3047 11.799 22.0289 11.3443C22.7615 10.898 25.1699 10.1064 25.1699 10.1064C25.1699 10.1064 23.2668 11.2854 22.2563 12.0685C21.2458 12.8516 20.9426 13.9211 21.0774 14.6789C21.2205 15.4368 22.7278 16.582 22.4247 17.5083C22.1131 18.443 21.1616 19.7819 20.3195 19.8998Z" fill="#0078D4"/>
<path d="M22.0539 4.78223C22.0539 4.78223 23.1739 6.26429 22.416 8.06634C21.6581 9.86839 20.2266 11.0978 19.2498 11.8473C18.2645 12.6052 17.1193 13.6999 17.3972 15.2409C17.6751 16.7819 18.7108 17.8513 18.9382 18.1039C19.1656 18.3566 19.3845 19.1144 19.3845 19.1144C19.3845 19.1144 17.6161 17.5987 16.9762 16.7313C16.3362 15.864 15.5194 14.3735 16.2772 13.0851C17.0351 11.7968 18.6856 10.8705 20.5129 9.3042C22.3402 7.73793 22.2223 5.5401 22.0539 4.78223Z" fill="#0078D4"/>
</svg>
