<svg data-slug-id="data04" viewBox="0 0 48 49" xmlns="http://www.w3.org/2000/svg">
<path d="M47.9917 8.15561L47.9917 0.958984L40.7951 0.958984L40.7951 8.15561L47.9917 8.15561Z" fill="#0078D4"/>
<path d="M47.9917 18.3431L47.9917 11.1465L40.7951 11.1465L40.7951 18.3431L47.9917 18.3431Z" fill="#50E6FF"/>
<path d="M47.9917 26.3059L47.9917 21.334L0.042263 21.334L0.0422628 26.3059L47.9917 26.3059Z" fill="#0078D4"/>
<path d="M47.9917 38.7259L47.9917 31.5293L40.7951 31.5293L40.7951 38.7259L47.9917 38.7259Z" fill="#0078D4"/>
<path d="M37.812 8.15561L37.812 0.958984L30.6154 0.958984L30.6154 8.15561L37.812 8.15561Z" fill="#50E6FF"/>
<path d="M37.812 18.3431L37.812 11.1465L30.6154 11.1465L30.6154 18.3431L37.812 18.3431Z" fill="#0078D4"/>
<path d="M37.812 48.9173L37.812 41.7207L30.6154 41.7207L30.6154 48.9173L37.812 48.9173Z" fill="#0078D4"/>
<path d="M27.6069 8.15561L27.6069 0.958984L20.4103 0.958984L20.4103 8.15561L27.6069 8.15561Z" fill="#0078D4"/>
<path d="M27.6069 18.3431L27.6069 11.1465L20.4103 11.1465L20.4103 18.3431L27.6069 18.3431Z" fill="#50E6FF"/>
<path d="M27.6069 38.7259L27.6069 31.5293L20.4103 31.5293L20.4103 38.7259L27.6069 38.7259Z" fill="#0078D4"/>
<path d="M17.4185 8.15561L17.4185 0.958984L10.2218 0.958984L10.2218 8.15561L17.4185 8.15561Z" fill="#50E6FF"/>
<path d="M17.4185 18.3431L17.4185 11.1465L10.2218 11.1465L10.2218 18.3431L17.4185 18.3431Z" fill="#0078D4"/>
<path d="M17.4185 48.9173L17.4185 41.7207L10.2218 41.7207L10.2218 48.9173L17.4185 48.9173Z" fill="#0078D4"/>
<path d="M7.23047 8.15561L7.23047 0.958984L0.0338378 0.958984L0.0338375 8.15561L7.23047 8.15561Z" fill="#0078D4"/>
<path d="M7.23047 18.3431L7.23047 11.1465L0.0338378 11.1465L0.0338375 18.3431L7.23047 18.3431Z" fill="#50E6FF"/>
<path d="M7.23047 38.7259L7.23047 31.5293L0.0338378 31.5293L0.0338375 38.7259L7.23047 38.7259Z" fill="#0078D4"/>
</svg>
