<svg data-slug-id="datacenter01" viewBox="0 0 48 48" xmlns="http://www.w3.org/2000/svg">
  <g clip-path="url(#datacenter01_clip0)">
    <path d="M46.419.147H21.685a1.6 1.6 0 00-1.6 1.581v35.384h.478a4.666 4.666 0 014.197-2.824h.035a4.64 4.64 0 11-2.104 8.8 4.595 4.595 0 01-2.062-1.99h-.533v1.966a1.6 1.6 0 001.6 1.581h24.733A1.579 1.579 0 0048 43.072V1.728A1.579 1.579 0 0046.419.147z" fill="url(#datacenter01_paint0_linear)"/>
    <path opacity=".4" d="M23.773 5.088h4.547a.395.395 0 01.395.395v5.866a.395.395 0 01-.395.395h-4.533a.395.395 0 01-.395-.395V5.483a.395.395 0 01.395-.395h-.014zm8 0h4.547a.395.395 0 01.395.395v5.866a.395.395 0 01-.395.395h-4.533a.395.395 0 01-.395-.395V5.483a.395.395 0 01.395-.395h-.014zm8.019 0h4.533a.395.395 0 01.395.395v5.866a.395.395 0 01-.395.395h-4.533a.395.395 0 01-.395-.395V5.483a.395.395 0 01.395-.395zm-16 10.616h4.528a.395.395 0 01.395.395v5.928a.397.397 0 01-.395.397h-4.533a.398.398 0 01-.395-.397V16.16a.397.397 0 01.336-.448l.064-.008zm8 0h4.547a.395.395 0 01.394.395v5.928a.397.397 0 01-.394.397h-4.534a.397.397 0 01-.394-.397V16.16a.393.393 0 01.333-.448l.048-.008zm8.019 0h4.533a.395.395 0 01.395.395v5.928a.397.397 0 01-.395.397h-4.533a.398.398 0 01-.395-.397V16.16a.395.395 0 01.317-.453l.078-.003zm-16 9.25h4.509a.395.395 0 01.395.395v5.931a.395.395 0 01-.395.395h-4.533a.395.395 0 01-.395-.395v-5.867a.394.394 0 01.336-.445l.083-.013zm8 0h4.546a.395.395 0 01.395.395v5.931a.395.395 0 01-.395.395h-4.533a.395.395 0 01-.395-.395v-5.867a.388.388 0 01.334-.445l.048-.013zm8.018 0h4.534a.395.395 0 01.394.395v5.931a.395.395 0 01-.394.395h-4.534a.394.394 0 01-.394-.395v-5.867a.39.39 0 01.298-.453l.096-.005z" fill="#F2F2F2"/>
    <path d="M40.483 29.333H9.475A1.566 1.566 0 007.907 30.9v6.205h12.645a4.666 4.666 0 014.197-2.824h.035a4.64 4.64 0 11-2.104 8.8 4.594 4.594 0 01-2.061-1.99H7.907v5.182a1.565 1.565 0 001.568 1.565h31.008a1.568 1.568 0 001.568-1.565V30.907a1.567 1.567 0 00-1.568-1.574z" fill="url(#datacenter01_paint1_linear)"/>
    <path opacity=".8" d="M36.528 31.712h-3.707a.635.635 0 00-.634.635v12.506c0 .35.284.635.634.635h3.707c.35 0 .635-.284.635-.635V32.347a.635.635 0 00-.635-.635zM17.6 37.112v-4.765a.635.635 0 00-.635-.635h-3.704a.633.633 0 00-.634.635v4.765H17.6zM12.627 41.107v3.746a.633.633 0 00.634.632h3.707a.635.635 0 00.632-.632v-3.746h-4.973zM24.75 34.288h.034c.934.02 1.84.32 2.6.861v-2.802a.634.634 0 00-.635-.635H23.04a.635.635 0 00-.635.635V35a4.655 4.655 0 012.344-.712zM26.221 43.312a4.629 4.629 0 01-3.541-.216 2.772 2.772 0 01-.267-.147v1.904a.634.634 0 00.635.632h3.71a.635.635 0 00.634-.632v-2.162a4.67 4.67 0 01-1.17.62z" fill="#fff"/>
    <path d="M28.19 37.896a3.605 3.605 0 00-6.977.253H8.485a6.182 6.182 0 01-1.333-.168 6.4 6.4 0 01.707-12.672h.621l.197-.565a7.242 7.242 0 016.96-4.837 7.446 7.446 0 014.416 1.405v-2.336a9.334 9.334 0 00-4.33-1.067 9.275 9.275 0 00-8.736 5.504 8.32 8.32 0 00-.651 16.294c.661.24 1.361.354 2.064.338h12.813a3.65 3.65 0 006.976-2.149z" fill="#32BEDD"/>
  </g>
  <defs>
    <linearGradient id="datacenter01_paint0_linear" gradientUnits="userSpaceOnUse">
      <stop stop-color="#5EA0EF"/>
      <stop offset=".2" stop-color="#328DE2"/>
      <stop offset=".4" stop-color="#0078D4"/>
      <stop offset=".7" stop-color="#006ABB"/>
      <stop offset="1" stop-color="#005BA1"/>
    </linearGradient>
    <linearGradient id="datacenter01_paint1_linear" gradientUnits="userSpaceOnUse">
      <stop stop-color="#198AB3"/>
      <stop offset=".4" stop-color="#29B8DC"/>
      <stop offset=".7" stop-color="#38D5F6"/>
      <stop offset="1" stop-color="#9CEBFF"/>
    </linearGradient>
    <clipPath id="datacenter01_clip0">
      <path fill="#fff" d="M0 0h48v48H0z"/>
    </clipPath>
  </defs>
</svg>
