<svg data-slug-id="data08" viewBox="0 0 48 49" xmlns="http://www.w3.org/2000/svg">
<path d="M2.55989 5.96831C1.17041 5.96831 0.0419922 4.84812 0.0419922 3.44998C0.0419922 2.05184 1.17041 0.931641 2.55989 0.931641C3.95778 0.931641 5.07778 2.05184 5.07778 3.44998C5.07778 4.83969 3.94936 5.96831 2.55989 5.96831Z" fill="#50E6FF"/>
<path d="M10.1136 5.96831C8.7157 5.96831 7.5957 4.83969 7.5957 3.44998C7.5957 2.06026 8.72412 0.931641 10.1136 0.931641C11.5031 0.931641 12.6315 2.06026 12.6315 3.44998C12.6399 4.83969 11.5031 5.96831 10.1136 5.96831Z" fill="#50E6FF"/>
<path d="M17.6842 5.96831C16.2863 5.96831 15.1663 4.83969 15.1663 3.44998C15.1663 2.06026 16.2947 0.931641 17.6842 0.931641C19.0736 0.931641 20.202 2.06026 20.202 3.44998C20.202 4.83969 19.082 5.96831 17.6842 5.96831Z" fill="#50E6FF"/>
<path d="M25.3138 5.96831C23.9159 5.96831 22.7959 4.83969 22.7959 3.44998C22.7959 2.06026 23.9159 0.931641 25.3138 0.931641C26.7117 0.931641 27.8317 2.06026 27.8317 3.44998C27.8317 4.83969 26.7033 5.96831 25.3138 5.96831Z" fill="#50E6FF"/>
<path d="M32.8421 5.96831C31.4442 5.96831 30.3242 4.83969 30.3242 3.44998C30.3242 2.06026 31.4526 0.931641 32.8421 0.931641C34.24 0.931641 35.36 2.06026 35.36 3.44998C35.36 4.83969 34.2316 5.96831 32.8421 5.96831Z" fill="#50E6FF"/>
<path d="M40.4295 5.96831C39.0316 5.96831 37.9116 4.83969 37.9116 3.44998C37.9116 2.06026 39.04 0.931641 40.4295 0.931641C41.819 0.931641 42.9474 2.05184 42.9474 3.44998C42.9474 4.83969 41.819 5.96831 40.4295 5.96831Z" fill="#50E6FF"/>
<path d="M2.55989 13.523C1.16199 13.523 0.0419922 12.3944 0.0419922 11.0047C0.0419922 9.61495 1.17041 8.48633 2.55989 8.48633C3.95778 8.48633 5.07778 9.61495 5.07778 11.0047C5.07778 12.3944 3.94936 13.523 2.55989 13.523Z" fill="#50E6FF"/>
<path d="M40.4295 13.523C39.0316 13.523 37.9116 12.3944 37.9116 11.0047C37.9116 9.61495 39.04 8.48633 40.4295 8.48633C41.8274 8.48633 42.9474 9.61495 42.9474 11.0047C42.9474 12.3944 41.819 13.523 40.4295 13.523Z" fill="#50E6FF"/>
<path d="M2.5345 21.1949C1.1366 21.1949 0.0166016 20.0663 0.0166016 18.6765C0.0166016 17.2868 1.14502 16.1582 2.5345 16.1582C3.93239 16.1582 5.05239 17.2868 5.05239 18.6765C5.05239 20.0663 3.91555 21.1949 2.5345 21.1949Z" fill="#50E6FF"/>
<path d="M17.6761 21.1949C16.2782 21.1949 15.1582 20.0663 15.1582 18.6765C15.1582 17.2868 16.2866 16.1582 17.6761 16.1582C19.0656 16.1582 20.194 17.2868 20.194 18.6765C20.194 20.0663 19.0656 21.1949 17.6761 21.1949Z" fill="#50E6FF"/>
<path d="M25.3138 21.1949C23.9159 21.1949 22.7959 20.0663 22.7959 18.6765C22.7959 17.2868 23.9243 16.1582 25.3138 16.1582C26.7117 16.1582 27.8317 17.2868 27.8317 18.6765C27.8317 20.0663 26.7033 21.1949 25.3138 21.1949Z" fill="#50E6FF"/>
<path d="M40.4295 21.1128C39.0316 21.1128 37.9116 19.9842 37.9116 18.5945C37.9116 17.2048 39.04 16.0762 40.4295 16.0762C41.8274 16.0762 42.9474 17.2048 42.9474 18.5945C42.9474 19.9842 41.819 21.1128 40.4295 21.1128Z" fill="#50E6FF"/>
<path d="M2.61946 28.7535C1.22156 28.7535 0.101562 27.6249 0.101562 26.2351C0.101562 24.8454 1.22998 23.7168 2.61946 23.7168C4.01735 23.7168 5.13735 24.8454 5.13735 26.2351C5.13735 27.6249 4.00051 28.7535 2.61946 28.7535Z" fill="#50E6FF"/>
<path d="M17.7601 28.7535C16.3622 28.7535 15.2422 27.6249 15.2422 26.2351C15.2422 24.8454 16.3706 23.7168 17.7601 23.7168C19.1496 23.7168 20.278 24.8454 20.278 26.2351C20.278 27.6249 19.1496 28.7535 17.7601 28.7535Z" fill="#50E6FF"/>
<path d="M2.61897 36.316C1.22107 36.316 0.101074 35.1874 0.101074 33.7976C0.101074 32.3995 1.2295 31.2793 2.61897 31.2793C4.01686 31.2793 5.13686 32.4079 5.13686 33.7976C5.13686 35.1874 4.00002 36.316 2.61897 36.316Z" fill="#50E6FF"/>
<path d="M2.61897 43.8707C1.22107 43.8707 0.101074 42.742 0.101074 41.3523C0.101074 39.9542 1.2295 38.834 2.61897 38.834C4.01686 38.834 5.13686 39.9626 5.13686 41.3523C5.13686 42.742 4.00002 43.8707 2.61897 43.8707Z" fill="#50E6FF"/>
<path d="M10.1727 43.8707C8.77479 43.8707 7.65479 42.742 7.65479 41.3523C7.65479 39.9542 8.78321 38.834 10.1727 38.834C11.5622 38.834 12.6906 39.9626 12.6906 41.3523C12.6906 42.742 11.5622 43.8707 10.1727 43.8707Z" fill="#50E6FF"/>
<path d="M17.7601 43.8707C16.3622 43.8707 15.2422 42.742 15.2422 41.3523C15.2422 39.9542 16.3706 38.834 17.7601 38.834C19.1496 38.834 20.278 39.9626 20.278 41.3523C20.278 42.742 19.1496 43.8707 17.7601 43.8707Z" fill="#50E6FF"/>
<path d="M45.524 44.5287L38.2313 37.3106C39.3345 35.8704 39.9829 34.068 39.9829 32.1224C39.9829 27.3973 36.1429 23.5566 31.4187 23.5566C26.6945 23.5566 22.8545 27.3973 22.8545 32.1224C22.8545 36.8474 26.6945 40.6881 31.4187 40.6881C33.2882 40.6881 35.0229 40.0901 36.4208 39.0794L43.7471 46.3312L45.524 44.5287ZM31.4187 38.1613C28.084 38.1613 25.3724 35.4493 25.3724 32.1139C25.3724 28.7786 28.084 26.0666 31.4187 26.0666C34.7534 26.0666 37.465 28.7786 37.465 32.1139C37.465 35.4493 34.7534 38.1613 31.4187 38.1613Z" fill="#0078D4"/>
<path d="M10.1306 18.6114H7.63794V8.4707H17.6843V11.0312H10.1306V18.6114Z" fill="#0078D4"/>
<path d="M17.7348 33.8148V36.3078H7.5874V26.2598H10.1474V33.8148H17.7348Z" fill="#0078D4"/>
<path d="M25.2715 11.032V8.51367H35.3599V18.6123H32.7999V11.032H25.2715Z" fill="#0078D4"/>
</svg>
