<svg data-slug-id="database01" viewBox="0 0 48 49" xmlns="http://www.w3.org/2000/svg">
<path d="M42.8475 28.5767H5.03516V39.9218C5.03516 44.8658 13.5221 48.875 23.996 48.875C34.47 48.875 42.9485 44.8658 42.9485 39.9218C42.9485 39.9218 42.9317 28.6525 42.8475 28.5767Z" fill="#0078D7"/>
<path d="M42.9317 26.5605L42.9569 36.4823C42.9569 41.4263 34.47 45.4354 23.996 45.4354C13.5221 45.4354 5.03516 41.4179 5.03516 36.4823V26.5605H42.9317Z" fill="#50E6FF"/>
<path d="M42.8475 16.3188H5.03516V27.664C5.03516 32.608 13.5221 36.6171 23.996 36.6171C34.47 36.6171 42.9569 32.608 42.9569 27.664C42.9485 27.664 42.9317 16.3947 42.8475 16.3188Z" fill="#0078D7"/>
<path d="M42.9483 9.29541H5.03491V18.695C5.03491 23.639 13.5218 27.6481 23.9958 27.6481C34.4697 27.6481 42.9483 23.639 42.9483 18.695C42.9483 18.695 42.9483 9.37121 42.9483 9.29541Z" fill="#50E6FF"/>
<path d="M23.9958 18.6194C34.4676 18.6194 42.9567 14.66 42.9567 9.77579C42.9567 4.89157 34.4676 0.932129 23.9958 0.932129C13.524 0.932129 5.03491 4.89157 5.03491 9.77579C5.03491 14.66 13.524 18.6194 23.9958 18.6194Z" fill="#0078D7"/>
</svg>
