<svg data-slug-id="database22" viewBox="0 0 48 49" xmlns="http://www.w3.org/2000/svg">
<path d="M5.05262 8.10303H0V13.1528H5.05262V8.10303Z" fill="#50E6FF"/>
<path d="M40.5062 8.10303H35.4536V13.1528H40.5062V8.10303Z" fill="#50E6FF"/>
<path d="M47.9999 8.10303H42.9473V13.1528H47.9999V8.10303Z" fill="#50E6FF"/>
<path d="M47.9999 0.923828H42.9473V5.97364H47.9999V0.923828Z" fill="#50E6FF"/>
<path d="M5.05262 15.2593H0V20.3091H5.05262V15.2593Z" fill="#50E6FF"/>
<path d="M40.5062 15.2593H35.4536V20.3091H40.5062V15.2593Z" fill="#50E6FF"/>
<path d="M47.9999 15.2593H42.9473V20.3091H47.9999V15.2593Z" fill="#50E6FF"/>
<path d="M5.05262 22.4116H0V27.4614H5.05262V22.4116Z" fill="#3BCAF4"/>
<path d="M12.6307 22.4116H7.57812V27.4614H12.6307V22.4116Z" fill="#3BCAF4"/>
<path d="M40.5062 22.4116H35.4536V27.4614H40.5062V22.4116Z" fill="#3BCAF4"/>
<path d="M47.9999 22.4116H42.9473V27.4614H47.9999V22.4116Z" fill="#3BCAF4"/>
<path d="M5.05262 29.564H0V34.6138H5.05262V29.564Z" fill="#3BCAF4"/>
<path d="M12.6307 29.564H7.57812V34.6138H12.6307V29.564Z" fill="#3BCAF4"/>
<path d="M40.5062 29.564H35.4536V34.6138H40.5062V29.564Z" fill="#3BCAF4"/>
<path d="M47.9999 29.564H42.9473V34.6138H47.9999V29.564Z" fill="#3BCAF4"/>
<path d="M5.05262 36.7197H0V41.7695H5.05262V36.7197Z" fill="#0078D4"/>
<path d="M12.6307 36.7197H7.57812V41.7695H12.6307V36.7197Z" fill="#0078D4"/>
<path d="M40.5062 36.7197H35.4536V41.7695H40.5062V36.7197Z" fill="#0078D4"/>
<path d="M47.9999 36.7197H42.9473V41.7695H47.9999V36.7197Z" fill="#0078D4"/>
<path d="M5.05262 43.8721H0V48.9219H5.05262V43.8721Z" fill="#0078D4"/>
<path d="M12.6307 43.8721H7.57812V48.9219H12.6307V43.8721Z" fill="#0078D4"/>
<path d="M40.5062 43.8721H35.4536V48.9219H40.5062V43.8721Z" fill="#0078D4"/>
<path d="M47.9999 43.8721H42.9473V48.9219H47.9999V43.8721Z" fill="#0078D4"/>
<path d="M30.3331 31.2629L25.2552 26.1963V28.7549H17.6763V33.8215H25.2552V36.338L30.3331 31.2629Z" fill="#3BCAF4"/>
<path d="M30.3331 18.5726L25.2552 13.4976V16.0645H17.6763V21.1312H25.2552V23.6477L30.3331 18.5726Z" fill="#50E6FF"/>
<path d="M30.3331 43.8484L25.2552 38.7817V41.3403H17.6763V46.4069H25.2552V48.9234L30.3331 43.8484Z" fill="#0078D4"/>
</svg>
