<svg data-slug-id="database" xmlns="http://www.w3.org/2000/svg" viewBox="0 0 48 48">
	<path d="M23.9998 13.7064C14.5598 13.7064 6.90649 11.0398 6.90649 7.51978V40.4798C6.90649 43.8664 14.4265 46.6131 23.7598 46.6664H23.9998C33.4398 46.6664 41.0932 43.9998 41.0932 40.4798V7.51978C41.0932 10.9598 33.4398 13.7064 23.9998 13.7064Z" fill="url(#database_l01f2302-385e-9d9f-a7e9-dac658c15293)"/>
	<path d="M41.0932 7.51998C41.0932 10.96 33.4398 13.7066 23.9998 13.7066C14.5598 13.7066 6.90649 11.04 6.90649 7.51998C6.90649 3.99998 14.5598 1.33331 23.9998 1.33331C33.4398 1.33331 41.0932 3.99998 41.0932 7.51998Z" fill="#E8E8E8"/>
	<path d="M37.1201 7.01351C37.1201 9.20017 31.2268 10.9602 24.0001 10.9602C16.7735 10.9602 10.8801 9.20017 10.8801 7.01351C10.8801 4.82684 16.7735 3.09351 24.0001 3.09351C31.2268 3.09351 37.1201 4.85351 37.1201 7.01351Z" fill="#50E6FF"/>
	<path d="M24.0004 7.99987C20.4812 7.90999 16.9726 8.4241 13.6271 9.51987C16.9758 10.5953 20.4854 11.0825 24.0004 10.9599C27.5225 11.063 31.0349 10.5393 34.3737 9.41321C31.0187 8.36811 27.5127 7.89044 24.0004 7.99987Z" fill="#198AB3"/>
	<defs>
		<linearGradient id="database_l01f2302-385e-9d9f-a7e9-dac658c15293" x1="6.90649" y1="27.0931" x2="41.0932" y2="27.0931" gradientUnits="userSpaceOnUse">
			<stop stop-color="#005BA1"/>
			<stop offset="0.07" stop-color="#0060A9"/>
			<stop offset="0.36" stop-color="#0071C8"/>
			<stop offset="0.52" stop-color="#0078D4"/>
			<stop offset="0.64" stop-color="#0074CD"/>
			<stop offset="0.82" stop-color="#006ABB"/>
			<stop offset="1" stop-color="#005BA1"/>
		</linearGradient>
	</defs>
</svg>
