<svg data-slug-id="database08" viewBox="0 0 48 49" xmlns="http://www.w3.org/2000/svg">
<path d="M47.924 1.02148H0.0332031V6.05909H47.924V1.02148Z" fill="#50E6FF"/>
<path d="M47.924 5.97461H0.0332031V23.623H47.924V5.97461Z" fill="#0078D4"/>
<path d="M10.1168 26.0918H0.0332031V36.1754H10.1168V26.0918Z" fill="#0078D4"/>
<path d="M22.7203 26.0918H12.6367V36.1754H22.7203V26.0918Z" fill="#0078D4"/>
<path d="M35.3219 26.0918H25.2383V36.1754H35.3219V26.0918Z" fill="#50E6FF"/>
<path d="M47.9248 26.0918H37.8496V36.1754H47.9332V26.0918H47.9248Z" fill="#50E6FF"/>
<path d="M22.7192 38.6934H0.0332031V48.777H22.7192V38.6934Z" fill="#0078D4"/>
<path d="M47.9243 38.6934H25.2383V48.7686H47.9243V38.6934Z" fill="#50E6FF"/>
<path d="M41.5683 14.6582L35.3301 8.41992V12.6095H6.1875V17.0426H35.3301V20.8964L41.5683 14.6582Z" fill="#50E6FF"/>
</svg>
