<svg data-slug-id="data03" viewBox="0 0 48 49" xmlns="http://www.w3.org/2000/svg">
<path d="M36.0778 4.13867H12.0259L0 24.9767L12.0259 45.711H36.0778L48 24.9767L36.0778 4.13867Z" fill="#137BD3"/>
<path d="M31.1021 12.3262H15.033C13.3743 12.3262 11.9229 13.6739 11.9229 15.4363V34.5119C11.9229 36.1707 13.2706 37.6221 15.033 37.6221H33.0719C34.7306 37.6221 36.182 36.2743 36.182 34.5119V16.9914L31.1021 12.3262ZM34.4196 34.5119C34.4196 35.2376 33.9013 35.756 33.1756 35.756H14.8257C14.1 35.756 13.5816 35.2376 13.5816 34.5119V15.3327C13.5816 14.6069 14.1 14.0886 14.8257 14.0886H30.0654V18.0281H34.4196V34.5119Z" fill="white"/>
<path d="M26.7471 16.0605C25.2957 16.0605 24.1553 17.2009 24.1553 18.6523V21.2441C24.1553 22.6955 25.2957 23.8359 26.7471 23.8359C28.1985 23.8359 29.3389 22.6955 29.3389 21.2441V18.6523C29.2352 17.2009 28.0948 16.0605 26.7471 16.0605ZM27.9911 21.2441C27.9911 21.9698 27.3691 22.4882 26.7471 22.4882C26.125 22.4882 25.503 21.8662 25.503 21.2441V18.756C25.503 18.0303 26.125 17.512 26.7471 17.512C27.3691 17.512 27.9911 18.134 27.9911 18.756V21.2441Z" fill="white"/>
<path d="M21.2529 25.7051C19.8015 25.7051 18.6611 26.8455 18.6611 28.2969V30.8887C18.6611 32.3401 19.8015 33.4805 21.2529 33.4805C22.7043 33.4805 23.8447 32.3401 23.8447 30.8887V28.2969C23.741 26.8455 22.6007 25.7051 21.2529 25.7051ZM22.497 30.785C22.497 31.5107 21.875 32.0291 21.2529 32.0291C20.6309 32.0291 20.0089 31.407 20.0089 30.785V28.2969C20.0089 27.5712 20.6309 27.0528 21.2529 27.0528C21.875 27.0528 22.497 27.6748 22.497 28.2969V30.785Z" fill="white"/>
<path d="M21.7719 22.386V16.373H20.5279L18.8691 17.8245L19.5948 18.2391L20.7352 17.4098V22.386H19.1802V23.4227H23.4307V22.386H21.7719Z" fill="white"/>
<path d="M27.5775 31.9212V25.9082H26.3334L24.7783 27.3596L25.504 27.878L26.6444 27.0486V31.9212H24.9857V32.9579H29.2362V31.9212H27.5775Z" fill="white"/>
</svg>
