<svg data-slug-id="database07" viewBox="0 0 48 49" xmlns="http://www.w3.org/2000/svg">
<path d="M6.18774 7.39258V41.5883C6.18774 45.1127 14.0937 48.0655 23.9048 48.0655V7.39258H6.18774Z" fill="#50E6FF"/>
<path d="M23.7144 48.0655H24.0001C33.8112 48.0655 41.7171 45.2079 41.7171 41.5883V7.39258H23.7144V48.0655Z" fill="#0072C5"/>
<path d="M23.5234 48.067H23.8092C33.7155 48.067 41.812 45.2094 41.812 41.5898V7.29883H23.6187L23.5234 48.067Z" fill="#3BCAF4"/>
<path d="M41.7153 7.39369C41.7153 10.918 33.8093 13.8709 23.9983 13.8709C14.1872 13.8709 6.28125 11.0133 6.28125 7.39369C6.28125 3.77409 14.1872 0.916504 23.9983 0.916504C33.8093 0.916504 41.7153 3.86934 41.7153 7.39369Z" fill="white"/>
<path d="M38.0977 7.01098C38.0977 9.3923 31.811 11.2974 24.0002 11.2974C16.1895 11.2974 9.90283 9.3923 9.90283 7.01098C9.90283 4.62967 16.1895 2.72461 24.0002 2.72461C31.811 2.72461 38.0977 4.62967 38.0977 7.01098Z" fill="#0078D4"/>
<path d="M35.1448 9.58281C36.9546 8.82079 38.0977 7.96351 38.0977 7.01098C38.0977 4.62967 31.811 2.72461 24.0002 2.72461C16.1895 2.72461 9.90283 4.62967 9.90283 7.01098C9.90283 7.96351 11.0459 8.91604 12.8557 9.58281C15.4275 8.53503 19.5234 7.96351 24.0002 7.96351C28.4771 7.96351 32.573 8.63028 35.1448 9.58281Z" fill="#3BCAF4"/>
</svg>
