<svg data-slug-id="database23" viewBox="0 0 48 48" xmlns="http://www.w3.org/2000/svg">
<path d="M6.18774 6.90259V41.0983C6.18774 44.6227 14.0937 47.5755 23.9048 47.5755V6.90259H6.18774Z" fill="#0072C5"/>
<path d="M23.7144 47.5755H24.0001C33.8112 47.5755 41.7171 44.7179 41.7171 41.0983V6.90259H23.7144V47.5755Z" fill="#0072C5"/>
<path d="M23.5234 47.577H23.8092C33.7155 47.577 41.812 44.7194 41.812 41.0998V6.80884H23.6187L23.5234 47.577Z" fill="#3A93CE"/>
<path d="M41.7153 6.90322C41.7153 10.4276 33.8093 13.3804 23.9983 13.3804C14.1872 13.3804 6.28125 10.5228 6.28125 6.90322C6.28125 3.28361 14.1872 0.426025 23.9983 0.426025C33.8093 0.426025 41.7153 3.37886 41.7153 6.90322Z" fill="white"/>
<path d="M38.0978 6.52099C38.0978 8.90231 31.8111 10.8074 24.0004 10.8074C16.1896 10.8074 9.90295 8.90231 9.90295 6.52099C9.90295 4.13967 16.1896 2.23462 24.0004 2.23462C31.8111 2.23462 38.0978 4.13967 38.0978 6.52099Z" fill="#3BCAF4"/>
<path d="M35.1449 9.09282C36.9547 8.3308 38.0978 7.47352 38.0978 6.52099C38.0978 4.13968 31.8111 2.23462 24.0004 2.23462C16.1896 2.23462 9.90295 4.13968 9.90295 6.52099C9.90295 7.47352 11.046 8.42605 12.8558 9.09282C15.4276 8.04504 19.5235 7.47352 24.0004 7.47352C28.4772 7.47352 32.5731 8.14029 35.1449 9.09282Z" fill="#50E6FF"/>
</svg>
