<svg data-slug-id="database04" viewBox="0 0 48 49" xmlns="http://www.w3.org/2000/svg">
<path d="M25.6843 39.1957C25.1615 39.2125 24.6303 39.2209 24.099 39.2209H23.9725C13.5838 39.2209 5.11768 36.3312 5.11768 32.6157V41.8832C5.11768 45.5902 13.5838 48.4884 23.9725 48.4884H24.099C27.1178 48.4884 29.9511 48.2441 32.464 47.7976C28.9224 46.3148 26.3083 43.088 25.6843 39.1957Z" fill="#0078D4"/>
<path d="M23.973 35.8476H24.0995C24.6223 35.8476 25.1451 35.8392 25.6595 35.8223C26.4269 30.3461 31.1321 26.1251 36.8324 26.1251C39.0923 26.1251 41.192 26.7907 42.9628 27.9281V7.11833L42.7942 6.94141L5.11816 6.99196V29.2424C5.11816 32.9494 13.5759 35.8476 23.973 35.8476Z" fill="#0078D4"/>
<path d="M23.9734 39.2159H24.0999C24.6396 39.2159 25.1624 39.2075 25.6852 39.1907C25.5924 38.6093 25.5418 38.0027 25.5418 37.3961C25.5418 36.8654 25.584 36.3346 25.6515 35.8207C25.1371 35.8375 24.6227 35.8459 24.0915 35.8459H23.965C13.5762 35.8459 5.11011 32.9562 5.11011 29.2407V32.6107C5.11854 36.3177 13.5762 39.2159 23.9734 39.2159Z" fill="#50E6FF"/>
<path d="M24.0915 23.2105H23.965C13.5762 23.2105 5.11011 20.3207 5.11011 16.6053V19.9753C5.11011 23.6823 13.5762 26.5805 23.965 26.5805H24.0915C34.6067 26.5805 42.9463 23.5727 42.9463 19.8573V16.4873C42.9463 20.1943 34.6067 23.2105 24.0915 23.2105Z" fill="#50E6FF"/>
<path d="M42.9463 7.09338C42.9463 10.6824 34.4886 13.6986 24.0915 13.6986C13.7027 13.6986 5.11011 10.6909 5.11011 7.09338C5.11854 3.50433 13.5762 0.4966 23.9734 0.4966C34.4802 0.488175 42.9463 3.4959 42.9463 7.09338Z" fill="#50E6FF"/>
<path d="M39.2022 6.74209C39.2022 9.17692 32.4394 11.1399 24.2178 11.1399C15.9962 11.1399 9.10693 9.17692 9.10693 6.74209C9.10693 4.30726 15.8782 2.34424 24.0913 2.34424C32.3129 2.34424 39.2022 4.31569 39.2022 6.74209Z" fill="#0078D4"/>
<path d="M30.6181 39.6317C29.9941 37.9804 30.0447 36.1775 30.7867 34.5683C31.5119 32.9591 32.8358 31.7291 34.4885 31.0972C35.4583 30.7265 36.4617 30.6001 37.482 30.7096L37.1953 32.3272L40.8044 30.3726L38.106 27.2217L37.794 28.9909C36.4701 28.8309 35.1294 28.9994 33.8814 29.4712C31.7902 30.2631 30.129 31.8217 29.2014 33.8522C28.2738 35.891 28.2064 38.1658 28.999 40.2552C29.564 41.7548 30.5422 43.0607 31.8323 44.0043L32.1443 44.2402L33.1815 42.8332L32.8695 42.5973C31.8408 41.8475 31.065 40.8112 30.6181 39.6317Z" fill="#0078D7"/>
<path d="M44.6669 34.3327C44.1694 33.0015 43.3346 31.8304 42.2553 30.9121L41.1169 32.2264C41.9685 32.951 42.6263 33.8777 43.031 34.9477C44.3212 38.3682 42.5925 42.2016 39.169 43.4906C38.5872 43.7097 37.98 43.8445 37.3476 43.8866L37.4403 42.1089L34.0674 44.4427L37.1115 47.5852L37.2295 45.6474C38.0981 45.5969 38.9497 45.4284 39.7677 45.1251C44.1019 43.4906 46.2944 38.6547 44.6669 34.3327Z" fill="#0078D7"/>
</svg>
