<svg data-slug-id="database05" viewBox="0 0 48 49" xmlns="http://www.w3.org/2000/svg">
<path d="M26.5182 35.8663C32.7829 35.8663 37.8614 34.181 37.8614 32.1021C37.8614 30.0232 32.7829 28.3379 26.5182 28.3379C20.2536 28.3379 15.175 30.0232 15.175 32.1021C15.175 34.181 20.2536 35.8663 26.5182 35.8663Z" fill="#0078D4"/>
<path d="M26.5182 33.2726C32.7829 33.2726 37.8614 31.5873 37.8614 29.5084C37.8614 27.4294 32.7829 25.7441 26.5182 25.7441C20.2536 25.7441 15.175 27.4294 15.175 29.5084C15.175 31.5873 20.2536 33.2726 26.5182 33.2726Z" fill="#50E6FF"/>
<path d="M26.5182 30.6476C32.7829 30.6476 37.8614 28.9623 37.8614 26.8833C37.8614 24.8044 32.7829 23.1191 26.5182 23.1191C20.2536 23.1191 15.175 24.8044 15.175 26.8833C15.175 28.9623 20.2536 30.6476 26.5182 30.6476Z" fill="#0078D4"/>
<path d="M26.5182 27.9679C32.7829 27.9679 37.8614 26.2826 37.8614 24.2037C37.8614 22.1247 32.7829 20.4395 26.5182 20.4395C20.2536 20.4395 15.175 22.1247 15.175 24.2037C15.175 26.2826 20.2536 27.9679 26.5182 27.9679Z" fill="#50E6FF"/>
<path d="M26.5182 25.4991C32.7829 25.4991 37.8614 23.8138 37.8614 21.7349C37.8614 19.656 32.7829 17.9707 26.5182 17.9707C20.2536 17.9707 15.175 19.656 15.175 21.7349C15.175 23.8138 20.2536 25.4991 26.5182 25.4991Z" fill="#0078D4"/>
<path d="M26.5182 22.8976C32.7829 22.8976 37.8614 21.2123 37.8614 19.1333C37.8614 17.0544 32.7829 15.3691 26.5182 15.3691C20.2536 15.3691 15.175 17.0544 15.175 19.1333C15.175 21.2123 20.2536 22.8976 26.5182 22.8976Z" fill="#50E6FF"/>
<path d="M26.5182 20.6437C32.7829 20.6437 37.8614 18.9584 37.8614 16.8794C37.8614 14.8005 32.7829 13.1152 26.5182 13.1152C20.2536 13.1152 15.175 14.8005 15.175 16.8794C15.175 18.9584 20.2536 20.6437 26.5182 20.6437Z" fill="#0078D4"/>
<path d="M24.0001 0.490234C14.8549 0.490234 6.91381 5.60181 2.86328 13.1218H5.34749C9.18749 6.8397 16.1012 2.64602 24.0001 2.64602C36.0591 2.64602 45.8443 12.4229 45.8443 24.4902C45.8443 36.5576 36.0591 46.3344 24.0001 46.3344C16.1012 46.3344 9.18749 42.1407 5.34749 35.8586H2.86328C6.91381 43.3786 14.8633 48.4902 24.0001 48.4902C37.2548 48.4902 48.0001 37.745 48.0001 24.4902C48.0001 11.2355 37.2548 0.490234 24.0001 0.490234Z" fill="#0078D4"/>
<path d="M5.05263 16.9121C2.27368 16.9121 0 19.1858 0 21.9647V32.07H10.1053V21.9647C10.1053 19.1858 7.83158 16.9121 5.05263 16.9121ZM3.26737 20.1795C3.74737 19.6995 4.37895 19.4384 5.05263 19.4384C5.71789 19.4384 6.35789 19.6995 6.83789 20.1795C7.31789 20.6595 7.57894 21.2911 7.57894 21.9647H2.52631C2.52631 21.2995 2.78737 20.6595 3.26737 20.1795ZM5.05263 28.2805C4.35368 28.2805 3.78947 27.7163 3.78947 27.0174C3.78947 26.3184 4.35368 25.7542 5.05263 25.7542C5.75158 25.7542 6.31579 26.3184 6.31579 27.0174C6.31579 27.7163 5.75158 28.2805 5.05263 28.2805Z" fill="#0078D4"/>
</svg>
