<svg data-slug-id="delta-lake" viewBox="0 0 49 48" xmlns="http://www.w3.org/2000/svg">
<path d="M0.500488 44.8476C4.6462 37.2048 12.2044 33.6796 19.2549 35.2307C21.5957 35.7383 23.7954 36.9228 26.0516 37.7971C28.3078 38.6713 30.5357 39.7994 32.8765 40.3353C34.5404 40.7301 36.4018 40.4481 38.1503 40.2225C39.7578 40.0251 39.9552 39.4046 39.1374 37.9945C37.4171 35.0333 35.6685 32.0721 33.9482 29.1108C31.2972 24.5703 28.6462 20.0297 25.9952 15.4892C25.1209 13.9945 24.8671 14.0227 23.9929 15.5174C21.8777 19.1273 19.7625 22.7372 17.6474 26.347C17.45 26.6854 17.3089 27.0803 17.1679 27.3623C19.3395 28.3212 21.4265 29.1108 23.4288 30.1261C24.5851 30.7184 25.6004 31.5926 26.6156 32.4387C27.0669 32.8053 27.2643 33.454 27.6027 33.9616C27.0105 33.9052 26.39 33.9616 25.7978 33.8206C23.4852 33.2847 21.2008 32.4387 18.8601 32.1849C14.6862 31.7336 10.6533 32.8617 6.73316 34.1872C6.31012 34.3282 5.80249 34.2154 5.32305 34.2154C5.43586 33.7924 5.43586 33.3129 5.63327 32.9463C11.5275 22.6807 17.5346 12.4152 23.5416 2.17781C24.4723 0.570289 25.4876 0.626693 26.4182 2.23421C33.4688 14.2765 40.4911 26.2906 47.5416 38.3329C49.0927 41.0121 48.8389 42.6478 46.1879 44.2554C40.1809 47.9498 33.9482 48.4293 27.5745 45.186C26.0234 44.3964 24.4159 43.7477 22.8648 42.9299C17.9012 40.3071 12.7684 40.3071 7.57922 42.0556C5.66148 42.6761 3.82834 43.5503 1.967 44.2836C1.60037 44.4246 1.23374 44.5656 0.500488 44.8476Z" fill="#0078D4"/>
</svg>
