<svg data-slug-id="deploy10" viewBox="0 0 48 49" xmlns="http://www.w3.org/2000/svg">
<path d="M45.1193 13.2534V36.5541L24.8105 48.2795V24.9788L45.1193 13.2534Z" fill="#0078D4"/>
<path d="M23.9291 0.306641L3.75 11.957L3.77388 11.9706L24.0588 23.6824L27.6034 21.6355L44.2107 12.0491L44.2141 12.0457L44.238 12.032L23.9291 0.306641Z" fill="#0078D4"/>
<path d="M23.3088 24.9788V48.2795L3 36.5541V13.2568L23.3088 24.9788Z" fill="#0078D4"/>
<path d="M45.1184 13.2534V13.2568L24.8096 24.9788L45.1184 13.2534Z" fill="#0078D4"/>
<path d="M44.2108 12.0459L27.6035 21.6357L44.2108 12.0459Z" fill="#0078D4"/>
<path d="M23.9398 0.28612L23.9262 0.279297L3.72656 11.9399L3.75045 11.9535L3.77433 11.9672L23.9262 0.333881L44.2111 12.0456L44.235 12.032L44.2589 12.0183L23.9398 0.28612Z" fill="#0078D4"/>
<path d="M39.0025 23.7568V40.0366L24.8105 48.2277V31.9514L39.0025 23.7568Z" fill="#50E6FF"/>
<path d="M38.155 22.5119L24.0587 30.6517L9.87012 22.4573L23.9666 14.3208L38.155 22.5119Z" fill="#50E6FF"/>
<path d="M23.3087 31.9518V48.2282L9.12012 40.0371V23.7607L23.3087 31.9518Z" fill="#50E6FF"/>
<path d="M39.0015 23.7573V23.7608L24.8096 31.9518L39.0015 23.7573Z" fill="#6B6B6B"/>
<path d="M38.155 22.5117L24.0586 30.6516L38.155 22.5117Z" fill="#6B6B6B"/>
<path d="M24.2169 5.03174L18.0762 8.57632L18.083 8.57972L22.2075 8.58997V11.1656H26.3014V8.59677L30.3884 8.60362H30.3918L30.3986 8.60017L24.2169 5.03174Z" fill="#50E6FF"/>
</svg>
