<svg data-slug-id="deploy11" viewBox="0 0 49 49" xmlns="http://www.w3.org/2000/svg">
<path d="M47.0381 3.88805H21.0051L17.863 1.16602H8.69531V5.19657H10.2946C10.6823 5.19657 11.0539 5.33388 11.3527 5.59235L13.9778 7.86206L14.0425 7.91861H39.4697C40.3582 7.91861 41.0851 8.64556 41.0851 9.53406V9.93792H47.03V3.88805H47.0381Z" fill="#0078D4"/>
<path d="M39.4697 13.5H1.03809V39.533H39.4697V13.5Z" fill="#50E6FF"/>
<path d="M47.038 7.8623H13.9858L14.0505 7.91885H39.4777C40.3662 7.91885 41.0931 8.6458 41.0931 9.5343V13.5002V15.5842V33.9034H47.038V7.8623Z" fill="#50E6FF"/>
<path d="M13.4448 9.52597L10.3027 6.81201H1.03809V13.5V15.5758H39.4697V13.5V9.52597H13.4448Z" fill="#0078D4"/>
<path d="M23.8078 21.5288L14.0908 31.0842H19.4784V47.0449H28.0322V31.0842H33.5328L23.8078 21.5288Z" fill="#0078D4"/>
<path d="M14.1473 21.1411H10.6902V17.6841H8.96169V21.1411H5.5127V22.8697H8.96976V26.3268H10.6983V22.8697H14.1554V21.1411H14.1473Z" fill="#0078D4"/>
</svg>
