<svg data-slug-id="deploy05" viewBox="0 0 48 49" xmlns="http://www.w3.org/2000/svg">
<path d="M30.3331 13.2656H17.8018V17.2509C17.8018 18.9902 20.6099 20.3917 24.0843 20.3917C27.5586 20.3917 30.3668 18.9817 30.3668 17.2509C30.3668 17.2509 30.3584 13.291 30.3331 13.2656Z" fill="#0078D7"/>
<path d="M30.3584 12.5586L30.3668 16.0457C30.3668 17.785 27.5586 19.1866 24.0843 19.1866C20.6099 19.1866 17.8018 17.7765 17.8018 16.0457V12.5586H30.3584Z" fill="#50E6FF"/>
<path d="M30.3331 8.96094H17.8018V12.9462C17.8018 14.6855 20.6099 16.0871 24.0843 16.0871C27.5586 16.0871 30.3668 14.677 30.3668 12.9462C30.3668 12.9462 30.3584 8.98627 30.3331 8.96094Z" fill="#0078D7"/>
<path d="M30.3668 6.49609H17.8018V9.79741C17.8018 11.5367 20.6099 12.9383 24.0843 12.9383C27.5586 12.9383 30.3668 11.5283 30.3668 9.79741C30.3668 9.79741 30.3668 6.52142 30.3668 6.49609Z" fill="#50E6FF"/>
<path d="M24.0843 9.84039C27.554 9.84039 30.3668 8.43416 30.3668 6.69949C30.3668 4.96482 27.554 3.55859 24.0843 3.55859C20.6145 3.55859 17.8018 4.96482 17.8018 6.69949C17.8018 8.43416 20.6145 9.84039 24.0843 9.84039Z" fill="#0078D7"/>
<path d="M10.1114 42.1363V41.0725H9.01514C8.92238 40.3717 8.64409 39.7215 8.23088 39.1812L9.00671 38.4044L8.25618 37.6529L7.48035 38.4297C6.94064 38.016 6.29974 37.7374 5.59138 37.6445V36.5469H4.52883V37.6445C3.8289 37.7374 3.17956 38.016 2.63986 38.4297L1.86403 37.6529L1.1135 38.4044L1.88933 39.1812C1.47612 39.7215 1.19783 40.3632 1.10507 41.0725H0.00878906V42.1363H1.10507C1.19783 42.8371 1.47612 43.4872 1.88933 44.0276L1.1135 44.8044L1.86403 45.5558L2.63986 44.7791C3.17956 45.1928 3.82047 45.4714 4.52883 45.5643V46.6619H5.59138V45.5643C6.29131 45.4714 6.94064 45.1928 7.48035 44.7791L8.25618 45.5558L9.00671 44.8044L8.23088 44.0276C8.64409 43.4872 8.92238 42.8456 9.01514 42.1363H10.1114ZM5.0601 43.521C4.00599 43.521 3.14583 42.6598 3.14583 41.6044C3.14583 40.549 4.00599 39.6878 5.0601 39.6878C6.11422 39.6878 6.97437 40.549 6.97437 41.6044C6.97437 42.6598 6.11422 43.521 5.0601 43.521Z" fill="#0078D4"/>
<path d="M20.3994 46.7108L12.3291 46.7446V39.1541L13.8723 38.3351L14.8758 36.6211H20.3994V46.7108Z" fill="#0078D4"/>
<path d="M14.8668 36.6133V39.1632H12.3201L14.8668 36.6133Z" fill="#50E6FF"/>
<path d="M35.4685 38.7227H25.3574V46.7691H35.4685V38.7227Z" fill="#0078D4"/>
<path d="M34.3975 37.7201V36.6562H32.8037V37.7201H28.0138V36.6562H26.42V37.7201H25.3574V38.784H35.4685V37.7201H34.3975Z" fill="#50E6FF"/>
<path d="M47.9919 45.6992H37.8809V46.7631H47.9919V45.6992Z" fill="#50E6FF"/>
<path d="M43.6822 44.582H42.2148V46.1271H43.6822V44.582Z" fill="#50E6FF"/>
<path d="M28.545 40.3789H26.4199V42.5066H28.545V40.3789Z" fill="#50E6FF"/>
<path d="M34.3976 40.3789H32.2725V42.5066H34.3976V40.3789Z" fill="#50E6FF"/>
<path d="M31.48 40.3789H29.3464V42.5066H31.4715V40.3789H31.48Z" fill="#50E6FF"/>
<path d="M28.545 43.5781H26.4199V45.7058H28.545V43.5781Z" fill="#50E6FF"/>
<path d="M34.3976 43.5781H32.2725V45.7058H34.3976V43.5781Z" fill="#50E6FF"/>
<path d="M31.48 43.5781H29.3464V45.7058H31.4715V43.5781H31.48Z" fill="#50E6FF"/>
<path d="M47.9919 36.6133H37.8809V44.6597H47.9919V36.6133Z" fill="#0078D4"/>
<path d="M46.9374 37.6602H38.9346V43.6042H46.9374V37.6602Z" fill="#0078D4"/>
<path d="M37.8721 36.5977V44.6694H48V36.5977H37.8721ZM46.9374 43.6056H38.9346V37.6615H46.9374V43.6056Z" fill="#50E6FF"/>
<path d="M24.6998 26.5318V21.3477H23.4348V26.5318H4.7981V34.2659H6.06303V27.7983H42.2993V34.2659H43.5642V26.5318H24.6998Z" fill="#0078D4"/>
</svg>
