<svg data-slug-id="deploy08" viewBox="0 0 49 49" xmlns="http://www.w3.org/2000/svg">
<path d="M48.0821 21.4133V7.69017L36.194 0.828613L24.314 7.69017V21.4133L36.194 28.2828L48.0821 21.4133Z" fill="#0078D4"/>
<path d="M5.62009 16.0123C5.22116 16.0123 4.89404 15.6932 4.89404 15.2862V10.9778C4.89404 7.76247 7.51101 5.14551 10.7264 5.14551H19.04C19.4389 5.14551 19.7661 5.46465 19.7661 5.87156C19.7661 6.27048 19.4389 6.5976 19.04 6.5976H10.7264C8.30886 6.5976 6.33816 8.56831 6.33816 10.9858V15.2942C6.33816 15.6932 6.01902 16.0123 5.62009 16.0123Z" fill="#0078D7"/>
<path d="M18.4656 4.09229L21.4097 5.99118L18.4656 7.89008V4.09229Z" fill="#0078D7"/>
<path d="M43.0316 35.2803C43.4306 35.2803 43.7577 35.5994 43.7577 36.0063V38.1605C43.7577 41.3759 41.1407 43.9929 37.9254 43.9929H32.7234C32.3244 43.9929 31.9973 43.6737 31.9973 43.2668C31.9973 42.8599 32.3244 42.5408 32.7234 42.5408H37.9254C40.3429 42.5408 42.3136 40.5701 42.3136 38.1526V35.9983C42.3136 35.5994 42.6327 35.2803 43.0316 35.2803Z" fill="#0078D7"/>
<path d="M33.2978 45.0458L30.3538 43.1469L33.2978 41.248V45.0458Z" fill="#0078D7"/>
<path d="M26.8352 19.9296L35.851 25.1076V15.1983L26.8352 9.98828V19.9296Z" fill="#50E6FF"/>
<path d="M36.3137 3.58936L27.2021 8.83924L36.2897 14.2248L45.4491 8.79935L36.3137 3.58936Z" fill="#50E6FF"/>
<path d="M36.7046 15.2859V25.2032L45.8001 19.9374V9.99609L36.7046 15.2859Z" fill="#50E6FF"/>
<path d="M25.4151 40.2507V26.5276L13.527 19.666L1.64697 26.5276V40.2507L13.527 47.1122L25.4151 40.2507Z" fill="#50E6FF"/>
<path d="M4.16797 38.767L13.1837 43.945V34.0357L4.16797 28.8257V38.767Z" fill="#0078D7"/>
<path d="M13.6467 22.4189L4.53516 27.6688L13.6227 33.0544L22.7821 27.6289L13.6467 22.4189Z" fill="#0078D7"/>
<path d="M14.0376 34.1153V44.0326L23.1331 38.7668V28.8335L14.0376 34.1153Z" fill="#0078D7"/>
</svg>
