<svg data-slug-id="deploy09" viewBox="0 0 49 49" xmlns="http://www.w3.org/2000/svg">
<path d="M36.4835 22.9939C42.6184 22.9939 47.5974 18.0149 47.5974 11.88C47.5974 5.74513 42.6184 0.766113 36.4835 0.766113C30.3486 0.766113 25.3696 5.74513 25.3696 11.88C25.3696 18.0149 30.3486 22.9939 36.4835 22.9939Z" fill="#0078D4"/>
<path d="M16.3899 35.4416H31.7715C33.6386 35.4416 35.1501 33.9301 35.1501 32.063V16.6814C35.1501 14.8142 33.6386 13.3027 31.7715 13.3027H16.3899C14.5227 13.3027 13.0112 14.8142 13.0112 16.6814V32.063C13.0112 33.9301 14.5227 35.4416 16.3899 35.4416Z" fill="#50E6FF"/>
<path d="M22.7024 25.6611H0.474609V47.8889H22.7024V25.6611Z" fill="#0078D4"/>
</svg>
