<svg data-slug-id="deploy12" viewBox="0 0 48 48" xmlns="http://www.w3.org/2000/svg">
<g clip-path="url(#deploy12_clip0)">
<path d="M35.7953 37.3201H24.012V38.5832H35.7953V37.3201Z" fill="#0078D4"/>
<path d="M35.3577 35.4451L37.8574 37.9378L35.3577 40.4388V35.4451Z" fill="#0078D4"/>
<path d="M24.6434 36.4604H23.3809V12.1404H35.7955V13.4036H24.6434V36.4604Z" fill="#0078D4"/>
<path d="M43.6067 12.8826H42.3442V39.83H43.6067V12.8826Z" fill="#50E6FF"/>
<path d="M36.1339 24.699H25.9497V25.9622H36.1339V24.699Z" fill="#0078D4"/>
<path d="M16.6071 24.699H5.91797V25.9622H16.6071V24.699Z" fill="#0078D4"/>
<path d="M42.967 17.6846C40.1895 17.6846 37.9338 15.4278 37.9338 12.6489C37.9338 9.86991 40.1895 7.61307 42.967 7.61307C45.7445 7.61307 48.0002 9.86991 48.0002 12.6489C48.0002 15.4278 45.7445 17.6846 42.967 17.6846Z" fill="#50E6FF"/>
<path d="M48.0002 20.2967H37.9338V30.3682H48.0002V20.2967Z" fill="#50E6FF"/>
<path d="M42.967 42.8877C40.1895 42.8877 37.9338 40.6309 37.9338 37.852C37.9338 35.073 40.1895 32.8162 42.967 32.8162C45.7445 32.8162 48.0002 35.073 48.0002 37.852C48.0002 40.6309 45.7445 42.8877 42.967 42.8877Z" fill="#50E6FF"/>
<path d="M5.03317 30.3682C2.25567 30.3682 0 28.1114 0 25.3324C0 22.5535 2.25567 20.2967 5.03317 20.2967C7.81067 20.2967 10.0663 22.5535 10.0663 25.3324C10.0663 28.1114 7.81067 30.3682 5.03317 30.3682Z" fill="#50E6FF"/>
<path d="M23.9709 30.3682C21.1934 30.3682 18.9377 28.1114 18.9377 25.3324C18.9377 22.5535 21.1934 20.2967 23.9709 20.2967C26.7484 20.2967 29.0041 22.5535 29.0041 25.3324C29.0041 28.1114 26.7484 30.3682 23.9709 30.3682Z" fill="#50E6FF"/>
<path d="M29.0041 7.58572H18.9377V17.6573H29.0041V7.58572Z" fill="#50E6FF"/>
<path d="M29.0041 32.8436H18.9377V42.9151H29.0041V32.8436Z" fill="#50E6FF"/>
<path d="M35.4768 22.8982L37.9681 25.3909L35.4768 27.8919V22.8982Z" fill="#0078D4"/>
<path d="M35.3577 10.2654L37.8574 12.758L35.3577 15.2591V10.2654Z" fill="#0078D4"/>
<path d="M15.8906 22.8982L18.382 25.3909L15.8906 27.8919V22.8982Z" fill="#0078D4"/>
</g>
<defs>
<clipPath id="deploy12_clip0">
<rect width="48.0001" height="48" fill="white"/>
</clipPath>
</defs>
</svg>
