<svg data-slug-id="deploy02" viewBox="0 0 48 49" xmlns="http://www.w3.org/2000/svg">
<path d="M48 23.6066L42.9574 18.5539V22.3771H30.435V4.72656H9.34009V7.25288H27.9137V22.3771H10.2646V24.9034H27.9137V42.5034H9.34009V45.0297H30.435V24.9034H42.9574V28.6676L48 23.6066Z" fill="#50E6FF"/>
<path d="M14.9111 24.2646V22.6983H13.2975C13.163 21.6625 12.7512 20.7109 12.1461 19.9278L13.289 18.7825L12.1881 17.6793L11.0451 18.8246C10.2551 18.2183 9.30539 17.8141 8.28006 17.6709V16.0625H6.72526V17.6793C5.69153 17.8141 4.74184 18.2267 3.96023 18.833L2.81724 17.6878L1.70787 18.7909L2.85086 19.9278C2.24575 20.7193 1.84234 21.6709 1.69947 22.6983H0.0942383V24.2646H1.70787C1.84234 25.3004 2.24575 26.252 2.85086 27.0351L1.70787 28.1804L2.80884 29.2836L3.95183 28.1383C4.74184 28.7446 5.69153 29.1488 6.71686 29.292V30.9088H8.28006V29.292C9.3138 29.1572 10.2635 28.7446 11.0451 28.1383L12.1881 29.2836L13.289 28.1804L12.1461 27.0351C12.7512 26.2436 13.1546 25.292 13.2975 24.2646H14.9111ZM7.50686 26.3025C5.96047 26.3025 4.69981 25.0393 4.69981 23.4899C4.69981 21.9404 5.96047 20.6772 7.50686 20.6772C9.05326 20.6772 10.3139 21.9404 10.3139 23.4899C10.3139 25.0393 9.05326 26.3025 7.50686 26.3025Z" fill="#0078D4"/>
<path d="M13.9697 0.921875H1.37158V13.545H13.9697V0.921875Z" fill="#0078D4"/>
<path d="M15.356 40.4042L7.67798 32.7109L3.11297e-06 40.4042L7.67798 48.0974L15.356 40.4042Z" fill="#0078D4"/>
</svg>
