<svg data-slug-id="deploy06" viewBox="0 0 48 49" xmlns="http://www.w3.org/2000/svg">
<path d="M24.631 24.9499V17.25H23.3688V24.9499H6.4375V36.5207H7.69977V26.2121H23.3688V34.5852H24.631V26.2121H40.2832V36.5207H41.5455V24.9499H24.631Z" fill="#50E6FF"/>
<path d="M13.9524 42.6033V33.7422H1.31286V42.6033H0.101074V43.8656H15.1642V42.6033H13.9524Z" fill="#0078D4"/>
<path d="M12.8584 34.9297H2.40674V42.6716H12.8584V34.9297Z" fill="#50E6FF"/>
<path d="M46.7376 42.6033V33.7422H34.098V42.6033H32.8862V43.8656H47.9493V42.6033H46.7376Z" fill="#0078D4"/>
<path d="M45.6435 34.9297H35.1919V42.6716H45.6435V34.9297Z" fill="#50E6FF"/>
<path d="M30.3281 42.6033V33.7422H17.6886V42.6033H16.4768V43.8656H31.5399V42.6033H30.3281Z" fill="#0078D4"/>
<path d="M29.2343 34.9297H18.7827V42.6716H29.2343V34.9297Z" fill="#50E6FF"/>
<path d="M30.3196 17.4432V8.58203H17.68V17.4432H16.4683V18.7055H31.5314V17.4432H30.3196Z" fill="#0078D4"/>
<path d="M29.226 9.76562H18.7744V17.5076H29.226V9.76562Z" fill="#50E6FF"/>
<path d="M20.0952 13.3097C20.1288 11.8791 21.1471 11.4583 21.9465 11.4583C22.5356 11.4583 23.0236 11.6856 23.6043 12.2578C23.6716 12.3251 23.8315 12.4934 23.8315 12.4934L23.3098 13.2003C23.3098 13.2003 23.1667 13.0236 23.0994 12.9394C22.6113 12.3504 22.3588 12.182 21.8455 12.182C21.1723 12.1736 20.7936 12.8553 20.8189 13.4359C20.8441 14.025 21.3154 14.4289 21.8371 14.4289C22.2831 14.4289 22.8301 14.1933 23.4528 13.377C23.5454 13.2592 23.6379 13.1161 23.7389 12.9647C23.8063 12.8468 23.8904 12.7374 23.9661 12.6365C24.6309 11.736 25.2537 11.4583 25.9269 11.4415C26.5917 11.4331 27.795 11.9128 27.795 13.2928C27.795 14.6729 26.7431 15.1442 25.9437 15.1442C25.2957 15.1442 24.7824 14.8833 24.1344 14.1764C24.1092 14.1512 24.0755 14.1091 24.0755 14.1091L24.572 13.4696C24.572 13.4696 24.5973 13.5032 24.6225 13.5201C25.2032 14.2438 25.4977 14.3952 26.0531 14.4036C26.7263 14.4121 27.105 13.7304 27.0797 13.1498C27.0545 12.5691 26.5833 12.1568 26.0615 12.1568C25.6155 12.1568 25.0685 12.3924 24.4458 13.2087C24.3532 13.3265 24.2607 13.4696 24.1597 13.621C24.0924 13.7389 24.0082 13.8482 23.9241 13.9408C23.2256 14.8412 22.4093 15.1189 21.9717 15.1358C21.004 15.1863 20.0447 14.6729 20.0952 13.3097Z" fill="#0078D4"/>
<path d="M7.63268 36.3516L5.09131 38.8929H7.00996V41.4007H8.28065V38.8929H10.1741L7.63268 36.3516Z" fill="#0078D4"/>
<path d="M24.0087 36.3516L21.4673 38.8929H23.3859V41.4007H24.6566V38.8929H26.55L24.0087 36.3516Z" fill="#0078D4"/>
<path d="M40.4183 36.3516L37.877 38.8929H39.804V41.4007H41.0747V38.8929H42.9597L40.4183 36.3516Z" fill="#0078D4"/>
</svg>
