<svg data-slug-id="deploy07" viewBox="0 0 48 49" xmlns="http://www.w3.org/2000/svg">
<path d="M39.206 7.85612C39.206 5.56754 37.3547 3.71649 35.0658 3.71649C34.847 3.71649 34.6366 3.73331 34.4346 3.76697C33.8792 2.10102 32.314 0.90625 30.4711 0.90625C28.2748 0.90625 26.4739 2.61427 26.3224 4.76822C26.0279 4.6925 25.7165 4.65043 25.3968 4.65043C23.3603 4.65043 21.7109 6.29955 21.7109 8.33571C21.7109 10.1699 23.0574 11.6928 24.8161 11.9705L25.0349 11.9957C25.1527 12.0042 35.0994 11.9873 35.0994 11.9873C37.3631 11.9789 39.206 10.1279 39.206 7.85612Z" fill="#50E6FF"/>
<path d="M2.33972 41.3416L2.49961 41.3584C2.55851 41.3668 5.62163 41.3584 7.75066 41.3584V40.3908C7.61602 39.3895 5.94982 38.5986 3.91335 38.5986C2.28081 38.5986 0.892314 39.1035 0.336914 39.8186C0.707181 40.618 1.44771 41.1985 2.33972 41.3416Z" fill="#50E6FF"/>
<path d="M9.73645 35.3881C9.57656 35.3881 9.42509 35.3965 9.28203 35.4218C8.88652 34.227 7.75889 33.3604 6.4293 33.3604C4.83883 33.3604 3.5429 34.5888 3.4335 36.1538C3.22312 36.0949 2.99592 36.0696 2.76029 36.0696C1.42228 36.0696 0.319899 37.054 0.134766 38.333C0.319899 38.2067 0.530278 38.089 0.757487 37.9796C1.63266 37.5673 2.76029 37.3401 3.92158 37.3401C5.08287 37.3401 6.2105 37.5673 7.08568 37.9796C8.19648 38.5012 8.8781 39.3006 8.99592 40.2345L9.00433 40.3102V40.3859V41.3535C9.46716 41.3535 9.75328 41.3535 9.75328 41.3535C11.3942 41.3451 12.7238 40.0073 12.7238 38.3666C12.7238 36.7259 11.3858 35.3881 9.73645 35.3881Z" fill="#50E6FF"/>
<path d="M7.73444 44.5244H0.0766602V46.956C0.0766602 48.0162 1.79335 48.8744 3.91397 48.8744C6.03458 48.8744 7.75127 48.0162 7.75127 46.956C7.75127 46.956 7.75128 44.5412 7.73444 44.5244Z" fill="#0078D7"/>
<path d="M7.75127 44.0947L7.75969 46.2234C7.75969 47.2836 6.043 48.1418 3.92238 48.1418C1.80177 48.1418 0.0766602 47.2752 0.0766602 46.2234V44.0947H7.75127Z" fill="#50E6FF"/>
<path d="M7.73444 41.8994H0.0766602V44.331C0.0766602 45.3912 1.79335 46.2494 3.91397 46.2494C6.03458 46.2494 7.75127 45.3912 7.75127 44.331C7.75127 44.331 7.75128 41.9162 7.73444 41.8994Z" fill="#0078D7"/>
<path d="M7.75127 40.3916H0.0766602V42.4025C0.0766602 43.4627 1.79335 44.3209 3.91397 44.3209C6.03458 44.3209 7.75127 43.4627 7.75127 42.4025C7.75127 42.4109 7.75127 40.4084 7.75127 40.3916Z" fill="#50E6FF"/>
<path d="M3.91397 42.4354C6.03325 42.4354 7.75127 41.5765 7.75127 40.517C7.75127 39.4575 6.03325 38.5986 3.91397 38.5986C1.79468 38.5986 0.0766602 39.4575 0.0766602 40.517C0.0766602 41.5765 1.79468 42.4354 3.91397 42.4354Z" fill="#0078D7"/>
<path d="M37.5735 41.3416L37.7334 41.3584C37.7923 41.3668 40.8554 41.3584 42.9844 41.3584V40.3908C42.8582 39.3895 41.192 38.5986 39.1555 38.5986C37.523 38.5986 36.1345 39.1035 35.5791 39.8186C35.9325 40.618 36.6815 41.1985 37.5735 41.3416Z" fill="#50E6FF"/>
<path d="M44.962 35.3881C44.8021 35.3881 44.6507 35.3965 44.5076 35.4218C44.1121 34.227 42.9845 33.3604 41.6549 33.3604C40.0644 33.3604 38.7685 34.5888 38.6591 36.1538C38.4487 36.0949 38.2215 36.0696 37.9859 36.0696C36.6479 36.0696 35.5455 37.054 35.3604 38.333C35.5455 38.2067 35.7559 38.089 35.9831 37.9796C36.8582 37.5673 37.9859 37.3401 39.1472 37.3401C40.3085 37.3401 41.4361 37.5673 42.3113 37.9796C43.4221 38.5012 44.1037 39.3006 44.2215 40.2345L44.2299 40.3102V40.3859V41.3535C44.6927 41.3535 44.9789 41.3535 44.9789 41.3535C46.6198 41.3451 47.9494 40.0073 47.9494 38.3666C47.9578 36.7259 46.6114 35.3881 44.962 35.3881Z" fill="#50E6FF"/>
<path d="M42.9678 44.5244H35.3101V46.956C35.3101 48.0162 37.0267 48.8744 39.1474 48.8744C41.268 48.8744 42.9847 48.0162 42.9847 46.956C42.9847 46.956 42.9763 44.5412 42.9678 44.5244Z" fill="#0078D7"/>
<path d="M42.9763 44.0947L42.9847 46.2234C42.9847 47.2836 41.268 48.1418 39.1474 48.1418C37.0267 48.1418 35.3101 47.2836 35.3101 46.2234V44.0947H42.9763Z" fill="#50E6FF"/>
<path d="M42.9678 41.8994H35.3101V44.331C35.3101 45.3912 37.0267 46.2494 39.1474 46.2494C41.268 46.2494 42.9847 45.3912 42.9847 44.331C42.9847 44.331 42.9763 41.9162 42.9678 41.8994Z" fill="#0078D7"/>
<path d="M42.9847 40.3916H35.3101V42.4025C35.3101 43.4627 37.0267 44.3209 39.1474 44.3209C41.268 44.3209 42.9847 43.4627 42.9847 42.4025C42.9847 42.4109 42.9847 40.4084 42.9847 40.3916Z" fill="#50E6FF"/>
<path d="M39.1474 42.4354C41.2667 42.4354 42.9847 41.5765 42.9847 40.517C42.9847 39.4575 41.2667 38.5986 39.1474 38.5986C37.0281 38.5986 35.3101 39.4575 35.3101 40.517C35.3101 41.5765 37.0281 42.4354 39.1474 42.4354Z" fill="#0078D7"/>
<path d="M19.9524 41.3416L20.1123 41.3584C20.1712 41.3668 23.2343 41.3584 25.3633 41.3584V40.3908C25.2371 39.3895 23.5709 38.5986 21.5344 38.5986C19.9019 38.5986 18.5134 39.1035 17.958 39.8186C18.3199 40.618 19.0604 41.1985 19.9524 41.3416Z" fill="#50E6FF"/>
<path d="M27.3492 35.3881C27.1894 35.3881 27.0379 35.3965 26.8948 35.4218C26.4993 34.227 25.3717 33.3604 24.0421 33.3604C22.4516 33.3604 21.1557 34.5888 21.0463 36.1538C20.8359 36.0949 20.6087 36.0696 20.3731 36.0696C19.0351 36.0696 17.9327 37.054 17.7476 38.333C17.9327 38.2067 18.1431 38.089 18.3703 37.9796C19.2455 37.5673 20.3731 37.3401 21.5344 37.3401C22.6957 37.3401 23.8233 37.5673 24.6985 37.9796C25.8093 38.5012 26.4909 39.3006 26.6087 40.2345L26.6171 40.3102V40.3944V41.362C27.08 41.362 27.3661 41.362 27.3661 41.362C29.007 41.3535 30.3366 40.0157 30.3366 38.375C30.3366 36.7259 28.9986 35.3881 27.3492 35.3881Z" fill="#50E6FF"/>
<path d="M25.3463 44.5244H17.6885V46.956C17.6885 48.0162 19.4052 48.8744 21.5258 48.8744C23.6464 48.8744 25.3631 48.0162 25.3631 46.956C25.3715 46.956 25.3631 44.5412 25.3463 44.5244Z" fill="#0078D7"/>
<path d="M25.3635 44.0947L25.3719 46.2234C25.3719 47.2836 23.6552 48.1418 21.5346 48.1418C19.414 48.1418 17.6973 47.2836 17.6973 46.2234V44.0947H25.3635Z" fill="#50E6FF"/>
<path d="M25.3463 41.8994H17.6885V44.331C17.6885 45.3912 19.4052 46.2494 21.5258 46.2494C23.6464 46.2494 25.3631 45.3912 25.3631 44.331C25.3715 44.331 25.3631 41.9162 25.3463 41.8994Z" fill="#0078D7"/>
<path d="M25.3719 40.3916H17.6973V42.4025C17.6973 43.4627 19.414 44.3209 21.5346 44.3209C23.6552 44.3209 25.3719 43.4627 25.3719 42.4025C25.3719 42.4109 25.3719 40.4084 25.3719 40.3916Z" fill="#50E6FF"/>
<path d="M21.5346 42.4354C23.6539 42.4354 25.3719 41.5765 25.3719 40.517C25.3719 39.4575 23.6539 38.5986 21.5346 38.5986C19.4153 38.5986 17.6973 39.4575 17.6973 40.517C17.6973 41.5765 19.4153 42.4354 21.5346 42.4354Z" fill="#0078D7"/>
<path d="M24.573 26.0224V21.1255H23.3107V26.0224H0.0512695V31.2221H1.31354V27.2844H23.3107V31.2221H24.573V27.2844H46.7048V31.2221H47.9671V26.0224H24.573Z" fill="#0078D4"/>
<path d="M30.4123 5.80469H17.7139V15.9013H30.4123V5.80469Z" fill="#0078D4"/>
<path d="M29.0828 7.125H19.0352V14.5797H29.0828V7.125Z" fill="#50E6FF"/>
<path d="M30.421 15.9155V5.78516H17.6973V15.9155H23.1587V17.2028H17.7141V18.5406H30.4126V17.2028H25.0016V15.9155H30.421ZM19.0353 7.12296H29.083V14.5777H19.0353V7.12296Z" fill="#0078D4"/>
</svg>
