<svg data-slug-id="deploy03" viewBox="0 0 48 49" xmlns="http://www.w3.org/2000/svg">
<path d="M24.61 24.2756V7.19531H23.3484V24.2756H4.54199V44.4117H5.8036V25.5384H23.3484V44.9505H24.61V25.5384H42.3313V44.4117H43.5929V24.2756H24.61Z" fill="#50E6FF"/>
<path d="M29.0256 5.93125C29.0256 8.7008 26.7799 10.9484 24.0128 10.9484C21.2457 10.9484 19 8.7008 19 5.93125C19 3.1617 21.2457 0.914062 24.0128 0.914062C26.7799 0.914062 29.0256 3.1617 29.0256 5.93125Z" fill="#0078D4"/>
<path d="M29.0256 43.7555C29.0256 46.525 26.7799 48.7727 24.0128 48.7727C21.2457 48.7727 19 46.5334 19 43.7555C19 40.9859 21.2457 38.7383 24.0128 38.7383C26.7799 38.7383 29.0256 40.9859 29.0256 43.7555Z" fill="#0078D4"/>
<path d="M48.0001 43.7555C48.0001 46.525 45.7544 48.7727 42.9873 48.7727C40.2202 48.7727 37.9829 46.5334 37.9829 43.7555C37.9829 40.9859 40.2286 38.7383 42.9957 38.7383C45.7628 38.7383 48.0001 40.9859 48.0001 43.7555Z" fill="#50E6FF"/>
<path d="M10.1265 43.7555C10.1265 46.525 7.88088 48.7727 5.11375 48.7727C2.34663 48.7727 0.109375 46.5334 0.109375 43.7555C0.109375 40.9859 2.35504 38.7383 5.12216 38.7383C7.88929 38.7383 10.1265 40.9859 10.1265 43.7555Z" fill="#0078D4"/>
</svg>
