<svg data-slug-id="deploy01" viewBox="0 0 48 49" xmlns="http://www.w3.org/2000/svg">
<path d="M2.61719 33.4957L2.61719 48.9062L6.28035 48.9062L6.28034 33.4957L2.61719 33.4957Z" fill="#50E6FF"/>
<path d="M6.3916 33.4957L6.3916 48.9062L10.1221 48.9062L10.1221 33.4957L6.3916 33.4957Z" fill="#0078D4"/>
<path d="M5.12842 3.46667L5.12842 21.1172L7.63789 21.1172L7.63789 3.46667L5.12842 3.46667Z" fill="#0078D4"/>
<path d="M0.068359 23.6435L0.0683594 31.1719L12.5736 31.1719L12.5736 23.6435L0.068359 23.6435Z" fill="#0078D4"/>
<path d="M6.37278 0.940332L9.9012 4.46875L2.83594 4.46875L6.37278 0.940332Z" fill="#0078D4"/>
<path d="M20.4209 33.4957L20.4209 48.9062L24.0335 48.9062L24.0335 33.4957L20.4209 33.4957Z" fill="#50E6FF"/>
<path d="M24.042 33.4957L24.042 48.9062L27.9157 48.9062L27.9157 33.4957L24.042 33.4957Z" fill="#0078D4"/>
<path d="M22.9219 3.46667L22.9219 21.1172L25.4313 21.1172L25.4313 3.46667L22.9219 3.46667Z" fill="#50E6FF"/>
<path d="M17.7769 23.6513L17.7769 31.1797L30.2821 31.1797L30.2821 23.6513L17.7769 23.6513Z" fill="#50E6FF"/>
<path d="M24.0842 0.940332L27.6126 4.46875L20.5474 4.46875L24.0842 0.940332Z" fill="#50E6FF"/>
<path d="M37.9956 33.4957L37.9956 48.9062L41.8609 48.9062L41.8609 33.4957L37.9956 33.4957Z" fill="#50E6FF"/>
<path d="M41.8086 33.4957L41.8086 48.9062L45.497 48.9062L45.497 33.4957L41.8086 33.4957Z" fill="#0078D4"/>
<path d="M40.5039 3.46667L40.5039 21.1172L43.0134 21.1172L43.0134 3.46667L40.5039 3.46667Z" fill="#0078D4"/>
<path d="M40.5039 7.67576L40.5039 16.7031L43.0134 16.7031L43.0134 7.67576L40.5039 7.67576Z" fill="#50E6FF"/>
<path d="M35.4453 23.6513L35.4453 31.1797L47.9506 31.1797L47.9506 23.6513L35.4453 23.6513Z" fill="#0078D4"/>
<path d="M35.4453 23.6522L35.4453 27.4922L47.9506 27.4922L47.9506 23.6522L35.4453 23.6522Z" fill="#50E6FF"/>
<path d="M41.7517 0.940332L45.2801 4.46875L38.2148 4.46875L41.7517 0.940332Z" fill="#0078D4"/>
</svg>
