<svg data-slug-id="deploy04" viewBox="0 0 48 49" xmlns="http://www.w3.org/2000/svg">
<path d="M35.7953 38.2266H24.012V39.4897H35.7953V38.2266Z" fill="#50E6FF"/>
<path d="M35.3577 36.3516L37.8574 38.8442L35.3577 41.3452V36.3516Z" fill="#50E6FF"/>
<path d="M24.6434 37.3669H23.3809V13.0469H35.7955V14.31H24.6434V37.3669Z" fill="#50E6FF"/>
<path d="M43.6067 13.7891H42.3442V40.7364H43.6067V13.7891Z" fill="#50E6FF"/>
<path d="M36.1339 25.6055H25.9497V26.8686H36.1339V25.6055Z" fill="#50E6FF"/>
<path d="M16.6071 25.6055H5.91797V26.8686H16.6071V25.6055Z" fill="#50E6FF"/>
<path d="M42.967 18.5911C40.1895 18.5911 37.9338 16.3343 37.9338 13.5553C37.9338 10.7764 40.1895 8.51953 42.967 8.51953C45.7445 8.51953 48.0002 10.7764 48.0002 13.5553C48.0002 16.3343 45.7445 18.5911 42.967 18.5911Z" fill="#0078D4"/>
<path d="M48.0002 21.2031H37.9338V31.2747H48.0002V21.2031Z" fill="#0078D4"/>
<path d="M42.967 43.7942C40.1895 43.7942 37.9338 41.5374 37.9338 38.7584C37.9338 35.9795 40.1895 33.7227 42.967 33.7227C45.7445 33.7227 48.0002 35.9795 48.0002 38.7584C48.0002 41.5374 45.7445 43.7942 42.967 43.7942Z" fill="#0078D4"/>
<path d="M5.03317 31.2747C2.25567 31.2747 0 29.0179 0 26.2389C0 23.46 2.25567 21.2031 5.03317 21.2031C7.81067 21.2031 10.0663 23.46 10.0663 26.2389C10.0663 29.0179 7.81067 31.2747 5.03317 31.2747Z" fill="#0078D4"/>
<path d="M23.9709 31.2747C21.1934 31.2747 18.9377 29.0179 18.9377 26.2389C18.9377 23.46 21.1934 21.2031 23.9709 21.2031C26.7484 21.2031 29.0041 23.46 29.0041 26.2389C29.0041 29.0179 26.7484 31.2747 23.9709 31.2747Z" fill="#0078D4"/>
<path d="M29.0041 8.49219H18.9377V18.5638H29.0041V8.49219Z" fill="#0078D4"/>
<path d="M29.0041 33.75H18.9377V43.8216H29.0041V33.75Z" fill="#0078D4"/>
<path d="M35.4768 23.8047L37.9681 26.2973L35.4768 28.7984V23.8047Z" fill="#50E6FF"/>
<path d="M35.3577 11.1719L37.8574 13.6645L35.3577 16.1656V11.1719Z" fill="#50E6FF"/>
<path d="M15.8906 23.8047L18.382 26.2973L15.8906 28.7984V23.8047Z" fill="#50E6FF"/>
</svg>
