<svg data-slug-id="devsecops" viewBox="0 0 48 48" xmlns="http://www.w3.org/2000/svg">
<path d="M41.9896 23.2414V18.7482L41.3157 18.5236L36.3731 16.9509L35.0252 13.8057L37.7211 8.41381L34.3512 5.26856L33.6772 5.49322L29.184 7.73983L26.0387 6.39186L24.2414 1H19.7482L19.2989 1.67398L17.7263 6.61652L14.581 7.73983L9.41381 5.26856L6.26856 8.63847L6.49322 9.31246L8.73983 13.8057L7.61652 16.9509L2 18.7482V23.2414L2.67398 23.4661L7.61652 25.0387L8.96449 28.184L6.26856 33.5758L9.63847 36.7211L10.3125 36.4964L14.8057 34.2498L17.9509 35.5978L19.7482 40.9896H24.2414L24.4661 40.3157L26.0387 35.3731L29.184 34.0252L34.3512 36.4964L37.4964 33.3512L37.2718 32.6772L35.0252 28.184L36.3731 25.0387L41.9896 23.2414ZM21.9948 29.7566C20.8394 29.7742 19.6921 29.5596 18.6212 29.1255C17.5502 28.6914 16.5773 28.0466 15.7601 27.2295C14.943 26.4124 14.2983 25.4395 13.8642 24.3685C13.4301 23.2975 13.2155 22.1503 13.233 20.9948C13.2155 19.8394 13.4301 18.6921 13.8642 17.6212C14.2983 16.5502 14.943 15.5773 15.7601 14.7601C16.5773 13.943 17.5502 13.2983 18.6212 12.8642C19.6921 12.4301 20.8394 12.2155 21.9948 12.233C23.1503 12.2155 24.2975 12.4301 25.3685 12.8642C26.4395 13.2983 27.4124 13.943 28.2295 14.7601C29.0466 15.5773 29.6914 16.5502 30.1255 17.6212C30.5596 18.6921 30.7742 19.8394 30.7566 20.9948C30.7742 22.1503 30.5596 23.2975 30.1255 24.3685C29.6914 25.4395 29.0466 26.4124 28.2295 27.2295C27.4124 28.0466 26.4395 28.6914 25.3685 29.1255C24.2975 29.5596 23.1503 29.7742 21.9948 29.7566Z" fill="url(#devsecops_e57d1fe5-b52e-5897-9y87-e2461ccc36fe)"/>
<path d="M45.0657 31.3036C45.0657 38.7241 36.1075 44.6841 34.1576 45.8935C34.0464 45.9631 33.9178 46 33.7866 46C33.6554 46 33.5268 45.9631 33.4156 45.8935C31.4673 44.6841 22.5074 38.7162 22.5074 31.3036V22.3785C22.5082 22.1937 22.5811 22.0166 22.7106 21.8847C22.84 21.7529 23.0158 21.6769 23.2006 21.6727C30.1695 21.4896 28.5654 18.4314 33.7866 18.4314C39.0078 18.4314 37.4052 21.4896 44.3742 21.6791C44.5586 21.6836 44.734 21.7598 44.8632 21.8916C44.9923 22.0234 45.0649 22.2003 45.0657 22.3848V31.3036Z" fill="#FEA61A"/>
<path d="M44.1312 31.3778C44.1312 38.1762 35.9213 43.6484 34.1278 44.7583C34.0256 44.8218 33.9078 44.8555 33.7875 44.8555C33.6673 44.8555 33.5494 44.8218 33.4473 44.7583C31.6601 43.65 23.4438 38.1778 23.4438 31.3778V23.201C23.4442 23.0322 23.5104 22.8701 23.6283 22.7492C23.7462 22.6284 23.9066 22.5582 24.0754 22.5537C30.4696 22.3785 28.9982 19.5745 33.7867 19.5745C38.5753 19.5745 37.1023 22.38 43.4965 22.5537C43.6653 22.5582 43.8257 22.6284 43.9436 22.7492C44.0615 22.8701 44.1277 23.0322 44.128 23.201L44.1312 31.3778Z" fill="url(#devsecops_e68d5fe5-b52e-8745-9t76-e5461ddd36fe)"/>
<defs>
  <linearGradient id="devsecops_e57d1fe5-b52e-5897-9y87-e2461ccc36fe" x1="21.9948" y1="40.9896" x2="21.9948" y2="1" gradientUnits="userSpaceOnUse">
    <stop stop-color="#0078D4"/>
    <stop offset="0.064" stop-color="#0A7CD7"/>
    <stop offset="0.338" stop-color="#2E8CE1"/>
    <stop offset="0.594" stop-color="#4897E9"/>
    <stop offset="0.822" stop-color="#589EED"/>
    <stop offset="1" stop-color="#5EA0EF"/>
  </linearGradient>
  <linearGradient id="devsecops_e68d5fe5-b52e-8745-9t76-e5461ddd36fe" x1="33.7867" y1="44.8562" x2="33.7867" y2="19.5745" gradientUnits="userSpaceOnUse">
    <stop stop-color="#FEA31B"/>
    <stop offset="1" stop-color="#FFD610"/>
  </linearGradient>
</defs>
</svg>