<svg data-slug-id="dns" viewBox="0 0 48 48" xmlns="http://www.w3.org/2000/svg">
<path d="M24 47.498C36.9787 47.498 47.5 36.9767 47.5 23.998C47.5 11.0194 36.9787 0.498047 24 0.498047C11.0213 0.498047 0.5 11.0194 0.5 23.998C0.5 36.9767 11.0213 47.498 24 47.498Z" fill="#1B77BF"/>
<path d="M24 0.498047C11.0212 0.498047 0.5 11.0192 0.5 23.998C0.5 30.5979 3.23384 36.5627 7.59694 40.8153L40.5135 7.29123C36.2609 3.09382 30.4342 0.498047 24 0.498047Z" fill="#3D96D7"/>
<path d="M13.8401 18.5859H9.03516V29.7146H13.8401C16.353 29.7146 18.3965 27.6711 18.3965 25.1582V23.1423C18.3965 20.6294 16.353 18.5859 13.8401 18.5859ZM15.9664 25.3791C15.9664 26.7599 14.8618 27.8644 13.4811 27.8644H11.5205V20.4361H13.4811C14.8618 20.4361 15.9664 21.5407 15.9664 22.9214V25.3791Z" fill="white"/>
<path d="M29.6616 18.5859H27.3696V25.7933L23.3102 18.5859H20.3555V29.7146H22.5922V22.1758L26.8449 29.7146H29.6616V18.5859Z" fill="white"/>
<path d="M38.0005 18.7522C38.0005 18.7522 36.5369 18.0342 34.4934 18.2551C32.3947 18.476 31.2625 19.6082 31.2349 21.127C31.2073 23.1981 32.229 24.0542 33.5545 24.5512C34.88 25.0207 36.2332 25.4901 36.0675 26.8709C35.9018 28.224 34.7972 28.1964 34.024 28.0583C33.2232 27.8926 31.3178 26.8985 31.3178 26.8985L31.4558 29.5771C31.4558 29.5771 33.3889 30.3503 34.6591 30.3503C36.1779 30.3503 38.4699 29.798 38.7737 27.2575C39.0775 24.7445 37.5863 23.8333 36.4817 23.3086C35.3771 22.7839 33.9688 22.4801 33.9135 21.3203C33.8859 20.5471 34.2173 20.1329 35.239 20.1881C36.1779 20.2434 38.1109 21.0166 38.1109 21.0166L38.0005 18.7522Z" fill="white"/>
<path d="M41.1782 10.7154C40.5983 9.96982 39.9632 9.25184 39.2728 8.56148C35.3515 4.69544 29.9667 2.29297 24.0019 2.29297C18.1476 2.29297 12.818 4.61259 8.92437 8.39579C8.23401 9.05854 7.59887 9.77652 6.99135 10.5221C4.06421 14.2225 2.29688 18.9169 2.29688 23.998C2.29688 29.1896 4.11944 33.9393 7.15704 37.6672C7.76456 38.4128 8.42731 39.1308 9.11767 39.7659C12.7904 43.2454 17.6782 45.4545 23.0906 45.6755C23.3392 45.7031 23.5877 45.7307 23.8086 45.7307C24.0295 45.7307 24.2505 45.7031 24.4438 45.7031C30.16 45.5926 35.2963 43.273 39.1347 39.6003C39.8251 38.9375 40.4602 38.2195 41.0677 37.4739C43.9949 33.7736 45.7622 29.1067 45.7622 23.998C45.707 18.9998 44.0225 14.3882 41.1782 10.7154ZM36.9808 9.80413C35.7381 10.384 34.3574 10.8811 32.9214 11.2677C32.0378 9.00331 30.9332 7.07029 29.6353 5.60672C32.3968 6.43515 34.9097 7.89873 36.9808 9.80413ZM23.781 4.83351C26.3768 4.83351 28.6688 7.56735 30.2152 11.8752C28.3374 12.2066 26.3492 12.3999 24.2781 12.3999C21.8756 12.3999 19.5836 12.1514 17.4297 11.7095C18.9485 7.51212 21.2129 4.83351 23.781 4.83351ZM17.761 5.80002C16.6012 7.18075 15.5795 8.94808 14.751 11.0192C13.4808 10.6326 12.2934 10.1631 11.1888 9.63844C13.0942 7.95396 15.331 6.62846 17.761 5.80002ZM11.4097 38.5509C12.459 38.0538 13.5912 37.6396 14.751 37.2806C15.4966 39.1584 16.4355 40.8153 17.4573 42.1132C15.2205 41.2847 13.177 40.0697 11.4097 38.5509ZM24.9408 43.2178C24.6371 43.2454 24.3057 43.2454 24.0019 43.2454C23.4773 43.2454 22.9802 43.2178 22.4831 43.1901C20.4673 42.4446 18.6999 40.0421 17.4297 36.5903C19.5836 36.1484 21.8756 35.8999 24.2781 35.8999C26.3492 35.8999 28.3374 36.0932 30.2152 36.4246C28.8897 40.0145 27.0395 42.5274 24.9408 43.2178ZM29.9391 42.3065C31.0989 40.8981 32.093 39.1032 32.9214 37.0045C34.2746 37.3911 35.5724 37.8329 36.7875 38.3852C34.8268 40.1249 32.5072 41.478 29.9391 42.3065ZM38.7481 36.3417C37.2017 35.6514 35.4896 35.0991 33.7223 34.6296C33.9984 33.6631 34.2469 32.669 34.4402 31.6196H31.4302C31.2646 32.4481 31.0989 33.2765 30.9056 34.0497C28.7792 33.6907 26.5701 33.4974 24.2505 33.4974C21.5995 33.4974 19.0589 33.746 16.6841 34.2154C16.4632 33.387 16.2698 32.5309 16.1042 31.6196H13.1218C13.3427 32.7518 13.6188 33.8288 13.9226 34.8782C12.321 35.32 10.8022 35.8723 9.39382 36.5074C6.82567 33.4974 5.14118 29.6866 4.8098 25.4892H7.04658V22.5897H4.8098C5.11356 18.4475 6.71521 14.6643 9.22813 11.6819C10.6917 12.3447 12.2657 12.9246 13.9226 13.394C13.6465 14.3053 13.3979 15.2718 13.2046 16.2659H16.187C16.3251 15.4927 16.4908 14.7748 16.6841 14.0568C19.0865 14.5262 21.6271 14.7748 24.2505 14.7748C26.5425 14.7748 28.7792 14.5815 30.9056 14.2225C31.0713 14.8852 31.2369 15.548 31.3474 16.2659H34.3574C34.1641 15.3547 33.9432 14.471 33.6946 13.6426C35.5448 13.1731 37.2845 12.5656 38.8862 11.8752C41.3163 14.8576 42.8627 18.5579 43.1664 22.6173H40.7364V25.5444H43.1388C42.8627 29.6314 41.261 33.3594 38.7481 36.3417Z" fill="#D8EAF0"/>
</svg>
