<svg data-slug-id="documents06" viewBox="0 0 49 49" xmlns="http://www.w3.org/2000/svg">
<rect x="3.34277" y="17.5039" width="30.9051" height="22.4127" fill="white"/>
<path d="M13.1349 31.4656L13.1433 35.7444L18.4729 30.5577L13.1265 25.6484L13.1349 29.6162H2.15625V31.4656H13.1349Z" fill="#0078D4"/>
<path d="M41.5818 12.6617C41.5818 8.18952 37.9587 4.56641 33.4865 4.56641C29.628 4.56641 26.4084 7.26483 25.593 10.8795C24.7944 10.0557 23.668 9.53453 22.4322 9.53453C20.0028 9.53453 18.0273 11.51 18.0273 13.9394C18.0273 13.9731 18.0357 14.0151 18.0357 14.0487C15.3373 14.5783 13.303 16.9573 13.303 19.807C13.303 23.0519 15.9342 25.6746 19.1706 25.6746H43.2546C46.1969 25.6746 48.5758 23.2957 48.5758 20.3534C48.5758 17.4112 46.1969 15.0323 43.2546 15.0323C42.4729 15.0323 41.7331 15.2088 41.0606 15.5114C41.3969 14.6288 41.5818 13.6704 41.5818 12.6617Z" fill="#50E6FF"/>
<path d="M33.3774 16.5703L30.3175 19.1763H32.7637V38.7546H7.36824L4.30835 41.3689H33.3605C34.3693 41.3689 35.3949 40.4694 35.3949 39.4523V18.4954C35.3865 17.4782 34.3777 16.5787 33.3774 16.5703Z" fill="#0078D4"/>
<path d="M4.31689 38.7546V19.1763H30.3176L33.3775 16.5703H33.3691C33.3607 16.5703 33.3607 16.5703 33.3523 16.5703H3.59394C3.15682 16.5703 2.76172 16.7468 2.45069 17.0158C2.03878 17.3773 1.76978 17.9153 1.76978 18.4954V39.4523C1.76978 40.4694 2.58519 41.3689 3.59394 41.3689H4.30007L7.35997 38.7546H4.31689Z" fill="#0078D4"/>
<path d="M0.575928 44.0361H35.9076V41.3125H0.575928V44.0361Z" fill="#50E6FF"/>
<path d="M18.9268 17.9831C18.9268 18.2521 18.7167 18.4622 18.4477 18.4622C18.1871 18.4622 17.9685 18.2437 17.9685 17.9831C17.9685 17.7141 18.1787 17.5039 18.4477 17.5039C18.7083 17.5039 18.9268 17.7225 18.9268 17.9831Z" fill="#0078D4"/>
</svg>
