<svg data-slug-id="documents31" viewBox="0 0 49 48" xmlns="http://www.w3.org/2000/svg">
    <path d="M1.5 39H44.5V5H1.5V39Z" fill="#50E6FF"/>
    <path d="M1.5 9H44.5V4H1.5V9Z" fill="#0078D4"/>
    <path d="M7.5 7C8.05228 7 8.5 6.55228 8.5 6C8.5 5.44772 8.05228 5 7.5 5C6.94772 5 6.5 5.44772 6.5 6C6.5 6.55228 6.94772 7 7.5 7Z" fill="#50E6FF"/>
    <path d="M4.5 7C5.05228 7 5.5 6.55228 5.5 6C5.5 5.44772 5.05228 5 4.5 5C3.94772 5 3.5 5.44772 3.5 6C3.5 6.55228 3.94772 7 4.5 7Z" fill="#50E6FF"/>
    <path d="M11.5 7C12.0523 7 12.5 6.55228 12.5 6C12.5 5.44772 12.0523 5 11.5 5C10.9477 5 10.5 5.44772 10.5 6C10.5 6.55228 10.9477 7 11.5 7Z" fill="#50E6FF"/>
    <path d="M33.2697 16L31.5638 17.5269L37.0881 22.4715L31.5 27.4731L33.2059 29L40.5 22.4715L33.2697 16Z" fill="#0078D4"/>
    <path d="M12.7239 29L14.4363 27.4731L8.91681 22.5285L14.5 17.5269L12.7956 16L5.5 22.5285L12.7239 29Z" fill="#0078D4"/>
    <path d="M29.5 25C30.6046 25 31.5 23.8807 31.5 22.5C31.5 21.1193 30.6046 20 29.5 20C28.3954 20 27.5 21.1193 27.5 22.5C27.5 23.8807 28.3954 25 29.5 25Z" fill="#0078D4"/>
    <path d="M23 25C24.3807 25 25.5 23.8807 25.5 22.5C25.5 21.1193 24.3807 20 23 20C21.6193 20 20.5 21.1193 20.5 22.5C20.5 23.8807 21.6193 25 23 25Z" fill="#0078D4"/>
    <path d="M16.5 25C17.6046 25 18.5 23.8807 18.5 22.5C18.5 21.1193 17.6046 20 16.5 20C15.3954 20 14.5 21.1193 14.5 22.5C14.5 23.8807 15.3954 25 16.5 25Z" fill="#0078D4"/>
    <path d="M4.5 48H47.5V15H4.5V48Z" fill="#0078D4"/>
    <path d="M4.5 18H47.5V14H4.5V18Z" fill="#50E6FF"/>
    <path d="M11.5 17C12.0833 17 12.5 16.5833 12.5 16C12.5 15.4167 12 15 11.5 15C10.9167 15 10.5 15.4167 10.5 16C10.5 16.5833 10.9167 17 11.5 17Z" fill="#0078D4"/>
    <path d="M7.5 17C8.08333 17 8.5 16.5833 8.5 16C8.5 15.4167 8.08333 15 7.5 15C6.91667 15 6.5 15.4167 6.5 16C6.5 16.5833 6.91667 17 7.5 17Z" fill="#0078D4"/>
    <path d="M14.5 17C15.0833 17 15.5 16.5833 15.5 16C15.5 15.4167 15.0833 15 14.5 15C13.9167 15 13.5 15.4167 13.5 16C13.5 16.5833 14 17 14.5 17Z" fill="#0078D4"/>
</svg>
