<svg data-slug-id="documents16" viewBox="0 0 49 49" xmlns="http://www.w3.org/2000/svg">
<path d="M37.8589 0.593095C39.5984 0.938116 40.3883 1.99842 40.3883 3.17654V45.7319C40.4723 47.1878 39.2202 48.408 37.9765 48.5174C41.6152 48.5342 42.9597 46.0938 42.9597 43.6786V5.49913C42.9597 3.17654 41.3379 0.559434 37.8589 0.593095Z" fill="#50E6FF"/>
<path d="M32.7078 0.612305H5.2036C2.35487 0.612305 0.0439453 2.92647 0.0439453 5.7792V8.16069H3.81705C4.50612 8.16069 5.06074 8.71609 5.06074 9.40613C5.06074 10.0962 4.50612 10.6516 3.81705 10.6516H0.0439453V15.7343H3.81705C4.50612 15.7343 5.06074 16.2897 5.06074 16.9798C5.06074 17.6698 4.50612 18.2252 3.81705 18.2252H0.0439453V23.2743H3.81705C4.50612 23.2743 5.06074 23.8297 5.06074 24.5197C5.06074 25.2098 4.50612 25.7652 3.81705 25.7652H0.0439453V30.8648H3.81705C4.50612 30.8648 5.06074 31.4202 5.06074 32.1102C5.06074 32.8002 4.50612 33.3556 3.81705 33.3556H0.0439453V38.4047H3.81705C4.50612 38.4047 5.06074 38.9601 5.06074 39.6502C5.06074 40.3402 4.50612 40.8956 3.81705 40.8956H0.0439453V43.2855C0.0439453 46.1382 2.35487 48.4524 5.2036 48.4524H32.7162C35.5649 48.4524 37.8758 46.1382 37.8758 43.2855V5.7792C37.8674 2.92647 35.5565 0.612305 32.7078 0.612305Z" fill="#0078D4"/>
<path d="M27.4473 19.6979H13.1616C11.5229 19.6979 10.2036 18.3683 10.2036 16.7357V11.0471C10.2036 9.40614 11.5313 8.08496 13.1616 8.08496H27.4557C29.0943 8.08496 30.4137 9.41455 30.4137 11.0471V16.7357C30.4137 18.3767 29.0859 19.6979 27.4473 19.6979Z" fill="#50E6FF"/>
</svg>
