<svg data-slug-id="documents25" viewBox="0 0 48 49" xmlns="http://www.w3.org/2000/svg">
<path d="M36.7279 47.925C40.3673 47.925 43.3176 44.9747 43.3176 41.3353C43.3176 37.6959 40.3673 34.7456 36.7279 34.7456C33.0885 34.7456 30.1382 37.6959 30.1382 41.3353C30.1382 44.9747 33.0885 47.925 36.7279 47.925Z" fill="#0078D7"/>
<path d="M40.0511 1.92383H8V6.70238H40.0511V1.92383Z" fill="#50E6FF"/>
<path d="M40.0511 8.90137H8V18.8627H40.0511V8.90137Z" fill="#0078D7"/>
<path d="M36.7117 33.093C37.9003 33.093 39.0323 33.3436 40.0511 33.8045V20.9404H8V45.6094H29.7016C28.9335 44.3561 28.4888 42.8846 28.4888 41.316C28.4888 36.78 32.1758 33.093 36.7117 33.093Z" fill="#0078D7"/>
<path d="M37.3016 37.1416H36.1211V45.5101H37.3016V37.1416Z" fill="#50E6FF"/>
<path d="M40.8925 40.7949H32.5239V41.9754H40.9005V40.7949H40.8925Z" fill="#50E6FF"/>
</svg>
