<svg data-slug-id="documents23" viewBox="0 0 48 49" xmlns="http://www.w3.org/2000/svg">
<path d="M33.0463 39.4746C31.8864 38.3389 31.1695 36.7602 31.1695 35.0123C31.1695 31.5649 33.9725 28.7538 37.428 28.7538C37.9193 28.7538 38.4026 28.8102 38.8617 28.923V12.419L30.5091 8.75417L28.3907 1.92383H5V47.9078H27.8993C27.8993 45.3706 28.8901 42.9945 30.6782 41.1983C31.387 40.4975 32.1844 39.9176 33.0463 39.4746Z" fill="#0078D4"/>
<path d="M38.8538 12.3868H28.3828V1.92383L38.8538 12.3868Z" fill="#50E6FF"/>
<path d="M29.9131 47.9232C29.9131 43.7831 33.2638 40.4404 37.3959 40.4404C41.5359 40.4404 44.8786 43.7912 44.8786 47.9232H29.9131Z" fill="#0078D4"/>
<path d="M38.9545 38.9703C41.1401 38.1225 42.2247 35.6635 41.377 33.4779C40.5293 31.2923 38.0703 30.2077 35.8847 31.0554C33.699 31.9031 32.6145 34.3621 33.4622 36.5478C34.3099 38.7334 36.7689 39.818 38.9545 38.9703Z" fill="#0078D4"/>
<path d="M18.105 6.72314L13.4816 11.3626L12.0962 9.97722L11.1699 10.9035L13.4816 13.2232L19.0313 7.65748L18.105 6.72314Z" fill="white"/>
<path d="M11.1216 20.3775H28.0444V16.5757H11.1216V20.3775Z" fill="white"/>
<path d="M11.1216 26.0791H28.0444V22.2773H11.1216V26.0791Z" fill="#50E6FF"/>
<path d="M11.1216 31.6045H28.0444V27.8027H11.1216V31.6045Z" fill="#50E6FF"/>
<path d="M11.1216 37.2344H28.0444V33.4326H11.1216V37.2344Z" fill="#50E6FF"/>
<path d="M11.1216 43.0596H20.5213V39.2578H11.1216V43.0596Z" fill="#50E6FF"/>
</svg>
