<svg data-slug-id="documents17" viewBox="0 0 48 49" xmlns="http://www.w3.org/2000/svg">
<path d="M23.4198 34.6787C23.0414 33.0473 23.8907 31.4328 25.438 30.8441C25.9762 30.6423 26.506 30.533 27.0189 30.533C27.5151 30.533 27.9692 30.6255 28.3897 30.8105C28.3728 27.7915 28.3476 24.5119 28.3476 24.1167C28.3476 22.2246 29.9958 21.0978 31.5852 21.0978C31.6693 21.0978 31.7618 21.0978 31.8459 21.1062C32.8466 21.1735 34.5705 21.6528 34.8984 24.1419C34.9657 24.6717 34.9825 26.2527 34.9741 27.9429C35.1423 27.9429 35.3105 27.9597 35.4871 27.985C36.7905 28.17 37.7071 28.9352 38.0603 30.0789C38.0939 30.0789 38.136 30.0789 38.1696 30.0789C38.5396 30.0789 38.9096 30.1461 39.2712 30.2723C39.6076 30.39 40.0365 30.5918 40.4317 30.9198V1.10059H5.14648V43.9037H26.733C26.5144 43.6178 26.0267 42.945 25.9089 42.7684C25.1437 41.5575 23.4366 34.746 23.4198 34.6787Z" fill="#50E6FF"/>
<path d="M31.7029 48.9155H40.9279C40.9867 48.9155 42.6518 41.0696 42.8368 40.3548C43.0218 39.6401 42.8199 36.5286 42.8199 35.4691C42.8199 34.4095 42.5172 33.4677 41.424 33.392C41.3651 33.3836 41.3063 33.3836 41.2558 33.3836C40.4906 33.3836 40.1458 33.7704 40.0449 33.9218C40.0281 33.9386 40.0197 33.947 40.0197 33.947C40.0112 33.947 40.0028 33.9302 40.0028 33.905C40.0028 33.804 40.0028 33.619 39.986 33.4845C39.9692 33.2743 40.1206 32.2567 38.7415 31.769C38.5312 31.6933 38.3462 31.6681 38.1696 31.6681C37.4801 31.6681 37.0176 32.1558 36.8073 32.4502C36.7905 32.4754 36.7653 32.4838 36.7401 32.4838C36.698 32.4838 36.656 32.4502 36.656 32.3997C36.6475 32.0381 36.6391 31.4242 36.6391 31.256C36.6391 31.0122 36.7148 29.7592 35.26 29.5574C35.1255 29.5406 35.0077 29.5321 34.89 29.5321C34.1332 29.5321 33.7211 29.8937 33.5193 30.1544C33.5025 30.1797 33.4773 30.1881 33.4604 30.1881C33.4184 30.1881 33.3764 30.1544 33.3764 30.104C33.3932 29.0024 33.4352 25.1005 33.3343 24.3605C33.2166 23.4943 32.9223 22.7711 31.745 22.6954C31.6861 22.6954 31.6356 22.687 31.5852 22.687C30.5172 22.687 29.9286 23.4102 29.9286 24.125C29.9286 24.7473 29.979 32.8202 29.9958 35.7045C29.9958 35.8139 29.9117 35.8727 29.8276 35.8727C29.7604 35.8727 29.7015 35.8391 29.6679 35.7634C29.4072 35.0402 29.0372 34.0395 28.7176 33.3163C28.3392 32.4502 27.7001 32.1306 27.019 32.1306C26.6826 32.1306 26.3378 32.2063 26.0014 32.3324C25.0764 32.6856 24.7905 33.6022 24.9587 34.3338C25.1101 34.9729 26.7162 41.0949 27.246 41.9274C27.7758 42.7599 30.2313 45.6695 30.7611 46.3506C31.2909 47.0234 31.7029 48.9155 31.7029 48.9155Z" fill="#0078D4"/>
<path d="M28.0699 6.05371L17.6845 16.4391L14.5731 13.3277L12.5044 15.4048L17.6845 20.5849L30.147 8.1308L28.0699 6.05371Z" fill="#0078D4"/>
</svg>
