<svg data-slug-id="documents01" viewBox="0 0 48 49" xmlns="http://www.w3.org/2000/svg">
<path d="M41.6338 47.9849H6.33276V0.0361328H30.7201L32.9264 7.16024L41.6338 10.9833V47.9849Z" fill="#0078D4"/>
<path d="M41.6341 10.9497H30.7205V0.0361328L41.6341 10.9497Z" fill="#50E6FF"/>
<path d="M33.9961 18.1169C33.9961 17.3169 33.3476 16.6685 32.5476 16.6685H15.2592C14.4592 16.6685 13.8108 17.3169 13.8108 18.1169C13.8108 18.9168 14.4592 19.5653 15.2592 19.5653H32.5476C33.3476 19.5653 33.9961 18.9168 33.9961 18.1169Z" fill="white"/>
<path d="M25.28 18.1154C25.28 19.7069 26.5684 20.9953 28.16 20.9953C29.7516 20.9953 31.04 19.7069 31.04 18.1154C31.04 16.5238 29.7516 15.2354 28.16 15.2354C26.5684 15.227 25.28 16.5238 25.28 18.1154Z" fill="#50E6FF"/>
<path d="M33.9961 26.6481C33.9961 25.8481 33.3476 25.1997 32.5476 25.1997H15.2592C14.4592 25.1997 13.8108 25.8481 13.8108 26.6481C13.8108 27.4481 14.4592 28.0965 15.2592 28.0965H32.5476C33.3476 28.0965 33.9961 27.4481 33.9961 26.6481Z" fill="white"/>
<path d="M16.699 26.6383C16.699 28.2298 17.9874 29.5182 19.579 29.5182C21.1706 29.5182 22.459 28.2298 22.459 26.6383C22.459 25.0467 21.1706 23.7583 19.579 23.7583C17.9874 23.7583 16.699 25.0467 16.699 26.6383Z" fill="#50E6FF"/>
<path d="M33.9961 35.3434C33.9961 34.5434 33.3476 33.895 32.5476 33.895H15.2592C14.4592 33.895 13.8108 34.5434 13.8108 35.3434C13.8108 36.1434 14.4592 36.7918 15.2592 36.7918H32.5476C33.3476 36.7834 33.9961 36.135 33.9961 35.3434Z" fill="white"/>
<path d="M22.4255 35.3375C22.4255 36.929 23.714 38.2174 25.3055 38.2174C26.8971 38.2174 28.1855 36.929 28.1855 35.3375C28.1855 33.7459 26.8971 32.4575 25.3055 32.4575C23.7224 32.4575 22.4255 33.7459 22.4255 35.3375Z" fill="#50E6FF"/>
</svg>
