<svg data-slug-id="documents29" viewBox="0 0 48 49" xmlns="http://www.w3.org/2000/svg">
<path d="M31.3031 41.1299C31.3031 38.8223 32.1987 36.6518 33.8367 35.0219C35.4666 33.392 37.6371 32.4883 39.9447 32.4883C40.2594 32.4883 40.566 32.5044 40.8727 32.5367V11.6225L32.5215 8.76614L31.2305 1.92383H7V47.9238H34.6032C34.337 47.714 34.0788 47.48 33.8286 47.238C32.1987 45.6081 31.3031 43.4376 31.3031 41.1299Z" fill="#0078D4"/>
<path d="M40.9372 11.6225H31.2305V1.92383L40.9372 11.6225Z" fill="#50E6FF"/>
<path d="M32.1504 13.9624H15.6175C14.9559 13.9624 14.4233 14.4949 14.4233 15.1566C14.4233 15.8182 14.9559 16.3508 15.6175 16.3508H32.1504C32.812 16.3508 33.3446 15.8182 33.3446 15.1566C33.3446 14.4949 32.812 13.9624 32.1504 13.9624Z" fill="white"/>
<path d="M32.1504 21.2241H15.6175C14.9559 21.2241 14.4233 21.7567 14.4233 22.4183C14.4233 23.0799 14.9559 23.6125 15.6175 23.6125H32.1504C32.812 23.6125 33.3446 23.0799 33.3446 22.4183C33.3446 21.7567 32.812 21.2241 32.1504 21.2241Z" fill="white"/>
<path d="M32.1504 28.4863H15.6175C14.9559 28.4863 14.4233 29.0189 14.4233 29.6805C14.4233 30.3421 14.9559 30.8747 15.6175 30.8747H32.1504C32.812 30.8747 33.3446 30.3421 33.3446 29.6805C33.3446 29.0189 32.812 28.4863 32.1504 28.4863Z" fill="white"/>
<path d="M39.9448 47.7543C43.6033 47.7543 46.5692 44.7884 46.5692 41.1298C46.5692 37.4712 43.6033 34.5054 39.9448 34.5054C36.2862 34.5054 33.3203 37.4712 33.3203 41.1298C33.3203 44.7884 36.2862 47.7543 39.9448 47.7543Z" fill="#0078D4"/>
<path d="M42.0938 36.7607L37.1357 41.7188L39.6233 44.2063L44.5813 39.2483L42.0938 36.7607Z" fill="#50E6FF"/>
<path d="M39.0894 44.8657H36.6445V42.2998L39.0894 44.8657Z" fill="#50E6FF"/>
</svg>
