<svg data-slug-id="documents14" viewBox="0 0 48 49" xmlns="http://www.w3.org/2000/svg">
<path d="M19.9144 45.1056C19.9475 44.1123 20.2537 43.1438 20.8166 42.3078L21.6278 41.091H6.81095V36.1327H24.9388L26.6109 33.6329H6.81095V28.6746H29.1273V26.1085H6.89372V21.1503H27.5546C27.4469 20.9019 27.3807 20.6205 27.3807 20.3308V18.7746C27.3807 18.7001 27.389 18.6256 27.389 18.5511H24.2352V13.626H31.7099V16.7052H36.6599V1.4248H1.90234V46.2479H20.0054C19.9309 45.8754 19.9061 45.4863 19.9144 45.1056Z" fill="#0078D4"/>
<path d="M27.5544 21.1421H6.89355V26.1004H29.1271V22.3672C28.4153 22.2513 27.8275 21.7795 27.5544 21.1421Z" fill="#50E6FF"/>
<path d="M29.1274 28.6665H6.81104V33.6248H26.611L29.1274 29.8585V28.6665Z" fill="#50E6FF"/>
<path d="M6.81104 36.1328V41.0911H21.6279L24.9389 36.1328H6.81104Z" fill="#50E6FF"/>
<path d="M29.4502 16.6969H31.71V13.6177H24.2354V18.5428H27.3891C27.505 17.4999 28.3824 16.6969 29.4502 16.6969Z" fill="#50E6FF"/>
<path d="M21.7189 8.21241L20.3862 6.47412L11.6947 15.1573L8.69825 12.5499L6.95996 14.2882L11.2974 18.6256L21.7189 8.21241Z" fill="white"/>
<path d="M24.2349 11.1756H31.7095V6.24219H24.2349V11.1756Z" fill="#50E6FF"/>
<path d="M36.2212 30.2554V20.3223H37.9181V18.7661H29.4501V20.3223H31.1967V30.4872L22.5384 43.4581C21.0898 45.6269 22.646 48.5406 25.2534 48.5406H42.8267C45.4755 48.5406 47.0234 45.5524 45.4921 43.3919L36.2212 30.2554Z" fill="#0078D4"/>
<path d="M42.9176 43.5242L37.711 36.1489H30.1784L25.2284 43.5656C24.4006 44.799 25.2863 46.4628 26.7763 46.4628H41.4028C42.901 46.4545 43.7867 44.7576 42.9176 43.5242Z" fill="#50E6FF"/>
</svg>
