<svg data-slug-id="documents12" viewBox="0 0 48 49" xmlns="http://www.w3.org/2000/svg">
<path d="M47.975 0.857422H32.841L22.7769 10.945V13.5425H25.997C26.9892 13.5425 27.7879 14.3411 27.7879 15.3331V33.5832H47.9666V0.857422H47.975Z" fill="#0078D7"/>
<path d="M22.7427 10.9624L32.8572 0.849609V10.9624H22.7427Z" fill="#50E6FF"/>
<path d="M4.27927 15.8967C3.85888 15.8967 3.51416 15.5604 3.51416 15.1317V10.5923C3.51416 7.20454 6.27191 4.44727 9.66025 4.44727H18.4212C18.8415 4.44727 19.1863 4.78352 19.1863 5.21224C19.1863 5.63256 18.8415 5.97721 18.4212 5.97721H9.66866C7.1211 5.97721 5.04438 8.05357 5.04438 10.6007V15.1401C5.04438 15.5604 4.69966 15.8967 4.27927 15.8967Z" fill="#0078D7"/>
<path d="M17.8242 3.33789L20.9267 5.33859L17.8242 7.33089V3.33789Z" fill="#0078D7"/>
<path d="M43.7119 36.1973C44.1323 36.1973 44.4771 36.5335 44.4771 36.9622V39.2319C44.4771 42.6197 41.7193 45.377 38.331 45.377H32.8491C32.4287 45.377 32.084 45.0407 32.084 44.612C32.084 44.1833 32.4287 43.847 32.8491 43.847H38.331C40.8785 43.847 42.9552 41.7706 42.9552 39.2235V36.9538C42.9468 36.5335 43.2916 36.1973 43.7119 36.1973Z" fill="#0078D7"/>
<path d="M33.4461 46.4871L30.3521 44.4948L33.4545 42.4941V46.4871H33.4461Z" fill="#0078D7"/>
<path d="M25.2234 16.1074H10.0978L0.0336914 26.195V48.8248H25.2234V16.1074Z" fill="#0078D7"/>
<path d="M0 26.2026L10.1146 16.0898V26.2026H0Z" fill="#50E6FF"/>
</svg>
