<svg data-slug-id="documents32" xmlns="http://www.w3.org/2000/svg" viewBox="0 0 752 756">
  <g transform="translate(-3570 -1500)">
    <path d="M3909 1500 4155 1743 3964.14 1742.51C3933.69 1742.51 3909 1717.58 3909 1686.82L3909 1500Z" fill="#243A5E" fill-rule="evenodd"/>
    <path d="M3586.98 1500 3909.89 1500 3909.89 1685.1C3909.89 1715.57 3934.58 1740.28 3965.05 1740.28L4154 1740.28 4154 2198.02C4154 2207.4 4146.4 2215 4137.02 2215L3586.98 2215C3577.6 2215 3570 2207.4 3570 2198.02L3570 1516.98C3570 1507.6 3577.6 1500 3586.98 1500Z" fill="#0078D4" fill-rule="evenodd"/>
    <path d="M3622.77 1536 3871.91 1536 3871.91 1721.16C3871.91 1751.64 3896.61 1776.35 3927.08 1776.35L4116 1776.35 4116 2161.23C4116 2169.39 4109.39 2176 4101.23 2176L3622.77 2176C3614.61 2176 3608 2169.39 3608 2161.23L3608 1550.77C3608 1542.61 3614.61 1536 3622.77 1536Z" fill="#E6E6E6" fill-rule="evenodd"/>
    <path d="M3643 1857 4078 1857 4078 1886 3643 1886Z" fill="#FFFFFF" fill-rule="evenodd"/>
    <path d="M3643 1912 3981 1912 3981 1941 3643 1941Z" fill="#FFFFFF" fill-rule="evenodd"/>
    <path d="M3643 1967 4017 1967 4017 1996 3643 1996Z" fill="#FFFFFF" fill-rule="evenodd"/>
    <path d="M3640 2022 3913 2022 3913 2051 3640 2051Z" fill="#FFFFFF" fill-rule="evenodd"/>
    <path d="M3640 2077 3935 2077 3935 2106 3640 2106Z" fill="#FFFFFF" fill-rule="evenodd"/>
    <path d="M3641 1625 3831 1625 3831 1803 3641 1803Z" fill="#FFFFFF" fill-rule="evenodd"/>
    <path d="M3789 1773C3789 1743.82 3765.29 1720.23 3736 1720.23 3706.71 1720.23 3683 1743.84 3683 1773M3703.68 1687.62C3703.68 1669.6 3718.33 1655 3736.42 1655 3754.51 1655 3769.61 1669.58 3769.61 1687.62 3769.61 1705.65 3754.53 1720.23 3736.42 1720.23 3718.31 1720.23 3703.68 1705.63 3703.68 1687.62Z" fill="#0078D4" fill-rule="evenodd"/>
    <path d="M3817 1851 4132.8 1878.15C4237.29 1878.15 4322 1962.73 4322 2067.07 4322 2171.41 4237.29 2256 4132.8 2256 4041.38 2256 3965.09 2191.24 3947.45 2105.15L3817 1851Z" fill="#50E6FF" fill-rule="evenodd"/>
    <path d="M3967 2067C3967 1975.32 4041.32 1901 4133 1901 4224.68 1901 4299 1975.32 4299 2067 4299 2158.68 4224.68 2233 4133 2233 4041.32 2233 3967 2158.68 3967 2067Z" fill="#FFFFFF" fill-rule="evenodd"/>
    <path d="M26.5002 22.0833C21.6216 22.0833 17.6669 26.0381 17.6669 30.9167L17.6667 79.5007C17.6667 94.8815 23.094 108.265 32.7773 117.811 40.4841 125.409 50.5347 130.23 61.8334 131.871L61.8334 139.126C61.8334 169.617 86.551 194.334 117.042 194.334 147.533 194.334 172.25 169.617 172.25 139.126L172.25 133.325C183.783 129.599 192.125 118.774 192.125 106.001 192.125 90.146 179.272 77.2928 163.417 77.2928 147.562 77.2928 134.708 90.146 134.708 106.001 134.708 118.774 143.051 129.599 154.583 133.325L154.583 139.126C154.583 159.86 137.775 176.668 117.042 176.668 96.3081 176.668 79.5 159.86 79.5 139.126L79.5 131.871C90.7988 130.23 100.849 125.409 108.556 117.811 118.24 108.265 123.667 94.8815 123.667 79.5008L123.667 30.9167C123.667 26.0382 119.712 22.0833 114.833 22.0833L97.187 22.0833C92.3084 22.0833 88.3537 26.0382 88.3537 30.9167 88.3537 35.7952 92.3084 39.75 97.187 39.75L106 39.75 106 79.5008C106 90.6194 102.15 99.3185 96.1535 105.231 90.1371 111.161 81.4041 114.833 70.6667 114.833 59.9293 114.833 51.1963 111.161 45.1801 105.231 39.1833 99.3185 35.3334 90.6194 35.3334 79.5008L35.3334 39.75 44.1669 39.75C49.0453 39.75 53.0002 35.7952 53.0002 30.9167 53.0002 26.0382 49.0453 22.0833 44.1669 22.0833L26.5002 22.0833ZM163.417 94.9593C169.515 94.9593 174.458 99.9033 174.458 106.001 174.458 112.099 169.515 117.043 163.417 117.043 157.318 117.043 152.375 112.099 152.375 106.001 152.375 99.9033 157.318 94.9593 163.417 94.9593Z" fill="#0078D4" transform="matrix(1.00472 0 0 1 4046 1970)"/>
  </g>
</svg>