<svg data-slug-id="documents03" viewBox="0 0 49 49" xmlns="http://www.w3.org/2000/svg">
<path d="M10.6858 48.3005H38.4535V0.300781H10.6858V48.3005Z" fill="#0078D4"/>
<path d="M15.7375 10.2251H33.4018V5.20703H15.7375V10.2251Z" fill="#50E6FF"/>
<path d="M15.7375 43.089H33.4018V38.0625H15.7375V43.089Z" fill="#50E6FF"/>
<path d="M15.7375 35.5616H33.4018V30.5352H15.7375V35.5616Z" fill="#50E6FF"/>
<path d="M31.2464 21.2648H30.6401C30.6401 19.4378 29.1583 17.9559 27.3313 17.9559C27.0618 17.9559 26.8008 17.9896 26.5567 18.0485C25.6726 16.6677 24.1318 15.75 22.3637 15.75C19.619 15.75 17.3962 17.9728 17.3962 20.7175C17.3962 20.9196 17.413 21.1217 17.4299 21.3237C16.4616 21.5342 15.7375 22.393 15.7375 23.4286V23.5381C15.7375 24.7252 16.7058 25.6935 17.893 25.6935H31.2464C32.4335 25.6935 33.4018 24.7252 33.4018 23.5381V23.4286C33.4018 22.2246 32.4335 21.2648 31.2464 21.2648Z" fill="white"/>
</svg>
