<svg data-slug-id="documents22" viewBox="0 0 49 49" xmlns="http://www.w3.org/2000/svg">
<path d="M25.2215 18.5806V0.923828H0V28.7737H20.5968V18.5806H25.2215Z" fill="#0078D7"/>
<path d="M20.1166 22.251C20.0745 22.2342 17.5641 21.2317 15.0622 19.5806C15.5676 19.0836 16.0393 18.5613 16.4437 18.0137C18.5244 15.2085 19.6448 11.4851 20.066 9.67395C20.0745 9.63183 20.0997 8.41034 20.0997 8.41034V6.50651L13.9333 6.52336V3.5918H11.0607V6.54021L5.30713 6.55706V9.42965L17.025 9.37911C16.5616 11.165 15.6097 14.1724 14.0766 16.2363C13.6806 16.767 13.2173 17.264 12.7034 17.7357C12.1896 17.264 11.7262 16.7586 11.3303 16.2363C10.0583 14.5262 8.96316 12.159 8.4493 10.449C8.4156 10.3479 8.35663 10.1457 8.35663 10.1457L5.29871 10.1878C5.89682 12.4539 7.19412 15.6466 8.94631 18.0053C9.35909 18.5529 9.82241 19.0752 10.3279 19.5722C7.82592 21.2317 5.31556 22.2342 5.27344 22.251L6.35171 25.0057C6.54547 24.9299 9.70448 23.6747 12.6866 21.535C15.6771 23.6747 18.8361 24.9299 19.0215 25.0057L20.1166 22.251Z" fill="#50E6FF"/>
<path d="M48.0083 21.0488H22.7109V48.9239H48.0083V21.0488Z" fill="#0078D7"/>
<path d="M43.9984 43.9196H40.7804L39.1883 39.4127H32.23L30.6969 43.9196H27.4873L34.117 26.2207H37.4277L43.9984 43.9196ZM38.4133 37.0203L35.9535 29.961C35.8776 29.7335 35.8018 29.3629 35.7176 28.849H35.667C35.5912 29.3207 35.507 29.6914 35.4227 29.961L32.9882 37.0203H38.4133Z" fill="#50E6FF"/>
<path d="M43.695 13.5679C40.2749 7.76378 34.3444 3.62758 27.3945 2.65039V5.54826C33.106 6.46648 37.992 9.84451 40.9488 14.562L38.0088 15.6234L43.2823 18.0916L45.7505 12.8182L43.695 13.5679Z" fill="#0078D7"/>
<path d="M7.37013 35.2597L9.76256 34.3921L4.49754 31.9238L2.0293 37.1973L4.63232 36.2538C7.95139 42.0327 13.7555 46.2026 20.5959 47.3061V44.3998C14.9939 43.3552 10.2343 39.9519 7.37013 35.2597Z" fill="#0078D7"/>
</svg>
