<svg data-slug-id="documents08" viewBox="0 0 49 49" xmlns="http://www.w3.org/2000/svg">
<path d="M41.0183 12.4392C41.0183 7.69626 37.1736 3.85156 32.4223 3.85156C28.3258 3.85156 24.9092 6.7141 24.0446 10.5504C23.1968 9.66898 22.0047 9.12334 20.6868 9.12334C18.1097 9.12334 16.011 11.2136 16.011 13.7991C16.011 13.8411 16.0194 13.8746 16.0194 13.9166C13.1569 14.4791 10.9995 16.9974 10.9995 20.0278C10.9995 23.4696 13.7865 26.2566 17.2282 26.2566H42.7812C45.8955 26.2566 48.4307 23.7298 48.4307 20.6071C48.4307 17.4927 45.9039 14.9575 42.7812 14.9575C41.9501 14.9575 41.161 15.1422 40.4559 15.4612C40.8169 14.521 41.0183 13.5053 41.0183 12.4392Z" fill="#50E6FF"/>
<path d="M34.2354 22.5628H1.9585V14.4453H10.4454L13.3583 16.9637H34.2354V22.5628Z" fill="#0078D4"/>
<path d="M35.7632 20.6406H0.430664V44.7498H35.7632V20.6406Z" fill="#0078D4"/>
<path d="M24.6827 35.5163H11.5117V29.8164H12.7709V34.2571H23.4235V29.8164H24.6827V35.5163Z" fill="#50E6FF"/>
<path d="M30.6678 19.4922H5.54297V20.7933H30.6678V19.4922Z" fill="#50E6FF"/>
</svg>
