<svg data-slug-id="documents20" viewBox="0 0 48 49" xmlns="http://www.w3.org/2000/svg">
<path d="M16.2315 40.8976L0.966309 47.6552V9.02057L16.2315 2.271V40.8976Z" fill="#0078D7"/>
<path d="M46.9636 40.8976L31.7065 47.6552V9.02057L46.9636 2.271V40.8976Z" fill="#0078D7"/>
<path d="M12.4352 16.8559L4.6499 20.3643V12.2336L12.4352 8.7251V16.8559Z" fill="#50E6FF"/>
<path d="M43.5254 16.9473L35.4277 20.5965V12.1395L43.5254 8.49023V16.9473Z" fill="#50E6FF"/>
<path d="M13.7886 23.7468L3.31348 28.6255V26.2789L13.7886 21.4082V23.7468Z" fill="#50E6FF"/>
<path d="M13.7886 28.5827L3.31348 33.4614V31.1148L13.7886 26.2441V28.5827Z" fill="#50E6FF"/>
<path d="M13.7881 33.4225L3.31299 38.3013V35.9546L13.7881 31.084V33.4225Z" fill="#50E6FF"/>
<path d="M45.3912 23.7468L34.916 28.6255V26.2789L45.3912 21.4082V23.7468Z" fill="#50E6FF"/>
<path d="M45.3912 28.5827L34.916 33.4614V31.1148L45.3912 26.2441V28.5827Z" fill="#50E6FF"/>
<path d="M45.3912 33.4225L34.916 38.3013V35.9546L45.3912 31.084V33.4225Z" fill="#50E6FF"/>
<path d="M31.7145 47.657L16.23 40.8563L16.2415 2.26367L31.7145 9.02225V47.657Z" fill="#50E6FF"/>
<path d="M18.6914 23.7468L29.1666 28.6255V26.2789L18.6914 21.4082V23.7468Z" fill="#0078D7"/>
<path d="M18.6914 28.5827L29.1666 33.4614V31.1148L18.6914 26.2441V28.5827Z" fill="#0078D7"/>
<path d="M18.6914 33.4225L29.1666 38.3013V35.9546L18.6914 31.084V33.4225Z" fill="#0078D7"/>
<path d="M19.7314 17.2981L28.1604 21.0967V12.2888L19.7314 8.49023V17.2981Z" fill="#0078D7"/>
</svg>
