<svg data-slug-id="documents27" viewBox="0 0 48 49" xmlns="http://www.w3.org/2000/svg">
<path d="M47 4.64587H20.967L17.8249 1.92383H8.65723V5.95438H10.2565C10.6442 5.95438 11.0158 6.09169 11.3146 6.35017L13.9398 8.61988L14.0044 8.67642H39.4316C40.3201 8.67642 41.047 9.40337 41.047 10.2919V10.6957H46.9919V4.64587H47Z" fill="#0078D4"/>
<path d="M39.4316 14.2578H1V40.2908H39.4316V14.2578Z" fill="#50E6FF"/>
<path d="M46.9999 8.62012H13.9478L14.0124 8.67666H39.4396C40.3281 8.67666 41.055 9.40361 41.055 10.2921V14.258V16.342V34.6612H46.9999V8.62012Z" fill="#50E6FF"/>
<path d="M13.4067 10.2838L10.2646 7.56982H1V14.2578V16.3337H39.4316V14.2578V10.2838H13.4067Z" fill="#0078D4"/>
<path d="M23.7697 22.2866L14.0527 31.842H19.4403V47.8027H27.9941V31.842H33.4947L23.7697 22.2866Z" fill="#0078D4"/>
<path d="M14.1092 21.899H10.6521V18.4419H8.9236V21.899H5.47461V23.6275H8.93168V27.0846H10.6602V23.6275H14.1173V21.899H14.1092Z" fill="#0078D4"/>
</svg>
