<svg data-slug-id="documents11" viewBox="0 0 48 49" xmlns="http://www.w3.org/2000/svg">
<path d="M0 43.8213H48V6.86133H0V43.8213Z" fill="#0078D4"/>
<path d="M0 10.8556H47.9832V5.85352H0V10.8556Z" fill="#50E6FF"/>
<path d="M7.47789 9.67453C8.15226 9.67453 8.69894 9.12784 8.69894 8.45347C8.69894 7.77911 8.15226 7.23242 7.47789 7.23242C6.80352 7.23242 6.25684 7.77911 6.25684 8.45347C6.25684 9.12784 6.80352 9.67453 7.47789 9.67453Z" fill="white"/>
<path d="M3.68834 9.67453C4.36271 9.67453 4.90939 9.12784 4.90939 8.45347C4.90939 7.77911 4.36271 7.23242 3.68834 7.23242C3.01397 7.23242 2.46729 7.77911 2.46729 8.45347C2.46729 9.12784 3.01397 9.67453 3.68834 9.67453Z" fill="white"/>
<path d="M11.3514 9.67453C12.0258 9.67453 12.5725 9.12784 12.5725 8.45347C12.5725 7.77911 12.0258 7.23242 11.3514 7.23242C10.6771 7.23242 10.1304 7.77911 10.1304 8.45347C10.1304 9.12784 10.6771 9.67453 11.3514 9.67453Z" fill="white"/>
<path d="M16.3872 31.2771L23.2588 35.2182V27.3192L16.3872 23.3613V31.2771Z" fill="#50E6FF"/>
<path d="M23.9496 18.584L17.1538 22.5082L23.9496 26.4324L30.7454 22.5082L23.9496 18.584Z" fill="#50E6FF"/>
<path d="M24.6313 27.3198V35.2188L31.5029 31.2777V23.3535L24.6313 27.3198Z" fill="#50E6FF"/>
</svg>
