<svg data-slug-id="documents21" viewBox="0 0 48 49" xmlns="http://www.w3.org/2000/svg">
<path d="M43.9472 15.606H20.2964V39.2301H43.9472V15.606Z" fill="#50E6FF"/>
<path d="M20.2697 31.441V39.576H43.9382V34.5992V34.6524L40.1857 30.8821L36.442 34.6524L26.5505 25.0005L20.252 31.308L20.2697 31.441Z" fill="#0078D4"/>
<path d="M40.8066 21.5044C40.8066 23.2076 39.4315 24.5827 37.7282 24.5827C36.0249 24.5827 34.6499 23.1988 34.6499 21.5044C34.6499 19.8011 36.0072 18.3994 37.7016 18.3994C39.4049 18.3994 40.8066 19.7833 40.8066 21.5044Z" fill="#0078D4"/>
<path d="M17.3596 2.29004H4.05273V11.525H6.10199V13.5565L8.15126 11.525H17.3596V2.29004Z" fill="#0078D4"/>
<path d="M17.3332 31.6377H4.03516V47.5439H17.3332V31.6377Z" fill="#50E6FF"/>
<path d="M43.9647 42.2354H20.2607V47.5581H43.9647V42.2354Z" fill="#0078D4"/>
<path d="M43.9555 2.33301H20.2959V6.23636H43.9555V2.33301Z" fill="#0078D4"/>
<path d="M17.3513 15.6221H4.09766V18.8778H17.3513V15.6221Z" fill="#0078D4"/>
<path d="M17.3513 19.9775H4.09766V23.2333H17.3513V19.9775Z" fill="#0078D4"/>
<path d="M17.3513 24.3369H4.09766V27.5927H17.3513V24.3369Z" fill="#50E6FF"/>
<path d="M43.9555 7.61426H20.2959V11.5176H43.9555V7.61426Z" fill="#0078D4"/>
</svg>
