<svg data-slug-id="documents26" viewBox="0 0 48 49" xmlns="http://www.w3.org/2000/svg">
<path d="M28.7537 41.8669C25.4507 41.8669 22.3577 40.5829 20.0238 38.249C17.6898 35.9151 16.4058 32.8139 16.4058 29.519C16.4058 26.224 17.6898 23.1229 20.0238 20.789C22.3577 18.4551 25.4588 17.171 28.7537 17.171C30.9665 17.171 33.0985 17.7525 34.9641 18.8346V1.92383H13.1593L0.99707 14.0457L1.04553 47.9238H34.9641V40.3083L34.8995 40.2437C33.0339 41.3097 30.9342 41.8669 28.7537 41.8669Z" fill="#0078D7"/>
<path d="M37.2817 36.0508C38.6707 34.2418 39.4944 31.9725 39.4944 29.5175C39.4944 25.8995 37.7016 22.7015 34.9558 20.7552C33.2034 19.5115 31.0633 18.7847 28.7455 18.7847C22.8178 18.7847 18.0127 23.5898 18.0127 29.5175C18.0127 35.4451 22.8178 40.2503 28.7455 40.2503C31.0552 40.2503 33.1953 39.5154 34.9558 38.2717C35.0043 38.2394 35.0527 38.199 35.1012 38.1667L44.7195 47.785L46.8677 45.6449L37.2817 36.0508ZM34.9639 34.0076C33.5668 35.9297 31.3055 37.1734 28.7536 37.1734C24.5299 37.1734 21.1057 33.7492 21.1057 29.5175C21.1057 25.2857 24.5299 21.8616 28.7616 21.8616C31.3136 21.8616 33.5668 23.1052 34.9558 25.0273C35.8765 26.2871 36.4175 27.8458 36.4175 29.5255C36.4256 31.1972 35.8845 32.7478 34.9639 34.0076Z" fill="#0078D7"/>
<path d="M32.4685 25.6987H24.8853V27.2089H32.4685V25.6987Z" fill="#0078D4"/>
<path d="M32.4685 28.7534H24.8853V30.2636H32.4685V28.7534Z" fill="#50E6FF"/>
<path d="M32.4685 31.8193H24.8853V33.3295H32.4685V31.8193Z" fill="#50E6FF"/>
<path d="M0.99707 14.0457L13.1593 1.92383V14.0457H0.99707Z" fill="#50E6FF"/>
</svg>
