<svg data-slug-id="documents18" viewBox="0 0 48 49" xmlns="http://www.w3.org/2000/svg">
<path d="M47.975 0.931641H32.841L22.7769 11.0192V13.6168H25.997C26.9892 13.6168 27.7879 14.4154 27.7879 15.4073V33.6574H47.9665V0.931641H47.975Z" fill="#0078D7"/>
<path d="M22.7432 11.0366L32.8577 0.923828V11.0366H22.7432Z" fill="#50E6FF"/>
<path d="M4.27976 15.9709C3.85937 15.9709 3.51465 15.6346 3.51465 15.2059V10.6665C3.51465 7.27875 6.2724 4.52148 9.66073 4.52148H18.4216C18.842 4.52148 19.1867 4.85774 19.1867 5.28646C19.1867 5.70677 18.842 6.05143 18.4216 6.05143H9.66914C7.12158 6.05143 5.04486 8.12779 5.04486 10.6749V15.2143C5.04486 15.6346 4.70014 15.9709 4.27976 15.9709Z" fill="#0078D7"/>
<path d="M17.8242 3.41211L20.9267 5.41281L17.8242 7.4051V3.41211Z" fill="#0078D7"/>
<path d="M43.7119 36.2715C44.1323 36.2715 44.477 36.6077 44.477 37.0365V39.3062C44.477 42.6939 41.7193 45.4512 38.331 45.4512H32.8491C32.4287 45.4512 32.084 45.1149 32.084 44.6862C32.084 44.2575 32.4287 43.9212 32.8491 43.9212H38.331C40.8785 43.9212 42.9552 41.8449 42.9552 39.2978V37.0281C42.9468 36.6077 43.2915 36.2715 43.7119 36.2715Z" fill="#0078D7"/>
<path d="M33.4461 46.5614L30.3521 44.5691L33.4545 42.5684V46.5614H33.4461Z" fill="#0078D7"/>
<path d="M25.2234 16.1816H10.0978L0.0336914 26.2692V48.899H25.2234V16.1816Z" fill="#0078D7"/>
<path d="M0 26.2749L10.1146 16.1621V26.2749H0Z" fill="#50E6FF"/>
</svg>
