<svg data-slug-id="e-books" viewBox="0 0 48 48" xmlns="http://www.w3.org/2000/svg">
<path d="M45.0013 8.0722H2.9178C2.67653 8.06121 2.43549 8.09837 2.20847 8.18156C1.98145 8.26475 1.77291 8.39232 1.59477 8.55699C1.41664 8.72165 1.27242 8.92016 1.17036 9.14117C1.0683 9.36218 1.01041 9.60134 1 9.84497V41.8095C1.01041 42.0531 1.0683 42.2923 1.17036 42.5133C1.27242 42.7343 1.41664 42.9328 1.59477 43.0975C1.77291 43.2621 1.98145 43.3897 2.20847 43.4729C2.43549 43.5561 2.67653 43.5932 2.9178 43.5822H45.0013C45.2425 43.5932 45.4836 43.5561 45.7106 43.4729C45.9376 43.3897 46.1462 43.2621 46.3243 43.0975C46.5024 42.9328 46.6466 42.7343 46.7487 42.5133C46.8508 42.2923 46.9087 42.0531 46.9191 41.8095V9.84497C46.9087 9.60134 46.8508 9.36218 46.7487 9.14117C46.6466 8.92016 46.5024 8.72165 46.3243 8.55699C46.1462 8.39232 45.9376 8.26475 45.7106 8.18156C45.4836 8.09837 45.2425 8.06121 45.0013 8.0722Z" fill="#0078D4"/>
<path d="M45.1647 8.0722H23.9609V43.5277H45.2458C45.7114 43.5277 46.158 43.3409 46.4873 43.0085C46.8165 42.676 47.0015 42.2251 47.0015 41.7549V9.84498C47.0018 9.60512 46.9538 9.36771 46.8605 9.14712C46.7673 8.92652 46.6307 8.72733 46.459 8.5616C46.2872 8.39586 46.084 8.26704 45.8615 8.18292C45.6391 8.0988 45.402 8.06113 45.1647 8.0722Z" fill="#005BA1"/>
<path d="M20.2879 3H6.51213C6.27071 3.00687 6.04105 3.10677 5.87027 3.27921C5.6995 3.45164 5.60055 3.68353 5.59375 3.9273V39.3828C5.59365 39.6313 5.68954 39.8701 5.86103 40.0483C6.03253 40.2266 6.26611 40.3303 6.51213 40.3374H20.2879C20.7408 40.2925 21.1981 40.3412 21.6318 40.4807C22.0655 40.6202 22.4664 40.8475 22.8102 41.1487C23.154 41.4498 23.4334 41.8186 23.6313 42.2324C23.8292 42.6463 23.9415 43.0965 23.9614 43.5556V6.73646C23.9614 5.7502 23.5752 4.80393 22.8871 4.10398C22.1989 3.40404 21.2646 3.0072 20.2879 3Z" fill="#F2F2F2"/>
<path d="M27.6345 3H41.4102C41.6516 3.00687 41.8813 3.10677 42.052 3.27921C42.2228 3.45164 42.3218 3.68353 42.3286 3.9273V39.3828C42.3287 39.6313 42.2328 39.8701 42.0613 40.0483C41.8898 40.2266 41.6562 40.3303 41.4102 40.3374H27.6345C27.1815 40.2925 26.7242 40.3412 26.2905 40.4807C25.8569 40.6202 25.4559 40.8475 25.1121 41.1487C24.7683 41.4498 24.4889 41.8186 24.291 42.2324C24.0931 42.6463 23.9808 43.0965 23.9609 43.5556V6.73646C23.9609 5.7502 24.3471 4.80393 25.0352 4.10398C25.7234 3.40404 26.6577 3.0072 27.6345 3Z" fill="url(#e-books_paint0_linear)"/>
<path d="M19.881 12.3848H9.6978C9.58771 12.3846 9.48169 12.4268 9.40137 12.5028C9.32106 12.5788 9.27251 12.6829 9.26562 12.7939V13.8303C9.27251 13.9412 9.32106 14.0453 9.40137 14.1214C9.48169 14.1974 9.58771 14.2396 9.6978 14.2394H19.881C19.9342 14.2394 19.9869 14.2288 20.0361 14.2082C20.0852 14.1877 20.1299 14.1575 20.1675 14.1196C20.2052 14.0816 20.235 14.0365 20.2554 13.9868C20.2757 13.9372 20.2862 13.884 20.2862 13.8303V12.7393C20.273 12.6405 20.2246 12.55 20.15 12.4847C20.0754 12.4194 19.9798 12.3839 19.881 12.3848Z" fill="#B3B3B3"/>
<path d="M19.881 17.8399H9.6978C9.58771 17.8397 9.48169 17.8819 9.40137 17.958C9.32106 18.034 9.27251 18.1381 9.26562 18.249V19.2854C9.27251 19.3964 9.32106 19.5005 9.40137 19.5765C9.48169 19.6525 9.58771 19.6947 9.6978 19.6945H19.881C19.9885 19.6945 20.0915 19.6514 20.1675 19.5747C20.2435 19.498 20.2862 19.3939 20.2862 19.2854V18.3308C20.2984 18.2707 20.297 18.2086 20.2822 18.1491C20.2673 18.0896 20.2394 18.0342 20.2005 17.987C20.1616 17.9399 20.1127 17.9022 20.0574 17.8767C20.0021 17.8513 19.9418 17.8387 19.881 17.8399Z" fill="#B3B3B3"/>
<path d="M19.881 6.73828H9.6978C9.58771 6.73806 9.48169 6.78028 9.40137 6.8563C9.32106 6.93233 9.27251 7.03644 9.26562 7.14738V8.18377C9.27251 8.29472 9.32106 8.39883 9.40137 8.47485C9.48169 8.55088 9.58771 8.59309 9.6978 8.59288H19.881C19.9885 8.59288 20.0915 8.54978 20.1675 8.47305C20.2435 8.39633 20.2862 8.29228 20.2862 8.18377V7.14738C20.2862 7.03888 20.2435 6.93483 20.1675 6.8581C20.0915 6.78138 19.9885 6.73828 19.881 6.73828Z" fill="#B3B3B3"/>
<path d="M19.881 23.5078H9.6978C9.58771 23.5076 9.48169 23.5498 9.40137 23.6258C9.32106 23.7019 9.27251 23.806 9.26562 23.9169V24.9533C9.27251 25.0642 9.32106 25.1684 9.40137 25.2444C9.48169 25.3204 9.58771 25.3626 9.6978 25.3624H19.881C19.9885 25.3624 20.0915 25.3193 20.1675 25.2426C20.2435 25.1659 20.2862 25.0618 20.2862 24.9533V23.9169C20.2862 23.8084 20.2435 23.7044 20.1675 23.6276C20.0915 23.5509 19.9885 23.5078 19.881 23.5078Z" fill="#B3B3B3"/>
<path d="M19.881 29.1016H9.6978C9.58771 29.1013 9.48169 29.1436 9.40137 29.2196C9.32106 29.2956 9.27251 29.3997 9.26562 29.5107V30.5471C9.27251 30.658 9.32106 30.7621 9.40137 30.8381C9.48169 30.9142 9.58771 30.9564 9.6978 30.9562H19.881C19.9885 30.9562 20.0915 30.9131 20.1675 30.8363C20.2435 30.7596 20.2862 30.6556 20.2862 30.5471V29.5107C20.2862 29.4022 20.2435 29.2981 20.1675 29.2214C20.0915 29.1447 19.9885 29.1016 19.881 29.1016Z" fill="#B3B3B3"/>
<path d="M14.3707 34.6934H9.6978C9.58771 34.6931 9.48169 34.7354 9.40137 34.8114C9.32106 34.8874 9.27251 34.9915 9.26562 35.1025V36.1389C9.27251 36.2498 9.32106 36.3539 9.40137 36.4299C9.48169 36.506 9.58771 36.5482 9.6978 36.548H14.3707C14.4782 36.548 14.5813 36.5049 14.6572 36.4281C14.7332 36.3514 14.7759 36.2474 14.7759 36.1389V35.1025C14.7759 34.994 14.7332 34.8899 14.6572 34.8132C14.5813 34.7365 14.4782 34.6934 14.3707 34.6934Z" fill="#B3B3B3"/>
<defs>
<linearGradient id="e-books_paint0_linear" x1="23.9609" y1="23.2915" x2="42.3286" y2="23.2915" gradientUnits="userSpaceOnUse">
<stop stop-color="#CCCCCC"/>
<stop offset="0.32" stop-color="#DFDFDF"/>
<stop offset="0.67" stop-color="#ECECEC"/>
<stop offset="1" stop-color="#F0F0F0"/>
</linearGradient>
</defs>
</svg>
