<svg data-slug-id="elevation" viewBox="0 0 40 40" xmlns="http://www.w3.org/2000/svg">
<path d="M28.7266 7.28144H39.5185V5.21082H28.7266V7.28144Z" fill="#50E6FF"/>
<path d="M28.9062 13.9596L30.4009 15.4543L33.0612 12.794V34.3641H35.1867V12.794L37.8469 15.4543L39.3416 13.9596L34.1445 8.76245L28.9062 13.9596Z" fill="#3BCAF4"/>
<path d="M17.9772 7.03459L1.20654 34.3503C0.315215 35.8039 1.35738 37.6688 3.07147 37.6688H36.4619C38.1623 37.6688 39.2045 35.8039 38.3269 34.3503L21.6933 7.0483C20.8432 5.6496 18.8274 5.6496 17.9772 7.03459Z" fill="#0078D4"/>
<path d="M19.8842 8.83099L12.877 20.0069L26.6445 20.048L19.8842 8.83099Z" fill="#50E6FF"/>
<path d="M19.8842 16.7706L12.877 27.9602L26.6445 27.9876L19.8842 16.7706Z" fill="#0078D4"/>
</svg>
