<svg data-slug-id="energy-renewable" viewBox="0 0 48 49" xmlns="http://www.w3.org/2000/svg">
    <path d="M32.4095 7.65629L25.2635 0.501953V5.78554C24.8421 5.76026 24.4208 5.74341 23.9994 5.74341C13.5249 5.74341 5.039 14.2292 5.039 24.7037C5.039 29.9283 7.15414 34.6641 10.5754 38.0938L14.1484 34.5209C11.5361 31.9001 10.0951 28.4114 10.0951 24.7037C10.0951 20.9875 11.5445 17.4988 14.1653 14.8696C16.7945 12.2405 20.2832 10.7995 23.9994 10.7995C24.4208 10.7995 24.8421 10.8163 25.2635 10.8585V14.8022L32.4095 7.65629Z" fill="#50E6FF"/>
    <path d="M37.3902 11.2869L33.8172 14.8598C33.8256 14.8682 33.8256 14.8682 33.834 14.8767C36.4632 17.5058 37.9042 20.9945 37.9042 24.7107C37.9042 28.4269 36.4548 31.9156 33.834 34.5448C31.2048 37.1739 27.7161 38.6149 23.9999 38.6149V34.1908L16.8455 41.3452L23.9999 48.4995V43.6794C34.4745 43.6794 42.9603 35.1936 42.9603 24.7192C42.9603 19.4608 40.8283 14.7166 37.3902 11.2869Z" fill="#0078D4"/>
    <path d="M21 25.3774L24.0467 25.502L30 17.502H23.4514L21 25.3774Z" fill="#0078D4"/>
    <path d="M22 33.502L29 24.502H24.4138L22 33.502Z" fill="#0078D4"/>
</svg>
