<svg data-slug-id="event-grid01" viewBox="0 0 49 48" xmlns="http://www.w3.org/2000/svg">
<path d="M37.5733 20.9136V18.6066H24.3431L16.6215 26.0927H11.8191L23.1189 14.4633H31.8292V12.1562H21.471L8.14668 26.0927H5.88672V28.3997H12.3841L19.6348 35.98L34.1362 35.7917V33.4846H21.0473L16.0565 28.3997H28.0155V26.0927H20.3411L25.6614 20.9136H37.5733Z" fill="#0078D4"/>
<path d="M32.0213 16.443C33.7115 16.443 35.0817 15.0728 35.0817 13.3826C35.0817 11.6924 33.7115 10.3223 32.0213 10.3223C30.3311 10.3223 28.9609 11.6924 28.9609 13.3826C28.9609 15.0728 30.3311 16.443 32.0213 16.443Z" stroke="white" stroke-width="0.2" stroke-miterlimit="10"/>
<path d="M32.0213 16.443C33.7115 16.443 35.0817 15.0728 35.0817 13.3826C35.0817 11.6924 33.7115 10.3223 32.0213 10.3223C30.3311 10.3223 28.9609 11.6924 28.9609 13.3826C28.9609 15.0728 30.3311 16.443 32.0213 16.443Z" fill="#50E6FF"/>
<path d="M38.4197 22.9879C40.1099 22.9879 41.4801 21.6177 41.4801 19.9276C41.4801 18.2374 40.1099 16.8672 38.4197 16.8672C36.7295 16.8672 35.3594 18.2374 35.3594 19.9276C35.3594 21.6177 36.7295 22.9879 38.4197 22.9879Z" fill="#B8D242"/>
<path d="M29.2869 30.2848C30.9771 30.2848 32.3473 28.9146 32.3473 27.2244C32.3473 25.5342 30.9771 24.1641 29.2869 24.1641C27.5967 24.1641 26.2266 25.5342 26.2266 27.2244C26.2266 28.9146 27.5967 30.2848 29.2869 30.2848Z" fill="#50E6FF"/>
<path d="M35.6932 37.4879C37.3834 37.4879 38.7535 36.1177 38.7535 34.4276C38.7535 32.7374 37.3834 31.3672 35.6932 31.3672C34.003 31.3672 32.6328 32.7374 32.6328 34.4276C32.6328 36.1177 34.003 37.4879 35.6932 37.4879Z" fill="#B8D242"/>
<path d="M46.5668 1H1.93259C1.55593 1 1.27344 1.2825 1.27344 1.65916V11.1698C1.27344 11.3582 1.46177 11.5465 1.6501 11.5465H6.92334C7.11167 11.5465 7.3 11.3582 7.3 11.1698V7.16781H41.1523V11.1698C41.1523 11.3582 41.3407 11.5465 41.529 11.5465H46.8022C46.9906 11.5465 47.1789 11.3582 47.1789 11.1698V1.65916C47.226 1.2825 46.9435 1 46.5668 1Z" fill="#0078D4"/>
<path d="M1.93259 46.9996H46.5668C46.9435 46.9996 47.226 46.7171 47.226 46.3405V36.8298C47.226 36.6415 47.0377 36.4531 46.8493 36.4531H41.529C41.3407 36.4531 41.1523 36.6415 41.1523 36.8298V40.8318H7.3V36.8298C7.3 36.6415 7.11167 36.4531 6.92334 36.4531H1.6501C1.46177 36.4531 1.27344 36.6415 1.27344 36.8298V46.3405C1.27344 46.7171 1.55593 46.9996 1.93259 46.9996Z" fill="#0078D4"/>
</svg>
