<svg data-slug-id="faq" viewBox="0 0 217 217" xmlns="http://www.w3.org/2000/svg">
  <path fill-rule="evenodd" clip-rule="evenodd" d="M47.4688 217H108.5C132.212 217 151.863 199.615 155.401 176.896L162.765 169.532L155.401 162.168C151.863 139.449 132.212 122.063 108.5 122.063H47.4688C21.2525 122.063 0 143.315 0 169.532C0 195.748 21.2525 217 47.4688 217Z" fill="#0078D4"/>
  <path fill-rule="evenodd" clip-rule="evenodd" d="M54.2501 169.533C54.2501 175.15 49.6948 179.705 44.0783 179.705C38.4617 179.705 33.9064 175.15 33.9064 169.533C33.9064 163.915 38.4617 159.361 44.0783 159.361C49.6948 159.361 54.2501 163.915 54.2501 169.533Z" fill="#50E6FF"/>
  <path fill-rule="evenodd" clip-rule="evenodd" d="M88.1563 169.533C88.1563 175.15 83.601 179.705 77.9844 179.705C72.3678 179.705 67.8125 175.15 67.8125 169.533C67.8125 163.915 72.3678 159.361 77.9844 159.361C83.601 159.361 88.1563 163.915 88.1563 169.533Z" fill="#50E6FF"/>
  <path fill-rule="evenodd" clip-rule="evenodd" d="M122.063 169.533C122.063 175.15 117.507 179.705 111.891 179.705C106.274 179.705 101.719 175.15 101.719 169.533C101.719 163.915 106.274 159.361 111.891 159.361C117.507 159.361 122.063 163.915 122.063 169.533Z" fill="#50E6FF"/>
  <path fill-rule="evenodd" clip-rule="evenodd" d="M108.5 94.9377H169.531C195.748 94.9377 217 73.6852 217 47.4689C217 21.2526 195.748 0.00012207 169.531 0.00012207H108.5C84.7038 0.00012207 64.9973 17.5098 61.5617 40.3481L54.4415 47.4672L61.5613 54.5869C64.9957 77.4266 84.7028 94.9377 108.5 94.9377Z" fill="black"/>
  <path fill-rule="evenodd" clip-rule="evenodd" d="M115.281 47.4697C115.281 53.0863 110.726 57.6416 105.11 57.6416C99.4929 57.6416 94.9376 53.0863 94.9376 47.4697C94.9376 41.8515 99.4929 37.2979 105.11 37.2979C110.726 37.2979 115.281 41.8515 115.281 47.4697Z" fill="#0078D4"/>
  <path fill-rule="evenodd" clip-rule="evenodd" d="M149.188 47.4697C149.188 53.0863 144.632 57.6416 139.016 57.6416C133.399 57.6416 128.844 53.0863 128.844 47.4697C128.844 41.8515 133.399 37.2979 139.016 37.2979C144.632 37.2979 149.188 41.8515 149.188 47.4697Z" fill="#0078D4"/>
  <path fill-rule="evenodd" clip-rule="evenodd" d="M183.094 47.4697C183.094 53.0863 178.538 57.6416 172.922 57.6416C167.305 57.6416 162.75 53.0863 162.75 47.4697C162.75 41.8515 167.305 37.2979 172.922 37.2979C178.538 37.2979 183.094 41.8515 183.094 47.4697Z" fill="#0078D4"/>
</svg>
