<svg data-slug-id="firewall" viewBox="0 0 48 49" xmlns="http://www.w3.org/2000/svg">
<g clip-path="url(#firewall_clip0)">
<path d="M36.9067 27.9822L34.8 30.0889H34.6667C34.6124 30.1395 34.5409 30.1677 34.4667 30.1677C34.3925 30.1677 34.321 30.1395 34.2667 30.0889L25.0667 21.0222C25.0168 20.9734 24.9498 20.946 24.88 20.946C24.8102 20.946 24.7432 20.9734 24.6934 21.0222L24 21.6089L23.44 21.0222C23.3857 20.9716 23.3143 20.9435 23.24 20.9435C23.1658 20.9435 23.0943 20.9716 23.04 21.0222L13.9734 30.2222C13.9191 30.2728 13.8476 30.301 13.7734 30.301C13.6991 30.301 13.6277 30.2728 13.5734 30.2222L11.4667 28.1156C11.4264 28.0816 11.3777 28.0591 11.3257 28.0505C11.2738 28.0418 11.2204 28.0473 11.1713 28.0664C11.1222 28.0855 11.0791 28.1175 11.0466 28.159C11.0142 28.2005 10.9934 28.25 10.9867 28.3022V35.9289C10.9867 36.0067 11.0176 36.0813 11.0726 36.1363C11.1276 36.1913 11.2022 36.2222 11.28 36.2222H18.6667C18.719 36.2155 18.7684 36.1948 18.8099 36.1623C18.8514 36.1298 18.8834 36.0868 18.9025 36.0376C18.9216 35.9885 18.9271 35.9352 18.9185 35.8832C18.9098 35.8312 18.8873 35.7825 18.8534 35.7422L16.7467 33.6356H16.6134C16.5645 33.5857 16.5371 33.5187 16.5371 33.4489C16.5371 33.3791 16.5645 33.3121 16.6134 33.2622L21.9467 27.9289V42.6222C21.9469 42.6596 21.9392 42.6966 21.9242 42.7308C21.9091 42.7651 21.8871 42.7958 21.8594 42.8209C21.8317 42.846 21.7991 42.8651 21.7636 42.8768C21.7281 42.8885 21.6906 42.8926 21.6534 42.8889H18.6667C18.6144 42.8957 18.565 42.9164 18.5235 42.9488C18.482 42.9813 18.45 43.0244 18.4309 43.0735C18.4118 43.1226 18.4063 43.176 18.4149 43.2279C18.4236 43.2799 18.4461 43.3286 18.48 43.3689L23.8134 48.7022C23.8677 48.7529 23.9391 48.781 24.0134 48.781C24.0876 48.781 24.1591 48.7529 24.2134 48.7022L29.5467 43.3689C29.594 43.3342 29.6285 43.2848 29.6448 43.2285C29.6612 43.1722 29.6586 43.112 29.6373 43.0574C29.6161 43.0027 29.5774 42.9566 29.5272 42.9261C29.4771 42.8957 29.4183 42.8826 29.36 42.8889H26.32C26.284 42.8932 26.2474 42.8892 26.2131 42.8774C26.1788 42.8655 26.1476 42.846 26.122 42.8203C26.0963 42.7946 26.0768 42.7635 26.0649 42.7292C26.053 42.6948 26.0491 42.6583 26.0534 42.6222V27.5289L31.52 32.9956C31.5689 33.0454 31.5963 33.1124 31.5963 33.1822C31.5963 33.252 31.5689 33.3191 31.52 33.3689H31.3867L29.28 35.4756C29.2328 35.5103 29.1983 35.5597 29.1819 35.616C29.1655 35.6723 29.1681 35.7324 29.1894 35.7871C29.2107 35.8418 29.2493 35.8879 29.2995 35.9184C29.3496 35.9488 29.4084 35.9619 29.4667 35.9556H37.0934C37.1307 35.9558 37.1677 35.9481 37.202 35.933C37.2362 35.918 37.2669 35.8959 37.292 35.8683C37.3172 35.8406 37.3362 35.808 37.3479 35.7725C37.3596 35.737 37.3638 35.6994 37.36 35.6622V28.1689C37.3593 28.1167 37.3433 28.0659 37.3139 28.0227C37.2846 27.9795 37.2432 27.9459 37.1949 27.9261C37.1467 27.9062 37.0936 27.9009 37.0424 27.9109C36.9911 27.9209 36.944 27.9457 36.9067 27.9822Z" fill="url(#firewall_paint0_linear)"/>
<path d="M45.7067 2.1691C45.6795 1.7352 45.4878 1.32802 45.1706 1.03068C44.8534 0.73334 44.4347 0.568245 44 0.569095H4C3.56525 0.568245 3.14657 0.73334 2.82941 1.03068C2.51224 1.32802 2.32051 1.7352 2.29333 2.1691V22.7291C2.30034 23.1771 2.48323 23.6044 2.80254 23.9187C3.12184 24.233 3.55195 24.4091 4 24.4091H44C44.4481 24.4091 44.8782 24.233 45.1975 23.9187C45.5168 23.6044 45.6997 23.1771 45.7067 22.7291V2.1691Z" fill="#821010"/>
<path d="M16.4534 2.83594H4.69336V8.03594H16.4534V2.83594Z" fill="#E62323"/>
<path d="M30 2.83594H18.24V8.03594H30V2.83594Z" fill="#FF7381"/>
<path d="M43.5734 2.83594H31.8134V8.03594H43.5734V2.83594Z" fill="#E62323"/>
<path d="M9.57336 9.82239H4.69336V15.0224H9.57336V9.82239Z" fill="#E62323"/>
<path d="M43.5467 9.82239H38.6667V15.0224H43.5467V9.82239Z" fill="#FF7381"/>
<path d="M23.1467 9.82239H11.3867V15.0224H23.1467V9.82239Z" fill="#FF7381"/>
<path d="M36.6934 9.82239H24.9333V15.0224H36.6934V9.82239Z" fill="#E62323"/>
<path d="M16.4534 16.7826H4.69336V21.9826H16.4534V16.7826Z" fill="#E62323"/>
<path d="M30 16.7826H18.24V21.9826H30V16.7826Z" fill="#FF7381"/>
<path d="M43.5734 16.7826H31.8134V21.9826H43.5734V16.7826Z" fill="#E62323"/>
</g>
<defs>
<linearGradient id="firewall_paint0_linear" x1="24.1067" y1="20.9422" x2="24.1067" y2="48.4622" gradientUnits="userSpaceOnUse">
<stop stop-color="#B3B2B3"/>
<stop offset="0.38" stop-color="#B6B5B5"/>
<stop offset="0.61" stop-color="#BEBDBE"/>
<stop offset="0.8" stop-color="#CCCBCB"/>
<stop offset="0.96" stop-color="#E0E0DF"/>
<stop offset="1" stop-color="#E5E5E4"/>
</linearGradient>
<clipPath id="firewall_clip0">
<rect width="48" height="48" fill="white" transform="translate(0 0.569092)"/>
</clipPath>
</defs>
</svg>
