<svg data-slug-id="fluid-relay" viewBox="0 0 102 101" xmlns="http://www.w3.org/2000/svg"><defs><clipPath id="fluid-relay_clip0"><rect x="170" y="272" width="102" height="101"/></clipPath></defs><g clip-path="url(#fluid-relay_clip0)" transform="translate(-170 -272)"><path d="M7.676 21.4625C7.676 15.1872 12.7632 10.1 19.0385 10.1L36.7135 10.1C42.9888 10.1 48.076 15.1872 48.076 21.4625L48.076 39.1375C48.076 45.4128 42.9888 50.5 36.7135 50.5L19.0385 50.5C12.7632 50.5 7.676 45.4128 7.676 39.1375Z" fill="#0078D4" transform="matrix(1.0099 0 0 1 162.248 261.9)"/><path d="M58.176 71.9625C58.176 65.6874 63.2634 60.6 69.5385 60.6L97.3135 60.6C103.589 60.6 108.676 65.6874 108.676 71.9625L108.676 99.7375C108.676 106.013 103.589 111.1 97.3135 111.1L69.5385 111.1C63.2634 111.1 58.176 106.013 58.176 99.7375Z" fill="#0078D4" transform="matrix(1.0099 0 0 1 162.248 261.9)"/><path d="M82.3655 25.25 53.126 25.25 53.126 41.3595C53.126 49.1967 46.7728 55.55 38.9356 55.55 38.9187 55.55 38.9019 55.55 38.885 55.55L22.826 55.55 22.826 84.7895C22.7701 90.8975 27.6762 95.8939 33.7839 95.9495 33.8346 95.95 33.8853 95.95 33.936 95.95L53.227 95.95 53.227 69.2355C53.1715 61.7332 59.2077 55.6061 66.71 55.5505 66.7438 55.55 66.7777 55.55 66.8115 55.55L93.4755 55.55 93.4755 36.36C93.5033 30.2521 88.5745 25.278 82.4665 25.25 82.4332 25.2498 82.3993 25.2498 82.3655 25.25Z" fill="#50E6FF" transform="matrix(1.0099 0 0 1 162.248 261.9)"/></g></svg>