<svg data-slug-id="form-recognizer01" viewBox="0 0 48 48" xmlns="http://www.w3.org/2000/svg">
<path d="M23.531 0.283287H3.49637C3.07673 0.283994 2.67452 0.451191 2.37804 0.748172C2.08156 1.04515 1.91504 1.44765 1.91504 1.86729V45.0673C1.91504 45.4869 2.08156 45.8894 2.37804 46.1864C2.67452 46.4834 3.07673 46.6506 3.49637 46.6513H38.219C38.6387 46.6506 39.0409 46.4834 39.3374 46.1864C39.6339 45.8894 39.8004 45.4869 39.8004 45.0673V16.478C39.8004 16.0583 39.6339 15.6558 39.3374 15.3588C39.0409 15.0619 38.6387 14.8947 38.219 14.894H26.6937C26.2741 14.8932 25.8719 14.726 25.5754 14.4291C25.2789 14.1321 25.1124 13.7296 25.1124 13.31V1.86729C25.1127 1.6594 25.0721 1.45348 24.9928 1.26132C24.9135 1.06915 24.797 0.894514 24.6502 0.747391C24.5033 0.600268 24.3288 0.48355 24.1368 0.403913C23.9448 0.324277 23.7389 0.283287 23.531 0.283287Z" fill="#83B9F9"/>
<path d="M22.8004 2.30449V13.1578C22.8011 14.2126 23.22 15.224 23.9654 15.9704C24.7107 16.7167 25.7216 17.137 26.7764 17.1392H37.7097V44.6325H4.00038V2.30449H22.8004ZM23.5657 -0.0688477H3.24038C2.81603 -0.0688477 2.40907 0.0997233 2.10901 0.399782C1.80895 0.69984 1.64038 1.10681 1.64038 1.53115V45.3978C1.64038 45.6079 1.68177 45.816 1.76217 46.0101C1.84258 46.2042 1.96044 46.3806 2.10901 46.5292C2.25758 46.6778 2.43397 46.7956 2.62809 46.876C2.82221 46.9564 3.03027 46.9978 3.24038 46.9978H38.4751C38.8994 46.9978 39.3064 46.8293 39.6064 46.5292C39.9065 46.2291 40.0751 45.8222 40.0751 45.3978V16.3712C40.0751 15.9468 39.9065 15.5398 39.6064 15.2398C39.3064 14.9397 38.8994 14.7712 38.4751 14.7712H26.7764C26.352 14.7712 25.9451 14.6026 25.645 14.3025C25.345 14.0025 25.1764 13.5955 25.1764 13.1712V1.53115C25.1764 1.10681 25.0078 0.69984 24.7078 0.399782C24.4077 0.0997233 24.0007 -0.0688477 23.5764 -0.0688477L23.5657 -0.0688477Z" fill="url(#form-recognizer01_paint0_linear)"/>
<path d="M39.4674 15.086L24.6194 0.283287V12.3446C24.6152 13.067 24.8979 13.7615 25.4054 14.2755C25.9129 14.7895 26.6038 15.081 27.3261 15.086H39.4674Z" fill="#0078D4"/>
<path d="M31.5521 22.142H8.67472C7.83966 22.142 7.16272 22.8189 7.16272 23.654V24.2567C7.16272 25.0917 7.83966 25.7687 8.67472 25.7687H31.5521C32.3871 25.7687 33.0641 25.0917 33.0641 24.2567V23.654C33.0641 22.8189 32.3871 22.142 31.5521 22.142Z" fill="white"/>
<path opacity="0.8" d="M31.5521 29.4858H8.67472C7.83966 29.4858 7.16272 30.1628 7.16272 30.9978V31.6005C7.16272 32.4356 7.83966 33.1125 8.67472 33.1125H31.5521C32.3871 33.1125 33.0641 32.4356 33.0641 31.6005V30.9978C33.0641 30.1628 32.3871 29.4858 31.5521 29.4858Z" fill="white"/>
<path opacity="0.6" d="M31.5521 36.8323H8.67472C7.83966 36.8323 7.16272 37.5092 7.16272 38.3443V38.947C7.16272 39.782 7.83966 40.459 8.67472 40.459H31.5521C32.3871 40.459 33.0641 39.782 33.0641 38.947V38.3443C33.0641 37.5092 32.3871 36.8323 31.5521 36.8323Z" fill="white"/>
<path d="M33.8937 47.363C28.3577 47.363 23.8057 43.0963 21.4004 35.6297C19.8437 31.747 18.0876 27.9473 16.139 24.2457C19.659 24.283 31.9657 24.4137 34.3204 24.4137C39.9524 24.4137 44.3177 31.1443 44.3177 36.947C44.3121 39.7092 43.2118 42.3564 41.2579 44.3088C39.304 46.2612 36.6559 47.3595 33.8937 47.363Z" fill="#50E6FF"/>
<path d="M17.067 24.8243C21.451 24.8697 32.1497 24.9817 34.3177 24.9817C39.6297 24.9817 43.747 31.4083 43.747 36.9363C43.747 39.5531 42.7075 42.0628 40.8571 43.9131C39.0067 45.7635 36.4971 46.803 33.8803 46.803C28.6083 46.803 24.251 42.6697 21.9257 35.4617C20.4958 31.8323 18.8739 28.2815 17.067 24.8243ZM15.2003 23.6643C15.2003 23.6643 19.8377 32.6403 20.8563 35.7977C23.2003 43.0617 27.8217 47.931 33.8937 47.931C36.8096 47.931 39.6062 46.7726 41.6681 44.7107C43.73 42.6488 44.8883 39.8523 44.8883 36.9363C44.8883 30.8643 40.395 23.843 34.3203 23.843C31.5657 23.843 15.2003 23.6643 15.2003 23.6643Z" fill="#50E6FF"/>
<path d="M34.32 47.9312C40.971 47.9312 46.3627 42.5395 46.3627 35.8885C46.3627 29.2375 40.971 23.8458 34.32 23.8458C27.669 23.8458 22.2773 29.2375 22.2773 35.8885C22.2773 42.5395 27.669 47.9312 34.32 47.9312Z" fill="white"/>
<path d="M34.32 25.1205C36.4498 25.12 38.532 25.7511 40.3031 26.934C42.0742 28.1169 43.4548 29.7984 44.2702 31.766C45.0856 33.7335 45.2993 35.8987 44.8841 37.9876C44.4689 40.0766 43.4436 41.9955 41.9377 43.5017C40.4319 45.0079 38.5132 46.0337 36.4244 46.4494C34.3355 46.8652 32.1703 46.6521 30.2025 45.8371C28.2348 45.0222 26.5529 43.642 25.3696 41.8712C24.1863 40.1004 23.5547 38.0184 23.5547 35.8885C23.5575 33.034 24.6925 30.2972 26.7107 28.2785C28.7289 26.2598 31.4655 25.1241 34.32 25.1205ZM34.32 23.8432C31.9377 23.8432 29.6088 24.5497 27.628 25.8732C25.6471 27.1968 24.1032 29.078 23.1916 31.279C22.2799 33.48 22.0413 35.9019 22.5061 38.2385C22.9709 40.575 24.1181 42.7213 25.8027 44.4059C27.4872 46.0905 29.6335 47.2377 31.9701 47.7024C34.3066 48.1672 36.7286 47.9287 38.9295 47.017C41.1305 46.1053 43.0118 44.5614 44.3353 42.5806C45.6589 40.5997 46.3653 38.2709 46.3653 35.8885C46.3657 34.3066 46.0544 32.7401 45.4492 31.2786C44.8439 29.817 43.9567 28.489 42.8381 27.3704C41.7195 26.2518 40.3915 25.3646 38.93 24.7594C37.4684 24.1542 35.9019 23.8429 34.32 23.8432Z" fill="#50E6FF"/>
<path d="M32.8643 34.3311H28.9763V30.4377H32.8643V34.3311ZM39.667 30.4431H35.779V34.3311H39.667V30.4431ZM32.8643 37.2644H28.9763V41.1524H32.8643V37.2644ZM39.667 37.2644H35.779V41.1524H39.667V37.2644Z" fill="#50E6FF"/>
<defs>
<linearGradient id="form-recognizer01_paint0_linear" x1="20.859" y1="47.0058" x2="20.859" y2="-0.0688477" gradientUnits="userSpaceOnUse">
<stop stop-color="#0078D4"/>
<stop offset="0.817" stop-color="#5EA0EF"/>
</linearGradient>
</defs>
</svg>
