<svg data-slug-id="frame" viewBox="0 0 49 48" xmlns="http://www.w3.org/2000/svg">
<g clip-path="url(#frame_clip0)">
<path d="M1.38969 23.3886L2.98718 21.7956L15.5822 34.4264C15.7176 34.5621 15.7934 34.746 15.7932 34.9377C15.7929 35.1293 15.7165 35.313 15.5808 35.4484L13.9833 37.0413C13.8476 37.1767 13.6637 37.2526 13.472 37.2523C13.2803 37.252 13.0966 37.1756 12.9613 37.0399L1.3868 25.4326C1.11613 25.1612 0.964376 24.7934 0.964918 24.41C0.96546 24.0267 1.11825 23.6593 1.38969 23.3886Z" fill="url(#frame_paint0_linear)"/>
<path d="M2.97029 27.029L1.37543 25.4296C1.10476 25.1582 0.953001 24.7903 0.953543 24.407C0.954085 24.0237 1.10688 23.6563 1.37832 23.3856L13.1725 11.6247C13.3082 11.4894 13.4922 11.4135 13.6838 11.4138C13.8755 11.414 14.0592 11.4904 14.1945 11.6261L15.7913 13.2274C15.9266 13.3631 16.0025 13.547 16.0022 13.7387C16.0019 13.9304 15.9255 14.1141 15.7898 14.2494L2.97217 27.0309L2.97029 27.029Z" fill="#50E6FF"/>
<path d="M35.3607 37.0408L33.7613 35.4459C33.6256 35.3106 33.5492 35.1269 33.5489 34.9352C33.5486 34.7436 33.6245 34.5597 33.7599 34.4239L46.3549 21.7932L47.9543 23.3881C48.2257 23.6588 48.3785 24.0262 48.3791 24.4095C48.3796 24.7928 48.2279 25.1607 47.9572 25.4321L36.3827 37.0394C36.2474 37.1751 36.0636 37.2515 35.872 37.2517C35.6803 37.252 35.4964 37.1761 35.3607 37.0408Z" fill="url(#frame_paint1_linear)"/>
<path d="M33.535 13.2386L35.1299 11.6393C35.2652 11.5035 35.4489 11.4272 35.6406 11.4269C35.8323 11.4266 36.0162 11.5025 36.1519 11.6378L47.9461 23.3987C48.2175 23.6694 48.3703 24.0368 48.3709 24.4201C48.3714 24.8035 48.2197 25.1713 47.949 25.4427L46.3541 27.0421L33.544 14.2682C33.4083 14.1328 33.3319 13.9491 33.3316 13.7575C33.3314 13.5658 33.4072 13.3819 33.5426 13.2462L33.535 13.2386Z" fill="#50E6FF"/>
<path d="M31.5229 7.66869L28.9705 6.85156C28.6998 6.7649 28.4101 6.91409 28.3234 7.1848L17.9187 39.6853C17.832 39.956 17.9812 40.2457 18.2519 40.3323L20.8043 41.1495C21.075 41.2361 21.3647 41.0869 21.4514 40.8162L31.8561 8.31577C31.9428 8.04506 31.7936 7.75535 31.5229 7.66869Z" fill="url(#frame_paint2_linear)"/>
</g>
<defs>
<linearGradient id="frame_paint0_linear" x1="8.62929" y1="23.0936" x2="8.09329" y2="37.1549" gradientUnits="userSpaceOnUse">
<stop stop-color="#0078D4"/>
<stop offset="0.325" stop-color="#1B84DC"/>
<stop offset="1" stop-color="#5EA0EF"/>
</linearGradient>
<linearGradient id="frame_paint1_linear" x1="41.167" y1="24.3757" x2="40.6284" y2="38.437" gradientUnits="userSpaceOnUse">
<stop stop-color="#0078D4"/>
<stop offset="0.325" stop-color="#1B84DC"/>
<stop offset="1" stop-color="#5EA0EF"/>
</linearGradient>
<linearGradient id="frame_paint2_linear" x1="20.1013" y1="42.6209" x2="28.9733" y2="8.10886" gradientUnits="userSpaceOnUse">
<stop stop-color="#0078D4"/>
<stop offset="0.325" stop-color="#1B84DC"/>
<stop offset="1" stop-color="#5EA0EF"/>
</linearGradient>
<clipPath id="frame_clip0">
<rect width="48" height="48" fill="white" transform="translate(0.666656)"/>
</clipPath>
</defs>
</svg>
