<svg data-slug-id="free-account"
	 xmlns="http://www.w3.org/2000/svg"
	 viewBox="0 0 72 57">
	<defs>
		<clipPath id="free-account_d9943ab8-d693-40f6-88c4-48a77a36b9cb" transform="translate(0 0)">
			<rect y="-8" width="72" height="72" style="fill:none"/>
		</clipPath>
	</defs>
	<g clip-path="url(#free-account_d9943ab8-d693-40f6-88c4-48a77a36b9cb)">
		<path d="M26.28,9.33A9.36,9.36,0,1,1,16.89,0h0a9.34,9.34,0,0,1,9.35,9.33Z" transform="translate(0 0)" style="fill:#50e6ff;fill-rule:evenodd"/>
		<path d="M16.63,22.71A16.61,16.61,0,0,1,33.27,39.29h0v2.07H0V39.29A16.61,16.61,0,0,1,16.63,22.71Z" transform="translate(0 0)" style="fill:#50e6ff;fill-rule:evenodd"/>
		<path d="M65.6,43.81h-.1a12,12,0,0,0,.83-4.39A11.54,11.54,0,0,0,55,27.72a10.9,10.9,0,0,0-3.79.68A16.82,16.82,0,0,0,37.9,21.87,17.3,17.3,0,0,0,20.83,39.4v0a17.69,17.69,0,0,0,.56,4.4A6.59,6.59,0,1,0,21.5,57H65.6a6.58,6.58,0,1,0,0-13.16Z" transform="translate(0 0)" style="fill:#0078d4;fill-rule:evenodd"/>
		<path d="M47.5,35.33H45.42v5H41.06v2.11h4.36v4.78H47.5V42.48H53V40.37H47.5Z" transform="translate(0 0)" style="fill:#fff;fill-rule:evenodd"/>
	</g>
</svg>
