<svg data-slug-id="function32" viewBox="0 0 48 48" xmlns="http://www.w3.org/2000/svg">
<path d="M47.2216 21.9456C47.2467 21.8364 47.2634 21.7355 47.2885 21.6262C47.4141 20.9707 47.481 20.2983 47.481 19.6007C47.481 13.6585 42.686 8.85934 36.7865 8.85934C35.958 8.85934 35.1547 8.9518 34.3931 9.1367C31.9496 5.2705 27.6567 2.70703 22.753 2.70703C15.1463 2.70703 8.99568 8.90977 8.99568 16.5245C8.99568 16.7178 8.99568 16.9027 9.00404 17.0876C8.30948 16.8523 7.57308 16.7178 6.79484 16.7178C3.04589 16.7178 0.0166016 19.7604 0.0166016 23.5257C0.0166016 27.0557 2.69442 29.9554 6.12538 30.2916L36.7865 30.3504C40.8199 30.3504 44.3178 28.1147 46.1421 24.8285C46.1923 24.736 46.2425 24.6436 46.2927 24.5427C46.5605 23.9796 46.9705 23.0887 47.2216 21.9456Z" fill="#50E6FF"/>
<path d="M48.0001 26.703L28.929 34.7379L9.86621 26.703L28.929 18.668L48.0001 26.703Z" fill="#0078D7"/>
<path d="M28.9292 36.3278L17.833 31.6211V34.7141C17.833 37.8406 22.6364 40.3789 28.6531 40.3789C34.6614 40.3789 39.9418 37.8406 39.9418 34.7141V31.8564L28.9292 36.3278Z" fill="#0078D7"/>
<path d="M42.0001 42.3949C43.1139 42.3949 44.0169 41.488 44.0169 40.3693C44.0169 39.2506 43.1139 38.3438 42.0001 38.3438C40.8863 38.3438 39.9834 39.2506 39.9834 40.3693C39.9834 41.488 40.8863 42.3949 42.0001 42.3949Z" fill="#0078D7"/>
<path d="M42.7449 41.0138C42.7449 41.0138 43.5817 43.0645 44.9039 43.905C46.2261 44.7455 47.4813 45.1069 47.4813 45.1069L43.7072 47.9982C43.7072 47.9982 41.7323 47.393 41.4311 44.4429C41.1298 41.4928 42.1842 40.375 42.1842 40.375L42.7449 41.0138Z" fill="#0078D7"/>
<path d="M42.8534 26.7188H41.1128V39.2503H42.8534V26.7188Z" fill="#0078D7"/>
</svg>
