<svg data-slug-id="function37" viewBox="0 0 49 49" xmlns="http://www.w3.org/2000/svg">
<path d="M25.9859 34.3233V3.44531H24.4379V34.3233V36.8998L24.4277 40.0671C24.4277 40.0773 24.4277 40.0772 24.4277 40.0874C24.4277 41.4623 23.3075 42.5825 21.9326 42.5825C20.5578 42.5825 19.4376 41.4623 19.4376 40.0874C19.4376 40.0772 19.4376 40.0773 19.4376 40.0671H17.8794C17.8794 40.0773 17.8794 40.0772 17.8794 40.0874C17.8794 42.3279 19.6922 44.1407 21.9326 44.1407C24.1731 44.1407 25.9859 42.3279 25.9859 40.0874V34.3233Z" fill="#0078D4"/>
<path d="M48.0243 24.0679C46.0894 15.7679 36.5062 9.4538 24.9779 9.4538C13.4394 9.4538 3.85621 15.7679 1.92125 24.0882C1.91106 24.1086 1.91106 24.129 1.91106 24.1493C1.91106 24.1697 1.90088 24.1901 1.90088 24.2003C1.90088 24.4141 2.07401 24.5873 2.28787 24.5873C2.41008 24.5873 2.51192 24.5363 2.58321 24.4447C3.50995 23.2226 4.92553 22.4486 6.51424 22.4486C8.30663 22.4486 9.87497 23.4466 10.7813 24.9539C10.9341 25.2085 11.3007 25.2085 11.4535 24.9539C12.3599 23.4466 13.9282 22.4486 15.7206 22.4486C17.5435 22.4486 19.1424 23.4772 20.0386 25.0252C20.1914 25.29 20.5682 25.29 20.721 25.0252C21.6172 23.4772 23.216 22.4486 25.039 22.4486C26.8416 22.4486 28.4201 23.4568 29.3163 24.9742C29.469 25.2289 29.8357 25.2289 29.9884 24.9742C30.8948 23.4568 32.4733 22.4486 34.2657 22.4486C36.0479 22.4486 37.6264 23.4365 38.5328 24.9437C38.6856 25.1983 39.0522 25.1983 39.205 24.9437C40.1113 23.4466 41.6797 22.4486 43.4721 22.4486C45.02 22.4486 46.4051 23.192 47.342 24.3734C47.4133 24.465 47.5253 24.516 47.6475 24.516C47.8614 24.516 48.0345 24.3428 48.0345 24.129C48.0345 24.1086 48.0345 24.0882 48.0243 24.0679Z" fill="#0078D4"/>
</svg>
