<svg data-slug-id="function21" viewBox="0 0 48 48" xmlns="http://www.w3.org/2000/svg">
<path d="M46.4753 22.3089L30.0463 5.81228C29.0998 4.86575 27.6124 4.86575 26.6659 5.81228L26.125 6.35315L42.0131 22.2413C42.9597 23.1878 42.9597 24.6752 42.0131 25.6217L26.125 41.5775L26.6659 42.1184C27.6124 43.0649 29.0998 43.0649 30.0463 42.1184L46.5429 25.6217C47.4219 24.7428 47.4219 23.2554 46.4753 22.3089Z" fill="#50E6FF"/>
<path d="M37.8216 22.3089L21.3926 5.81228C20.4461 4.86575 18.9587 4.86575 18.0122 5.81228L14.5641 9.26034L18.8911 13.5873C19.1615 13.5197 19.432 13.4521 19.77 13.4521C21.325 13.4521 22.6096 14.7367 22.6096 16.2917C22.6096 16.6297 22.542 16.9002 22.4744 17.1706L26.6661 21.3624C26.9366 21.2272 27.2746 21.2271 27.6127 21.2271C29.1677 21.2271 30.4522 22.5117 30.4522 24.0667C30.4522 25.6217 29.1677 26.9063 27.6127 26.9063C26.0577 26.9063 24.7731 25.6217 24.7731 24.0667C24.7731 23.6611 24.8407 23.2554 25.0435 22.9174L21.1222 18.9961V29.4079C22.0011 29.8811 22.6772 30.8276 22.6772 31.977C22.6772 33.532 21.3926 34.8166 19.8376 34.8166C18.2826 34.8166 16.998 33.532 16.998 31.977C16.998 30.76 17.7417 29.7459 18.7559 29.3402V18.9961C17.7417 18.5904 16.998 17.5087 16.998 16.3593C16.998 15.9536 17.0656 15.548 17.2685 15.1423L13.0767 10.9506L1.51556 22.3089C0.569032 23.2554 0.569032 24.7428 1.51556 25.6894L18.0122 42.186C18.9587 43.1325 20.4461 43.1325 21.3926 42.186L37.8892 25.6894C38.7682 24.7428 38.7682 23.2554 37.8216 22.3089Z" fill="#0078D4"/>
</svg>
