<svg data-slug-id="function40" viewBox="0 0 48 49" xmlns="http://www.w3.org/2000/svg">
<path d="M27.5181 39.784L17.5911 44.1528L8.59909 23.7301C10.4543 24.0144 12.4068 23.7899 14.2546 22.9745C16.0575 22.1816 17.5162 20.9323 18.5561 19.4211L27.5181 39.784Z" fill="#0078D4"/>
<path d="M10.1321 22.0548C8.04491 22.0548 6.12981 21.2917 4.65611 20.0349C4.3045 19.7357 3.97535 19.4066 3.68359 19.055C2.44178 17.5887 1.70117 15.6885 1.70117 13.6164C1.70117 11.5592 2.44177 9.66649 3.66863 8.2077C5.21717 6.35995 7.5437 5.17798 10.1396 5.17798C14.8001 5.17798 18.5779 8.9558 18.5779 13.6164C18.5779 16.2347 17.381 18.5762 15.5108 20.1247C14.0445 21.3366 12.1743 22.0548 10.1321 22.0548Z" fill="#0078D4"/>
<path d="M7.05807 13.6161C7.05807 15.3142 8.43463 16.6907 10.1327 16.6907C11.8308 16.6907 13.2073 15.3142 13.2073 13.6161C13.2073 11.9181 11.8308 10.5415 10.1327 10.5415C8.43463 10.5415 7.05807 11.9181 7.05807 13.6161Z" fill="#50E6FF"/>
<path d="M4.64932 47.6688L9.13784 38.6619H33.8695L38.358 47.6688H4.64932Z" fill="#50E6FF"/>
<path fill-rule="evenodd" clip-rule="evenodd" d="M41.9477 25.0355L46.2998 20.6834L43.4128 17.7963L41.2743 19.9348C40.9024 20.3067 40.2994 20.3067 39.9275 19.9348L34.2972 14.3046C33.9254 13.9326 33.9254 13.3297 34.2972 12.9577L39.9275 7.32751C40.2994 6.95558 40.9024 6.95558 41.2743 7.32751L43.4128 9.46599L46.2998 6.57893L41.9477 2.22681C41.2039 1.48299 39.9979 1.48299 39.2541 2.22681L33.2734 8.20752H18.7819C19.7619 9.77849 20.3305 11.6337 20.3305 13.6162C20.3305 15.6136 19.7544 17.4763 18.767 19.0547H33.2733L39.2541 25.0355C39.9979 25.7793 41.2039 25.7793 41.9477 25.0355ZM28.7473 15.5973C27.6531 15.5973 26.7661 14.7103 26.7661 13.6161C26.7661 12.5219 27.6531 11.6349 28.7473 11.6349C29.8415 11.6349 30.7285 12.5219 30.7285 13.6161C30.7285 14.7103 29.8415 15.5973 28.7473 15.5973Z" fill="#0078D4"/>
</svg>
