<svg data-slug-id="function12" viewBox="0 0 48 48" xmlns="http://www.w3.org/2000/svg">
<path d="M23.7717 46.9844C36.4151 46.9844 46.6646 36.7349 46.6646 24.0916C46.6646 11.4482 36.4151 1.19873 23.7717 1.19873C11.1284 1.19873 0.878906 11.4482 0.878906 24.0916C0.878906 36.7349 11.1284 46.9844 23.7717 46.9844Z" fill="#0078D4"/>
<path d="M30.0236 14.1732V33.3677C30.0236 34.5925 28.477 35.1958 27.581 34.3373L22.277 29.2552H16.1925C15.4023 29.2552 14.7617 28.6413 14.7617 27.8841V19.6569C14.7617 18.8997 15.4023 18.2858 16.1925 18.2858H22.277L27.5811 13.2035C28.476 12.346 30.0236 12.9471 30.0236 14.1732Z" fill="#50E6FF"/>
</svg>
