<svg data-slug-id="function39" viewBox="0 0 48 49" xmlns="http://www.w3.org/2000/svg">
<path d="M33.935 47.2034H15.065C13.9244 47.2034 13 46.279 13 45.1384V3.26836C13 2.12778 13.9244 1.20337 15.065 1.20337H33.935C35.0756 1.20337 36 2.12778 36 3.26836V45.1384C36 46.279 35.0756 47.2034 33.935 47.2034Z" fill="#2F76BC"/>
<path d="M33.2588 5.3605H15.7363V40.2767H33.2588V5.3605Z" fill="#50E6FF"/>
<path d="M26.2729 44.6227H22.7271C22.166 44.6227 21.7061 44.1674 21.7061 43.6017C21.7061 43.0406 22.1614 42.5807 22.7271 42.5807H26.2729C26.834 42.5807 27.2939 43.036 27.2939 43.6017C27.2893 44.1628 26.834 44.6227 26.2729 44.6227Z" fill="#74CFEB"/>
</svg>
