<svg data-slug-id="function29" viewBox="0 0 48 48" xmlns="http://www.w3.org/2000/svg">
<path d="M41.4375 21.9924H36.6602V11.5778H24.4301V6.41823C24.4301 3.26517 21.8503 0.589844 18.6017 0.589844C15.3531 0.589844 12.7733 3.16962 12.7733 6.41823V11.5778H0.734375V21.9924H5.034C8.18706 21.9924 10.8624 24.5722 10.8624 27.8208C10.8624 30.9739 8.28261 33.6492 5.034 33.6492H0.734375V47.408H12.8689V42.7262C12.8689 39.5731 15.4487 36.8978 18.6973 36.8978C21.9459 36.8978 24.5257 39.4776 24.5257 42.7262V47.408H36.6602V33.5537H41.4375C44.5906 33.5537 47.2659 30.9739 47.2659 27.7253C47.1704 24.5722 44.5906 21.9924 41.4375 21.9924Z" fill="#0078D4"/>
</svg>
