<svg data-slug-id="function02" viewBox="0 0 49 49" xmlns="http://www.w3.org/2000/svg">
<path d="M14.7397 35.8781C14.7397 30.3561 19.2176 25.8862 24.7496 25.8862C30.2816 25.8862 34.7594 30.3561 34.7594 35.8781H14.7397Z" fill="#0078D7"/>
<path d="M30.4508 18.6378C30.4508 21.7692 27.9125 24.303 24.7754 24.303C21.6384 24.303 19.1001 21.7692 19.1001 18.6378C19.1001 15.5064 21.6384 12.9727 24.7754 12.9727C27.9125 12.9727 30.4508 15.5148 30.4508 18.6378Z" fill="#0078D7"/>
<path d="M24.7832 47.0156L5.15991 35.7021V13.0835L24.7832 1.76996L44.4066 13.0835V35.7021L24.7832 47.0156ZM6.42485 34.9781L24.7832 45.5593L43.1416 34.9781V13.8074L24.7832 3.22624L6.42485 13.8074V34.9781Z" fill="#50E6FF"/>
<path d="M24.6567 5.69999C26.1005 5.69999 27.2709 4.53167 27.2709 3.09047C27.2709 1.64928 26.1005 0.480957 24.6567 0.480957C23.2129 0.480957 22.0425 1.64928 22.0425 3.09047C22.0425 4.53167 23.2129 5.69999 24.6567 5.69999Z" fill="#0078D7"/>
<path d="M24.6567 48.4523C26.1005 48.4523 27.2709 47.284 27.2709 45.8428C27.2709 44.4016 26.1005 43.2333 24.6567 43.2333C23.2129 43.2333 22.0425 44.4016 22.0425 45.8428C22.0425 47.284 23.2129 48.4523 24.6567 48.4523Z" fill="#0078D7"/>
<path d="M43.7155 38.4957C45.1593 38.4957 46.3297 37.3274 46.3297 35.8862C46.3297 34.445 45.1593 33.2767 43.7155 33.2767C42.2717 33.2767 41.1013 34.445 41.1013 35.8862C41.1013 37.3274 42.2717 38.4957 43.7155 38.4957Z" fill="#0078D7"/>
<path d="M43.7155 15.6996C45.1593 15.6996 46.3297 14.5313 46.3297 13.0901C46.3297 11.6489 45.1593 10.4806 43.7155 10.4806C42.2717 10.4806 41.1013 11.6489 41.1013 13.0901C41.1013 14.5313 42.2717 15.6996 43.7155 15.6996Z" fill="#0078D7"/>
<path d="M5.75898 38.4276C7.15153 38.4276 8.28042 37.3008 8.28042 35.9107C8.28042 34.5207 7.15153 33.3938 5.75898 33.3938C4.36643 33.3938 3.23755 34.5207 3.23755 35.9107C3.23755 37.3008 4.36643 38.4276 5.75898 38.4276Z" fill="#0078D7"/>
<path d="M5.75898 15.784C7.15153 15.784 8.28042 14.6571 8.28042 13.267C8.28042 11.877 7.15153 10.7501 5.75898 10.7501C4.36643 10.7501 3.23755 11.877 3.23755 13.267C3.23755 14.6571 4.36643 15.784 5.75898 15.784Z" fill="#0078D7"/>
</svg>
