<svg data-slug-id="function03" viewBox="0 0 48 49" xmlns="http://www.w3.org/2000/svg">
<path d="M36.5125 10.033C33.8097 9.3151 32.0191 9.96546 30.1272 10.6665C28.5393 11.2493 26.7318 11.9165 23.8939 11.9165C21.0559 11.9165 19.2484 11.2493 17.6605 10.6665C15.7686 9.96546 13.9864 9.30665 11.2752 10.033C5.99626 11.452 3.64821 16.5535 1.58732 24.3325C-0.710054 32.9646 -0.186387 39.1641 2.93872 40.5071C6.29188 41.9514 9.7295 38.0746 12.238 35.2535L12.8377 34.5694C14.9746 32.1031 19.2907 30.9797 23.8939 30.9797C29.4093 30.9797 32.8131 32.1031 34.95 34.5694L35.5497 35.2535C37.6866 37.6607 40.4907 40.8196 43.3456 40.8196C43.8439 40.8196 44.3422 40.7267 44.849 40.5071C47.9741 39.1641 48.4978 32.9646 46.2088 24.3325C44.1395 16.5535 41.7999 11.4435 36.5125 10.033Z" fill="#0078D4"/>
<path d="M17.6688 22.0605C17.6688 24.189 15.9458 25.912 13.8173 25.912C11.6889 25.912 9.96582 24.189 9.96582 22.0605C9.96582 19.9321 11.6889 18.209 13.8173 18.209C15.9458 18.209 17.6688 19.9405 17.6688 22.0605Z" fill="#50E6FF"/>
<path d="M35.3305 19.5261C35.3305 20.2524 34.7393 20.8352 34.0213 20.8352C33.2949 20.8352 32.7122 20.244 32.7122 19.5261C32.7122 18.7997 33.3034 18.2169 34.0213 18.2169C34.7393 18.2169 35.3305 18.8081 35.3305 19.5261Z" fill="white"/>
<path d="M32.797 24.5104C32.797 25.2368 32.2058 25.8196 31.4879 25.8196C30.7615 25.8196 30.1787 25.2284 30.1787 24.5104C30.1787 23.7841 30.7699 23.2013 31.4879 23.2013C32.2058 23.2013 32.797 23.7925 32.797 24.5104Z" fill="white"/>
</svg>
