<svg data-slug-id="function24" viewBox="0 0 49 48" xmlns="http://www.w3.org/2000/svg">
<path d="M12.6309 0V48H35.3677V0H12.6309ZM23.9993 16.4211C23 16.4211 22.0231 16.1247 21.1922 15.5695C20.3613 15.0143 19.7137 14.2252 19.3313 13.302C18.9488 12.3787 18.8488 11.3628 19.0437 10.3827C19.2387 9.40259 19.7199 8.50229 20.4265 7.79567C21.1332 7.08905 22.0334 6.60783 23.0136 6.41287C23.9937 6.21792 25.0096 6.31798 25.9328 6.7004C26.8561 7.08282 27.6452 7.73043 28.2004 8.56133C28.7556 9.39223 29.0519 10.3691 29.0519 11.3684C29.0519 12.7085 28.5196 13.9936 27.572 14.9412C26.6245 15.8887 25.3393 16.4211 23.9993 16.4211Z" fill="#0078D4"/>
<path d="M23.9999 29.0545C26.7904 29.0545 29.0525 26.7923 29.0525 24.0019C29.0525 21.2114 26.7904 18.9492 23.9999 18.9492C21.2094 18.9492 18.9473 21.2114 18.9473 24.0019C18.9473 26.7923 21.2094 29.0545 23.9999 29.0545Z" fill="#50E6FF"/>
<path d="M23.9999 41.6834C26.7904 41.6834 29.0525 39.4212 29.0525 36.6308C29.0525 33.8403 26.7904 31.5781 23.9999 31.5781C21.2094 31.5781 18.9473 33.8403 18.9473 36.6308C18.9473 39.4212 21.2094 41.6834 23.9999 41.6834Z" fill="#50E6FF"/>
<path d="M5.05263 5.05078L0 10.1034H2.52632V42.9455H7.57895V10.1034H10.1053L5.05263 5.05078Z" fill="#50E6FF"/>
<path d="M45.4754 37.8929V5.05078H40.4228V37.8929H37.8965L42.9491 42.9455L48.0017 37.8929H45.4754Z" fill="#0078D4"/>
</svg>
