<svg data-slug-id="function33" viewBox="0 0 48 48" xmlns="http://www.w3.org/2000/svg">
<path fill-rule="evenodd" clip-rule="evenodd" d="M39.6843 21.758C41.7436 30.1764 36.5125 38.6514 28.0009 40.6882C19.4904 42.724 10.9207 37.551 8.86234 29.1326C6.80302 20.7142 12.0342 12.2392 20.5448 10.2024C20.5544 10.2005 20.5641 10.1976 20.5738 10.1957C29.0447 8.14835 37.5891 13.2792 39.6601 21.6573C39.6678 21.6909 39.6766 21.7244 39.6843 21.758Z" fill="#0078D4"/>
<path fill-rule="evenodd" clip-rule="evenodd" d="M22.0302 31.7178C22.0253 29.4164 20.1346 27.555 17.8079 27.5608H17.1702C17.7109 25.3361 16.3271 23.1 14.0778 22.5651C13.7464 22.4856 13.4053 22.4472 13.0642 22.4501H8.6858C7.73899 27.2694 9.1529 32.2478 12.5011 35.8738H17.8069C20.1337 35.8795 22.0244 34.0181 22.0302 31.7178Z" fill="#50E6FF"/>
<path fill-rule="evenodd" clip-rule="evenodd" d="M27.2586 14.4804C27.2586 14.7239 27.2906 14.9664 27.3546 15.2021H25.5317C23.1148 15.2021 21.1562 17.1402 21.1562 19.5307C21.1562 21.9202 23.1148 23.8583 25.5317 23.8583H40.0235C39.5516 18.6882 36.466 14.1047 31.825 11.6797H30.0981C28.532 11.6787 27.2625 12.9315 27.2586 14.4804Z" fill="#50E6FF"/>
<path fill-rule="evenodd" clip-rule="evenodd" d="M40.0247 27.0774L31.3795 27.0774C29.4073 27.0726 27.8054 28.6474 27.7977 30.597C27.7967 31.1826 27.945 31.7596 28.228 32.2734C26.3518 32.8533 25.3062 34.8287 25.8925 36.6853C26.3586 38.1604 27.7444 39.163 29.3075 39.1563H31.7177C36.3354 36.7361 39.4452 32.2149 40.0247 27.0774Z" fill="#50E6FF"/>
<path fill-rule="evenodd" clip-rule="evenodd" d="M6.51811 15.0059C6.24968 15.0068 6.03163 14.7931 6.03066 14.5276V14.5266C6.02291 11.5026 3.54203 9.05651 0.484546 9.05939C0.217077 9.05939 0 8.84469 0 8.58014C0 8.31656 0.217077 8.10186 0.484546 8.10186C3.53816 8.10473 6.01806 5.66345 6.03066 2.64421C6.04229 2.37775 6.27003 2.17167 6.53943 2.18413C6.7914 2.19467 6.99297 2.39404 7.0046 2.64421C7.01235 5.66729 9.49419 8.11336 12.5517 8.11048C12.8191 8.11048 13.0362 8.32518 13.0362 8.58973C13.0362 8.85427 12.8191 9.06897 12.5517 9.06897C9.49613 9.06514 7.01429 11.5093 7.0046 14.5314C7.00072 14.794 6.78364 15.0059 6.51811 15.0059Z" fill="#50E6FF"/>
<path fill-rule="evenodd" clip-rule="evenodd" d="M40.7248 45.8173C40.5659 45.8173 40.437 45.6898 40.437 45.5326C40.4302 43.7249 38.9446 42.2632 37.1169 42.267C36.958 42.268 36.8281 42.1405 36.8281 41.9833C36.8281 41.8261 36.956 41.6986 37.115 41.6986H37.1169C38.9437 41.6996 40.4264 40.2388 40.4331 38.4321C40.4331 38.273 40.563 38.1445 40.7248 38.1445C40.8857 38.1445 41.0156 38.273 41.0156 38.4321C41.0224 40.2388 42.5051 41.6996 44.3318 41.6986C44.4907 41.6977 44.6206 41.8251 44.6206 41.9823C44.6216 42.1395 44.4927 42.267 44.3337 42.267H44.3318C42.5051 42.266 41.0214 43.7268 41.0156 45.5345C41.0146 45.6917 40.8847 45.8182 40.7258 45.8173H40.7248Z" fill="#0072C5"/>
<path fill-rule="evenodd" clip-rule="evenodd" d="M47.3687 11.3333C45.8559 8.88151 42.0532 8.31504 36.3792 9.68952C34.6106 10.1333 32.8711 10.6816 31.1694 11.3333C32.2635 11.8624 33.2936 12.5132 34.2394 13.2733C35.2047 12.9599 36.1524 12.6771 37.0566 12.4586C38.5664 12.0627 40.1199 11.8452 41.6821 11.8107C43.5408 11.8107 44.5661 12.265 44.9091 12.818C45.4702 13.7267 44.9537 16.1239 41.654 19.8946C41.0667 20.5655 40.4067 21.2451 39.7119 21.9285C36.0933 25.3867 32.0871 28.4251 27.7707 30.9843C23.4941 33.6326 18.922 35.7854 14.1473 37.3985C8.40344 39.2494 4.4825 39.212 3.60256 37.7915C2.72456 36.371 4.48153 32.8984 8.76879 28.683C8.50617 27.4839 8.38794 26.258 8.41701 25.0321C1.59169 31.1338 -0.616867 36.419 1.14688 39.2753C2.07043 40.7696 4.08808 41.6111 7.03605 41.6111C10.5393 41.4645 13.9903 40.7111 17.2299 39.3865C21.4222 37.7685 25.4527 35.7691 29.2709 33.4141C33.1221 31.108 36.7494 28.4539 40.1024 25.4835C41.4194 24.3151 42.6647 23.0701 43.8325 21.756C47.6604 17.3852 48.8824 13.7804 47.3687 11.3333Z" fill="#0078D4"/>
</svg>
