<svg data-slug-id="function07" viewBox="0 0 48 49" xmlns="http://www.w3.org/2000/svg">
<path d="M45.4397 21.6971C44.2285 21.6971 43.2193 22.555 42.9753 23.6905H5.03457C4.79066 22.555 3.78137 21.6971 2.57023 21.6971C1.18246 21.6971 0.0554199 22.8241 0.0554199 24.2119C0.0554199 25.5997 1.18246 26.7267 2.57023 26.7267C3.70567 26.7267 4.6645 25.9782 4.97569 24.9437H43.0258C43.3454 25.9782 44.3042 26.7267 45.4313 26.7267C46.819 26.7267 47.9461 25.5997 47.9461 24.2119C47.9629 22.8241 46.8274 21.6971 45.4397 21.6971Z" fill="#0078D4"/>
<path d="M40.3503 5.3728C38.9625 5.3728 37.8355 6.49984 37.8355 7.88761C37.8355 8.37543 37.97 8.8212 38.2055 9.20809L23.5288 23.8848L24.4203 24.7763L39.1139 10.0828C39.4755 10.2931 39.9045 10.4108 40.3503 10.4108C41.738 10.4108 42.8651 9.28379 42.8651 7.89602C42.8735 6.49984 41.738 5.3728 40.3503 5.3728Z" fill="#50E6FF"/>
<path d="M22.7887 24.6228L8.91943 38.4921C8.54095 38.265 8.09518 38.1305 7.62418 38.1305C6.23641 38.1305 5.10938 39.2575 5.10938 40.6453C5.10938 42.033 6.23641 43.1601 7.62418 43.1601C9.01195 43.1601 10.139 42.033 10.139 40.6453C10.139 40.1911 10.0128 39.7621 9.80256 39.3921L23.6803 25.5144L22.7887 24.6228Z" fill="#50E6FF"/>
<path d="M40.3754 38.183C39.9212 38.183 39.5007 38.3008 39.139 38.5111L9.7856 9.15763C10.0043 8.78756 10.1304 8.3502 10.1304 7.88761C10.1304 6.49984 9.00341 5.3728 7.61564 5.3728C6.22787 5.3728 5.10083 6.49984 5.10083 7.88761C5.10083 9.27538 6.22787 10.4024 7.61564 10.4024C8.08664 10.4024 8.52399 10.2763 8.90248 10.0492L38.2391 39.3858C38.0036 39.7727 37.869 40.2184 37.869 40.7063C37.869 42.094 38.996 43.2211 40.3838 43.2211C41.7716 43.2211 42.8986 42.094 42.8986 40.7063C42.8902 39.3185 41.7632 38.183 40.3754 38.183Z" fill="#50E6FF"/>
<path d="M24.6724 43.3081V5.35053C25.749 5.06457 26.5396 4.08052 26.5396 2.91984C26.5396 1.53207 25.4126 0.405029 24.0248 0.405029C22.637 0.405029 21.51 1.53207 21.51 2.91984C21.51 4.09734 22.3259 5.0898 23.4192 5.36736V43.2997C22.3259 43.5689 21.51 44.5613 21.51 45.7472C21.51 47.135 22.637 48.2621 24.0248 48.2621C25.4126 48.2621 26.5396 47.135 26.5396 45.7472C26.5396 44.5782 25.749 43.5941 24.6724 43.3081Z" fill="#0078D4"/>
<path d="M29.0211 24.196C29.0211 26.98 26.767 29.234 23.9831 29.234C21.1991 29.234 18.9451 26.98 18.9451 24.196C18.9451 21.4121 21.1991 19.158 23.9831 19.158C26.767 19.158 29.0211 21.4121 29.0211 24.196Z" fill="#50E6FF"/>
</svg>
