<svg data-slug-id="function06" viewBox="0 0 48 49" xmlns="http://www.w3.org/2000/svg">
<path d="M48 0.330078H0V48.3301H48V0.330078Z" fill="#C4C4C4"/>
<path d="M47.9996 0.330078H0.0996094V48.2301H47.9996V0.330078Z" fill="white"/>
<path d="M0.0996094 48.2301H47.9996V0.330078H0.0996094V48.2301Z" fill="#0078D4"/>
<path d="M31.2502 14.1816C31.2502 14.6816 31.0502 15.0316 30.7002 15.3316C30.3502 15.5816 29.8502 15.7316 29.2502 15.7316C28.7002 15.7316 28.3002 15.6316 27.9502 15.4316V14.2816C28.3502 14.6316 28.8002 14.8316 29.3002 14.8316C29.5502 14.8316 29.7002 14.7816 29.8502 14.6816C30.0002 14.5816 30.0502 14.4816 30.0502 14.2816C30.0502 14.1316 30.0002 13.9816 29.8502 13.8816C29.7502 13.7816 29.4502 13.6316 29.1002 13.4316C28.3002 13.0816 27.9502 12.5316 27.9502 11.9316C27.9502 11.4816 28.1002 11.0816 28.4502 10.8316C28.8002 10.5316 29.2502 10.4316 29.8002 10.4316C30.3002 10.4316 30.7002 10.4816 31.0502 10.6316V11.7316C30.7002 11.4816 30.3002 11.3816 29.9002 11.3816C29.7002 11.3816 29.5002 11.4316 29.4002 11.5316C29.2502 11.6316 29.2002 11.7316 29.2002 11.9316C29.2002 12.0816 29.2502 12.2316 29.3502 12.3316C29.4502 12.4316 29.6502 12.5816 30.0002 12.7316C30.5002 12.9816 30.8002 13.1816 31.0002 13.4316C31.1502 13.5316 31.2502 13.8316 31.2502 14.1816Z" fill="#50E6FF"/>
<path d="M35.5 13.0309C35.5 12.5309 35.4 12.1309 35.15 11.8309C34.95 11.5309 34.6 11.3809 34.25 11.3809C33.85 11.3809 33.55 11.5309 33.3 11.8309C33.05 12.1309 32.95 12.5309 32.95 13.0309C32.95 13.5309 33.05 13.9309 33.3 14.2309C33.55 14.5309 33.85 14.6809 34.25 14.6809C34.65 14.6809 34.95 14.5309 35.2 14.2309C35.4 13.9309 35.5 13.5309 35.5 13.0309ZM36.7 12.9809C36.7 13.5809 36.55 14.0809 36.3 14.5309C36.05 14.9809 35.65 15.2809 35.15 15.4809L36.65 16.8309H35.15L34.1 15.6309C33.65 15.6309 33.25 15.4809 32.9 15.2809C32.55 15.0809 32.25 14.7309 32.05 14.3809C31.85 13.9809 31.75 13.5809 31.75 13.0809C31.75 12.5309 31.85 12.0809 32.05 11.6809C32.25 11.2809 32.55 10.9309 32.95 10.7309C33.35 10.5309 33.8 10.3809 34.3 10.3809C34.75 10.3809 35.2 10.4809 35.55 10.6809C35.9 10.8809 36.2 11.1809 36.4 11.5809C36.6 12.0309 36.7 12.4809 36.7 12.9809Z" fill="#50E6FF"/>
<path d="M40.601 15.7309H37.551V10.3809H38.701V14.8309H40.601V15.7309Z" fill="#50E6FF"/>
<path d="M10.0996 15.3809H15.0996V10.3809H10.0996V15.3809Z" fill="white"/>
<path d="M10.0996 22.9785H15.0996V17.9785H10.0996V22.9785Z" fill="#50E6FF"/>
<path d="M17.75 22.9785H22.75V17.9785H17.75V22.9785Z" fill="white"/>
<path d="M10.0996 30.6309H15.0996V25.6309H10.0996V30.6309Z" fill="#50E6FF"/>
<path d="M17.75 30.6309H22.75V25.6309H17.75V30.6309Z" fill="#50E6FF"/>
<path d="M25.2998 30.6309H30.2998V25.6309H25.2998V30.6309Z" fill="white"/>
<path d="M10.0996 38.1816H15.0996V33.1816H10.0996V38.1816Z" fill="#50E6FF"/>
<path d="M17.75 38.1816H22.75V33.1816H17.75V38.1816Z" fill="#50E6FF"/>
<path d="M25.2998 38.1816H30.2998V33.1816H25.2998V38.1816Z" fill="#50E6FF"/>
<path d="M32.9004 38.1816H37.9004V33.1816H32.9004V38.1816Z" fill="white"/>
</svg>
