<svg data-slug-id="function38" viewBox="0 0 48 49" xmlns="http://www.w3.org/2000/svg">
<path d="M33.9352 11.619L32.7149 1.20337H16.2688L15.0518 12.2276C17.7048 9.977 21.1337 8.61186 24.8847 8.61186C28.2782 8.61186 31.4045 9.73875 33.9352 11.619Z" fill="#3076BC"/>
<path d="M14.8716 35.2616L16.2689 47.2034H32.7151L34.0287 35.9635C31.4819 37.8856 28.3202 39.0415 24.8816 39.0415C21.0437 39.0383 17.5471 37.6055 14.8716 35.2616Z" fill="#3076BC"/>
<path d="M12.0123 22.1476H10V25.2385H12.0123V22.1476Z" fill="#3076BC"/>
<path d="M24.8814 37.525C32.4475 37.525 38.5811 31.3914 38.5811 23.8252C38.5811 16.259 32.4475 10.1255 24.8814 10.1255C17.3152 10.1255 11.1816 16.259 11.1816 23.8252C11.1816 31.3914 17.3152 37.525 24.8814 37.525Z" fill="#3076BC"/>
<path d="M24.8814 34.3858C30.7138 34.3858 35.4419 29.6576 35.4419 23.8252C35.4419 17.9928 30.7138 13.2646 24.8814 13.2646C19.0489 13.2646 14.3208 17.9928 14.3208 23.8252C14.3208 29.6576 19.0489 34.3858 24.8814 34.3858Z" fill="#50E6FF"/>
<path d="M24.3146 25.8279C24.16 25.8279 24.0055 25.7796 23.8735 25.683L19.1953 22.2831C18.8604 22.0384 18.7864 21.5715 19.0311 21.2367C19.2758 20.9018 19.7458 20.8278 20.0775 21.0724L24.247 24.1054L30.4545 18.1619C30.7539 17.8753 31.2272 17.885 31.5138 18.1844C31.8003 18.4838 31.7907 18.9571 31.4912 19.2437L24.8329 25.6186C24.688 25.7571 24.5013 25.8279 24.3146 25.8279Z" fill="#3076BC"/>
</svg>
