<svg data-slug-id="function25" viewBox="0 0 48 49" xmlns="http://www.w3.org/2000/svg">
<path d="M34.8081 11.085V10.595H30.8498V11.085H34.8081Z" fill="#50E6FF"/>
<path d="M17.0869 11.085V10.595H13.1286V11.085H17.0869Z" fill="#50E6FF"/>
<path d="M18.9294 6.14851L19.2759 5.80206L16.477 3.00314L16.1305 3.34959L18.9294 6.14851Z" fill="#50E6FF"/>
<path d="M23.7239 3.95831H24.2139V4.05312e-06H23.7239V3.95831Z" fill="#50E6FF"/>
<path d="M28.6614 5.80327L29.0078 6.14972L31.8067 3.3508L31.4603 3.00435L28.6614 5.80327Z" fill="#50E6FF"/>
<path d="M29.1209 10.9263C29.1209 8.05062 26.7904 5.72003 23.9147 5.72003C21.0391 5.72003 18.7085 8.05062 18.7085 10.9263C18.7085 11.0438 18.7134 11.1605 18.7216 11.2765H29.1086C29.116 11.1597 29.1209 11.0438 29.1209 10.9263Z" fill="#50E6FF"/>
<path d="M45 12.556H3V42.0957H45V12.556Z" fill="#0078D7"/>
<path d="M10.6354 23.845H5.97998V30.8434H10.6354V23.845Z" fill="#50E6FF"/>
<path d="M10.6354 32.013H5.97998V39.0114H10.6354V32.013Z" fill="#50E6FF"/>
<path d="M10.6354 15.6927H5.97998V22.691H10.6354V15.6927Z" fill="#50E6FF"/>
<path d="M16.4411 15.6927H11.7856V22.691H16.4411V15.6927Z" fill="#50E6FF"/>
<path d="M16.4411 23.845H11.7856V30.8434H16.4411V23.845Z" fill="#50E6FF"/>
<path d="M16.4411 32.013H11.7856V39.0114H16.4411V32.013Z" fill="#50E6FF"/>
<path d="M36.1125 15.6927H31.457V22.691H36.1125V15.6927Z" fill="#50E6FF"/>
<path d="M36.1125 23.845H31.457V30.8434H36.1125V23.845Z" fill="#50E6FF"/>
<path d="M36.1125 32.013H31.457V39.0114H36.1125V32.013Z" fill="#50E6FF"/>
<path d="M41.9181 15.6927H37.2627V22.691H41.9181V15.6927Z" fill="#50E6FF"/>
<path d="M41.9181 23.845H37.2627V30.8434H41.9181V23.845Z" fill="#50E6FF"/>
<path d="M41.9181 32.013H37.2627V39.0114H41.9181V32.013Z" fill="#50E6FF"/>
<path d="M30.141 44.6107H17.8213V47.0522H30.141V44.6107Z" fill="#0078D7"/>
<path d="M25.2148 46.5262V39.763H22.7461V46.5262H25.2148Z" fill="#0078D7"/>
<path d="M23.3976 15.6849H18.7422V22.6832H23.3976V15.6849Z" fill="#50E6FF"/>
<path d="M23.3976 23.8372H18.7422V30.8356H23.3976V23.8372Z" fill="#50E6FF"/>
<path d="M23.3976 32.0052H18.7422V39.0035H23.3976V32.0052Z" fill="#50E6FF"/>
<path d="M29.2028 15.6849H24.5474V22.6832H29.2028V15.6849Z" fill="#50E6FF"/>
<path d="M29.2028 23.8372H24.5474V30.8356H29.2028V23.8372Z" fill="#50E6FF"/>
<path d="M29.2028 32.0052H24.5474V39.0035H29.2028V32.0052Z" fill="#50E6FF"/>
</svg>
