<svg data-slug-id="function28" viewBox="0 0 48 48" xmlns="http://www.w3.org/2000/svg">
<path d="M13.2835 27.8077C12.6808 27.8077 12.1441 27.3618 12.0616 26.7426C11.979 26.1812 12.2927 25.6528 12.7881 25.4299C12.7138 24.9593 12.2267 24.1007 11.69 23.9603C8.09865 23.0191 5.3081 21.8633 3.35966 19.2791C1.33692 16.6042 0.437012 12.6908 0.437012 6.59779C0.437012 5.91253 0.990169 5.35938 1.67542 5.35938H13.6715C14.3568 5.35938 14.9099 5.91253 14.9099 6.59779C14.9099 7.28304 14.3568 7.8362 13.6715 7.8362H2.93035C3.03768 12.5834 3.81375 15.7703 5.34112 17.7848C6.8685 19.7993 9.14717 20.7239 12.3258 21.5661C14.1256 22.0367 15.364 24.1667 15.2732 25.7519C15.2071 26.8499 14.4971 27.6508 13.4651 27.7994C13.4073 27.8077 13.3413 27.8077 13.2835 27.8077Z" fill="#50E6FF"/>
<path d="M35.6167 27.6178C35.5589 27.6178 35.5011 27.6178 35.4433 27.6012C34.2379 27.4279 33.4041 26.4454 33.3298 25.0831C33.2885 24.3731 33.4619 23.6383 33.8169 23.0191C34.2462 22.2843 34.8984 21.7642 35.6745 21.5661C38.8531 20.7322 41.1318 19.8075 42.6591 17.7848C44.1865 15.762 44.9626 12.5834 45.0699 7.8362H34.3287C33.6435 7.8362 33.0903 7.28304 33.0903 6.59779C33.0903 5.91253 33.6435 5.35938 34.3287 5.35938H46.3248C47.0101 5.35938 47.5632 5.91253 47.5632 6.59779C47.5632 12.6908 46.6633 16.6042 44.6406 19.2791C42.6922 21.855 39.9016 23.0191 36.3102 23.9603C36.0543 24.0264 35.9222 24.3318 35.8726 24.4639C35.7653 24.7777 35.7983 25.0501 35.8479 25.1575C36.5001 25.2813 36.9459 25.8922 36.8468 26.5527C36.756 27.1719 36.2276 27.6178 35.6167 27.6178Z" fill="#50E6FF"/>
<path d="M40.1242 0.515625H7.87598C7.87598 13.9318 9.77487 23.6244 17.5438 27.3726C20.2106 28.6606 21.9361 31.3191 21.9361 34.283V36.6029C21.9361 38.1633 19.8473 42.6546 18.2786 42.6546H17.1228V45.6764H30.993V42.6464H30.0518C28.4914 42.6464 26.3944 38.1633 26.3944 36.5947V34.4151C26.3944 31.4346 28.1529 28.7514 30.8609 27.5047C38.795 23.8803 40.1242 14.0061 40.1242 0.515625Z" fill="#0078D4"/>
<path d="M32.5534 42.5274H15.4551V45.9207H32.5534V42.5274Z" fill="#50E6FF"/>
<path d="M35.1623 44.8477H12.8379V47.4896H35.1623V44.8477Z" fill="#0078D4"/>
</svg>
