<svg data-slug-id="function31" viewBox="0 0 48 45" xmlns="http://www.w3.org/2000/svg">
<path d="M48 35.7184H0V44.6505H48V35.7184Z" fill="#0078D4"/>
<path d="M23.3461 5.23051C28.5364 5.23051 33.264 7.16178 36.865 10.3403L40.7074 6.75943C36.1508 2.56496 30.0553 0 23.3461 0C16.6068 0 10.461 2.59514 5.88428 6.84996L9.74681 10.4107C13.3579 7.19195 18.1257 5.23051 23.3461 5.23051Z" fill="#0078D4"/>
<path d="M12.4829 12.9254L15.2088 15.43C17.4318 13.6597 20.2583 12.5935 23.3362 12.5935C26.384 12.5935 29.1904 13.6396 31.4133 15.3898L34.1191 12.8651C31.2021 10.4107 27.4402 8.92206 23.3362 8.92206C19.192 8.92206 15.3999 10.4309 12.4829 12.9254Z" fill="#0078D4"/>
<path d="M17.9546 17.9633L19.3326 19.2307C20.4894 18.5165 21.8574 18.0941 23.3159 18.0941C24.7744 18.0941 26.1323 18.5065 27.279 19.2106L28.647 17.9331C27.1382 16.887 25.2974 16.2734 23.3159 16.2734C21.3242 16.2734 19.4734 16.8971 17.9546 17.9633Z" fill="#50E6FF"/>
<path d="M23.296 26.7375C24.9182 26.7375 26.2332 25.4225 26.2332 23.8004C26.2332 22.1783 24.9182 20.8633 23.296 20.8633C21.6739 20.8633 20.3589 22.1783 20.3589 23.8004C20.3589 25.4225 21.6739 26.7375 23.296 26.7375Z" fill="#0078D4"/>
<path d="M6.13586 41.0275H3.34961L4.46612 21.7148H5.01935L6.13586 41.0275Z" fill="#0078D4"/>
<path d="M44.6505 35.8908H41.8643L42.9808 16.5781H43.534L44.6505 35.8908Z" fill="#0078D4"/>
<path d="M4.74748 42.1141C5.90297 42.1141 6.83968 41.1774 6.83968 40.0219C6.83968 38.8664 5.90297 37.9297 4.74748 37.9297C3.59198 37.9297 2.65527 38.8664 2.65527 40.0219C2.65527 41.1774 3.59198 42.1141 4.74748 42.1141Z" fill="#50E6FF"/>
<path d="M44.8919 41.14C45.5085 41.14 46.0084 40.6401 46.0084 40.0235C46.0084 39.4069 45.5085 38.907 44.8919 38.907C44.2753 38.907 43.7754 39.4069 43.7754 40.0235C43.7754 40.6401 44.2753 41.14 44.8919 41.14Z" fill="white"/>
<path d="M40.7474 41.14C41.364 41.14 41.8639 40.6401 41.8639 40.0235C41.8639 39.4069 41.364 38.907 40.7474 38.907C40.1307 38.907 39.6309 39.4069 39.6309 40.0235C39.6309 40.6401 40.1307 41.14 40.7474 41.14Z" fill="white"/>
<path d="M35.9398 41.14C36.5564 41.14 37.0563 40.6401 37.0563 40.0235C37.0563 39.4069 36.5564 38.907 35.9398 38.907C35.3231 38.907 34.8232 39.4069 34.8232 40.0235C34.8232 40.6401 35.3231 41.14 35.9398 41.14Z" fill="white"/>
</svg>
