<svg data-slug-id="function16" viewBox="0 0 48 48" xmlns="http://www.w3.org/2000/svg">
<path d="M42.9937 22.7238C44.3856 22.7238 45.5138 21.5955 45.5138 20.2037C45.5138 18.8119 44.3856 17.6836 42.9937 17.6836C41.6019 17.6836 40.4736 18.8119 40.4736 20.2037C40.4736 21.5955 41.6019 22.7238 42.9937 22.7238Z" fill="#0078D4"/>
<path d="M42.9937 27.7707C44.3856 27.7707 45.5138 26.6424 45.5138 25.2506C45.5138 23.8588 44.3856 22.7305 42.9937 22.7305C41.6019 22.7305 40.4736 23.8588 40.4736 25.2506C40.4736 26.6424 41.6019 27.7707 42.9937 27.7707Z" fill="#0078D4"/>
<path d="M42.9856 32.8383C44.382 32.8383 45.5141 31.7063 45.5141 30.3098C45.5141 28.9133 44.382 27.7812 42.9856 27.7812C41.5891 27.7812 40.457 28.9133 40.457 30.3098C40.457 31.7063 41.5891 32.8383 42.9856 32.8383Z" fill="#0078D4"/>
<path d="M40.4311 37.9111C41.8369 37.9111 42.9765 36.7715 42.9765 35.3657C42.9765 33.9599 41.8369 32.8203 40.4311 32.8203C39.0254 32.8203 37.8857 33.9599 37.8857 35.3657C37.8857 36.7715 39.0254 37.9111 40.4311 37.9111Z" fill="#0078D4"/>
<path d="M42.9938 17.6896L30.3258 17.6727L32.5172 11.4778C32.8459 10.5507 33.0145 9.56454 33.0229 8.57841L33.0314 7.71871V7.57542H33.0229C32.9555 6.26059 31.8598 5.20703 30.5113 5.20703C29.3566 5.20703 28.3789 5.99088 28.0839 7.05286C27.9406 7.567 27.7299 8.06427 27.4939 8.53627L25.7576 11.9751C25.4289 12.6241 24.9991 13.2225 24.4765 13.7282L20.2454 17.8581L17.6832 20.3529L15.2811 20.3698L8.20117 26.4973L15.4075 35.3809H17.6916L17.6832 35.3893L21.8047 37.5385C22.2682 37.783 22.7824 37.9094 23.3049 37.9094H40.3051L40.322 32.8523H43.0191L42.9938 17.6896Z" fill="#0078D4"/>
<path d="M5.12461 37.8704H15.3399L15.3652 20.3477H2.76465L5.12461 37.8704Z" fill="#50E6FF"/>
<path d="M11.3613 35.4179C12.0549 35.4179 12.6171 34.8557 12.6171 34.1621C12.6171 33.4685 12.0549 32.9062 11.3613 32.9062C10.6677 32.9062 10.1055 33.4685 10.1055 34.1621C10.1055 34.8557 10.6677 35.4179 11.3613 35.4179Z" fill="#0078D4"/>
</svg>
