<svg data-slug-id="function20" viewBox="0 0 48 48" xmlns="http://www.w3.org/2000/svg">
<path d="M0 40.2525H48V7.46094H0V40.2525Z" fill="#0078D4"/>
<path d="M35.318 16.3125C31.1411 16.3125 27.7474 19.6978 27.7474 23.883C27.7474 25.8536 28.4969 27.6472 29.7348 28.9946H18.0043C19.2422 27.6472 19.9916 25.8536 19.9916 23.883C19.9916 19.7062 16.6064 16.3125 12.4211 16.3125C8.24427 16.3125 4.85059 19.6978 4.85059 23.883C4.85059 28.0683 8.23585 31.4536 12.4211 31.4536C12.5727 31.4536 12.7243 31.4451 12.8758 31.4367H34.8464C34.998 31.4451 35.1495 31.4536 35.3011 31.4536C39.478 31.4536 42.8716 28.0683 42.8716 23.883C42.8716 19.6978 39.4948 16.3125 35.318 16.3125ZM7.38532 23.8746C7.38532 21.0957 9.65059 18.8304 12.4295 18.8304C15.2085 18.8304 17.4737 21.0957 17.4737 23.8746C17.4737 26.6536 15.2085 28.9188 12.4295 28.9188C9.65059 28.9188 7.38532 26.662 7.38532 23.8746ZM35.318 28.9188C32.539 28.9188 30.2737 26.6536 30.2737 23.8746C30.2737 21.0957 32.539 18.8304 35.318 18.8304C38.0969 18.8304 40.3622 21.0957 40.3622 23.8746C40.3622 26.6536 38.0969 28.9188 35.318 28.9188Z" fill="#50E6FF"/>
</svg>
