<svg data-slug-id="function26" viewBox="0 0 52 50" xmlns="http://www.w3.org/2000/svg">
<path d="M25.7902 0C11.5525 0 0 11.1525 0 25.4017C0 36.6342 7.176 46.1755 17.1858 49.7178L20.4425 40.3593C14.5577 38.1425 10.3526 32.4748 10.3526 25.813C10.3526 17.2316 17.3115 10.2612 25.9045 10.2612C34.4974 10.2612 41.4563 17.2201 41.4563 25.813C41.4563 32.4977 37.2284 38.1768 31.3093 40.3822L34.6231 49.6378C44.5187 46.027 51.5918 36.5428 51.5918 25.3903C51.5918 11.1525 40.0394 0 25.7902 0Z" fill="#50E6FF"/>
<path d="M41.2621 41.5248C39.011 43.7759 36.36 45.4785 33.4576 46.5526L28.8869 33.6861C32.3721 32.4177 34.8745 29.0811 34.8745 25.1617C34.8745 20.1454 30.818 16.0889 25.8017 16.0889C20.7853 16.0889 16.7288 20.1454 16.7288 25.1617C16.7288 29.1154 19.2541 32.4634 22.7622 33.6975L18.2714 46.6097C15.3233 45.5356 12.6152 43.8216 10.3298 41.5248C6.19336 37.3883 3.91943 31.9035 3.91943 26.0644C3.91943 20.2253 6.19336 14.7405 10.3298 10.604C14.4663 6.46753 19.9626 4.1936 25.7902 4.1936C31.6179 4.1936 37.1142 6.46753 41.2506 10.604C45.3871 14.7405 47.6611 20.2368 47.6611 26.0644C47.6611 31.9035 45.3871 37.3883 41.2621 41.5248Z" fill="#0078D4"/>
</svg>
