<svg data-slug-id="function13" viewBox="0 0 48 48" xmlns="http://www.w3.org/2000/svg">
<path d="M21.6507 2.63498L9.35309 15.7447H1V32.5089H10.3392L21.5927 45.3285C22.8108 46.7207 25.0731 45.8506 25.0731 43.9944V3.96915C25.0731 2.17092 22.8689 1.3008 21.6507 2.63498Z" fill="#0078D4"/>
<path d="M36.5583 41.788C36.1522 41.788 35.8042 41.614 35.5721 41.208C35.2241 40.6859 35.3981 39.9318 35.9782 39.5838C41.4309 36.2193 44.6793 30.4186 44.6793 24.0377C44.6793 17.6569 41.4309 11.8561 35.9782 8.49169C35.4561 8.14364 35.2821 7.44755 35.5721 6.86748C35.8622 6.2874 36.6163 6.17139 37.1963 6.46142C43.3451 10.2319 46.9996 16.7868 46.9996 23.9797C46.9996 31.1727 43.3451 37.7275 37.1963 41.498C36.9643 41.73 36.7323 41.788 36.5583 41.788Z" fill="#0078D4"/>
<path d="M30.9313 36.1622C30.4672 36.1622 30.0612 35.8722 29.8291 35.4661C29.5971 34.8861 29.8871 34.19 30.4672 33.9579C34.4697 32.3337 37.0801 28.4472 37.0801 24.1547C37.0801 19.8041 34.4697 15.9756 30.4672 14.3514C29.8871 14.1193 29.5971 13.4233 29.8291 12.8432C30.0612 12.2631 30.7572 11.9731 31.3373 12.2051C36.21 14.2354 39.3424 18.934 39.3424 24.1547C39.3424 29.4333 36.21 34.132 31.3373 36.1042C31.2213 36.1622 31.0473 36.1622 30.9313 36.1622Z" fill="#0078D4"/>
</svg>
