<svg data-slug-id="function19" viewBox="0 0 48 48" xmlns="http://www.w3.org/2000/svg">
<path d="M47.057 24.362L46.6022 24.5136L46.3412 23.7725L46.7707 23.4357L46.5012 23.023L46.9475 22.7283L46.9138 22.4588L46.7707 22.1725L46.9475 22.0883L47.217 21.3473L47.1328 20.8251C47.1496 20.7999 47.1664 20.7915 47.1749 20.7746C47.2254 20.7157 47.2507 20.6651 47.2422 20.5894C47.2338 20.5136 47.2422 20.4799 47.2759 20.4209C47.3096 20.3704 47.3264 20.3536 47.3349 20.202C47.3433 20.1178 47.3517 20.0588 47.3854 19.9999L47.0233 19.7641L46.6022 19.6294L46.6528 19.3851L46.2233 19.0651L46.1054 19.183L45.9117 19.1915L45.7517 19.3767L45.617 19.823L45.4149 19.8904L45.5749 20.2357L45.3307 20.2609L44.7496 20.1178L44.6738 20.5725L44.7075 21.1283L44.337 21.1788L44.0254 21.3978L43.4528 21.4988L43.3601 21.3809L43.2591 21.2546L42.8633 21.2462L42.5349 20.7073L42.2233 20.6146L42.0885 20.522H41.5328L41.0359 20.1936L41.0107 19.7136L41.2212 19.2588L41.0191 19.1157L41.078 18.9051L40.918 18.8883L40.7412 19.0567L40.5307 19.0651L40.0001 18.6946H39.697L38.9138 18.4083L38.4338 18.5262L38.1728 18.3746L37.718 18.5851L37.5243 18.2988L36.9264 18.5683C36.9264 18.5178 36.9601 18.4588 37.0191 18.383C37.0528 18.3494 37.0864 18.3073 37.1285 18.2567C37.3728 18.0041 37.3643 17.8862 37.2717 17.5662C37.2128 17.3557 37.137 17.1536 37.0528 16.943C36.9433 16.6736 36.9601 16.5304 37.0443 16.2946C37.1201 16.0588 37.3391 15.5199 37.4401 15.3178C37.5075 15.183 37.5664 15.0567 37.6507 14.9304C37.6928 14.8715 37.7349 14.8125 37.7938 14.762C37.9538 14.602 38.0128 14.4504 38.0464 14.2736C38.0801 14.0967 38.1559 13.9788 38.3075 13.8188L38.6107 13.7851L38.7791 13.4988L38.5601 13.2967C38.5685 13.1957 38.5685 13.0946 38.5601 12.9767C38.5433 12.7999 38.5433 12.7494 38.5938 12.682C38.6191 12.6483 38.6359 12.6062 38.6443 12.5473L37.8612 12.2862L37.718 11.9578C37.6928 11.9409 37.6759 11.9241 37.6507 11.9073C37.6422 11.8988 37.6338 11.882 37.617 11.8736L37.6085 11.8651C37.6001 11.8567 37.5917 11.8567 37.5917 11.8483C37.5917 11.8483 37.5833 11.8483 37.5833 11.8399C37.5749 11.8399 37.5664 11.8399 37.5664 11.8315H37.558C37.5496 11.8315 37.5328 11.8315 37.5243 11.8399C37.4907 11.8483 37.4485 11.882 37.3812 11.9241C37.2549 12.0083 37.1622 12.0504 37.0107 12.1262C36.8759 12.1936 36.7749 12.1515 36.6991 12.0336C36.6149 11.9157 36.5138 11.8399 36.4043 11.823C36.2949 11.7978 36.2949 11.7641 36.3117 11.7136C36.3285 11.663 36.3201 11.6378 36.2191 11.562C36.1264 11.4946 35.9496 11.3599 35.8317 11.2841C35.7138 11.2083 35.6885 11.1325 35.7222 11.0146C35.7559 10.9051 35.7475 10.863 35.5791 10.7451C35.4107 10.6273 34.897 10.282 34.7033 10.1809C34.5096 10.0799 33.9622 9.80199 33.7854 9.73462C33.7685 9.7262 33.7517 9.71778 33.7349 9.70936L33.4991 9.59988L33.3812 9.47357C33.2717 9.48199 33.2128 9.49883 33.1285 9.47357L32.817 9.33883L32.1349 9.21252L31.8233 9.28831L31.0654 9.71778L30.7454 9.75989L30.4254 9.69252C30.4338 9.67567 30.4843 9.67567 30.5601 9.69252C30.5854 9.70094 30.6022 9.70094 30.6275 9.70094L30.6359 9.66725L30.417 9.30515L30.2991 9.27146L30.3159 9.0862L30.518 9.06936L30.4675 8.90936H30.2401L29.9033 8.70725L29.8107 8.41252L29.457 8.69041V8.90094L29.7854 8.97673L29.6843 9.3641C29.5917 9.34725 29.5159 9.29673 29.3812 9.22936C29.297 9.18725 29.1538 9.16199 29.0107 9.16199L29.1285 8.7662L28.9012 8.69883L28.8591 8.5641L28.977 8.33673L29.1622 8.27778L28.8759 8.03357L28.6822 8.09252L28.3285 7.51989L28.1685 7.58725L28.2443 7.94094L28.0843 8.09252L27.9159 8.04199L27.8822 7.4862L27.3096 7.46094L27.4022 7.91567L27.2591 7.78094L26.5685 7.98304C26.5517 8.00831 26.5433 8.02515 26.518 8.05041C26.3749 8.25252 26.2822 8.35357 26.1896 8.42936L26.1643 8.58094L26.1054 8.80831L25.937 8.9262C25.9033 8.97673 25.8528 9.0441 25.8022 9.10304L25.9622 9.32199L25.8022 9.47357L25.878 9.59146L26.4254 9.75146V9.97883L27.1243 9.8441L27.0233 9.65883L27.4612 9.51567L27.6801 9.44831L27.8907 9.61673C27.8907 9.67567 27.9243 9.71778 27.9749 9.75146C28.1601 9.86094 27.8654 10.1894 27.8654 9.90304C27.8654 9.69252 27.6128 9.83567 27.7391 10.1473C27.8485 10.4083 27.798 10.5262 27.6296 10.6778L27.4359 10.6104L27.5201 10.3746L27.2591 10.2315L26.9054 10.0967L26.7707 10.2988L26.5685 10.3241L26.3075 10.4925L26.5517 10.9304C26.5096 10.9473 26.4591 10.9641 26.4001 10.9894C26.2233 11.0651 26.1222 11.0904 26.0464 11.082C25.9875 11.0736 25.9454 11.0483 25.8949 11.023C25.7685 10.9557 25.718 10.9725 25.6338 11.0567C25.5496 11.1409 25.4654 11.1241 25.2801 11.1073C25.0949 11.0988 25.0275 11.0567 24.9096 10.9557C24.7833 10.863 24.6991 10.7536 24.7075 10.6525C24.7159 10.5515 24.6822 10.5262 24.598 10.5009C24.5054 10.4757 24.3201 10.4336 24.2022 10.442C24.1349 10.4841 24.0591 10.5094 24.0085 10.4925C23.9833 10.4841 23.9664 10.4673 23.9496 10.4336C23.8991 10.3241 23.8317 10.2988 23.697 10.442C23.537 10.6104 23.4275 10.6862 23.2843 10.7536C23.217 10.7873 23.1496 10.8125 23.0654 10.8462C22.8633 10.922 22.8128 10.922 22.7707 11.0399C22.7285 11.1578 22.678 11.2504 22.5433 11.2167C22.4085 11.183 22.3496 11.2167 22.2401 11.2673C22.0717 11.3515 22.0296 11.3599 21.8022 11.3009C21.6675 11.2673 21.4991 11.2588 21.3475 11.3094C21.3138 11.3178 21.2885 11.3346 21.2549 11.343C20.9854 11.4778 20.7664 11.3599 20.7496 11.0904C20.7328 10.8967 20.5896 10.7536 20.3538 10.8209C20.2022 10.863 20.2022 10.8883 20.0506 10.863C19.8991 10.8378 19.8738 10.8546 19.8317 11.0483C19.7896 11.242 19.638 11.3178 19.4275 11.3683C19.217 11.4188 19.0317 11.4609 18.8464 11.5283C18.8212 11.5367 18.8212 11.5367 18.7959 11.5451C18.6275 11.6715 18.5096 11.7051 18.4001 11.6378C18.3412 11.6041 18.2738 11.5367 18.1896 11.4357C18.1391 11.3767 18.097 11.3262 18.0464 11.3009L18.5349 11.1073L18.5264 10.6862L18.1896 10.6778C18.1391 10.7788 18.038 10.9051 17.9201 10.9809L17.5917 10.7957L17.1875 11.1746L16.6149 11.5704L16.918 11.7809L16.6654 11.9073L16.7917 12.1346L16.4296 12.3957L15.9917 12.1346L15.8822 12.3957L16.2191 12.5388L16.0928 12.682L15.8233 12.9851L15.4359 13.1367L14.9728 13.0273L14.4928 13.0609L14.0717 13.2967L13.9454 12.9767L13.6254 13.0609L13.297 12.9936L13.5159 12.3451L13.5749 12.2104L13.2043 12.2441L12.8843 12.0673L12.3033 12.2694L11.8233 12.042L11.4359 12.2188L11.5285 12.842L10.9812 13.1199L10.9391 13.5241L10.7117 13.5325L10.6275 13.8188L10.4085 13.9115L10.3412 14.3073L10.5938 14.2651L10.9391 14.282L11.3096 14.2146L11.7391 14.0967L12.0591 14.1641L12.118 14.5767L12.0338 14.6946L11.6885 14.7451L11.6633 15.0988C11.6464 15.1073 11.6296 15.1241 11.6128 15.1409C11.5538 15.1915 11.478 15.2083 11.377 15.2251C11.2759 15.2336 11.2001 15.2757 11.0822 15.2757C10.9643 15.2841 10.9559 15.3094 10.9896 15.3767C11.0233 15.4441 11.0233 15.5283 11.0149 15.6715C11.0064 15.8146 11.0064 15.8399 11.0485 15.9157C11.0906 15.983 11.0991 16.0083 11.0149 16.0588C10.7454 16.2104 10.4422 16.5136 10.3664 16.5978C10.3328 16.6315 10.2906 16.6736 10.2738 16.7157C10.2654 16.7578 10.2401 16.7999 10.198 16.842C10.1559 16.8841 10.1054 16.9094 10.0296 16.9599C9.95381 17.0104 9.96223 17.0357 9.98749 17.0862C10.0128 17.1199 10.0043 17.1199 10.0212 17.162C10.0296 17.1957 10.0043 17.2294 9.98749 17.2462C9.92854 17.3051 9.84433 17.3557 9.7517 17.4399C9.65907 17.5325 9.54117 17.6588 9.40644 17.7009C9.2717 17.743 9.13696 17.8104 9.01907 17.8694C8.9096 17.9283 8.88433 17.9957 8.91802 18.0799C8.93486 18.1304 8.9096 18.1725 8.86749 18.1978C8.83381 18.2146 8.7917 18.2315 8.74118 18.2399C8.62328 18.2567 8.58117 18.282 8.52223 18.3915C8.4717 18.4841 8.43802 18.5094 8.36223 18.5683L8.67381 18.8209L8.43802 19.0399L8.24433 19.0483L7.97486 19.2336L7.84854 19.562L7.57907 19.7388L7.41907 19.6967L6.49275 20.0757L6.40012 19.9325L6.24012 20.042L5.95381 20.4546L5.68433 20.6146L6.0296 21.2125L5.99591 21.7683L5.64223 22.383L5.69275 22.543L5.92854 22.7199L5.86118 23.0146L5.62539 23.242L5.28012 23.3346L5.15381 23.6125L4.54749 23.9494L4.00854 24.2188L3.66328 24.6483L2.33275 25.8525L2.77907 26.3073C2.75381 26.3409 2.72854 26.3662 2.70328 26.383C2.65275 26.4336 2.60223 26.4925 2.52644 26.5683C2.46749 26.6273 2.40012 26.7115 2.34118 26.7704L2.15591 27.2841L1.90328 27.5199L2.01275 27.8567L1.74328 28.2273L2.13065 28.3367L2.88854 28.9515L2.40012 29.7262L2.34118 30.0209L2.13907 30.223L2.36644 30.6946L2.16433 30.922L2.00433 30.7704L1.46539 30.9557L1.16223 31.0399L1.03591 31.2083L0.850649 31.183L0.673807 31.4862L1.01907 31.6799L0.892754 31.9157C0.816964 31.9746 0.774859 32.1009 0.690649 32.2862C0.656964 32.362 0.614859 32.4125 0.572754 32.4462L0.598017 32.5557L0.993807 32.3115L1.3896 32.4378L1.53275 32.3451L1.56644 32.202L1.99591 32.1936L2.04644 32.3367L2.40012 32.362L3.04012 31.9746L2.97275 31.823L3.4696 31.4104L3.58749 31.4525L4.10118 31.1662L4.27802 30.7704L4.12644 30.5683L3.86539 30.8209L3.53696 30.3494L3.71381 30.1641L3.59591 29.903L3.38539 29.7683L3.48644 29.583L3.59591 29.3725L3.71381 29.1536L4.5896 28.5051L5.50749 28.3536L6.50117 27.7473L8.18539 27.8062L9.60012 28.2104L9.4317 28.7073L9.46539 28.8925L9.12012 29.1283L9.0696 29.2799L9.23802 29.5999L9.5496 29.8609L9.80223 30.2146L9.96223 30.383V30.7704L9.77696 30.8378L9.58328 31.0988L9.36433 31.5367L9.3896 31.9325L9.24644 32.1346L9.33065 32.5557L9.50749 32.6315H9.72644L10.3833 32.7662L10.2485 33.0357L10.2149 33.4567L10.0549 33.8188L10.2654 33.9451L10.6949 33.583L10.8801 33.8441L11.0149 34.0546L11.2759 34.5683L11.4275 34.6357L11.6212 34.8883L11.4696 35.0567L11.6128 35.2673L11.8149 35.2841L11.7559 35.503L11.8654 35.7641L12.0591 36.042L12.2022 36.3536L12.3706 36.5557L12.4212 36.7662H12.6233L12.8591 36.5051L13.0359 36.4799L13.2549 36.6904L13.4233 36.7241L13.4991 36.522L13.7854 36.2357L13.9959 36.2609L14.1054 36.3199L14.4843 35.8146L14.7706 35.983L15.057 35.9409L15.4191 36.202L15.6043 36.0167L15.7896 35.9662L16.1854 35.5957L16.3706 35.5788L16.3875 35.4104L16.5222 35.3009L16.7328 35.2167L16.9517 35.3009L17.1033 35.1915V34.9051L17.2633 34.8294H17.4149L17.4991 35.023L17.7349 35.0904L18.0296 35.082L18.2991 34.9978L18.518 35.242L18.8296 35.3767L18.8043 35.6125L18.8885 35.7557H19.1075L19.2085 35.5704L19.377 35.5536L19.7728 35.8904L19.9496 35.7388L20.4464 35.8567L20.5812 35.7641L20.4885 35.5451L20.6149 35.0315L20.8675 34.7199L21.0359 34.6525L21.7349 34.6778L21.9706 34.4083L22.038 34.063L22.1812 33.9283L22.0885 33.5578L22.2317 33.103L22.9728 32.9515L23.0822 32.623L23.4696 32.4209L23.3938 32.1767L23.5707 31.8736L23.4275 31.6546L23.2422 31.183L22.9643 30.8967L22.678 30.6609L23.3096 30.063L23.478 30.2146L24.0085 29.9788L24.2107 29.5241L24.5222 29.3557L24.598 29.162L24.8675 29.0946L25.1538 28.783L25.0612 28.5473L24.918 28.463L24.9433 28.2525L25.2549 28.1599L25.6338 27.8062L25.8022 27.7557L26.4507 27.5536L26.5854 27.7978L26.5517 28.2188L26.6443 28.3957L26.577 29.5746L26.2738 30.0125L26.5433 30.4588L26.4422 30.7788L26.7033 30.8546L26.7117 31.0315L26.9138 31.082L27.2001 31.242L27.3854 31.2841L28.1096 32.3873L28.2443 32.7157L28.6064 32.6399L29.1875 32.9599L29.297 33.0273L29.4233 32.8167L29.5917 32.6904L29.6591 32.9346L30.1728 33.103L30.3075 32.9767L30.7622 33.3051L30.7285 33.5494L30.4338 34.063L30.1812 34.1894L30.0801 34.602C30.1222 34.5936 30.1643 34.5851 30.2064 34.5851C30.2738 34.5851 30.358 34.602 30.518 34.6778C30.6696 34.7536 30.737 34.8715 30.8043 34.9725C30.8717 35.0651 30.9222 35.1073 31.0149 35.1241C31.0149 35.1241 31.057 35.1157 31.0991 35.1073L31.2085 35.0988L31.2591 35.2083L31.2254 35.4946L31.3096 35.6378L31.4696 35.6967L31.4864 35.7557L31.5201 35.8483L31.7306 36.4462L31.4359 36.7746V36.9851L31.9075 36.7746L32.4801 37.1283L32.6907 37.0862L32.9096 36.3704L33.2885 35.8736L32.9349 35.562L32.598 35.4525L32.4801 35.0146L32.2696 34.8209L32.6233 34.5178L32.598 34.4251L32.5306 34.2399L32.3622 33.9873L32.497 33.7094L33.0612 33.4399L33.2128 33.1367L33.0612 32.6483L33.5328 32.3873L33.7854 32.0757L33.9201 31.9241L34.2907 31.7136L34.3412 31.3599L34.5433 31.1241V30.9473L34.8296 30.9388L34.8633 30.4504L35.1243 29.9788L35.3096 29.5578L35.2759 29.1536L35.057 28.9178L35.0654 28.1767L34.7538 27.882L34.737 27.6967L34.897 27.6715L35.0149 27.5451L35.057 26.9557L35.3938 26.7957L35.9159 26.7451L35.9496 26.9388L36.1685 27.2251L36.438 27.3262L36.6654 26.8294L36.9433 26.6778L36.9601 26.9978L36.9433 27.402L36.9012 27.9999L37.0022 28.2525L36.9854 28.6651L37.3559 28.8336L37.6001 29.3557L37.8864 29.7683L37.9959 29.7178L38.3159 29.8694L38.5012 29.8778L38.6022 29.9873H38.8212L39.2759 29.7599L39.4696 29.903L39.6633 29.8609L39.798 29.5494L39.6885 29.3894L39.7812 29.162L39.9412 28.9851L40.2612 29.2294L40.9012 28.8251L41.2717 28.7578L41.6001 28.4799L41.8191 28.6567L42.0885 28.5388L42.2233 28.7662L42.5264 28.943L42.4254 29.1283V29.3304L42.6107 29.5157L42.5685 29.9199L42.9728 30.0041L43.2422 30.1557L43.2675 30.4083L43.1412 30.6778L43.4359 30.8462L43.5622 30.6778L44.1012 30.6946L44.4549 30.2483L44.4296 30.0715L44.278 29.9704L44.2359 29.7009L43.9917 29.4904L43.7643 29.1788L43.7222 28.9094L43.9075 28.7325L43.9159 28.463L44.0843 28.3283L44.2359 28.3115L44.278 27.9073L43.9412 27.6462L43.478 27.8567L43.0401 27.3936L43.0485 27.2083L43.0064 27.0315L42.9812 26.5936L43.057 26.3157L42.9896 26.0294L43.2254 25.7851L43.478 25.4315L43.537 24.943L43.8485 25.0104L44.3959 24.682L44.4549 24.7073C44.497 24.6988 44.5559 24.7073 44.6401 24.7578C44.6654 24.7746 44.6907 24.783 44.7075 24.7999L44.7833 24.5473L44.9349 24.5557L45.137 24.9262L44.9938 25.1451L44.9601 25.3641L45.1285 25.482L45.297 25.4651L45.4485 25.5915L45.4907 25.7683L46.0043 25.8273L46.1138 25.7346H46.3328L46.6528 25.8525L46.7875 25.7094L47.1917 25.9873L47.3685 25.8104L47.5033 25.3725L47.5454 24.9178L47.6296 24.8251L47.057 24.362ZM28.6822 9.22094C28.5812 9.2462 28.5222 9.26304 28.438 9.23778L28.3791 8.89252L28.7833 8.83357L28.8675 9.18725C28.8085 9.19567 28.7412 9.2041 28.6822 9.22094ZM32.1012 35.183L31.9749 35.1325L31.9159 35.1157L32.017 34.7873L32.0843 34.8125L32.1349 34.8546L32.1685 34.9641L32.1012 35.183Z" fill="#0078D7"/>
<path d="M29.1956 17.1861C31.3396 17.1861 33.0777 15.448 33.0777 13.304C33.0777 11.16 31.3396 9.42188 29.1956 9.42188C27.0516 9.42188 25.3135 11.16 25.3135 13.304C25.3135 15.448 27.0516 17.1861 29.1956 17.1861Z" fill="#50E6FF"/>
<path d="M29.1957 16.1999C30.7956 16.1999 32.0925 14.903 32.0925 13.3031C32.0925 11.7032 30.7956 10.4062 29.1957 10.4062C27.5958 10.4062 26.2988 11.7032 26.2988 13.3031C26.2988 14.903 27.5958 16.1999 29.1957 16.1999Z" fill="#0078D7"/>
<path d="M29.1959 15.0217C30.1447 15.0217 30.9138 14.2526 30.9138 13.3038C30.9138 12.3551 30.1447 11.5859 29.1959 11.5859C28.2472 11.5859 27.478 12.3551 27.478 13.3038C27.478 14.2526 28.2472 15.0217 29.1959 15.0217Z" fill="#50E6FF"/>
<path d="M4.00857 25.8867C1.8612 25.8867 0.126465 27.6215 0.126465 29.7688C0.126465 31.9162 1.8612 33.6509 4.00857 33.6509C6.15594 33.6509 7.89067 31.9162 7.89067 29.7688C7.88225 27.6215 6.14752 25.8867 4.00857 25.8867ZM4.00857 32.6657C2.40857 32.6657 1.11173 31.3688 1.11173 29.7688C1.11173 28.1688 2.40857 26.872 4.00857 26.872C5.60857 26.872 6.90541 28.1688 6.90541 29.7688C6.90541 31.3688 5.60857 32.6657 4.00857 32.6657Z" fill="#50E6FF"/>
<path d="M4.00842 31.4788C4.95719 31.4788 5.72632 30.7096 5.72632 29.7609C5.72632 28.8121 4.95719 28.043 4.00842 28.043C3.05965 28.043 2.29053 28.8121 2.29053 29.7609C2.29053 30.7096 3.05965 31.4788 4.00842 31.4788Z" fill="#50E6FF"/>
</svg>
