<svg data-slug-id="function09" viewBox="0 0 49 49" xmlns="http://www.w3.org/2000/svg">
<path d="M41.2209 38.7674H36.3976C36.3976 38.7082 36.3976 38.649 36.3976 38.5898C36.3976 36.7848 34.9477 35.3348 33.1426 35.3348H31.5151C31.3968 31.3401 28.0826 28.1147 24.0287 28.1147C19.9747 28.1147 16.6605 31.3401 16.483 35.3644H15.1514C13.3464 35.3644 11.8964 36.8144 11.8964 38.6194C11.8964 38.6786 11.8964 38.7378 11.8964 38.797H6.98433C4.58747 38.7674 2.66406 40.7204 2.66406 43.0876C2.66406 45.4549 4.58747 47.4079 6.98433 47.4079H41.2209C43.6178 47.4079 45.5412 45.4845 45.5412 43.0876C45.5412 40.6908 43.6178 38.7674 41.2209 38.7674ZM25.1531 40.6612C25.1531 41.253 24.6797 41.7264 24.0878 41.7264C23.496 41.7264 23.0226 41.253 23.0226 40.6612V32.8788C23.0226 32.287 23.496 31.8135 24.0878 31.8135C24.6797 31.8135 25.1531 32.287 25.1531 32.8788V40.6612Z" fill="#50E6FF"/>
<path d="M28.1417 16.3375C28.3785 15.0059 28.4968 13.5264 28.4968 11.9877C28.4968 5.86235 25.4786 0.891091 24.0878 0.891091C22.6082 0.8615 19.6788 5.86235 19.6788 11.9877C19.6788 13.4968 19.7971 14.9172 20.0043 16.2487C17.3707 18.1426 15.5952 21.6935 15.5952 24.8893V29.8013C15.5952 30.2452 16.1278 30.4228 16.4238 30.0973L20.7144 25.2148V25.629C20.7736 25.9249 21.0991 26.2209 21.6317 26.428V29.0912C21.6909 29.5646 22.7858 29.9493 24.0878 29.9493C25.3898 29.9493 26.4846 29.5646 26.5438 29.0912V26.428C27.0765 26.2209 27.4316 25.9249 27.4611 25.629V25.4515L31.5447 30.0973C31.8406 30.4228 32.3732 30.2156 32.3732 29.8013V24.8893C32.4324 21.7526 30.7161 18.2609 28.1417 16.3375Z" fill="#0078D4"/>
</svg>
