<svg data-slug-id="function14" viewBox="0 0 48 48" xmlns="http://www.w3.org/2000/svg">
<path d="M40.9684 7.03125L39.1831 8.81651C41.1536 10.787 42.7031 13.086 43.7894 15.646C44.9094 18.2902 45.4736 21.1028 45.4736 23.9996C45.4736 26.8965 44.9094 29.7091 43.7894 32.3533C42.7115 34.9133 41.162 37.2038 39.1831 39.1828L40.9684 40.968C45.3136 36.6312 47.9999 30.627 47.9999 23.9996C47.9999 17.3723 45.3136 11.3681 40.9684 7.03125Z" fill="#50E6FF"/>
<path d="M25.5156 10.7202C25.2293 10.3244 24.9177 10.1055 24.6062 10.1055C24.4883 10.1055 24.3704 10.1392 24.2525 10.1981C24.2356 10.2065 24.2188 10.2234 24.202 10.2318C24.1598 10.2655 24.1093 10.2907 24.0672 10.3244C24.0504 10.3328 24.042 10.3497 24.0251 10.3581C22.8209 11.3855 21.8693 15.5286 21.5914 20.8507C22.3998 20.8676 23.1325 21.2044 23.6714 21.7433C24.2272 22.2991 24.5641 23.057 24.5641 23.9075C24.5641 24.8086 24.1767 25.6086 23.562 26.1728C23.0398 26.6528 22.3409 26.9475 21.583 26.9644C21.8441 32.3875 22.8041 36.6233 24.0251 37.6675C24.0756 37.7096 24.1262 37.7517 24.1851 37.7854C24.3198 37.8696 24.463 37.9117 24.6062 37.9117C24.9262 37.9117 25.2293 37.6928 25.5156 37.297C26.3409 36.1517 27.023 33.4738 27.3935 30.0044C27.5872 28.1939 27.6967 26.1644 27.6967 24.017C27.6967 21.8697 27.5872 19.8486 27.3935 18.0297C27.023 14.5434 26.3493 11.8655 25.5156 10.7202Z" fill="#50E6FF"/>
<path d="M26.6524 10.3147C26.6945 10.281 26.7282 10.2557 26.7703 10.2305L26.4756 10.3231C26.5177 10.3315 26.5598 10.3399 26.6019 10.3484C26.6187 10.3399 26.6356 10.3231 26.6524 10.3147Z" fill="white"/>
<path d="M26.8379 10.1992C26.8126 10.2076 26.7958 10.2245 26.7705 10.2329L26.7874 10.2245C26.8042 10.2161 26.821 10.2076 26.8379 10.1992Z" fill="white"/>
<path d="M26.7871 10.2305L26.7702 10.2389C26.7281 10.2642 26.686 10.2894 26.6523 10.3231C26.7029 10.2894 26.745 10.2557 26.7871 10.2305Z" fill="white"/>
<path d="M26.4756 37.677L26.6945 37.7444C26.6524 37.7191 26.6103 37.6854 26.5682 37.6602C26.5345 37.6686 26.5093 37.6686 26.4756 37.677Z" fill="white"/>
<path d="M2.46729 30.3164C2.47571 30.3248 2.49255 30.3164 2.50097 30.3164C2.48413 30.3248 2.47571 30.3248 2.46729 30.3164Z" fill="white"/>
<path d="M2.27344 30.3086C2.33238 30.317 2.39975 30.3254 2.46712 30.3254V30.317C2.39975 30.317 2.34081 30.3086 2.27344 30.3086Z" fill="white"/>
<path d="M21.5915 26.9486C22.3579 26.9317 23.0484 26.637 23.5705 26.157C24.1852 25.6012 24.5726 24.7928 24.5726 23.8917C24.5726 23.0496 24.2273 22.2833 23.68 21.7275C23.141 21.1886 22.4084 20.8517 21.6 20.8349C21.8779 15.5128 22.8294 11.3696 24.0336 10.3423C24.0505 10.3339 24.0589 10.317 24.0757 10.3086C24.0589 10.317 24.0421 10.3254 24.0252 10.3423C19.6884 13.1465 14.8547 15.2686 9.69261 16.5317C8.63156 16.7928 7.55367 17.0117 6.46736 17.197C5.2042 17.4159 3.9242 17.576 2.63578 17.6938C2.58526 17.6854 2.52631 17.677 2.47579 17.677C2.36631 17.677 2.26526 17.6938 2.15579 17.7275C0.934735 18.1402 0 20.7928 0 24.0096C0 27.3359 1.0021 30.0643 2.27368 30.3086C2.34105 30.317 2.4 30.317 2.46736 30.3254C2.47579 30.3254 2.49263 30.3254 2.50105 30.3254C3.83999 30.4433 5.17052 30.6117 6.47578 30.8307C7.57051 31.0159 8.64841 31.2433 9.70946 31.5043C9.81893 31.5296 9.9284 31.5633 10.0379 31.5886V42.9485H15.0905V33.1717C18.2231 34.3591 21.2042 35.8664 23.9747 37.6601C24.0168 37.6854 24.0589 37.7191 24.101 37.7443L24.1768 37.7696C24.1263 37.7359 24.0673 37.7022 24.0168 37.6517C22.8126 36.6159 21.8442 32.3717 21.5915 26.9486Z" fill="#0078D4"/>
<path d="M37.8947 24.0008C37.8947 20.1103 36.5389 16.5314 34.2737 13.7188L32.48 15.5124C34.3495 17.9377 35.3684 20.8935 35.3684 24.0008C35.3684 27.1082 34.3579 30.0556 32.4884 32.4808L34.2821 34.2745C36.5389 31.4619 37.8947 27.8914 37.8947 24.0008Z" fill="#50E6FF"/>
</svg>
