<svg data-slug-id="function23" viewBox="0 0 48 48" xmlns="http://www.w3.org/2000/svg">
<path d="M1.93798 21.8488L2.68837 22.0364C12.0682 24.9441 22.1984 24.9441 31.5782 22.0364C36.2681 20.6294 40.7704 18.4721 44.8037 15.6581L45.4603 15.1892L45.9293 14.9077C45.6479 14.7202 45.3665 14.5326 45.0851 14.4388H44.9913C40.8642 12.8442 33.6417 12 23.9805 12C14.3193 12 7.00308 12.8442 2.87596 14.4388C2.40697 14.6264 2.03179 14.9077 1.6566 15.2829C1.18761 15.6581 1 16.3147 1 16.8775V21.5674L1.93798 21.8488ZM22.4798 16.6899H25.6689V17.4403V18.1907H22.4798V17.4403V16.6899Z" fill="#50E6FF"/>
<path d="M46.8672 16.0341L45.6478 16.8782C41.4269 19.786 36.9246 22.0371 32.0471 23.4441C22.3859 26.4456 11.9743 26.4456 2.31313 23.4441L1.09375 23.0689V23.5379C1.18755 26.5394 2.50072 29.3534 4.75187 31.5107C7.09682 33.7619 10.1922 35.0751 13.5689 35.0751H15.5386C16.1014 35.0751 16.6642 34.8875 17.0394 34.6061L20.2286 32.1673C21.1665 31.2293 22.5735 30.7603 23.9805 30.7603C25.3874 30.7603 26.7944 31.3231 27.8262 32.2611L31.0153 34.6999C31.4843 34.9813 31.9533 35.1689 32.5161 35.1689H34.4859C37.8626 35.1689 40.9579 33.9495 43.3029 31.6045C45.6478 29.3534 46.961 26.3519 46.961 23.1627V17.0658C47.0548 16.5969 46.961 16.3155 46.8672 16.0341Z" fill="#0078D7"/>
</svg>
