<svg data-slug-id="function36" viewBox="0 0 49 49" xmlns="http://www.w3.org/2000/svg">
<path d="M45.9338 16.3681C45.4627 15.7085 44.6146 15.6143 43.9549 15.9912L37.7357 19.7605C37.6414 19.8547 37.453 19.8547 37.3587 19.6662L35.4741 17.3104C35.4741 17.122 35.5684 17.0277 35.5684 16.8393V11.5623C35.5684 11.3739 35.5684 11.0912 35.4741 10.9027L37.0761 8.64115C37.1703 8.54692 37.3588 8.45269 37.453 8.54692L43.7665 12.3162C44.4261 12.6931 45.3684 12.5989 45.8396 11.9393C46.3107 11.1854 46.1223 10.2431 45.3684 9.77193L37.5472 5.06036C36.9818 4.68343 36.1337 4.87189 35.7568 5.43728L32.3645 9.86616H31.1395H30.3856C29.8202 9.86616 29.3491 10.1489 28.9722 10.62C28.9722 10.9027 28.8779 11.1854 28.8779 11.4681H15.3086C16.1567 12.5989 16.6278 14.0123 16.6278 15.52C16.6278 15.9912 16.5336 16.4624 16.4394 16.9335H28.8779C28.8779 17.3104 29.0664 17.5931 29.2548 17.7816C29.5375 18.1585 30.0087 18.347 30.4799 18.347H31.2337H32.3645L35.7568 22.5874C36.1337 23.1528 36.8876 23.247 37.453 22.8701L45.4627 18.2528C46.2165 17.9701 46.405 17.0277 45.9338 16.3681Z" fill="#0078D4"/>
<path d="M6.2627 21.7367L16.9108 41.9965H7.4877V45.86H36.1341V41.9965H25.6744L14.3666 20.7002C13.1416 21.831 11.4454 22.5848 9.5608 22.5848C8.33579 22.5848 7.20501 22.3021 6.2627 21.7367Z" fill="#0078D4"/>
<path d="M9.5597 20.5169C12.2924 20.5169 14.554 18.2553 14.554 15.5226C14.554 12.7899 12.2924 10.5283 9.5597 10.5283C6.82698 10.5283 4.56543 12.7899 4.56543 15.5226C4.56543 18.2553 6.82698 20.5169 9.5597 20.5169Z" fill="#50E6FF"/>
</svg>
