<svg data-slug-id="function05" viewBox="0 0 48 49" xmlns="http://www.w3.org/2000/svg">
<path d="M25.2173 17.665V0.00830078H0V27.858H20.5932V17.665H25.2173Z" fill="#0078D7"/>
<path d="M20.1131 21.3355C20.071 21.3187 17.561 20.3162 15.0595 18.6651C15.5649 18.1681 16.0365 17.6458 16.4408 17.0983C18.5212 14.2931 19.6414 10.5697 20.0625 8.75854C20.071 8.71642 20.0962 7.49494 20.0962 7.49494V5.59112L13.9309 5.60797V2.67642H11.0588V5.62481L5.30615 5.64166V8.51424L17.022 8.4637C16.5587 10.2496 15.607 13.2569 14.0741 15.3208C13.6782 15.8515 13.215 16.3485 12.7012 16.8203C12.1874 16.3485 11.7242 15.8431 11.3283 15.3208C10.0565 13.6107 8.96156 11.2436 8.44778 9.53354C8.41409 9.43245 8.35513 9.23028 8.35513 9.23028L5.29773 9.2724C5.89573 11.5384 7.19281 14.7311 8.94471 17.0899C9.35742 17.6374 9.82066 18.1597 10.326 18.6567C7.82451 20.3162 5.31457 21.3187 5.27246 21.3355L6.35055 24.0902C6.54427 24.0144 9.70275 22.7592 12.6843 20.6195C15.6744 22.7592 18.8328 24.0144 19.0181 24.0902L20.1131 21.3355Z" fill="#50E6FF"/>
<path d="M47.9998 20.1332H22.7068V48.0082H47.9998V20.1332Z" fill="#0078D7"/>
<path d="M43.9907 43.0041H40.7733L39.1814 38.4973H32.2243L30.6914 43.0041H27.4824L34.111 25.3053H37.4211L43.9907 43.0041ZM38.4065 36.1048L35.9471 29.0455C35.8713 28.8181 35.7955 28.4474 35.7113 27.9336H35.6608C35.585 28.4053 35.5007 28.776 35.4165 29.0455L32.9824 36.1048H38.4065Z" fill="#50E6FF"/>
<path d="M43.6874 12.6524C40.2678 6.84831 34.3383 2.71214 27.3896 1.73495V4.6328C33.1002 5.55102 37.9853 8.92903 40.9416 13.6465L38.0021 14.7079L43.2747 17.1761L45.7425 11.9027L43.6874 12.6524Z" fill="#0078D7"/>
<path d="M7.36873 34.3441L9.76075 33.4764L4.49663 31.0082L2.02881 36.2816L4.63139 35.3381C7.94989 41.117 13.7531 45.2868 20.5922 46.3904V43.4841C14.9912 42.4395 10.2324 39.0362 7.36873 34.3441Z" fill="#0078D7"/>
</svg>
