<svg data-slug-id="function01" viewBox="0 0 48 49" xmlns="http://www.w3.org/2000/svg">
<path d="M45.3971 24.9773L45.3804 24.9438L45.8407 24.4837L35.5795 14.2177L45.7905 3.99351L45.3218 3.52497L45.0623 3.00623L31.2608 9.89206L24.4646 3.0899L24.0126 3.53334L23.6109 3.13173L16.798 9.92553L2.93784 2.99786L2.65327 3.55844L2.21805 3.99351L12.4541 14.2511L2.37707 24.308L2.31012 24.3414L2.31848 24.3665L2.22642 24.4586L2.51099 24.743L2.59468 24.902L2.18457 25.312L12.4625 35.5863L2.2599 45.8105L2.82066 46.3711L3.02154 46.7727L16.7729 39.8952L23.5691 46.689L24.0126 46.2456L24.4562 46.689L31.2106 39.9203L44.9452 46.8061L45.1126 46.4798L45.757 45.844L35.5293 35.5947L45.7654 25.3454L45.3971 24.9773ZM24.6404 23.396V15.2635L30.0555 17.9743L24.6404 23.396ZM31.244 18.56L42.6602 24.2745H25.5359L31.244 18.56ZM25.3853 14.226L31.0097 11.4232L33.8051 14.2177L30.9929 17.0289L25.3853 14.226ZM23.3849 15.23V23.4378L17.9195 17.9576L23.3849 15.23ZM16.9905 17.0205L14.2369 14.2595L17.0491 11.4566L22.5814 14.226L16.9905 17.0205ZM22.4559 24.2745H5.25624L16.7394 18.5433L22.4559 24.2745ZM22.5061 25.5295L16.7729 31.2775L5.31482 25.5295H22.5061ZM23.3849 26.4247V34.5907L17.953 31.8631L23.3849 26.4247ZM22.5814 35.5863L17.024 38.3641L14.2452 35.5863L17.024 32.8002L22.5814 35.5863ZM24.6404 34.5572V26.4666L30.0304 31.8631L24.6404 34.5572ZM30.9678 32.8002L33.7633 35.5947L30.9678 38.3892L25.3769 35.5863L30.9678 32.8002ZM25.4857 25.5295H42.7021L31.2189 31.2691L25.4857 25.5295ZM42.2334 22.6597L32.1731 17.6229L34.6923 15.1045L42.2334 22.6597ZM42.133 5.87602L34.684 13.3308L32.1898 10.8375L42.133 5.87602ZM24.6404 13.1969V5.04772L30.0723 10.4861L24.6404 13.1969ZM23.3849 5.13138V13.222L17.9781 10.5196L23.3849 5.13138ZM5.85048 5.85929L15.8606 10.8626L13.3497 13.3643L5.85048 5.85929ZM13.3413 15.1464L15.802 17.6062L5.93418 22.5342L13.3413 15.1464ZM5.85048 27.2029L15.8355 32.2062L13.3497 34.6995L5.85048 27.2029ZM5.91744 43.9196L13.3581 36.4732L15.8439 38.9581L5.91744 43.9196ZM23.3849 36.5903V44.7395L17.953 39.3095L23.3849 36.5903ZM24.6487 44.7312V36.6238L30.0388 39.3263L24.6487 44.7312ZM42.1413 43.9949L32.148 38.9832L34.6421 36.4816L42.1413 43.9949ZM32.148 32.2062L42.1078 27.228L34.6421 34.7078L32.148 32.2062Z" fill="#50E6FF"/>
<path d="M45.3049 6.01957C46.6824 6.01957 47.7991 4.90328 47.7991 3.52628C47.7991 2.14927 46.6824 1.03299 45.3049 1.03299C43.9275 1.03299 42.8108 2.14927 42.8108 3.52628C42.8108 4.90328 43.9275 6.01957 45.3049 6.01957Z" fill="#0078D4"/>
<path d="M24.0291 6.01957C25.4066 6.01957 26.5232 4.90328 26.5232 3.52628C26.5232 2.14927 25.4066 1.03299 24.0291 1.03299C22.6516 1.03299 21.5349 2.14927 21.5349 3.52628C21.5349 4.90328 22.6516 6.01957 24.0291 6.01957Z" fill="#0078D4"/>
<path d="M2.6028 6.01957C3.98029 6.01957 5.09696 4.90328 5.09696 3.52628C5.09696 2.14927 3.98029 1.03299 2.6028 1.03299C1.22532 1.03299 0.108643 2.14927 0.108643 3.52628C0.108643 4.90328 1.22532 6.01957 2.6028 6.01957Z" fill="#0078D4"/>
<path d="M45.2883 27.4375C46.6658 27.4375 47.7825 26.3213 47.7825 24.9442C47.7825 23.5672 46.6658 22.451 45.2883 22.451C43.9109 22.451 42.7942 23.5672 42.7942 24.9442C42.7942 26.3213 43.9109 27.4375 45.2883 27.4375Z" fill="#0078D4"/>
<path d="M24.0291 27.4375C25.4066 27.4375 26.5232 26.3213 26.5232 24.9442C26.5232 23.5672 25.4066 22.451 24.0291 22.451C22.6516 22.451 21.5349 23.5672 21.5349 24.9442C21.5349 26.3213 22.6516 27.4375 24.0291 27.4375Z" fill="#0078D4"/>
<path d="M2.6028 27.4375C3.98029 27.4375 5.09696 26.3213 5.09696 24.9442C5.09696 23.5672 3.98029 22.451 2.6028 22.451C1.22532 22.451 0.108643 23.5672 0.108643 24.9442C0.108643 26.3213 1.22532 27.4375 2.6028 27.4375Z" fill="#0078D4"/>
<path d="M45.2883 48.6915C46.6658 48.6915 47.7825 47.5752 47.7825 46.1982C47.7825 44.8212 46.6658 43.7049 45.2883 43.7049C43.9109 43.7049 42.7942 44.8212 42.7942 46.1982C42.7942 47.5752 43.9109 48.6915 45.2883 48.6915Z" fill="#0078D4"/>
<path d="M24.0291 48.6915C25.4066 48.6915 26.5232 47.5752 26.5232 46.1982C26.5232 44.8212 25.4066 43.7049 24.0291 43.7049C22.6516 43.7049 21.5349 44.8212 21.5349 46.1982C21.5349 47.5752 22.6516 48.6915 24.0291 48.6915Z" fill="#0078D4"/>
<path d="M2.6028 48.6915C3.98029 48.6915 5.09696 47.5752 5.09696 46.1982C5.09696 44.8212 3.98029 43.7049 2.6028 43.7049C1.22532 43.7049 0.108643 44.8212 0.108643 46.1982C0.108643 47.5752 1.22532 48.6915 2.6028 48.6915Z" fill="#0078D4"/>
</svg>
