<svg data-slug-id="function34" viewBox="0 0 48 48" xmlns="http://www.w3.org/2000/svg">
<path d="M45.4389 21.3672C44.2278 21.3672 43.2185 22.2251 42.9746 23.3605H5.03384C4.78992 22.2251 3.78064 21.3672 2.56949 21.3672C1.18172 21.3672 0.0546875 22.4942 0.0546875 23.882C0.0546875 25.2698 1.18172 26.3968 2.56949 26.3968C3.70494 26.3968 4.66376 25.6482 4.97496 24.6137H43.0251C43.3447 25.6482 44.3035 26.3968 45.4305 26.3968C46.8183 26.3968 47.9453 25.2698 47.9453 23.882C47.9622 22.4942 46.8267 21.3672 45.4389 21.3672Z" fill="#0078D4"/>
<path d="M40.3503 5.04297C38.9625 5.04297 37.8355 6.17001 37.8355 7.55777C37.8355 8.0456 37.97 8.49137 38.2055 8.87826L23.5288 23.555L24.4203 24.4465L39.1139 9.75297C39.4755 9.96324 39.9045 10.081 40.3503 10.081C41.738 10.081 42.8651 8.95396 42.8651 7.56619C42.8735 6.17001 41.738 5.04297 40.3503 5.04297Z" fill="#50E6FF"/>
<path d="M22.7887 24.293L8.91943 38.1623C8.54095 37.9352 8.09518 37.8006 7.62418 37.8006C6.23641 37.8006 5.10938 38.9276 5.10938 40.3154C5.10938 41.7032 6.23641 42.8302 7.62418 42.8302C9.01195 42.8302 10.139 41.7032 10.139 40.3154C10.139 39.8612 10.0128 39.4323 9.80256 39.0622L23.6803 25.1845L22.7887 24.293Z" fill="#50E6FF"/>
<path d="M40.3756 37.8532C39.9215 37.8532 39.5009 37.971 39.1393 38.1812L9.78585 8.82779C10.0045 8.45772 10.1307 8.02036 10.1307 7.55777C10.1307 6.17001 9.00365 5.04297 7.61588 5.04297C6.22811 5.04297 5.10107 6.17001 5.10107 7.55777C5.10107 8.94554 6.22811 10.0726 7.61588 10.0726C8.08688 10.0726 8.52424 9.94642 8.90272 9.71933L38.2393 39.0559C38.0038 39.4428 37.8693 39.8886 37.8693 40.3764C37.8693 41.7642 38.9963 42.8912 40.3841 42.8912C41.7718 42.8912 42.8989 41.7642 42.8989 40.3764C42.8905 38.9886 41.7634 37.8532 40.3756 37.8532Z" fill="#50E6FF"/>
<path d="M24.6727 42.9773V5.01972C25.7493 4.73376 26.5399 3.7497 26.5399 2.58902C26.5399 1.20126 25.4128 0.0742188 24.0251 0.0742188C22.6373 0.0742188 21.5103 1.20126 21.5103 2.58902C21.5103 3.76653 22.3261 4.75899 23.4195 5.03655V42.9689C22.3261 43.2381 21.5103 44.2305 21.5103 45.4164C21.5103 46.8042 22.6373 47.9312 24.0251 47.9312C25.4128 47.9312 26.5399 46.8042 26.5399 45.4164C26.5399 44.2473 25.7493 43.2633 24.6727 42.9773Z" fill="#0078D4"/>
<path d="M29.0214 23.8661C29.0214 26.6501 26.7673 28.9042 23.9833 28.9042C21.1994 28.9042 18.9453 26.6501 18.9453 23.8661C18.9453 21.0822 21.1994 18.8281 23.9833 18.8281C26.7673 18.8281 29.0214 21.0822 29.0214 23.8661Z" fill="#50E6FF"/>
</svg>
