<svg data-slug-id="function10" viewBox="0 0 49 49" xmlns="http://www.w3.org/2000/svg">
<path d="M46.8342 22.5287L30.4052 6.03213C29.4587 5.0856 27.9713 5.0856 27.0248 6.03213L26.4839 6.573L42.372 22.4611C43.3185 23.4077 43.3185 24.8951 42.372 25.8416L26.4839 41.7973L27.0248 42.3382C27.9713 43.2847 29.4587 43.2847 30.4052 42.3382L46.9018 25.8416C47.7807 24.9627 47.7807 23.4753 46.8342 22.5287Z" fill="#50E6FF"/>
<path d="M38.1805 22.5287L21.7515 6.03213C20.805 5.0856 19.3176 5.0856 18.3711 6.03213L14.923 9.48019L19.25 13.8072C19.5204 13.7396 19.7909 13.672 20.1289 13.672C21.6839 13.672 22.9685 14.9565 22.9685 16.5115C22.9685 16.8496 22.9009 17.12 22.8333 17.3905L27.025 21.5822C27.2955 21.447 27.6335 21.447 27.9715 21.447C29.5266 21.447 30.8111 22.7316 30.8111 24.2866C30.8111 25.8416 29.5266 27.1262 27.9715 27.1262C26.4165 27.1262 25.132 25.8416 25.132 24.2866C25.132 23.8809 25.1996 23.4753 25.4024 23.1372L21.4811 19.2159V29.6277C22.36 30.101 23.0361 31.0475 23.0361 32.1968C23.0361 33.7519 21.7515 35.0364 20.1965 35.0364C18.6415 35.0364 17.3569 33.7519 17.3569 32.1968C17.3569 30.9799 18.1006 29.9657 19.1148 29.5601V19.2159C18.1006 18.8102 17.3569 17.7285 17.3569 16.5791C17.3569 16.1735 17.4245 15.7678 17.6274 15.3622L13.4356 11.1704L1.87445 22.5287C0.927919 23.4753 0.927919 24.9627 1.87445 25.9092L18.3711 42.4058C19.3176 43.3523 20.805 43.3523 21.7515 42.4058L38.2481 25.9092C39.127 24.9627 39.127 23.4753 38.1805 22.5287Z" fill="#0078D4"/>
</svg>
