<svg data-slug-id="function15" viewBox="0 0 48 48" xmlns="http://www.w3.org/2000/svg">
<path d="M3.11621 32.7507L14.3162 37.9129H18.9309V28.2539H14.6531V33.8539L4.21937 29.4581L3.11621 32.7507Z" fill="#0078D4"/>
<path d="M27.385 22.1568L12.4966 16.2031L8.66504 25.7863L23.5535 31.7484L27.385 22.1568Z" fill="#50E6FF"/>
<path d="M43.6464 17.5006L28.758 11.5469L24.0254 23.3785L38.9138 29.3321L43.6464 17.5006Z" fill="#50E6FF"/>
<path d="M4.87558 25.3906H0.151367V37.8538H4.87558V25.3906Z" fill="#0078D4"/>
<path d="M33.8697 29.2394L3.78125 17.1552L10.3665 0.683594L47.9244 15.732L36.6149 22.0983L33.8697 29.2394Z" fill="#0078D4"/>
<path d="M35.301 19.4631L9.27148 9.02939L11.3599 3.75781L42.661 16.2799L35.301 19.4631Z" fill="#50E6FF"/>
</svg>
