<svg data-slug-id="function22" viewBox="0 0 48 48" xmlns="http://www.w3.org/2000/svg">
<path d="M24.0001 0C13.5344 0 5.05273 8.48421 5.05273 18.9474C5.05273 29.4105 13.5344 37.8947 24.0001 37.8947C34.4658 37.8947 42.9475 29.4131 42.9475 18.9474C42.9475 8.48169 34.4607 0 24.0001 0ZM30.3159 15.1579C29.3166 15.1579 28.3397 14.8616 27.5088 14.3064C26.6779 13.7512 26.0303 12.9621 25.6479 12.0388C25.2655 11.1156 25.1654 10.0997 25.3604 9.11955C25.5553 8.13943 26.0365 7.23914 26.7431 6.53252C27.4498 5.82589 28.3501 5.34468 29.3302 5.14972C30.3103 4.95476 31.3262 5.05482 32.2495 5.43724C33.1727 5.81966 33.9618 6.46727 34.517 7.29817C35.0722 8.12908 35.3685 9.10595 35.3685 10.1053C35.3685 11.4453 34.8362 12.7305 33.8887 13.678C32.9411 14.6256 31.6559 15.1579 30.3159 15.1579Z" fill="#50E6FF"/>
<path d="M34.0135 16.3301L28.7436 21.5992L23.365 16.2207L19.7928 12.6484L8.74609 23.6943L12.3191 27.2674L19.7928 19.7937L25.1714 25.1722L28.7436 28.7444L37.5857 19.9023L34.0135 16.3301Z" fill="#0078D4"/>
<path d="M10.1055 47.9996L17.6844 35.4102H30.316L37.8949 47.9996H10.1055Z" fill="#0078D4"/>
</svg>
