<svg data-slug-id="function11" viewBox="0 0 61 61" xmlns="http://www.w3.org/2000/svg">
<path d="M30.0783 5.68542C15.8405 5.68542 4.28809 16.8379 4.28809 31.0871C4.28809 42.3196 11.4641 51.861 21.4739 55.4032L24.7306 46.0447C18.8458 43.8279 14.6407 38.1603 14.6407 31.4985C14.6407 22.917 21.5996 15.9467 30.1925 15.9467C38.7855 15.9467 45.7444 22.9055 45.7444 31.4985C45.7444 38.1831 41.5165 43.8622 35.5974 46.0676L38.9112 55.3233C48.8067 51.7124 55.8799 42.2282 55.8799 31.0757C55.8799 16.8379 44.3274 5.68542 30.0783 5.68542Z" fill="#50E6FF"/>
<path d="M45.5502 47.2102C43.2991 49.4613 40.6481 51.1639 37.7457 52.238L33.175 39.3715C36.6601 38.1031 39.1626 34.7665 39.1626 30.8471C39.1626 25.8308 35.1061 21.7743 30.0898 21.7743C25.0734 21.7743 21.0169 25.8308 21.0169 30.8471C21.0169 34.8008 23.5422 38.1488 27.0502 39.3829L22.5595 52.2951C19.6114 51.221 16.9033 49.507 14.6179 47.2102C10.4814 43.0738 8.20752 37.5889 8.20752 31.7498C8.20752 25.9108 10.4814 20.4259 14.6179 16.2894C18.7544 12.153 24.2507 9.87903 30.0783 9.87903C35.906 9.87903 41.4022 12.153 45.5387 16.2894C49.6752 20.4259 51.9491 25.9222 51.9491 31.7498C51.9491 37.5889 49.6752 43.0738 45.5502 47.2102Z" fill="#0078D4"/>
</svg>
