<svg data-slug-id="function18" viewBox="0 0 48 48" xmlns="http://www.w3.org/2000/svg">
<path d="M32.9236 25.3164H15.1016L17.7631 47.9225H30.2284L32.9236 25.3164Z" fill="#0078D4"/>
<path d="M15.1016 20.2398H32.9236L32.6288 17.7383H15.3964L15.1016 20.2398Z" fill="#50E6FF"/>
<path d="M35.2988 21.4609H12.6338V23.9877H35.2988V21.4609Z" fill="#50E6FF"/>
<path d="M22.6482 14.2828C22.6482 14.2828 18.8833 12.4551 18.8833 9.79357C18.8833 6.08766 24.1642 6.08766 24.1642 3.28296C24.1642 0.360339 22.7324 0.0234375 22.7324 0.0234375C22.7324 0.0234375 26.4299 0.638282 26.4636 3.28296C26.5225 7.60371 21.4101 7.26681 21.4101 10.8043C21.4185 13.1626 22.6482 14.2828 22.6482 14.2828Z" fill="#0078D4"/>
<path d="M25.2927 16.1984C25.2927 16.1984 22.3701 14.3202 22.3701 11.6502C22.3701 7.94433 27.5331 7.71692 27.5331 4.29737C27.5331 1.79588 26.4129 1.32422 26.4129 1.32422C26.4129 1.32422 29.2766 2.39388 29.2766 5.03013C29.2766 9.94047 24.3326 9.01399 24.3326 11.7682C24.3326 14.7582 25.2927 16.1984 25.2927 16.1984Z" fill="#0078D4"/>
</svg>
