<svg data-slug-id="function35" viewBox="0 0 48 48" xmlns="http://www.w3.org/2000/svg">
<path fill-rule="evenodd" clip-rule="evenodd" d="M15.3242 46.7041C14.1984 46.707 13.1337 46.1895 12.438 45.3027L1.57532 31.7551C0.855009 30.8672 0.591289 29.691 0.861897 28.578L4.74094 11.6657C4.9899 10.5567 5.73383 9.62637 6.7582 9.14246L22.4623 1.60426C23.4818 1.10652 24.6715 1.10652 25.6899 1.60426L41.3951 9.11085C42.4194 9.59378 43.1634 10.5251 43.4123 11.6331L47.2914 28.5464C47.5472 29.6594 47.2845 30.8277 46.5779 31.7235L35.7152 45.2731C35.0097 46.149 33.9509 46.6626 32.8291 46.6744L15.3242 46.705V46.7041Z" fill="#0078D4"/>
<path fill-rule="evenodd" clip-rule="evenodd" d="M24.0454 0.54541C23.3802 0.552323 22.7248 0.701448 22.1216 0.980933L6.41652 8.51913C5.18846 9.09785 4.29594 10.2128 3.9968 11.5401L0.117751 28.4534C-0.196155 29.7867 0.125623 31.19 0.986649 32.2526L11.8484 45.8022C12.6858 46.852 13.9542 47.4604 15.2935 47.4545H32.7039C34.0432 47.4604 35.3126 46.853 36.149 45.8032L47.0117 32.2546C47.8757 31.193 48.1974 29.7876 47.8806 28.4544L44.0015 11.5411C43.7024 10.2138 42.8089 9.09884 41.5808 8.52012L25.9387 0.980933C25.3473 0.697497 24.7008 0.54936 24.0454 0.54541ZM24.0454 2.009C24.4853 2.009 24.9192 2.1048 25.3178 2.28948L41.0229 9.79508C41.8367 10.1931 42.4291 10.9357 42.6367 11.8196L46.5147 28.7329C46.7332 29.6296 46.5138 30.5767 45.9253 31.2858L35.0626 44.8364C34.4997 45.5474 33.6417 45.9612 32.7364 45.9573H15.324C14.4187 45.9612 13.5616 45.5474 12.9977 44.8364L2.13403 31.2868C1.57313 30.5639 1.35763 29.6296 1.54459 28.7329L5.42462 11.8196C5.62536 10.9328 6.21972 10.1862 7.03745 9.79508L22.7426 2.25689C23.1588 2.0969 23.5996 2.01197 24.0454 2.00703V2.009Z" fill="#50E6FF"/>
<path fill-rule="evenodd" clip-rule="evenodd" d="M32.2697 29.9797C31.5061 31.1914 30.4896 32.2225 29.2901 33.0007L27.3348 28.2978C27.2334 27.9127 27.4145 27.5097 27.7697 27.332C27.9055 27.2678 28.0541 27.2362 28.2047 27.2381L33.1701 28.0796C32.9782 28.759 32.6741 29.4019 32.2697 29.9797ZM26.2159 34.3092C25.5025 34.4702 24.7743 34.5541 24.0432 34.5591C22.9795 34.5522 21.9216 34.3833 20.9091 34.0584L23.3593 29.6054C23.5994 29.3081 24.0117 29.2182 24.3532 29.3861C24.4988 29.476 24.6248 29.5915 24.7261 29.7298L27.1163 34.0584C26.8369 34.1522 26.5269 34.2144 26.2169 34.3092H26.2159ZM14.8898 28.1102L19.8247 27.2697C20.235 27.2431 20.603 27.5216 20.6936 27.9235C20.731 28.0904 20.7201 28.2642 20.6621 28.4242L18.7688 33.0007C16.9798 31.8383 15.6179 30.1219 14.8898 28.1102ZM15.7272 19.6703L19.4202 22.9708C19.7578 23.2671 19.7991 23.7777 19.5137 24.1233C19.4252 24.2517 19.2913 24.3406 19.1398 24.3742L14.3318 25.7745C14.135 23.6424 14.6241 21.5033 15.7272 19.6703ZM21.8419 15.2469C22.1834 15.1847 22.4934 15.1225 22.8348 15.0603L22.5554 20.0436C22.5317 20.493 22.1657 20.8465 21.717 20.8515C21.5871 20.8544 21.4582 20.8228 21.343 20.7586L17.216 17.7979C18.4844 16.5239 20.0884 15.638 21.84 15.244L21.8419 15.2469ZM30.8419 17.8008L26.7759 20.6974C26.4196 20.9216 25.9522 20.8416 25.6895 20.5107C25.6078 20.413 25.5547 20.2945 25.535 20.1681L25.2565 15.0909C27.3702 15.3348 29.3383 16.2908 30.8419 17.8008ZM33.5125 22.6291C33.7526 23.6591 33.8264 24.7218 33.729 25.7745L28.9801 24.4038C28.551 24.2813 28.2922 23.8448 28.3907 23.4083C28.4202 23.2789 28.4851 23.1604 28.5766 23.0656L32.3317 19.6703C32.8808 20.5868 33.2783 21.5862 33.5115 22.6311L33.5125 22.6291ZM25.41 25.8684L24.0452 26.5231L22.6793 25.8684L22.3379 24.4038L23.2698 23.2207H24.7901L25.721 24.4038L25.41 25.8684ZM39.7798 27.3942H39.7493C39.7178 27.3942 39.6873 27.3942 39.6873 27.3636C39.6253 27.3636 39.5623 27.332 39.5003 27.332C39.3055 27.2974 39.1087 27.2767 38.9109 27.2697C38.8066 27.2737 38.7023 27.2628 38.6009 27.2381H38.5695C38.0026 27.2036 37.4408 27.1098 36.8937 26.9577C36.7372 26.8964 36.6142 26.772 36.5522 26.616C36.5522 26.5844 36.5207 26.5844 36.5207 26.5537L36.1173 26.4283C36.3082 24.9628 36.2344 23.4755 35.8998 22.0366C35.5613 20.5848 34.9738 19.2042 34.162 17.9559L34.4729 17.6764V17.6142C34.467 17.4443 34.5221 17.2784 34.6274 17.1461C35.0624 16.7816 35.5298 16.4587 36.0248 16.1822C36.1182 16.12 36.2107 16.0884 36.3042 16.0261C36.4863 15.9343 36.6624 15.8296 36.8317 15.7151C36.8631 15.6835 36.9242 15.6528 36.9862 15.5896C37.0176 15.558 37.0481 15.558 37.0481 15.5274C37.4752 15.1897 37.5697 14.5784 37.2656 14.126C37.0954 13.9058 36.8307 13.7784 36.5522 13.7834C36.3042 13.7903 36.0641 13.8782 35.8693 14.0342L35.8073 14.0964C35.7453 14.127 35.7148 14.1892 35.6528 14.2208C35.5101 14.3581 35.3753 14.5043 35.2493 14.6564C35.1844 14.7374 35.1116 14.8104 35.0319 14.8756C34.6589 15.2914 34.2427 15.6677 33.79 15.9965C33.7083 16.0548 33.6119 16.0874 33.5115 16.0894C33.4476 16.0943 33.3836 16.0834 33.3256 16.0587H33.2636L32.8896 16.3086C32.4881 15.8889 32.064 15.4929 31.6163 15.1225C29.7466 13.655 27.4942 12.7573 25.1306 12.537L25.0991 12.1321L25.0371 12.0699C24.9062 11.9721 24.8176 11.827 24.7881 11.665C24.7763 11.1031 24.8078 10.5401 24.8816 9.98315V9.95154C24.8865 9.84587 24.9082 9.7402 24.9436 9.64046C24.9741 9.4538 25.0046 9.26518 25.0361 9.0489V8.76842C25.0784 8.24599 24.6897 7.78677 24.1692 7.7443C23.8769 7.7206 23.5906 7.83417 23.3928 8.05045C23.2078 8.24204 23.1064 8.4998 23.1143 8.76744V9.01729C23.1123 9.21876 23.1438 9.41825 23.2078 9.60984C23.2383 9.70267 23.2383 9.79649 23.2698 9.91994V9.95154C23.3583 10.5076 23.3898 11.0715 23.3623 11.6334C23.3327 11.7954 23.2442 11.9405 23.1133 12.0383L23.0513 12.1005L23.0198 12.5064C22.457 12.5588 21.897 12.6417 21.344 12.7563C18.9922 13.2728 16.8519 14.4875 15.1988 16.2444L14.8888 16.0261H14.8278C14.7658 16.0261 14.7028 16.0577 14.6418 16.0577C14.5414 16.0548 14.444 16.0232 14.3623 15.9639C13.9107 15.6232 13.4944 15.2381 13.1215 14.8114C13.0565 14.7314 12.9837 14.6583 12.904 14.5932C12.7771 14.4411 12.6432 14.2949 12.5005 14.1576C12.4691 14.126 12.4071 14.0954 12.3451 14.0322C12.3146 14.0006 12.2831 14.0006 12.2831 13.97C12.0912 13.81 11.8501 13.7221 11.6011 13.7201C11.3227 13.7152 11.058 13.8416 10.8877 14.0628C10.5827 14.5151 10.6781 15.1255 11.1042 15.4642C11.1357 15.4642 11.1357 15.4948 11.1662 15.4948C11.2282 15.5264 11.2587 15.5886 11.3207 15.6203C11.4899 15.7358 11.6671 15.8405 11.8491 15.9323C11.9485 15.9718 12.042 16.0242 12.1276 16.0874C12.6226 16.3649 13.09 16.6888 13.5249 17.0532C13.644 17.1777 13.7001 17.3485 13.6794 17.5204V17.5826L13.9894 17.8621C13.9274 17.9391 13.8752 18.023 13.8349 18.1129C12.2978 20.5581 11.6808 23.4745 12.0971 26.3355L11.6936 26.4609C11.6936 26.4925 11.6621 26.4925 11.6621 26.5231C11.5913 26.6732 11.4703 26.7937 11.3207 26.8658C10.7736 27.0199 10.2117 27.1137 9.64489 27.1463H9.6134C9.50909 27.1404 9.40478 27.1512 9.30343 27.1769C9.10564 27.1838 8.90883 27.2046 8.714 27.2391C8.652 27.2391 8.58902 27.2707 8.52801 27.2707C8.49357 27.2658 8.45913 27.2776 8.43453 27.3023C7.90217 27.409 7.54694 27.9156 7.62763 28.4548C7.74276 28.9022 8.16097 29.2034 8.62051 29.1708C8.70514 29.1758 8.78977 29.1649 8.87046 29.1392C8.90096 29.1392 8.93147 29.1392 8.93147 29.1086C8.99346 29.1086 9.05644 29.077 9.11843 29.077C9.31032 29.0227 9.49728 28.9496 9.67638 28.8578C9.76888 28.8262 9.86236 28.7639 9.95486 28.7323H9.98635C10.5049 28.518 11.0471 28.361 11.6002 28.2652H11.6621C11.8098 28.2721 11.9515 28.3274 12.0656 28.4213C12.0971 28.4213 12.0971 28.4529 12.1276 28.4529L12.5616 28.3906C13.3114 30.7016 14.7264 32.739 16.6276 34.246C17.0527 34.5749 17.4984 34.8761 17.9619 35.1486L17.7759 35.5536C17.7759 35.5852 17.8074 35.5852 17.8074 35.6158C17.895 35.7669 17.9176 35.9476 17.8694 36.1165C17.647 36.629 17.3764 37.1189 17.0615 37.5801V37.6117C17.0005 37.7045 16.9375 37.7667 16.8755 37.8615C16.7515 38.0176 16.6591 38.1726 16.5341 38.3622C16.4967 38.4096 16.4652 38.462 16.4416 38.5173C16.4386 38.541 16.4268 38.5627 16.4101 38.5795C16.1523 39.0585 16.3294 39.656 16.8067 39.9157C16.8086 39.9167 16.8116 39.9177 16.8135 39.9187C16.9297 39.9789 17.0576 40.0115 17.1875 40.0125C17.5801 39.9937 17.9334 39.7685 18.1184 39.4209C18.1223 39.3972 18.1331 39.3755 18.1499 39.3587C18.1735 39.3024 18.205 39.2501 18.2433 39.2027C18.3142 39.019 18.3762 38.8323 18.4293 38.6417L18.5218 38.3622C18.6783 37.8191 18.8977 37.2966 19.1742 36.8048C19.2756 36.6705 19.4163 36.5727 19.5777 36.5243C19.6082 36.5243 19.6082 36.5243 19.6397 36.4927L19.8562 36.0888C21.2427 36.6231 22.7158 36.8977 24.2016 36.8977C25.1109 36.9036 26.0172 36.7989 26.9018 36.5866C27.4489 36.4641 27.9872 36.3081 28.5156 36.1194L28.7016 36.4621C28.7331 36.4621 28.7331 36.4621 28.7636 36.4937C28.9329 36.5224 29.0814 36.6251 29.1671 36.7732C29.4249 37.2729 29.6423 37.7924 29.8175 38.3267V38.3583L29.911 38.6388C29.9592 38.8294 30.0212 39.017 30.097 39.1987C30.1284 39.2609 30.159 39.2925 30.1904 39.3547C30.1934 39.3785 30.2042 39.4002 30.2209 39.417C30.3961 39.7735 30.7553 40.0026 31.1518 40.0085C31.2827 40.0075 31.4106 39.9759 31.5268 39.9157C31.7511 39.7992 31.9184 39.5977 31.9902 39.3547C32.0631 39.096 32.0414 38.8205 31.9292 38.5765C31.9292 38.5449 31.8977 38.5449 31.8977 38.5143C31.8741 38.458 31.8426 38.4057 31.8042 38.3583C31.7088 38.1795 31.5947 38.0126 31.4628 37.8586C31.4008 37.7647 31.3388 37.7025 31.2768 37.6077V37.5771C30.9511 37.1228 30.6795 36.631 30.4699 36.1125C30.4315 35.9466 30.4424 35.7728 30.5014 35.6128C30.5014 35.5812 30.5319 35.5812 30.5319 35.5506L30.3774 35.1753C32.9438 33.6347 34.8626 31.2102 35.7787 28.3541L36.1527 28.4163C36.1842 28.4163 36.1842 28.3847 36.2147 28.3847C36.3318 28.2958 36.4715 28.2425 36.6171 28.2297H36.6791C37.2331 28.3245 37.7744 28.4815 38.2939 28.6958H38.3244C38.4179 28.7274 38.5104 28.7896 38.6039 28.8212C38.782 28.9121 38.97 28.9862 39.1628 29.0395C39.2238 29.0395 39.2868 29.0711 39.3488 29.0711C39.3832 29.0661 39.4167 29.078 39.4423 29.1017C39.522 29.1274 39.6066 29.1382 39.6912 29.1333C40.1409 29.1343 40.5414 28.8459 40.6841 28.4163C40.6271 27.9196 40.2679 27.5097 39.7837 27.3892L39.7798 27.3942Z" fill="#50E6FF"/>
</svg>
