<svg data-slug-id="function27" viewBox="0 0 48 48" xmlns="http://www.w3.org/2000/svg">
<path fill-rule="evenodd" clip-rule="evenodd" d="M23.0995 35.8801V5.01019C23.0995 4.24336 22.8804 3.53406 22.5246 2.91314C22.4795 2.82476 22.4325 2.73731 22.3828 2.6517C22.3801 2.64709 22.3778 2.64249 22.3745 2.63835C21.4554 1.06188 19.7528 0 17.7984 0C15.12 0 12.9111 1.99165 12.5535 4.57614C12.3118 4.55175 12.0669 4.53932 11.8189 4.53932C7.66525 4.53932 4.29827 7.91136 4.29827 12.0714C4.29827 12.7107 4.38434 13.3289 4.53624 13.9208C1.76303 16.9822 0.0585938 21.0331 0.0585938 25.4924C0.0585938 32.8772 4.7047 39.1485 11.22 41.6042C11.2343 41.6939 11.2389 41.7823 11.2568 41.8725C11.8317 44.8372 14.2202 47.2242 17.1812 47.7954C18.8221 48.1121 20.3926 47.8981 21.7532 47.2951C22.5633 46.9365 23.1 46.1476 23.1 45.2597L23.0995 35.8801Z" fill="#0078D4"/>
<path fill-rule="evenodd" clip-rule="evenodd" d="M24.9599 35.8801V5.01019C24.9599 4.24336 25.179 3.53406 25.5348 2.91314C25.5799 2.82476 25.6269 2.73731 25.6766 2.6517C25.6794 2.64709 25.6817 2.64249 25.6849 2.63835C26.6041 1.06188 28.3067 0 30.261 0C32.9394 0 35.1483 1.99165 35.506 4.57614C35.7476 4.55175 35.9925 4.53932 36.2406 4.53932C40.3942 4.53932 43.7612 7.91136 43.7612 12.0714C43.7612 12.7107 43.6751 13.3289 43.5232 13.9208C46.2964 16.9822 48.0008 21.0331 48.0008 25.4924C48.0008 32.8772 43.3547 39.1485 36.8394 41.6042C36.8251 41.6939 36.8205 41.7823 36.8026 41.8725C36.2277 44.8372 33.8393 47.2242 30.8783 47.7954C29.2374 48.1121 27.6669 47.8981 26.3063 47.2951C25.4962 46.9365 24.9595 46.1476 24.9595 45.2597L24.9599 35.8801Z" fill="#0078D4"/>
</svg>
