<svg data-slug-id="gear08" viewBox="0 0 48 49" xmlns="http://www.w3.org/2000/svg">
<path d="M24.0001 0.432861C15.2184 0.432861 7.68402 4.77401 3.29315 12.4084C-1.09772 20.0429 -1.09772 28.7252 3.29315 36.3596C7.68402 43.994 15.2184 48.3352 24.0001 48.3352C37.2226 48.3352 47.9004 37.6071 47.9004 24.384C47.9004 11.161 37.2226 0.432861 24.0001 0.432861ZM24.0001 43.8444C24.0001 43.8444 23.9502 43.8444 24.0001 43.8444C13.2225 43.8444 4.49066 35.1122 4.49066 24.384C4.49066 13.6559 13.2225 4.92371 23.9502 4.92371H24.0001C34.7278 4.92371 43.4097 13.6559 43.4097 24.384C43.4097 35.1122 34.7278 43.8444 24.0001 43.8444Z" fill="#50E6FF"/>
<path d="M38.9188 25.4333V22.8885H36.923C36.6236 20.2938 35.5758 17.9486 33.9791 16.0524L35.476 14.5555L33.6797 12.7591L32.1329 14.306C30.2369 12.809 27.8918 11.8111 25.2971 11.6115V9.31616H22.7524V11.6115C20.2077 11.861 17.9125 12.9088 16.0663 14.4058L14.4198 12.7591L12.6235 14.5555L14.2701 16.1522C12.7233 17.9985 11.6755 20.3437 11.426 22.8885H9.18066V25.4333H11.3761C11.5757 28.028 12.5736 30.4231 14.1204 32.3193L12.6734 33.7663L14.4697 35.5627L15.8668 34.1156C17.7628 35.7622 20.1578 36.8101 22.8023 37.1095V39.0056H25.347V37.1095C27.9915 36.86 30.4365 35.8121 32.3824 34.2154L33.7296 35.5128L35.5259 33.7164L34.1787 32.4191C35.7754 30.473 36.7733 28.028 37.0228 25.3834L38.9188 25.4333ZM24.1994 33.2673C19.2597 33.2673 15.2181 29.2256 15.2181 24.2856C15.2181 19.3457 19.2597 15.304 24.1994 15.304C29.1392 15.304 33.1808 19.3457 33.1808 24.2856C33.1808 29.2256 29.1392 33.2673 24.1994 33.2673Z" fill="#0078D4"/>
</svg>
