<svg data-slug-id="gear09" viewBox="0 0 48 49" xmlns="http://www.w3.org/2000/svg">
<path d="M0 43.2817H47.9916V6.39746H0V43.2817Z" fill="#0078D4"/>
<path d="M0 10.3878H47.9747V5.38574H0V10.3878Z" fill="#50E6FF"/>
<path d="M7.46959 9.21066C8.14327 9.21066 8.69064 8.66329 8.69064 7.98961C8.69064 7.31592 8.14327 6.76855 7.46959 6.76855C6.7959 6.76855 6.24854 7.31592 6.24854 7.98961C6.24854 8.66329 6.7959 9.21066 7.46959 9.21066Z" fill="#0078D4"/>
<path d="M3.68004 9.21066C4.35372 9.21066 4.90109 8.66329 4.90109 7.98961C4.90109 7.31592 4.35372 6.76855 3.68004 6.76855C3.00635 6.76855 2.45898 7.31592 2.45898 7.98961C2.45898 8.66329 3.00635 9.21066 3.68004 9.21066Z" fill="#0078D4"/>
<path d="M11.3431 9.21066C12.0168 9.21066 12.5642 8.66329 12.5642 7.98961C12.5642 7.31592 12.0168 6.76855 11.3431 6.76855C10.6694 6.76855 10.1221 7.31592 10.1221 7.98961C10.1221 8.66329 10.6694 9.21066 11.3431 9.21066Z" fill="#0078D4"/>
<path d="M35.3263 27.9983V25.6067H32.859C32.64 24.0236 32.0337 22.5836 31.1074 21.3709L32.8505 19.6278L31.1579 17.9436L29.4232 19.6867C28.219 18.7604 26.7621 18.1457 25.1874 17.9351V15.4678H22.7958V17.9351C21.2126 18.1541 19.7726 18.7604 18.56 19.6867L16.8169 17.9436L15.1242 19.6362L16.8674 21.3794C15.9411 22.5836 15.3263 24.0404 15.1158 25.6151H12.6484V28.0067H15.1158C15.3348 29.5899 15.9411 31.0299 16.8674 32.2425L15.1242 33.9857L16.8169 35.6783L18.56 33.9351C19.7642 34.8615 21.2211 35.4762 22.7958 35.6867V38.1457H25.1874V35.6783C26.7705 35.4594 28.2105 34.853 29.4232 33.9267L31.1663 35.6699L32.859 33.9772L31.1158 32.2341C32.0421 31.0299 32.6569 29.573 32.8674 27.9983H35.3263ZM24 31.8299C21.2211 31.8299 18.9726 29.5646 18.9726 26.8025C18.9726 24.0236 21.2379 21.7751 24 21.7751C26.779 21.7751 29.0274 24.0404 29.0274 26.8025C29.0274 29.5815 26.7705 31.8299 24 31.8299Z" fill="#50E6FF"/>
</svg>
