<svg data-slug-id="gear05" viewBox="0 0 48 49" xmlns="http://www.w3.org/2000/svg">
<path d="M47.7387 29.9173C47.7639 29.8052 47.7808 29.7018 47.806 29.5897C47.9324 28.9175 47.9998 28.2193 47.9998 27.5039C47.9998 21.3843 43.1484 16.4369 37.1853 16.4369C36.3515 16.4369 35.5345 16.5318 34.768 16.7214C32.2918 12.7393 27.9458 10.0933 22.9934 10.0933C15.3037 10.0933 9.07944 16.48 9.07944 24.3321C9.07944 24.5303 9.07944 24.7199 9.08787 24.9096C8.3888 24.6682 7.6392 24.5303 6.85591 24.5303C3.06579 24.5303 0 27.6763 0 31.5463C0 35.1836 2.70362 38.1744 6.17368 38.5192L37.1769 38.5795C41.2533 38.5795 44.7908 36.2782 46.6353 32.8909C46.6859 32.7961 46.7364 32.7013 46.7869 32.5978C47.0733 32.0117 47.486 31.0981 47.7387 29.9173Z" fill="#0078D4"/>
<path d="M32.9154 25.2697V23.3648H30.9866C30.8182 22.0978 30.3381 20.9429 29.6138 19.9775L30.9782 18.5812L29.6559 17.228L28.2999 18.6243C27.3565 17.8831 26.2195 17.3918 24.9898 17.2194V15.2456H23.12V17.2194C21.8819 17.3918 20.7533 17.8831 19.81 18.6243L18.4455 17.228L17.1232 18.5812L18.4877 19.9775C17.7633 20.9429 17.2832 22.1064 17.1148 23.3648H15.186V25.2783H17.1148C17.2832 26.5453 17.7633 27.7003 18.4877 28.6656L17.1232 30.0619L18.4455 31.4151L19.81 30.0188C20.7533 30.7601 21.8903 31.2513 23.12 31.4237V33.3975H24.9898V31.4237C26.2279 31.2513 27.3565 30.7601 28.2999 30.0188L29.6643 31.4151L30.9866 30.0619L29.6222 28.6656C30.3465 27.7003 30.8266 26.5367 30.9951 25.2783H32.9154V25.2697ZM24.0549 28.3381C21.8819 28.3381 20.1216 26.5281 20.1216 24.3129C20.1216 22.0978 21.8903 20.2878 24.0549 20.2878C26.2279 20.2878 27.9882 22.0978 27.9882 24.3129C27.9882 26.5281 26.2195 28.3381 24.0549 28.3381Z" fill="#50E6FF"/>
<path d="M42.3228 28.751V27.8977H41.4637C41.3879 27.3288 41.1689 26.8117 40.8488 26.3807L41.4637 25.7515L40.8741 25.1482L40.2593 25.7774C39.8381 25.4499 39.3328 25.2258 38.7769 25.1482V24.269H37.9431V25.1482C37.3872 25.2258 36.8819 25.4499 36.4607 25.7774L35.8459 25.1482L35.2563 25.7515L35.8712 26.3807C35.5511 26.8117 35.3321 27.3288 35.2563 27.8977H34.3972V28.751H35.2563C35.3321 29.3199 35.5511 29.837 35.8712 30.268L35.2563 30.8972L35.8459 31.5005L36.4607 30.8713C36.8819 31.1988 37.3872 31.4229 37.9431 31.5005V32.3797H38.7769V31.5005C39.3328 31.4229 39.8381 31.1988 40.2593 30.8713L40.8741 31.5005L41.4637 30.8972L40.8488 30.268C41.1689 29.837 41.3879 29.3199 41.4637 28.751H42.3228ZM38.3558 29.8629C37.522 29.8629 36.8482 29.1733 36.8482 28.32C36.8482 27.4667 37.522 26.7772 38.3558 26.7772C39.1896 26.7772 39.8634 27.4667 39.8634 28.32C39.8634 29.1733 39.1812 29.8629 38.3558 29.8629Z" fill="#50E6FF"/>
</svg>
