<svg data-slug-id="gear13" viewBox="0 0 48 49" xmlns="http://www.w3.org/2000/svg">
<path d="M47.9914 16.0144V11.0712H45.5999V3.28172H37.8946V0.923828H32.8252V3.28172H26.5178V0.923828H21.4736V3.28172H15.1663V0.923828H10.1221V3.28172H2.39999V11.0122H0.0421051V16.0565H2.39999V22.3638H0V27.408H2.39999V33.7154H0V38.8186H2.39999V46.4817H10.1052V48.9238H15.1747V46.4817H21.482V48.9238H26.5262V46.4817H32.8336V48.9238H37.8778V46.4817H45.6083V38.8101H47.9999V33.7659H45.6083V27.4417H47.9999V22.3975H45.6083V16.0144H47.9914ZM42.9557 43.8712H5.05262V5.97646H42.9557V43.8712Z" fill="#50E6FF"/>
<path d="M41.5159 21.0342V18.4489H38.8465C38.6191 16.7395 37.9454 15.1647 36.9433 13.8595L38.838 11.9647L37.0107 10.1374L35.1159 12.0321C33.8107 11.03 32.2359 10.3563 30.5265 10.1289V7.45947H27.9412V10.1289C26.2318 10.3563 24.657 11.03 23.3518 12.0321L21.457 10.1374L19.6212 11.9647L21.516 13.8595C20.5139 15.1647 19.8402 16.7395 19.6128 18.4489H16.9434V21.0342H19.6128C19.8402 22.7437 20.5139 24.3184 21.516 25.6237L19.6212 27.5184L21.4486 29.3458L23.3433 27.4511C24.6486 28.4532 26.2233 29.1268 27.9328 29.3542V32.0237H30.5181V29.3542C32.2275 29.1268 33.8023 28.4532 35.1075 27.4511L37.0023 29.3458L38.8296 27.5184L36.9349 25.6237C37.937 24.3184 38.6107 22.7437 38.838 21.0342H41.5159ZM29.2296 24.4026C26.6612 24.4026 24.5728 22.3142 24.5728 19.7458C24.5728 17.1774 26.6612 15.0889 29.2296 15.0889C31.7981 15.0889 33.8865 17.1774 33.8865 19.7458C33.8865 22.3142 31.7981 24.4026 29.2296 24.4026Z" fill="#0078D4"/>
<path d="M21.3477 36.46V33.9421H18.6614C18.5435 33.479 18.3582 33.0411 18.1224 32.6369L20.0256 30.7337L18.2403 28.9484L16.3372 30.86C15.933 30.6242 15.4951 30.439 15.0319 30.3211V27.6348H12.514V30.3295C12.0509 30.4474 11.613 30.6327 11.2172 30.8684L9.31402 28.9653L7.52877 30.7337L9.43192 32.6369C9.19613 33.0411 9.01087 33.4706 8.89297 33.9337H6.19824V36.46H8.89297C9.01087 36.9232 9.19613 37.3611 9.43192 37.7569L7.52877 39.66L9.31402 41.4453L11.2172 39.5421C11.6214 39.7779 12.0509 39.9632 12.514 40.0811V42.7758H15.0319V40.0895C15.4951 39.9716 15.933 39.7863 16.3372 39.5506L18.2403 41.4537L20.0256 39.6684L18.1224 37.7653C18.3582 37.3611 18.5435 36.9232 18.6614 36.46H21.3477ZM13.7772 37.7232C12.3877 37.7232 11.2593 36.5948 11.2593 35.2053C11.2593 33.8158 12.3877 32.6874 13.7772 32.6874C15.1666 32.6874 16.2951 33.8158 16.2951 35.2053C16.3035 36.5948 15.1666 37.7232 13.7772 37.7232Z" fill="#0078D4"/>
</svg>
