<svg data-slug-id="gear06" viewBox="0 0 48 49" xmlns="http://www.w3.org/2000/svg">
<path d="M24 1.2229L4.22168 12.629V35.4413L24 46.8474L43.7783 35.4413V12.629L24 1.2229ZM24.7393 4.43928L40.5043 13.5219L24.7393 22.8446V4.43928ZM23.5391 22.9886L7.51486 13.5123L23.5295 4.27606V22.9886H23.5391ZM22.8383 23.968L6.63156 33.5595V14.386L22.8383 23.968ZM23.5391 24.9569V43.7943L7.41885 34.5004L23.5391 24.9569ZM24.7393 25.1009L40.6099 34.4908L24.7489 43.6407V25.1009H24.7393ZM25.2001 23.968L41.3684 14.4052V33.5307L25.2001 23.968Z" fill="#50E6FF"/>
<path d="M33.025 18.6583V13.6753L28.5893 11.1118L24.0671 13.7041L19.6506 11.1118L15.2149 13.6753V18.7063L10.5872 21.4042V26.2816L15.0229 28.8451V33.7417L19.6506 36.4204L24.1439 33.8377L28.5893 36.4204L33.025 33.8665V29.0371L37.5567 26.2912V21.2986L33.025 18.6583Z" fill="#0078D7"/>
<path d="M24.0097 22.9692L16.2808 27.4914L24.0097 32.1287L31.7386 27.4914L24.0097 22.9692Z" fill="#3BCAF4"/>
<path d="M24.0097 19.0134L16.2808 23.5356L24.0097 28.1729L31.7386 23.5356L24.0097 19.0134Z" fill="#50E6FF"/>
<path d="M24.0097 15.0386L16.2808 19.5607L24.0097 24.198L31.7386 19.5607L24.0097 15.0386Z" fill="white"/>
</svg>
