<svg data-slug-id="gear04" viewBox="0 0 48 49" xmlns="http://www.w3.org/2000/svg">
<path d="M47.7134 29.8679C47.7387 29.7585 47.7555 29.6574 47.7808 29.5479C47.9071 28.8911 47.9744 28.209 47.9744 27.51C47.9744 21.5311 43.1248 16.6974 37.1638 16.6974C36.3302 16.6974 35.5135 16.79 34.7474 16.9753C32.2804 13.0848 27.936 10.4995 22.9853 10.4995C15.2983 10.4995 9.07625 16.7395 9.07625 24.4111C9.07625 24.6048 9.07625 24.79 9.08467 24.9753C8.38584 24.7395 7.63651 24.6048 6.85349 24.6048C3.06471 24.6048 0 27.67 0 31.4595C0 35.0132 2.70267 37.9353 6.17151 38.2721L37.1638 38.3311C41.2388 38.3311 44.775 36.0827 46.6189 32.7732C46.6694 32.6806 46.7199 32.5879 46.7704 32.4869C47.0483 31.9142 47.4608 31.0216 47.7134 29.8679Z" fill="#0078D4"/>
<path d="M32.8952 25.329V23.4595H30.9671C30.7988 22.2216 30.3188 21.0932 29.5948 20.15L30.9587 18.7858L29.6369 17.4637L28.2813 18.8279C27.3383 18.1037 26.2017 17.6237 24.9724 17.4553V15.5269H23.1033V17.4553C21.8656 17.6237 20.7374 18.1037 19.7944 18.8279L18.4305 17.4637L17.1086 18.7858L18.4726 20.15C17.7485 21.0932 17.2686 22.23 17.1002 23.4595H15.1721V25.329H17.1002C17.2686 26.5669 17.7485 27.6953 18.4726 28.6384L17.1086 30.0026L18.4305 31.3248L19.7944 29.9605C20.7374 30.6848 21.8741 31.1648 23.1033 31.3332V33.2616H24.9724V31.3332C26.2101 31.1648 27.3383 30.6848 28.2813 29.9605L29.6453 31.3248L30.9671 30.0026L29.6032 28.6384C30.3273 27.6953 30.8072 26.5584 30.9756 25.329H32.8952ZM24.0379 28.3269C21.8656 28.3269 20.106 26.5584 20.106 24.3942C20.106 22.2216 21.8741 20.4616 24.0379 20.4616C26.2101 20.4616 27.9698 22.23 27.9698 24.3942C27.9698 26.5669 26.2017 28.3269 24.0379 28.3269Z" fill="#50E6FF"/>
</svg>
