<svg data-slug-id="gear10" viewBox="0 0 48 49" xmlns="http://www.w3.org/2000/svg">
<path d="M33.0114 33.6261V30.1652H29.424C29.1208 27.8718 28.2114 25.7717 26.8724 24.0245L29.4072 21.4959L26.9566 19.0514L24.4219 21.5715C22.6703 20.2359 20.5566 19.3286 18.2661 19.0262V15.4561H14.7966V19.0346C12.4977 19.337 10.3924 20.2443 8.64085 21.5799L6.10612 19.0514L3.6556 21.4959L6.18191 24.0245C4.84296 25.7717 3.93349 27.8802 3.63033 30.1652H0.0429688V33.6261H3.63033C3.93349 35.9194 4.84296 38.0195 6.18191 39.7668L3.64718 42.2953L6.0977 44.7398L8.63243 42.2113C10.384 43.547 12.4977 44.4542 14.7882 44.7567V48.3352H18.2577V44.7567C20.5566 44.4542 22.6619 43.547 24.4135 42.2113L26.9482 44.7398L29.3987 42.2953L26.864 39.7668C28.2029 38.0195 29.1124 35.911 29.4156 33.6261H33.0114ZM16.523 39.8424C12.1356 39.8424 8.56507 36.2806 8.56507 31.904C8.56507 27.5274 12.1356 23.9657 16.523 23.9657C20.9103 23.9657 24.4808 27.5274 24.4808 31.904C24.4808 36.2806 20.9187 39.8424 16.523 39.8424Z" fill="#50E6FF"/>
<path d="M48 11.6483V9.50623H45.7853C45.6 8.08656 45.0358 6.7929 44.2105 5.70925L45.7769 4.14677L44.2611 2.6347L42.6863 4.19717C41.6 3.37393 40.3032 2.81111 38.88 2.6263V0.416992H36.7327V2.6263C35.3095 2.81111 34.0127 3.37393 32.9264 4.19717L31.36 2.6347L29.8442 4.14677L31.4106 5.70925C30.5853 6.7929 30.0211 8.08656 29.8358 9.50623H27.6211V11.6483H29.8358C30.0211 13.068 30.5853 14.3617 31.4106 15.4453L29.8442 17.0078L31.36 18.5199L32.9264 16.9574C34.0127 17.7806 35.3095 18.3434 36.7327 18.5283V20.746H38.88V18.5367C40.3032 18.3518 41.6 17.789 42.6863 16.9658L44.2527 18.5283L45.7684 17.0162L44.2021 15.4537C45.0274 14.3701 45.5916 13.0764 45.7769 11.6567H48V11.6483ZM37.8106 15.4873C35.099 15.4873 32.8927 13.2864 32.8927 10.5815C32.8927 7.87655 35.099 5.67564 37.8106 5.67564C40.5221 5.67564 42.7284 7.87655 42.7284 10.5815C42.7284 13.2864 40.5221 15.4873 37.8106 15.4873Z" fill="#0078D4"/>
</svg>
