<svg data-slug-id="gears00" viewBox="0 0 48 48" xmlns="http://www.w3.org/2000/svg">
<path d="M33.0118 33.2908V29.8298H29.4245C29.1213 27.5365 28.2118 25.4364 26.8729 23.6891L29.4076 21.1606L26.9571 18.7161L24.4224 21.2362C22.6708 19.9006 20.5571 18.9933 18.2666 18.6909V15.1207H14.7971V18.6993C12.4982 19.0017 10.3929 19.909 8.64134 21.2446L6.10661 18.7161L3.65609 21.1606L6.1824 23.6891C4.84345 25.4364 3.93398 27.5449 3.63082 29.8298H0.043457V33.2908H3.63082C3.93398 35.5841 4.84345 37.6842 6.1824 39.4315L3.64766 41.96L6.09819 44.4045L8.63292 41.876C10.3845 43.2117 12.4982 44.1189 14.7887 44.4213V47.9999H18.2582V44.4213C20.5571 44.1189 22.6624 43.2117 24.414 41.876L26.9487 44.4045L29.3992 41.96L26.8645 39.4315C28.2034 37.6842 29.1129 35.5757 29.4161 33.2908H33.0118ZM16.5234 39.5071C12.1361 39.5071 8.56555 35.9453 8.56555 31.5687C8.56555 27.1921 12.1361 23.6303 16.5234 23.6303C20.9108 23.6303 24.4813 27.1921 24.4813 31.5687C24.4813 35.9453 20.9192 39.5071 16.5234 39.5071Z" fill="#0078D4"/>
<path d="M48 11.3131V9.17102H45.7853C45.6 7.75135 45.0358 6.45769 44.2105 5.37404L45.7769 3.81157L44.2611 2.29949L42.6863 3.86197C41.6 3.03873 40.3032 2.4759 38.88 2.29109V0.0817871H36.7327V2.29109C35.3095 2.4759 34.0127 3.03873 32.9264 3.86197L31.36 2.29949L29.8442 3.81157L31.4106 5.37404C30.5853 6.45769 30.0211 7.75135 29.8358 9.17102H27.6211V11.3131H29.8358C30.0211 12.7328 30.5853 14.0265 31.4106 15.1101L29.8442 16.6726L31.36 18.1847L32.9264 16.6222C34.0127 17.4454 35.3095 18.0082 36.7327 18.1931V20.4108H38.88V18.2015C40.3032 18.0166 41.6 17.4538 42.6863 16.6306L44.2527 18.1931L45.7684 16.681L44.2021 15.1185C45.0274 14.0349 45.5916 12.7412 45.7769 11.3215H48V11.3131ZM37.8106 15.1521C35.099 15.1521 32.8927 12.9512 32.8927 10.2463C32.8927 7.54134 35.099 5.34044 37.8106 5.34044C40.5221 5.34044 42.7284 7.54134 42.7284 10.2463C42.7284 12.9512 40.5221 15.1521 37.8106 15.1521Z" fill="#50E6FF"/>
</svg>
