<svg data-slug-id="gear14" viewBox="0 0 48 49" xmlns="http://www.w3.org/2000/svg">
<circle cx="24.5032" cy="24.927" r="16.886" fill="#50E6FF"/>
<path d="M42.8018 22.3801C42.3594 19.1727 41.1429 16.0759 39.0415 13.4215L42.6912 9.77175L39.1521 6.23258L35.5023 9.88235C32.8479 7.89157 29.7512 6.56438 26.5438 6.12198V0.923828H21.4562V6.12198C18.2488 6.56438 15.1521 7.78097 12.4977 9.88235L8.84793 6.23258L5.30876 9.77175L8.95852 13.4215C6.96774 16.0759 5.64055 19.1727 5.19816 22.3801H0V27.4676H5.19816C5.64055 30.7856 6.96774 33.7718 8.95852 36.4261L5.30876 40.0759L8.84793 43.6151L12.4977 39.9653C15.1521 41.9561 18.1383 43.2833 21.4562 43.7257V48.9238H26.5438V43.7257C29.7512 43.2833 32.8479 42.0667 35.5023 39.9653L39.1521 43.6151L42.6912 40.0759L39.0415 36.4261C41.0323 33.7718 42.3594 30.675 42.8018 27.4676H48V22.3801H42.8018ZM38.2673 29.2372C37.2719 32.5552 35.1705 35.4307 32.2949 37.3109C29.4194 39.1911 25.9908 40.0759 22.5622 39.7441C19.1336 39.4123 15.9263 37.8639 13.4931 35.4307C12.0553 33.993 10.9493 32.4446 10.2857 30.5644C9.51152 28.7948 9.17972 26.804 9.17972 24.8132C9.17972 21.3847 10.3963 17.9561 12.6083 15.3017C14.8203 12.6473 17.8065 10.7671 21.235 10.1036C24.6636 9.43996 28.2028 9.99295 31.1889 11.5413C34.2857 13.2003 36.6083 15.8547 37.9355 18.9515C39.1521 22.3801 39.2627 25.9192 38.2673 29.2372Z" fill="#0078D4"/>
<path d="M18.281 26.9119C18.281 27.8311 17.9593 28.5665 17.3158 29.0261C16.6724 29.5317 15.7531 29.7615 14.5122 29.7615C13.547 29.7615 12.7197 29.5776 12.0763 29.2099V27.0958C12.8117 27.7392 13.7309 28.0609 14.6041 28.0609C15.0178 28.0609 15.4314 27.969 15.6612 27.8311C15.891 27.6473 15.9829 27.4175 15.9829 27.0958C15.9829 26.774 15.891 26.5442 15.6612 26.3604C15.4314 26.1306 14.9259 25.8548 14.1905 25.5331C12.7197 24.8896 11.9844 23.8785 11.9844 22.7295C11.9844 21.8103 12.3061 21.1668 12.9496 20.6613C13.593 20.1557 14.4203 19.834 15.4774 19.834C16.3966 19.834 17.1779 20.0178 17.8673 20.2476V22.3159C17.2239 21.9022 16.4885 21.6724 15.6612 21.6724C15.2476 21.6724 14.9259 21.7643 14.6961 21.9022C14.4662 22.0861 14.3743 22.3159 14.3743 22.6376C14.3743 22.9593 14.4662 23.1891 14.6961 23.3729C14.8799 23.5568 15.2476 23.7866 15.937 24.1083C16.8562 24.522 17.4996 24.9356 17.9133 25.3952C18.0971 25.7629 18.281 26.2685 18.281 26.9119Z" fill="#0078D4"/>
<path d="M26.3679 24.8446C26.3679 23.8794 26.1381 23.1441 25.7245 22.5466C25.3108 21.995 24.7593 21.7193 24.0239 21.7193C23.2885 21.7193 22.6451 21.9491 22.2315 22.5466C21.7259 23.0981 21.588 23.8335 21.588 24.8446C21.588 25.7638 21.8178 26.5451 22.2315 27.1426C22.6451 27.6942 23.2885 27.9699 24.0239 27.9699C24.7593 27.9699 25.3108 27.7401 25.8164 27.1426C26.1381 26.5911 26.3679 25.8557 26.3679 24.8446ZM28.6659 24.7527C28.6659 25.9017 28.4361 26.8669 27.9306 27.6942C27.425 28.5214 26.6896 29.073 25.7245 29.3947L28.528 32.0145H25.7245L23.7482 29.8083C22.9209 29.8083 22.0936 29.5785 21.4501 29.1649C20.8067 28.7513 20.2092 28.1997 19.8875 27.4644C19.4738 26.729 19.3359 25.9017 19.3359 25.0284C19.3359 24.0633 19.5198 23.1441 19.8875 22.3168C20.3011 21.4895 20.8526 20.938 21.588 20.5243C22.3234 20.1107 23.1507 19.8809 24.1158 19.8809C25.035 19.8809 25.8164 20.0647 26.5058 20.4324C27.2412 20.846 27.7467 21.3976 28.1604 22.1329C28.4821 22.9602 28.6659 23.7875 28.6659 24.7527Z" fill="#0078D4"/>
<path d="M36.0176 29.6243H30.2266V20.0645H32.4327V27.9237H36.0176V29.6243Z" fill="#0078D4"/>
</svg>
