<svg data-slug-id="gear12" viewBox="0 0 48 49" xmlns="http://www.w3.org/2000/svg">
<ellipse cx="23.9997" cy="23.7781" rx="15.8137" ry="15.8137" fill="#50E6FF"/>
<path d="M42.7959 21.6059C42.3496 18.3042 41.0359 15.2776 39.0906 12.7513L42.7706 9.10768L39.2085 5.58083L35.5286 9.22441C32.977 7.2984 29.9202 5.99771 26.5855 5.55581V0.394775H21.5413V5.54748C18.2066 5.98938 15.1498 7.29006 12.5982 9.21607L8.91822 5.57249L5.35614 9.09934L9.03612 12.7429C7.09087 15.2692 5.77719 18.2958 5.33088 21.5976H0.109863V26.5918H5.31404C5.76035 29.8936 7.07402 32.9202 9.01927 35.4465L5.3393 39.0901L8.90138 42.6169L12.5814 38.9733C15.1329 40.8993 18.1897 42.2 21.5244 42.6419V47.7946H26.5686V42.6419C29.9033 42.2 32.9602 40.8993 35.5117 38.9733L39.1917 42.6169L42.7538 39.0901L39.0738 35.4465C41.019 32.9202 42.3327 29.8936 42.779 26.5918H48V21.5976H42.7959V21.6059ZM33.8528 33.7956C32.4296 35.2047 30.7454 36.2719 28.9097 36.9473L26.0128 28.8764C28.2191 28.0843 29.8023 25.9915 29.8023 23.5319C29.8023 20.3886 27.2339 17.8456 24.0592 17.8456C20.8845 17.8456 18.316 20.3886 18.316 23.5319C18.316 26.0082 19.916 28.1093 22.1392 28.8847L19.2929 36.9806C17.4234 36.3053 15.714 35.2297 14.2656 33.7956C11.6466 31.2026 10.2066 27.7591 10.2066 24.0989C10.2066 20.4386 11.6466 16.9951 14.2656 14.4021C16.8845 11.8091 20.3624 10.3833 24.0592 10.3833C27.756 10.3833 31.2339 11.8091 33.8528 14.4021C36.4717 16.9951 37.9117 20.4386 37.9117 24.0989C37.9033 27.7591 36.4633 31.2026 33.8528 33.7956Z" fill="#0078D4"/>
</svg>
