<svg data-slug-id="gear03" viewBox="0 0 48 49" xmlns="http://www.w3.org/2000/svg">
<path d="M47.3523 24.7165C47.3606 18.1749 44.6626 12.2641 40.3208 8.03857L38.5692 9.80682C38.6522 9.88984 38.7352 9.97285 38.8182 10.0559C40.7193 11.9652 42.2053 14.1818 43.2513 16.6474C44.3305 19.2043 44.8701 21.9106 44.8618 24.7082C44.8535 27.5059 44.3056 30.2122 43.2264 32.7608C42.1804 35.2264 40.6861 37.4346 38.785 39.3357C37.6975 40.4232 36.5021 41.3779 35.2236 42.1915L33.4554 39.9749L32.8328 45.4125L38.2703 46.0351L36.776 44.1506C43.1351 40.0164 47.344 32.8604 47.3523 24.7165Z" fill="#50E6FF"/>
<path d="M29.0972 44.7982C27.4867 45.1884 25.8347 45.3959 24.1494 45.3959H24.1162C21.3186 45.3876 18.6039 44.8397 16.0553 43.7522C13.5898 42.7062 11.3815 41.2036 9.48045 39.3025C7.66239 37.4762 6.21791 35.3676 5.18851 33.0265L7.74541 32.6446L3.34555 29.3821L0.0830078 33.7819L2.63991 33.4001C6.08508 41.876 14.395 47.8615 24.1079 47.8781C24.1245 47.8781 24.1328 47.8781 24.1494 47.8781C26.1169 47.8781 28.0346 47.6291 29.8609 47.1725L29.0972 44.7982Z" fill="#50E6FF"/>
<path d="M36.2448 5.75613L34.0615 0.733643L33.0653 3.24904C30.334 2.11171 27.3372 1.48079 24.1908 1.47249C24.1742 1.47249 24.1659 1.47249 24.1493 1.47249C11.4894 1.47249 1.19534 11.6171 0.95459 24.2272H3.44508C3.50319 21.579 4.0511 19.0055 5.0722 16.5814C6.1182 14.1159 7.61249 11.9076 9.51357 10.0066C11.4146 8.10549 13.6312 6.6195 16.0968 5.57349C18.6454 4.49428 21.3517 3.94637 24.1493 3.94637H24.1825C26.947 3.95467 29.6284 4.49428 32.1521 5.54859L31.214 7.91455L36.2448 5.75613Z" fill="#50E6FF"/>
<path d="M40.6697 26.7585L40.678 21.8938L37.1581 21.8855C36.826 19.9761 36.0955 18.2079 35.0412 16.6721L37.5067 14.2148L34.0782 10.7696L31.6292 13.2186C30.0934 12.1477 28.3251 11.4005 26.4075 11.0519L26.4158 7.58179L21.551 7.57349L21.5427 11.0768C19.6499 11.4337 17.8983 12.1892 16.3791 13.2601L13.872 10.7447L10.4268 14.1733L12.9671 16.7219C11.946 18.2328 11.2238 19.9761 10.8917 21.844L7.23901 21.8357L7.23071 26.7004L10.9415 26.7087C11.2985 28.5434 12.0291 30.2535 13.0502 31.7395L10.3936 34.3877L13.8222 37.8329L16.487 35.1764C17.9647 36.1975 19.6665 36.9197 21.5012 37.2684V41.0124L26.366 41.0207L26.3743 37.2933C28.2255 36.9695 29.944 36.2556 31.4466 35.2511L34.0367 37.8578L37.4818 34.4292L34.9166 31.8557C35.9792 30.3531 36.7347 28.6264 37.1 26.7502L40.6697 26.7585ZM24.0166 32.6776C19.3179 32.6693 15.5157 28.8506 15.524 24.1518C15.5323 19.4531 19.3428 15.651 24.0415 15.6593C28.7402 15.6676 32.5424 19.4863 32.5341 24.185C32.5341 28.8838 28.7153 32.6859 24.0166 32.6776Z" fill="#0078D4"/>
</svg>
