<svg data-slug-id="gear11" viewBox="0 0 48 49" xmlns="http://www.w3.org/2000/svg">
<path d="M47.9997 26.8615V21.8089H42.7786C42.3443 18.5475 41.0637 15.4567 39.0642 12.8438L42.7568 9.15121L39.1837 5.57815L35.4911 9.27078C32.8783 7.27125 29.7875 5.99062 26.5261 5.55626V0.335205H21.4735V5.55626C18.2122 5.99062 15.1214 7.27125 12.5085 9.27078L8.81594 5.57815L5.24291 9.15121L8.93552 12.8438C6.936 15.4567 5.65537 18.5475 5.22102 21.8089H0V26.8615H5.22102C5.77606 30.9767 7.66694 34.7958 10.6031 37.732C13.5393 40.6682 17.3584 42.5591 21.4735 43.1142V48.3352H26.5261V43.1142C29.7875 42.6798 32.8783 41.3992 35.4911 39.3996L39.1837 43.0923L42.7568 39.5192L39.0642 35.8266C41.0637 33.2137 42.3443 30.1229 42.7786 26.8615H47.9997ZM10.1052 24.3352C10.1051 21.1206 11.2196 18.0054 13.2589 15.5204C15.2981 13.0354 18.1359 11.3343 21.2887 10.7071C24.4415 10.0799 27.7143 10.5652 30.5494 12.0805C33.3844 13.5958 35.6064 16.0472 36.8367 19.0171C38.0669 21.987 38.2294 25.2916 37.2963 28.3678C36.3632 31.4441 34.3924 34.1016 31.7196 35.8876C29.0468 37.6736 25.8374 38.4776 22.6382 38.1626C19.4391 37.8476 16.4482 36.4331 14.1751 34.16C12.8807 32.8729 11.8544 31.3418 11.1558 29.6554C10.4572 27.9689 10.1001 26.1606 10.1052 24.3352Z" fill="#50E6FF"/>
<path d="M27.2843 15.9993H14.6528V21.0519H23.7112L5.24316 39.5201L8.81619 43.0932L27.2843 24.625V33.6835H32.3369V21.0519V15.9993H27.2843Z" fill="#0078D4"/>
</svg>
