<svg data-slug-id="gear02" viewBox="0 0 48 49" xmlns="http://www.w3.org/2000/svg">
<path d="M24.0005 40.8133C33.1017 40.8133 40.4798 33.4352 40.4798 24.334C40.4798 15.2328 33.1017 7.85474 24.0005 7.85474C14.8993 7.85474 7.52124 15.2328 7.52124 24.334C7.52124 33.4352 14.8993 40.8133 24.0005 40.8133Z" fill="#50E6FF"/>
<path d="M42.8018 21.7914C42.3594 18.5841 41.1429 15.4873 39.0415 12.8329L42.6912 9.18313L39.1521 5.64396L35.5023 9.29373C32.8479 7.30295 29.7512 5.97576 26.5438 5.53336V0.335205H21.4562V5.53336C18.2488 5.97576 15.1521 7.19235 12.4977 9.29373L8.84793 5.64396L5.30876 9.18313L8.95852 12.8329C6.96774 15.4873 5.64055 18.5841 5.19816 21.7914H0V26.879H5.19816C5.64055 30.197 6.96774 33.1831 8.95852 35.8375L5.30876 39.4873L8.84793 43.0265L12.4977 39.3767C15.1521 41.3675 18.1383 42.6947 21.4562 43.137V48.3352H26.5438V43.137C29.7512 42.6947 32.8479 41.4781 35.5023 39.3767L39.1521 43.0265L42.6912 39.4873L39.0415 35.8375C41.0323 33.1831 42.3594 30.0864 42.8018 26.879H48V21.7914H42.8018ZM38.2673 28.6486C37.2719 31.9665 35.1705 34.8421 32.2949 36.7223C29.4194 38.6025 25.9908 39.4873 22.5622 39.1555C19.1336 38.8237 15.9263 37.2753 13.4931 34.8421C12.0553 33.4043 10.9493 31.8559 10.2857 29.9758C9.51152 28.2062 9.17972 26.2154 9.17972 24.2246C9.17972 20.796 10.3963 17.3675 12.6083 14.7131C14.8203 12.0587 17.8065 10.1785 21.235 9.51493C24.6636 8.85133 28.2028 9.40433 31.1889 10.9527C34.2857 12.6117 36.6083 15.2661 37.9355 18.3629C39.1521 21.7914 39.2627 25.3306 38.2673 28.6486Z" fill="#0078D4"/>
<path d="M31.7425 16.261L20.7932 27.2103L16.3692 22.7863L14.0466 24.9983L20.7932 31.8555L33.9545 18.5836L31.7425 16.261Z" fill="#0075DA"/>
</svg>
