<svg data-slug-id="gear01" viewBox="0 0 48 49" xmlns="http://www.w3.org/2000/svg">
<path d="M41.0233 48.3352H37.3046V45.8107H41.0233C41.5954 45.8107 41.7805 45.6172 41.8394 45.5583C42.3527 45.0281 42.3106 43.5723 42.2769 42.6972C42.2685 42.4784 42.2685 42.2764 42.2685 42.0913C42.2685 40.585 42.2096 31.7156 42.2096 31.6314V31.623C42.2096 28.7619 43.295 26.2374 45.289 24.3609C44.6664 23.7466 44.1363 23.0397 43.682 22.2319C43.0342 21.0706 42.2601 19.1352 42.2601 16.4929C42.2601 16.4929 42.2601 8.96988 42.2601 6.84089C42.2601 6.73991 42.2601 6.63893 42.2601 6.53795C42.2601 5.40192 42.2685 3.68526 41.7048 3.12146C41.6459 3.06256 41.4861 2.90267 41.0149 2.90267H37.2961V0.378174H41.0149C42.0245 0.378174 42.8575 0.697943 43.4969 1.33748C44.801 2.64181 44.7926 4.80446 44.7842 6.54636C44.7842 6.64734 44.7842 6.74832 44.7842 6.84089C44.7842 8.96146 44.7842 16.4929 44.7842 16.4929C44.7842 18.5882 45.3815 20.1029 45.8779 20.9949C46.4248 21.971 47.1315 22.7536 47.9813 23.3174L47.9981 25.4128C46.5089 26.431 44.7253 28.3328 44.7253 31.6146C44.7253 31.8502 44.7842 40.5934 44.7842 42.0913C44.7842 42.2428 44.7926 42.4279 44.7926 42.6214C44.8346 43.9762 44.8935 46.0211 43.6399 47.317C43.0005 47.9902 42.1171 48.3352 41.0233 48.3352Z" fill="#50E6FF"/>
<path d="M10.7528 48.3352H7.03399C6.02437 48.3352 5.19143 48.0154 4.55201 47.3759C3.24791 46.0716 3.25633 43.9089 3.26474 42.167C3.26474 42.066 3.26474 41.9651 3.26474 41.8725C3.26474 39.7519 3.26474 32.2205 3.26474 32.2205C3.26474 30.1252 2.66738 28.6105 2.17098 27.7185C1.62411 26.7423 0.917372 25.9597 0.0676083 25.3959L0.0507812 23.3006C1.53997 22.2824 3.32363 20.3806 3.32363 17.0988C3.32363 16.8631 3.26474 8.11996 3.26474 6.6221C3.26474 6.47063 3.25633 6.2855 3.25633 6.09195C3.21426 4.73714 3.14695 2.6923 4.40056 1.39639C5.05682 0.723188 5.94023 0.378174 7.02558 0.378174H10.7443V2.90267H7.03399C6.46187 2.90267 6.27677 3.09622 6.21788 3.15512C5.70466 3.68527 5.74672 5.14106 5.78038 6.01622C5.78879 6.23501 5.78879 6.43697 5.78879 6.6221C5.78879 8.12838 5.84769 16.9978 5.84769 17.0819V17.0903C5.84769 19.9514 4.76234 22.4759 2.76834 24.3525C3.39094 24.9668 3.92099 25.6736 4.37532 26.4815C5.02316 27.6427 5.7972 29.5782 5.7972 32.2205C5.7972 32.2205 5.7972 39.7435 5.7972 41.8725C5.7972 41.9735 5.7972 42.0745 5.7972 42.1754C5.7972 43.3115 5.78879 45.0281 6.3525 45.5919C6.41139 45.6508 6.57125 45.8107 7.0424 45.8107H10.7612V48.3352H10.7528Z" fill="#50E6FF"/>
<path d="M40.4763 26.0374V22.5705H36.8922C36.5893 20.2732 35.6806 18.1694 34.3429 16.4191L36.8754 13.8862L34.427 11.4374L31.8861 13.9619C30.1361 12.6239 28.0243 11.7151 25.7359 11.4122V7.82739H22.2695V11.4122C19.9726 11.7151 17.8693 12.6239 16.1192 13.9619L13.5868 11.429L11.1384 13.8778L13.6709 16.4107C12.3332 18.161 11.4245 20.2732 11.1216 22.562H7.52905V26.029H11.1132C11.4161 28.3263 12.3247 30.4301 13.6625 32.1804L11.13 34.7133L13.5784 37.1621L16.1108 34.6291C17.8608 35.9671 19.9726 36.8759 22.2611 37.1789V40.7637H25.7275V37.1957C28.0243 36.8928 30.1277 35.984 31.8777 34.646L34.4102 37.1789L36.8585 34.7301L34.3261 32.1972C35.6638 30.4469 36.5725 28.3347 36.8754 26.0458H40.4763V26.0374ZM24.0027 32.2561C19.6193 32.2561 16.0519 28.6882 16.0519 24.3039C16.0519 19.9197 19.6193 16.3518 24.0027 16.3518C28.3861 16.3518 31.9535 19.9197 31.9535 24.3039C31.9535 28.6882 28.3861 32.2561 24.0027 32.2561Z" fill="#0078D4"/>
</svg>
