<svg data-slug-id="geometry07" viewBox="0 0 49 49" xmlns="http://www.w3.org/2000/svg">
<path d="M43.0833 24.8856C43.0833 35.3488 34.6018 43.8387 24.1302 43.8387C13.6585 43.8387 5.17707 35.3488 5.17707 24.8856C5.17707 14.4559 13.5997 5.99962 24.0042 5.93244V0.944336C10.8454 1.01152 0.188965 11.7015 0.188965 24.8856C0.188965 38.1032 10.9041 48.8268 24.1302 48.8268C37.3562 48.8268 48.0714 38.1032 48.0714 24.8856C48.0714 24.852 48.0714 24.8184 48.0714 24.7848H43.0833C43.0833 24.8184 43.0833 24.852 43.0833 24.8856Z" fill="#0078D4"/>
<path d="M28.2873 24.8863C28.2873 27.1788 26.423 29.043 24.1305 29.043C21.838 29.043 19.9738 27.1788 19.9738 24.8863C19.9738 22.6358 21.7624 20.8051 23.9962 20.7379V16.0186C19.1592 16.0857 15.2544 20.0326 15.2544 24.8863C15.2544 29.782 19.2264 33.754 24.1221 33.754C29.0179 33.754 32.9899 29.782 32.9899 24.8863C32.9899 24.8527 32.9899 24.8191 32.9899 24.7855H28.2705C28.2873 24.8191 28.2873 24.8527 28.2873 24.8863Z" fill="#50E6FF"/>
<path d="M24.1306 8.62793C19.6212 8.62793 15.54 10.467 12.5925 13.4313L16.0606 16.8994C18.118 14.8169 20.9732 13.5321 24.1306 13.5321C30.4035 13.5321 35.4924 18.6209 35.4924 24.8939C35.4924 31.1668 30.4035 36.2556 24.1306 36.2556C20.9228 36.2556 18.0256 34.9288 15.9599 32.7875L12.4917 36.2556C15.4476 39.2787 19.5624 41.1598 24.1306 41.1598C33.1075 41.1598 40.3881 33.8792 40.3881 24.9022C40.3881 15.9253 33.1159 8.62793 24.1306 8.62793Z" fill="#50E6FF"/>
</svg>
