<svg data-slug-id="geometry06" viewBox="0 0 49 49" xmlns="http://www.w3.org/2000/svg">
<path d="M36.8717 23.551C43.0066 23.551 47.9856 18.572 47.9856 12.4371C47.9856 6.30226 43.0066 1.32324 36.8717 1.32324C30.7368 1.32324 25.7578 6.30226 25.7578 12.4371C25.7578 18.572 30.7368 23.551 36.8717 23.551Z" fill="#0078D4"/>
<path d="M16.778 36.0012H32.1597C34.0268 36.0012 35.5383 34.4897 35.5383 32.6225V17.2409C35.5383 15.3738 34.0268 13.8623 32.1597 13.8623H16.778C14.9109 13.8623 13.3994 15.3738 13.3994 17.2409V32.6225C13.3994 34.4897 14.9109 36.0012 16.778 36.0012Z" fill="#50E6FF"/>
<path d="M23.0906 26.2178H0.862793V48.4455H23.0906V26.2178Z" fill="#0078D4"/>
</svg>
