<svg data-slug-id="geometry12" viewBox="0 0 49 49" xmlns="http://www.w3.org/2000/svg">
<path fill-rule="evenodd" clip-rule="evenodd" d="M24.0205 4.76074C24.9966 4.76074 25.9565 4.83024 26.8955 4.96455V8.36039C25.9614 8.199 25.0007 8.11491 24.0205 8.11491C14.7582 8.11491 7.24967 15.6235 7.24967 24.8857C7.24967 25.2772 7.26309 25.6655 7.28949 26.0503C6.1404 26.2538 5.04184 26.6036 4.01372 27.0798C3.93559 26.3591 3.89551 25.6271 3.89551 24.8857C3.89551 13.771 12.9058 4.76074 24.0205 4.76074ZM21.8265 44.8925C22.5471 44.9706 23.2791 45.0107 24.0205 45.0107C35.1353 45.0107 44.1455 36.0005 44.1455 24.8857C44.1455 23.9096 44.076 22.9497 43.9417 22.0107H40.5459C40.7072 22.9449 40.7913 23.9055 40.7913 24.8857C40.7913 34.148 33.2828 41.6566 24.0205 41.6566C23.6291 41.6566 23.2408 41.6432 22.856 41.6168C22.6524 42.7658 22.3026 43.8644 21.8265 44.8925Z" fill="#50E6FF"/>
<path fill-rule="evenodd" clip-rule="evenodd" d="M9.64551 47.8857C14.409 47.8857 18.2705 44.0242 18.2705 39.2607C18.2705 34.4973 14.409 30.6357 9.64551 30.6357C4.88205 30.6357 1.02051 34.4973 1.02051 39.2607C1.02051 44.0242 4.88205 47.8857 9.64551 47.8857ZM9.64512 45.0107C12.8208 45.0107 15.3951 42.4363 15.3951 39.2607C15.3951 36.0851 12.8208 33.5107 9.64512 33.5107C6.46945 33.5107 3.89511 36.0851 3.89511 39.2607C3.89511 42.4363 6.46945 45.0107 9.64512 45.0107Z" fill="#0078D4"/>
<path fill-rule="evenodd" clip-rule="evenodd" d="M47.0203 1.88574H31.687V17.2191H47.0203V1.88574ZM44.1453 4.76074H34.562V14.3441H44.1453V4.76074Z" fill="#0078D4"/>
</svg>
