<svg data-slug-id="geometry03" viewBox="0 0 48 49" xmlns="http://www.w3.org/2000/svg">
<path d="M0 10.991V0.885742H10.1052L0 10.991Z" fill="#0078D4"/>
<path d="M10.1052 13.5186V23.6238H0L10.1052 13.5186Z" fill="#50E6FF"/>
<path d="M22.7368 0.885742V10.991H12.6316L22.7368 0.885742Z" fill="#50E6FF"/>
<path d="M37.8945 0.885742H47.9998V10.991L37.8945 0.885742Z" fill="#0078D4"/>
<path d="M47.9998 23.6238H37.8945V13.5186L47.9998 23.6238Z" fill="#50E6FF"/>
<path d="M35.3684 10.991H25.2632V0.885742L35.3684 10.991Z" fill="#50E6FF"/>
<path d="M47.9998 38.7805V48.8857H37.8945L47.9998 38.7805Z" fill="#0078D4"/>
<path d="M37.8945 36.2527V26.1475H47.9998L37.8945 36.2527Z" fill="#50E6FF"/>
<path d="M25.2632 48.8857V38.7805H35.3684L25.2632 48.8857Z" fill="#50E6FF"/>
<path d="M10.1052 48.8857H0V38.7805L10.1052 48.8857Z" fill="#0078D4"/>
<path d="M0 26.1475H10.1052V36.2527L0 26.1475Z" fill="#50E6FF"/>
<path d="M12.6316 38.7805H22.7368V48.8857L12.6316 38.7805Z" fill="#50E6FF"/>
<path d="M24.0085 28.8436C26.1013 28.8436 27.7979 27.147 27.7979 25.0541C27.7979 22.9612 26.1013 21.2646 24.0085 21.2646C21.9156 21.2646 20.219 22.9612 20.219 25.0541C20.219 27.147 21.9156 28.8436 24.0085 28.8436Z" fill="#0078D4"/>
</svg>
