<svg data-slug-id="geometry02" viewBox="0 0 48 49" xmlns="http://www.w3.org/2000/svg">
<path d="M4.77075 35.901V13.862L23.857 2.83838L42.9515 13.862V35.901L23.857 46.9246L4.77075 35.901Z" fill="#50E6FF"/>
<path d="M23.8571 4.25882L41.7131 14.5689V35.1889L23.8571 45.5072L6.00116 35.1971V14.5771L23.8571 4.25882ZM23.8571 1.4209L22.6268 2.13448L4.77084 12.4445L3.54053 13.1581V14.5771V35.1971V36.6161L4.77084 37.3297L22.6268 47.6397L23.8571 48.3533L25.0874 47.6397L42.9434 37.3297L44.1737 36.6161V35.1971V14.5771V13.1499L42.9434 12.4363L25.0874 2.13448L23.8571 1.4209Z" fill="#0078D4"/>
<path d="M24.5951 24.8201H23.3647V46.1783H24.5951V24.8201Z" fill="#0078D4"/>
<path d="M41.9596 13.7542L23.4634 24.4333L24.0785 25.4988L42.5748 14.8197L41.9596 13.7542Z" fill="#0078D4"/>
<path d="M6.01164 13.7578L5.39648 14.8232L23.8927 25.5024L24.5079 24.4369L6.01164 13.7578Z" fill="#0078D4"/>
<path d="M14.3098 30.3975V19.3657L23.857 13.8457L33.4125 19.3657V30.3975L23.857 35.9175L14.3098 30.3975Z" fill="#50E6FF"/>
<path d="M24.5379 24.8545H23.3076V35.55H24.5379V24.8545Z" fill="#0078D4"/>
<path d="M32.7662 19.0468L23.5039 24.3945L24.1191 25.46L33.3814 20.1122L32.7662 19.0468Z" fill="#0078D4"/>
<path d="M15.0798 19.0434L14.4646 20.1089L23.7269 25.4567L24.3421 24.3912L15.0798 19.0434Z" fill="#0078D4"/>
<path d="M14.8018 19.2426L24.0127 13.9604L33.2729 19.6363L23.8815 24.656L14.8018 19.2426Z" fill="white"/>
<path d="M33.4945 19.8076L24.2344 25.0898L24.2754 35.3506L33.4043 30.5031L33.4945 19.8076Z" fill="#0078D4"/>
<path d="M23.8569 14.291L33.0294 19.5842V30.1788L23.8569 35.472L14.6844 30.1788V19.5842L23.8569 14.291ZM23.8569 12.8352L23.2258 13.1971L14.0533 18.4902L13.4221 18.852V19.5842V30.1788V30.9109L14.0533 31.2728L23.2258 36.5659L23.8569 36.9278L24.488 36.5659L33.6605 31.2728L34.2917 30.9109V30.1788V19.5842V18.852L33.6605 18.4902L24.488 13.1971L23.8569 12.8352Z" fill="#0078D4"/>
</svg>
