<svg data-slug-id="geometry04" viewBox="0 0 49 49" xmlns="http://www.w3.org/2000/svg">
<path d="M32.908 31.1422C41.2736 31.1422 48.0552 24.3605 48.0552 15.9949C48.0552 7.62931 41.2736 0.847656 32.908 0.847656C24.5424 0.847656 17.7607 7.62931 17.7607 15.9949C17.7607 24.3605 24.5424 31.1422 32.908 31.1422Z" fill="#50E6FF"/>
<path d="M10.1868 43.7622C12.9753 43.7622 15.2359 41.5017 15.2359 38.7131C15.2359 35.9246 12.9753 33.6641 10.1868 33.6641C7.39825 33.6641 5.1377 35.9246 5.1377 38.7131C5.1377 41.5017 7.39825 43.7622 10.1868 43.7622Z" fill="#0078D4"/>
<path d="M2.58021 48.8381C3.97447 48.8381 5.10475 47.7079 5.10475 46.3136C5.10475 44.9193 3.97447 43.7891 2.58021 43.7891C1.18594 43.7891 0.0556641 44.9193 0.0556641 46.3136C0.0556641 47.7079 1.18594 48.8381 2.58021 48.8381Z" fill="#0078D4"/>
</svg>
