<svg data-slug-id="geometry11" viewBox="0 0 49 49" xmlns="http://www.w3.org/2000/svg">
<path d="M12.5783 11.5699C15.2398 11.5699 17.3974 9.40205 17.3974 6.72784C17.3974 4.05363 15.2398 1.88574 12.5783 1.88574C9.91684 1.88574 7.75928 4.05363 7.75928 6.72784C7.75928 9.40205 9.91684 11.5699 12.5783 11.5699Z" fill="#0078D4"/>
<path d="M24.6262 11.5699C27.2876 11.5699 29.4452 9.40205 29.4452 6.72784C29.4452 4.05363 27.2876 1.88574 24.6262 1.88574C21.9647 1.88574 19.8071 4.05363 19.8071 6.72784C19.8071 9.40205 21.9647 11.5699 24.6262 11.5699Z" fill="#0078D4"/>
<path d="M36.6735 11.5699C39.335 11.5699 41.4926 9.40205 41.4926 6.72784C41.4926 4.05363 39.335 1.88574 36.6735 1.88574C34.0121 1.88574 31.8545 4.05363 31.8545 6.72784C31.8545 9.40205 34.0121 11.5699 36.6735 11.5699Z" fill="#0078D4"/>
<path d="M12.5783 23.6752C15.2398 23.6752 17.3974 21.5073 17.3974 18.8331C17.3974 16.1589 15.2398 13.991 12.5783 13.991C9.91684 13.991 7.75928 16.1589 7.75928 18.8331C7.75928 21.5073 9.91684 23.6752 12.5783 23.6752Z" fill="#0078D4"/>
<path d="M24.6262 23.6752C27.2876 23.6752 29.4452 21.5073 29.4452 18.8331C29.4452 16.1589 27.2876 13.991 24.6262 13.991C21.9647 13.991 19.8071 16.1589 19.8071 18.8331C19.8071 21.5073 21.9647 23.6752 24.6262 23.6752Z" fill="#0078D4"/>
<path d="M36.6735 23.6752C39.335 23.6752 41.4926 21.5073 41.4926 18.8331C41.4926 16.1589 39.335 13.991 36.6735 13.991C34.0121 13.991 31.8545 16.1589 31.8545 18.8331C31.8545 21.5073 34.0121 23.6752 36.6735 23.6752Z" fill="#0078D4"/>
<path d="M12.5783 35.7806C15.2398 35.7806 17.3974 33.6127 17.3974 30.9385C17.3974 28.2643 15.2398 26.0964 12.5783 26.0964C9.91684 26.0964 7.75928 28.2643 7.75928 30.9385C7.75928 33.6127 9.91684 35.7806 12.5783 35.7806Z" fill="#0078D4"/>
<path d="M24.6262 35.7806C27.2876 35.7806 29.4452 33.6127 29.4452 30.9385C29.4452 28.2643 27.2876 26.0964 24.6262 26.0964C21.9647 26.0964 19.8071 28.2643 19.8071 30.9385C19.8071 33.6127 21.9647 35.7806 24.6262 35.7806Z" fill="#0078D4"/>
<path d="M36.6735 35.7806C39.335 35.7806 41.4926 33.6127 41.4926 30.9385C41.4926 28.2643 39.335 26.0964 36.6735 26.0964C34.0121 26.0964 31.8545 28.2643 31.8545 30.9385C31.8545 33.6127 34.0121 35.7806 36.6735 35.7806Z" fill="#0078D4"/>
<path d="M24.6262 47.8856C27.2876 47.8856 29.4452 45.7177 29.4452 43.0435C29.4452 40.3693 27.2876 38.2014 24.6262 38.2014C21.9647 38.2014 19.8071 40.3693 19.8071 43.0435C19.8071 45.7177 21.9647 47.8856 24.6262 47.8856Z" fill="#50E6FF"/>
</svg>
