<svg data-slug-id="geometry15" viewBox="0 0 42 48" xmlns="http://www.w3.org/2000/svg">
<path d="M30.6146 18.3824L30.5146 13.1824L25.9146 10.4824L21.2146 13.1824L16.5146 10.4824L11.8146 13.1824V18.4824L11.6146 18.3824L7.01465 21.0824V26.4824L11.6146 29.1824L11.8146 34.3824L16.4146 37.0824L21.1146 34.3824L25.8146 37.0824L30.4146 34.3824V29.0824L30.5146 29.1824L35.2146 26.4824V21.0824L30.6146 18.3824Z" fill="#0078D7"/>
<path d="M21.0145 0.182617L0.314453 12.0826V35.9826L21.0145 47.8826L41.7145 35.9826V12.0826L21.0145 0.182617ZM21.8145 3.58262L38.3145 13.0826L21.8145 22.8826V3.58262ZM20.5145 22.9826L3.81445 13.0826L20.6145 3.38262V22.9826H20.5145ZM19.8145 23.9826L2.81445 33.9826V13.9826L19.8145 23.9826ZM20.5145 25.0826V44.7826L3.61445 34.9826L20.5145 25.0826ZM21.8145 25.1826L38.4145 34.9826L21.8145 44.5826V25.1826ZM22.3145 23.9826L39.2145 13.9826V33.9826L22.3145 23.9826Z" fill="#50E6FF"/>
<path d="M21.0144 24.7828L27.3144 28.4828L21.0144 32.2828L14.7144 28.4828L21.0144 24.7828ZM21.0144 23.3828L12.2144 28.5828L21.0144 33.8828L29.8144 28.5828L21.0144 23.3828Z" fill="#50E6FF"/>
<path d="M21.0144 20.2827L27.3144 23.9827L21.0144 27.7827L14.7144 23.9827L21.0144 20.2827ZM21.0144 18.7827L12.2144 23.9827L21.0144 29.2827L29.8144 23.9827L21.0144 18.7827Z" fill="#50E6FF"/>
<path d="M21.0144 15.7827L27.3144 19.4827L21.0144 23.2827L14.7144 19.4827L21.0144 15.7827ZM21.0144 14.2827L12.2144 19.4827L21.0144 24.7827L29.8144 19.4827L21.0144 14.2827Z" fill="#50E6FF"/>
<path d="M13.4146 28.4825L21.0146 24.0825L28.6145 28.4825L21.0146 33.0825L13.4146 28.4825Z" fill="#3BCAF4"/>
<path d="M13.4146 23.9825L21.0146 19.5825L28.6145 23.9825L21.0146 28.5825L13.4146 23.9825Z" fill="#0078D7"/>
<path d="M13.5146 19.4825L21.1146 15.0825L28.7146 19.4825L21.1146 23.9825L13.5146 19.4825Z" fill="#3BCAF4"/>
</svg>
