<svg data-slug-id="geometry10" viewBox="0 0 49 49" xmlns="http://www.w3.org/2000/svg">
<path d="M25.0015 2.73193L28.0784 8.97369L34.9795 9.98468L29.9685 14.8198L31.1553 21.7209L25.0015 18.4682L18.8476 21.7209L20.0344 14.8198L15.0234 9.98468L21.9245 8.97369L25.0015 2.73193Z" fill="#0078D4"/>
<path d="M38.0123 39.1715L24.8695 47.1276L11.5508 39.1715V33.677L24.8695 41.4133L38.0123 33.677V39.1715Z" fill="#0078D4"/>
<path d="M38.0123 34.6438L24.8695 42.5999L11.5508 34.6438V32.446L24.8695 40.534L38.0123 32.446V34.6438Z" fill="#50E6FF"/>
<path d="M38.0123 28.6222L24.8695 36.5782L11.5508 28.6222V23.1277L24.8695 30.8639L38.0123 23.1277V28.6222Z" fill="#0078D4"/>
<path d="M38.0123 24.0948L24.8695 32.0508L11.5508 24.0948V21.897L24.8695 29.9849L38.0123 21.897V24.0948Z" fill="#50E6FF"/>
</svg>
