<svg data-slug-id="geometry08" viewBox="0 0 49 49" xmlns="http://www.w3.org/2000/svg">
<path d="M24.5193 40.9068C15.1914 40.9068 7.65127 33.3667 7.65127 24.0388C7.65127 14.7108 15.1914 7.17076 24.5193 7.17076C24.5582 7.17076 24.597 7.17076 24.597 7.17076V0.174805C24.5582 0.174805 24.5193 0.174805 24.5193 0.174805C11.3047 0.174805 0.616455 10.8631 0.616455 24.0776C0.616455 37.2922 11.3047 47.9805 24.5193 47.9805C37.695 47.9805 48.3833 37.2922 48.4221 24.1554H41.4262C41.3873 33.3667 33.8472 40.9068 24.5193 40.9068Z" fill="#0078D4"/>
<path d="M24.5193 30.5689C20.9047 30.5689 17.9509 27.6151 17.9509 24.0005C17.9509 20.3859 20.9047 17.4321 24.5193 17.4321C24.5582 17.4321 24.597 17.4321 24.597 17.4321V10.3584C24.5582 10.3584 24.5193 10.3584 24.5193 10.3584C16.9792 10.3584 10.8772 16.4604 10.8772 24.0005C10.8772 31.5406 16.9792 37.6426 24.5193 37.6426C32.0205 37.6426 38.1225 31.5406 38.1614 24.0394H31.0877C31.0489 27.6539 28.1339 30.5689 24.5193 30.5689Z" fill="#50E6FF"/>
</svg>
