<svg data-slug-id="get-started01" viewBox="0 0 48 48" xmlns="http://www.w3.org/2000/svg">
<path fill-rule="evenodd" clip-rule="evenodd" d="M42.9131 33.9888H42.8342C43.1751 33.1222 43.3672 32.1774 43.3672 31.1854C43.3672 27.0567 40.1145 23.7099 36.1017 23.7099C35.2511 23.7099 34.4383 23.8679 33.6796 24.144C31.6819 21.601 28.629 19.9719 25.2034 19.9719C19.1845 19.9719 14.3051 24.9924 14.3051 31.1854C14.3051 32.1585 14.4382 33.098 14.6649 33.9986C12.4524 34.0515 10.6724 35.9049 10.6724 38.1938C10.6724 40.516 12.502 42.3988 14.7592 42.3988H42.9131C45.1703 42.3988 47 40.516 47 38.1938C47 35.8716 45.1703 33.9888 42.9131 33.9888Z" fill="#0078D4"/>
<path fill-rule="evenodd" clip-rule="evenodd" d="M17.7921 11.958C17.7921 15.2485 15.1158 17.916 11.8144 17.916C8.51303 17.916 5.83667 15.2485 5.83667 11.958C5.83667 8.66753 8.51303 6 11.8144 6C15.1158 6 17.7921 8.66753 17.7921 11.958" fill="#50E6FF"/>
<path fill-rule="evenodd" clip-rule="evenodd" d="M11.6271 20.5095H11.6274C17.4965 20.5095 22.2545 25.2518 22.2545 31.1015V32.4255H1V31.1015C1 25.2518 5.75794 20.5095 11.6271 20.5095" fill="#50E6FF"/>
<rect x="30.0188" y="28.5706" width="1.34546" height="7.62514" fill="white"/>
<rect x="34.8552" y="31.7949" width="1.34563" height="7.62431" transform="rotate(90 34.8552 31.7949)" fill="white"/>
</svg>
