<svg data-slug-id="get-started02" viewBox="0 0 48 48" xmlns="http://www.w3.org/2000/svg">
<path fill-rule="evenodd" clip-rule="evenodd" d="M1 41.291H47V11.1819H1V41.291Z" fill="#0078D4"/>
<path fill-rule="evenodd" clip-rule="evenodd" d="M1 11.1818H47V7H1V11.1818Z" fill="#50E6FF"/>
<path fill-rule="evenodd" clip-rule="evenodd" d="M3.92481 9.20662C3.92481 9.60031 3.60459 9.91983 3.20923 9.91983C2.81423 9.91983 2.49365 9.60031 2.49365 9.20662C2.49365 8.81293 2.81423 8.49341 3.20923 8.49341C3.60459 8.49341 3.92481 8.81293 3.92481 9.20662" fill="#0078D4"/>
<path fill-rule="evenodd" clip-rule="evenodd" d="M5.91578 9.20662C5.91578 9.60031 5.59556 9.91983 5.2002 9.91983C4.8052 9.91983 4.48462 9.60031 4.48462 9.20662C4.48462 8.81293 4.8052 8.49341 5.2002 8.49341C5.59556 8.49341 5.91578 8.81293 5.91578 9.20662" fill="#0078D4"/>
<path fill-rule="evenodd" clip-rule="evenodd" d="M8.40479 9.20662C8.40479 9.60031 8.08457 9.91983 7.68921 9.91983C7.29421 9.91983 6.97363 9.60031 6.97363 9.20662C6.97363 8.81293 7.29421 8.49341 7.68921 8.49341C8.08457 8.49341 8.40479 8.81293 8.40479 9.20662" fill="#0078D4"/>
<path fill-rule="evenodd" clip-rule="evenodd" d="M3.9873 31.3542H15.4366V19.9429H3.9873V31.3542Z" fill="white"/>
<path fill-rule="evenodd" clip-rule="evenodd" d="M38.0855 31.3542V31.3542C34.9241 31.3542 32.3608 28.7998 32.3608 25.6485C32.3608 22.4976 34.9241 19.9429 38.0855 19.9429C41.2473 19.9429 43.8101 22.4976 43.8101 25.6485C43.8101 28.7998 41.2473 31.3542 38.0855 31.3542" fill="white"/>
<path fill-rule="evenodd" clip-rule="evenodd" d="M19.4187 19.9429V31.3542H30.868L19.4187 19.9429Z" fill="white"/>
</svg>
