<svg data-slug-id="github-codespaces" viewBox="0 0 48 49" xmlns="http://www.w3.org/2000/svg">
<path d="M35.94 18.8688C33.9901 18.4707 31.9799 18.4707 30.03 18.8688C29.985 17.3468 29.3953 15.8916 28.368 14.7678C28.8725 13.3428 28.8124 11.7788 28.2 10.3968C28.2 10.3968 26.82 9.94076 23.664 12.0858C20.9638 11.3454 18.1142 11.3454 15.414 12.0858C12.258 9.96176 10.875 10.3968 10.875 10.3968C10.2654 11.7796 10.2064 13.3429 10.71 14.7678C9.60224 15.9763 8.99806 17.5625 9.021 19.2018C8.89857 20.2462 9.00315 21.3047 9.32759 22.3049C9.65203 23.3051 10.1887 24.2235 10.9008 24.9972C11.613 25.7709 12.4838 26.3816 13.4538 26.7877C14.4238 27.1937 15.4701 27.3854 16.521 27.3498C15.915 27.9333 15.5409 28.7166 15.468 29.5548C15.0637 29.781 14.6187 29.9254 14.1586 29.9795C13.6984 30.0337 13.2321 29.9966 12.7863 29.8704C12.3404 29.7442 11.9239 29.5313 11.5604 29.2439C11.197 28.9566 10.8937 28.6004 10.668 28.1958C10.4126 27.7307 10.0488 27.3341 9.60754 27.0396C9.16625 26.745 8.66044 26.5612 8.133 26.5038C6.75 26.5248 7.575 27.2868 8.154 27.5958C8.89871 28.2234 9.47856 29.0236 9.843 29.9268C10.176 30.8568 11.247 32.6268 15.393 31.8648C15.393 33.2478 15.414 34.5468 15.414 34.9398C15.414 35.3328 15.114 35.8668 14.28 35.7228C11.445 34.7806 8.9189 33.0865 6.97136 30.821C5.02383 28.5556 3.72789 25.8039 3.22184 22.8596C2.71579 19.9153 3.01862 16.8889 4.09801 14.1032C5.1774 11.3175 6.99285 8.87716 9.35064 7.04253C11.7084 5.2079 14.5201 4.04782 17.4856 3.6861C20.4511 3.32437 23.4592 3.77457 26.1888 4.98865C28.9185 6.20273 31.2673 8.13514 32.9847 10.5797C34.702 13.0242 35.7235 15.8891 35.94 18.8688Z" fill="black"/>
<path opacity="0.25" fill-rule="evenodd" clip-rule="evenodd" d="M35.94 18.8688C33.9901 18.4707 31.9799 18.4707 30.03 18.8688C29.985 17.3468 29.3953 15.8916 28.368 14.7678C28.8725 13.3428 28.8124 11.7788 28.2 10.3968C28.2 10.3968 26.82 9.94076 23.664 12.0858C20.9638 11.3454 18.1142 11.3454 15.414 12.0858C12.258 9.96176 10.875 10.3968 10.875 10.3968C10.2654 11.7796 10.2064 13.3429 10.71 14.7678C9.60224 15.9763 8.99806 17.5625 9.021 19.2018C8.89857 20.2462 9.00315 21.3047 9.32759 22.3049C9.65203 23.3051 10.1887 24.2235 10.9008 24.9972C11.613 25.7709 12.4838 26.3816 13.4538 26.7877C14.4238 27.1937 15.4701 27.3854 16.521 27.3498C15.915 27.9333 15.5409 28.7166 15.468 29.5548C15.0637 29.781 14.6187 29.9254 14.1586 29.9795C13.6984 30.0337 13.2321 29.9966 12.7863 29.8704C12.3404 29.7442 11.9239 29.5313 11.5604 29.2439C11.197 28.9566 10.8937 28.6004 10.668 28.1958C10.4126 27.7307 10.0488 27.3341 9.60754 27.0396C9.16625 26.745 8.66044 26.5612 8.133 26.5038C6.75 26.5248 7.575 27.2868 8.154 27.5958C8.89871 28.2234 9.47856 29.0236 9.843 29.9268C10.176 30.8568 11.247 32.6268 15.393 31.8648C15.393 33.2478 15.414 34.5468 15.414 34.9398C15.414 35.3328 15.114 35.8668 14.28 35.7228C11.445 34.7806 8.9189 33.0865 6.97136 30.821C5.02383 28.5556 3.72789 25.8039 3.22184 22.8596C2.71579 19.9153 3.01862 16.8889 4.09801 14.1032C5.1774 11.3175 6.99285 8.87716 9.35064 7.04253C11.7084 5.2079 14.5201 4.04782 17.4856 3.6861C20.4511 3.32437 23.4592 3.77457 26.1888 4.98865C28.9185 6.20273 31.2673 8.13514 32.9847 10.5797C34.702 13.0242 35.7235 15.8891 35.94 18.8688Z" fill="url(#github-codespaces_paint0_linear)"/>
<path d="M28.308 30.1221L33.138 34.9551L28.275 39.8211L26.661 38.2011L29.811 35.0451L29.907 34.9521L29.811 34.8591L26.7 31.7391L28.308 30.1221ZM36.108 32.1471L36.204 32.0541L39.3 28.9341L37.686 27.3171L32.856 32.1471L37.722 37.0131L39.336 35.3931L36.186 32.2431L36.108 32.1471ZM45 33.5691C45 35.9425 44.2962 38.2625 42.9776 40.2359C41.6591 42.2093 39.7849 43.7474 37.5922 44.6556C35.3995 45.5639 32.9867 45.8015 30.6589 45.3385C28.3311 44.8755 26.193 43.7326 24.5147 42.0544C22.8365 40.3761 21.6936 38.2379 21.2306 35.9102C20.7676 33.5824 21.0052 31.1696 21.9135 28.9769C22.8217 26.7842 24.3598 24.91 26.3332 23.5915C28.3066 22.2729 30.6266 21.5691 33 21.5691C36.1814 21.5731 39.2313 22.8386 41.4809 25.0882C43.7305 27.3378 44.996 30.3877 45 33.5691ZM42 33.5691C42.0005 31.4869 41.2789 29.4689 39.9583 27.8591C38.6377 26.2492 36.7997 25.1471 34.7576 24.7405C32.7154 24.3338 30.5955 24.6479 28.7589 25.6291C26.9224 26.6103 25.4829 28.1979 24.6857 30.1215C23.8885 32.0451 23.783 34.1856 24.3871 36.1782C24.9912 38.1709 26.2675 39.8925 27.9986 41.0496C29.7297 42.2067 31.8085 42.7277 33.8807 42.524C35.953 42.3202 37.8904 41.4042 39.363 39.9321C41.051 38.2447 41.9995 35.9558 42 33.5691Z" fill="url(#github-codespaces_paint1_linear)"/>
<defs>
<linearGradient id="github-codespaces_paint0_linear" x1="19.47" y1="3.56876" x2="19.47" y2="35.7498" gradientUnits="userSpaceOnUse">
<stop stop-color="white"/>
<stop offset="1" stop-color="white" stop-opacity="0"/>
</linearGradient>
<linearGradient id="github-codespaces_paint1_linear" x1="20.985" y1="36.7881" x2="47.697" y2="29.6301" gradientUnits="userSpaceOnUse">
<stop stop-color="#854CC7"/>
<stop offset="0.136" stop-color="#69207B"/>
<stop offset="0.209" stop-color="#69207B"/>
<stop offset="0.671" stop-color="#1F9CF0"/>
<stop offset="0.943" stop-color="#00B294" stop-opacity="0.85"/>
</linearGradient>
</defs>
</svg>
