<svg data-slug-id="globe04" viewBox="0 0 48 49" xmlns="http://www.w3.org/2000/svg">
<path d="M23.899 37.0958C33.6237 37.0958 41.5113 29.2082 41.5113 19.4835C41.5113 9.75873 33.6237 1.87109 23.899 1.87109C14.1743 1.87109 6.28662 9.75873 6.28662 19.4835C6.28662 29.2166 14.1658 37.0958 23.899 37.0958Z" fill="#0078D4"/>
<path d="M41.5784 0.40625L37.6935 4.29108L37.6598 4.32479C37.9042 4.54389 38.1402 4.77142 38.3761 5.00737C40.2553 6.88659 41.7301 9.0776 42.7582 11.513C43.82 14.0327 44.3677 16.7209 44.3677 19.4765C44.3677 22.2321 43.8284 24.9203 42.7582 27.44C41.7301 29.8754 40.2553 32.0579 38.3761 33.9456C36.4969 35.8248 34.3059 37.2995 31.8705 38.3276C29.3424 39.4062 26.6626 39.9456 23.8986 39.9456C21.1346 39.9456 18.4548 39.4062 15.9351 38.336C13.4997 37.3079 11.3171 35.8332 9.4295 33.954C9.19354 33.718 8.96602 33.4821 8.74691 33.2377L6.81714 35.1675C10.7273 39.4231 16.2132 42.2209 22.3565 42.6169V45.3978H11.452V48.1197H35.9913V45.3978H25.0699V42.6422C37.3312 42.0355 47.0896 31.8978 47.0896 19.4765C47.0896 13.6872 44.966 8.40344 41.4688 4.35007L43.4913 2.31917L41.5784 0.40625Z" fill="#50E6FF"/>
<path d="M24.017 8.00781C20.6715 8.00781 17.9243 10.6792 17.7894 13.991H19.7782C19.8372 12.9629 20.2754 11.9938 21.017 11.2522C21.8259 10.4432 22.8877 10.005 24.017 10.005C25.1462 10.005 26.208 10.4516 27.017 11.2522C27.826 12.0612 28.2642 13.123 28.2642 14.2522C28.2642 14.6988 28.2642 15.3814 28.2557 15.9207C27.9018 16.241 27.413 16.6623 26.8568 17.0752C25.4495 18.1286 24.4636 18.4994 24.017 18.4994C23.8653 18.4994 23.0142 18.432 21.1855 17.0415C20.7052 16.6792 20.2754 16.3084 19.9383 16.005H17.781C17.781 16.4095 17.781 16.7044 17.781 16.7044C17.781 16.7044 21.4804 20.4882 24.0254 20.4882C26.5956 20.4882 30.2445 16.7803 30.2445 16.7803C30.2445 16.7803 30.2613 15.1117 30.2613 14.2522C30.2529 10.814 27.4467 8.00781 24.017 8.00781Z" fill="#50E6FF"/>
<path d="M30.2529 15.9961H17.781V28.0045H30.2529V15.9961Z" fill="#50E6FF"/>
<path d="M24.0168 24.075C24.8778 24.075 25.5757 23.377 25.5757 22.516C25.5757 21.655 24.8778 20.957 24.0168 20.957C23.1557 20.957 22.4578 21.655 22.4578 22.516C22.4578 23.377 23.1557 24.075 24.0168 24.075Z" fill="#0078D4"/>
</svg>
