<svg data-slug-id="globe08" viewBox="0 0 48 49" xmlns="http://www.w3.org/2000/svg">
<path d="M23.9832 47.2287C11.4362 47.2287 1.25391 36.9454 1.25391 24.3984C1.25391 11.843 11.4362 1.66064 23.9832 1.66064C36.5302 1.66064 46.8135 11.843 46.8135 24.39C46.8135 36.9369 36.6312 47.2287 23.9832 47.2287Z" fill="#50E6FF"/>
<path d="M23.9915 5.49784C34.5105 5.49784 42.9845 13.9719 42.9845 24.4908C42.9845 35.0098 34.5105 43.3912 23.9915 43.3912C13.5567 43.3912 5.0911 34.9172 5.0911 24.3983C5.0911 13.8793 13.5567 5.49784 23.9915 5.49784ZM23.9831 0.734863C10.9228 0.734863 0.328125 11.3295 0.328125 24.3898C0.328125 37.4501 10.9228 48.0448 23.9831 48.0448C37.0434 48.0448 47.6381 37.4501 47.6381 24.3898C47.6381 11.3295 37.0434 0.734863 23.9831 0.734863Z" fill="#0078D7"/>
<path d="M23.9826 37.1456C23.5703 37.1456 23.2589 36.8342 23.2589 36.5312L20.7933 26.2479L10.8213 23.7823C10.51 23.6813 10.207 23.37 10.207 23.0586C10.207 22.7472 10.409 22.4443 10.7204 22.3349L32.1117 14.7276C32.423 14.6266 32.726 14.7276 32.9363 14.9296C33.1383 15.1315 33.2477 15.4429 33.1383 15.7543L24.7063 36.6322C24.5969 36.9352 24.294 37.1456 23.9826 37.1456Z" fill="#0078D4"/>
</svg>
