<svg data-slug-id="globe09" viewBox="0 0 61 61" xmlns="http://www.w3.org/2000/svg">
<path d="M49.376 12.1948H11.9062V49.6646H49.376V12.1948Z" fill="#50E6FF"/>
<path d="M16.0399 12.4351H12.1084V16.354H16.0399V12.4351Z" fill="#0078D4"/>
<path d="M21.9184 12.4351H17.9868V16.354H21.9184V12.4351Z" fill="#0078D4"/>
<path d="M37.4677 16.354H33.5488V12.4351H35.5462L37.4677 14.6347V16.354Z" fill="#0078D4"/>
<path d="M25.7486 12.4351H23.8145V16.354H25.7486V12.4351Z" fill="#0078D4"/>
<path d="M28.6436 12.4351H26.7095V16.354H28.6436V12.4351Z" fill="#0078D4"/>
<path d="M16.0399 18.2627H12.1084V24.1537H16.0399V18.2627Z" fill="#0078D4"/>
<path d="M23.7512 18.1997H17.9487V24.0022H23.7512V18.1997Z" fill="#0078D4"/>
<path d="M31.6018 18.1997H25.7993V24.0022H31.6018V18.1997Z" fill="#0078D4"/>
<path d="M37.4548 20.3109L35.5332 22.1818L33.5864 22.2071V18.1997H37.4548V20.3109Z" fill="#0078D4"/>
<path d="M39.3513 27.9715H33.7637V26.05L37.4677 22.1816H39.3513V27.9715Z" fill="#0078D4"/>
<path d="M12.1338 39.7535V26.0879H17.0767V35.8346L14.3461 39.7282L12.1338 39.7535Z" fill="#0078D4"/>
<path d="M43.3836 19.4004L41.3862 21.2587V26.1257H43.3836V19.4004Z" fill="#0078D4"/>
<path d="M38.5293 18.2375H39.4521L41.361 16.316V12.4729H38.5293V18.2375Z" fill="#0078D4"/>
<path d="M42.1069 15.5827L43.0298 14.6725V12.4602H42.1069V15.5827Z" fill="#0078D4"/>
<path d="M28.7702 26.0879H24.9019V31.8904H28.7702V26.0879Z" fill="#0078D4"/>
<path d="M19.8579 35.6576L23.7262 31.6502V26.1511H19.8579V35.6576Z" fill="#0078D4"/>
<path d="M29.6299 33.8499H23.7642V39.7156H29.6299V33.8499Z" fill="#0078D4"/>
<path d="M49.0853 41.7004H39.3892V49.4371H49.0853V41.7004Z" fill="#0078D4"/>
<path d="M35.4703 41.675H31.5767V49.4117H35.4703V41.675Z" fill="#0078D4"/>
<path d="M35.4953 35.8093H31.5259V39.7788H35.4953V35.8093Z" fill="#0078D4"/>
<path d="M41.3613 37.7435H39.3387V35.8346L37.4551 35.8473V31.9031H39.3008L41.3613 33.6729V37.7435Z" fill="#0078D4"/>
<path d="M29.6169 40.8787H12.0703V42.8002H29.6169V40.8787Z" fill="#0078D4"/>
<path d="M21.8679 44.5574H12.1465V49.4623H21.8679V44.5574Z" fill="#0078D4"/>
<path d="M29.6172 44.5574H23.7515V49.4623H29.6172V44.5574Z" fill="#0078D4"/>
<path d="M22.7148 34.9497L17.9995 39.7409H22.7148V34.9497Z" fill="#0078D4"/>
<path d="M35.5082 28.9702H29.6299V31.941H35.5082V28.9702Z" fill="#0078D4"/>
<path d="M49.1105 36.2771L41.3359 29.9689V28.0474H49.1105V36.2771Z" fill="#0078D4"/>
<path d="M49.0598 12.4856H45.2168V22.1944H49.0598V12.4856Z" fill="#0078D4"/>
<path d="M49.085 24.179H45.1914V26.1005H49.085V24.179Z" fill="#0078D4"/>
<path d="M43.3203 39.7535H49.1102V39.703L43.3203 34.7222V39.7535Z" fill="#0078D4"/>
</svg>
