<svg data-slug-id="globe01" viewBox="0 0 48 49" xmlns="http://www.w3.org/2000/svg">
<path d="M8.05054 42.0801C11.9916 45.6001 17.1116 47.8401 22.7453 48.1348V43.2338C18.4674 42.9559 14.5769 41.2548 11.5369 38.5938L8.05054 42.0801Z" fill="#0078D4"/>
<path d="M25.2715 0.296875V5.4253C29.541 5.71161 33.4231 7.40424 36.4546 10.0485L40.0589 6.44424C36.1094 2.8653 30.9557 0.591612 25.2715 0.296875Z" fill="#50E6FF"/>
<path d="M6.14824 8.24609C2.60298 12.2124 0.354555 17.3577 0.0766602 23.0335H5.09561C5.38192 18.764 7.0914 14.8735 9.74403 11.8419L6.14824 8.24609Z" fill="#0078D4"/>
<path d="M22.7454 0.296875C17.0696 0.591612 11.9159 2.85687 7.95801 6.4274L11.5622 10.0316C14.5938 7.3874 18.4759 5.69477 22.7454 5.41687V0.296875Z" fill="#0078D4"/>
<path d="M36.4799 38.5781C33.4483 41.2392 29.5494 42.9402 25.2715 43.2265V48.1276C30.9052 47.8329 36.0252 45.5929 39.9662 42.0644L36.4799 38.5781Z" fill="#50E6FF"/>
<path d="M0.0854492 25.5586C0.397028 31.2091 2.67071 36.3375 6.23282 40.2702L9.72755 36.7754C7.07492 33.7439 5.37387 29.8449 5.09598 25.5586H0.0854492Z" fill="#0078D4"/>
<path d="M47.9158 25.5586H42.9053C42.6274 29.8365 40.9347 33.727 38.2905 36.767L41.7853 40.2618C45.3389 36.3207 47.6042 31.2007 47.9158 25.5586Z" fill="#50E6FF"/>
<path d="M41.8695 8.26172L38.2737 11.8575C40.9179 14.8891 42.6189 18.7628 42.9053 23.0322H47.9242C47.6463 17.3649 45.4063 12.2196 41.8695 8.26172Z" fill="#50E6FF"/>
<path d="M24.5895 12.9255C20.2274 12.656 16.4716 15.9739 16.2021 20.336C15.9326 24.6981 24.0674 35.4939 24.0674 35.4939C24.0674 35.4939 31.7305 25.6749 32 21.3128C32.2695 16.9507 28.9516 13.1949 24.5895 12.9255Z" fill="#50E6FF"/>
<path d="M28.8674 21.0967C28.7074 23.7241 26.4421 25.7283 23.8148 25.5683C21.1874 25.4083 19.1832 23.1431 19.3432 20.5157C19.5032 17.8883 21.7684 15.8841 24.3958 16.0441C27.0232 16.2041 29.0358 18.4694 28.8674 21.0967Z" fill="#0078D4"/>
</svg>
