<svg data-slug-id="globe06" viewBox="0 0 48 49" xmlns="http://www.w3.org/2000/svg">
<path d="M23.899 37.0958C33.6237 37.0958 41.5113 29.2082 41.5113 19.4835C41.5113 9.75873 33.6237 1.87109 23.899 1.87109C14.1743 1.87109 6.28662 9.75873 6.28662 19.4835C6.28662 29.2166 14.1658 37.0958 23.899 37.0958Z" fill="#0078D4"/>
<path d="M41.5786 0.40625L37.6938 4.29108L37.6601 4.32479C37.9045 4.54389 38.1404 4.77142 38.3764 5.00737C40.2556 6.88659 41.7303 9.0776 42.7584 11.513C43.8202 14.0327 44.3679 16.7209 44.3679 19.4765C44.3679 22.2321 43.8286 24.9203 42.7584 27.44C41.7303 29.8754 40.2556 32.0579 38.3764 33.9456C36.4972 35.8248 34.3061 37.2995 31.8708 38.3276C29.3427 39.4062 26.6629 39.9456 23.8988 39.9456C21.1348 39.9456 18.455 39.4062 15.9354 38.336C13.5 37.3079 11.3174 35.8332 9.42974 33.954C9.19379 33.718 8.96626 33.4821 8.74716 33.2377L6.81738 35.1675C10.7275 39.4231 16.2134 42.2209 22.3567 42.6169V45.3978H11.4522V48.1197H35.9915V45.3978H25.0702V42.6422C37.3314 42.0355 47.0899 31.8978 47.0899 19.4765C47.0899 13.6871 44.9663 8.40344 41.4691 4.35007L43.4915 2.31917L41.5786 0.40625Z" fill="#50E6FF"/>
<path d="M33.3878 16.7939H14.6462C13.5507 16.7939 12.6575 15.9091 12.6575 14.8052C12.6575 13.7097 13.5423 12.8164 14.6462 12.8164H33.3878C34.4833 12.8164 35.3766 13.7012 35.3766 14.8052C35.3766 15.9091 34.4833 16.7939 33.3878 16.7939Z" fill="#50E6FF"/>
<path d="M30.0759 16.0957C30.7787 16.0957 31.3484 15.526 31.3484 14.8233C31.3484 14.1205 30.7787 13.5508 30.0759 13.5508C29.3732 13.5508 28.8035 14.1205 28.8035 14.8233C28.8035 15.526 29.3732 16.0957 30.0759 16.0957Z" fill="#0078D4"/>
<path d="M33.396 16.0957C34.0988 16.0957 34.6685 15.526 34.6685 14.8233C34.6685 14.1205 34.0988 13.5508 33.396 13.5508C32.6932 13.5508 32.1235 14.1205 32.1235 14.8233C32.1235 15.526 32.6932 16.0957 33.396 16.0957Z" fill="#0078D4"/>
<path d="M14.6123 21.4453H33.3539C34.4494 21.4453 35.3426 22.3301 35.3426 23.4341C35.3426 24.5296 34.4578 25.4228 33.3539 25.4228H14.6123C13.5168 25.4228 12.6235 24.538 12.6235 23.4341C12.632 22.3301 13.5168 21.4453 14.6123 21.4453Z" fill="#50E6FF"/>
<path d="M33.0674 24.7168C33.7702 24.7168 34.3399 24.1471 34.3399 23.4443C34.3399 22.7416 33.7702 22.1719 33.0674 22.1719C32.3646 22.1719 31.7949 22.7416 31.7949 23.4443C31.7949 24.1471 32.3646 24.7168 33.0674 24.7168Z" fill="#0078D4"/>
<path d="M29.7471 24.7168C30.4498 24.7168 31.0196 24.1471 31.0196 23.4443C31.0196 22.7416 30.4498 22.1719 29.7471 22.1719C29.0443 22.1719 28.4746 22.7416 28.4746 23.4443C28.4746 24.1471 29.0443 24.7168 29.7471 24.7168Z" fill="#0078D4"/>
</svg>
