<svg data-slug-id="globe10" viewBox="0 0 48 49" xmlns="http://www.w3.org/2000/svg">
<path d="M21.6501 38.3312C30.6501 38.3312 37.9501 31.0312 37.9501 22.0312C37.9501 13.0312 30.6501 5.7312 21.6501 5.7312C12.6501 5.7312 5.3501 13.0312 5.3501 22.0312C5.3501 31.0312 12.6501 38.3312 21.6501 38.3312Z" fill="#0078D4"/>
<path d="M38.0001 4.3313L34.4001 7.9313L34.3501 7.9813C34.6001 8.1813 34.8001 8.3813 35.0001 8.6313C36.7501 10.3813 38.1001 12.3813 39.0501 14.6313C40.0501 16.9813 40.5501 19.4313 40.5501 21.9813C40.5501 24.5313 40.0501 27.0313 39.0501 29.3313C38.1001 31.5813 36.7501 33.6313 35.0001 35.3313C33.2501 37.0813 31.2501 38.4313 29.0001 39.3813C26.6501 40.3813 24.2001 40.8813 21.6001 40.8813C19.0001 40.8813 16.5501 40.3813 14.2501 39.3813C12.0001 38.4313 9.9501 37.0813 8.2501 35.3313C8.0501 35.1313 7.8001 34.8813 7.6001 34.6813L5.8501 36.5313C9.4501 40.4813 14.5501 43.0813 20.2501 43.4313V46.0313H10.1001V48.5313H32.8001V46.0313H22.7501V43.4813C34.1001 42.9313 43.1501 33.5313 43.1501 22.0313C43.1501 16.6813 41.2001 11.7813 37.9501 8.0313L39.8501 6.1313L38.0001 4.3313Z" fill="#50E6FF"/>
<path d="M22.0521 12.4424C18.4304 12.2187 15.3122 14.9734 15.0884 18.595C14.8647 22.2167 21.6186 31.1799 21.6186 31.1799C21.6186 31.1799 27.981 23.0277 28.2047 19.4061C28.4284 15.7844 25.6738 12.6661 22.0521 12.4424Z" fill="#50E6FF"/>
<path d="M25.6039 19.2227C25.4711 21.404 23.5903 23.0681 21.4089 22.9352C19.2276 22.8024 17.5636 20.9216 17.6964 18.7402C17.8292 16.5589 19.71 14.8949 21.8914 15.0277C24.0727 15.1605 25.7437 17.0413 25.6039 19.2227Z" fill="#0078D4"/>
</svg>
