<svg data-slug-id="globe07" viewBox="0 0 48 49" xmlns="http://www.w3.org/2000/svg">
<path d="M21.6503 37.999C30.6503 37.999 37.9503 30.7904 37.9503 21.9031C37.9503 13.0157 30.6503 5.80713 21.6503 5.80713C12.6503 5.80713 5.35034 13.0157 5.35034 21.9031C5.35034 30.7904 12.6503 37.999 21.6503 37.999Z" fill="#0078D4"/>
<path d="M38.0003 4.42603L34.4003 7.98096L34.3503 8.03033C34.6003 8.22783 34.8003 8.42532 35.0003 8.67219C36.7503 10.4003 38.1003 12.3752 39.0503 14.5971C40.0503 16.9177 40.5503 19.337 40.5503 21.8551C40.5503 24.3731 40.0503 26.8418 39.0503 29.113C38.1003 31.3349 36.7503 33.3592 35.0003 35.0379C33.2503 36.766 31.2503 38.0991 29.0003 39.0372C26.6503 40.0247 24.2003 40.5185 21.6003 40.5185C19.0003 40.5185 16.5503 40.0247 14.2503 39.0372C12.0003 38.0991 9.95034 36.766 8.25034 35.0379C8.05034 34.8404 7.80034 34.5936 7.60034 34.3961L5.85034 36.2229C9.45034 40.1235 14.5503 42.6909 20.2503 43.0365V45.604H10.1003V48.0727H32.8003V45.604H22.7503V43.0859C34.1003 42.5428 43.1503 33.2605 43.1503 21.9044C43.1503 16.6214 41.2003 11.7828 37.9503 8.0797L39.8503 6.20349L38.0003 4.42603Z" fill="#50E6FF"/>
<path d="M29.3001 14.251L17.3501 26.0514L13.7501 22.4964L11.3501 24.8664L17.3501 30.7913L31.7001 16.6209L29.3001 14.251Z" fill="#50E6FF"/>
</svg>
