<svg data-slug-id="globe13" viewBox="0 0 48 49" xmlns="http://www.w3.org/2000/svg">
<path d="M1 24.1064C1 36.7705 11.3076 47.1064 23.9356 47.1064C36.5644 47.1064 46.8634 36.7619 46.8634 24.1064C46.8634 11.4424 36.5558 1.10645 23.9356 1.10645C11.3154 1.10645 1 11.4424 1 24.1064Z" fill="#0078D4"/>
<path d="M46.66 24.1055C46.66 17.9186 36.4262 12.8855 23.8464 12.8855C11.2666 12.8855 1.03369 17.9186 1.03369 24.1055C1.03369 30.2923 11.2675 35.3254 23.8473 35.3254C36.4271 35.3254 46.66 30.2923 46.66 24.1055ZM45.9839 24.5152C45.5286 30.1016 35.8137 34.5798 23.934 34.5798C18.0255 34.5798 12.4658 33.4725 8.27971 31.4623C4.34959 29.575 2.0989 27.1216 1.88414 24.5161L1.87813 23.7696C2.05595 21.1366 4.3118 18.6548 8.27885 16.7503C12.4658 14.7402 18.0255 13.6329 23.9332 13.6329C29.8623 13.6329 35.422 14.7281 39.5884 16.7177C43.5571 18.6127 45.8139 21.1057 45.9891 23.7696L45.9839 24.5152Z" fill="white"/>
<path d="M35.0367 24.1066C35.0367 11.4925 30.0174 1.22949 23.8477 1.22949C17.6781 1.22949 12.6587 11.4925 12.6587 24.1066C12.6587 36.7131 17.6781 46.9752 23.8477 46.9838C30.0174 46.9838 35.0367 36.7208 35.0367 24.1066ZM23.5204 46.2184C20.9244 46.0011 18.4804 43.7444 16.6 39.8056C14.595 35.6067 13.4911 30.0315 13.4911 24.1066C13.4911 18.1818 14.595 12.6058 16.6 8.40765C18.4804 4.46894 20.9244 2.2131 23.5204 1.9949L24.2652 1.98803C26.8922 2.16327 29.3688 4.42599 31.2698 8.40679C33.2748 12.6058 34.3787 18.181 34.3787 24.1058C34.3787 30.0297 33.2748 35.6041 31.2698 39.8022C29.3696 43.7813 26.893 46.0449 24.2652 46.2236L23.5204 46.2184Z" fill="white"/>
<path d="M24.3008 15.5677C20.9909 15.3641 18.1484 17.8828 17.9439 21.1807C17.7403 24.4905 23.9048 32.6583 23.9048 32.6583C23.9048 32.6583 29.7093 25.2225 29.9138 21.9126C30.1174 18.6259 27.5987 15.7713 24.3008 15.5677Z" fill="#50E6FF"/>
<path d="M27.5382 21.7577C27.4179 23.7489 25.7033 25.26 23.712 25.1397C21.7207 25.0195 20.2097 23.3048 20.33 21.3136C20.4502 19.3223 22.1649 17.8112 24.1561 17.9315C26.1465 18.0518 27.6576 19.7673 27.5382 21.7577Z" fill="#0078D4"/>
<path d="M12.896 33.9154C12.896 34.5846 13.4415 35.1318 14.109 35.1318C14.7764 35.1318 15.3219 34.5846 15.3219 33.9154C15.3219 33.2462 14.7764 32.699 14.109 32.699C13.4415 32.699 12.896 33.2462 12.896 33.9154Z" fill="white"/>
<path d="M12.896 14.297C12.896 14.9662 13.4415 15.5134 14.109 15.5134C14.7764 15.5134 15.3219 14.9662 15.3219 14.297C15.3219 13.6278 14.7764 13.0806 14.109 13.0806C13.4415 13.0806 12.896 13.6278 12.896 14.297Z" fill="white"/>
<path d="M32.5415 33.9154C32.5415 34.5846 33.087 35.1318 33.7545 35.1318C34.4219 35.1318 34.9674 34.5846 34.9674 33.9154C34.9674 33.2462 34.4219 32.699 33.7545 32.699C33.0784 32.699 32.5415 33.2462 32.5415 33.9154Z" fill="white"/>
<path d="M32.5415 14.297C32.5415 14.9662 33.087 15.5134 33.7545 15.5134C34.4219 15.5134 34.9674 14.9662 34.9674 14.297C34.9674 13.6278 34.4219 13.0806 33.7545 13.0806C33.0784 13.0806 32.5415 13.6278 32.5415 14.297Z" fill="white"/>
<path d="M7.75635 5.90918C6.65248 5.90918 5.75049 6.8086 5.75049 7.90903C5.75049 9.00946 6.65248 9.90888 7.75635 9.90888C8.86022 9.90888 9.76222 9.00946 9.76222 7.90903C9.76222 6.8086 8.86022 5.90918 7.75635 5.90918Z" fill="#50E6FF"/>
<path d="M40.1069 5.90918C39.0031 5.90918 38.1011 6.8086 38.1011 7.90903C38.1011 9.00946 39.0031 9.90888 40.1069 9.90888C41.2108 9.90888 42.1128 9.00946 42.1128 7.90903C42.1128 6.8086 41.2108 5.90918 40.1069 5.90918Z" fill="#50E6FF"/>
<path d="M7.75635 38.3042C6.65248 38.3042 5.75049 39.2036 5.75049 40.304C5.75049 41.4045 6.65248 42.3039 7.75635 42.3039C8.86022 42.3039 9.76222 41.4045 9.76222 40.304C9.76222 39.1899 8.86022 38.3042 7.75635 38.3042Z" fill="#50E6FF"/>
<path d="M40.1069 38.3042C39.0031 38.3042 38.1011 39.2036 38.1011 40.304C38.1011 41.4045 39.0031 42.3039 40.1069 42.3039C41.2108 42.3039 42.1128 41.4045 42.1128 40.304C42.1128 39.1899 41.2108 38.3042 40.1069 38.3042Z" fill="#50E6FF"/>
</svg>
