<svg data-slug-id="globe03" viewBox="0 0 48 49" xmlns="http://www.w3.org/2000/svg">
<path d="M27.5688 23.9209H28.0155" stroke="#75757A" stroke-width="1.01266" stroke-miterlimit="10"/>
<path d="M27.5688 5.51538H28.0155" stroke="#75757A" stroke-width="1.01266" stroke-miterlimit="10"/>
<path d="M24.0043 47.9394C37.1189 47.9394 47.8229 37.2656 47.8229 24.1882C47.8229 11.1107 37.1104 0.445312 24.0043 0.445312C10.8898 0.445312 0.185791 11.1191 0.185791 24.1882C0.185791 37.2572 10.8898 47.9394 24.0043 47.9394Z" fill="#0078D4"/>
<path d="M24.2658 0.53125H23.8191V47.9413H24.2658V0.53125Z" fill="white"/>
<path d="M24.0046 35.9297C10.7973 35.9297 0.0090332 30.6853 0.0090332 24.281C0.0090332 17.8768 10.7973 12.6323 24.0046 12.6323C37.2118 12.6323 48.0001 17.8768 48.0001 24.281C47.9917 30.6853 37.2034 35.9297 24.0046 35.9297ZM24.0046 12.9853C10.9827 12.9853 0.455736 18.0533 0.455736 24.1886C0.455736 30.3239 10.9827 35.3918 24.0046 35.3918C37.0264 35.3918 47.5534 30.3239 47.5534 24.1886C47.545 18.0533 37.0264 12.9853 24.0046 12.9853Z" fill="white"/>
<path d="M24.0037 48.2109C17.5813 48.2109 12.322 37.4531 12.322 24.2832C12.322 11.1133 17.5813 0.355469 24.0037 0.355469C30.4261 0.355469 35.6854 11.1217 35.6854 24.2832C35.6854 37.4447 30.4261 48.2109 24.0037 48.2109ZM24.0037 0.70846C17.7583 0.70846 12.7687 11.2057 12.7687 24.1908C12.7687 37.1758 17.851 47.6731 24.0037 47.6731C30.1564 47.6731 35.2387 37.1758 35.2387 24.1908C35.2387 11.2057 30.2407 0.70846 24.0037 0.70846Z" fill="white"/>
<path d="M47.8135 24.011H0.277588V24.4564H47.822V24.011H47.8135Z" fill="white"/>
<path d="M24.0034 37.7956C25.1665 37.7956 26.1442 36.8207 26.1442 35.6609C26.1442 34.501 25.1665 33.5261 24.0034 33.5261C22.8402 33.5261 21.8625 34.501 21.8625 35.6609C21.8625 36.8207 22.8402 37.7956 24.0034 37.7956Z" fill="white"/>
<path d="M12.4997 25.9727C13.4774 25.9727 14.2865 25.1743 14.2865 24.1909C14.2865 23.216 13.4858 22.4092 12.4997 22.4092C11.522 22.4092 10.7129 23.2076 10.7129 24.1909C10.7129 25.1743 11.5136 25.9727 12.4997 25.9727Z" fill="white"/>
<path d="M24.0714 26.5927C25.4284 26.5927 26.5156 25.5085 26.5156 24.1553C26.5156 22.8022 25.4284 21.718 24.0714 21.718C22.7145 21.718 21.6272 22.8022 21.6272 24.1553C21.6272 25.5085 22.7145 26.5927 24.0714 26.5927Z" fill="#50E6FF"/>
<path d="M24.0714 15.1632C25.4284 15.1632 26.5156 14.079 26.5156 12.7259C26.5156 11.3728 25.4284 10.2886 24.0714 10.2886C22.7145 10.2886 21.6272 11.3728 21.6272 12.7259C21.6272 14.079 22.7145 15.1632 24.0714 15.1632Z" fill="#50E6FF"/>
<path d="M35.4074 26.5927C36.7643 26.5927 37.8516 25.5085 37.8516 24.1553C37.8516 22.8022 36.7643 21.718 35.4074 21.718C34.0504 21.718 32.9631 22.8022 32.9631 24.1553C32.9631 25.5085 34.0504 26.5927 35.4074 26.5927Z" fill="#50E6FF"/>
<path d="M34.0837 35.5268C34.7748 35.5268 35.3395 34.9637 35.3395 34.2745C35.3395 33.5853 34.7748 33.0222 34.0837 33.0222C33.3926 33.0222 32.8279 33.5853 32.8279 34.2745C32.8279 34.9637 33.3926 35.5268 34.0837 35.5268Z" fill="white"/>
<path d="M13.8305 35.5268C14.5217 35.5268 15.0864 34.9637 15.0864 34.2745C15.0864 33.5853 14.5217 33.0222 13.8305 33.0222C13.1394 33.0222 12.5747 33.5853 12.5747 34.2745C12.5747 34.9637 13.1394 35.5268 13.8305 35.5268Z" fill="white"/>
<path d="M34.0837 15.2463C34.7748 15.2463 35.3395 14.6831 35.3395 13.994C35.3395 13.3048 34.7748 12.7417 34.0837 12.7417C33.3926 12.7417 32.8279 13.3048 32.8279 13.994C32.8279 14.6916 33.3926 15.2463 34.0837 15.2463Z" fill="white"/>
<path d="M13.8305 15.2463C14.5217 15.2463 15.0864 14.6831 15.0864 13.994C15.0864 13.3048 14.5217 12.7417 13.8305 12.7417C13.1394 12.7417 12.5747 13.3048 12.5747 13.994C12.5747 14.6916 13.1394 15.2463 13.8305 15.2463Z" fill="white"/>
</svg>
