<svg data-slug-id="globe05" viewBox="0 0 48 49" xmlns="http://www.w3.org/2000/svg">
<path d="M21.642 37.9969C30.646 37.9969 37.9452 30.6978 37.9452 21.6938C37.9452 12.6898 30.646 5.39062 21.642 5.39062C12.638 5.39062 5.33887 12.6898 5.33887 21.6938C5.33887 30.6978 12.638 37.9969 21.642 37.9969Z" fill="#0078D4"/>
<path d="M38.0041 4.03516L34.4083 7.63095L34.3746 7.66463C34.602 7.86673 34.821 8.07726 35.0399 8.29621C36.7831 10.0394 38.1473 12.0604 39.0989 14.3173C40.0841 16.6499 40.5894 19.1341 40.5894 21.6857C40.5894 24.2373 40.0925 26.7215 39.0989 29.0541C38.1473 31.3109 36.7831 33.332 35.0399 35.0752C33.2967 36.8183 31.2757 38.1825 29.0189 39.1341C26.6778 40.1362 24.202 40.633 21.642 40.633C19.082 40.633 16.6062 40.1362 14.2736 39.1425C12.0167 38.1909 9.99569 36.8267 8.25254 35.0836C8.03359 34.8646 7.82306 34.6457 7.62096 34.4183L5.83569 36.2036C9.45675 40.1446 14.5346 42.7299 20.2189 43.1004V45.6773H10.122V48.1952H32.8336V45.6773H22.7283V43.1257C34.0799 42.5615 43.1073 33.1804 43.1073 21.6857C43.1073 16.3299 41.1452 11.4373 37.9031 7.68147L39.781 5.80358L38.0041 4.03516Z" fill="#50E6FF"/>
<path d="M24.2191 8.45343C21.8949 8.31027 19.8991 10.0787 19.7559 12.3945C19.6128 14.7187 23.9412 20.4534 23.9412 20.4534C23.9412 20.4534 28.017 15.2324 28.1601 12.9082C28.3033 10.6008 26.5349 8.59658 24.2191 8.45343Z" fill="#50E6FF"/>
<path d="M26.4927 12.8004C26.4085 14.1983 25.2043 15.2593 23.8064 15.1751C22.4085 15.0909 21.3475 13.8867 21.4317 12.4888C21.5159 11.0909 22.7201 10.0298 24.118 10.1141C25.5159 10.1983 26.577 11.4025 26.4927 12.8004Z" fill="#0078D4"/>
</svg>
