<svg data-slug-id="globe12" viewBox="0 0 48 49" xmlns="http://www.w3.org/2000/svg">
<path d="M21.6501 37.9064C30.6501 37.9064 37.9501 30.6064 37.9501 21.6064C37.9501 12.6064 30.6501 5.3064 21.6501 5.3064C12.6501 5.3064 5.3501 12.6064 5.3501 21.6064C5.3501 30.6064 12.6501 37.9064 21.6501 37.9064Z" fill="#0078D4"/>
<path d="M38.0001 3.90649L34.4001 7.50649L34.3501 7.55649C34.6001 7.75649 34.8001 7.95649 35.0001 8.20649C36.7501 9.95649 38.1001 11.9565 39.0501 14.2065C40.0501 16.5565 40.5501 19.0065 40.5501 21.5565C40.5501 24.1065 40.0501 26.6065 39.0501 28.9065C38.1001 31.1565 36.7501 33.2065 35.0001 34.9065C33.2501 36.6565 31.2501 38.0065 29.0001 38.9565C26.6501 39.9565 24.2001 40.4565 21.6001 40.4565C19.0001 40.4565 16.5501 39.9565 14.2501 38.9565C12.0001 38.0065 9.9501 36.6565 8.2501 34.9065C8.0501 34.7065 7.8001 34.4565 7.6001 34.2565L5.8501 36.1065C9.4501 40.0565 14.5501 42.6565 20.2501 43.0065V45.6065H10.1001V48.1065H32.8001V45.6065H22.7501V43.0565C34.1001 42.5065 43.1501 33.1065 43.1501 21.6065C43.1501 16.2565 41.2001 11.3565 37.9501 7.60649L39.8501 5.70649L38.0001 3.90649Z" fill="#50E6FF"/>
<path d="M22.0521 12.0176C18.4304 11.7939 15.3122 14.5486 15.0884 18.1702C14.8647 21.7919 21.6186 30.7551 21.6186 30.7551C21.6186 30.7551 27.981 22.6029 28.2047 18.9812C28.4284 15.3596 25.6738 12.2413 22.0521 12.0176Z" fill="#50E6FF"/>
<path d="M25.6039 18.7979C25.4711 20.9792 23.5903 22.6432 21.4089 22.5104C19.2276 22.3776 17.5636 20.4968 17.6964 18.3154C17.8292 16.1341 19.71 14.47 21.8914 14.6029C24.0727 14.7357 25.7437 16.6165 25.6039 18.7979Z" fill="#0078D4"/>
</svg>
