<svg data-slug-id="grid18" viewBox="0 0 48 49" xmlns="http://www.w3.org/2000/svg">
<path d="M10.2202 11.355L0.253418 1.38818H10.2202V11.355Z" fill="#0078D4"/>
<path d="M22.6787 11.355L12.7119 1.38818H22.6787V11.355Z" fill="#50E6FF"/>
<path d="M35.1289 11.355L25.1621 1.38818H35.1289V11.355Z" fill="#50E6FF"/>
<path d="M47.5874 11.355L37.6289 1.38818H47.5874V11.355Z" fill="#50E6FF"/>
<path d="M10.2202 23.8052L0.253418 13.8384H10.2202V23.8052Z" fill="#0078D4"/>
<path d="M22.6787 23.8052L12.7119 13.8384H22.6787V23.8052Z" fill="#0078D4"/>
<path d="M35.1289 23.8052L25.1621 13.8384H35.1289V23.8052Z" fill="#50E6FF"/>
<path d="M47.5874 23.8052L37.6289 13.8384H47.5874V23.8052Z" fill="#50E6FF"/>
<path d="M10.2202 36.272L0.253418 26.3052H10.2202V36.272Z" fill="#0078D4"/>
<path d="M22.6787 36.272L12.7119 26.3052H22.6787V36.272Z" fill="#0078D4"/>
<path d="M35.1289 36.272L25.1621 26.3052H35.1289V36.272Z" fill="#0078D4"/>
<path d="M47.5874 36.272L37.6289 26.3052H47.5874V36.272Z" fill="#50E6FF"/>
<path d="M10.2202 48.7471L0.253418 38.7803H10.2202V48.7471Z" fill="#0078D4"/>
<path d="M22.6787 48.7471L12.7119 38.7803H22.6787V48.7471Z" fill="#0078D4"/>
<path d="M35.1289 48.7471L25.1621 38.7803H35.1289V48.7471Z" fill="#0078D4"/>
<path d="M47.5874 48.7471L37.6289 38.7803H47.5874V48.7471Z" fill="#0078D4"/>
</svg>
