<svg data-slug-id="grid08" viewBox="0 0 49 49" xmlns="http://www.w3.org/2000/svg">
<path d="M3.52634 5.93865C2.12843 5.93865 1 4.81028 1 3.41244C1 2.01461 2.12843 0.88623 3.52634 0.88623C4.92424 0.88623 6.05268 2.01461 6.05268 3.41244C6.05268 4.80186 4.91582 5.93865 3.52634 5.93865Z" fill="#0078D4"/>
<path d="M13.2106 0.88623H8.15796V5.93865H13.2106V0.88623Z" fill="#0078D4"/>
<path d="M20.3683 0.88623H15.3157V5.93865H20.3683V0.88623Z" fill="#0078D4"/>
<path d="M32.1579 0.88623C30.76 0.88623 29.6316 2.01461 29.6316 3.41244C29.6316 4.81028 30.76 5.93865 32.1579 5.93865C33.5558 5.93865 34.6843 4.81028 34.6843 3.41244C34.6843 2.01461 33.5558 0.88623 32.1579 0.88623Z" fill="#50E6FF"/>
<path d="M39.5186 5.92936C37.9607 6.04725 36.6723 4.7673 36.7986 3.20947C36.8912 1.98004 37.8849 0.994822 39.1144 0.893774C40.6723 0.775884 41.9608 2.05583 41.8344 3.61366C41.7418 4.84309 40.7481 5.83673 39.5186 5.92936Z" fill="#50E6FF"/>
<path d="M6.05292 8.04224H1.00024V13.0947H6.05292V8.04224Z" fill="#0078D4"/>
<path d="M13.2106 8.04224H8.15796V13.0947H13.2106V8.04224Z" fill="#0078D4"/>
<path d="M20.3683 8.04224H15.3157V13.0947H20.3683V8.04224Z" fill="#0078D4"/>
<path d="M27.5261 8.04224H22.4734V13.0947H27.5261V8.04224Z" fill="#0078D4"/>
<path d="M34.6843 8.04224H29.6316V13.0947H34.6843V8.04224Z" fill="#0078D4"/>
<path d="M39.3164 13.0947C37.9185 13.0947 36.79 11.9663 36.79 10.5684C36.79 9.17061 37.9185 8.04224 39.3164 8.04224C40.7143 8.04224 41.8427 9.17061 41.8427 10.5684C41.8427 11.9579 40.7059 13.0947 39.3164 13.0947Z" fill="#50E6FF"/>
<path d="M6.05292 15.2021H1.00024V20.2546H6.05292V15.2021Z" fill="#0078D4"/>
<path d="M13.2106 15.2021H8.15796V20.2546H13.2106V15.2021Z" fill="#0078D4"/>
<path d="M20.3683 15.2021H15.3157V20.2546H20.3683V15.2021Z" fill="#0078D4"/>
<path d="M27.5261 15.2021H22.4734V20.2546H27.5261V15.2021Z" fill="#0078D4"/>
<path d="M32.1579 15.2021C30.76 15.2021 29.6316 16.3305 29.6316 17.7284C29.6316 19.1262 30.76 20.2546 32.1579 20.2546C33.5558 20.2546 34.6843 19.1262 34.6843 17.7284C34.6843 16.3305 33.5558 15.2021 32.1579 15.2021Z" fill="#50E6FF"/>
<path d="M41.8427 15.2021H36.79V20.2546H41.8427V15.2021Z" fill="#0078D4"/>
<path d="M46.4736 15.2021C45.0757 15.2021 43.9473 16.3305 43.9473 17.7284C43.9473 19.1262 45.0757 20.2546 46.4736 20.2546C47.8715 20.2546 48.9999 19.1262 48.9999 17.7284C48.9999 16.3305 47.8715 15.2021 46.4736 15.2021Z" fill="#50E6FF"/>
<path d="M6.05292 22.3582H1.00024V27.4106H6.05292V22.3582Z" fill="#0078D4"/>
<path d="M13.2106 22.3582H8.15796V27.4106H13.2106V22.3582Z" fill="#0078D4"/>
<path d="M20.3683 22.3582H15.3157V27.4106H20.3683V22.3582Z" fill="#0078D4"/>
<path d="M24.9997 27.4106C23.6018 27.4106 22.4734 26.2822 22.4734 24.8844C22.4734 23.4865 23.6018 22.3582 24.9997 22.3582C26.3976 22.3582 27.5261 23.4865 27.5261 24.8844C27.5261 26.2738 26.3892 27.4106 24.9997 27.4106Z" fill="#50E6FF"/>
<path d="M34.6843 22.3582H29.6316V27.4106H34.6843V22.3582Z" fill="#0078D4"/>
<path d="M41.8427 22.3582H36.79V27.4106H41.8427V22.3582Z" fill="#0078D4"/>
<path d="M6.05292 29.5178H1.00024V34.5702H6.05292V29.5178Z" fill="#0078D4"/>
<path d="M13.2106 29.5178H8.15796V34.5702H13.2106V29.5178Z" fill="#0078D4"/>
<path d="M17.842 34.5702C16.4441 34.5702 15.3157 33.4419 15.3157 32.044C15.3157 30.6462 16.4441 29.5178 17.842 29.5178C19.2399 29.5178 20.3683 30.6462 20.3683 32.044C20.3683 33.4335 19.2315 34.5702 17.842 34.5702Z" fill="#50E6FF"/>
<path d="M27.5261 29.5178H22.4734V34.5702H27.5261V29.5178Z" fill="#0078D4"/>
<path d="M34.6843 29.5178H29.6316V34.5702H34.6843V29.5178Z" fill="#0078D4"/>
<path d="M39.3164 34.5702C37.9185 34.5702 36.79 33.4419 36.79 32.044C36.79 30.6462 37.9185 29.5178 39.3164 29.5178C40.7143 29.5178 41.8427 30.6462 41.8427 32.044C41.8427 33.4335 40.7059 34.5702 39.3164 34.5702Z" fill="#0078D4"/>
<path d="M48.9999 29.5178H43.9473V34.5702H48.9999V29.5178Z" fill="#0078D4"/>
<path d="M6.05292 36.6738H1.00024V41.7263H6.05292V36.6738Z" fill="#0078D4"/>
<path d="M10.6843 36.6738C9.28639 36.6738 8.15796 37.8022 8.15796 39.2C8.15796 40.5979 9.28639 41.7263 10.6843 41.7263C12.0822 41.7263 13.2106 40.5979 13.2106 39.2C13.2106 37.8022 12.0822 36.6738 10.6843 36.6738Z" fill="#50E6FF"/>
<path d="M20.3683 36.6738H15.3157V41.7263H20.3683V36.6738Z" fill="#0078D4"/>
<path d="M24.9997 41.7263C23.6018 41.7263 22.4734 40.5979 22.4734 39.2C22.4734 37.8022 23.6018 36.6738 24.9997 36.6738C26.3976 36.6738 27.5261 37.8022 27.5261 39.2C27.5261 40.5895 26.3892 41.7263 24.9997 41.7263Z" fill="#0078D4"/>
<path d="M34.6843 36.6738H29.6316V41.7263H34.6843V36.6738Z" fill="#0078D4"/>
<path d="M41.8427 36.6738H36.79V41.7263H41.8427V36.6738Z" fill="#0078D4"/>
<path d="M48.9999 36.6738H43.9473V41.7263H48.9999V36.6738Z" fill="#0078D4"/>
<path d="M3.52658 43.834C2.12867 43.834 1.00024 44.9624 1.00024 46.3602C1.00024 47.758 2.12867 48.8864 3.52658 48.8864C4.92449 48.8864 6.05292 47.758 6.05292 46.3602C6.05292 44.9624 4.92449 43.834 3.52658 43.834Z" fill="#50E6FF"/>
<path d="M13.2106 43.834H8.15796V48.8864H13.2106V43.834Z" fill="#0078D4"/>
<path d="M20.3683 43.834H15.3157V48.8864H20.3683V43.834Z" fill="#0078D4"/>
<path d="M27.5261 43.834H22.4734V48.8864H27.5261V43.834Z" fill="#0078D4"/>
<path d="M34.6843 43.834H29.6316V48.8864H34.6843V43.834Z" fill="#0078D4"/>
<path d="M39.3164 48.8864C37.9185 48.8864 36.79 47.758 36.79 46.3602C36.79 44.9624 37.9185 43.834 39.3164 43.834C40.7143 43.834 41.8427 44.9624 41.8427 46.3602C41.8427 47.7496 40.7059 48.8864 39.3164 48.8864Z" fill="#0078D4"/>
<path d="M48.9999 43.834H43.9473V48.8864H48.9999V43.834Z" fill="#0078D4"/>
<path d="M48.9999 22.3582H43.9473V27.4106H48.9999V22.3582Z" fill="#50E6FF"/>
<path d="M48.9999 0.88623H43.9473V5.93865H48.9999V0.88623Z" fill="#50E6FF"/>
<path d="M48.9999 8.04224H43.9473V13.0947H48.9999V8.04224Z" fill="#50E6FF"/>
<path d="M27.5261 0.88623H22.4734V5.93865H27.5261V0.88623Z" fill="#50E6FF"/>
</svg>
