<svg data-slug-id="grid03" viewBox="0 0 48 49" xmlns="http://www.w3.org/2000/svg">
<path d="M7.201 0.88623H0.000244141V8.08678H7.201V0.88623Z" fill="#50E6FF"/>
<path d="M17.3985 0.88623H10.1978V8.08678H17.3985V0.88623Z" fill="#50E6FF"/>
<path d="M27.5963 0.88623H20.3955V8.08678H27.5963V0.88623Z" fill="#50E6FF"/>
<path d="M37.8023 0.88623H30.6016V8.08678H37.8023V0.88623Z" fill="#50E6FF"/>
<path d="M47.9996 0.88623H40.7988V8.08678H47.9996V0.88623Z" fill="#0078D4"/>
<path d="M7.20076 11.0852H0V18.2857H7.20076V11.0852Z" fill="#50E6FF"/>
<path d="M17.399 11.0852H10.1982V18.2857H17.399V11.0852Z" fill="#50E6FF"/>
<path d="M27.5963 11.0852H20.3955V18.2857H27.5963V11.0852Z" fill="#50E6FF"/>
<path d="M47.9996 11.0852H40.7988V18.2857H47.9996V11.0852Z" fill="#0078D4"/>
<path d="M7.20076 21.2878H0V28.4884H7.20076V21.2878Z" fill="#50E6FF"/>
<path d="M17.399 21.2878H10.1982V28.4884H17.399V21.2878Z" fill="#50E6FF"/>
<path d="M37.8023 21.2878H30.6016V28.4884H37.8023V21.2878Z" fill="#0078D4"/>
<path d="M47.9996 21.2878H40.7988V28.4884H47.9996V21.2878Z" fill="#0078D4"/>
<path d="M7.20076 31.4868H0V38.6874H7.20076V31.4868Z" fill="#50E6FF"/>
<path d="M17.3985 31.4868H10.1978V38.6874H17.3985V31.4868Z" fill="#0078D4"/>
<path d="M27.5963 31.4868H20.3955V38.6874H27.5963V31.4868Z" fill="#0078D4"/>
<path d="M47.9996 31.4868H40.7988V38.6874H47.9996V31.4868Z" fill="#0078D4"/>
<path d="M7.20076 41.6858H0V48.8863H7.20076V41.6858Z" fill="#0078D4"/>
<path d="M17.399 41.6858H10.1982V48.8863H17.399V41.6858Z" fill="#0078D4"/>
<path d="M27.5963 41.6858H20.3955V48.8863H27.5963V41.6858Z" fill="#0078D4"/>
<path d="M37.8023 41.6858H30.6016V48.8863H37.8023V41.6858Z" fill="#0078D4"/>
<path d="M47.9996 41.6858H40.7988V48.8863H47.9996V41.6858Z" fill="#0078D4"/>
<path d="M37.8023 11.0852H30.6016V18.2857H37.8023V11.0852Z" fill="#0078D4"/>
<path d="M27.5963 21.2878H20.3955V28.4884H27.5963V21.2878Z" fill="#0078D4"/>
<path d="M37.8023 31.4868H30.6016V38.6874H37.8023V31.4868Z" fill="#0078D4"/>
</svg>
