<svg data-slug-id="grid27" viewBox="0 0 48 49" xmlns="http://www.w3.org/2000/svg">
<path d="M5.293 1.29248H0.260742V6.31632H5.293V1.29248Z" fill="#0078D4"/>
<path d="M12.833 1.29248H7.80078V6.31632H12.833V1.29248Z" fill="#0078D4"/>
<path d="M32.752 6.31632H27.7197V1.29248H30.2948L32.752 4.11155V6.31632Z" fill="#0078D4"/>
<path d="M17.7309 1.29248H15.2568V6.31632H17.7309V1.29248Z" fill="#0078D4"/>
<path d="M21.4418 1.29248H18.9678V6.31632H21.4418V1.29248Z" fill="#0078D4"/>
<path d="M5.293 8.75342H0.260742V16.3018H5.293V8.75342Z" fill="#0078D4"/>
<path d="M15.1723 8.6792H7.7417V16.1098H15.1723V8.6792Z" fill="#0078D4"/>
<path d="M25.2284 8.6792H17.7979V16.1098H25.2284V8.6792Z" fill="#0078D4"/>
<path d="M32.735 11.3889L30.2693 13.7872L27.77 13.8209V8.6792H32.735V11.3889Z" fill="#0078D4"/>
<path d="M35.1668 21.2029H27.9971V18.7457L32.7516 13.7808H35.1668V21.2029Z" fill="#0078D4"/>
<path d="M0.294434 36.305V18.7847H6.61421V31.2812L3.13034 36.2629L0.294434 36.305Z" fill="#0078D4"/>
<path d="M40.3338 10.2192L37.7588 12.6091V18.8363H40.3338V10.2192Z" fill="#0078D4"/>
<path d="M34.1152 8.72274H35.2849L37.7422 6.26552V1.35107H34.1152V8.72274Z" fill="#0078D4"/>
<path d="M38.6846 5.32874L39.8711 4.15903V1.33154H38.6846V5.32874Z" fill="#0078D4"/>
<path d="M21.6103 18.7925H16.6538V26.2231H21.6103V18.7925Z" fill="#0078D4"/>
<path d="M10.1909 31.0467L15.139 25.9135V18.8784H10.1909V31.0467Z" fill="#0078D4"/>
<path d="M22.7126 28.7261H15.1895V36.2492H22.7126V28.7261Z" fill="#0078D4"/>
<path d="M47.6297 38.7886H35.209V48.71H47.6297V38.7886Z" fill="#0078D4"/>
<path d="M30.1849 38.7534H25.2031V48.658H30.1849V38.7534Z" fill="#0078D4"/>
<path d="M30.2273 31.2417H25.1445V36.3244H30.2273V31.2417Z" fill="#0078D4"/>
<path d="M37.7419 33.7312H35.1416V31.2655L32.7349 31.2992V26.2417H35.1079L37.7419 28.5054V33.7312Z" fill="#0078D4"/>
<path d="M22.6872 37.7378H0.21875V40.2034H22.6872V37.7378Z" fill="#0078D4"/>
<path d="M12.7572 42.4492H0.302734V48.7353H12.7572V42.4492Z" fill="#0078D4"/>
<path d="M22.6875 42.4492H15.1812V48.7353H22.6875V42.4492Z" fill="#0078D4"/>
<path d="M13.8512 30.1479L7.80908 36.2742H13.8512V30.1479Z" fill="#0078D4"/>
<path d="M30.244 22.48H22.7124V26.2836H30.244V22.48Z" fill="#0078D4"/>
<path d="M47.6632 31.8361L37.6997 23.7575V21.3003H47.6632V31.8361Z" fill="#0078D4"/>
<path d="M47.5961 1.35791H42.6816V13.7871H47.5961V1.35791Z" fill="#0078D4"/>
<path d="M47.6298 16.3354H42.6396V18.8011H47.6298V16.3354Z" fill="#0078D4"/>
<path d="M40.2495 36.2977H47.6548V36.2388L40.2495 29.8433V36.2977Z" fill="#0078D4"/>
</svg>
