<svg data-slug-id="grid21" viewBox="0 0 49 49" xmlns="http://www.w3.org/2000/svg">
<path d="M16.1899 16.7088V21.6714H21.1526V16.7088H16.1899Z" fill="#0078D4"/>
<path d="M8.7583 16.7088L8.7583 21.6714H13.7209L13.7209 16.7088H8.7583Z" fill="#50E6FF"/>
<path d="M3.67773 19.2027L3.67773 21.6882H6.16325L6.16325 19.2027H3.67773Z" fill="#50E6FF"/>
<path d="M11.1934 11.6788V14.1643H13.6789V11.6788H11.1934Z" fill="#50E6FF"/>
<path d="M18.6245 4.18831V6.67383L21.11 6.67383V4.18831L18.6245 4.18831Z" fill="#50E6FF"/>
<path d="M8.75 24.1568L8.75 29.1194H13.7126L13.7126 24.1568H8.75Z" fill="#0078D4"/>
<path d="M1.25977 24.1568L1.25977 29.1194H6.22238L6.22238 24.1568H1.25977Z" fill="#50E6FF"/>
<path d="M1.21777 31.6892L1.21777 36.6519H6.18039L6.18039 31.6892H1.21777Z" fill="#0078D4"/>
<path d="M38.6101 9.15942L31.1451 9.19313L31.1451 16.675H23.6296V24.1399L16.1646 24.1399L16.1646 31.6302L8.68275 31.6302L8.68275 39.112H1.21777L1.21777 46.6191L48.5606 46.6191L48.5774 1.66074L38.6101 1.66074L38.6101 9.15942Z" fill="#0078D4"/>
<path d="M23.6714 9.21V14.1726L28.634 14.1726V9.21L23.6714 9.21Z" fill="#0078D4"/>
<path d="M16.1899 9.21V14.1726L21.1526 14.1726V9.21L16.1899 9.21Z" fill="#50E6FF"/>
<path d="M31.1367 1.85452V6.81714L36.0993 6.81714V1.85452L31.1367 1.85452Z" fill="#0078D4"/>
<path d="M23.6465 1.85452V6.81714L28.6091 6.81714V1.85452L23.6465 1.85452Z" fill="#50E6FF"/>
<path d="M31.1367 1.85452V6.81714L36.0993 6.81714V1.85452L31.1367 1.85452Z" fill="#0078D4"/>
</svg>
