<svg data-slug-id="grid07" viewBox="0 0 48 49" xmlns="http://www.w3.org/2000/svg">
<path d="M24.1092 47.046L4.05176 35.2702L5.3349 33.0923L24.1177 44.1083L42.4699 33.5059L43.7361 35.7007L24.1092 47.046Z" fill="#50E6FF"/>
<path d="M24.1097 36.0191L4.05225 24.2518L5.33538 22.0654L24.1181 33.0899L42.4704 22.4875L43.7366 24.6823L24.1097 36.0191Z" fill="#50E6FF"/>
<path d="M24.1097 26.5311L4.05225 14.7637L5.33538 12.5774L24.1181 23.6019L42.4704 12.9995L43.7366 15.1942L24.1097 26.5311Z" fill="#50E6FF"/>
<path d="M24.1092 16.6485L4.05176 4.87271L5.3349 2.69482L24.1177 13.7109L42.4699 3.10845L43.7361 5.30322L24.1092 16.6485Z" fill="#50E6FF"/>
<path d="M7.20101 0.88623H0.000244141V8.08676H7.20101V0.88623Z" fill="#0078D4"/>
<path d="M27.5963 0.88623H20.3955V8.08676H27.5963V0.88623Z" fill="#50E6FF"/>
<path d="M47.9996 0.88623H40.7988V8.08676H47.9996V0.88623Z" fill="#50E6FF"/>
<path d="M7.20076 11.0852H0V18.2857H7.20076V11.0852Z" fill="#0078D4"/>
<path d="M27.5963 11.0852H20.3955V18.2857H27.5963V11.0852Z" fill="#50E6FF"/>
<path d="M47.9996 11.0852H40.7988V18.2857H47.9996V11.0852Z" fill="#0078D4"/>
<path d="M7.20076 21.2878H0V28.4884H7.20076V21.2878Z" fill="#50E6FF"/>
<path d="M47.9996 21.2878H40.7988V28.4884H47.9996V21.2878Z" fill="#0078D4"/>
<path d="M7.20076 31.4868H0V38.6873H7.20076V31.4868Z" fill="#50E6FF"/>
<path d="M27.5963 31.4868H20.3955V38.6873H27.5963V31.4868Z" fill="#0078D4"/>
<path d="M47.9996 31.4868H40.7988V38.6873H47.9996V31.4868Z" fill="#0078D4"/>
<path d="M7.20076 41.6855H0V48.8861H7.20076V41.6855Z" fill="#50E6FF"/>
<path d="M27.5963 41.6855H20.3955V48.8861H27.5963V41.6855Z" fill="#0078D4"/>
<path d="M47.9996 41.6855H40.7988V48.8861H47.9996V41.6855Z" fill="#0078D4"/>
<path d="M27.5963 21.2878H20.3955V28.4884H27.5963V21.2878Z" fill="#50E6FF"/>
</svg>
