<svg data-slug-id="grid10" viewBox="0 0 48 49" xmlns="http://www.w3.org/2000/svg">
<path d="M35.1201 23.6414V13.7568L25.2355 13.7568V23.6414H35.1201Z" fill="#0078D4"/>
<path d="M35.1201 35.9969V26.1123L25.2355 26.1123V35.9969H35.1201Z" fill="#0078D4"/>
<path d="M47.4428 18.6982H30.1777V31.054H38.4314V38.4674H40.9025V31.054H47.4428V18.6982Z" fill="#50E6FF"/>
<path d="M10.4087 23.6414L10.4087 13.7568L0.52412 13.7568L0.52412 23.6414H10.4087Z" fill="#0078D4"/>
<path d="M22.7646 23.6414L22.7646 13.7568L12.8801 13.7568L12.8801 23.6414H22.7646Z" fill="#0078D4"/>
<path d="M10.4087 35.9969L10.4087 26.1123L0.52412 26.1123L0.52412 35.9969H10.4087Z" fill="#0078D4"/>
<path d="M22.7646 35.9969L22.7646 26.1123L12.8801 26.1123L12.8801 35.9969H22.7646Z" fill="#0078D4"/>
<path d="M42.3116 20.2881L37.0315 25.5681L35.277 23.8136L33.5308 25.5599L37.0233 29.0771L44.0661 22.0344L42.3116 20.2881Z" fill="#0078D4"/>
<path d="M47.4756 38.468H0.523926V43.4103H47.4756V38.468Z" fill="#0078D7"/>
</svg>
