<svg data-slug-id="grid16" viewBox="0 0 48 49" xmlns="http://www.w3.org/2000/svg">
<path d="M10.1123 0.995605H0.00878906V11.0991H10.1123V0.995605Z" fill="#0078D4"/>
<path d="M22.7417 0.995605H12.6382V11.0991H22.7417V0.995605Z" fill="#0078D4"/>
<path d="M35.371 0.995605H25.2676V11.0991H35.371V0.995605Z" fill="#0078D4"/>
<path d="M48 0.995605H37.8965V11.0991H48V0.995605Z" fill="#0078D4"/>
<path d="M10.1123 13.6248H0.00878906V23.7283H10.1123V13.6248Z" fill="#0078D4"/>
<path d="M22.7412 13.6245H12.6377V23.728H22.7412V13.6245Z" fill="#0078D4"/>
<path d="M35.3706 13.6245H25.2671V23.728H35.3706V13.6245Z" fill="#0078D4"/>
<path d="M48 13.6245H37.8965V23.728H48V13.6245Z" fill="#0078D4"/>
<path d="M10.1123 26.2534H0.00878906V36.3569H10.1123V26.2534Z" fill="#0078D4"/>
<path d="M17.6894 36.3569C14.9026 36.3569 12.6377 34.092 12.6377 31.3052C12.6377 28.5183 14.9026 26.2534 17.6894 26.2534C20.4763 26.2534 22.7412 28.5183 22.7412 31.3052C22.7412 34.092 20.4763 36.3569 17.6894 36.3569Z" fill="#50E6FF"/>
<path d="M35.3706 26.2534H25.2671V36.3569H35.3706V26.2534Z" fill="#0078D4"/>
<path d="M48 26.2534H37.8965V36.3569H48V26.2534Z" fill="#0078D4"/>
<path d="M10.1123 38.8826H0.00878906V48.9861H10.1123V38.8826Z" fill="#0078D4"/>
<path d="M22.7412 38.8823H12.6377V48.9858H22.7412V38.8823Z" fill="#0078D4"/>
<path d="M35.3706 38.8823H25.2671V48.9858H35.3706V38.8823Z" fill="#0078D4"/>
<path d="M48 38.8823H37.8965V48.9858H48V38.8823Z" fill="#0078D4"/>
</svg>
