<svg data-slug-id="grid13" viewBox="0 0 49 50" xmlns="http://www.w3.org/2000/svg">
<path d="M41.3386 0.893799L43.1463 2.70151L38.4224 7.42544L42.0378 11.0409L46.7617 6.31694L48.5694 8.12465V0.893799H41.3386Z" fill="#0078D4"/>
<path d="M43.1463 15.4667L38.4224 20.1906L42.0378 23.806L46.7617 19.0821L48.5694 20.8983V13.6589H41.3386L43.1463 15.4667Z" fill="#0078D4"/>
<path d="M41.3386 26.4238L43.1463 28.2315L38.4224 32.9555L42.0378 36.5709L46.7617 31.8555L48.5694 33.6632V26.4238H41.3386Z" fill="#50E6FF"/>
<path d="M41.3386 39.2681L43.1463 41.0758L38.4224 45.7997L42.0378 49.4151L46.7617 44.6997L48.5694 46.5074V39.2681H41.3386Z" fill="#50E6FF"/>
<path d="M10.2145 0.893799H2.97507L4.79131 2.70151L0.0673828 7.42544L3.68281 11.0409L8.40674 6.31694L10.2145 8.12465V0.893799Z" fill="#0078D4"/>
<path d="M10.2154 13.6589H2.97605L4.79229 15.4667L0.0683594 20.1906L3.68379 23.806L8.40772 19.0821L10.2154 20.8983V13.6589Z" fill="#0078D4"/>
<path d="M10.2154 26.4238H2.97605L4.79229 28.2315L0.0683594 32.9555L3.68379 36.5709L8.40772 31.8555L10.2154 33.6632V26.4238Z" fill="#50E6FF"/>
<path d="M10.2154 39.2681H2.97605L4.79229 41.0758L0.0683594 45.7997L3.68379 49.4151L8.40772 44.6997L10.2154 46.5074V39.2681Z" fill="#50E6FF"/>
<path d="M25.4658 26.4647V36.697H35.6982V26.4647H25.4658Z" fill="#50E6FF"/>
<path d="M35.6938 18.7751C35.6938 21.5975 33.4 23.8913 30.5776 23.8913C27.7552 23.8913 25.4614 21.5975 25.4614 18.7751C25.4614 15.9527 27.7552 13.6589 30.5776 13.6589C33.4085 13.6589 35.6938 15.9527 35.6938 18.7751Z" fill="#0078D4"/>
<path d="M22.9032 31.5756C22.9032 34.3981 20.6095 36.6918 17.7871 36.6918C14.9646 36.6918 12.6709 34.3981 12.6709 31.5756C12.6709 28.7532 14.9646 26.4595 17.7871 26.4595C20.618 26.4595 22.9032 28.7532 22.9032 31.5756Z" fill="#50E6FF"/>
<path d="M35.6938 0.87793H25.4614V11.1103H35.6938V0.87793Z" fill="#0078D4"/>
<path d="M22.9032 5.9941C22.9032 8.81652 20.6095 11.1103 17.7871 11.1103C14.9646 11.1103 12.6709 8.81652 12.6709 5.9941C12.6709 3.17168 14.9646 0.87793 17.7871 0.87793C20.618 0.87793 22.9032 3.17168 22.9032 5.9941Z" fill="#0078D4"/>
<path d="M22.9032 13.6589H12.6709V23.8913H22.9032V13.6589Z" fill="#0078D4"/>
<path d="M35.6938 44.3645C35.6938 47.1869 33.4 49.4806 30.5776 49.4806C27.7552 49.4806 25.4614 47.1869 25.4614 44.3645C25.4614 41.542 27.7552 39.2483 30.5776 39.2483C33.4085 39.2483 35.6938 41.542 35.6938 44.3645Z" fill="#50E6FF"/>
<path d="M12.6753 39.2533L12.6753 49.4856L22.9076 49.4856L22.9076 39.2533L12.6753 39.2533Z" fill="#50E6FF"/>
</svg>
