<svg data-slug-id="grid02" viewBox="0 0 48 49" xmlns="http://www.w3.org/2000/svg">
<path d="M5.05288 0.88623H0.000244141V13.0963H5.05288V0.88623Z" fill="#0078D4"/>
<path d="M12.2108 0.88623H7.1582V27.4116H12.2108V0.88623Z" fill="#0078D4"/>
<path d="M26.5267 0.88623H14.3162V13.0963H26.5267V0.88623Z" fill="#0078D4"/>
<path d="M33.6835 15.2019H28.6309V41.7273H33.6835V15.2019Z" fill="#0078D4"/>
<path d="M33.6835 0.88623H28.6309V13.0963H33.6835V0.88623Z" fill="#0078D4"/>
<path d="M47.9994 0.88623H35.7888V5.93869H47.9994V0.88623Z" fill="#0078D4"/>
<path d="M40.8415 8.04614H35.7888V27.4139H40.8415V8.04614Z" fill="#0078D4"/>
<path d="M47.9997 8.04614H42.947V27.4139H47.9997V8.04614Z" fill="#0078D4"/>
<path d="M26.5267 15.2019H14.3162V20.2544H26.5267V15.2019Z" fill="#0078D4"/>
<path d="M19.3688 22.3582H14.3162V41.7259H19.3688V22.3582Z" fill="#0078D4"/>
<path d="M26.5272 22.3582H21.4746V34.5683H26.5272V22.3582Z" fill="#0078D4"/>
<path d="M26.5272 36.6738H21.4746V48.8839H26.5272V36.6738Z" fill="#0078D4"/>
<path d="M12.2105 29.5178H0V48.8856H12.2105V29.5178Z" fill="#50E6FF"/>
<path d="M5.05264 15.2019H0V27.412H5.05264V15.2019Z" fill="#0078D4"/>
<path d="M47.9994 29.5178H35.7888V41.7279H47.9994V29.5178Z" fill="#0078D4"/>
<path d="M47.9993 43.8337H28.6309V48.8862H47.9993V43.8337Z" fill="#0078D4"/>
<path d="M19.3688 43.8337H14.3162V48.8862H19.3688V43.8337Z" fill="#0078D4"/>
</svg>
