<svg data-slug-id="grid19" viewBox="0 0 49 49" xmlns="http://www.w3.org/2000/svg">
<path d="M7.61679 0.0878906H0.0546875V7.65H7.61679V0.0878906Z" fill="#0078D4"/>
<path d="M48.0545 0.0878906H12.686V7.63315H48.0545V0.0878906Z" fill="#0078D4"/>
<path d="M7.61679 12.7026H0.0546875V20.2647H7.61679V12.7026Z" fill="#0078D4"/>
<path d="M48.0545 12.7109H12.686V20.2562H48.0545V12.7109Z" fill="#0078D4"/>
<path d="M7.61679 25.3342H0.0546875V32.8963H7.61679V25.3342Z" fill="#0078D4"/>
<path d="M48.0545 25.3511H12.686V32.8963H48.0545V25.3511Z" fill="#0078D4"/>
<path d="M7.61679 37.9319H0.0546875V45.494H7.61679V37.9319Z" fill="#0078D4"/>
<path d="M48.0545 37.9404H12.686V45.4857H48.0545V37.9404Z" fill="#0078D4"/>
<path d="M17.705 0.0878906H12.686V7.63315H17.705V0.0878906Z" fill="#50E6FF"/>
<path d="M17.705 12.7109H12.686V20.2562H17.705V12.7109Z" fill="#50E6FF"/>
<path d="M17.705 25.3511H12.686V32.8963H17.705V25.3511Z" fill="#50E6FF"/>
<path d="M17.705 37.9404H12.686V45.4857H17.705V37.9404Z" fill="#50E6FF"/>
<path d="M5.11574 0.0878906H0.0546875V7.63315H5.11574V0.0878906Z" fill="#50E6FF"/>
<path d="M5.11574 12.7109H0.0546875V20.2562H5.11574V12.7109Z" fill="#50E6FF"/>
<path d="M5.11574 25.3511H0.0546875V32.8963H5.11574V25.3511Z" fill="#50E6FF"/>
<path d="M5.11574 37.9404H0.0546875V45.4857H5.11574V37.9404Z" fill="#50E6FF"/>
</svg>
