<svg data-slug-id="grid29" viewBox="0 0 49 49" xmlns="http://www.w3.org/2000/svg">
<path d="M48.0419 0.987793H25.3188V48.9878H48.0419V0.987793Z" fill="#0078D4"/>
<path d="M22.7231 0.987793H0V48.9878H22.7231V0.987793Z" fill="#50E6FF"/>
<path d="M8 2.98779H2V8.98779H8V2.98779Z" fill="#0078D4"/>
<path d="M21 2.98779H15V8.98779H21V2.98779Z" fill="#0078D4"/>
<path d="M8 15.9878H2V21.9878H8V15.9878Z" fill="#0078D4"/>
<path d="M21 15.9878H15V21.9878H21V15.9878Z" fill="#0078D4"/>
<path d="M8 27.9878H2V33.9878H8V27.9878Z" fill="#0078D4"/>
<path d="M21 27.9878H15V33.9878H21V27.9878Z" fill="#0078D4"/>
<path d="M8 40.9878H2V46.9878H8V40.9878Z" fill="#0078D4"/>
<path d="M21 40.9878H15V46.9878H21V40.9878Z" fill="#0078D4"/>
<path d="M30.41 9.86319C28.3113 9.86319 26.6172 8.16064 26.6172 6.07039C26.6172 3.97171 28.3197 2.27759 30.41 2.27759C32.5087 2.27759 34.2028 3.98013 34.2028 6.07039C34.2028 8.16064 32.5087 9.86319 30.41 9.86319Z" fill="#50E6FF"/>
<path d="M43.078 9.86319C40.9793 9.86319 39.2852 8.16064 39.2852 6.07039C39.2852 3.97171 40.9877 2.27759 43.078 2.27759C45.1766 2.27759 46.8708 3.98013 46.8708 6.07039C46.8708 8.16064 45.1766 9.86319 43.078 9.86319Z" fill="#50E6FF"/>
<path d="M30.41 22.4213C28.3113 22.4213 26.6172 20.7187 26.6172 18.6285C26.6172 16.5298 28.3197 14.8357 30.41 14.8357C32.5087 14.8357 34.2028 16.5382 34.2028 18.6285C34.2028 20.7272 32.5087 22.4213 30.41 22.4213Z" fill="#50E6FF"/>
<path d="M43.078 22.4213C40.9793 22.4213 39.2852 20.7187 39.2852 18.6285C39.2852 16.5298 40.9877 14.8357 43.078 14.8357C45.1766 14.8357 46.8708 16.5382 46.8708 18.6285C46.8708 20.7272 45.1766 22.4213 43.078 22.4213Z" fill="#50E6FF"/>
<path d="M30.41 35.0968C28.3113 35.0968 26.6172 33.3943 26.6172 31.304C26.6172 29.2053 28.3197 27.5112 30.41 27.5112C32.5087 27.5112 34.2028 29.2138 34.2028 31.304C34.2028 33.3943 32.5087 35.0968 30.41 35.0968Z" fill="#50E6FF"/>
<path d="M43.078 35.0968C40.9793 35.0968 39.2852 33.3943 39.2852 31.304C39.2852 29.2053 40.9877 27.5112 43.078 27.5112C45.1766 27.5112 46.8708 29.2138 46.8708 31.304C46.8708 33.3943 45.1766 35.0968 43.078 35.0968Z" fill="#50E6FF"/>
<path d="M30.41 47.715C28.3113 47.715 26.6172 46.0124 26.6172 43.9222C26.6172 41.8235 28.3197 40.1294 30.41 40.1294C32.5087 40.1294 34.2028 41.8319 34.2028 43.9222C34.2028 46.0124 32.5087 47.715 30.41 47.715Z" fill="#50E6FF"/>
<path d="M43.078 47.715C40.9793 47.715 39.2852 46.0124 39.2852 43.9222C39.2852 41.8235 40.9877 40.1294 43.078 40.1294C45.1766 40.1294 46.8708 41.8319 46.8708 43.9222C46.8708 46.0124 45.1766 47.715 43.078 47.715Z" fill="#50E6FF"/>
</svg>
