<svg data-slug-id="grid11" viewBox="0 0 49 50" xmlns="http://www.w3.org/2000/svg">
<path d="M5.15753 11.0917C7.97791 11.0917 10.2643 8.8053 10.2643 5.98492C10.2643 3.16454 7.97791 0.878174 5.15753 0.878174C2.33715 0.878174 0.0507812 3.16454 0.0507812 5.98492C0.0507812 8.8053 2.33715 11.0917 5.15753 11.0917Z" fill="#0078D4"/>
<path d="M17.9251 11.0914C20.7455 11.0914 23.0319 8.80506 23.0319 5.98468C23.0319 3.1643 20.7455 0.87793 17.9251 0.87793C15.1047 0.87793 12.8184 3.1643 12.8184 5.98468C12.8184 8.80506 15.1047 11.0914 17.9251 11.0914Z" fill="#0078D4"/>
<path d="M30.6917 11.0914C33.5121 11.0914 35.7985 8.80506 35.7985 5.98468C35.7985 3.1643 33.5121 0.87793 30.6917 0.87793C27.8713 0.87793 25.585 3.1643 25.585 5.98468C25.585 8.80506 27.8713 11.0914 30.6917 11.0914Z" fill="#0078D4"/>
<path d="M43.4588 11.0914C46.2792 11.0914 48.5655 8.80506 48.5655 5.98468C48.5655 3.1643 46.2792 0.87793 43.4588 0.87793C40.6384 0.87793 38.3521 3.1643 38.3521 5.98468C38.3521 8.80506 40.6384 11.0914 43.4588 11.0914Z" fill="#0078D4"/>
<path d="M5.15802 23.8566C7.9784 23.8566 10.2648 21.5702 10.2648 18.7498C10.2648 15.9294 7.9784 13.6431 5.15802 13.6431C2.33764 13.6431 0.0512695 15.9294 0.0512695 18.7498C0.0512695 21.5702 2.33764 23.8566 5.15802 23.8566Z" fill="#0078D4"/>
<path d="M5.15802 36.6256C7.9784 36.6256 10.2648 34.3392 10.2648 31.5189C10.2648 28.6985 7.9784 26.4121 5.15802 26.4121C2.33764 26.4121 0.0512695 28.6985 0.0512695 31.5189C0.0512695 34.3392 2.33764 36.6256 5.15802 36.6256Z" fill="#0078D4"/>
<path d="M5.15802 49.3907C7.9784 49.3907 10.2648 47.1044 10.2648 44.284C10.2648 41.4636 7.9784 39.1772 5.15802 39.1772C2.33764 39.1772 0.0512695 41.4636 0.0512695 44.284C0.0512695 47.1044 2.33764 49.3907 5.15802 49.3907Z" fill="#0078D4"/>
<path d="M17.9251 49.3907C20.7455 49.3907 23.0319 47.1044 23.0319 44.284C23.0319 41.4636 20.7455 39.1772 17.9251 39.1772C15.1047 39.1772 12.8184 41.4636 12.8184 44.284C12.8184 47.1044 15.1047 49.3907 17.9251 49.3907Z" fill="#0078D4"/>
<path d="M30.6917 49.3907C33.5121 49.3907 35.7985 47.1044 35.7985 44.284C35.7985 41.4636 33.5121 39.1772 30.6917 39.1772C27.8713 39.1772 25.585 41.4636 25.585 44.284C25.585 47.1044 27.8713 49.3907 30.6917 49.3907Z" fill="#0078D4"/>
<path d="M43.4588 49.3907C46.2792 49.3907 48.5655 47.1044 48.5655 44.284C48.5655 41.4636 46.2792 39.1772 43.4588 39.1772C40.6384 39.1772 38.3521 41.4636 38.3521 44.284C38.3521 47.1044 40.6384 49.3907 43.4588 49.3907Z" fill="#0078D4"/>
<path d="M43.4588 36.6256C46.2792 36.6256 48.5655 34.3392 48.5655 31.5189C48.5655 28.6985 46.2792 26.4121 43.4588 26.4121C40.6384 26.4121 38.3521 28.6985 38.3521 31.5189C38.3521 34.3392 40.6384 36.6256 43.4588 36.6256Z" fill="#0078D4"/>
<path d="M43.4588 23.8566C46.2792 23.8566 48.5655 21.5702 48.5655 18.7498C48.5655 15.9294 46.2792 13.6431 43.4588 13.6431C40.6384 13.6431 38.3521 15.9294 38.3521 18.7498C38.3521 21.5702 40.6384 23.8566 43.4588 23.8566Z" fill="#0078D4"/>
<path d="M24.3085 36.6234C30.6544 36.6234 35.7987 31.4791 35.7987 25.1333C35.7987 18.7874 30.6544 13.6431 24.3085 13.6431C17.9627 13.6431 12.8184 18.7874 12.8184 25.1333C12.8184 31.4791 17.9627 36.6234 24.3085 36.6234Z" fill="#50E6FF"/>
</svg>
