<svg data-slug-id="grid04" viewBox="0 0 48 49" xmlns="http://www.w3.org/2000/svg">
<path d="M3.75 3.13623C3.75 3.96207 3.07584 4.63623 2.25 4.63623C1.42416 4.63623 0.75 3.96207 0.75 3.13623C0.75 2.31039 1.42416 1.63623 2.25 1.63623C3.07584 1.63623 3.75 2.31039 3.75 3.13623Z" fill="#0078D4"/>
<path d="M12.4468 3.13623C12.4468 3.96207 11.7726 4.63623 10.9468 4.63623C10.1209 4.63623 9.44678 3.96207 9.44678 3.13623C9.44678 2.31039 10.1209 1.63623 10.9468 1.63623C11.7726 1.63623 12.4468 2.31039 12.4468 3.13623Z" fill="#0078D4"/>
<path d="M21.1521 3.13623C21.1521 3.96207 20.4779 4.63623 19.6521 4.63623C18.8263 4.63623 18.1521 3.96207 18.1521 3.13623C18.1521 2.31039 18.8263 1.63623 19.6521 1.63623C20.4779 1.63623 21.1521 2.31039 21.1521 3.13623Z" fill="#0078D4"/>
<path d="M30 3.13623C30 3.96207 29.3258 4.63623 28.5 4.63623C27.6742 4.63623 27 3.96207 27 3.13623C27 2.31039 27.6742 1.63623 28.5 1.63623C29.3258 1.63623 30 2.31039 30 3.13623Z" fill="#50E6FF"/>
<path d="M39 3.13623C39 3.96207 38.3258 4.63623 37.5 4.63623C36.6742 4.63623 36 3.96207 36 3.13623C36 2.31039 36.6742 1.63623 37.5 1.63623C38.3258 1.63623 39 2.31039 39 3.13623Z" fill="#0078D4"/>
<path d="M47.25 3.13623C47.25 3.96207 46.5758 4.63623 45.75 4.63623C44.9242 4.63623 44.25 3.96207 44.25 3.13623C44.25 2.31039 44.9242 1.63623 45.75 1.63623C46.5758 1.63623 47.25 2.31039 47.25 3.13623Z" fill="#0078D4"/>
<path d="M3.75 11.8315C3.75 12.6574 3.07584 13.3315 2.25 13.3315C1.42416 13.3315 0.75 12.6574 0.75 11.8315C0.75 11.0057 1.42416 10.3315 2.25 10.3315C3.07584 10.3315 3.75 11.0057 3.75 11.8315Z" fill="#0078D4"/>
<path d="M12.4473 11.8315C12.4473 12.6574 11.7731 13.3315 10.9473 13.3315C10.1214 13.3315 9.44727 12.6574 9.44727 11.8315C9.44727 11.0057 10.1214 10.3315 10.9473 10.3315C11.7731 10.3315 12.4473 11.0057 12.4473 11.8315Z" fill="#0078D4"/>
<path d="M21.9023 11.8315C21.9023 13.0703 20.8911 14.0815 19.6523 14.0815C18.4136 14.0815 17.4023 13.0703 17.4023 11.8315C17.4023 10.5928 18.4136 9.58154 19.6523 9.58154C20.8911 9.58154 21.9023 10.5928 21.9023 11.8315Z" fill="#0078D4"/>
<path d="M30.7502 11.8315C30.7502 13.0703 29.739 14.0815 28.5002 14.0815C27.2615 14.0815 26.2502 13.0703 26.2502 11.8315C26.2502 10.5928 27.2615 9.58154 28.5002 9.58154C29.7474 9.58154 30.7502 10.5928 30.7502 11.8315Z" fill="#50E6FF"/>
<path d="M39.75 11.8315C39.75 13.0703 38.7388 14.0815 37.5 14.0815C36.2612 14.0815 35.25 13.0703 35.25 11.8315C35.25 10.5928 36.2612 9.58154 37.5 9.58154C38.7472 9.58154 39.75 10.5928 39.75 11.8315Z" fill="#0078D4"/>
<path d="M48 11.8315C48 13.0703 46.9888 14.0815 45.75 14.0815C44.5112 14.0815 43.5 13.0703 43.5 11.8315C43.5 10.5928 44.5112 9.58154 45.75 9.58154C46.9972 9.58154 48 10.5928 48 11.8315Z" fill="#0078D4"/>
<path d="M3.75 20.5386C3.75 21.3644 3.07584 22.0386 2.25 22.0386C1.42416 22.0386 0.75 21.3644 0.75 20.5386C0.75 19.7127 1.42416 19.0386 2.25 19.0386C3.07584 19.0386 3.75 19.7043 3.75 20.5386Z" fill="#0078D4"/>
<path d="M13.1968 20.5386C13.1968 21.7773 12.1855 22.7886 10.9468 22.7886C9.70801 22.7886 8.69678 21.7773 8.69678 20.5386C8.69678 19.2998 9.70801 18.2886 10.9468 18.2886C12.1855 18.2886 13.1968 19.2914 13.1968 20.5386Z" fill="#0078D4"/>
<path d="M21.9021 20.5386C21.9021 21.7773 20.8909 22.7886 19.6521 22.7886C18.4133 22.7886 17.4021 21.7773 17.4021 20.5386C17.4021 19.2998 18.4133 18.2886 19.6521 18.2886C20.8909 18.2886 21.9021 19.2914 21.9021 20.5386Z" fill="#50E6FF"/>
<path d="M31.5002 20.5386C31.5002 22.1987 30.1604 23.5386 28.5002 23.5386C26.8401 23.5386 25.5002 22.1987 25.5002 20.5386C25.5002 18.8785 26.8401 17.5386 28.5002 17.5386C30.1604 17.5386 31.5002 18.8785 31.5002 20.5386Z" fill="#50E6FF"/>
<path d="M39.75 20.5386C39.75 21.7773 38.7388 22.7886 37.5 22.7886C36.2612 22.7886 35.25 21.7773 35.25 20.5386C35.25 19.2998 36.2612 18.2886 37.5 18.2886C38.7472 18.2886 39.75 19.2914 39.75 20.5386Z" fill="#50E6FF"/>
<path d="M48 20.5386C48 21.7773 46.9888 22.7886 45.75 22.7886C44.5112 22.7886 43.5 21.7773 43.5 20.5386C43.5 19.2998 44.5112 18.2886 45.75 18.2886C46.9972 18.2886 48 19.2914 48 20.5386Z" fill="#0078D4"/>
<path d="M3.75 29.3862C3.75 30.2121 3.07584 30.8862 2.25 30.8862C1.42416 30.8862 0.75 30.2121 0.75 29.3862C0.75 28.5604 1.42416 27.8862 2.25 27.8862C3.07584 27.8862 3.75 28.5604 3.75 29.3862Z" fill="#0078D4"/>
<path d="M13.1968 29.3862C13.1968 30.625 12.1855 31.6362 10.9468 31.6362C9.70801 31.6362 8.69678 30.625 8.69678 29.3862C8.69678 28.1475 9.70801 27.1362 10.9468 27.1362C12.1855 27.1362 13.1968 28.1475 13.1968 29.3862Z" fill="#50E6FF"/>
<path d="M22.6519 29.3862C22.6519 31.0463 21.312 32.3862 19.6519 32.3862C17.9917 32.3862 16.6519 31.0463 16.6519 29.3862C16.6519 27.7261 17.9917 26.3862 19.6519 26.3862C21.312 26.3862 22.6519 27.7261 22.6519 29.3862Z" fill="#50E6FF"/>
<path d="M33 29.3862C33 31.8722 30.986 33.8862 28.5 33.8862C26.014 33.8862 24 31.8722 24 29.3862C24 26.9003 26.014 24.8862 28.5 24.8862C30.986 24.8862 33 26.9003 33 29.3862Z" fill="#50E6FF"/>
<path d="M40.5 29.3862C40.5 31.0463 39.1601 32.3862 37.5 32.3862C35.8399 32.3862 34.5 31.0463 34.5 29.3862C34.5 27.7261 35.8399 26.3862 37.5 26.3862C39.1601 26.3862 40.5 27.7261 40.5 29.3862Z" fill="#50E6FF"/>
<path d="M47.25 29.3862C47.25 30.2121 46.5758 30.8862 45.75 30.8862C44.9242 30.8862 44.25 30.2121 44.25 29.3862C44.25 28.5604 44.9242 27.8862 45.75 27.8862C46.5758 27.8862 47.25 28.5604 47.25 29.3862Z" fill="#50E6FF"/>
<path d="M3.75 37.9409C3.75 38.7668 3.07584 39.4409 2.25 39.4409C1.42416 39.4409 0.75 38.7668 0.75 37.9409C0.75 37.1151 1.42416 36.4409 2.25 36.4409C3.07584 36.4409 3.75 37.1066 3.75 37.9409Z" fill="#0078D4"/>
<path d="M12.4473 37.9409C12.4473 38.7668 11.7731 39.4409 10.9473 39.4409C10.1214 39.4409 9.44727 38.7668 9.44727 37.9409C9.44727 37.1151 10.1214 36.4409 10.9473 36.4409C11.7731 36.4409 12.4473 37.1066 12.4473 37.9409Z" fill="#0078D4"/>
<path d="M21.9023 37.9409C21.9023 39.1797 20.8911 40.1909 19.6523 40.1909C18.4136 40.1909 17.4023 39.1797 17.4023 37.9409C17.4023 36.7022 18.4136 35.6909 19.6523 35.6909C20.8911 35.6909 21.9023 36.6937 21.9023 37.9409Z" fill="#50E6FF"/>
<path d="M31.5002 37.9409C31.5002 39.601 30.1604 40.9409 28.5002 40.9409C26.8401 40.9409 25.5002 39.601 25.5002 37.9409C25.5002 36.2808 26.8401 34.9409 28.5002 34.9409C30.1604 34.9409 31.5002 36.2808 31.5002 37.9409Z" fill="#50E6FF"/>
<path d="M39.75 38.2261C39.75 39.4648 38.7388 40.4761 37.5 40.4761C36.2612 40.4761 35.25 39.4648 35.25 38.2261C35.25 36.9873 36.2612 35.9761 37.5 35.9761C38.7472 35.9761 39.75 36.9873 39.75 38.2261Z" fill="#50E6FF"/>
<path d="M47.25 37.9409C47.25 38.7668 46.5758 39.4409 45.75 39.4409C44.9242 39.4409 44.25 38.7668 44.25 37.9409C44.25 37.1151 44.9242 36.4409 45.75 36.4409C46.5758 36.4409 47.25 37.1066 47.25 37.9409Z" fill="#50E6FF"/>
<path d="M3.75 46.6362C3.75 47.4621 3.07584 48.1362 2.25 48.1362C1.42416 48.1362 0.75 47.4621 0.75 46.6362C0.75 45.8104 1.42416 45.1362 2.25 45.1362C3.07584 45.1362 3.75 45.8104 3.75 46.6362Z" fill="#0078D4"/>
<path d="M12.4468 46.6362C12.4468 47.4621 11.7726 48.1362 10.9468 48.1362C10.1209 48.1362 9.44678 47.4621 9.44678 46.6362C9.44678 45.8104 10.1209 45.1362 10.9468 45.1362C11.7726 45.1362 12.4468 45.8104 12.4468 46.6362Z" fill="#0078D4"/>
<path d="M21.9021 46.6362C21.9021 47.875 20.8909 48.8862 19.6521 48.8862C18.4133 48.8862 17.4021 47.875 17.4021 46.6362C17.4021 45.3975 18.4133 44.3862 19.6521 44.3862C20.8909 44.3862 21.9021 45.3975 21.9021 46.6362Z" fill="#0078D4"/>
<path d="M30.7502 46.6362C30.7502 47.875 29.739 48.8862 28.5002 48.8862C27.2615 48.8862 26.2502 47.875 26.2502 46.6362C26.2502 45.3975 27.2615 44.3862 28.5002 44.3862C29.7474 44.3862 30.7502 45.3975 30.7502 46.6362Z" fill="#50E6FF"/>
<path d="M39.75 46.6362C39.75 47.875 38.7388 48.8862 37.5 48.8862C36.2612 48.8862 35.25 47.875 35.25 46.6362C35.25 45.3975 36.2612 44.3862 37.5 44.3862C38.7472 44.3862 39.75 45.3975 39.75 46.6362Z" fill="#0078D4"/>
<path d="M47.25 46.6362C47.25 47.4621 46.5758 48.1362 45.75 48.1362C44.9242 48.1362 44.25 47.4621 44.25 46.6362C44.25 45.8104 44.9242 45.1362 45.75 45.1362C46.5758 45.1362 47.25 45.8104 47.25 46.6362Z" fill="#50E6FF"/>
</svg>
