<svg data-slug-id="grid05" viewBox="0 0 48 49" xmlns="http://www.w3.org/2000/svg">
<path d="M2.52658 5.9387C1.12867 5.9387 0.000244141 4.81032 0.000244141 3.41247C0.000244141 2.01462 1.12867 0.88623 2.52658 0.88623C3.92448 0.88623 5.05291 2.01462 5.05291 3.41247C5.05291 4.8019 3.91606 5.9387 2.52658 5.9387Z" fill="#0078D4"/>
<path d="M12.2111 0.88623H7.15845V5.9387H12.2111V0.88623Z" fill="#0078D4"/>
<path d="M19.3532 0.88623H14.3005V5.9387H19.3532V0.88623Z" fill="#0078D4"/>
<path d="M26.5273 0.88623H21.4746V5.9387H26.5273V0.88623Z" fill="#0078D4"/>
<path d="M33.6835 0.88623H28.6309V5.9387H33.6835V0.88623Z" fill="#0078D4"/>
<path d="M38.3154 5.9387C36.9175 5.9387 35.7891 4.81032 35.7891 3.41247C35.7891 2.01462 36.9175 0.88623 38.3154 0.88623C39.7133 0.88623 40.8417 2.01462 40.8417 3.41247C40.8417 4.8019 39.7049 5.9387 38.3154 5.9387Z" fill="#0078D4"/>
<path d="M45.4738 5.9387C44.0759 5.9387 42.9475 4.81032 42.9475 3.41247C42.9475 2.01462 44.0759 0.88623 45.4738 0.88623C46.8718 0.88623 48.0002 2.01462 48.0002 3.41247C48.0002 4.8019 46.8633 5.9387 45.4738 5.9387Z" fill="#0078D4"/>
<path d="M5.05267 8.04614H0V13.0986H5.05267V8.04614Z" fill="#0078D4"/>
<path d="M12.2111 8.04614H7.15845V13.0986H12.2111V8.04614Z" fill="#0078D4"/>
<path d="M19.3532 8.04614H14.3005V13.0986H19.3532V8.04614Z" fill="#0078D4"/>
<path d="M26.5273 8.04614H21.4746V13.0986H26.5273V8.04614Z" fill="#50E6FF"/>
<path d="M33.6835 8.04614H28.6309V13.0986H33.6835V8.04614Z" fill="#0078D4"/>
<path d="M38.3154 13.0986C36.9175 13.0986 35.7891 11.9702 35.7891 10.5724C35.7891 9.17453 36.9175 8.04614 38.3154 8.04614C39.7133 8.04614 40.8417 9.17453 40.8417 10.5724C40.8417 11.9618 39.7049 13.0986 38.3154 13.0986Z" fill="#0078D4"/>
<path d="M48.0002 8.04614H42.9475V13.0986H48.0002V8.04614Z" fill="#0078D4"/>
<path d="M5.05267 15.2019H0V20.2544H5.05267V15.2019Z" fill="#0078D4"/>
<path d="M12.2111 15.2019H7.15845V20.2544H12.2111V15.2019Z" fill="#0078D4"/>
<path d="M19.3532 15.2019H14.3005V20.2544H19.3532V15.2019Z" fill="#50E6FF"/>
<path d="M26.5273 15.2019H21.4746V20.2544H26.5273V15.2019Z" fill="#50E6FF"/>
<path d="M33.6835 15.2019H28.6309V20.2544H33.6835V15.2019Z" fill="#50E6FF"/>
<path d="M40.8417 15.2019H35.7891V20.2544H40.8417V15.2019Z" fill="#0078D4"/>
<path d="M48.0002 15.2019H42.9475V20.2544H48.0002V15.2019Z" fill="#0078D4"/>
<path d="M5.05267 22.3582H0V27.4106H5.05267V22.3582Z" fill="#0078D4"/>
<path d="M12.2111 22.3582H7.15845V27.4106H12.2111V22.3582Z" fill="#50E6FF"/>
<path d="M19.3532 22.3582H14.3005V27.4106H19.3532V22.3582Z" fill="#50E6FF"/>
<path d="M24.0009 27.4106C22.603 27.4106 21.4746 26.2822 21.4746 24.8844C21.4746 23.4865 22.603 22.3582 24.0009 22.3582C25.3988 22.3582 26.5273 23.4865 26.5273 24.8844C26.5273 26.2738 25.3904 27.4106 24.0009 27.4106Z" fill="#50E6FF"/>
<path d="M33.6835 22.3582H28.6309V27.4106H33.6835V22.3582Z" fill="#50E6FF"/>
<path d="M40.8417 22.3582H35.7891V27.4106H40.8417V22.3582Z" fill="#50E6FF"/>
<path d="M48.0002 22.3582H42.9475V27.4106H48.0002V22.3582Z" fill="#0078D4"/>
<path d="M5.05267 29.5142H0V34.5666H5.05267V29.5142Z" fill="#0078D4"/>
<path d="M12.2111 29.5142H7.15845V34.5666H12.2111V29.5142Z" fill="#0078D4"/>
<path d="M16.8269 34.5666C15.429 34.5666 14.3005 33.4382 14.3005 32.0404C14.3005 30.6425 15.429 29.5142 16.8269 29.5142C18.2248 29.5142 19.3532 30.6425 19.3532 32.0404C19.3532 33.4298 18.2164 34.5666 16.8269 34.5666Z" fill="#50E6FF"/>
<path d="M26.5273 29.5142H21.4746V34.5666H26.5273V29.5142Z" fill="#50E6FF"/>
<path d="M33.6835 29.5142H28.6309V34.5666H33.6835V29.5142Z" fill="#50E6FF"/>
<path d="M38.3154 34.5666C36.9175 34.5666 35.7891 33.4382 35.7891 32.0404C35.7891 30.6425 36.9175 29.5142 38.3154 29.5142C39.7133 29.5142 40.8417 30.6425 40.8417 32.0404C40.8417 33.4298 39.7049 34.5666 38.3154 34.5666Z" fill="#0078D4"/>
<path d="M48.0002 29.5142H42.9475V34.5666H48.0002V29.5142Z" fill="#0078D4"/>
<path d="M5.05267 36.6738H0V41.7263H5.05267V36.6738Z" fill="#0078D4"/>
<path d="M12.2111 36.6738H7.15845V41.7263H12.2111V36.6738Z" fill="#0078D4"/>
<path d="M19.3532 36.6738H14.3005V41.7263H19.3532V36.6738Z" fill="#0078D4"/>
<path d="M24.0009 41.7263C22.603 41.7263 21.4746 40.5979 21.4746 39.2001C21.4746 37.8022 22.603 36.6738 24.0009 36.6738C25.3988 36.6738 26.5273 37.8022 26.5273 39.2001C26.5273 40.5895 25.3904 41.7263 24.0009 41.7263Z" fill="#50E6FF"/>
<path d="M33.6835 36.6738H28.6309V41.7263H33.6835V36.6738Z" fill="#0078D4"/>
<path d="M40.8417 36.6738H35.7891V41.7263H40.8417V36.6738Z" fill="#0078D4"/>
<path d="M48.0002 36.6738H42.9475V41.7263H48.0002V36.6738Z" fill="#0078D4"/>
<path d="M5.05267 43.8337H0V48.8862H5.05267V43.8337Z" fill="#0078D4"/>
<path d="M12.2111 43.8337H7.15845V48.8862H12.2111V43.8337Z" fill="#0078D4"/>
<path d="M19.3532 43.8337H14.3005V48.8862H19.3532V43.8337Z" fill="#0078D4"/>
<path d="M26.5273 43.8337H21.4746V48.8862H26.5273V43.8337Z" fill="#0078D4"/>
<path d="M33.6835 43.8337H28.6309V48.8862H33.6835V43.8337Z" fill="#0078D4"/>
<path d="M38.3154 48.8862C36.9175 48.8862 35.7891 47.7578 35.7891 46.36C35.7891 44.9621 36.9175 43.8337 38.3154 43.8337C39.7133 43.8337 40.8417 44.9621 40.8417 46.36C40.8417 47.7494 39.7049 48.8862 38.3154 48.8862Z" fill="#0078D4"/>
<path d="M48.0002 43.8337H42.9475V48.8862H48.0002V43.8337Z" fill="#0078D4"/>
</svg>
