<svg data-slug-id="grid24" viewBox="0 0 48 49" xmlns="http://www.w3.org/2000/svg">
<path d="M48 0.987793H0V48.9878H48V0.987793Z" fill="#C4C4C4"/>
<path d="M47.9996 0.987793H0.0996094V48.8878H47.9996V0.987793Z" fill="white"/>
<path d="M0.0996094 48.8878H47.9996V0.987793H0.0996094V48.8878Z" fill="#0078D4"/>
<path d="M31.2502 14.8394C31.2502 15.3394 31.0502 15.6894 30.7002 15.9894C30.3502 16.2394 29.8502 16.3894 29.2502 16.3894C28.7002 16.3894 28.3002 16.2894 27.9502 16.0894V14.9394C28.3502 15.2894 28.8002 15.4894 29.3002 15.4894C29.5502 15.4894 29.7002 15.4394 29.8502 15.3394C30.0002 15.2394 30.0502 15.1394 30.0502 14.9394C30.0502 14.7894 30.0002 14.6394 29.8502 14.5394C29.7502 14.4394 29.4502 14.2894 29.1002 14.0894C28.3002 13.7394 27.9502 13.1894 27.9502 12.5894C27.9502 12.1394 28.1002 11.7394 28.4502 11.4894C28.8002 11.1894 29.2502 11.0894 29.8002 11.0894C30.3002 11.0894 30.7002 11.1394 31.0502 11.2894V12.3894C30.7002 12.1394 30.3002 12.0394 29.9002 12.0394C29.7002 12.0394 29.5002 12.0894 29.4002 12.1894C29.2502 12.2894 29.2002 12.3894 29.2002 12.5894C29.2002 12.7394 29.2502 12.8894 29.3502 12.9894C29.4502 13.0894 29.6502 13.2394 30.0002 13.3894C30.5002 13.6394 30.8002 13.8394 31.0002 14.0894C31.1502 14.1894 31.2502 14.4894 31.2502 14.8394Z" fill="#50E6FF"/>
<path d="M35.5 13.6886C35.5 13.1886 35.4 12.7886 35.15 12.4886C34.95 12.1886 34.6 12.0386 34.25 12.0386C33.85 12.0386 33.55 12.1886 33.3 12.4886C33.05 12.7886 32.95 13.1886 32.95 13.6886C32.95 14.1886 33.05 14.5886 33.3 14.8886C33.55 15.1886 33.85 15.3386 34.25 15.3386C34.65 15.3386 34.95 15.1886 35.2 14.8886C35.4 14.5886 35.5 14.1886 35.5 13.6886ZM36.7 13.6386C36.7 14.2386 36.55 14.7386 36.3 15.1886C36.05 15.6386 35.65 15.9386 35.15 16.1386L36.65 17.4886H35.15L34.1 16.2886C33.65 16.2886 33.25 16.1386 32.9 15.9386C32.55 15.7386 32.25 15.3886 32.05 15.0386C31.85 14.6386 31.75 14.2386 31.75 13.7386C31.75 13.1886 31.85 12.7386 32.05 12.3386C32.25 11.9386 32.55 11.5886 32.95 11.3886C33.35 11.1886 33.8 11.0386 34.3 11.0386C34.75 11.0386 35.2 11.1386 35.55 11.3386C35.9 11.5386 36.2 11.8386 36.4 12.2386C36.6 12.6886 36.7 13.1386 36.7 13.6386Z" fill="#50E6FF"/>
<path d="M40.6008 16.3886H37.5508V11.0386H38.7008V15.4886H40.6008V16.3886Z" fill="#50E6FF"/>
<path d="M10.0996 16.0386H15.0996V11.0386H10.0996V16.0386Z" fill="white"/>
<path d="M10.0996 23.6362H15.0996V18.6362H10.0996V23.6362Z" fill="#50E6FF"/>
<path d="M17.75 23.6362H22.75V18.6362H17.75V23.6362Z" fill="white"/>
<path d="M10.0996 31.2886H15.0996V26.2886H10.0996V31.2886Z" fill="#50E6FF"/>
<path d="M17.75 31.2886H22.75V26.2886H17.75V31.2886Z" fill="#50E6FF"/>
<path d="M25.2998 31.2886H30.2998V26.2886H25.2998V31.2886Z" fill="white"/>
<path d="M10.0996 38.8394H15.0996V33.8394H10.0996V38.8394Z" fill="#50E6FF"/>
<path d="M17.75 38.8394H22.75V33.8394H17.75V38.8394Z" fill="#50E6FF"/>
<path d="M25.2998 38.8394H30.2998V33.8394H25.2998V38.8394Z" fill="#50E6FF"/>
<path d="M32.9004 38.8394H37.9004V33.8394H32.9004V38.8394Z" fill="white"/>
</svg>
