<svg data-slug-id="grid28" viewBox="0 0 48 49" xmlns="http://www.w3.org/2000/svg">
<path d="M47.9097 48.9877V38.9023L0.00640106 38.9023V48.9877L47.9097 48.9877Z" fill="#0078D4"/>
<path d="M47.9033 26.3398H0V36.4252H47.9033V26.3398Z" fill="#50E6FF"/>
<path d="M47.9033 0.987793H0V11.0984H47.9033V0.987793Z" fill="#50E6FF"/>
<path d="M47.9082 23.8207V13.6597L0.00493622 13.6597V23.8207L47.9082 23.8207Z" fill="#0078D4"/>
<path d="M32.9643 15.9688H27.5894V21.3437H32.9643V15.9688Z" fill="#50E6FF"/>
<path d="M20.3559 15.9688H14.981V21.3437H20.3559V15.9688Z" fill="#50E6FF"/>
<path d="M7.7133 15.9688H2.33838V21.3437H7.7133V15.9688Z" fill="#50E6FF"/>
<path d="M45.6239 15.9688H40.249V21.3437H45.6239V15.9688Z" fill="#50E6FF"/>
<path d="M32.9634 8.74162V3.3667L27.5885 3.3667V8.74162H32.9634Z" fill="#0078D4"/>
<path d="M20.3516 8.7465V3.37158L14.9766 3.37158V8.7465H20.3516Z" fill="#0078D4"/>
<path d="M7.70459 8.74943L7.70459 3.37451L2.32967 3.37451L2.32967 8.74943H7.70459Z" fill="#0078D4"/>
<path d="M45.6162 8.74968V3.37476L40.2413 3.37476V8.74968H45.6162Z" fill="#0078D4"/>
<path d="M4.97949 46.5962C6.47534 46.5962 7.68798 45.3835 7.68798 43.8877C7.68798 42.3918 6.47534 41.1792 4.97949 41.1792C3.48363 41.1792 2.271 42.3918 2.271 43.8877C2.271 45.3835 3.48363 46.5962 4.97949 46.5962Z" fill="#50E6FF"/>
<path d="M17.6558 46.5962C19.1516 46.5962 20.3642 45.3835 20.3642 43.8877C20.3642 42.3918 19.1516 41.1792 17.6558 41.1792C16.1599 41.1792 14.9473 42.3918 14.9473 43.8877C14.9473 45.3835 16.1599 46.5962 17.6558 46.5962Z" fill="#50E6FF"/>
<path d="M30.2812 46.5962C31.7771 46.5962 32.9897 45.3835 32.9897 43.8877C32.9897 42.3918 31.7771 41.1792 30.2812 41.1792C28.7854 41.1792 27.5728 42.3918 27.5728 43.8877C27.5728 45.3835 28.7854 46.5962 30.2812 46.5962Z" fill="#50E6FF"/>
<path d="M42.8393 46.5962C44.3352 46.5962 45.5478 45.3835 45.5478 43.8877C45.5478 42.3918 44.3352 41.1792 42.8393 41.1792C41.3435 41.1792 40.1309 42.3918 40.1309 43.8877C40.1309 45.3835 41.3435 46.5962 42.8393 46.5962Z" fill="#50E6FF"/>
<path d="M4.97949 33.9595C6.47534 33.9595 7.68798 32.7468 7.68798 31.251C7.68798 29.7551 6.47534 28.5425 4.97949 28.5425C3.48363 28.5425 2.271 29.7551 2.271 31.251C2.271 32.7468 3.48363 33.9595 4.97949 33.9595Z" fill="#0078D4"/>
<path d="M17.6558 33.9595C19.1516 33.9595 20.3642 32.7468 20.3642 31.251C20.3642 29.7551 19.1516 28.5425 17.6558 28.5425C16.1599 28.5425 14.9473 29.7551 14.9473 31.251C14.9473 32.7468 16.1599 33.9595 17.6558 33.9595Z" fill="#0078D4"/>
<path d="M30.2812 33.9595C31.7771 33.9595 32.9897 32.7468 32.9897 31.251C32.9897 29.7551 31.7771 28.5425 30.2812 28.5425C28.7854 28.5425 27.5728 29.7551 27.5728 31.251C27.5728 32.7468 28.7854 33.9595 30.2812 33.9595Z" fill="#0078D4"/>
<path d="M42.8393 33.9595C44.3352 33.9595 45.5478 32.7468 45.5478 31.251C45.5478 29.7551 44.3352 28.5425 42.8393 28.5425C41.3435 28.5425 40.1309 29.7551 40.1309 31.251C40.1309 32.7468 41.3435 33.9595 42.8393 33.9595Z" fill="#0078D4"/>
</svg>
