<svg data-slug-id="grid12" viewBox="0 0 49 50" xmlns="http://www.w3.org/2000/svg">
<path d="M10.241 0.885742H0.0078125V11.119H10.241V0.885742Z" fill="#0078D4"/>
<path d="M23.033 0.885986H12.7998V11.1192H23.033V0.885986Z" fill="#0078D4"/>
<path d="M35.8162 0.885986H25.583V11.1192H35.8162V0.885986Z" fill="#0078D4"/>
<path d="M48.6077 0.885986H38.3745V11.1192H48.6077V0.885986Z" fill="#0078D4"/>
<path d="M10.2415 13.6787H0.00830078V23.9119H10.2415V13.6787Z" fill="#0078D4"/>
<path d="M23.033 13.6787H12.7998V23.9119H23.033V13.6787Z" fill="#0078D4"/>
<path d="M35.8162 13.6787H25.583V23.9119H35.8162V13.6787Z" fill="#0078D4"/>
<path d="M48.6077 13.6787H38.3745V23.9119H48.6077V13.6787Z" fill="#0078D4"/>
<path d="M5.12491 26.4675C2.30225 26.4675 0.00830078 28.7615 0.00830078 31.5841C0.00830078 34.4068 2.30225 36.7008 5.12491 36.7008C7.94758 36.7008 10.2415 34.4068 10.2415 31.5841C10.2415 28.7529 7.94758 26.4675 5.12491 26.4675Z" fill="#50E6FF"/>
<path d="M17.9164 36.6927C15.0938 36.6927 12.7998 34.3987 12.7998 31.5761C12.7998 28.7534 15.0938 26.4595 17.9164 26.4595C20.7391 26.4595 23.033 28.7534 23.033 31.5761C23.033 34.3987 20.7391 36.6927 17.9164 36.6927Z" fill="#50E6FF"/>
<path d="M30.6996 26.4675C27.877 26.4675 25.583 28.7615 25.583 31.5841C25.583 34.4068 27.877 36.7008 30.6996 36.7008C33.5223 36.7008 35.8162 34.4068 35.8162 31.5841C35.8162 28.7529 33.5308 26.4675 30.6996 26.4675Z" fill="#50E6FF"/>
<path d="M43.4911 26.4675C40.6685 26.4675 38.3745 28.7615 38.3745 31.5841C38.3745 34.4068 40.6685 36.7008 43.4911 36.7008C46.3138 36.7008 48.6077 34.4068 48.6077 31.5841C48.6077 28.7529 46.3138 26.4675 43.4911 26.4675Z" fill="#50E6FF"/>
<path d="M10.2415 39.2522H0.00830078V49.4854H10.2415V39.2522Z" fill="#0078D4"/>
<path d="M23.033 39.2522H12.7998V49.4854H23.033V39.2522Z" fill="#0078D4"/>
<path d="M35.8162 39.2522H25.583V49.4854H35.8162V39.2522Z" fill="#0078D4"/>
<path d="M48.6077 39.2522H38.3745V49.4854H48.6077V39.2522Z" fill="#0078D4"/>
</svg>
