<svg data-slug-id="grid01" viewBox="0 0 48 49" xmlns="http://www.w3.org/2000/svg">
<path d="M5.05288 0.88623H0.000244141V5.9387H5.05288V0.88623Z" fill="#50E6FF"/>
<path d="M5.05264 8.04614H0V13.0986H5.05264V8.04614Z" fill="#50E6FF"/>
<path d="M26.5272 8.04614H21.4746V13.0986H26.5272V8.04614Z" fill="#0078D4"/>
<path d="M33.6833 8.04614H28.6306V13.0986H33.6833V8.04614Z" fill="#50E6FF"/>
<path d="M5.05264 15.2019H0V20.2544H5.05264V15.2019Z" fill="#50E6FF"/>
<path d="M26.5272 15.2019H21.4746V20.2544H26.5272V15.2019Z" fill="#0078D4"/>
<path d="M33.6833 15.2019H28.6306V20.2544H33.6833V15.2019Z" fill="#50E6FF"/>
<path d="M5.05264 22.3582H0V27.4106H5.05264V22.3582Z" fill="#50E6FF"/>
<path d="M12.2108 22.3582H7.1582V27.4106H12.2108V22.3582Z" fill="#0078D4"/>
<path d="M19.3688 22.3582H14.3162V27.4106H19.3688V22.3582Z" fill="#50E6FF"/>
<path d="M26.5272 22.3582H21.4746V27.4106H26.5272V22.3582Z" fill="#0078D4"/>
<path d="M33.6833 22.3582H28.6306V27.4106H33.6833V22.3582Z" fill="#50E6FF"/>
<path d="M5.05264 29.5178H0V34.5703H5.05264V29.5178Z" fill="#50E6FF"/>
<path d="M12.2108 29.5178H7.1582V34.5703H12.2108V29.5178Z" fill="#0078D4"/>
<path d="M19.3688 29.5178H14.3162V34.5703H19.3688V29.5178Z" fill="#50E6FF"/>
<path d="M26.5272 29.5178H21.4746V34.5703H26.5272V29.5178Z" fill="#0078D4"/>
<path d="M33.6833 29.5178H28.6306V34.5703H33.6833V29.5178Z" fill="#50E6FF"/>
<path d="M5.05264 36.6738H0V41.7263H5.05264V36.6738Z" fill="#50E6FF"/>
<path d="M12.2108 36.6738H7.1582V41.7263H12.2108V36.6738Z" fill="#0078D4"/>
<path d="M19.3688 36.6738H14.3162V41.7263H19.3688V36.6738Z" fill="#50E6FF"/>
<path d="M26.5272 36.6738H21.4746V41.7263H26.5272V36.6738Z" fill="#0078D4"/>
<path d="M33.6833 36.6738H28.6306V41.7263H33.6833V36.6738Z" fill="#50E6FF"/>
<path d="M40.8415 36.6738H35.7888V41.7263H40.8415V36.6738Z" fill="#0078D4"/>
<path d="M47.9997 36.6738H42.947V41.7263H47.9997V36.6738Z" fill="#50E6FF"/>
<path d="M5.05264 43.8337H0V48.8862H5.05264V43.8337Z" fill="#50E6FF"/>
<path d="M12.2108 43.8337H7.1582V48.8862H12.2108V43.8337Z" fill="#0078D4"/>
<path d="M19.3688 43.8337H14.3162V48.8862H19.3688V43.8337Z" fill="#50E6FF"/>
<path d="M26.5272 43.8337H21.4746V48.8862H26.5272V43.8337Z" fill="#0078D4"/>
<path d="M33.6833 43.8337H28.6306V48.8862H33.6833V43.8337Z" fill="#50E6FF"/>
<path d="M40.8415 43.8337H35.7888V48.8862H40.8415V43.8337Z" fill="#0078D4"/>
<path d="M47.9997 43.8337H42.947V48.8862H47.9997V43.8337Z" fill="#50E6FF"/>
</svg>
