<svg data-slug-id="grid14" viewBox="0 0 48 49" xmlns="http://www.w3.org/2000/svg">
<path d="M19.4051 0.87793H0V8.45673H19.4051V0.87793Z" fill="#0078D4"/>
<path d="M0 10.9998V16.0102V16.0607V18.5449H19.4136V10.9998H0Z" fill="#0078D4"/>
<path d="M19.4051 21.0557H0V28.6597H19.4051V21.0557Z" fill="#0078D4"/>
<path d="M19.4051 31.1931H0V38.7719H19.4051V31.1931Z" fill="#0078D4"/>
<path d="M19.4051 41.2991H0V48.8779H19.4051V41.2991Z" fill="#0078D4"/>
<path d="M41.2608 0.87793H38.7173V8.45673H41.2608V0.87793Z" fill="#0078D4"/>
<path d="M41.2608 10.9902H38.7173V18.5354H41.2608V10.9902Z" fill="#0078D4"/>
<path d="M41.2608 21.0371H38.7173V28.6412H41.2608V21.0371Z" fill="#0078D4"/>
<path d="M41.2608 31.1775H38.7173V38.7563H41.2608V31.1775Z" fill="#0078D4"/>
<path d="M41.2608 41.2898H38.7173V48.8686H41.2608V41.2898Z" fill="#0078D4"/>
<path d="M32.8558 0.87793H25.2588V8.45673H32.8558V0.87793Z" fill="#0078D4"/>
<path d="M32.8558 10.9998H25.2588V18.5449H32.8558V10.9998Z" fill="#0078D4"/>
<path d="M32.8558 21.0557H25.2588V28.6597H32.8558V21.0557Z" fill="#0078D4"/>
<path d="M32.8558 31.1931H25.2588V38.7719H32.8558V31.1931Z" fill="#0078D4"/>
<path d="M32.8558 41.2991H25.2588V48.8779H32.8558V41.2991Z" fill="#0078D4"/>
<path d="M23.4983 0.87793H21.1147V48.877H23.4983V0.87793Z" fill="#50E6FF"/>
<path d="M36.966 0.87793H34.5825V48.877H36.966V0.87793Z" fill="#50E6FF"/>
<path d="M45.3376 0.87793H42.9541V48.877H45.3376V0.87793Z" fill="#50E6FF"/>
</svg>
