<svg data-slug-id="grid30" viewBox="0 0 48 49" xmlns="http://www.w3.org/2000/svg">
<path d="M48 0.987793H0V48.9878H48V0.987793Z" fill="#50E6FF"/>
<path d="M5.29523 1.29297H0.258789V6.31321H5.29523V1.29297Z" fill="#0078D4"/>
<path d="M12.826 1.29297H7.78955V6.31321H12.826V1.29297Z" fill="#0078D4"/>
<path d="M32.7449 6.31321H27.7246V1.29297H30.2833L32.7449 4.11078V6.31321Z" fill="#0078D4"/>
<path d="M17.7326 1.29297H15.2549V6.31321H17.7326V1.29297Z" fill="#0078D4"/>
<path d="M21.4411 1.29297H18.9634V6.31321H21.4411V1.29297Z" fill="#0078D4"/>
<path d="M5.29523 8.75903H0.258789V16.3056H5.29523V8.75903Z" fill="#0078D4"/>
<path d="M15.1739 8.67896H7.74072V16.1122H15.1739V8.67896Z" fill="#0078D4"/>
<path d="M25.2306 8.67896H17.7974V16.1122H25.2306V8.67896Z" fill="#0078D4"/>
<path d="M32.7284 11.3834L30.2669 13.7802L27.7729 13.8126V8.67896H32.7284V11.3834Z" fill="#0078D4"/>
<path d="M35.1579 21.2002H28V18.7387L32.7449 13.7832H35.1579V21.2002Z" fill="#0078D4"/>
<path d="M0.291504 36.2932V18.7871H6.62349V31.2729L3.12551 36.2608L0.291504 36.2932Z" fill="#0078D4"/>
<path d="M40.3234 10.2202L37.7646 12.6008V18.8356H40.3234V10.2202Z" fill="#0078D4"/>
<path d="M34.105 8.72763H35.2872L37.7325 6.26609V1.34302H34.105V8.72763Z" fill="#0078D4"/>
<path d="M38.688 5.32812L39.8702 4.16213V1.32812H38.688V5.32812Z" fill="#0078D4"/>
<path d="M21.6034 18.7871H16.6479V26.2203H21.6034V18.7871Z" fill="#0078D4"/>
<path d="M10.1865 31.0453L15.142 25.9117V18.8672H10.1865V31.0453Z" fill="#0078D4"/>
<path d="M22.7046 28.7302H15.1904V36.2444H22.7046V28.7302Z" fill="#0078D4"/>
<path d="M47.6276 38.7832H35.2065V48.6941H47.6276V38.7832Z" fill="#0078D4"/>
<path d="M30.1861 38.7532H25.1982V48.6641H30.1861V38.7532Z" fill="#0078D4"/>
<path d="M30.2183 31.2373H25.1333V36.3223H30.2183V31.2373Z" fill="#0078D4"/>
<path d="M37.7331 33.7149H35.142V31.2696L32.729 31.2858V26.2332H35.0934L37.7331 28.5004V33.7149Z" fill="#0078D4"/>
<path d="M22.6877 37.7324H0.209961V40.194H22.6877V37.7324Z" fill="#0078D4"/>
<path d="M12.7611 42.4463H0.307617V48.7297H12.7611V42.4463Z" fill="#0078D4"/>
<path d="M22.6885 42.4463H15.1743V48.7297H22.6885V42.4463Z" fill="#0078D4"/>
<path d="M13.8461 30.1362L7.80566 36.2739H13.8461V30.1362Z" fill="#0078D4"/>
<path d="M30.235 22.4751H22.7046V26.2808H30.235V22.4751Z" fill="#0078D4"/>
<path d="M47.6597 31.8367L37.7002 23.7557V21.2942H47.6597V31.8367Z" fill="#0078D4"/>
<path d="M47.595 1.35815H42.6719V13.7954H47.595V1.35815Z" fill="#0078D4"/>
<path d="M47.627 16.3401H42.6392V18.8016H47.627V16.3401Z" fill="#0078D4"/>
<path d="M40.2427 36.2913H47.6597V36.2265L40.2427 29.8459V36.2913Z" fill="#0078D4"/>
</svg>
