<svg data-slug-id="grid17" viewBox="0 0 48 49" xmlns="http://www.w3.org/2000/svg">
<path d="M0 48.9878H48V0.987793H0V48.9878Z" fill="#0078D4"/>
<path d="M15.1884 33.7808H10.0835V38.852H15.1884V33.7808Z" fill="#50E6FF"/>
<path d="M22.7617 33.7808H17.6567V38.852H22.7617V33.7808Z" fill="#50E6FF"/>
<path d="M30.2422 33.7808H25.1372V38.852H30.2422V33.7808Z" fill="#50E6FF"/>
<path d="M15.1884 26.2026H10.0835V31.2739H15.1884V26.2026Z" fill="#50E6FF"/>
<path d="M22.7617 26.2026H17.6567V31.2739H22.7617V26.2026Z" fill="#50E6FF"/>
<path d="M15.1884 18.6167H10.0835V23.688H15.1884V18.6167Z" fill="#50E6FF"/>
<path d="M15.1884 10.9526H10.0835V16.0239H15.1884V10.9526Z" fill="white"/>
<path d="M22.7617 18.6167H17.6567V23.688H22.7617V18.6167Z" fill="white"/>
<path d="M30.2422 26.2026H25.1372V31.2739H30.2422V26.2026Z" fill="white"/>
<path d="M37.9585 33.7808H32.8535V38.852H37.9585V33.7808Z" fill="white"/>
</svg>
