<svg data-slug-id="grid25" viewBox="0 0 48 49" xmlns="http://www.w3.org/2000/svg">
<path d="M22.7361 11.0933H12.6309V28.7774H22.7361V11.0933Z" fill="#50E6FF"/>
<path d="M10.1052 0.987793H0V18.672H10.1052V0.987793Z" fill="#50E6FF"/>
<path d="M10.1052 21.1987H0V38.8829H10.1052V21.1987Z" fill="#50E6FF"/>
<path d="M22.7361 31.3042H12.6309V48.9884H22.7361V31.3042Z" fill="#50E6FF"/>
<path d="M22.7361 1.07373H12.6309V8.56846H22.7361V1.07373Z" fill="#50E6FF"/>
<path d="M10.1052 41.4917H0V48.9864H10.1052V41.4917Z" fill="#50E6FF"/>
<path d="M47.9158 41.4917H37.8105V48.9864H47.9158V41.4917Z" fill="#0078D4"/>
<path d="M31.579 0.987793H29.0527V6.04042H31.579V0.987793Z" fill="#0078D4"/>
<path d="M31.579 11.0933H29.0527V16.1459H31.579V11.0933Z" fill="#0078D4"/>
<path d="M31.579 21.1987H29.0527V26.2514H31.579V21.1987Z" fill="#0078D4"/>
<path d="M31.579 31.3042H29.0527V36.3568H31.579V31.3042Z" fill="#0078D4"/>
<path d="M31.579 41.4097H29.0527V48.9886H31.579V41.4097Z" fill="#0078D4"/>
<path d="M47.9998 21.1987H37.8945V38.8829H47.9998V21.1987Z" fill="#0078D4"/>
<path d="M47.9998 21.1987H37.8945V38.8829H47.9998V21.1987Z" fill="#0078D4"/>
<path d="M47.9998 0.987793H37.8945V17.9073H47.9998V0.987793Z" fill="#0078D4"/>
<path d="M47.9998 1.07373H37.8945V17.9091H47.9998V1.07373Z" fill="#0078D4"/>
</svg>
