<svg data-slug-id="grid33" viewBox="0 0 277 277" xmlns="http://www.w3.org/2000/svg">
<path d="M202.672 131.364V74.322L145.63 74.322V131.364H202.672Z" fill="#50E6FF"/>
<path d="M202.672 202.665V145.623H145.63V202.665H202.672Z" fill="#50E6FF"/>
<path d="M273.786 102.838H174.152V174.141H221.782V216.923H236.043V174.141H273.786V102.838Z" fill="#0078D4"/>
<path d="M60.0671 131.364L60.0671 74.322L3.02493 74.322L3.02493 131.364H60.0671Z" fill="#50E6FF"/>
<path d="M131.372 131.364V74.322L74.3294 74.322V131.364H131.372Z" fill="#50E6FF"/>
<path d="M60.0671 202.665L60.0671 145.623H3.02493L3.02493 202.665H60.0671Z" fill="#50E6FF"/>
<path d="M131.37 202.665V145.623H74.328V202.665H131.37Z" fill="#50E6FF"/>
<path d="M244.172 112.013L213.702 142.483L203.577 132.358L193.499 142.435L213.654 162.733L254.297 122.09L244.172 112.013Z" fill="#50E6FF"/>
<path d="M273.975 216.926H3.02466V245.447H273.975V216.926Z" fill="#50E6FF"/>
</svg>
