<svg data-slug-id="grid15" viewBox="0 0 48 49" xmlns="http://www.w3.org/2000/svg">
<path d="M10.1248 38.7529H0.0336914V48.844H10.1248V38.7529Z" fill="#0078D4"/>
<path d="M22.7386 38.7529H12.6475V48.844H22.7386V38.7529Z" fill="#0078D4"/>
<path d="M35.3523 38.7529H25.2612V48.844H35.3523V38.7529Z" fill="#0078D4"/>
<path d="M47.9661 38.7529H37.875V48.844H47.9661V38.7529Z" fill="#0078D4"/>
<path d="M10.1248 26.1396H0.0336914V36.2308H10.1248V26.1396Z" fill="#0078D4"/>
<path d="M22.7386 26.1396H12.6475V36.2308H22.7386V26.1396Z" fill="#0078D4"/>
<path d="M35.3523 26.1396H25.2612V36.2308H35.3523V26.1396Z" fill="#0078D4"/>
<path d="M47.9661 26.1396H37.875V36.2308H47.9661V26.1396Z" fill="#0078D4"/>
<path d="M22.7386 8.47949H12.6475V18.5706H22.7386V8.47949Z" fill="#0078D4"/>
<path d="M10.1248 5.95605H0.0336914V16.0472H10.1248V5.95605Z" fill="#0078D4"/>
<path d="M35.3523 11.0029H25.2612V21.094H35.3523V11.0029Z" fill="#0078D4"/>
<path d="M47.9661 13.5264H37.875V23.6175H47.9661V13.5264Z" fill="#0078D4"/>
</svg>
