<svg data-slug-id="grid09" viewBox="0 0 48 49" xmlns="http://www.w3.org/2000/svg">
<path d="M10.1253 38.8628H0.0341797V48.9539H10.1253V38.8628Z" fill="#0078D4"/>
<path d="M22.7386 38.8628H12.6475V48.9539H22.7386V38.8628Z" fill="#0078D4"/>
<path d="M35.3523 38.8628H25.2612V48.9539H35.3523V38.8628Z" fill="#0078D4"/>
<path d="M47.9661 38.8628H37.875V48.9539H47.9661V38.8628Z" fill="#0078D4"/>
<path d="M10.1253 26.2495H0.0341797V36.3406H10.1253V26.2495Z" fill="#0078D4"/>
<path d="M22.7386 26.2495H12.6475V36.3406H22.7386V26.2495Z" fill="#0078D4"/>
<path d="M35.3523 26.2495H25.2612V36.3406H35.3523V26.2495Z" fill="#0078D4"/>
<path d="M47.9661 26.2495H37.875V36.3406H47.9661V26.2495Z" fill="#0078D4"/>
<path d="M22.7386 8.58936H12.6475V18.6805H22.7386V8.58936Z" fill="#0078D4"/>
<path d="M10.1253 6.06592H0.0341797V16.157H10.1253V6.06592Z" fill="#0078D4"/>
<path d="M35.3523 11.1128H25.2612V21.2039H35.3523V11.1128Z" fill="#0078D4"/>
<path d="M47.9661 13.6362H37.875V23.7273H47.9661V13.6362Z" fill="#0078D4"/>
<path d="M36.6305 48.953C42.9096 48.953 47.9998 43.8628 47.9998 37.5837C47.9998 31.3046 42.9096 26.2144 36.6305 26.2144C30.3514 26.2144 25.2612 31.3046 25.2612 37.5837C25.2612 43.8628 30.3514 48.953 36.6305 48.953Z" fill="#50E6FF"/>
<path d="M32.8466 36.6682C31.2656 36.6682 29.979 35.3816 29.979 33.8007C29.979 32.2197 31.2656 30.9331 32.8466 30.9331C34.4275 30.9331 35.7141 32.2197 35.7141 33.8007C35.7141 35.3816 34.4191 36.6682 32.8466 36.6682ZM32.8466 32.0347C31.8711 32.0347 31.0722 32.8252 31.0722 33.8091C31.0722 34.793 31.8627 35.5834 32.8466 35.5834C33.8304 35.5834 34.6209 34.793 34.6209 33.8091C34.6209 32.8252 33.822 32.0347 32.8466 32.0347Z" fill="#0078D4"/>
<path d="M40.5326 44.4534C38.9517 44.4534 37.665 43.1668 37.665 41.5858C37.665 40.0049 38.9517 38.7183 40.5326 38.7183C42.1135 38.7183 43.4001 40.0049 43.4001 41.5858C43.4001 43.1668 42.1135 44.4534 40.5326 44.4534ZM40.5326 39.8199C39.5571 39.8199 38.7582 40.6103 38.7582 41.5942C38.7582 42.5781 39.5487 43.3686 40.5326 43.3686C41.5165 43.3686 42.3069 42.5781 42.3069 41.5942C42.3069 40.6103 41.5081 39.8199 40.5326 39.8199Z" fill="#0078D4"/>
<path d="M43.46 31.7608L42.687 30.9878L30.1941 43.4807L30.9671 44.2537L43.46 31.7608Z" fill="#0078D4"/>
</svg>
