<svg data-slug-id="grid26" viewBox="0 0 49 49" xmlns="http://www.w3.org/2000/svg">
<path d="M17.8512 31.303H0.166992V36.3556H17.8512V48.9872H22.9038V36.3556V31.303V18.6714H17.8512V31.303Z" fill="#0078D4"/>
<path d="M30.4822 23.7246H35.5348V6.04042V0.987793H17.8506V6.04042H30.4822V23.7246Z" fill="#0078D4"/>
<path d="M35.536 43.9339V36.355H30.4834V48.9866H35.536H48.1676V43.9339H35.536Z" fill="#0078D4"/>
<path d="M48.1669 6.03857H43.1143V36.3543H48.1669V6.03857Z" fill="#50E6FF"/>
<path d="M10.2723 43.937H0.166992V48.9896H10.2723V43.937Z" fill="#50E6FF"/>
<path d="M0.166992 0.987793V6.04042H5.21962V23.7246H10.2723V0.987793H5.21962H0.166992Z" fill="#50E6FF"/>
<path d="M20.3769 16.1459C21.7721 16.1459 22.9032 15.0148 22.9032 13.6196C22.9032 12.2243 21.7721 11.0933 20.3769 11.0933C18.9817 11.0933 17.8506 12.2243 17.8506 13.6196C17.8506 15.0148 18.9817 16.1459 20.3769 16.1459Z" fill="#50E6FF"/>
<path d="M33.0097 31.3021C34.405 31.3021 35.536 30.1711 35.536 28.7758C35.536 27.3806 34.405 26.2495 33.0097 26.2495C31.6145 26.2495 30.4834 27.3806 30.4834 28.7758C30.4834 30.1711 31.6145 31.3021 33.0097 31.3021Z" fill="#50E6FF"/>
</svg>
