<svg data-slug-id="grid32" viewBox="0 0 48 49" xmlns="http://www.w3.org/2000/svg">
<path d="M34.8945 23.7775V14.0933H25.2103V23.7775H34.8945Z" fill="#0078D4"/>
<path d="M47 23.7775V14.0933H37.3158V23.7775H47Z" fill="#0078D4"/>
<path d="M47 11.672V1.98779L37.3158 1.98779V11.672H47Z" fill="#0078D4"/>
<path d="M22.7896 11.6722V6.83008H17.9475V11.6722H22.7896Z" fill="#0078D4"/>
<path d="M17.9473 6.82989V1.98779L13.1052 1.98779V6.82989H17.9473Z" fill="#50E6FF"/>
<path d="M22.7896 35.8826V31.0405H17.9475V35.8826H22.7896Z" fill="#0078D4"/>
<path d="M17.9473 31.0403V26.1982H13.1052V31.0403H17.9473Z" fill="#0078D4"/>
<path d="M22.7896 18.9354V14.0933H17.9475V18.9354H22.7896Z" fill="#50E6FF"/>
<path d="M17.9473 23.7772V18.9351H13.1052V23.7772H17.9473Z" fill="#50E6FF"/>
<path d="M34.8945 11.672V1.98779L25.2103 1.98779V11.672H34.8945Z" fill="#0078D4"/>
<path d="M34.8945 11.6722V6.83008H30.0524V11.6722H34.8945Z" fill="#50E6FF"/>
<path d="M30.0527 6.82989V1.98779L25.2106 1.98779V6.82989H30.0527Z" fill="#50E6FF"/>
<path d="M34.8945 11.6722V6.83008H30.0524V11.6722H34.8945Z" fill="#50E6FF"/>
<path d="M34.8945 23.7775V14.0933H25.2103V23.7775H34.8945Z" fill="#0078D4"/>
<path d="M34.8945 23.7772V18.9351H30.0524V23.7772H34.8945Z" fill="#50E6FF"/>
<path d="M30.0527 18.9354V14.0933H25.2106V18.9354H30.0527Z" fill="#50E6FF"/>
<path d="M34.8945 23.7772V18.9351H30.0524V23.7772H34.8945Z" fill="#50E6FF"/>
<path d="M34.8945 35.8824V26.1982H25.2103V35.8824H34.8945Z" fill="#0078D4"/>
<path d="M34.8945 35.8826V31.0405H30.0524V35.8826H34.8945Z" fill="#50E6FF"/>
<path d="M30.0527 31.0403V26.1982H25.2106V31.0403H30.0527Z" fill="#50E6FF"/>
<path d="M34.8945 35.8826V31.0405H30.0524V35.8826H34.8945Z" fill="#50E6FF"/>
<path d="M34.8945 47.9877V38.3035H25.2103V47.9877H34.8945Z" fill="#0078D4"/>
<path d="M34.8945 47.9876V43.1455H30.0524V47.9876H34.8945Z" fill="#50E6FF"/>
<path d="M30.0527 43.1456V38.3035H25.2106V43.1456H30.0527Z" fill="#50E6FF"/>
<path d="M34.8945 47.9876V43.1455H30.0524V47.9876H34.8945Z" fill="#50E6FF"/>
<path d="M22.7896 35.8826V31.0405H17.9475V35.8826H22.7896Z" fill="#50E6FF"/>
<path d="M17.9473 31.0403V26.1982H13.1052V31.0403H17.9473Z" fill="#0078D4"/>
<path d="M22.7896 43.1456V38.3035H17.9475V43.1456H22.7896Z" fill="#50E6FF"/>
<path d="M17.9473 47.9876V43.1455H13.1052V47.9876H17.9473Z" fill="#0078D4"/>
<path d="M47 35.8824V26.1982H37.3158V35.8824H47Z" fill="#0078D4"/>
<path d="M10.6841 23.7775V14.0933H0.999886V23.7775H10.6841Z" fill="#50E6FF"/>
<path d="M10.6841 11.672V1.98779L0.999886 1.98779V11.672H10.6841Z" fill="#50E6FF"/>
<path d="M10.6841 47.9877V38.3035H0.999886V47.9877H10.6841Z" fill="#50E6FF"/>
<path d="M10.6841 35.8824V26.1982H0.999886V35.8824H10.6841Z" fill="#50E6FF"/>
<path d="M47 47.9877V38.3035H37.3158V47.9877H47Z" fill="#0078D4"/>
<path d="M47 23.7775V14.0933H37.3158V23.7775H47Z" fill="#0078D4"/>
<path d="M47 11.672V1.98779L37.3158 1.98779V11.672H47Z" fill="#0078D4"/>
</svg>
