<svg data-slug-id="health10" viewBox="0 0 48 49" xmlns="http://www.w3.org/2000/svg">
<path d="M29.0765 31.7519V6.1482C29.0765 3.46269 26.8993 1.28467 24.213 1.28467C21.5266 1.28467 19.3494 3.46269 19.3494 6.1482V32.0805C19.3494 32.087 19.3462 32.0927 19.3413 32.0967C17.2669 33.6742 15.9436 36.1873 16.0018 39.008C16.0933 43.4458 19.8957 47.2223 24.3344 47.2838C29.0587 47.3494 32.9089 43.5397 32.9089 38.8299C32.9081 35.8676 31.384 33.2614 29.0765 31.7519ZM24.4792 44.761C21.2604 44.774 18.591 42.1734 18.5247 38.9554C18.4802 36.7863 19.6011 34.8769 21.3033 33.8078C21.4295 33.7284 21.5064 33.5892 21.5064 33.4395V6.40072C21.5064 4.90581 22.7188 3.69337 24.2138 3.69337C25.7087 3.69337 26.9211 4.90581 26.9211 6.40072V33.1546C26.9211 33.3237 27.0158 33.4791 27.1664 33.5568C29.0773 34.5419 30.3852 36.5329 30.3852 38.8307C30.3844 42.0982 27.7426 44.7481 24.4792 44.761Z" fill="#0078D4"/>
<path d="M24.4546 42.4212C26.4376 42.4212 28.045 40.8138 28.045 38.8309C28.045 36.8479 26.4376 35.2405 24.4546 35.2405C22.4717 35.2405 20.8643 36.8479 20.8643 38.8309C20.8643 40.8138 22.4717 42.4212 24.4546 42.4212Z" fill="#50E6FF"/>
<path d="M24.301 20.832C23.8478 20.832 23.4795 21.1995 23.4795 21.6535V36.8002H25.1217V21.6535C25.1217 21.1995 24.7543 20.832 24.301 20.832Z" fill="#50E6FF"/>
<rect x="28" y="39.2847" width="1" height="1" fill="white"/>
</svg>
