<svg data-slug-id="health11" viewBox="0 0 48 48" xmlns="http://www.w3.org/2000/svg">
<path d="M0 0.424805H46.993L23.466 23.9526L0 0.424805Z" fill="#0078D4"/>
<path d="M23.4955 35.0924C26.2274 35.0924 28.4421 32.8777 28.4421 30.1458C28.4421 27.4138 26.2274 25.1991 23.4955 25.1991C20.7635 25.1991 18.5488 27.4138 18.5488 30.1458C18.5488 32.8777 20.7635 35.0924 23.4955 35.0924Z" fill="#50E6FF"/>
<path d="M30.0914 6.72963H25.9692V2.19522H21.0226V6.72963H16.9004V11.6763H21.0226V16.2107H25.9692V11.6763H30.0914V6.72963Z" fill="#50E6FF"/>
<path d="M12.4235 26.9309C11.9258 26.9304 11.4338 27.037 10.9808 27.2433L6.62032 22.8829L14.4772 15.0268L12.7278 13.2773L3.12305 22.8829L9.23296 28.992C8.99098 29.5254 8.88673 30.1111 8.92979 30.6953C8.97284 31.2795 9.16181 31.8435 9.47938 32.3358C9.79695 32.828 10.233 33.2327 10.7475 33.5127C11.262 33.7927 11.8386 33.9392 12.4244 33.9386C13.3536 33.9386 14.2449 33.5694 14.902 32.9123C15.5591 32.2552 15.9282 31.364 15.9282 30.4347C15.9282 29.5054 15.5591 28.6142 14.902 27.9571C14.2449 27.3 13.3536 26.9309 12.4244 26.9309H12.4235ZM12.4235 31.4653C12.2197 31.4653 12.0205 31.4048 11.851 31.2916C11.6815 31.1784 11.5494 31.0174 11.4714 30.8291C11.3934 30.6408 11.373 30.4336 11.4128 30.2337C11.4526 30.0338 11.5507 29.8501 11.6948 29.706C11.839 29.5619 12.0226 29.4637 12.2225 29.424C12.4224 29.3842 12.6296 29.4046 12.8179 29.4826C13.0062 29.5606 13.1672 29.6927 13.2804 29.8622C13.3936 30.0317 13.4541 30.2309 13.4541 30.4347C13.4537 30.7079 13.3449 30.9698 13.1518 31.1629C12.9586 31.3561 12.6967 31.4648 12.4235 31.4653Z" fill="#0078D4"/>
<path d="M44.5013 39.1068C44.0033 39.1068 43.5111 39.2134 43.0577 39.4192L35.1571 31.5178L43.7948 22.8802L40.2167 19.3021C40.423 18.8491 40.5296 18.3571 40.5292 17.8593C40.5292 17.1663 40.3237 16.4889 39.9387 15.9127C39.5536 15.3365 39.0064 14.8874 38.3662 14.6222C37.7259 14.357 37.0214 14.2876 36.3417 14.4228C35.662 14.558 35.0377 14.8917 34.5477 15.3817C34.0577 15.8718 33.724 16.4961 33.5888 17.1758C33.4536 17.8554 33.523 18.56 33.7882 19.2002C34.0533 19.8405 34.5024 20.3877 35.0787 20.7727C35.6549 21.1577 36.3323 21.3632 37.0253 21.3632C37.5231 21.3636 38.0151 21.2571 38.4681 21.0507L40.2975 22.8802L31.6582 31.5178L41.3041 41.1679C40.9928 41.8571 40.9129 42.6285 41.0764 43.3669C41.2399 44.1053 41.6379 44.771 42.211 45.2644C42.7841 45.7579 43.5015 46.0526 44.2559 46.1046C45.0104 46.1565 45.7614 45.9629 46.3968 45.5527C47.0321 45.1425 47.5176 44.5377 47.7808 43.8287C48.0439 43.1197 48.0706 42.3446 47.8567 41.6192C47.6428 40.8938 47.2 40.2571 46.5943 39.8042C45.9886 39.3514 45.2526 39.1067 44.4964 39.1068H44.5013ZM37.0253 18.8899C36.8215 18.8899 36.6222 18.8294 36.4528 18.7162C36.2833 18.603 36.1512 18.442 36.0732 18.2537C35.9952 18.0654 35.9748 17.8582 36.0146 17.6583C36.0543 17.4584 36.1525 17.2748 36.2966 17.1306C36.4407 16.9865 36.6243 16.8884 36.8243 16.8486C37.0242 16.8088 37.2314 16.8292 37.4197 16.9072C37.608 16.9852 37.7689 17.1173 37.8822 17.2868C37.9954 17.4563 38.0558 17.6555 38.0558 17.8593C38.0554 18.1325 37.9467 18.3944 37.7535 18.5876C37.5604 18.7807 37.2985 18.8894 37.0253 18.8899ZM44.5013 43.6412C44.2975 43.6412 44.0982 43.5807 43.9288 43.4675C43.7593 43.3543 43.6272 43.1933 43.5492 43.005C43.4712 42.8167 43.4508 42.6095 43.4906 42.4096C43.5303 42.2097 43.6285 42.026 43.7726 41.8819C43.9167 41.7378 44.1004 41.6397 44.3003 41.5999C44.5002 41.5601 44.7074 41.5805 44.8957 41.6585C45.084 41.7365 45.2449 41.8686 45.3582 42.0381C45.4714 42.2076 45.5319 42.4068 45.5319 42.6106C45.5319 42.8839 45.4233 43.1461 45.23 43.3393C45.0368 43.5326 44.7746 43.6412 44.5013 43.6412Z" fill="#0078D4"/>
<path d="M34.627 47.4541C34.627 44.5022 33.4544 41.6713 31.3671 39.584C29.2799 37.4968 26.4489 36.3241 23.4971 36.3241C20.5453 36.3241 17.7143 37.4968 15.6271 39.584C13.5398 41.6713 12.3672 44.5022 12.3672 47.4541H34.627Z" fill="#50E6FF"/>
</svg>
