<svg data-slug-id="health09" viewBox="0 0 48 49" xmlns="http://www.w3.org/2000/svg">
<path d="M42.6985 23.5838C42.6985 21.1962 40.7619 19.2596 38.3744 19.2596C35.9868 19.2596 34.0502 21.1962 34.0502 23.5838C34.0502 25.7896 35.7002 27.6073 37.8325 27.873V35.4446C37.8325 40.6776 33.5748 44.9318 28.3453 44.9318C23.1123 44.9318 18.858 40.6741 18.858 35.4446V29.9879C19.3894 29.7571 19.7599 29.2293 19.7599 28.6141V26.0203C22.7977 25.5973 25.4404 23.9403 27.1637 21.5703C27.4993 21.1089 27.5448 20.5251 27.328 20.0357C27.349 20.0077 27.37 19.9797 27.3875 19.9553C28.2719 18.7528 29.4849 15.9667 29.8974 13.5687C29.9323 13.3659 29.9673 13.1632 30.0022 12.9604C30.4252 10.5589 30.8622 8.0735 30.0477 6.40606C28.8801 4.00454 26.4996 3.63749 25.3705 3.60254C25.1747 2.84048 24.4896 2.28467 23.6716 2.28467C22.6963 2.28467 21.9063 3.07469 21.9063 4.04998C21.9063 5.02527 22.6963 5.81529 23.6716 5.81529C24.3183 5.81529 24.8811 5.46922 25.1887 4.95186C25.9368 4.94837 27.9223 5.12665 28.8312 6.99683C29.4499 8.27275 29.0339 10.6358 28.6669 12.7227C28.6319 12.929 28.5935 13.1352 28.5585 13.338C28.16 15.6626 26.989 18.2005 26.2968 19.1478C25.6886 18.973 25.0104 19.1897 24.6154 19.7351C23.1752 21.7101 20.8471 22.993 18.2183 22.993C15.9741 22.993 13.9501 22.0597 12.5099 20.56C12.1184 20.151 11.5486 20.0007 11.0277 20.1301C10.7271 19.798 10.437 19.4519 10.2167 19.1548C9.52459 18.2144 8.35005 15.6696 7.95154 13.3415C7.91659 13.1387 7.88163 12.9325 7.84318 12.7262C7.47613 10.6358 7.06015 8.26925 7.67888 6.99683C8.58775 5.12665 10.5733 4.94837 11.3214 4.95186C11.629 5.46922 12.1918 5.81529 12.8385 5.81529C13.8138 5.81529 14.6038 5.02527 14.6038 4.04998C14.6038 3.07469 13.8138 2.28467 12.8385 2.28467C12.0205 2.28467 11.3354 2.84048 11.1326 3.59554C10.0035 3.6305 7.62295 3.99755 6.4554 6.39907C5.6444 8.07 6.08136 10.5519 6.50084 12.9535C6.5358 13.1597 6.57425 13.3624 6.60571 13.5617C7.0182 15.9597 8.2312 18.7458 9.1156 19.9483C9.34981 20.2664 9.65044 20.623 9.95806 20.969C9.6854 21.5213 9.75181 22.2135 10.2097 22.6959C11.9051 24.4752 14.1878 25.6882 16.7466 26.0238V28.6071C16.7466 29.1594 17.0438 29.6383 17.4877 29.9005V35.4376C17.4877 41.4187 22.3537 46.2847 28.3348 46.2847C34.3159 46.2847 39.1819 41.4187 39.1819 35.4376V27.831C41.1884 27.4465 42.6985 25.6917 42.6985 23.5838ZM38.3744 25.9993C37.0425 25.9993 35.9623 24.9191 35.9623 23.5873C35.9623 22.2554 37.0425 21.1753 38.3744 21.1753C39.7062 21.1753 40.7864 22.2554 40.7864 23.5873C40.7899 24.9191 39.7097 25.9993 38.3744 25.9993Z" fill="#0078D4"/>
<path d="M38.3752 25.0204C39.1687 25.0204 39.8119 24.3772 39.8119 23.5837C39.8119 22.7902 39.1687 22.147 38.3752 22.147C37.5817 22.147 36.9385 22.7902 36.9385 23.5837C36.9385 24.3772 37.5817 25.0204 38.3752 25.0204Z" fill="#50E6FF"/>
</svg>
