<svg data-slug-id="health07" viewBox="0 0 48 48" xmlns="http://www.w3.org/2000/svg">
<path d="M42.756 21.4483C41.6338 13.0173 34.9496 6.34275 26.5186 5.22057V0H21.4736V5.21082C13.0427 6.34275 6.36813 13.0173 5.24595 21.4483H0.00585938V26.4932H5.24595C6.36813 34.9242 13.0427 41.6085 21.4736 42.7306V48H26.5186V42.7306C34.9496 41.6085 41.6338 34.9339 42.756 26.4932H47.9961V21.4483H42.756ZM33.8176 33.7825C31.2122 36.3879 27.6895 37.8516 24.001 37.8516C21.259 37.8516 18.5755 37.0417 16.2921 35.5097C14.0087 33.9874 12.2327 31.8211 11.1789 29.284C10.125 26.7469 9.85176 23.9561 10.3885 21.2629C10.9252 18.5696 12.2425 16.1008 14.1844 14.159C16.1262 12.2171 18.595 10.8998 21.2882 10.3631C23.9815 9.82639 26.7723 10.0996 29.3094 11.1535C31.8465 12.2074 34.0128 13.9833 35.535 16.2667C37.0573 18.5501 37.877 21.2336 37.877 23.9756C37.8867 27.6544 36.423 31.1771 33.8176 33.7825Z" fill="#0078D4"/>
<path d="M32.8808 25.2305H15.1309C13.7648 25.2305 12.6523 26.3429 12.6523 27.709C12.6523 29.0752 13.7648 30.1876 15.1309 30.1876H32.8808C34.247 30.1876 35.3594 29.0752 35.3594 27.709C35.3594 26.3429 34.247 25.2305 32.8808 25.2305Z" fill="#0078D4"/>
<path d="M15.1709 28.9707C15.8637 28.9707 16.4297 28.4047 16.4297 27.7119C16.4297 27.0191 15.8637 26.4531 15.1709 26.4531C14.4781 26.4531 13.9121 27.0191 13.9121 27.7119C13.9121 28.4047 14.4781 28.9707 15.1709 28.9707Z" fill="#50E6FF"/>
<path d="M32.8311 28.9707C33.5239 28.9707 34.0899 28.4047 34.0899 27.7119C34.0899 27.0191 33.5239 26.4531 32.8311 26.4531C32.1382 26.4531 31.5723 27.0191 31.5723 27.7119C31.5723 28.4047 32.1382 28.9707 32.8311 28.9707Z" fill="#50E6FF"/>
<path d="M20.8474 27.7119C20.8474 27.0191 20.2814 26.4531 19.5886 26.4531C18.8958 26.4531 18.3298 27.0191 18.3298 27.7119C18.3298 28.4047 18.8958 28.9707 19.5886 28.9707C20.2814 28.9707 20.8474 28.4047 20.8474 27.7119Z" fill="#50E6FF"/>
<path d="M25.2695 27.7119C25.2695 27.0191 24.7036 26.4531 24.0107 26.4531C23.3179 26.4531 22.752 27.0191 22.752 27.7119C22.752 28.4047 23.3179 28.9707 24.0107 28.9707C24.7036 28.9707 25.2695 28.4047 25.2695 27.7119Z" fill="#50E6FF"/>
<path d="M29.6797 27.7119C29.6797 27.0191 29.1137 26.4531 28.4209 26.4531C27.7281 26.4531 27.1621 27.0191 27.1621 27.7119C27.1621 28.4047 27.7281 28.9707 28.4209 28.9707C29.1137 28.9707 29.6797 28.4047 29.6797 27.7119Z" fill="#50E6FF"/>
<path d="M22.7031 18.9219H17.6582V23.9668H22.7031V18.9219Z" fill="#50E6FF"/>
</svg>
