<svg data-slug-id="health05" viewBox="0 0 48 49" xmlns="http://www.w3.org/2000/svg">
<rect x="1.96509" y="1.59375" width="44.0723" height="33.1461" fill="white"/>
<path d="M0 0.167969V38.0629H47.9982V0.167969H0ZM16.4204 12.7996H12.6311V16.5891H7.57867V12.7996H3.78933V7.74695H7.57867V3.95746H12.6311V7.74695H16.4204V12.7996ZM29.0516 19.1154H18.9467V12.7996C18.9467 11.4595 19.479 10.1744 20.4265 9.22683C21.374 8.27928 22.6591 7.74695 23.9991 7.74695C25.3391 7.74695 26.6242 8.27928 27.5717 9.22683C28.5193 10.1744 29.0516 11.4595 29.0516 12.7996V19.1154ZM40.4196 33.0102C39.9199 33.0102 39.4315 32.862 39.0161 32.5844C38.6006 32.3068 38.2768 31.9123 38.0856 31.4507C37.8944 30.989 37.8444 30.4811 37.9419 29.991C38.0394 29.501 38.28 29.0508 38.6333 28.6975C38.9866 28.3442 39.4367 28.1036 39.9267 28.0061C40.4168 27.9086 40.9247 27.9586 41.3863 28.1499C41.8479 28.3411 42.2425 28.6649 42.52 29.0803C42.7976 29.4958 42.9458 29.9842 42.9458 30.4839C42.9458 31.1539 42.6796 31.7965 42.2059 32.2703C41.7321 32.744 41.0896 33.0102 40.4196 33.0102Z" fill="#0078D4"/>
<path d="M29.0514 19.1172V25.433C29.0514 26.773 28.5191 28.0582 27.5716 29.0058C26.6241 29.9533 25.339 30.4857 23.999 30.4857C22.659 30.4857 21.3739 29.9533 20.4264 29.0058C19.4788 28.0582 18.9465 26.773 18.9465 25.433V19.1172H29.0514Z" fill="#50E6FF"/>
<path d="M35.3686 43.1133H12.6326V48.1659H35.3686V43.1133Z" fill="#0078D4"/>
<path d="M40.4212 10.2714C41.8164 10.2714 42.9475 9.14033 42.9475 7.74508C42.9475 6.34982 41.8164 5.21875 40.4212 5.21875C39.026 5.21875 37.895 6.34982 37.895 7.74508C37.895 9.14033 39.026 10.2714 40.4212 10.2714Z" fill="#50E6FF"/>
<path d="M40.4212 17.8495C41.8164 17.8495 42.9475 16.7185 42.9475 15.3232C42.9475 13.9279 41.8164 12.7969 40.4212 12.7969C39.026 12.7969 37.895 13.9279 37.895 15.3232C37.895 16.7185 39.026 17.8495 40.4212 17.8495Z" fill="#50E6FF"/>
<path d="M40.4212 25.4316C41.8164 25.4316 42.9475 24.3005 42.9475 22.9052C42.9475 21.51 41.8164 20.3789 40.4212 20.3789C39.026 20.3789 37.895 21.51 37.895 22.9052C37.895 24.3005 39.026 25.4316 40.4212 25.4316Z" fill="#50E6FF"/>
</svg>
