<svg data-slug-id="health04" viewBox="0 0 48 49" xmlns="http://www.w3.org/2000/svg">
<path d="M0 0.714844H46.993L23.466 24.2427L0 0.714844Z" fill="#50E6FF"/>
<path d="M23.4955 35.2605C26.2274 35.2605 28.4421 33.0458 28.4421 30.3138C28.4421 27.5819 26.2274 25.3672 23.4955 25.3672C20.7635 25.3672 18.5488 27.5819 18.5488 30.3138C18.5488 33.0458 20.7635 35.2605 23.4955 35.2605Z" fill="#0078D4"/>
<path d="M30.0917 6.89769H25.9695V2.36328H21.0228V6.89769H16.9006V11.8443H21.0228V16.3787H25.9695V11.8443H30.0917V6.89769Z" fill="#0078D4"/>
<path d="M12.4235 27.0988C11.9258 27.0984 11.4338 27.205 10.9808 27.4113L6.62032 23.0508L14.4772 15.1948L12.7278 13.4453L3.12305 23.0508L9.23296 29.1599C8.99098 29.6934 8.88673 30.2791 8.92979 30.8633C8.97284 31.4475 9.16181 32.0115 9.47938 32.5038C9.79695 32.996 10.233 33.4007 10.7475 33.6807C11.262 33.9607 11.8386 34.1072 12.4244 34.1066C13.3536 34.1066 14.2449 33.7374 14.902 33.0803C15.5591 32.4232 15.9282 31.532 15.9282 30.6027C15.9282 29.6734 15.5591 28.7822 14.902 28.1251C14.2449 27.468 13.3536 27.0988 12.4244 27.0988H12.4235ZM12.4235 31.6333C12.2197 31.6333 12.0205 31.5728 11.851 31.4596C11.6815 31.3463 11.5494 31.1854 11.4714 30.9971C11.3934 30.8088 11.373 30.6016 11.4128 30.4017C11.4526 30.2017 11.5507 30.0181 11.6948 29.874C11.839 29.7299 12.0226 29.6317 12.2225 29.592C12.4224 29.5522 12.6296 29.5726 12.8179 29.6506C13.0062 29.7286 13.1672 29.8607 13.2804 30.0302C13.3936 30.1996 13.4541 30.3989 13.4541 30.6027C13.4537 30.8759 13.3449 31.1378 13.1518 31.3309C12.9586 31.5241 12.6967 31.6328 12.4235 31.6333Z" fill="#50E6FF"/>
<path d="M44.5013 39.2747C44.0033 39.2748 43.5111 39.3813 43.0577 39.5872L35.1571 31.6858L43.7948 23.0481L40.2167 19.4701C40.423 19.0171 40.5296 18.5251 40.5292 18.0273C40.5292 17.3343 40.3237 16.6569 39.9387 16.0807C39.5536 15.5045 39.0064 15.0554 38.3662 14.7902C37.7259 14.525 37.0214 14.4556 36.3417 14.5908C35.662 14.726 35.0377 15.0597 34.5477 15.5497C34.0577 16.0397 33.724 16.6641 33.5888 17.3437C33.4536 18.0234 33.523 18.7279 33.7882 19.3682C34.0533 20.0084 34.5024 20.5557 35.0787 20.9407C35.6549 21.3257 36.3323 21.5312 37.0253 21.5312C37.5231 21.5316 38.0151 21.425 38.4681 21.2187L40.2975 23.0481L31.6582 31.6858L41.3041 41.3358C40.9928 42.0251 40.9129 42.7965 41.0764 43.5349C41.2399 44.2733 41.6379 44.9389 42.211 45.4324C42.7841 45.9258 43.5015 46.2206 44.2559 46.2725C45.0104 46.3245 45.7614 46.1309 46.3968 45.7207C47.0321 45.3105 47.5176 44.7057 47.7808 43.9967C48.0439 43.2877 48.0706 42.5126 47.8567 41.7872C47.6428 41.0618 47.2 40.4251 46.5943 39.9722C45.9886 39.5194 45.2526 39.2747 44.4964 39.2747H44.5013ZM37.0253 19.0579C36.8215 19.0579 36.6222 18.9974 36.4528 18.8842C36.2833 18.7709 36.1512 18.61 36.0732 18.4217C35.9952 18.2334 35.9748 18.0262 36.0146 17.8263C36.0543 17.6263 36.1525 17.4427 36.2966 17.2986C36.4407 17.1545 36.6243 17.0563 36.8243 17.0166C37.0242 16.9768 37.2314 16.9972 37.4197 17.0752C37.608 17.1532 37.7689 17.2853 37.8822 17.4548C37.9954 17.6242 38.0558 17.8235 38.0558 18.0273C38.0554 18.3005 37.9467 18.5624 37.7535 18.7555C37.5604 18.9487 37.2985 19.0574 37.0253 19.0579ZM44.5013 43.8091C44.2975 43.8091 44.0982 43.7487 43.9288 43.6355C43.7593 43.5222 43.6272 43.3613 43.5492 43.173C43.4712 42.9847 43.4508 42.7775 43.4906 42.5776C43.5303 42.3776 43.6285 42.194 43.7726 42.0499C43.9167 41.9058 44.1004 41.8076 44.3003 41.7679C44.5002 41.7281 44.7074 41.7485 44.8957 41.8265C45.084 41.9045 45.2449 42.0366 45.3582 42.2061C45.4714 42.3755 45.5319 42.5748 45.5319 42.7786C45.5319 43.0519 45.4233 43.314 45.23 43.5073C45.0368 43.7006 44.7746 43.8091 44.5013 43.8091Z" fill="#50E6FF"/>
<path d="M34.6273 47.6221C34.6273 44.6703 33.4547 41.8393 31.3674 39.7521C29.2801 37.6648 26.4492 36.4922 23.4974 36.4922C20.5455 36.4922 17.7146 37.6648 15.6273 39.7521C13.54 41.8393 12.3674 44.6703 12.3674 47.6221H34.6273Z" fill="#0078D4"/>
</svg>
