<svg data-slug-id="help-support" viewBox="0 0 48 48" xmlns="http://www.w3.org/2000/svg">
    <path d="M39.18 46.9976C39.6286 47.0147 40.0762 46.9424 40.496 46.7849C40.9159 46.6273 41.2995 46.3879 41.6241 46.0807C41.9487 45.7735 42.2077 45.4048 42.3856 44.9966C42.5636 44.5884 42.6569 44.1489 42.66 43.7042V43.2957C41.3453 32.905 35.3391 24.4546 23.9195 24.4546C12.4999 24.4546 6.1843 31.6796 5.02429 43.3213C4.97068 43.7581 5.00601 44.2012 5.12821 44.6243C5.2504 45.0474 5.45697 45.442 5.73572 45.7847C6.01447 46.1274 6.35974 46.4113 6.75114 46.6196C7.14254 46.8279 7.57213 46.9565 8.01453 46.9976H39.18Z" fill="url(#help-support_paint0_linear)"/>
    <path opacity="0.8" d="M23.7897 26.9026C21.7675 26.9147 19.7863 26.3376 18.0927 25.2432L23.7381 39.8463L29.3577 25.3453C27.6846 26.3685 25.756 26.9079 23.7897 26.9026Z" fill="white"/>
    <path d="M23.7896 26.8988C29.5981 26.8988 34.3069 22.2353 34.3069 16.4825C34.3069 10.7298 29.5981 6.06628 23.7896 6.06628C17.981 6.06628 13.2722 10.7298 13.2722 16.4825C13.2722 22.2353 17.981 26.8988 23.7896 26.8988Z" fill="url(#help-support_paint1_linear)"/>
    <path d="M39.5667 19.4969C39.9415 17.3341 39.8625 15.118 39.3347 12.9868C38.4886 9.64903 36.5655 6.67604 33.8577 4.51953C31.1498 2.36301 27.8052 1.14085 24.332 1.03873C21.6476 0.841417 18.9616 1.40087 16.5849 2.65236C14.2082 3.90385 12.2378 5.79622 10.9017 8.11054C10.6886 8.44631 10.6178 8.85178 10.7046 9.23894C10.7915 9.6261 11.0291 9.9637 11.3657 10.1785C11.6742 10.3717 12.0471 10.4372 12.4039 10.3608C12.7607 10.2844 13.0729 10.0722 13.2733 9.76999C14.3512 7.88391 15.9426 6.33576 17.866 5.30207C19.7894 4.26838 21.9673 3.79074 24.1515 3.92362C26.9384 3.9988 29.629 4.94945 31.8346 6.63823C34.0402 8.32701 35.6466 10.6665 36.4218 13.3187C36.923 15.1393 37.0371 17.0432 36.7569 18.9097C36.4264 19.0424 36.1299 19.2465 35.8891 19.5071C35.6483 19.7677 35.4692 20.0782 35.3649 20.416L34.6689 22.7137C34.4835 23.3197 34.5475 23.9737 34.8469 24.5332C35.1462 25.0927 35.6567 25.5124 36.2671 25.7007C36.8951 25.8479 37.5559 25.7565 38.1191 25.4445C38.6823 25.1325 39.1069 24.6227 39.3089 24.0157L40.0049 21.718C40.1267 21.3412 40.1504 20.9401 40.0737 20.5518C39.9971 20.1635 39.8227 19.8006 39.5667 19.4969Z" fill="#767676"/>
    <defs>
        <linearGradient id="help-support_paint0_linear" x1="23.7648" y1="21.6973" x2="23.7648" y2="52.5631" gradientUnits="userSpaceOnUse">
            <stop offset="0.22" stop-color="#32D4F5"/>
            <stop offset="0.47" stop-color="#31D1F3"/>
            <stop offset="0.63" stop-color="#2EC9EB"/>
            <stop offset="0.77" stop-color="#29BADE"/>
            <stop offset="0.89" stop-color="#22A5CB"/>
            <stop offset="1" stop-color="#198AB3"/>
        </linearGradient>
        <linearGradient id="help-support_paint1_linear" x1="188.492" y1="39.6066" x2="206.65" y2="268.375" gradientUnits="userSpaceOnUse">
            <stop offset="0.22" stop-color="#32D4F5"/>
            <stop offset="0.47" stop-color="#31D1F3"/>
            <stop offset="0.63" stop-color="#2EC9EB"/>
            <stop offset="0.77" stop-color="#29BADE"/>
            <stop offset="0.89" stop-color="#22A5CB"/>
            <stop offset="1" stop-color="#198AB3"/>
        </linearGradient>
    </defs>
</svg>
