<svg data-slug-id="iot-energy" viewBox="0 0 48 49" xmlns="http://www.w3.org/2000/svg">
<path d="M20.1718 36.9373H19.7557V37.0421H20.1718V36.9373Z" fill="white"/>
<path d="M13.7031 10.3654C18.3357 10.9488 23.7805 12.9335 29.0273 15.9625C34.274 18.9907 38.7161 22.7147 41.5371 26.4344C44.4688 30.3023 45.3117 33.7582 43.9204 36.169C42.529 38.5781 39.113 39.5767 34.299 38.9717C29.6663 38.3892 24.2215 36.4036 18.9748 33.3746C13.728 30.3464 9.28598 26.6225 6.46497 22.9027C3.53411 19.0349 2.6903 15.5797 4.08167 13.169C5.47304 10.7582 8.88738 9.76046 13.7031 10.3654ZM40.5676 27.175C37.8456 23.5759 33.5276 19.9744 28.4164 17.0227C23.3053 14.071 18.0236 12.1338 13.5466 11.5746C9.31344 11.0445 7.11571 12.3535 6.00478 14.2807C4.89219 16.2072 4.8589 18.7652 7.43277 22.1654C10.1548 25.7645 14.4728 29.3661 19.5839 32.3178C24.695 35.2694 29.9751 37.205 34.4537 37.7642C38.6869 38.2943 40.8788 36.9928 41.9956 35.058C43.1123 33.1258 43.144 30.5752 40.5676 27.175Z" fill="#3BCAF4"/>
<path d="M23.9994 47.6689C21.2167 47.6689 18.6461 45.2108 16.7613 40.7371C14.9497 36.4348 13.9469 30.7254 13.9469 24.6664C13.9469 18.6075 14.9497 12.8989 16.7613 8.59582C18.647 4.12714 21.2167 1.66895 23.9994 1.66895C26.7821 1.66895 29.3527 4.12714 31.2375 8.60082C33.0491 12.9031 34.0519 18.6125 34.0519 24.6714C34.0519 30.7304 33.0491 36.439 31.2375 40.7421C29.3527 45.2108 26.783 47.6689 23.9994 47.6689ZM23.9994 3.88914C21.7667 3.88914 19.5424 5.13738 17.8855 9.06849C16.1313 13.2243 15.1685 18.7648 15.1685 24.6698C15.1685 30.5748 16.1313 36.1128 17.8855 40.2711C19.5432 44.2013 21.7759 45.4504 23.9994 45.4504C26.2229 45.4504 28.4564 44.2022 30.1133 40.2711C31.8674 36.1153 32.8302 30.5748 32.8302 24.6698C32.8302 18.7648 31.8683 13.2259 30.1133 9.06766C28.4564 5.13738 26.2329 3.88914 23.9994 3.88914Z" fill="#50E6FF"/>
<path d="M43.9183 13.1689C45.3097 15.578 44.4667 19.0356 41.535 22.9035C38.7157 26.6232 34.2719 30.3463 29.0252 33.3753C23.7784 36.4044 18.3336 38.3916 13.701 38.9724C8.88532 39.5774 5.47181 38.5788 4.07961 36.1697C2.68824 33.7606 3.53122 30.303 6.46291 26.4351C9.28226 22.7154 13.726 18.9923 18.9727 15.9633C24.2195 12.935 29.6643 10.9478 34.2969 10.3662C39.1134 9.76036 42.5269 10.7598 43.9183 13.1689ZM6.00439 35.0579C7.12115 36.9902 9.31305 38.2917 13.5462 37.7641C18.0232 37.2049 23.3033 35.2693 28.4161 32.3177C33.5288 29.366 37.8444 25.7619 40.5672 22.1653C43.1427 18.7643 43.1086 16.2071 41.9952 14.2806C40.8826 12.3542 38.6865 11.0469 34.4534 11.5745C29.9763 12.1337 24.6963 14.0693 19.5835 17.0209C14.4708 19.9726 10.1552 23.5758 7.4332 27.1749C4.85685 30.5751 4.88847 33.1257 6.00439 35.0579Z" fill="#0078D4"/>
<path d="M14.0825 20.9492L15.3507 20.0787L15.6204 17.8186L14.2856 18.7315L14.0825 20.9492Z" fill="#50E6FF"/>
<path d="M32.3647 18.0566L32.5445 19.6552L33.9467 20.7004L33.8002 19.0702L32.3647 18.0566Z" fill="#3BCAF4"/>
<path d="M8.59939 23.5986L9.72862 24.8286L8.93641 25.7414L7.79802 24.5165L8.59939 23.5986Z" fill="#3BCAF4"/>
<path d="M30.6886 10.5476L31.2936 12.4491L32.4503 12.1171L31.8877 10.3296L30.6886 10.5476Z" fill="#50E6FF"/>
<path d="M20.8828 32.7168L27.2804 24.7439H23.0888L20.8828 32.7168Z" fill="#0078D4"/>
<path d="M20.2826 25.5949L22.809 25.7522L27.9201 17.6528H22.4886L20.2826 25.5949Z" fill="url(#iot-energy_paint0_linear)"/>
<defs>
<linearGradient id="iot-energy_paint0_linear" x1="24.1013" y1="25.7494" x2="24.1013" y2="17.6543" gradientUnits="userSpaceOnUse">
<stop stop-color="#0078D4"/>
<stop offset="0.16" stop-color="#1380DA"/>
<stop offset="0.53" stop-color="#3C91E5"/>
<stop offset="0.82" stop-color="#559CEC"/>
<stop offset="1" stop-color="#5EA0EF"/>
</linearGradient>
</defs>
</svg>
