<svg data-slug-id="iot-hub02" viewBox="0 0 48 48" xmlns="http://www.w3.org/2000/svg">
<path d="M30.4805 27.8087C33.4124 27.8087 35.7892 25.432 35.7892 22.5001C35.7892 19.5682 33.4124 17.1914 30.4805 17.1914C27.5486 17.1914 25.1719 19.5682 25.1719 22.5001C25.1719 25.432 27.5486 27.8087 30.4805 27.8087Z" fill="white"/>
<path d="M39.3722 42.4709C41.679 42.4709 43.549 40.6009 43.549 38.294C43.549 35.9872 41.679 34.1172 39.3722 34.1172C37.0654 34.1172 35.1953 35.9872 35.1953 38.294C35.1953 40.6009 37.0654 42.4709 39.3722 42.4709Z" fill="white"/>
<path d="M22.8535 39.0215C24.8329 39.0215 26.4376 37.4169 26.4376 35.4375C26.4376 33.4581 24.8329 31.8535 22.8535 31.8535C20.8741 31.8535 19.2695 33.4581 19.2695 35.4375C19.2695 37.4169 20.8741 39.0215 22.8535 39.0215Z" fill="white"/>
<path d="M20.2666 12.588C22.7223 12.588 24.713 10.5973 24.713 8.14165C24.713 5.686 22.7223 3.69531 20.2666 3.69531C17.811 3.69531 15.8203 5.686 15.8203 8.14165C15.8203 10.5973 17.811 12.588 20.2666 12.588Z" fill="white"/>
<path d="M8.35745 28.1055C10.3369 28.1055 11.9415 26.5009 11.9415 24.5215C11.9415 22.5421 10.3369 20.9375 8.35745 20.9375C6.37806 20.9375 4.77344 22.5421 4.77344 24.5215C4.77344 26.5009 6.37806 28.1055 8.35745 28.1055Z" fill="white"/>
<path d="M40.3445 37.4546L31.3709 21.7442L30.4817 22.2562L31.2093 21.7173L21.0501 7.27344L19.1907 8.62081L28.1911 21.4209L8.25 23.0647L8.43863 25.3822L28.1911 23.7384L21.6429 34.6251L23.6101 35.8108L30.3469 24.6007L38.3503 38.5864L40.3445 37.4546Z" fill="#989898"/>
<path d="M30.4536 27.8056C33.3706 27.8056 35.7353 25.4409 35.7353 22.5239C35.7353 19.6069 33.3706 17.2422 30.4536 17.2422C27.5366 17.2422 25.1719 19.6069 25.1719 22.5239C25.1719 25.4409 27.5366 27.8056 30.4536 27.8056Z" fill="url(#iot-hub02_paint0_linear)"/>
<path d="M20.2936 12.6419C22.7641 12.6419 24.7669 10.6391 24.7669 8.1686C24.7669 5.69807 22.7641 3.69531 20.2936 3.69531C17.8231 3.69531 15.8203 5.69807 15.8203 8.1686C15.8203 10.6391 17.8231 12.6419 20.2936 12.6419Z" fill="url(#iot-hub02_paint1_linear)"/>
<path d="M8.35745 28.0841C10.3369 28.0841 11.9415 26.4794 11.9415 24.5C11.9415 22.5206 10.3369 20.916 8.35745 20.916C6.37806 20.916 4.77344 22.5206 4.77344 24.5C4.77344 26.4794 6.37806 28.0841 8.35745 28.0841Z" fill="url(#iot-hub02_paint2_linear)"/>
<path d="M22.8535 39.0215C24.8329 39.0215 26.4376 37.4169 26.4376 35.4375C26.4376 33.4581 24.8329 31.8535 22.8535 31.8535C20.8741 31.8535 19.2695 33.4581 19.2695 35.4375C19.2695 37.4169 20.8741 39.0215 22.8535 39.0215Z" fill="url(#iot-hub02_paint3_linear)"/>
<path d="M46.0029 14.0426H42.2303C41.973 14.0426 41.7263 13.9404 41.5443 13.7585C41.3624 13.5765 41.2602 13.3298 41.2602 13.0725V1.1078H45.0328C45.5546 1.1078 46.0549 1.31505 46.4238 1.68397C46.7927 2.05289 47 2.55324 47 3.07497V13.0725C47 13.2022 46.9741 13.3306 46.9237 13.4501C46.8732 13.5696 46.7994 13.6777 46.7064 13.7682C46.6134 13.8586 46.5033 13.9295 46.3825 13.9766C46.2616 14.0238 46.1326 14.0462 46.0029 14.0426Z" fill="#999999"/>
<path d="M47 3.04857V6.84817L34.9006 6.84817C34.7686 6.85189 34.6373 6.82864 34.5147 6.77985C34.392 6.73106 34.2806 6.65775 34.1873 6.56441C34.0939 6.47108 34.0206 6.35967 33.9718 6.23702C33.923 6.11437 33.8998 5.98306 33.9035 5.85111V2.07846C33.888 1.94001 33.9024 1.79983 33.9459 1.66746C33.9893 1.5351 34.0608 1.41364 34.1554 1.31136C34.25 1.20909 34.3655 1.12839 34.4941 1.07476C34.6227 1.02113 34.7613 0.99582 34.9006 1.00056L45.0598 1.00056C45.5744 1.00056 46.0679 1.20498 46.4317 1.56884C46.7956 1.9327 47 2.4262 47 2.94078V3.04857Z" fill="#B3B3B3"/>
<path d="M2.0244 33.9805H5.79705C6.05434 33.9805 6.30109 34.0827 6.48302 34.2646C6.66495 34.4465 6.76716 34.6933 6.76716 34.9506V46.9153H2.99451C2.47279 46.9153 1.97243 46.708 1.60351 46.3391C1.2346 45.9702 1.02734 45.4698 1.02734 44.9481V34.9775C1.02734 34.7202 1.12955 34.4735 1.31148 34.2916C1.49341 34.1096 1.74016 34.0074 1.99745 34.0074L2.0244 33.9805Z" fill="#999999"/>
<path d="M1 44.9733L1 41.0659H13.0994C13.3567 41.0659 13.6035 41.1681 13.7854 41.35C13.9673 41.5319 14.0695 41.7787 14.0695 42.036V45.9164C14.0695 46.1737 13.9673 46.4205 13.7854 46.6024C13.6035 46.7843 13.3567 46.8865 13.0994 46.8865H2.96717C2.71237 46.8901 2.45936 46.8434 2.2226 46.7492C1.98583 46.655 1.76995 46.515 1.58728 46.3374C1.4046 46.1597 1.25872 45.9478 1.15795 45.7137C1.05719 45.4797 1.00351 45.2281 1 44.9733V44.9733Z" fill="#B3B3B3"/>
<path d="M39.3722 42.5022C41.679 42.5022 43.549 40.6321 43.549 38.3253C43.549 36.0185 41.679 34.1484 39.3722 34.1484C37.0654 34.1484 35.1953 36.0185 35.1953 38.3253C35.1953 40.6321 37.0654 42.5022 39.3722 42.5022Z" fill="url(#iot-hub02_paint4_linear)"/>
<defs>
<linearGradient id="iot-hub02_paint0_linear" x1="48.3871" y1="16.9323" x2="48.3602" y2="6.36888" gradientUnits="userSpaceOnUse">
<stop stop-color="#198AB3"/>
<stop offset="0.11" stop-color="#22A5CB"/>
<stop offset="0.23" stop-color="#29BADE"/>
<stop offset="0.37" stop-color="#2EC9EB"/>
<stop offset="0.53" stop-color="#31D1F3"/>
<stop offset="0.78" stop-color="#32D4F5"/>
</linearGradient>
<linearGradient id="iot-hub02_paint1_linear" x1="26669.6" y1="-46377.9" x2="26669.4" y2="-46318.7" gradientUnits="userSpaceOnUse">
<stop stop-color="#198AB3"/>
<stop offset="0.11" stop-color="#22A5CB"/>
<stop offset="0.23" stop-color="#29BADE"/>
<stop offset="0.37" stop-color="#2EC9EB"/>
<stop offset="0.53" stop-color="#31D1F3"/>
<stop offset="0.78" stop-color="#32D4F5"/>
</linearGradient>
<linearGradient id="iot-hub02_paint2_linear" x1="21296.6" y1="-37222.8" x2="21296.6" y2="-37184.6" gradientUnits="userSpaceOnUse">
<stop stop-color="#198AB3"/>
<stop offset="0.11" stop-color="#22A5CB"/>
<stop offset="0.23" stop-color="#29BADE"/>
<stop offset="0.37" stop-color="#2EC9EB"/>
<stop offset="0.53" stop-color="#31D1F3"/>
<stop offset="0.78" stop-color="#32D4F5"/>
</linearGradient>
<linearGradient id="iot-hub02_paint3_linear" x1="21388.5" y1="-37269.7" x2="21388.3" y2="-37231.5" gradientUnits="userSpaceOnUse">
<stop stop-color="#198AB3"/>
<stop offset="0.11" stop-color="#22A5CB"/>
<stop offset="0.23" stop-color="#29BADE"/>
<stop offset="0.37" stop-color="#2EC9EB"/>
<stop offset="0.53" stop-color="#31D1F3"/>
<stop offset="0.78" stop-color="#32D4F5"/>
</linearGradient>
<linearGradient id="iot-hub02_paint4_linear" x1="25041.6" y1="-43458.8" x2="25041.5" y2="-43407.1" gradientUnits="userSpaceOnUse">
<stop stop-color="#198AB3"/>
<stop offset="0.11" stop-color="#22A5CB"/>
<stop offset="0.23" stop-color="#29BADE"/>
<stop offset="0.37" stop-color="#2EC9EB"/>
<stop offset="0.53" stop-color="#31D1F3"/>
<stop offset="0.78" stop-color="#32D4F5"/>
</linearGradient>
</defs>
</svg>
