<svg data-slug-id="iot-hub01" viewBox="0 0 48 48" xmlns="http://www.w3.org/2000/svg">
<path fill-rule="evenodd" clip-rule="evenodd" d="M38.0447 33.2816C37.7715 33.2816 37.5055 33.3134 37.2486 33.3687L33.1632 26.2093C34.1402 25.3181 34.7635 24.0458 34.7635 22.6174C34.7635 19.9266 32.5896 17.7458 29.9073 17.7458C29.2116 17.7458 28.553 17.8983 27.9541 18.1633L23.685 12.0711C24.283 11.3606 24.6575 10.454 24.6575 9.45115C24.6575 7.19688 22.8355 5.36914 20.5892 5.36914C18.3421 5.36914 16.521 7.19688 16.521 9.45115C16.521 11.7054 18.3421 13.5322 20.5892 13.5322C21.0732 13.5322 21.5319 13.4324 21.9634 13.2772L26.2687 19.422C25.6789 20.0972 25.2736 20.9294 25.1279 21.8569L12.5694 22.9023C12.0148 21.875 10.9428 21.169 9.69528 21.169C7.88324 21.169 6.41406 22.6419 6.41406 24.4605C6.41406 26.2783 7.88324 27.7521 9.69528 27.7521C11.3282 27.7521 12.6707 26.5524 12.9231 24.9869L25.2618 23.9596C25.488 24.7473 25.9078 25.4506 26.4614 26.0215L23.343 31.2143C23.2128 31.1988 23.0852 31.1753 22.9513 31.1753C21.1393 31.1753 19.6701 32.6491 19.6701 34.4668C19.6701 36.2846 21.1393 37.7584 22.9513 37.7584C24.7634 37.7584 26.2325 36.2846 26.2325 34.4668C26.2325 33.5475 25.8553 32.718 25.2501 32.1209L28.221 27.1749C28.7466 27.3728 29.312 27.488 29.9073 27.488C30.4085 27.488 30.8825 27.39 31.3366 27.2493L35.3968 34.3643C34.6848 35.0585 34.2388 36.025 34.2388 37.0995C34.2388 39.2086 35.9432 40.9183 38.0447 40.9183C40.1472 40.9183 41.8515 39.2086 41.8515 37.0995C41.8515 34.9914 40.1472 33.2816 38.0447 33.2816Z" fill="#0072C6"/>
<path fill-rule="evenodd" clip-rule="evenodd" d="M44.3432 3H33.7125C33.318 3 33.0557 3.26318 33.0557 3.79045V7.60836C33.0557 8.00313 33.318 8.26631 33.7125 8.26631H39.7493V14.1915C39.7493 14.5863 40.0116 14.8494 40.5372 14.8494H44.3432C44.7376 14.8494 44.9999 14.5863 44.9999 14.1915V3.65886C44.9999 3.26318 44.7376 3 44.3432 3Z" fill="#0072C6"/>
<path fill-rule="evenodd" clip-rule="evenodd" d="M3.65679 44.9998H14.2875C14.6819 44.9998 14.9443 44.7357 14.9443 44.2094V40.3915C14.9443 39.9967 14.6819 39.7335 14.2875 39.7335H8.25067V33.8083C8.25067 33.4136 7.98831 33.1504 7.46271 33.1504H3.65679C3.26326 33.1504 3 33.4136 3 33.8083V44.341C3 44.7357 3.26326 44.9998 3.65679 44.9998Z" fill="#0072C6"/>
</svg>
