<svg data-slug-id="java01" viewBox="0 0 49 48" xmlns="http://www.w3.org/2000/svg">
<path d="M28.0905 3.07715C28.7142 3.84497 29.0261 4.84314 28.7922 5.84132C28.5583 6.91627 28.0125 7.91444 27.2329 8.68227C26.6871 9.37331 25.9854 9.91079 25.2837 10.4483C24.4261 11.0625 23.7244 11.8303 23.1786 12.675C22.7108 13.4428 22.6329 14.2874 22.9447 15.0552C23.4125 16.4373 24.5041 17.4355 25.1278 18.664C24.4261 18.0497 23.8024 17.5122 23.1786 16.8212C22.5549 16.2069 21.9312 15.4391 21.5414 14.5945C21.2295 13.9803 21.1515 13.366 21.3854 12.675C21.6193 12.0607 22.0091 11.5232 22.4769 11.0625C23.7244 9.834 25.3617 8.83583 26.6091 7.60731C27.3108 6.91627 27.8566 6.07166 28.0905 5.07349C28.2464 4.53602 28.2464 3.76819 28.0905 3.07715Z" fill="#E92D2F"/>
<path d="M25.2837 18.9707L25.1278 18.894C24.3481 18.2029 23.7244 17.6654 23.1786 17.0512C22.4769 16.3601 21.9312 15.6691 21.5414 14.8245C21.2295 14.2102 21.1515 13.5192 21.3854 12.9049C21.6193 12.2907 22.0091 11.7532 22.5549 11.2925C23.1786 10.6782 23.8803 10.1408 24.582 9.60329C25.2837 9.06581 26.0634 8.45155 26.6871 7.76051C27.3888 7.06947 27.9346 6.22486 28.1685 5.22669C28.2464 4.53565 28.1685 3.76782 28.0125 3.07678L28.0905 3V3.07678C28.7142 3.84461 29.0261 4.91956 28.7922 5.84095C28.5583 6.9159 28.0125 7.91408 27.2329 8.75868C26.6871 9.44973 25.9854 9.9872 25.2837 10.5247C24.4261 11.1389 23.7244 11.83 23.1786 12.7514C22.7888 13.4424 22.6329 14.3638 22.9447 15.1316C23.1786 15.8995 23.6464 16.5137 24.1142 17.2048C24.5041 17.7422 24.8159 18.2029 25.1278 18.8172L25.2837 18.9707ZM28.1685 3.23035C28.3244 3.92139 28.3244 4.61243 28.1685 5.22669C27.9346 6.22486 27.3888 7.06947 26.6871 7.76051C26.0634 8.45155 25.2837 8.98903 24.582 9.60329C23.8803 10.1408 23.1786 10.6782 22.5549 11.2925C22.0871 11.7532 21.6973 12.2907 21.4634 12.9049C21.3075 13.5192 21.3854 14.2102 21.6193 14.7477C22.0091 15.5923 22.5549 16.2834 23.2566 16.9744C23.8024 17.5119 24.3481 18.0494 25.0498 18.6636C24.8159 18.1261 24.4261 17.6654 24.1142 17.2048C23.6464 16.5905 23.1786 15.8995 22.9447 15.1316C22.6329 14.287 22.7108 13.4424 23.1786 12.6746C23.7244 11.83 24.4261 11.0622 25.2837 10.4479C25.9854 9.91042 26.6091 9.29616 27.2329 8.6819C28.0125 7.91408 28.4803 6.9159 28.7922 5.84095C28.9481 4.91956 28.7142 3.99817 28.1685 3.23035Z" fill="#E92D2F"/>
<path d="M26.9989 11.0619C28.4023 10.0637 29.9617 9.37268 31.5989 8.98877C30.2735 9.75659 29.0261 10.6012 27.8566 11.5994C27.3888 11.9833 27.0769 12.444 26.921 12.9815C26.765 13.3654 26.843 13.8261 26.9989 14.21C27.3888 14.8242 27.7786 15.4385 28.1684 16.0528C28.4803 16.5902 28.5583 17.2813 28.3244 17.8188C27.9345 18.5866 27.2328 19.2776 26.4532 19.7383C26.3752 19.8151 26.2972 19.8919 26.1413 19.8919C26.6871 19.4312 26.9989 18.8169 26.9989 18.1259C26.921 17.5884 26.6871 17.1277 26.3752 16.8206C25.5955 16.0528 25.2057 14.9778 25.2057 13.8261C25.4396 12.5975 26.0633 11.6762 26.9989 11.0619Z" fill="#E92D2F"/>
<path d="M25.9854 19.892L26.0633 19.8152C26.6091 19.3545 26.921 18.7403 26.921 18.0492C26.843 17.5885 26.6871 17.051 26.2972 16.7439C25.5176 15.9761 25.0498 14.8244 25.1277 13.7494C25.3616 12.6744 25.9854 11.6763 26.921 11.062C28.3243 10.0638 29.8837 9.3728 31.521 8.98889L31.7549 8.91211L31.521 9.06567C30.1955 9.8335 28.9481 10.6781 27.7786 11.6763C27.3888 12.0602 26.9989 12.5209 26.843 13.0584C26.6871 13.4423 26.765 13.903 26.921 14.2101C27.3108 14.8244 27.7006 15.4386 28.0904 16.0529C28.4023 16.5904 28.4803 17.2814 28.2464 17.8189C27.7786 18.6635 27.1549 19.2777 26.3752 19.7384L26.2972 19.8152C26.2193 19.892 26.1413 19.892 26.0633 19.892H25.9854ZM27.1549 10.9852L27.0769 11.062C26.1413 11.6763 25.5176 12.5977 25.2837 13.6726C25.2837 14.7476 25.6735 15.8225 26.4532 16.5904C26.843 16.9743 27.0769 17.435 27.0769 17.9724C27.0769 18.5867 26.843 19.1242 26.3752 19.5849C27.1549 19.1242 27.8565 18.5099 28.2464 17.6653C28.4803 17.1278 28.4023 16.4368 28.0904 15.8993C27.6226 15.3618 27.2328 14.7476 26.921 14.0565C26.765 13.6726 26.6871 13.2119 26.843 12.828C27.0769 12.2905 27.3888 11.8298 27.8565 11.4459C28.9481 10.5245 30.1176 9.67993 31.365 8.98889C29.8837 9.44959 28.4023 10.1406 27.1549 10.9852Z" fill="#E92D2F"/>
<path d="M31.9108 19.1244C32.2227 18.8172 32.6905 18.6637 33.1583 18.5869C33.938 18.5101 34.7176 18.6637 35.2634 19.2012C35.7312 19.5851 35.9651 20.2761 35.8871 20.8904C35.7312 21.5814 35.3413 22.1957 34.7176 22.6564C33.7041 23.4242 32.5346 23.9617 31.2091 24.192C31.2871 24.1152 31.3651 24.0385 31.443 23.9617C32.3786 23.501 33.3142 22.8867 34.0159 22.0421C34.4837 21.5814 34.7176 20.8904 34.6396 20.1993C34.4837 19.4315 33.782 18.894 33.0024 18.8172C32.6125 18.9708 32.2227 19.0476 31.9108 19.1244Z" fill="#0774BA"/>
<path d="M31.131 24.3455L31.209 24.2687C31.2869 24.1919 31.3649 24.1152 31.4429 24.0384C32.3785 23.5777 33.2361 22.9634 34.0158 22.1188C34.4836 21.6581 34.7175 20.9671 34.6395 20.3528C34.4836 19.585 33.7819 19.0475 33.0022 19.0475C32.6124 19.0475 32.3005 19.1243 31.9107 19.2011H31.8327C32.1446 18.8939 32.6124 18.6636 33.0802 18.6636C33.8598 18.51 34.6395 18.7404 35.2632 19.2779C35.731 19.7386 35.9649 20.3528 35.8869 20.9671C35.731 21.6581 35.3412 22.3492 34.7175 22.7331C33.7039 23.5009 32.5344 24.0384 31.209 24.2687L31.131 24.3455ZM33.0022 18.8939C33.8598 18.8939 34.5615 19.5082 34.7175 20.276C34.7954 20.9671 34.5615 21.6581 34.0937 22.1188C33.392 22.8866 32.5344 23.5777 31.5208 24.0384C31.4429 24.0384 31.4429 24.1152 31.3649 24.1152C32.6124 23.808 33.7039 23.3473 34.7175 22.5795C35.3412 22.1188 35.731 21.5045 35.8869 20.8135C35.9649 20.1992 35.731 19.585 35.2632 19.2011C34.7175 18.7404 33.9378 18.51 33.1581 18.5868C32.7683 18.5868 32.3785 18.7404 32.0666 18.9707C32.3785 18.9707 32.6903 18.8939 33.0022 18.8939Z" fill="#0774BA"/>
<path d="M17.6414 19.7397C18.9668 19.1255 20.3702 18.8951 21.7736 18.8184C20.9159 19.0487 20.1363 19.2791 19.2786 19.5862C19.1227 19.7397 18.9668 19.8933 18.8108 20.0469C18.7329 20.2004 18.8888 20.2772 19.0447 20.354C19.5125 20.5076 20.0583 20.5844 20.6041 20.6611C22.3973 20.7379 24.2685 20.7379 26.0617 20.5844C27.8549 20.5076 29.6481 20.2004 31.3634 19.9701C30.9736 20.1237 30.5837 20.354 30.1939 20.5844C30.038 20.6611 29.8041 20.7379 29.5702 20.8147C27.3871 21.2754 25.2041 21.5057 22.943 21.5057C22.0854 21.5057 21.2278 21.5057 20.3702 21.429C19.4346 21.429 18.499 21.2754 17.5634 21.0451C17.2515 20.9683 17.0176 20.8915 16.7837 20.6611C16.7058 20.5844 16.7058 20.4308 16.7837 20.2772C17.0176 20.0469 17.3295 19.8933 17.6414 19.7397Z" fill="#0774BA"/>
<path d="M22.553 21.4276C21.7734 21.4276 21.0717 21.4276 20.37 21.3508C19.4344 21.3508 18.4208 21.1973 17.4852 20.9669C17.1734 20.8901 16.9395 20.8134 16.7056 20.583C16.6276 20.5062 16.6276 20.4294 16.6276 20.3527C16.6276 20.2759 16.6276 20.1991 16.7056 20.1223C16.9395 19.892 17.2513 19.7384 17.5632 19.6616C18.8886 19.0474 20.292 18.817 21.6954 18.7402H22.0073L21.6954 18.817C20.8378 19.0474 20.0581 19.2777 19.2005 19.5848C19.1225 19.8152 18.9666 19.892 18.8106 20.0455C18.7327 20.1991 18.8886 20.2759 18.9666 20.2759C19.4344 20.4294 19.9801 20.5062 20.5259 20.583C22.3191 20.6598 24.1903 20.6598 25.9835 20.5062C27.5428 20.4294 29.1801 20.1991 31.2852 19.892H31.5971L31.3632 19.9688C30.9734 20.1223 30.5835 20.3527 30.1937 20.583C29.9598 20.6598 29.8039 20.7366 29.57 20.8134C27.3869 21.2741 25.2039 21.5044 22.9428 21.5044C22.7869 21.4276 22.709 21.4276 22.553 21.4276ZM16.7835 20.2759C16.7835 20.3527 16.7056 20.3527 16.7056 20.4294C16.7056 20.5062 16.7056 20.5062 16.7835 20.583C17.0174 20.7366 17.2513 20.8901 17.5632 20.8901C18.4988 21.1205 19.4344 21.1973 20.37 21.2741C21.1496 21.3508 21.9293 21.3508 22.9428 21.3508C25.1259 21.3508 27.3869 21.1205 29.492 20.6598C29.7259 20.6598 29.8818 20.583 30.1157 20.4294C30.4276 20.2759 30.7395 20.1223 31.0513 19.9688C29.0242 20.2759 27.4649 20.4294 25.9835 20.583C24.1903 20.7366 22.3191 20.7366 20.5259 20.6598C19.9801 20.6598 19.5123 20.583 18.9666 20.3527C18.7327 20.2759 18.6547 20.1223 18.7327 20.0455C18.8886 19.892 19.1225 19.7384 19.2784 19.6616C19.9801 19.3545 20.6818 19.1241 21.4615 18.9706C20.1361 19.0474 18.8886 19.2777 17.6412 19.8152H17.5632C17.2513 19.9688 17.0174 20.1223 16.7835 20.2759Z" fill="#0774BA"/>
<path d="M19.2803 22.7329C19.6701 22.5026 20.0599 22.2722 20.5277 22.1187C20.3718 22.2722 20.2159 22.4258 20.1379 22.6561C20.1379 22.8097 20.2159 22.9633 20.3718 22.9633C20.6057 23.04 20.8396 23.1168 21.1515 23.1936C22.5549 23.3472 23.8803 23.424 25.2837 23.3472C26.5311 23.2704 27.7786 23.1168 29.026 22.8865C29.3379 23.1936 29.8057 23.424 30.1955 23.5775C28.7142 24.0382 27.1549 24.2686 25.5955 24.3453C24.1142 24.4989 22.6328 24.4221 21.2294 24.1918C20.6057 24.115 20.0599 23.9614 19.5142 23.7311C19.2803 23.6543 19.1243 23.424 18.9684 23.1936C19.0464 23.04 19.1243 22.8865 19.2803 22.7329Z" fill="#0774BA"/>
<path d="M24.0362 24.4989C23.1006 24.4989 22.165 24.4221 21.2294 24.2686C20.6057 24.1918 20.0599 24.0382 19.5142 23.8079C19.2803 23.7311 19.1243 23.5007 18.9684 23.2704C18.9684 23.04 19.0464 22.8097 19.2803 22.7329C19.6701 22.5026 20.0599 22.2722 20.5277 22.1187H20.6057V22.1954L20.5277 22.2722C20.3718 22.4258 20.2938 22.5026 20.2938 22.7329C20.2938 22.8865 20.3718 22.9633 20.5277 23.04C20.7616 23.1168 20.9955 23.1936 21.3074 23.2704C22.6328 23.424 24.0362 23.5007 25.4396 23.424C26.6871 23.3472 27.9345 23.1936 29.182 22.9633C29.4938 23.2704 29.8837 23.5007 30.3515 23.6543L30.4294 23.7311H30.3515C28.8701 24.1918 27.3108 24.4221 25.7515 24.4989C25.1277 24.4989 24.582 24.4989 24.0362 24.4989ZM19.0464 23.2704C19.1243 23.5007 19.3582 23.6543 19.5921 23.7311C20.1379 23.9614 20.6837 24.115 21.3074 24.1918C22.7888 24.4221 24.2701 24.4221 25.6735 24.3453C27.1549 24.2686 28.7142 23.9614 30.1176 23.5775C29.7277 23.424 29.3379 23.1936 29.026 22.8865C27.7786 23.1168 26.5311 23.2704 25.2837 23.3472C23.8803 23.424 22.5549 23.3472 21.1515 23.1936C20.9176 23.1936 20.6057 23.1168 20.3718 22.9633C20.2159 22.8865 20.1379 22.7329 20.1379 22.5793C20.1379 22.349 20.2938 22.2722 20.3718 22.1187C19.982 22.2722 19.5921 22.4258 19.2803 22.6561C19.1243 22.8865 19.0464 23.04 19.0464 23.2704Z" fill="#0774BA"/>
<path d="M20.1361 25.8051C20.448 25.5747 20.8378 25.4211 21.2277 25.2676C21.0717 25.4211 20.8378 25.4979 20.9938 25.7283C21.1497 25.9586 21.5395 26.0354 21.8514 26.0354C23.0209 26.189 24.2683 26.2658 25.4378 26.189C26.3734 26.1122 27.2311 25.9586 28.1666 25.8051C28.7124 26.1122 29.1802 26.3425 29.726 26.5729C28.8683 26.9568 28.0107 27.1871 27.0751 27.3407C25.5158 27.6478 23.9565 27.6478 22.4751 27.4175C21.7734 27.3407 21.1497 27.1104 20.526 26.8032C20.2141 26.8032 20.0582 26.5729 19.9022 26.3425C19.8243 26.1122 19.9802 25.9586 20.1361 25.8051Z" fill="#0774BA"/>
<path d="M24.5819 27.7236C23.8802 27.7236 23.1785 27.6469 22.4768 27.5701C21.7751 27.4933 21.1514 27.2629 20.5276 26.9558C20.2158 26.8023 19.9819 26.6487 19.9039 26.3416C19.8259 26.1112 19.9039 25.8809 20.1378 25.7273C20.4497 25.4969 20.8395 25.3434 21.2293 25.2666H21.3853L21.3073 25.3434C21.3073 25.3434 21.2293 25.3434 21.2293 25.4202C21.0734 25.4969 20.9954 25.6505 21.0734 25.8041C21.2293 25.9576 21.4632 26.0344 21.6971 26.1112C21.7751 26.1112 21.7751 26.1112 21.8531 26.1112C23.0225 26.2648 24.27 26.3416 25.4395 26.2648C26.2971 26.188 27.2327 26.0344 28.0903 25.8809C28.6361 26.188 29.1039 26.4183 29.6497 26.6487H29.7276H29.6497C28.792 27.0326 27.9344 27.2629 26.9988 27.4165C26.2971 27.6469 25.4395 27.7236 24.5819 27.7236ZM20.0598 25.8809C19.9039 25.9576 19.9039 26.188 19.9039 26.3416C20.0598 26.5719 20.2158 26.7255 20.4497 26.879C21.0734 27.1862 21.6971 27.4165 22.3988 27.4933C23.9581 27.7236 25.5175 27.7236 26.9988 27.4165C27.8564 27.2629 28.7141 27.0326 29.5717 26.6487C29.0259 26.4183 28.5581 26.188 28.0903 25.8809C27.2327 26.0344 26.2971 26.188 25.4395 26.2648C24.27 26.3416 23.0225 26.2648 21.8531 26.1112C21.7751 26.1112 21.7751 26.1112 21.6971 26.1112C21.4632 26.0344 21.1514 26.0344 20.9954 25.8041C20.9175 25.6505 20.9954 25.4969 21.1514 25.4202C20.7615 25.4969 20.4497 25.6505 20.0598 25.8809Z" fill="#0774BA"/>
<path d="M16.1614 27.8009C16.7852 27.5706 17.4869 27.417 18.1885 27.417C18.5004 27.417 18.7343 27.417 18.9682 27.5706C18.1106 27.6473 17.3309 27.8009 16.5513 28.1848C16.3953 28.2616 16.2394 28.4152 16.1614 28.5687C16.1614 28.7991 16.3953 28.8759 16.5513 28.9526C17.5648 29.2598 18.6563 29.4901 19.7479 29.5669C22.9445 29.7972 26.2191 29.7972 29.4157 29.4901C30.6631 29.4133 31.8326 29.183 33.0021 28.8759C33.3919 28.7991 33.7818 28.5687 34.0157 28.2616C34.1716 28.0313 34.0936 27.8009 33.9377 27.6473C34.1716 27.8009 34.4835 27.9545 34.4835 28.2616C34.4055 28.5687 34.0157 28.7991 33.7818 28.9526C32.8462 29.3366 31.9106 29.6437 30.897 29.874C28.0123 30.4115 25.0496 30.5651 22.0869 30.4883C19.9038 30.4115 17.6428 30.1812 15.4597 29.7972C15.0699 29.7205 14.6801 29.5669 14.3682 29.3366C14.2123 29.1062 14.3682 28.7991 14.5241 28.6455C15.0699 28.2616 15.6157 27.9545 16.1614 27.8009Z" fill="#0774BA"/>
<path d="M23.8011 30.4873C23.2553 30.4873 22.7095 30.4873 22.1638 30.4873C19.9807 30.4105 17.7197 30.1802 15.5367 29.7963C15.1468 29.7195 14.757 29.5659 14.3672 29.3356C14.1333 29.1052 14.3672 28.7981 14.5231 28.6445C14.9909 28.2606 15.5367 27.9535 16.0824 27.7999C16.7062 27.5696 17.4078 27.416 18.1095 27.416C18.4214 27.416 18.6553 27.416 18.9672 27.5696H19.1231H18.9672C18.1095 27.6464 17.3299 27.7999 16.6282 28.1838C16.4723 28.2606 16.3163 28.4142 16.2384 28.5678C16.2384 28.7213 16.3943 28.7981 16.5502 28.8749H16.6282C17.6417 29.182 18.7333 29.4124 19.8248 29.4891C23.0214 29.7195 26.296 29.7195 29.4926 29.4124C30.7401 29.3356 31.9095 29.1052 33.079 28.7981C33.4689 28.7213 33.8587 28.491 34.0926 28.2606C34.1706 28.1071 34.1706 27.8767 34.0146 27.7231L33.7807 27.4928L34.0926 27.6464C34.3265 27.7999 34.6384 27.9535 34.6384 28.2606C34.5604 28.5678 34.2485 28.7981 33.9367 28.9517H33.8587C32.9231 29.4124 31.9095 29.6427 30.974 29.8731C28.635 30.257 26.218 30.4873 23.8011 30.4873ZM16.1604 27.7999C15.6146 27.9535 15.0689 28.2606 14.6011 28.6445C14.4451 28.7981 14.2892 29.0284 14.4451 29.2588C14.757 29.4891 15.1468 29.6427 15.5367 29.7195C17.7197 30.1034 19.9807 30.3337 22.1638 30.4105C25.1265 30.5641 28.0892 30.3338 30.974 29.7963C31.9875 29.6427 32.9231 29.3356 33.8587 28.8749H33.9367C34.1706 28.7213 34.4824 28.5678 34.5604 28.2606C34.5604 28.0303 34.4045 27.8767 34.1706 27.7999C34.2485 27.9535 34.2485 28.1838 34.1706 28.3374C33.8587 28.6445 33.4689 28.8749 33.079 28.9517C31.9095 29.2588 30.6621 29.4124 29.4926 29.5659C26.296 29.8731 23.0214 29.8731 19.8248 29.6427C18.7333 29.5659 17.6417 29.3356 16.6282 29.0284H16.5502C16.3943 28.9517 16.1604 28.8749 16.1604 28.6445C16.2384 28.491 16.3943 28.3374 16.6282 28.2606C17.3299 27.8767 18.1095 27.7231 18.8892 27.6464C18.6553 27.5696 18.4994 27.5696 18.2655 27.5696C17.4858 27.416 16.8621 27.5696 16.1604 27.7999Z" fill="#0774BA"/>
<path d="M33.8614 30.1804C34.6411 30.0269 35.2648 29.6429 35.8886 29.1055C35.7326 29.7197 35.3428 30.1804 34.7191 30.4108C33.7055 30.8715 32.614 31.1786 31.4445 31.3322C29.1055 31.7161 26.6886 31.7929 24.2716 31.7161C22.6343 31.7161 20.997 31.5625 19.3597 31.2554C18.9699 31.1786 18.5801 31.025 18.2682 30.8715C19.6716 31.1018 21.153 31.2554 22.6343 31.2554C25.0513 31.3322 27.3903 31.2554 29.8072 30.9482C31.2106 30.8715 32.536 30.5643 33.8614 30.1804Z" fill="#0774BA"/>
<path d="M25.4396 31.8702C25.0498 31.8702 24.66 31.8702 24.2702 31.8702C22.6329 31.8702 20.9956 31.7167 19.3583 31.4096C18.9685 31.3328 18.5786 31.1792 18.1888 31.0256L18.0329 30.9489H18.2668C19.6702 31.1792 21.1515 31.3328 22.6329 31.3328C25.0498 31.4096 27.3888 31.3328 29.8057 31.0256C31.2091 30.8721 32.5346 30.5649 33.86 30.181C34.5617 30.0275 35.2634 29.6436 35.8871 29.1061L35.9651 29.0293V29.1829C35.8091 29.7971 35.3413 30.2578 34.7956 30.4882C33.782 30.9489 32.6905 31.256 31.521 31.4096C29.4939 31.7167 27.4668 31.8702 25.4396 31.8702ZM18.5007 31.0256C18.8125 31.1792 19.1244 31.256 19.4363 31.3328C21.0735 31.6399 22.7108 31.7935 24.3481 31.7935C26.7651 31.8702 29.182 31.7167 31.521 31.4096C32.6125 31.256 33.7041 30.9489 34.7956 30.4882C35.3413 30.2578 35.7312 29.8739 35.8871 29.3364C35.3413 29.7971 34.6396 30.181 33.938 30.3346C32.6125 30.7185 31.2091 31.0256 29.8057 31.1792C27.3888 31.4863 25.0498 31.5631 22.6329 31.4863C21.2295 31.3328 19.8261 31.1792 18.5007 31.0256Z" fill="#0774BA"/>
<path d="M15.1479 40.5467C15.1479 38.2432 15.1479 35.9397 15.1479 33.6362C15.6157 33.6362 16.0835 33.6362 16.6293 33.6362C16.6293 36.1701 16.6293 38.7807 16.6293 41.3145C16.7072 42.0055 16.5513 42.7733 16.2395 43.4644C15.8496 44.1554 15.1479 44.6161 14.4462 44.9232C14.2123 44.6929 13.9784 44.3858 13.7445 44.1554C14.3683 43.8483 14.914 43.3108 15.07 42.6198C15.1479 41.9287 15.2259 41.2377 15.1479 40.5467Z" fill="#E92D2F"/>
<path d="M14.3684 44.9999C14.2124 44.8463 14.1345 44.6928 13.9785 44.616C13.9006 44.4624 13.8226 44.3089 13.6667 44.2321H13.7446C14.3684 43.925 14.8361 43.3875 15.07 42.6964C15.148 42.0054 15.226 41.3144 15.148 40.6233C15.148 39.6251 15.148 38.7038 15.148 37.7056C15.148 36.4003 15.148 35.095 15.148 33.7129C15.6158 33.7129 16.0836 33.7129 16.6294 33.7129C16.6294 35.0182 16.6294 36.2467 16.6294 37.552C16.6294 38.8573 16.6294 40.1626 16.6294 41.3911C16.7073 42.0822 16.5514 42.85 16.2395 43.541C15.8497 44.2321 15.148 44.6928 14.3684 44.9999ZM13.8226 44.2321C13.9006 44.3857 14.0565 44.4624 14.1345 44.616C14.2124 44.7696 14.3684 44.8463 14.4463 44.9999C15.148 44.7696 15.8497 44.2321 16.2395 43.541C16.5514 42.85 16.6294 42.159 16.6294 41.4679C16.6294 40.1626 16.6294 38.8573 16.6294 37.6288C16.6294 36.3235 16.6294 35.095 16.6294 33.7897C16.1616 33.7897 15.6938 33.7897 15.226 33.7897C15.226 35.095 15.226 36.4003 15.226 37.7056C15.226 38.7038 15.226 39.6251 15.226 40.6233C15.226 41.3144 15.226 42.0054 15.148 42.6964C14.9141 43.3107 14.4463 43.8482 13.8226 44.2321Z" fill="#E92D2F"/>
<path d="M17.9533 36.4001C18.8889 35.9394 19.9804 35.7858 20.994 35.8626C21.5398 35.8626 22.0855 36.1697 22.4754 36.5536C22.7872 36.9376 22.8652 37.3983 22.8652 37.8589V42.5427H21.7737C21.7737 42.3123 21.6957 42.082 21.6957 41.8516C21.3059 42.1588 20.8381 42.4659 20.3703 42.6195C19.8245 42.773 19.2008 42.773 18.5771 42.5427C18.1093 42.3891 17.7974 42.0052 17.7194 41.5445C17.4855 40.8535 17.6415 40.1624 18.1093 39.6249C18.5771 39.1643 19.1228 38.8571 19.7465 38.7803C20.2923 38.7036 20.916 38.6268 21.4618 38.7036C21.5398 38.2429 21.4618 37.7822 21.3059 37.3983C21.072 37.0911 20.7601 36.9376 20.3703 36.9376C19.5906 36.9376 18.811 37.0143 18.1093 37.3215C18.1093 37.0143 18.0313 36.7072 17.9533 36.4001ZM19.7465 39.7017C19.4347 39.7785 19.2008 40.0089 19.0449 40.316C18.9669 40.6999 18.9669 41.0838 19.2008 41.3909C19.4347 41.6981 19.8245 41.7749 20.2143 41.6981C20.6821 41.6213 21.1499 41.3909 21.5398 41.0838C21.5398 40.5463 21.5398 40.0089 21.5398 39.5482C20.916 39.4714 20.2923 39.5482 19.7465 39.7017Z" fill="#E92D2F"/>
<path d="M19.5905 42.7724C19.2786 42.7724 18.8888 42.6956 18.5769 42.6188C18.1091 42.4653 17.7972 42.0814 17.6413 41.6207C17.4074 40.9296 17.5633 40.2386 18.0311 39.6243C18.4989 39.1636 19.1227 38.8565 19.7464 38.7797C20.2922 38.7029 20.9159 38.6262 21.4616 38.7029C21.5396 38.2422 21.4616 37.8583 21.3057 37.4744C21.0718 37.1673 20.7599 37.0137 20.4481 37.0137C19.6684 37.0137 18.9667 37.0905 18.265 37.3976V37.3209C18.1871 37.0137 18.1091 36.7834 18.0311 36.4763C18.9667 36.0156 20.0583 35.862 21.1498 35.9388C21.6955 35.9388 22.2413 36.2459 22.6311 36.6298C22.943 37.0137 23.021 37.4744 23.021 37.9351V42.6956H21.8515C21.8515 42.4653 21.7735 42.2349 21.7735 42.0814C21.3837 42.3885 20.9159 42.6188 20.4481 42.7724C20.1362 42.6956 19.9023 42.7724 19.5905 42.7724ZM21.2277 38.7029C20.7599 38.7029 20.2142 38.7797 19.7464 38.8565C19.1227 38.9333 18.4989 39.2404 18.1091 39.7011C17.6413 40.2386 17.5633 40.9296 17.7193 41.6207C17.8752 42.0814 18.1871 42.3885 18.5769 42.6188C19.1227 42.8492 19.7464 42.8492 20.2922 42.6956C20.7599 42.5421 21.2277 42.3117 21.6176 41.9278L21.6955 41.851V41.9278C21.6955 42.1582 21.7735 42.3117 21.7735 42.6188H22.7871V37.9351C22.7871 37.4744 22.7091 37.0137 22.3972 36.7066C22.0074 36.3227 21.5396 36.0923 20.9938 36.0156C19.9803 35.9388 18.8888 36.0923 17.9532 36.4763C18.0311 36.7066 18.1091 37.0137 18.1091 37.2441C18.8108 37.0137 19.5905 36.8602 20.2922 36.8602C20.682 36.8602 20.9938 37.0137 21.2277 37.3209C21.3837 37.7048 21.4616 38.1655 21.3837 38.6262C21.3837 38.7029 21.3057 38.7029 21.2277 38.7029ZM19.9803 41.7742C19.6684 41.7742 19.3566 41.6207 19.2006 41.3903C18.9667 41.0832 18.8888 40.6225 19.0447 40.3154C19.1227 40.0082 19.4345 39.7779 19.7464 39.6243C20.3701 39.4708 20.9159 39.394 21.5396 39.4708C21.5396 39.8547 21.5396 40.1618 21.5396 40.5457C21.5396 40.6993 21.5396 40.9296 21.5396 41.0832C21.1498 41.3903 20.682 41.6207 20.2142 41.7742C20.1362 41.7742 20.0583 41.7742 19.9803 41.7742ZM19.7464 39.7011C19.4345 39.7779 19.1227 40.0082 19.0447 40.3154C18.9667 40.6993 18.9667 41.0832 19.2006 41.3903C19.4345 41.6207 19.8244 41.7742 20.1362 41.6975C20.682 41.6207 21.1498 41.3903 21.4616 41.0832C21.4616 40.9296 21.4616 40.7761 21.4616 40.5457C21.4616 40.2386 21.4616 39.8547 21.4616 39.5475C20.9159 39.4708 20.2922 39.5475 19.7464 39.7011Z" fill="#E92D2F"/>
<path d="M30.4295 36.4001C31.3651 35.9394 32.4566 35.7858 33.5482 35.8626C34.0939 35.8626 34.5617 36.1697 34.9515 36.5536C35.2634 36.9376 35.4193 37.475 35.3414 37.9357C35.3414 39.4714 35.3414 41.007 35.3414 42.5427C34.9515 42.5427 34.6397 42.5427 34.2498 42.5427C34.2498 42.3123 34.1719 42.082 34.1719 41.8516C33.7041 42.3123 33.0804 42.6195 32.3787 42.6962C31.7549 42.773 31.1312 42.6195 30.5854 42.2355C29.8058 41.3909 29.8837 40.1624 30.7414 39.3946C30.8973 39.241 31.0532 39.1642 31.2092 39.0875C32.0668 38.7803 33.0024 38.6268 33.938 38.7036C34.0159 38.2429 33.938 37.8589 33.7821 37.475C33.6261 37.1679 33.2363 37.0143 32.9244 37.0143C32.1448 36.9376 31.3651 37.0911 30.5854 37.3983C30.5854 37.0143 30.5075 36.7072 30.4295 36.4001ZM32.2227 39.7017C31.9109 39.7785 31.677 40.0089 31.521 40.316C31.4431 40.6999 31.4431 41.0838 31.677 41.3909C31.9109 41.6981 32.3007 41.7749 32.6905 41.6981C33.1583 41.6213 33.6261 41.3909 34.0159 41.007C34.0159 40.4696 34.0159 40.0089 34.0159 39.4714C33.3922 39.4714 32.7685 39.5482 32.2227 39.7017Z" fill="#E92D2F"/>
<path d="M32.0668 42.7734C31.521 42.7734 31.0532 42.6198 30.5854 42.3127C29.8058 41.4681 29.8837 40.1628 30.7414 39.3949C30.8973 39.2414 31.0532 39.1646 31.2092 39.0878C32.0668 38.7807 33.0024 38.6271 33.938 38.6271C34.0159 38.2432 33.938 37.7825 33.7821 37.3986C33.6261 37.0915 33.3143 36.9379 32.9244 36.9379C32.1448 36.8611 31.3651 37.0147 30.6634 37.3218H30.5854V37.245C30.5854 37.0915 30.5075 36.9379 30.5075 36.8611C30.5075 36.7076 30.4295 36.554 30.4295 36.4772C31.3651 36.0165 32.4566 35.8629 33.5482 35.9397C34.0939 36.0165 34.6397 36.2469 34.9515 36.6308C35.2634 37.0147 35.4193 37.5522 35.3414 38.0129C35.3414 38.6271 35.3414 39.1646 35.3414 39.7789C35.3414 40.7002 35.3414 41.6984 35.3414 42.6966C35.1854 42.6966 35.0295 42.6966 34.8736 42.6966C34.7176 42.6966 34.4837 42.6966 34.3278 42.6966C34.3278 42.6198 34.3278 42.543 34.3278 42.4662C34.3278 42.3127 34.3278 42.1591 34.2498 42.0823C33.7821 42.543 33.1583 42.7734 32.5346 42.8502C32.3007 42.7734 32.1448 42.7734 32.0668 42.7734ZM33.5482 38.6271C32.7685 38.6271 31.9888 38.7807 31.2871 39.0878C31.1312 39.1646 30.9753 39.2414 30.8193 39.3949C29.9617 40.1628 29.9617 41.3913 30.6634 42.2359C31.1312 42.6198 31.8329 42.7734 32.4566 42.6966C33.0804 42.6198 33.7041 42.3127 34.1719 41.852L34.2498 41.7752V41.852C34.2498 42.0055 34.3278 42.1591 34.3278 42.3127C34.3278 42.3895 34.3278 42.4662 34.3278 42.4662C34.4837 42.4662 34.7176 42.4662 34.8736 42.4662C35.0295 42.4662 35.1854 42.4662 35.3414 42.4662C35.3414 41.5448 35.3414 40.5467 35.3414 39.6253C35.3414 39.011 35.3414 38.4736 35.3414 37.8593C35.3414 37.3986 35.2634 36.8611 34.9515 36.4772C34.5617 36.0933 34.0939 35.8629 33.5482 35.8629C32.5346 35.7862 31.4431 35.9397 30.5075 36.3236C30.5075 36.4772 30.5854 36.554 30.5854 36.7076C30.5854 36.8611 30.6634 36.9379 30.6634 37.0915C31.3651 36.7843 32.1448 36.7076 32.9244 36.7076C33.3143 36.7076 33.6261 36.9379 33.86 37.1682C34.0159 37.5522 34.0939 38.0129 34.0159 38.4736C33.86 38.7039 33.7041 38.6271 33.5482 38.6271ZM32.4566 41.7752C32.1448 41.7752 31.8329 41.6216 31.599 41.3913C31.3651 41.0842 31.2871 40.6235 31.4431 40.2395C31.521 39.9324 31.8329 39.7021 32.1448 39.5485C32.7685 39.3949 33.3143 39.3182 33.938 39.3949C33.938 39.5485 33.938 39.6253 33.938 39.7789C33.938 40.1628 33.938 40.5467 33.938 40.9306C33.5482 41.2377 33.0804 41.4681 32.6126 41.6216C32.6126 41.7752 32.5346 41.7752 32.4566 41.7752ZM32.2227 39.7021C31.9109 39.7789 31.677 40.0092 31.599 40.3163C31.521 40.7002 31.521 41.0842 31.7549 41.3913C31.9888 41.6216 32.3787 41.7752 32.7685 41.6984C33.2363 41.6216 33.7041 41.3913 34.0159 41.0842C34.0159 40.7002 34.0159 40.3163 34.0159 39.9324C34.0159 39.7788 34.0159 39.7021 34.0159 39.5485C33.3922 39.4717 32.7685 39.5485 32.2227 39.7021Z" fill="#E92D2F"/>
<path d="M23.6464 36.0166H25.1277C25.4396 36.938 25.6735 37.8594 25.9854 38.7808C26.1413 39.3182 26.3752 39.9325 26.4532 40.47C26.5311 40.7003 26.6091 41.0075 26.6871 41.2378C27.3108 39.5486 27.7786 37.7826 28.0125 36.0166H29.4938C29.104 38.3201 28.4023 40.47 27.3888 42.6199H25.6735C25.0498 40.3932 24.3481 38.1665 23.6464 36.0166Z" fill="#E92D2F"/>
<path d="M27.4667 42.6195H25.6735C24.9718 40.3161 24.2701 38.1661 23.6464 36.0162V35.9395H23.7244H25.2057C25.3616 36.4001 25.5176 36.8608 25.6735 37.3215C25.8294 37.7822 25.9854 38.2429 26.1413 38.7036C26.2193 38.8572 26.2193 39.0875 26.2972 39.2411C26.4532 39.625 26.5311 40.0089 26.6091 40.3928C26.6091 40.4696 26.6091 40.5464 26.6871 40.6232C26.6871 40.7767 26.765 40.9303 26.843 41.0839C27.4667 39.3947 27.8566 37.7054 28.0905 35.9395H29.6498V36.0162C29.182 38.2429 28.4803 40.4696 27.4667 42.6195ZM25.7515 42.5427H27.3888C28.3244 40.4696 29.0261 38.2429 29.4159 36.0162H28.0125C27.7786 37.7822 27.3108 39.5482 26.6871 41.2374V41.3142V41.2374C26.6091 41.0839 26.6091 40.8535 26.5311 40.7C26.5311 40.6232 26.5311 40.5464 26.4532 40.4696C26.3752 40.0857 26.2193 39.7018 26.1413 39.3179C26.0633 39.1643 25.9854 38.934 25.9854 38.7804C25.8294 38.3197 25.6735 37.859 25.5176 37.3983C25.3616 36.9376 25.2057 36.4769 25.1277 36.0162H23.7244C24.4261 38.0894 25.0498 40.2393 25.7515 42.5427Z" fill="#E92D2F"/>
<path d="M35.6546 35.8639H35.4987V35.7871H35.8885V35.8639H35.7326V36.4014H35.6546V35.8639Z" fill="#E92D2F"/>
<path d="M35.7324 36.4H35.5765V35.8625H35.4206V35.709H35.8884V35.8625H35.7324V36.4ZM35.6545 36.3232V35.8625V36.3232Z" fill="#E92D2F"/>
<path d="M36.4313 36.0942C36.4313 36.0175 36.4313 35.9407 36.4313 35.8639C36.4313 35.9407 36.3534 36.0175 36.3534 36.0942L36.2754 36.4014H36.1974L36.1195 36.0942C36.1195 36.0175 36.0415 35.9407 36.0415 35.8639C36.0415 35.9407 36.0415 36.0175 36.0415 36.0942V36.3246H35.9635L36.0415 35.7871H36.1195L36.1974 36.0942C36.1974 36.171 36.2754 36.2478 36.2754 36.2478C36.2754 36.171 36.2754 36.0942 36.3534 36.0942L36.4313 35.7871H36.5093V36.3246H36.4313V36.0942Z" fill="#E92D2F"/>
<path d="M36.1973 36.4012L36.0413 36.0941V36.4012H35.8854V36.3245L35.9634 35.7102H36.0413V35.5566L36.1193 35.7102H36.1973L36.2752 36.0173V36.0941V36.0173L36.3532 35.7102H36.4312L36.5091 35.5566V35.7102H36.5871L36.6651 36.3245H36.5091V36.0173C36.5091 36.0173 36.5091 36.0173 36.5091 35.9406L36.1973 36.4012Z" fill="#E92D2F"/>
</svg>
