<svg data-slug-id="key-vault01" viewBox="0 0 48 48" xmlns="http://www.w3.org/2000/svg">
<path d="M24 1C19.451 1 15.0042 2.34893 11.2219 4.8762C7.43956 7.40347 4.4916 10.9956 2.75078 15.1983C1.00997 19.401 0.554489 24.0255 1.44195 28.4871C2.32941 32.9486 4.51995 37.0468 7.73655 40.2634C10.9532 43.4801 15.0514 45.6706 19.5129 46.5581C23.9745 47.4455 28.599 46.99 32.8017 45.2492C37.0044 43.5084 40.5965 40.5604 43.1238 36.7781C45.6511 32.9958 47 28.549 47 24C46.9928 17.9022 44.5673 12.0562 40.2555 7.74445C35.9438 3.43267 30.0978 1.00716 24 1ZM24 43.8612C20.0718 43.8612 16.2319 42.6963 12.9657 40.514C9.69958 38.3316 7.15392 35.2297 5.65067 31.6005C4.14743 27.9714 3.75411 23.978 4.52046 20.1253C5.28681 16.2726 7.1784 12.7337 9.95603 9.95603C12.7337 7.17839 16.2726 5.2868 20.1253 4.52045C23.978 3.7541 27.9714 4.14742 31.6005 5.65066C35.2297 7.15391 38.3316 9.69957 40.514 12.9657C42.6963 16.2319 43.8612 20.0718 43.8612 24C43.8612 29.2675 41.7687 34.3193 38.044 38.044C34.3193 41.7687 29.2675 43.8612 24 43.8612Z" fill="#37C2B1"/>
<path d="M24.0018 43.863C34.9708 43.863 43.863 34.9708 43.863 24.0018C43.863 13.0328 34.9708 4.14062 24.0018 4.14062C13.0328 4.14062 4.14062 13.0328 4.14062 24.0018C4.14062 34.9708 13.0328 43.863 24.0018 43.863Z" fill="white"/>
<path d="M36.017 19.4788C36.9407 18.5465 37.4589 17.2871 37.4589 15.9747C37.4589 14.6623 36.9407 13.4029 36.017 12.4706L27.4935 3.92C26.5657 2.99798 25.3109 2.48047 24.0029 2.48047C22.6949 2.48047 21.44 2.99798 20.5123 3.92L11.9888 12.4706C11.0651 13.4029 10.5469 14.6623 10.5469 15.9747C10.5469 17.2871 11.0651 18.5465 11.9888 19.4788L19.0782 26.7035C19.3372 26.9616 19.4832 27.312 19.4841 27.6776V40.8823C19.4847 41.3276 19.6595 41.7549 19.9711 42.0729L23.2182 45.32C23.3212 45.4231 23.4435 45.5049 23.5782 45.5606C23.7128 45.6164 23.8571 45.6452 24.0029 45.6452C24.1486 45.6452 24.2929 45.6164 24.4276 45.5606C24.5622 45.5049 24.6846 45.4231 24.7876 45.32L27.9264 42.1812L29.7664 40.3412C29.8824 40.2161 29.9469 40.0518 29.9469 39.8812C29.9469 39.7106 29.8824 39.5463 29.7664 39.4212L28.4405 38.0953C28.3131 37.9598 28.2421 37.7807 28.2421 37.5947C28.2421 37.4087 28.3131 37.2296 28.4405 37.0941L29.7664 35.7682C29.8824 35.6431 29.9469 35.4788 29.9469 35.3082C29.9469 35.1376 29.8824 34.9733 29.7664 34.8482L28.4405 33.5223C28.3131 33.3868 28.2421 33.2078 28.2421 33.0218C28.2421 32.8357 28.3131 32.6567 28.4405 32.5212L29.7664 31.1953C29.8824 31.0702 29.9469 30.9059 29.9469 30.7353C29.9469 30.5647 29.8824 30.4004 29.7664 30.2753L27.9264 28.4082V27.7318L36.017 19.4788ZM24.0029 6.00353C24.7456 6.00353 25.458 6.29859 25.9832 6.8238C26.5084 7.34902 26.8035 8.06136 26.8035 8.80412C26.8035 9.54688 26.5084 10.2592 25.9832 10.7844C25.458 11.3096 24.7456 11.6047 24.0029 11.6047C23.2601 11.6047 22.5478 11.3096 22.0226 10.7844C21.4974 10.2592 21.2023 9.54688 21.2023 8.80412C21.2023 8.06136 21.4974 7.34902 22.0226 6.8238C22.5478 6.29859 23.2601 6.00353 24.0029 6.00353Z" fill="url(#key-vault01_paint0_radial)"/>
<path opacity="0.75" d="M21.7808 41.0471C21.8704 41.1242 21.98 41.1741 22.0969 41.1912C22.2138 41.2083 22.3331 41.1917 22.441 41.1435C22.5488 41.0952 22.6407 41.0173 22.7059 40.9188C22.7711 40.8202 22.8068 40.7052 22.8091 40.5871V29.7636C22.8083 29.6557 22.7807 29.5498 22.7287 29.4553C22.6767 29.3608 22.6021 29.2808 22.5114 29.2224C22.4186 29.1615 22.3105 29.1279 22.1995 29.1252C22.0885 29.1225 21.979 29.1509 21.8833 29.2072C21.7876 29.2635 21.7096 29.3454 21.658 29.4437C21.6064 29.542 21.5833 29.6528 21.5914 29.7636V40.5871C21.601 40.7574 21.6677 40.9194 21.7808 41.0471Z" fill="#FF9300"/>
<path opacity="0.75" d="M30.4154 15.3125H17.9412C17.5228 15.3125 17.1836 15.6517 17.1836 16.0701V16.2054C17.1836 16.6239 17.5228 16.9631 17.9412 16.9631H30.4154C30.8338 16.9631 31.173 16.6239 31.173 16.2054V16.0701C31.173 15.6517 30.8338 15.3125 30.4154 15.3125Z" fill="#FF9300"/>
<path opacity="0.75" d="M30.4154 17.9961H17.9412C17.5228 17.9961 17.1836 18.3353 17.1836 18.7537V18.889C17.1836 19.3075 17.5228 19.6467 17.9412 19.6467H30.4154C30.8338 19.6467 31.173 19.3075 31.173 18.889V18.7537C31.173 18.3353 30.8338 17.9961 30.4154 17.9961Z" fill="#FF9300"/>
<defs>
<radialGradient id="key-vault01_paint0_radial" cx="0" cy="0" r="1" gradientUnits="userSpaceOnUse" gradientTransform="translate(21.0345 21.0369) scale(25.1301)">
<stop offset="0.27" stop-color="#FFD70F"/>
<stop offset="0.49" stop-color="#FFCB12"/>
<stop offset="0.88" stop-color="#FEAC19"/>
<stop offset="1" stop-color="#FEA11B"/>
</radialGradient>
</defs>
</svg>
