<svg data-slug-id="kubernetes-services03" viewBox="0 0 48 48" xmlns="http://www.w3.org/2000/svg">
<path d="M19.0587 17.5053C19.235 17.1877 19.5697 16.9907 19.933 16.9907H28.0672C28.4305 16.9907 28.7651 17.1877 28.9415 17.5053L32.3068 23.5664C32.4745 23.8683 32.4745 24.2353 32.3068 24.5372L28.9415 30.5983C28.7651 30.9159 28.4305 31.1129 28.0672 31.1129H19.933C19.5697 31.1129 19.235 30.9159 19.0587 30.5983L15.6934 24.5372C15.5257 24.2353 15.5257 23.8683 15.6934 23.5664L19.0587 17.5053Z" fill="#0078D4"/>
<path d="M19.0587 17.5053C19.235 17.1877 19.5697 16.9907 19.933 16.9907H28.0672C28.4305 16.9907 28.7651 17.1877 28.9415 17.5053L32.3068 23.5664C32.4745 23.8683 32.4745 24.2353 32.3068 24.5372L28.9415 30.5983C28.7651 30.9159 28.4305 31.1129 28.0672 31.1129H19.933C19.5697 31.1129 19.235 30.9159 19.0587 30.5983L15.6934 24.5372C15.5257 24.2353 15.5257 23.8683 15.6934 23.5664L19.0587 17.5053Z" fill="url(#kubernetes-services03_paint0_linear)"/>
<path d="M19.0587 32.9516C19.235 32.634 19.5697 32.437 19.933 32.437H28.0672C28.4305 32.437 28.7651 32.634 28.9415 32.9516L32.3068 39.0127C32.4745 39.3146 32.4745 39.6816 32.3068 39.9835L28.9415 46.0446C28.7651 46.3622 28.4305 46.5592 28.0672 46.5592H19.933C19.5697 46.5592 19.235 46.3622 19.0587 46.0446L15.6934 39.9835C15.5257 39.6816 15.5257 39.3146 15.6934 39.0127L19.0587 32.9516Z" fill="#0078D4"/>
<path d="M19.0587 32.9516C19.235 32.634 19.5697 32.437 19.933 32.437H28.0672C28.4305 32.437 28.7651 32.634 28.9415 32.9516L32.3068 39.0127C32.4745 39.3146 32.4745 39.6816 32.3068 39.9835L28.9415 46.0446C28.7651 46.3622 28.4305 46.5592 28.0672 46.5592H19.933C19.5697 46.5592 19.235 46.3622 19.0587 46.0446L15.6934 39.9835C15.5257 39.6816 15.5257 39.3146 15.6934 39.0127L19.0587 32.9516Z" fill="url(#kubernetes-services03_paint1_linear)"/>
<path d="M4.63487 25.0072C4.8112 24.6897 5.14589 24.4927 5.50914 24.4927H13.6434C14.0066 24.4927 14.3413 24.6897 14.5177 25.0072L17.883 31.0683C18.0506 31.3702 18.0506 31.7373 17.883 32.0392L14.5177 38.1003C14.3413 38.4178 14.0066 38.6148 13.6434 38.6148H5.50914C5.14589 38.6148 4.8112 38.4178 4.63487 38.1003L1.26953 32.0392C1.1019 31.7373 1.1019 31.3702 1.26953 31.0683L4.63487 25.0072Z" fill="#0078D4"/>
<path d="M4.63487 25.0072C4.8112 24.6897 5.14589 24.4927 5.50914 24.4927H13.6434C14.0066 24.4927 14.3413 24.6897 14.5177 25.0072L17.883 31.0683C18.0506 31.3702 18.0506 31.7373 17.883 32.0392L14.5177 38.1003C14.3413 38.4178 14.0066 38.6148 13.6434 38.6148H5.50914C5.14589 38.6148 4.8112 38.4178 4.63487 38.1003L1.26953 32.0392C1.1019 31.7373 1.1019 31.3702 1.26953 31.0683L4.63487 25.0072Z" fill="url(#kubernetes-services03_paint2_linear)"/>
<path d="M4.63487 9.56096C4.8112 9.24337 5.14589 9.04639 5.50914 9.04639H13.6434C14.0066 9.04639 14.3413 9.24337 14.5177 9.56096L17.883 15.622C18.0506 15.9239 18.0506 16.291 17.883 16.5929L14.5177 22.654C14.3413 22.9716 14.0066 23.1685 13.6434 23.1685H5.50914C5.14589 23.1685 4.8112 22.9716 4.63487 22.654L1.26953 16.5929C1.1019 16.291 1.1019 15.9239 1.26953 15.622L4.63487 9.56096Z" fill="#0078D4"/>
<path d="M4.63487 9.56096C4.8112 9.24337 5.14589 9.04639 5.50914 9.04639H13.6434C14.0066 9.04639 14.3413 9.24337 14.5177 9.56096L17.883 15.622C18.0506 15.9239 18.0506 16.291 17.883 16.5929L14.5177 22.654C14.3413 22.9716 14.0066 23.1685 13.6434 23.1685H5.50914C5.14589 23.1685 4.8112 22.9716 4.63487 22.654L1.26953 16.5929C1.1019 16.291 1.1019 15.9239 1.26953 15.622L4.63487 9.56096Z" fill="url(#kubernetes-services03_paint3_linear)"/>
<path d="M33.4823 25.0072C33.6586 24.6897 33.9933 24.4927 34.3566 24.4927H42.4908C42.854 24.4927 43.1887 24.6897 43.3651 25.0072L46.7304 31.0683C46.898 31.3702 46.898 31.7373 46.7304 32.0392L43.3651 38.1003C43.1887 38.4178 42.854 38.6148 42.4908 38.6148H34.3566C33.9933 38.6148 33.6586 38.4178 33.4823 38.1003L30.1169 32.0392C29.9493 31.7373 29.9493 31.3702 30.1169 31.0683L33.4823 25.0072Z" fill="#0078D4"/>
<path d="M33.4823 25.0072C33.6586 24.6897 33.9933 24.4927 34.3566 24.4927H42.4908C42.854 24.4927 43.1887 24.6897 43.3651 25.0072L46.7304 31.0683C46.898 31.3702 46.898 31.7373 46.7304 32.0392L43.3651 38.1003C43.1887 38.4178 42.854 38.6148 42.4908 38.6148H34.3566C33.9933 38.6148 33.6586 38.4178 33.4823 38.1003L30.1169 32.0392C29.9493 31.7373 29.9493 31.3702 30.1169 31.0683L33.4823 25.0072Z" fill="url(#kubernetes-services03_paint4_linear)"/>
<path d="M33.4823 9.56144C33.6586 9.24386 33.9933 9.04688 34.3566 9.04688H42.4908C42.854 9.04688 43.1887 9.24386 43.3651 9.56144L46.7304 15.6225C46.898 15.9244 46.898 16.2915 46.7304 16.5934L43.3651 22.6545C43.1887 22.972 42.854 23.169 42.4908 23.169H34.3566C33.9933 23.169 33.6586 22.972 33.4823 22.6545L30.1169 16.5934C29.9493 16.2915 29.9493 15.9244 30.1169 15.6225L33.4823 9.56144Z" fill="#0078D4"/>
<path d="M33.4823 9.56144C33.6586 9.24386 33.9933 9.04688 34.3566 9.04688H42.4908C42.854 9.04688 43.1887 9.24386 43.3651 9.56144L46.7304 15.6225C46.898 15.9244 46.898 16.2915 46.7304 16.5934L43.3651 22.6545C43.1887 22.972 42.854 23.169 42.4908 23.169H34.3566C33.9933 23.169 33.6586 22.972 33.4823 22.6545L30.1169 16.5934C29.9493 16.2915 29.9493 15.9244 30.1169 15.6225L33.4823 9.56144Z" fill="url(#kubernetes-services03_paint5_linear)"/>
<path d="M19.0587 1.51457C19.235 1.19699 19.5697 1 19.933 1H28.0672C28.4305 1 28.7651 1.19699 28.9415 1.51457L32.3068 7.57565C32.4745 7.87756 32.4745 8.24459 32.3068 8.54651L28.9415 14.6076C28.7651 14.9252 28.4305 15.1222 28.0672 15.1222H19.933C19.5697 15.1222 19.235 14.9252 19.0587 14.6076L15.6934 8.54651C15.5257 8.24459 15.5257 7.87756 15.6934 7.57565L19.0587 1.51457Z" fill="#0078D4"/>
<path d="M19.0587 1.51457C19.235 1.19699 19.5697 1 19.933 1H28.0672C28.4305 1 28.7651 1.19699 28.9415 1.51457L32.3068 7.57565C32.4745 7.87756 32.4745 8.24459 32.3068 8.54651L28.9415 14.6076C28.7651 14.9252 28.4305 15.1222 28.0672 15.1222H19.933C19.5697 15.1222 19.235 14.9252 19.0587 14.6076L15.6934 8.54651C15.5257 8.24459 15.5257 7.87756 15.6934 7.57565L19.0587 1.51457Z" fill="url(#kubernetes-services03_paint6_linear)"/>
<defs>
<linearGradient id="kubernetes-services03_paint0_linear" x1="24.0001" y1="31.1095" x2="24.0001" y2="16.9934" gradientUnits="userSpaceOnUse">
<stop stop-color="#0078D4"/>
<stop offset="0.817" stop-color="#5EA0EF"/>
</linearGradient>
<linearGradient id="kubernetes-services03_paint1_linear" x1="24.0001" y1="46.5558" x2="24.0001" y2="32.4397" gradientUnits="userSpaceOnUse">
<stop stop-color="#0078D4"/>
<stop offset="0.817" stop-color="#5EA0EF"/>
</linearGradient>
<linearGradient id="kubernetes-services03_paint2_linear" x1="9.57626" y1="38.6114" x2="9.57626" y2="24.4954" gradientUnits="userSpaceOnUse">
<stop stop-color="#0078D4"/>
<stop offset="0.817" stop-color="#5EA0EF"/>
</linearGradient>
<linearGradient id="kubernetes-services03_paint3_linear" x1="9.57626" y1="23.1651" x2="9.57626" y2="9.04909" gradientUnits="userSpaceOnUse">
<stop stop-color="#0078D4"/>
<stop offset="0.817" stop-color="#5EA0EF"/>
</linearGradient>
<linearGradient id="kubernetes-services03_paint4_linear" x1="38.4237" y1="38.6114" x2="38.4237" y2="24.4954" gradientUnits="userSpaceOnUse">
<stop stop-color="#0078D4"/>
<stop offset="0.817" stop-color="#5EA0EF"/>
</linearGradient>
<linearGradient id="kubernetes-services03_paint5_linear" x1="38.4237" y1="23.1656" x2="38.4237" y2="9.04958" gradientUnits="userSpaceOnUse">
<stop stop-color="#0078D4"/>
<stop offset="0.817" stop-color="#5EA0EF"/>
</linearGradient>
<linearGradient id="kubernetes-services03_paint6_linear" x1="24.0001" y1="15.1187" x2="24.0001" y2="1.0027" gradientUnits="userSpaceOnUse">
<stop stop-color="#0078D4"/>
<stop offset="0.817" stop-color="#5EA0EF"/>
</linearGradient>
</defs>
</svg>
