<svg data-slug-id="kubernetes-services01" viewBox="0 0 24 24"  xmlns="http://www.w3.org/2000/svg">
<path d="M10.9912 7.342L7.32007 8.7443V2.82352L10.9912 4.12356V7.342Z" fill="#804998"/>
<path d="M3.9812 3.79711V7.68574L6.73108 8.73182V2.82352L3.9812 3.79711ZM4.28269 7.40393L4.13291 7.35736V4.13749L4.28269 4.09524L4.44015 4.05107L4.6077 4.00403V7.50475L4.44015 7.4529L4.28269 7.40393ZM4.97208 7.61756L4.78389 7.55947V3.9541L4.97208 3.90129L5.17131 3.84512L5.38447 3.78511V7.74526L5.17131 7.67901L4.97208 7.61756ZM5.85542 7.89073L5.61154 7.81535V3.72126L5.85542 3.65261L6.11562 3.57916L6.39695 3.49995V8.05875L6.11562 7.97186L5.85542 7.89073Z" fill="#68217A"/>
<path d="M19.5847 7.342L15.9131 8.7443V2.82352L19.5847 4.12356V7.342Z" fill="#804998"/>
<path d="M12.5745 3.79711V7.68574L15.3243 8.73182V2.82352L12.5745 3.79711ZM12.8755 7.40393L12.7257 7.35736V4.13749L12.8755 4.09524L13.0329 4.05107L13.2005 4.00403V7.50475L13.0329 7.4529L12.8755 7.40393ZM13.5649 7.61756L13.3767 7.55947V3.9541L13.5649 3.90129L13.7641 3.84512L13.9772 3.78511V7.74526L13.7641 7.67901L13.5649 7.61756ZM14.4482 7.89073L14.2043 7.81535V3.72126L14.4482 3.65261L14.7084 3.57916L14.9897 3.49995V8.05875L14.7084 7.97186L14.4482 7.89073Z" fill="#68217A"/>
<path d="M10.9912 19.149L7.32007 20.5509V14.6301L10.9912 15.9306V19.149Z" fill="#804998"/>
<path d="M3.9812 15.6041V19.4928L6.73108 20.5389V14.6301L3.9812 15.6041ZM4.28269 19.211L4.13291 19.1644V15.9445L4.28269 15.9023L4.44015 15.8581L4.6077 15.8111V19.3118L4.44015 19.2599L4.28269 19.211ZM4.97208 19.4241L4.78389 19.366V15.7611L4.97208 15.7078L5.17131 15.6517L5.38447 15.5917V19.5518L5.17131 19.4856L4.97208 19.4241ZM5.85542 19.6978L5.61154 19.6224V15.5278L5.85542 15.4592L6.11562 15.3857L6.39695 15.3065V19.8653L6.11562 19.7784L5.85542 19.6978Z" fill="#68217A"/>
<path d="M19.5847 19.149L15.9131 20.5509V14.6301L19.5847 15.9306V19.149Z" fill="#804998"/>
<path d="M12.5745 15.6041V19.4928L15.3243 20.5389V14.6301L12.5745 15.6041ZM12.8755 19.211L12.7257 19.1644V15.9445L12.8755 15.9023L13.0329 15.8581L13.2005 15.8111V19.3118L13.0329 19.2599L12.8755 19.211ZM13.5649 19.4241L13.3767 19.366V15.7611L13.5649 15.7078L13.7641 15.6517L13.9772 15.5917V19.5518L13.7641 19.4856L13.5649 19.4241ZM14.4482 19.6978L14.2043 19.6224V15.5278L14.4482 15.4592L14.7084 15.3857L14.9897 15.3065V19.8653L14.7084 19.7784L14.4482 19.6978Z" fill="#68217A"/>
<path d="M15.5645 13.2282L11.8928 14.63V8.70972L15.5645 10.0098V13.2282Z" fill="#804998"/>
<path d="M8.5542 9.68331V13.5719L11.3041 14.618V8.70972L8.5542 9.68331ZM8.85521 13.2901L8.70542 13.2436V10.0237L8.85521 9.98144L9.01267 9.93727L9.18022 9.89023V13.3909L9.01267 13.3391L8.85521 13.2901ZM9.5446 13.5038L9.35641 13.4457V9.84078L9.5446 9.78797L9.74383 9.7318L9.95698 9.67179V13.6319L9.74383 13.5657L9.5446 13.5038ZM10.4279 13.7769L10.1841 13.7016V9.60746L10.4279 9.53881L10.6881 9.46536L10.9695 9.38615V13.945L10.6881 13.8581L10.4279 13.7769Z" fill="#68217A"/>
<path d="M7.01587 13.2282L3.34424 14.63V8.70972L7.01587 10.0098V13.2282Z" fill="#804998"/>
<path d="M0.00561523 9.68331V13.5719L2.7555 14.618V8.70972L0.00561523 9.68331ZM0.306623 13.2901L0.156839 13.2436V10.0237L0.306623 9.98144L0.464089 9.93727L0.631635 9.89023V13.3909L0.464089 13.3391L0.306623 13.2901ZM0.996014 13.5038L0.807824 13.4457V9.84078L0.996014 9.78797L1.19525 9.7318L1.40888 9.67083V13.631L1.19573 13.5647L0.996014 13.5038ZM1.87936 13.7769L1.63548 13.7016V9.60746L1.87936 9.53881L2.13956 9.46536L2.42088 9.38615V13.945L2.13956 13.8581L1.87936 13.7769Z" fill="#68217A"/>
<path d="M24.0056 13.2282L20.334 14.63V8.70972L24.0056 10.0098V13.2282Z" fill="#804998"/>
<path d="M16.9956 9.68331V13.5719L19.7455 14.618V8.70972L16.9956 9.68331ZM17.2966 13.2901L17.1468 13.2436V10.0237L17.2966 9.98144L17.4541 9.93727L17.6216 9.89023V13.3909L17.4541 13.3391L17.2966 13.2901ZM17.986 13.5038L17.7978 13.4457V9.84078L17.986 9.78797L18.1852 9.7318L18.3984 9.67179V13.6319L18.1852 13.5657L17.986 13.5038ZM18.8693 13.7769L18.6255 13.7016V9.60746L18.8693 9.53881L19.1295 9.46536L19.4109 9.38615V13.945L19.1295 13.8581L18.8693 13.7769Z" fill="#68217A"/>
</svg>
