<svg data-slug-id="kubernetes-services02" viewBox="0 0 48 48" xmlns="http://www.w3.org/2000/svg">
<path d="M19.0587 18.2411C19.235 17.9235 19.5697 17.7266 19.933 17.7266H28.0672C28.4305 17.7266 28.7652 17.9235 28.9415 18.2411L32.3068 24.3022C32.4745 24.6041 32.4745 24.9712 32.3068 25.2731L28.9415 31.3342C28.7652 31.6517 28.4305 31.8487 28.0672 31.8487H19.933C19.5697 31.8487 19.235 31.6517 19.0587 31.3342L15.6934 25.2731C15.5257 24.9712 15.5257 24.6041 15.6934 24.3022L19.0587 18.2411Z" fill="#0078D4"/>
<path d="M19.0587 18.2411C19.235 17.9235 19.5697 17.7266 19.933 17.7266H28.0672C28.4305 17.7266 28.7652 17.9235 28.9415 18.2411L32.3068 24.3022C32.4745 24.6041 32.4745 24.9712 32.3068 25.2731L28.9415 31.3342C28.7652 31.6517 28.4305 31.8487 28.0672 31.8487H19.933C19.5697 31.8487 19.235 31.6517 19.0587 31.3342L15.6934 25.2731C15.5257 24.9712 15.5257 24.6041 15.6934 24.3022L19.0587 18.2411Z" fill="url(#kubernetes-services02_paint0_linear)"/>
<path d="M19.0587 33.6874C19.235 33.3698 19.5697 33.1729 19.933 33.1729H28.0672C28.4305 33.1729 28.7652 33.3698 28.9415 33.6874L32.3068 39.7485C32.4745 40.0504 32.4745 40.4174 32.3068 40.7194L28.9415 46.7804C28.7652 47.098 28.4305 47.295 28.0672 47.295H19.933C19.5697 47.295 19.235 47.098 19.0587 46.7804L15.6934 40.7194C15.5257 40.4174 15.5257 40.0504 15.6934 39.7485L19.0587 33.6874Z" fill="#0078D4"/>
<path d="M19.0587 33.6874C19.235 33.3698 19.5697 33.1729 19.933 33.1729H28.0672C28.4305 33.1729 28.7652 33.3698 28.9415 33.6874L32.3068 39.7485C32.4745 40.0504 32.4745 40.4174 32.3068 40.7194L28.9415 46.7804C28.7652 47.098 28.4305 47.295 28.0672 47.295H19.933C19.5697 47.295 19.235 47.098 19.0587 46.7804L15.6934 40.7194C15.5257 40.4174 15.5257 40.0504 15.6934 39.7485L19.0587 33.6874Z" fill="url(#kubernetes-services02_paint1_linear)"/>
<path d="M4.63487 25.7431C4.81121 25.4255 5.14589 25.2285 5.50915 25.2285H13.6434C14.0066 25.2285 14.3413 25.4255 14.5177 25.7431L17.883 31.8042C18.0506 32.1061 18.0506 32.4731 17.883 32.775L14.5177 38.8361C14.3413 39.1537 14.0066 39.3507 13.6434 39.3507H5.50915C5.14589 39.3507 4.81121 39.1537 4.63487 38.8361L1.26953 32.775C1.1019 32.4731 1.1019 32.1061 1.26953 31.8042L4.63487 25.7431Z" fill="#0078D4"/>
<path d="M4.63487 25.7431C4.81121 25.4255 5.14589 25.2285 5.50915 25.2285H13.6434C14.0066 25.2285 14.3413 25.4255 14.5177 25.7431L17.883 31.8042C18.0506 32.1061 18.0506 32.4731 17.883 32.775L14.5177 38.8361C14.3413 39.1537 14.0066 39.3507 13.6434 39.3507H5.50915C5.14589 39.3507 4.81121 39.1537 4.63487 38.8361L1.26953 32.775C1.1019 32.4731 1.1019 32.1061 1.26953 31.8042L4.63487 25.7431Z" fill="url(#kubernetes-services02_paint2_linear)"/>
<path d="M4.63487 10.2973C4.81121 9.9797 5.14589 9.78271 5.50915 9.78271H13.6434C14.0066 9.78271 14.3413 9.9797 14.5177 10.2973L17.883 16.3584C18.0506 16.6603 18.0506 17.0273 17.883 17.3292L14.5177 23.3903C14.3413 23.7079 14.0066 23.9049 13.6434 23.9049H5.50915C5.14589 23.9049 4.81121 23.7079 4.63487 23.3903L1.26953 17.3292C1.1019 17.0273 1.1019 16.6603 1.26953 16.3584L4.63487 10.2973Z" fill="#0078D4"/>
<path d="M4.63487 10.2973C4.81121 9.9797 5.14589 9.78271 5.50915 9.78271H13.6434C14.0066 9.78271 14.3413 9.9797 14.5177 10.2973L17.883 16.3584C18.0506 16.6603 18.0506 17.0273 17.883 17.3292L14.5177 23.3903C14.3413 23.7079 14.0066 23.9049 13.6434 23.9049H5.50915C5.14589 23.9049 4.81121 23.7079 4.63487 23.3903L1.26953 17.3292C1.1019 17.0273 1.1019 16.6603 1.26953 16.3584L4.63487 10.2973Z" fill="url(#kubernetes-services02_paint3_linear)"/>
<path d="M33.4823 25.7431C33.6586 25.4255 33.9933 25.2285 34.3566 25.2285H42.4908C42.8541 25.2285 43.1887 25.4255 43.3651 25.7431L46.7304 31.8042C46.898 32.1061 46.898 32.4731 46.7304 32.775L43.3651 38.8361C43.1887 39.1537 42.8541 39.3507 42.4908 39.3507H34.3566C33.9933 39.3507 33.6586 39.1537 33.4823 38.8361L30.1169 32.775C29.9493 32.4731 29.9493 32.1061 30.1169 31.8042L33.4823 25.7431Z" fill="#0078D4"/>
<path d="M33.4823 25.7431C33.6586 25.4255 33.9933 25.2285 34.3566 25.2285H42.4908C42.8541 25.2285 43.1887 25.4255 43.3651 25.7431L46.7304 31.8042C46.898 32.1061 46.898 32.4731 46.7304 32.775L43.3651 38.8361C43.1887 39.1537 42.8541 39.3507 42.4908 39.3507H34.3566C33.9933 39.3507 33.6586 39.1537 33.4823 38.8361L30.1169 32.775C29.9493 32.4731 29.9493 32.1061 30.1169 31.8042L33.4823 25.7431Z" fill="url(#kubernetes-services02_paint4_linear)"/>
<path d="M33.4823 10.2973C33.6586 9.9797 33.9933 9.78271 34.3566 9.78271H42.4908C42.8541 9.78271 43.1887 9.9797 43.3651 10.2973L46.7304 16.3584C46.898 16.6603 46.898 17.0273 46.7304 17.3292L43.3651 23.3903C43.1887 23.7079 42.8541 23.9049 42.4908 23.9049H34.3566C33.9933 23.9049 33.6586 23.7079 33.4823 23.3903L30.1169 17.3292C29.9493 17.0273 29.9493 16.6603 30.1169 16.3584L33.4823 10.2973Z" fill="#0078D4"/>
<path d="M33.4823 10.2973C33.6586 9.9797 33.9933 9.78271 34.3566 9.78271H42.4908C42.8541 9.78271 43.1887 9.9797 43.3651 10.2973L46.7304 16.3584C46.898 16.6603 46.898 17.0273 46.7304 17.3292L43.3651 23.3903C43.1887 23.7079 42.8541 23.9049 42.4908 23.9049H34.3566C33.9933 23.9049 33.6586 23.7079 33.4823 23.3903L30.1169 17.3292C29.9493 17.0273 29.9493 16.6603 30.1169 16.3584L33.4823 10.2973Z" fill="url(#kubernetes-services02_paint5_linear)"/>
<path d="M19.0587 0.51457C19.235 0.196986 19.5697 0 19.933 0H28.0672C28.4305 0 28.7652 0.196985 28.9415 0.514569L32.3068 6.57565C32.4745 6.87756 32.4745 7.2446 32.3068 7.54651L28.9415 13.6076C28.7652 13.9252 28.4305 14.1222 28.0672 14.1222H19.933C19.5697 14.1222 19.235 13.9252 19.0587 13.6076L15.6934 7.54651C15.5257 7.2446 15.5257 6.87756 15.6934 6.57565L19.0587 0.51457Z" fill="#0078D4"/>
<path d="M19.0587 0.51457C19.235 0.196986 19.5697 0 19.933 0H28.0672C28.4305 0 28.7652 0.196985 28.9415 0.514569L32.3068 6.57565C32.4745 6.87756 32.4745 7.2446 32.3068 7.54651L28.9415 13.6076C28.7652 13.9252 28.4305 14.1222 28.0672 14.1222H19.933C19.5697 14.1222 19.235 13.9252 19.0587 13.6076L15.6934 7.54651C15.5257 7.2446 15.5257 6.87756 15.6934 6.57565L19.0587 0.51457Z" fill="url(#kubernetes-services02_paint6_linear)"/>
<defs>
<linearGradient id="kubernetes-services02_paint0_linear" x1="24.0001" y1="31.8453" x2="24.0001" y2="17.7293" gradientUnits="userSpaceOnUse">
<stop stop-color="#0078D4"/>
<stop offset="0.817" stop-color="#5EA0EF"/>
</linearGradient>
<linearGradient id="kubernetes-services02_paint1_linear" x1="24.0001" y1="47.2916" x2="24.0001" y2="33.1756" gradientUnits="userSpaceOnUse">
<stop stop-color="#0078D4"/>
<stop offset="0.817" stop-color="#5EA0EF"/>
</linearGradient>
<linearGradient id="kubernetes-services02_paint2_linear" x1="9.57627" y1="39.3473" x2="9.57627" y2="25.2312" gradientUnits="userSpaceOnUse">
<stop stop-color="#0078D4"/>
<stop offset="0.817" stop-color="#5EA0EF"/>
</linearGradient>
<linearGradient id="kubernetes-services02_paint3_linear" x1="9.57627" y1="23.9015" x2="9.57627" y2="9.78542" gradientUnits="userSpaceOnUse">
<stop stop-color="#0078D4"/>
<stop offset="0.817" stop-color="#5EA0EF"/>
</linearGradient>
<linearGradient id="kubernetes-services02_paint4_linear" x1="38.4237" y1="39.3473" x2="38.4237" y2="25.2312" gradientUnits="userSpaceOnUse">
<stop stop-color="#0078D4"/>
<stop offset="0.817" stop-color="#5EA0EF"/>
</linearGradient>
<linearGradient id="kubernetes-services02_paint5_linear" x1="38.4237" y1="23.9015" x2="38.4237" y2="9.78542" gradientUnits="userSpaceOnUse">
<stop stop-color="#0078D4"/>
<stop offset="0.817" stop-color="#5EA0EF"/>
</linearGradient>
<linearGradient id="kubernetes-services02_paint6_linear" x1="24.0001" y1="14.1187" x2="24.0001" y2="0.00270084" gradientUnits="userSpaceOnUse">
<stop stop-color="#0078D4"/>
<stop offset="0.817" stop-color="#5EA0EF"/>
</linearGradient>
</defs>
</svg>
