<svg data-slug-id="kubernetes-services04" viewBox="0 0 60 60" xmlns="http://www.w3.org/2000/svg">
    <path d="M16.215 6.554l3.674-2.134c1.773-1.034 4.147-1.093 6.826-.028l-3.672 2.132c-2.681-1.064-5.055-1.001-6.828.03zM29.588.847c2.319-1.348 5.609-1.129 9.222.957 6.903 3.985 12.478 13.31 12.528 20.9 4.802 3.697 8.44 10.366 8.426 15.854-.009 2.944-1.068 5.018-2.792 6.02l-3.699 2.148c1.724-1.001 2.784-3.074 2.792-6.019.016-5.492-3.623-12.156-8.425-15.855l.02-.1c-.089-7.575-5.646-16.846-12.524-20.816-3.614-2.086-6.904-2.305-9.223-.957L29.588.847z" fill="#D2D2D2"/>
    <path d="M47.805 24.831c-.046-7.624-5.646-16.993-12.58-21-5.612-3.24-10.447-1.993-12.1 2.619-5.782-2.3-10.144.63-10.165 7.21-.02 7.316 5.414 16.39 12.141 20.274.361.208.716.397 1.07.563L45.898 45.89c.162.094.336.166.517.212 5.432 2.875 9.776.5 9.793-5.463.012-5.475-3.616-12.122-8.403-15.808z" fill="url(#kubernetes-services04_49c23198-5faa-4803-a531-7e4bbf1694b5)"/>
    <path d="M23.941 15.478c-.334-.099-.547.132-.482.516a1.266 1.266 0 00.581.83.8.8 0 00.142.066c.104.033.143.05.165.055.11.028.225.045.34.05l.17.016c.338.04.67.12.991.236.117.066.215.16.285.274.085.058.177.104.274.137.289 1.19.708 2.346 1.25 3.444a17.858 17.858 0 002.015 3.209.5.5 0 01-.027.082.536.536 0 01-.066.137c.056.13.071.274.044.413-.13.274-.302.526-.51.747-.038.038-.07.077-.11.11-.073.07-.14.147-.197.23-.016.028-.033.06-.054.094a1.047 1.047 0 00.213 1.104c.064.075.14.138.225.187a.47.47 0 00.214.071.326.326 0 00.34-.181c.025-.04.049-.083.07-.126.049-.107.087-.217.116-.33.016-.055.033-.118.05-.17.093-.309.225-.604.393-.88.077-.087.165-.065.253-.043.05-.006.07-.039.093-.077.021-.038.05-.071.066-.1.323.325.651.627.98.907a11.52 11.52 0 001.627 1.154c.81.489 1.707.815 2.641.961l.131.346c.1.078.183.173.247.28.143.312.25.638.318.973l.118.462c.022.082.032.159.049.235.033.148.059.291.11.461.01.039.027.088.044.138.092.332.297.622.58.818a.463.463 0 00.225.072c.279.005.383-.347.24-.786a3.505 3.505 0 01-.07-.22 4.828 4.828 0 00-.197-.466c-.033-.077-.072-.155-.105-.236a11.542 11.542 0 01-.509-1.368.594.594 0 01.049-.34l-.104-.341a3.85 3.85 0 003.293-2.823l.252.192a.519.519 0 01.307.043c.352.28.685.583.997.907.077.077.131.137.186.192.11.115.214.23.34.341.028.027.066.055.104.088.064.058.134.11.208.154.28.159.526.104.59-.154a1.26 1.26 0 00-.477-1.066 2.674 2.674 0 01-.165-.143c-.131-.104-.24-.17-.353-.247-.06-.039-.118-.077-.187-.118a8.776 8.776 0 01-1.02-.785 1.958 1.958 0 01-.224-.38l-.262-.263a12.86 12.86 0 00-1.14-6.58l.18-.089c.017-.118.04-.264.116-.313a3.05 3.05 0 01.849-.198c.055-.006.11-.006.164-.01.103 0 .206-.012.307-.034a.584.584 0 00.082-.027.39.39 0 00.286-.34.933.933 0 00-.105-.55 1.14 1.14 0 00-.427-.478.524.524 0 00-.417-.072c-.065.023-.098.033-.126.045-.089.042-.173.094-.252.153-.038.028-.076.06-.117.088-.234.16-.493.28-.766.354a.33.33 0 01-.187-.05c-.039-.022-.077-.055-.117-.082a.5.5 0 00-.242.022 16.476 16.476 0 00-3.709-4.597c-.327-.276-.67-.535-1.025-.774l-.015-.292a1.525 1.525 0 01-.187-.444 6.452 6.452 0 01.099-1.341c.026-.127.042-.255.049-.384v-.118a1.36 1.36 0 00-.559-1.12.369.369 0 00-.4-.022.496.496 0 00-.164.418c0 .104-.006.148 0 .187.005.153.027.291.044.439l.033.225c.053.406.073.816.059 1.225a.23.23 0 01-.16.209 1.021 1.021 0 00-.043.295 6.392 6.392 0 00-2.58-.665 3.813 3.813 0 00-2.149.56l-.218-.302a.73.73 0 01-.132-.071.779.779 0 01-.214-.177c-.27-.39-.518-.792-.745-1.208l-.142-.258a6.819 6.819 0 00-.252-.451c-.028-.038-.06-.088-.093-.137a1.442 1.442 0 00-.45-.462.374.374 0 00-.427-.022c-.197.165-.132.632.137 1.039a4.778 4.778 0 00.433.576c.054.066.11.127.164.198.304.376.586.77.844 1.179a.783.783 0 01.104.39.495.495 0 00.087.18c.039.067.083.138.118.188a5.09 5.09 0 00-1.074 2.224 9.042 9.042 0 00-.126 2.988l-.23-.049a.307.307 0 01-.246.143 5.233 5.233 0 01-1.009-.39c-.076-.038-.136-.071-.197-.104-.118-.06-.23-.118-.354-.17a1.088 1.088 0 00-.104-.034.037.037 0 01-.062.001zm3.956 2.763l2.964 1.132c.039.022.072.038.099.055a.04.04 0 00.022.01.93.93 0 01.192.171.948.948 0 01.246.895l-1.156 2.544a14.115 14.115 0 01-1.441-2.33c-.39-.792-.7-1.622-.926-2.477zm11.424 5.015l-2.866-2.609a1.4 1.4 0 01-.263-.363c-.17-.34-.136-.675.066-.766v-.016l2.24-1.01c.327.788.57 1.61.723 2.45.138.763.171 1.542.1 2.314zm-11.727-6.79a6.887 6.887 0 01.125-2.13 4.079 4.079 0 01.74-1.637l2.22 3.576c.076.124.13.262.158.406.06.34-.099.55-.353.484v.01l-2.89-.708zm7.89 6.424l.005-.01a.752.752 0 01-.028-.374c.055-.23.252-.302.488-.17.038.022.065.043.098.065l2.943 2.269a3.374 3.374 0 01-.954 1.414 2.86 2.86 0 01-1.414.643l-1.139-3.837zm-3.94 1.61l1.452-2.187a.288.288 0 01.24-.11.442.442 0 01.22.07c.005.005.01.005.021.01.196.135.345.327.428.55l1.44 3.845a5.869 5.869 0 01-1.895-.73 8.98 8.98 0 01-1.315-.934 5.803 5.803 0 01-.59-.513l-.001-.001zm6.07-7.79l-2.45.59a.448.448 0 01-.3-.066 1.125 1.125 0 01-.505-.846l-.01-.017-.16-3.535c.214.148.417.307.614.466a13.309 13.309 0 012.814 3.407l-.003.001zm-4.85-4.702l-.176 3.34a.369.369 0 01-.118.275.327.327 0 01-.394-.011.943.943 0 01-.295-.28l-2.432-3.395a2.984 2.984 0 011.567-.368c.64.022 1.27.17 1.852.437l-.003.002zm1.157 6.328l.57 1.154-.208.906-.825-.016-.822-.936-.202-1.143.57-.495.917.53z" fill="#B4B4B4"/>
    <path d="M.267 23.296l10.093 5.8-.06 12.91-10.064-5.83.03-12.88z" fill="#185A97"/>
    <path d="M1.621 35.186l.016-9.302L4.56 27.56l-.03 9.302-2.909-1.675zM5.9 37.653l.03-9.302 2.908 1.69-.03 9.286-2.909-1.674z" fill="#0078D4"/>
    <path d="M10.345 29.112l9.652-5.618-.03 12.895-9.668 5.602.046-12.88z" fill="#156AB3"/>
    <path d="M.268 23.296l9.667-5.617 10.063 5.815-9.652 5.618L.268 23.296z" fill="#0078D4"/>
    <path d="M14.966 31.991l10.093 5.8-.06 12.91-10.064-5.83.03-12.88z" fill="#2195DC"/>
    <path d="M16.32 43.881l.016-9.302 2.923 1.675-.03 9.302-2.908-1.675zM20.599 46.348l.03-9.302 2.908 1.69-.03 9.286-2.909-1.674z" fill="#45CAF2"/>
    <path d="M25.044 37.807l9.652-5.618-.03 12.895-9.668 5.602.046-12.88z" fill="#32B0E7"/>
    <path d="M14.966 31.991l9.668-5.617 10.063 5.815-9.652 5.618-10.079-5.816z" fill="#45CAF2"/>
    <path d="M29.794 41.29l10.094 5.8L39.827 60l-10.063-5.83.03-12.88z" fill="#50E6FF"/>
    <path d="M31.149 53.18l.015-9.302 2.923 1.674-.03 9.302-2.908-1.674zM35.427 55.646l.03-9.302 2.908 1.69-.03 9.287-2.908-1.675z" fill="#ACF3FD"/>
    <path d="M39.873 47.105l9.652-5.617-.03 12.894-9.668 5.603.046-12.88z" fill="#84ECFD"/>
    <path d="M29.795 41.29l9.667-5.618 10.063 5.816-9.652 5.617-10.078-5.815z" fill="#ACF3FD"/>
    <defs>
        <linearGradient id="kubernetes-services04_49c23198-5faa-4803-a531-7e4bbf1694b5" x1="34.889" y1="4.335" x2="34.889" y2="46.196" gradientUnits="userSpaceOnUse">
            <stop stop-color="#F4F4F4"/>
            <stop offset="1" stop-color="#DCDCDC"/>
        </linearGradient>
    </defs>
</svg>
