<svg data-slug-id="language-understanding-intelligent-services01" viewBox="0 0 48 48" xmlns="http://www.w3.org/2000/svg">
<path d="M48 24.2131C48 10.9583 37.2548 0.213135 24 0.213135C10.7452 0.213135 0 10.9583 0 24.2131C0 37.468 10.7452 48.2131 24 48.2131C37.2548 48.2131 48 37.468 48 24.2131Z" fill="#0078D4"/>
<path d="M24 2.55167H23.9973C12.0355 2.55167 2.33862 12.2486 2.33862 24.2103V24.213C2.33862 36.1747 12.0355 45.8717 23.9973 45.8717H24C35.9617 45.8717 45.6586 36.1747 45.6586 24.213V24.2103C45.6586 12.2486 35.9617 2.55167 24 2.55167Z" fill="url(#language-understanding-intelligent-services01_paint0_linear)"/>
<path d="M17.0992 38.4186C15.9433 38.5107 14.7882 38.2304 13.8032 37.6186C13.4437 37.2264 13.1726 36.7615 13.0084 36.2554C12.8441 35.7493 12.7905 35.2139 12.8512 34.6853V27.0693C12.8512 25.8239 12.3392 25.1653 11.3152 25.1653V23.2613C12.3392 23.2613 12.8512 22.6026 12.8512 21.2853V13.8133C12.7921 13.2741 12.8463 12.7285 13.0102 12.2114C13.1741 11.6944 13.4442 11.2173 13.8032 10.8106C14.7736 10.1647 15.9406 9.88144 17.0992 10.0106V11.9146C16.0005 11.9146 15.4139 12.5013 15.4139 13.7439V21.0639C15.4139 22.7493 14.9019 23.7733 13.8139 24.2133C14.3743 24.5074 14.8294 24.9685 15.1161 25.5328C15.4027 26.0971 15.5068 26.7365 15.4139 27.3626V34.6133C15.384 35.1274 15.5125 35.6383 15.7819 36.0773C15.9458 36.2347 16.1415 36.3553 16.3558 36.4312C16.57 36.5071 16.798 36.5364 17.0245 36.5173L17.0992 38.4213V38.4186Z" fill="white"/>
<path d="M29.7021 10.0077C30.8581 9.9156 32.0131 10.1959 32.9981 10.8077C33.3577 11.2 33.6287 11.6649 33.7929 12.1709C33.9572 12.677 34.0108 13.2125 33.9501 13.7411V21.3571C33.9501 22.6024 34.4622 23.2611 35.4862 23.2611V25.1651C34.4622 25.1651 33.9501 25.8237 33.9501 27.1411V34.5384C34.0105 35.0785 33.957 35.6252 33.793 36.1433C33.629 36.6614 33.3582 37.1394 32.9981 37.5464C32.0393 38.2228 30.8705 38.5348 29.7021 38.4264V36.5224C30.8008 36.5224 31.3875 35.9357 31.3875 34.6931V27.3624C31.3875 25.6771 31.8995 24.6531 32.9875 24.2131C32.427 23.919 31.972 23.4578 31.6853 22.8936C31.3986 22.3293 31.2945 21.6898 31.3875 21.0637V13.8131C31.4173 13.2989 31.2889 12.788 31.0195 12.3491C30.8555 12.1917 30.6598 12.071 30.4456 11.9952C30.2313 11.9193 30.0033 11.8899 29.7768 11.9091L29.7021 10.0077Z" fill="white"/>
<defs>
<linearGradient id="language-understanding-intelligent-services01_paint0_linear" x1="24" y1="2.55167" x2="24" y2="45.8743" gradientUnits="userSpaceOnUse">
<stop stop-color="#5EA0EF"/>
<stop offset="1" stop-color="#0078D4"/>
</linearGradient>
</defs>
</svg>
