<svg data-slug-id="leafs" viewBox="0 0 48 49" xmlns="http://www.w3.org/2000/svg">
    <path d="M14.3395 38.6909C7.19183 38.6909 1.37806 32.8771 1.37806 25.7378V15.7126H13.123C20.2707 15.7126 26.0845 21.5264 26.0845 28.6741V38.6909H14.3395Z" fill="#50E6FF"/>
    <path d="M31.001 38.7042V31.3719C31.001 27.5884 34.0799 24.5095 37.8635 24.5095H46.6219V31.8417C46.6219 35.6253 43.543 38.7042 39.7594 38.7042H31.001Z" fill="#50E6FF"/>
    <path d="M27.343 38.1713V28.6747C27.343 20.8223 20.9756 14.4548 13.1232 14.4548H0.11982V25.73C0.11982 33.5824 6.48728 39.9498 14.3396 39.9498H24.843V48.2468H27.3598V38.1713H27.343ZM6.06781 34.0102C3.85305 31.7955 2.6366 28.8592 2.6366 25.7384V16.9716H13.1232C16.2524 16.9716 19.1886 18.1881 21.395 20.4028C23.6014 22.6176 24.8262 25.5538 24.8262 28.6747V34.6898C23.9454 33.3978 22.2256 31.1998 19.1551 28.2384C15.9755 25.1763 13.1148 23.5991 11.3614 22.8441C10.9168 22.6512 10.5309 23.2048 10.8581 23.5572C12.7121 25.5287 16.0511 29.0941 17.1081 30.2854C18.2407 31.5606 21.7809 35.6042 23.3833 37.4414H14.3396C11.2104 37.4414 8.27419 36.2166 6.06781 34.0102Z" fill="#0078D4"/>
    <path d="M37.8636 23.2517C33.3754 23.2517 29.7428 26.8843 29.7428 31.3725V38.1678V48.2517H32.2596V39.9715H39.7596C44.2479 39.9715 47.8804 36.339 47.8804 31.8507V23.2517H37.8636ZM45.3636 31.8423C45.3636 34.9296 42.8468 37.4464 39.7596 37.4464H33.0901C34.0801 36.146 35.867 33.8138 36.5549 33.042C37.1002 32.4296 38.5767 30.8524 39.7764 29.5688C40.1874 29.1326 39.6589 28.4531 39.1304 28.7467C38.0482 29.3507 36.6807 30.2819 35.2126 31.6997C33.8619 33 32.9139 34.0739 32.2596 34.896V31.3725C32.2596 28.2853 34.7764 25.7685 37.8636 25.7685H45.3636V31.8423Z" fill="#0078D4"/>
</svg>
