<svg data-slug-id="linkedin" viewBox="0 0 36 36" xmlns="http://www.w3.org/2000/svg">
    <rect width="36" height="36" rx="2" fill="#0077B5"/>
    <path d="M11.1317 7.93502C11.1317 6.16382 9.68828 4.72644 7.91402 4.72644C6.13187 4.72644 4.69434 6.16382 4.69434 7.93502C4.69434 9.70819 6.13187 11.1456 7.91402 11.1456C9.68828 11.1456 11.1317 9.70819 11.1317 7.93502ZM24.8173 13.1359C30.4374 13.1359 31.4752 16.8217 31.4752 21.6169V31.3821H25.926L25.9242 22.257C25.9053 20.2799 25.6796 18.0038 23.043 18.0038C20.1542 18.0038 19.7131 20.2541 19.7131 22.5771V31.3821H14.1717V13.5778H19.4905V16.0107H19.5673C20.3058 14.6106 22.1175 13.1359 24.8173 13.1359ZM10.6915 13.5779V31.3822H5.13628V13.5779H10.6915Z" fill="white"/>
</svg>
