<svg data-slug-id="linux-blue" viewBox="0 0 48 48" xmlns="http://www.w3.org/2000/svg">
<path d="M40.6799 36.3339C40.3923 35.9823 40.2325 35.3751 40.0727 34.704C39.9129 34.0328 39.7531 33.3297 39.2098 32.8503C39.1139 32.7544 38.986 32.6905 38.8902 32.5946C38.7623 32.5307 38.6664 32.4668 38.5386 32.4348C39.3056 30.1657 39.018 27.9285 38.219 25.9151C37.2922 23.4222 35.6303 21.2489 34.3839 19.7788C32.9776 17.9891 31.6034 16.3272 31.6353 13.8343C31.6673 10.0311 32.0508 3 25.3712 3C25.1156 3 24.8279 3 24.5083 3.03196C17.0617 3.63919 19.0113 11.5332 18.9154 14.1539C18.7875 16.0715 18.3721 17.6056 17.0617 19.4912C15.4957 21.3448 13.2905 24.349 12.2678 27.4811C11.7884 28.9512 11.5327 30.4533 11.7564 31.8915C11.6925 31.9554 11.6286 32.0193 11.5647 32.0833C11.1172 32.5627 10.7657 33.1699 10.3822 33.5534C10.0306 33.905 9.51925 34.0328 8.97594 34.2246C8.43262 34.4163 7.82539 34.704 7.44188 35.4071C7.28208 35.7267 7.21816 36.0782 7.21816 36.4298C7.21816 36.7494 7.28208 37.1009 7.31404 37.4205C7.40992 38.0917 7.5058 38.6989 7.37796 39.1463C6.93052 40.3289 6.89856 41.1598 7.1862 41.767C7.5058 42.3743 8.11303 42.6299 8.8481 42.7897C10.2863 43.0774 12.2358 43.0135 13.7379 43.8125L13.8658 43.5568L13.7699 43.8444C15.3998 44.7073 17.0617 44.995 18.404 44.7073C19.3628 44.4836 20.1298 43.9083 20.5453 43.0454C21.568 43.0454 22.7186 42.598 24.5403 42.5021C25.7867 42.4062 27.3208 42.9495 29.0786 42.8537C29.1105 43.0454 29.2064 43.2372 29.2703 43.397C29.9415 44.7712 31.2518 45.4104 32.5941 45.2826C33.9684 45.1867 35.4066 44.3558 36.5891 42.9815L36.3653 42.7897L36.5891 42.9815C37.7076 41.6392 39.5613 41.0639 40.7758 40.3288C41.383 39.9453 41.8944 39.4979 41.9263 38.8267C41.9902 38.1236 41.5748 37.3566 40.6799 36.3339Z" fill="#0078D4"/>
<path d="M41.3855 38.7607C41.3535 39.1761 41.0659 39.4957 40.4906 39.8153C39.372 40.4865 37.3905 41.0618 36.1441 42.5958C35.0575 43.9062 33.7152 44.6093 32.5327 44.7051C31.3502 44.801 30.3275 44.3216 29.7522 43.1072C29.3687 42.4041 29.5285 41.2855 29.8481 40.103C30.1677 38.9205 30.6151 37.7379 30.679 36.7472C30.7429 35.5008 30.8069 34.3822 31.0306 33.5512C31.2543 32.6883 31.5739 32.145 32.1492 31.8254C32.1811 31.8254 32.2131 31.7935 32.245 31.7935C32.309 32.8801 32.8523 33.9987 33.8111 34.2224C34.8657 34.51 36.3359 33.6152 36.9751 32.8801C37.1029 32.8801 37.2307 32.8801 37.3586 32.8801C37.9019 32.8801 38.3813 32.912 38.8607 33.3275C39.2122 33.6471 39.404 34.2224 39.5638 34.8935C39.7236 35.5647 39.8195 36.2678 40.2989 36.7792C41.1298 37.674 41.4175 38.3452 41.3855 38.7607Z" fill="white"/>
<path d="M20.2258 41.8304C20.1299 43.1407 19.3948 43.8758 18.2443 44.1315C17.0937 44.3872 15.5597 44.1315 13.9936 43.3325C12.2678 42.4376 10.2544 42.5335 8.94402 42.2459C8.30483 42.118 7.85739 41.8943 7.66564 41.5108C7.47388 41.1273 7.47388 40.4561 7.88935 39.3375C8.08111 38.6983 7.95327 37.9952 7.85739 37.356C7.76151 36.7168 7.69759 36.1096 7.92131 35.6941C8.20895 35.1508 8.62442 34.9591 9.13578 34.7673C9.64713 34.5756 10.2544 34.4477 10.7657 33.9364C11.2132 33.457 11.5647 32.8817 11.9482 32.4343C12.2678 32.0827 12.6194 31.827 13.1307 31.827C13.2266 31.827 13.3225 31.827 13.4184 31.859C14.0895 31.9549 14.6648 32.4343 15.2081 33.2013L16.8061 36.1416C17.2216 37.0364 18.1484 38.0272 18.9154 39.0179C19.7144 40.0406 20.3216 41.0634 20.2258 41.8304Z" fill="white"/>
<path d="M28.2839 14.4085C28.156 14.1528 27.9003 13.8971 27.4529 13.7373C26.5261 13.3538 26.1106 13.3219 25.5992 12.9703C24.7363 12.427 24.0332 12.2352 23.4579 12.2352C23.1384 12.2352 22.8827 12.2991 22.627 12.3631C21.9239 12.6187 21.4445 13.1301 21.1569 13.3858C21.0929 13.4497 21.029 13.4817 20.8373 13.6095C20.6455 13.7373 20.3898 13.9291 19.9743 14.2487C19.6228 14.5044 19.495 14.8559 19.6228 15.2394C19.7506 15.623 20.1341 16.1023 20.8373 16.5178C21.2847 16.7735 21.5723 17.1251 21.9239 17.4127C22.0837 17.5405 22.2754 17.6684 22.4992 17.7642C22.7229 17.8601 22.9786 17.924 23.2981 17.924C24.0332 17.956 24.6085 17.7323 25.0879 17.4766C25.5673 17.189 25.9828 16.8694 26.4622 16.7096C27.4209 16.4219 28.1241 15.7827 28.3478 15.2075C28.4436 14.9198 28.4117 14.6642 28.2839 14.4085Z" fill="white"/>
<path d="M25.8184 15.8499C25.0514 16.2654 24.1565 16.7448 23.1977 16.7448C22.2389 16.7448 21.4719 16.2973 20.9286 15.8819C20.6729 15.6581 20.4492 15.4664 20.2574 15.3066C19.9698 15.0829 20.0017 14.7633 20.1296 14.7633C20.3213 14.7952 20.3533 15.0509 20.4811 15.1787C20.6409 15.3385 20.8647 15.5303 21.1203 15.754C21.6317 16.1695 22.3348 16.553 23.1658 16.553C24.0287 16.553 25.0194 16.0417 25.6266 15.6901C25.9782 15.4983 26.4256 15.1468 26.7772 14.8911C27.0648 14.6993 27.0329 14.4437 27.2566 14.4756C27.4803 14.5076 27.3205 14.7313 27.0009 15.0189C26.7133 15.2427 26.2339 15.6262 25.8184 15.8499Z" fill="#0078D4"/>
<path d="M37.6444 32.3062C37.5485 32.3062 37.4207 32.3062 37.3248 32.3062H37.2928C37.5485 31.4753 36.9732 30.8361 35.4072 30.133C33.7773 29.4298 32.4989 29.4938 32.2752 30.9319C32.2752 30.9959 32.2432 31.0917 32.2432 31.1557C32.1154 31.1876 31.9875 31.2515 31.8917 31.3155C31.1246 31.7309 30.7092 32.498 30.4854 33.4248C30.2617 34.3516 30.1978 35.4702 30.1339 36.7166C30.1019 37.3558 29.8463 38.2187 29.5586 39.1136C26.906 40.9992 23.2306 41.8302 20.0986 39.6889C19.8748 39.3693 19.6511 39.0177 19.3955 38.6981C19.2357 38.5064 19.0759 38.2827 18.9161 38.0909C19.2357 38.0909 19.5233 38.027 19.715 37.9311C20.0027 37.8033 20.1944 37.6115 20.2903 37.3558C20.4821 36.8445 20.2903 36.1094 19.6831 35.2785C19.0759 34.4475 18.0531 33.5207 16.5191 32.5939C15.4005 31.8907 14.7933 31.0598 14.4737 30.133C14.186 29.2061 14.218 28.2154 14.4417 27.2246C14.8891 25.339 15.9758 23.4854 16.6789 22.3348C16.8706 22.207 16.7428 22.5905 15.9758 24.0606C15.2727 25.4029 13.9623 28.4711 15.7521 30.868C15.816 29.1742 16.1995 27.4164 16.9026 25.7864C17.8934 23.5173 19.9707 19.6182 20.1625 16.4862C20.2584 16.5501 20.546 16.7419 20.6738 16.8058C21.0574 17.0295 21.345 17.3491 21.7285 17.6687C22.112 17.9563 22.5595 18.212 23.2626 18.2759C23.3265 18.2759 23.3904 18.2759 23.4543 18.2759C24.1894 18.2759 24.7327 18.0522 25.2121 17.7646C25.7235 17.4769 26.1389 17.1573 26.5224 17.0295C27.3534 16.7738 27.9926 16.3264 28.3761 15.7831C29.0153 18.3079 30.4854 21.9193 31.4442 23.6771C31.9556 24.6039 32.9463 26.6174 33.3938 29.0144C33.6814 29.0144 33.969 29.0463 34.2886 29.1422C35.4392 26.2019 33.3298 23.006 32.3711 22.143C31.9875 21.7595 31.9556 21.5997 32.1473 21.5997C33.202 22.5266 34.5443 24.3802 35.0557 26.4576C35.2794 27.4164 35.3433 28.4071 35.0876 29.3979C35.2155 29.4618 35.3433 29.4938 35.4392 29.5577C37.2928 30.4526 37.964 31.2515 37.6444 32.3062Z" fill="white"/>
<path d="M28.3756 11.4984C28.3756 12.0097 28.2797 12.4252 28.1199 12.8407C28.024 13.0964 27.8962 13.2881 27.7364 13.4799C27.6725 13.4479 27.6405 13.416 27.5766 13.416C27.3848 13.352 27.225 13.2562 27.0652 13.2242C26.9054 13.1603 26.8096 13.1283 26.6817 13.0964C26.7776 13.0005 26.9374 12.8726 27.0013 12.7128C27.0972 12.4891 27.1292 12.2334 27.1611 11.9778V11.9458C27.1611 11.6901 27.1292 11.4664 27.0652 11.2427C27.0013 10.987 26.8735 10.8272 26.7457 10.6994C26.5859 10.5715 26.458 10.5076 26.2663 10.4757C26.2663 10.4757 26.2663 10.4757 26.2343 10.4757C26.0745 10.4757 25.9147 10.5396 25.7869 10.6674C25.6271 10.7953 25.5312 10.9551 25.4033 11.2107C25.3075 11.4345 25.2755 11.6901 25.2435 11.9458V11.9778C25.2435 12.1376 25.2435 12.2654 25.2755 12.3932C24.924 12.2334 24.5085 12.1056 24.1889 12.0417C24.1569 11.9139 24.1569 11.786 24.1569 11.6262V11.5943C24.1569 11.0829 24.2208 10.6674 24.4126 10.252C24.6044 9.80452 24.8281 9.51688 25.1796 9.2612C25.4992 9.00552 25.8508 8.87769 26.2343 8.87769H26.2663C26.6498 8.87769 26.9694 9.00552 27.289 9.22924C27.6405 9.48492 27.8642 9.77256 28.056 10.22C28.2478 10.6355 28.3436 11.0509 28.3436 11.5303C28.3756 11.4984 28.3756 11.4984 28.3756 11.4984Z" fill="white"/>
<path d="M22.6539 12.0104C22.59 12.0104 22.558 12.0424 22.4941 12.0424C22.2384 12.1383 22.0147 12.2342 21.791 12.362C21.8229 12.2342 21.8229 12.0744 21.791 11.9146C21.791 11.9146 21.791 11.9146 21.791 11.8826C21.759 11.6589 21.727 11.4991 21.6631 11.3073C21.5992 11.1156 21.5033 10.9877 21.3755 10.8919C21.2796 10.796 21.1518 10.764 21.0559 10.764H21.0239C20.8961 10.764 20.8002 10.8279 20.7043 10.9558C20.6085 11.0836 20.5445 11.2115 20.4806 11.4352C20.4167 11.6269 20.4167 11.8187 20.4487 12.0424C20.4487 12.0424 20.4487 12.0424 20.4487 12.0744C20.4806 12.2981 20.5126 12.4579 20.5765 12.6496C20.6404 12.8414 20.7363 12.9692 20.8641 13.0651C20.8961 13.0971 20.8961 13.0971 20.9281 13.0971C20.8002 13.193 20.7363 13.2569 20.6085 13.3527C20.5445 13.4167 20.4806 13.4486 20.3847 13.5125C20.193 13.3208 20.0332 13.0971 19.9053 12.7775C19.7455 12.4259 19.6497 12.0424 19.6497 11.6269C19.6177 11.2115 19.6816 10.8279 19.7775 10.4444C19.9053 10.0609 20.0651 9.77327 20.2889 9.54955C20.5126 9.32584 20.7363 9.198 21.0239 9.198C21.0559 9.198 21.0559 9.198 21.0879 9.198C21.3435 9.198 21.5672 9.29388 21.791 9.45368C22.0466 9.64543 22.2384 9.90111 22.3982 10.2846C22.558 10.6362 22.6539 11.0197 22.6539 11.4352C22.6539 11.6589 22.6539 11.8506 22.6539 12.0104Z" fill="white"/>
<path d="M23.9315 13.0322C23.9634 13.1281 24.1232 13.1281 24.2191 13.1601C24.315 13.192 24.3789 13.2879 24.4748 13.2879C24.5707 13.2879 24.6985 13.256 24.7305 13.1601C24.7305 13.0322 24.5707 12.9683 24.4748 12.9364C24.347 12.8724 24.1552 12.8405 24.0274 12.9364C23.9315 12.9683 23.8995 13.0003 23.9315 13.0322Z" fill="#0078D4"/>
<path d="M22.94 13.0322C22.9081 13.1281 22.7483 13.1281 22.6524 13.1601C22.5565 13.192 22.4926 13.2879 22.3967 13.2879C22.3009 13.2879 22.173 13.256 22.1411 13.1601C22.1411 13.0322 22.3009 12.9683 22.3967 12.9364C22.5246 12.8724 22.7163 12.8405 22.8442 12.9364C22.9081 12.9683 22.94 13.0003 22.94 13.0322Z" fill="#0078D4"/>
</svg>
