<svg data-slug-id="linux-vm" viewBox="0 0 64 64" xmlns="http://www.w3.org/2000/svg">
<path d="M63.5613 3.62054H0.867348V59.828H63.5613V3.62054Z" fill="#0078D4"/>
<path d="M60.0406 14.4777H4.14796V56.3339H60.0406V14.4777Z" fill="#50E6FF"/>
<path d="M6.59825 11.7239C7.93882 11.7239 9.02558 10.6372 9.02558 9.29659C9.02558 7.95601 7.93882 6.86926 6.59825 6.86926C5.25767 6.86926 4.17092 7.95601 4.17092 9.29659C4.17092 10.6372 5.25767 11.7239 6.59825 11.7239Z" fill="#50E6FF"/>
<path d="M13.8636 11.7239C15.2042 11.7239 16.2909 10.6372 16.2909 9.29659C16.2909 7.95601 15.2042 6.86926 13.8636 6.86926C12.523 6.86926 11.4362 7.95601 11.4362 9.29659C11.4362 10.6372 12.523 11.7239 13.8636 11.7239Z" fill="#50E6FF"/>
<path d="M21.1314 11.7239C22.472 11.7239 23.5588 10.6372 23.5588 9.29659C23.5588 7.95601 22.472 6.86926 21.1314 6.86926C19.7909 6.86926 18.7041 7.95601 18.7041 9.29659C18.7041 10.6372 19.7909 11.7239 21.1314 11.7239Z" fill="#50E6FF"/>
<path d="M11.8327 31.3642V33.0717H11.0139V31.4283C9.89785 31.4283 8.9887 31.2039 8.29226 30.7523V29.3827C8.59531 29.6508 9.01201 29.8751 9.53944 30.0559C10.0669 30.2365 10.5593 30.3267 11.0139 30.3267V26.2968C9.85997 25.7402 9.11399 25.2274 8.77306 24.7582C8.43213 24.2891 8.26021 23.7354 8.26021 23.0944C8.26021 22.3338 8.51955 21.6781 9.03824 21.1245C9.55691 20.5709 10.2155 20.2387 11.0139 20.1279V18.7118H11.8327V20.0959C12.8614 20.1279 13.5723 20.2737 13.9657 20.5359V21.8734C13.4296 21.4537 12.7186 21.2295 11.8327 21.1973V25.3526C12.9225 25.8713 13.6714 26.3755 14.0706 26.8593C14.4699 27.3429 14.6739 27.8966 14.6739 28.5144C14.6739 29.2603 14.4232 29.8838 13.9221 30.3909C13.4208 30.8979 12.7244 31.2214 11.8327 31.3642ZM11.0139 24.9126V21.2468C10.5739 21.3372 10.2242 21.5325 9.96779 21.8326C9.71136 22.1357 9.58314 22.4999 9.58314 22.9312C9.58314 23.3829 9.68805 23.7529 9.89785 24.0414C10.1077 24.3269 10.4806 24.6183 11.0139 24.9126ZM11.8327 26.7047V30.2597C12.8439 30.0384 13.3509 29.4934 13.3509 28.6221C13.3509 27.9025 12.8468 27.2613 11.8327 26.7047Z" fill="#0078D4"/>
<path d="M22.3609 33.7626H15.6735V32.8271H22.3609V33.7626Z" fill="#0078D4"/>
</svg>
