<svg data-slug-id="load-balancer01" viewBox="0 0 48 48" xmlns="http://www.w3.org/2000/svg">
<path fill-rule="evenodd" clip-rule="evenodd" d="M24.001 46C22.9168 46 21.896 45.5776 21.1313 44.8103L3.18912 26.8692C2.4332 26.1133 2.00024 25.0687 2.00024 23.9996C2.00024 22.9313 2.4332 21.8858 3.18912 21.1308L21.1313 3.18974C21.8978 2.42239 22.9168 2 24.001 2C25.0843 2 26.1042 2.42239 26.8707 3.18974L44.8102 21.1308C45.5785 21.8946 46 22.9145 46 23.9996C46 25.0846 45.5785 26.1045 44.8094 26.8709L26.8707 44.8103C26.1051 45.5776 25.0843 46 24.001 46Z" fill="#7FBA00"/>
<path fill-rule="evenodd" clip-rule="evenodd" d="M19.3729 23.7012C19.3729 21.1502 21.4488 19.0743 23.9999 19.0743C24.4698 19.0743 24.9133 19.1658 25.341 19.2961L32.4566 8.77586L26.8704 3.18974C26.1039 2.42239 25.084 2 24.0007 2C22.9175 2 21.8984 2.42239 21.132 3.18974L3.18975 21.1308C2.43296 21.8858 2 22.9313 2 23.9996C2 24.37 2.06952 24.7326 2.16896 25.0863C2.2376 25.331 2.32736 25.5668 2.44 25.7947C2.63448 26.1872 2.87647 26.5568 3.18975 26.8692L13.3475 37.0277L20.4104 26.5849C19.7715 25.7912 19.3729 24.7968 19.3729 23.7012Z" fill="#9EC84B"/>
<path fill-rule="evenodd" clip-rule="evenodd" d="M42.138 23.7012L36.3186 17.8828V21.9905L30.1446 21.9852C29.5488 19.8574 27.8804 18.1767 25.7587 17.5677V11.6807H29.8181L23.9987 5.86133L18.1802 11.6807H22.2387V17.5669C20.1206 18.1758 18.4539 19.8513 17.8555 21.9738L11.6788 21.9685V17.9048L5.85938 23.7241L11.6788 29.5425V25.4348L17.8581 25.4401C18.4591 27.5582 20.1232 29.2284 22.2387 29.8364V33.916C21.3587 34.5567 20.0141 35.903 20.0141 37.4712C20.0141 39.6544 21.8031 41.4311 23.9864 41.4311C26.1697 41.4311 27.9552 39.6544 27.9552 37.4712C27.9552 35.9206 26.6387 34.5901 25.7587 33.9398V29.8364C27.8698 29.2301 29.533 27.5635 30.1367 25.4515L36.3186 25.4568V29.5205L42.138 23.7012Z" fill="white"/>
<path fill-rule="evenodd" clip-rule="evenodd" d="M23.9981 19.0742C21.447 19.0742 19.3711 21.1501 19.3711 23.7012C19.3711 26.2522 21.447 28.3281 23.9981 28.3281C26.5492 28.3281 28.6251 26.2531 28.6251 23.7012C28.6251 21.1492 26.5492 19.0742 23.9981 19.0742Z" fill="#59B4D9"/>
<path fill-rule="evenodd" clip-rule="evenodd" d="M19.3711 23.7012C19.3711 24.7967 19.7697 25.7911 20.4086 26.5849L25.3392 19.296C24.9115 19.1657 24.468 19.0742 23.9981 19.0742C21.447 19.0742 19.3711 21.1501 19.3711 23.7012Z" fill="#59B4D9"/>
<path fill-rule="evenodd" clip-rule="evenodd" d="M19.3711 23.7012C19.3711 24.7967 19.7697 25.7911 20.4086 26.5849L25.3392 19.296C24.9115 19.1657 24.468 19.0742 23.9981 19.0742C21.447 19.0742 19.3711 21.1501 19.3711 23.7012Z" fill="#83C6DF"/>
</svg>
