<svg data-slug-id="machine-learning01" viewBox="0 0 49 48" xmlns="http://www.w3.org/2000/svg">
<path d="M11.9221 15.7889C12.8376 15.7889 13.5788 16.5066 13.5788 17.3931C13.5788 18.2797 12.8376 18.9974 11.9221 18.9974C11.0066 18.9974 10.2655 18.2797 10.2655 17.3931C10.2655 17.2243 10.3091 17.0132 10.3963 16.8443L7.08297 14.9024L0.5 18.6174V23.8945H5.38274C5.60071 23.2612 6.21106 22.7968 6.95219 22.7968C7.8677 22.7968 8.60883 23.5145 8.60883 24.4011C8.60883 25.2876 7.8677 26.0053 6.95219 26.0053C6.12387 26.0053 5.46993 25.4565 5.29554 24.7388H0.5V30.3536L6.99578 34.1953L10.3527 32.2111C10.3091 32.0422 10.2655 31.8734 10.2655 31.6623C10.2655 30.7757 11.0066 30.058 11.9221 30.058C12.8376 30.058 13.5352 30.7757 13.5352 31.6623C13.5352 32.5488 12.794 33.2665 11.8785 33.2665C11.4862 33.2665 11.1374 33.0976 10.8322 32.8865L7.47534 34.8707V40.8654L19.6822 48L24.0418 45.0026V24.9077H21.644C21.426 25.5409 20.8157 26.0053 20.0745 26.0053C19.159 26.0053 18.4179 25.2876 18.4179 24.4011C18.4179 23.5145 19.159 22.7968 20.0745 22.7968C20.9029 22.7968 21.5568 23.3456 21.6876 24.0633H24.0418V3.03958L18.8103 0L7.47534 6.58575V14.1425L10.8758 16.1689C11.181 15.9156 11.5298 15.7889 11.9221 15.7889Z" fill="#0078D4"/>
<path d="M38.6902 17.4354C38.6902 18.3219 37.9491 19.0396 37.0336 19.0396C36.1181 19.0396 35.3769 18.3219 35.3769 17.4354C35.3769 16.5488 36.1181 15.8311 37.0336 15.8311C37.4259 15.8311 37.7747 16 38.0799 16.2111L41.5239 14.1847V6.58575L30.189 0L24.9575 3.03958V24.0633H27.2681C27.3989 23.3456 28.0964 22.7968 28.8811 22.7968C29.7967 22.7968 30.5378 23.5145 30.5378 24.4011C30.5378 25.2876 29.7967 26.0053 28.8811 26.0053C28.14 26.0053 27.5297 25.5409 27.3117 24.9077H24.9575V45.0026L29.3171 48L41.5239 40.8654V34.9129L38.1235 32.8865C37.8183 33.1398 37.4695 33.2665 37.0772 33.2665C36.1617 33.2665 35.4205 32.5488 35.4205 31.6623C35.4205 30.7757 36.1617 30.058 37.0772 30.058C37.9927 30.058 38.7338 30.7757 38.7338 31.6623C38.7338 31.8734 38.6902 32.0422 38.603 32.2111L42.0035 34.1953L48.4993 30.3536V24.7388H43.6601C43.5294 25.4565 42.8318 26.0053 42.0471 26.0053C41.1316 26.0053 40.3905 25.2876 40.3905 24.4011C40.3905 23.5145 41.1316 22.7968 42.0471 22.7968C42.7882 22.7968 43.3986 23.2612 43.6165 23.8945H48.4993V18.6174L41.9599 14.9024L38.5594 16.8865C38.6466 17.0554 38.6902 17.2243 38.6902 17.4354Z" fill="#0078D4"/>
<path d="M7.08331 14.9025L10.3966 16.8444C10.3094 17.0133 10.2658 17.2244 10.2658 17.3932C10.2658 18.2798 11.0069 18.9975 11.9225 18.9975C12.838 18.9975 13.5791 18.2798 13.5791 17.3932C13.5791 16.5067 12.838 15.789 11.9225 15.789C11.5301 15.789 11.1813 15.9157 10.8762 16.169L7.47568 14.1426V14.6492L7.08331 14.9025Z" fill="#50E6FF"/>
<path d="M11.8793 33.267C12.7948 33.267 13.536 32.5494 13.536 31.6628C13.536 30.7763 12.8384 30.0586 11.9229 30.0586C11.0074 30.0586 10.2663 30.7763 10.2663 31.6628C10.2663 31.8739 10.3099 32.0428 10.3535 32.2116L6.99658 34.1958L7.47614 34.4913V34.8713L10.833 32.8871C11.1382 33.0982 11.487 33.267 11.8793 33.267Z" fill="#50E6FF"/>
<path d="M6.95219 26.0053C7.8677 26.0053 8.60883 25.2876 8.60883 24.4011C8.60883 23.5146 7.8677 22.7969 6.95219 22.7969C6.21106 22.7969 5.60071 23.2613 5.38274 23.8945H0.5V24.7388H5.29554C5.46993 25.4565 6.12386 26.0053 6.95219 26.0053Z" fill="#50E6FF"/>
<path d="M20.0752 22.7969C19.1597 22.7969 18.4186 23.5146 18.4186 24.4011C18.4186 25.2876 19.1597 26.0053 20.0752 26.0053C20.8164 26.0053 21.4267 25.5409 21.6447 24.9077H24.0424V24.0634H21.6883C21.5575 23.3457 20.9035 22.7969 20.0752 22.7969Z" fill="#50E6FF"/>
<path d="M41.5241 14.1855L38.08 16.2119C37.7748 16.0009 37.4261 15.832 37.0337 15.832C36.1182 15.832 35.3771 16.5497 35.3771 17.4362C35.3771 18.3228 36.1182 19.0404 37.0337 19.0404C37.9492 19.0404 38.6904 18.3228 38.6904 17.4362C38.6904 17.2251 38.6468 17.0563 38.5596 16.8874L41.96 14.9032L41.5241 14.6499V14.1855Z" fill="#50E6FF"/>
<path d="M38.7327 31.6628C38.7327 30.7763 37.9916 30.0586 37.0761 30.0586C36.1606 30.0586 35.4194 30.7763 35.4194 31.6628C35.4194 32.5494 36.1606 33.267 37.0761 33.267C37.4684 33.267 37.8172 33.1404 38.1224 32.8871L41.5229 34.9135V34.4913L42.0024 34.1958L38.6019 32.2116C38.6891 32.0428 38.7327 31.8739 38.7327 31.6628Z" fill="#50E6FF"/>
<path d="M42.0478 22.7969C41.1323 22.7969 40.3912 23.5146 40.3912 24.4011C40.3912 25.2876 41.1323 26.0053 42.0478 26.0053C42.8325 26.0053 43.5301 25.4565 43.6609 24.7388H48.5V23.8945H43.6173C43.3993 23.2613 42.7889 22.7969 42.0478 22.7969Z" fill="#50E6FF"/>
<path d="M28.8811 26.0053C29.7967 26.0053 30.5378 25.2876 30.5378 24.4011C30.5378 23.5146 29.7967 22.7969 28.8811 22.7969C28.0964 22.7969 27.3989 23.3457 27.2681 24.0634H24.9575V24.9077H27.3117C27.5297 25.5409 28.14 26.0053 28.8811 26.0053Z" fill="#50E6FF"/>
<path d="M19.4206 37.7408V31.155L15.6277 28.9175V20.6853L19.4206 18.5323V9.96239C20.1181 9.70909 20.554 9.03363 20.4669 8.31595C20.3797 7.42941 19.5513 6.79616 18.6358 6.88059C17.7203 6.96503 17.0664 7.76714 17.1536 8.65368C17.2408 9.37136 17.8075 9.96239 18.5486 10.089V18.1101L14.7558 20.2632V29.4241L18.5486 31.6616V37.6563C17.6767 37.783 17.0664 38.5429 17.1536 39.3872C17.2408 40.2737 18.0691 40.907 18.9846 40.8225C19.9001 40.7381 20.554 39.936 20.4669 39.0495C20.3797 38.4162 19.9873 37.9518 19.4206 37.7408Z" fill="#50E6FF"/>
<path d="M30.4499 10.048C31.191 9.92137 31.7578 9.37256 31.845 8.61267C31.9321 7.72612 31.2782 6.92401 30.3627 6.83958C29.4472 6.75515 28.6189 7.38839 28.5317 8.27493C28.4445 9.03483 28.924 9.66807 29.578 9.92137V18.5335L33.3708 20.6865V28.9187L29.578 31.1562V37.6997C29.0112 37.9108 28.5753 38.4174 28.5317 39.0507C28.4445 39.9372 29.0984 40.7393 30.0139 40.8237C30.9294 40.9082 31.7578 40.2749 31.845 39.3884C31.9321 38.5441 31.3218 37.7842 30.4499 37.6575V31.6628L34.2427 29.4253V20.2222L30.4499 18.0691V10.048Z" fill="#50E6FF"/>
</svg>
