<svg data-slug-id="managed-disks01" viewBox="0 0 48 48" xmlns="http://www.w3.org/2000/svg">
<path fill-rule="evenodd" clip-rule="evenodd" d="M44.9992 34.5444C44.9992 38.6619 35.8205 41.9999 24.4988 41.9999C13.1778 41.9999 4 38.6619 4 34.5444V30.5259H44.9992V34.5444Z" fill="#0072C5"/>
<path fill-rule="evenodd" clip-rule="evenodd" d="M44.9992 30.5259C44.9992 34.6435 35.8205 37.9815 24.4988 37.9815C13.1778 37.9815 4 34.6426 4 30.5259C4 26.4083 13.1795 23.0703 24.5004 23.0703C35.8214 23.0703 45 26.4075 45 30.5259" fill="#59B3D8"/>
<path fill-rule="evenodd" clip-rule="evenodd" d="M31.07 30.0967C31.07 31.1918 28.1275 32.0787 24.4975 32.0787C20.8675 32.0787 17.9258 31.1918 17.9258 30.0967C17.9258 29.0017 20.8683 28.1147 24.4975 28.1147C28.1266 28.1147 31.07 29.0017 31.07 30.0967Z" fill="#0072C5"/>
<path fill-rule="evenodd" clip-rule="evenodd" d="M39.3176 25.3768C36.445 24.2842 32.6719 23.5088 28.4284 23.209L25.7688 28.1524C26.9136 28.2052 28.0485 28.3886 29.1521 28.6974L39.3176 25.3768Z" fill="#90CDE3"/>
<path fill-rule="evenodd" clip-rule="evenodd" d="M8.83984 35.3344C11.7922 36.6053 15.8901 37.5104 20.5564 37.8408L23.6666 32.0625C22.5145 32.0294 21.3689 31.8775 20.2488 31.6074L8.83984 35.3344Z" fill="#90CDE3"/>
<path fill-rule="evenodd" clip-rule="evenodd" d="M44.9992 18.4732C44.9992 22.5916 35.8205 25.9288 24.4988 25.9288C13.1778 25.9288 4 22.5925 4 18.4732V14.4556H44.9992V18.4732Z" fill="#68217A"/>
<path fill-rule="evenodd" clip-rule="evenodd" d="M44.9992 14.4556C44.9992 18.574 35.8205 21.9112 24.4988 21.9112C13.1778 21.9112 4 18.574 4 14.4556C4 10.338 13.177 7 24.4988 7C35.8214 7 44.9992 10.3388 44.9992 14.4556Z" fill="#9A4F95"/>
<path fill-rule="evenodd" clip-rule="evenodd" d="M31.07 14.0264C31.07 15.1215 28.1275 16.0084 24.4975 16.0084C20.8675 16.0084 17.9258 15.1215 17.9258 14.0264C17.9258 12.9314 20.8683 12.0444 24.4975 12.0444C28.1266 12.0444 31.07 12.9322 31.07 14.0264Z" fill="#68217A"/>
<path fill-rule="evenodd" clip-rule="evenodd" d="M39.3176 9.34797C36.445 8.2554 32.6719 7.47995 28.4284 7.18018L25.7688 12.1244C26.9136 12.1773 28.0485 12.3598 29.1521 12.6695L39.3176 9.34797Z" fill="#BA87B6"/>
<path fill-rule="evenodd" clip-rule="evenodd" d="M8.83984 19.3048C11.7922 20.5757 15.8901 21.4808 20.5564 21.8112L23.6666 16.032C22.5145 15.999 21.3689 15.8462 20.2488 15.5762L8.83984 19.3048Z" fill="#BA87B6"/>
</svg>
