<svg data-slug-id="managed-desktop" xmlns="http://www.w3.org/2000/svg" viewBox="0 0 48 48">
	<path d="M46.4 1.81354H1.6C0.716344 1.81354 0 2.52988 0 3.41354V32.2135C0 33.0972 0.716344 33.8135 1.6 33.8135H46.4C47.2837 33.8135 48 33.0972 48 32.2135V3.41354C48 2.52988 47.2837 1.81354 46.4 1.81354Z" fill="url(#managed-desktop_291f5698-265e-5y9g-k4e0-bkl658t15293)"/>
	<path d="M44.4533 4.48022H3.54663C3.06062 4.48022 2.66663 4.87421 2.66663 5.36022V30.2669C2.66663 30.7529 3.06062 31.1469 3.54663 31.1469H44.4533C44.9393 31.1469 45.3333 30.7529 45.3333 30.2669V5.36022C45.3333 4.87421 44.9393 4.48022 44.4533 4.48022Z" fill="white"/>
	<path d="M33.6267 43.4935C28.88 42.7469 28.6933 39.3335 28.72 33.8135H19.28C19.28 39.3335 19.12 42.7469 14.3733 43.4935C13.7292 43.5924 13.1398 43.9128 12.7066 44.3996C12.2734 44.8864 12.0235 45.509 12 46.1602H36C35.9765 45.509 35.7266 44.8864 35.2934 44.3996C34.8602 43.9128 34.2708 43.5924 33.6267 43.4935V43.4935Z" fill="url(#managed-desktop_456p0677-490e-5y9g-h7f5-opt999p28974)"/>
	<path d="M22.8883 24.1825L21.097 25.9738C20.9519 26.1189 20.7552 26.2003 20.5501 26.2003C20.345 26.2003 20.1483 26.1189 20.0033 25.9738L12.9134 18.8839C12.7684 18.7389 12.6869 18.5422 12.6869 18.3371C12.6869 18.132 12.7684 17.9353 12.9134 17.7902L14.1579 16.5457C14.3029 16.4007 14.4996 16.3192 14.7047 16.3192C14.9098 16.3192 15.1065 16.4007 15.2516 16.5457L22.794 24.0882L22.8883 24.1825Z" fill="#86D633"/>
	<path d="M20.0287 25.9513L18.2373 24.16L34.5102 7.88711C34.6552 7.74209 34.8519 7.66061 35.057 7.66061C35.2621 7.66061 35.4588 7.74209 35.6039 7.88711L36.8295 9.11277C36.9746 9.25779 37.056 9.45449 37.056 9.6596C37.056 9.8647 36.9746 10.0614 36.8295 10.2064L21.1035 25.9325C20.9584 26.0775 20.7617 26.159 20.5566 26.159C20.3515 26.159 20.1548 26.0775 20.0098 25.9325L20.0287 25.9513Z" fill="#5E9624"/>
	<defs>
		<linearGradient id="managed-desktop_291f5698-265e-5y9g-k4e0-bkl658t15293" x1="24" y1="33.8135" x2="24" y2="1.81354" gradientUnits="userSpaceOnUse">
			<stop stop-color="#0078D4"/>
			<stop offset="0.82" stop-color="#5EA0EF"/>
		</linearGradient>
		<linearGradient id="managed-desktop_456p0677-490e-5y9g-h7f5-opt999p28974" x1="24" y1="46.1869" x2="24" y2="33.8135" gradientUnits="userSpaceOnUse">
			<stop stop-color="#1490DF"/>
			<stop offset="0.98" stop-color="#1F56A3"/>
		</linearGradient>
	</defs>
</svg>
