<svg data-slug-id="managed-database" viewBox="0 0 48 48" xmlns="http://www.w3.org/2000/svg">
<path d="M17.2533 14.133C8.4533 14.133 1.2533 11.4664 1.2533 8.37305V39.013C1.2533 42.1597 8.26663 44.7464 16.9333 44.773H17.1733C25.9466 44.773 33.1733 42.1064 33.1733 39.013V8.37305C33.1466 11.5464 26.0266 14.133 17.2533 14.133Z" fill="url(#managed-database_paint0_linear)"/>
<path d="M33.1467 8.37341C33.1467 11.5467 26.0267 14.1334 17.1467 14.1334C8.26673 14.1334 1.14673 11.4667 1.14673 8.37341C1.14673 5.28008 8.4534 2.66675 17.2534 2.66675C26.0534 2.66675 33.2534 5.33341 33.2534 8.45341" fill="#EAEAEA"/>
<path d="M29.3334 8.00023C29.3334 10.0269 24 11.6536 17.1467 11.6536C10.2934 11.6536 5.04004 9.92023 5.04004 8.00023C5.04004 6.08023 10.5067 4.24023 17.2534 4.24023C24 4.24023 29.3334 5.8669 29.3334 8.00023Z" fill="#50E6FF"/>
<path d="M17.2532 8.74685C13.9717 8.66419 10.6996 9.13293 7.57324 10.1335C10.6968 11.1486 13.9699 11.6265 17.2532 11.5469C20.5278 11.625 23.7919 11.1472 26.9066 10.1335C23.7887 9.13588 20.5259 8.66718 17.2532 8.74685V8.74685Z" fill="#198AB3"/>
<path d="M44.6667 33.9734C43.5643 32.9404 42.1826 32.2541 40.6933 32C40.5962 29.727 39.6064 27.584 37.9389 26.0363C36.2713 24.4886 34.0606 23.6611 31.7867 23.7334C29.9407 23.6978 28.129 24.2352 26.6009 25.2714C25.0728 26.3076 23.9033 27.7919 23.2533 29.52C21.3083 29.7362 19.5057 30.6442 18.1743 32.0784C16.8428 33.5127 16.0712 35.3777 16 37.3334C16.0834 39.531 17.0335 41.6061 18.6425 43.1052C20.2516 44.6044 22.3887 45.4054 24.5867 45.3334H25.36H39.3067H39.6533C41.4447 45.321 43.1623 44.6183 44.4488 43.3716C45.7352 42.1249 46.4914 40.4301 46.56 38.64C46.5499 37.7728 46.3679 36.9162 46.0246 36.1198C45.6814 35.3233 45.1835 34.6028 44.56 34" fill="url(#managed-database_paint1_linear)"/>
<path d="M38.1332 42.1335H35.6266V35.3869C35.6266 34.6757 35.6266 33.8757 35.6266 32.9868C35.6266 33.6535 35.3599 34.1602 35.2799 34.4802L32.6132 42.1335H30.5332L27.8666 34.5335C27.7179 34.026 27.6021 33.5093 27.5199 32.9868V32.9868C27.5199 34.0802 27.5199 35.0669 27.5199 35.8935V42.1335H25.2799V30.8535H29.0132L31.3066 37.5469C31.4899 38.0664 31.6238 38.6021 31.7066 39.1469C31.8399 38.5335 31.9999 37.9735 32.1332 37.5202L34.4532 30.8535H38.1332V42.1335Z" fill="white"/>
<defs>
<linearGradient id="managed-database_paint0_linear" x1="1.3333" y1="26.5597" x2="33.1466" y2="26.5597" gradientUnits="userSpaceOnUse">
<stop stop-color="#005BA1"/>
<stop offset="0.07" stop-color="#0060A9"/>
<stop offset="0.36" stop-color="#0071C8"/>
<stop offset="0.52" stop-color="#0078D4"/>
<stop offset="0.64" stop-color="#0074CD"/>
<stop offset="0.82" stop-color="#006ABB"/>
<stop offset="1" stop-color="#005BA1"/>
</linearGradient>
<linearGradient id="managed-database_paint1_linear" x1="31.3867" y1="45.4134" x2="31.3867" y2="23.7334" gradientUnits="userSpaceOnUse">
<stop stop-color="#198AB3"/>
<stop offset="0.11" stop-color="#22A5CB"/>
<stop offset="0.23" stop-color="#29BADE"/>
<stop offset="0.37" stop-color="#2EC9EB"/>
<stop offset="0.53" stop-color="#31D1F3"/>
<stop offset="0.78" stop-color="#32D4F5"/>
</linearGradient>
</defs>
</svg>
