<svg data-slug-id="media-services01" viewBox="0 0 24 24" xmlns="http://www.w3.org/2000/svg">
<path d="M12.324 5.236L18.1533 8.58934L22.2173 6.24267C21.3265 4.65908 20.0799 3.30422 18.5757 2.28504C17.0716 1.26587 15.3511 0.610276 13.5501 0.370026C11.7492 0.129776 9.917 0.311444 8.19828 0.900688C6.47957 1.48993 4.92134 2.47062 3.64662 3.76534C6.62215 3.26132 9.68067 3.77969 12.324 5.236Z" fill="url(#media-services01_paint0_linear)"/>
<path d="M18.0773 8.58939L17.9853 16.6347L22.2093 17.7694C23.0844 16.2253 23.5975 14.5026 23.7098 12.7314C23.8221 10.9601 23.5308 9.18642 22.8577 7.54415C22.1847 5.90188 21.1475 4.43387 19.8245 3.25083C18.5014 2.0678 16.927 1.20063 15.22 0.714722C16.9583 2.98404 17.9559 5.73341 18.0773 8.58939Z" fill="#0078D4"/>
<path d="M18.0693 15.5279L12 19.0346L12.0947 23.7013C15.1982 23.6886 18.1703 22.4468 20.3604 20.2477C22.5504 18.0487 23.78 15.0715 23.78 11.9679C23.7692 11.0266 23.6402 10.0904 23.396 9.18127C22.3756 11.8303 20.5012 14.0636 18.0693 15.5279Z" fill="#5EA0EF"/>
<path d="M12 19.0346L5.92668 15.528L1.90001 17.944C2.7955 19.4727 4.0263 20.7783 5.49966 21.7622C6.97302 22.7462 8.6505 23.3829 10.4057 23.6244C12.1609 23.8659 13.948 23.7058 15.6323 23.1563C17.3166 22.6067 18.8543 21.6821 20.1293 20.452C17.3377 20.8597 14.4889 20.363 12 19.0346Z" fill="url(#media-services01_paint1_linear)"/>
<path d="M5.92265 15.528L6.01465 7.21198L1.85865 6.11731C0.815799 7.90237 0.266361 9.93262 0.266647 12C0.278202 14.5824 1.13688 17.0897 2.7109 19.137C4.28491 21.1843 6.48728 22.6585 8.97998 23.3333C7.16373 21.1188 6.09369 18.3869 5.92265 15.528Z" fill="#0078D4"/>
<path d="M6.13332 8.39994L12 5.00928C9.57799 3.69378 6.82367 3.11668 4.07732 3.34928C2.87425 4.44594 1.91377 5.78202 1.25752 7.27178C0.601273 8.76154 0.263762 10.3721 0.26665 11.9999C0.271126 13.0449 0.411868 14.0848 0.685317 15.0933C1.7307 12.3323 3.64204 9.98405 6.13332 8.39994Z" fill="#5EA0EF"/>
<path d="M18.0693 15.5279V8.51461L11.996 5.00928L5.92264 8.51461V15.5279L11.996 19.0346L18.0693 15.5279Z" fill="#C3F1FF"/>
<path d="M12.004 12.0947V19.0347L5.92264 15.528V8.5387L12.004 12.0947Z" fill="url(#media-services01_paint2_linear)"/>
<path d="M11.996 12.0947V19.0347L18.0774 15.528V8.5387L11.996 12.0947Z" fill="#50E6FF"/>
<defs>
<linearGradient id="media-services01_paint0_linear" x1="-17.1546" y1="4.46564" x2="29.8518" y2="4.42839" gradientUnits="userSpaceOnUse">
<stop stop-color="#005BA1"/>
<stop offset="0.366" stop-color="#004E8F"/>
<stop offset="1" stop-color="#003067"/>
</linearGradient>
<linearGradient id="media-services01_paint1_linear" x1="39.8146" y1="19.4182" x2="-17.7425" y2="19.7275" gradientUnits="userSpaceOnUse">
<stop stop-color="#005BA1"/>
<stop offset="0.451" stop-color="#004685"/>
<stop offset="1" stop-color="#003067"/>
</linearGradient>
<linearGradient id="media-services01_paint2_linear" x1="8.00397" y1="19.2627" x2="9.9293" y2="8.27203" gradientUnits="userSpaceOnUse">
<stop offset="0.26" stop-color="#50E6FF"/>
<stop offset="0.42" stop-color="#79EAFF"/>
<stop offset="0.58" stop-color="#99EDFF"/>
<stop offset="0.733" stop-color="#B0EFFF"/>
<stop offset="0.876" stop-color="#BEF1FF"/>
<stop offset="1" stop-color="#C3F1FF"/>
</linearGradient>
</defs>
</svg>
