<svg data-slug-id="messages07" viewBox="0 0 48 49" xmlns="http://www.w3.org/2000/svg">
<path d="M34.803 34.0579L38.3885 37.6458L34.803 41.2338V34.0579Z" fill="#50E6FF"/>
<path d="M13.2562 15.8063L9.67065 12.2183L13.2562 8.63037V15.8063Z" fill="#0078D4"/>
<path d="M11.3287 48.8732H24.0295C30.2831 48.8732 35.3584 43.7945 35.3584 37.5366C35.3584 31.2787 30.2831 26.2 24.0295 26.2H11.3287C5.07503 26.1915 -0.000244141 31.2703 -0.000244141 37.5282C-0.000244141 43.7945 5.07503 48.8732 11.3287 48.8732Z" fill="#50E6FF"/>
<path d="M20.1495 37.3171C20.2674 38.85 19.0049 40.1134 17.473 39.9954C16.2694 39.9028 15.2931 38.9258 15.2005 37.7214C15.0827 36.1885 16.3452 34.9251 17.877 35.043C19.0806 35.1441 20.0569 36.1127 20.1495 37.3171Z" fill="white"/>
<path d="M12.5743 37.3171C12.6922 38.85 11.4297 40.1134 9.89782 39.9954C8.69423 39.9028 7.71789 38.9258 7.62531 37.7214C7.50747 36.1885 8.76998 34.9251 10.3018 35.043C11.5054 35.1441 12.4818 36.1127 12.5743 37.3171Z" fill="white"/>
<path d="M27.7245 37.3171C27.8423 38.85 26.5798 40.1134 25.048 39.9954C23.8444 39.9028 22.868 38.9258 22.7755 37.7214C22.6576 36.1885 23.9201 34.9251 25.452 35.043C26.6556 35.1441 27.6319 36.1127 27.7245 37.3171Z" fill="white"/>
<path d="M23.8951 23.5971H36.5959C42.8495 23.5971 47.9248 18.5184 47.9248 12.2605C47.9248 6.00257 42.8579 0.923828 36.5959 0.923828H23.8951C17.6414 0.923828 12.5662 6.00257 12.5662 12.2605C12.5662 18.5268 17.6414 23.5971 23.8951 23.5971Z" fill="#0078D4"/>
<path d="M32.7157 12.05C32.8335 13.5829 31.571 14.8463 30.0392 14.7284C28.8356 14.6357 27.8592 13.6587 27.7667 12.4543C27.6488 10.9214 28.9113 9.65803 30.4432 9.77595C31.6552 9.8686 32.6231 10.8456 32.7157 12.05Z" fill="#50E6FF"/>
<path d="M25.1405 12.05C25.2583 13.5829 23.9958 14.8463 22.464 14.7284C21.2604 14.6357 20.2841 13.6587 20.1915 12.4543C20.0736 10.9214 21.3361 9.65803 22.868 9.77595C24.08 9.8686 25.0479 10.8456 25.1405 12.05Z" fill="#50E6FF"/>
<path d="M40.2904 12.05C40.4082 13.5829 39.1457 14.8463 37.6139 14.7284C36.4103 14.6357 35.434 13.6587 35.3414 12.4543C35.2235 10.9214 36.486 9.65803 38.0179 9.77595C39.2299 9.8686 40.1978 10.8456 40.2904 12.05Z" fill="#50E6FF"/>
</svg>
