<svg data-slug-id="messages02" viewBox="0 0 48 49" xmlns="http://www.w3.org/2000/svg">
<path d="M41.5577 39.7096C45.0188 35.8359 47.2251 30.7917 47.5114 25.259H42.6862C42.4167 29.4611 40.7409 33.3011 38.1304 36.2822L41.5577 39.7096Z" fill="#0078D4"/>
<path d="M6.5346 8.23169C3.0146 12.1222 0.783018 17.1917 0.488281 22.7748H5.52407C5.80197 18.5812 7.46933 14.758 10.0714 11.777L6.5346 8.23169Z" fill="#50E6FF"/>
<path d="M8.30347 41.5892C12.2024 45.0755 17.2635 47.2903 22.8382 47.5597V42.6166C18.6361 42.3387 14.8214 40.6545 11.8403 38.0439L8.30347 41.5892Z" fill="#0078D4"/>
<path d="M0.488281 25.259C0.774597 30.8422 3.00618 35.9117 6.51776 39.8022L10.063 36.2569C7.46933 33.2759 5.81039 29.4527 5.53249 25.259H0.488281Z" fill="#0078D4"/>
<path d="M41.5414 8.32544L38.114 11.7528C40.733 14.7339 42.4087 18.5654 42.6782 22.776H47.5035C47.2172 17.2349 45.0109 12.1991 41.5414 8.32544Z" fill="#50E6FF"/>
<path d="M25.3219 47.5411C30.8714 47.2379 35.9156 44.9979 39.7808 41.5032L36.3451 38.0674C33.3556 40.6779 29.524 42.3453 25.3135 42.6232L25.3219 47.5411Z" fill="#0078D4"/>
<path d="M25.3223 0.501221V5.42754C29.5244 5.69701 33.3475 7.36438 36.337 9.96648L39.7728 6.53069C35.8991 3.04438 30.8633 0.8128 25.3223 0.501221Z" fill="#50E6FF"/>
<path d="M22.8378 0.489258C17.2631 0.767153 12.2105 2.97347 8.31152 6.45136L11.8484 9.98821C14.821 7.3861 18.6357 5.71873 22.8294 5.42399L22.8378 0.489258Z" fill="#50E6FF"/>
<path d="M27.7393 12.6458H12.6572V22.7426H14.9983V25.3279L17.7267 22.7426H27.7393V12.6458Z" fill="#0078D4"/>
<path d="M25.2798 25.2666V32.8877H30.3408L32.9093 35.355V32.8877H35.3935V25.2666H25.2798Z" fill="#50E6FF"/>
</svg>
