<svg data-slug-id="messages01" viewBox="0 0 48 49" xmlns="http://www.w3.org/2000/svg">
<path d="M47.9419 0.0288086H0V35.2623H12.6353V45.1583L22.5114 35.2623H47.9419V0.0288086Z" fill="#0078D4"/>
<path d="M37.8974 8.65445C37.8974 7.95601 37.3338 7.38379 36.6272 7.38379H11.3901C10.6919 7.38379 10.1199 7.94759 10.1199 8.65445C10.1199 9.35289 10.6835 9.92511 11.3901 9.92511H36.6272C37.3338 9.92511 37.8974 9.35289 37.8974 8.65445Z" fill="#50E6FF"/>
<path d="M30.2759 8.64716C30.2759 10.044 31.4115 11.1801 32.808 11.1801C34.2044 11.1801 35.3401 10.044 35.3401 8.64716C35.3401 7.25028 34.2044 6.11426 32.808 6.11426C31.4115 6.12267 30.2759 7.25028 30.2759 8.64716Z" fill="white"/>
<path d="M37.8974 17.5058C37.8974 16.8073 37.3338 16.2351 36.6272 16.2351H11.3901C10.6919 16.2351 10.1199 16.7989 10.1199 17.5058C10.1199 18.2042 10.6835 18.7764 11.3901 18.7764H36.6272C37.3338 18.7764 37.8974 18.2042 37.8974 17.5058Z" fill="#50E6FF"/>
<path d="M21.4177 17.4987C21.4177 18.8956 22.5534 20.0316 23.9498 20.0316C25.3463 20.0316 26.482 18.8956 26.482 17.4987C26.482 16.1018 25.3463 14.9658 23.9498 14.9658C22.5534 14.9742 21.4177 16.1018 21.4177 17.4987Z" fill="white"/>
<path d="M37.8974 26.3417C37.8974 25.6433 37.3338 25.071 36.6272 25.071H11.3901C10.6919 25.071 10.1199 25.6348 10.1199 26.3417C10.1199 27.0401 10.6835 27.6124 11.3901 27.6124H36.6272C37.3338 27.6124 37.8974 27.0401 37.8974 26.3417Z" fill="#50E6FF"/>
<path d="M12.6602 26.3344C12.6602 27.7313 13.7958 28.8673 15.1923 28.8673C16.5887 28.8673 17.7244 27.7313 17.7244 26.3344C17.7244 24.9375 16.5887 23.8015 15.1923 23.8015C13.7874 23.8099 12.6602 24.9375 12.6602 26.3344Z" fill="white"/>
</svg>
