<svg data-slug-id="messages04" viewBox="0 0 48 49" xmlns="http://www.w3.org/2000/svg">
<rect x="4.88281" y="4.07129" width="40.3457" height="29.4079" fill="white"/>
<path d="M0 0.0288086V37.9224H48V0.0288086H0ZM35.3684 27.8174H4.96842V25.2912H35.3684V27.8174ZM35.3684 18.9756H4.96842V16.4494H35.3684V18.9756ZM40.4211 29.0805C39.9214 29.0805 39.433 28.9324 39.0175 28.6548C38.6021 28.3772 38.2783 27.9827 38.087 27.5211C37.8958 27.0594 37.8458 26.5515 37.9433 26.0615C38.0408 25.5714 38.2814 25.1213 38.6347 24.768C38.988 24.4147 39.4381 24.1741 39.9282 24.0766C40.4183 23.9791 40.9262 24.0292 41.3878 24.2204C41.8495 24.4116 42.244 24.7354 42.5216 25.1508C42.7992 25.5662 42.9474 26.0547 42.9474 26.5543C42.9474 27.2243 42.6812 27.8669 42.2074 28.3406C41.7337 28.8144 41.0911 29.0805 40.4211 29.0805ZM40.4211 20.2387C39.9214 20.2387 39.433 20.0906 39.0175 19.813C38.6021 19.5354 38.2783 19.1408 38.087 18.6792C37.8958 18.2176 37.8458 17.7097 37.9433 17.2196C38.0408 16.7296 38.2814 16.2795 38.6347 15.9262C38.988 15.5729 39.4381 15.3323 39.9282 15.2348C40.4183 15.1373 40.9262 15.1873 41.3878 15.3785C41.8495 15.5697 42.244 15.8935 42.5216 16.309C42.7992 16.7244 42.9474 17.2128 42.9474 17.7125C42.9474 18.3825 42.6812 19.025 42.2074 19.4988C41.7337 19.9726 41.0911 20.2387 40.4211 20.2387Z" fill="#0078D4"/>
<path d="M35.3697 42.9763H12.6328V48.0288H35.3697V42.9763Z" fill="#0078D4"/>
<path d="M42.9469 10.1328H37.8943L40.4206 6.09082L42.9469 10.1328Z" fill="#50E6FF"/>
<path d="M35.3685 7.60645H4.96851V10.1327H35.3685V7.60645Z" fill="#50E6FF"/>
</svg>
