<svg data-slug-id="mixed-reality" viewBox="0 0 48 48" xmlns="http://www.w3.org/2000/svg">
<path d="M36 34.9922C36.4063 34.9922 36.7578 35.1406 37.0547 35.4375C37.3516 35.7344 37.5 36.0938 37.5 36.5156C37.5 36.8281 37.3594 37.2109 37.0781 37.6641C36.7969 38.1172 36.4531 38.5703 36.0469 39.0234C35.6406 39.4766 35.25 39.8906 34.875 40.2656C34.5 40.6406 34.2031 40.9297 33.9844 41.1328C32.5781 42.3516 31.0312 43.2969 29.3438 43.9688C27.6562 44.6406 25.875 44.9844 24 45C22.125 45 20.3438 44.6641 18.6562 43.9922C16.9688 43.3203 15.4219 42.3672 14.0156 41.1328C13.8125 40.9453 13.5156 40.6641 13.125 40.2891C12.7344 39.9141 12.3437 39.4922 11.9531 39.0234C11.5625 38.5547 11.2266 38.1016 10.9453 37.6641C10.6641 37.2266 10.5156 36.8438 10.5 36.5156C10.5 36.1094 10.6484 35.7578 10.9453 35.4609C11.2422 35.1641 11.5937 35.0078 12 34.9922C12.2969 34.9922 12.5469 35.0625 12.75 35.2031C12.9531 35.3438 13.1406 35.5312 13.3125 35.7656C13.9531 36.6875 14.6484 37.5312 15.3984 38.2969C16.1484 39.0625 16.9766 39.7187 17.8828 40.2656C18.7891 40.8125 19.7422 41.2344 20.7422 41.5312C21.7422 41.8281 22.8281 41.9844 24 42C25.5 42 26.9141 41.7344 28.2422 41.2031C29.5703 40.6719 30.8047 39.9141 31.9453 38.9297C32.5078 38.4453 33 37.9453 33.4219 37.4297C33.8438 36.9141 34.2656 36.3516 34.6875 35.7422C34.8594 35.5078 35.0469 35.3281 35.25 35.2031C35.4531 35.0781 35.7031 35.0078 36 34.9922ZM46.7344 3.86719C47.1406 4.27344 47.4531 4.75 47.6719 5.29688C47.8906 5.84375 48 6.40625 48 6.98438V13.0078C48 14.9453 47.6328 16.7578 46.8984 18.4453C46.1641 20.1328 45.1641 21.6172 43.8984 22.8984C42.6328 24.1797 41.1562 25.1797 39.4688 25.8984C37.7812 26.6172 35.9609 26.9844 34.0078 27H32.1094C31.5313 27 31 26.8906 30.5156 26.6719C30.0313 26.4531 29.5625 26.1875 29.1094 25.875C28.6562 25.5625 28.2266 25.2109 27.8203 24.8203C27.4141 24.4297 27 24.0859 26.5781 23.7891C26.1562 23.4922 25.7422 23.2188 25.3359 22.9688C24.9297 22.7187 24.4844 22.6094 24 22.6406C23.5312 22.6406 23.0859 22.75 22.6641 22.9688C22.2422 23.1875 21.8281 23.4531 21.4219 23.7656C21.0156 24.0781 20.6094 24.4297 20.2031 24.8203C19.7969 25.2109 19.3672 25.5547 18.9141 25.8516C18.4609 26.1484 17.9922 26.4219 17.5078 26.6719C17.0234 26.9219 16.4844 27.0313 15.8906 27H13.9922C12.0547 27 10.2422 26.6328 8.55469 25.8984C6.86719 25.1641 5.38281 24.1641 4.10156 22.8984C2.82031 21.6328 1.82031 20.1562 1.10156 18.4688C0.382813 16.7812 0.015625 14.9609 0 13.0078V6.98438C0 6.40625 0.109375 5.84375 0.328125 5.29688C0.546875 4.75 0.867188 4.27344 1.28906 3.86719C1.85156 3.30469 2.47656 2.875 3.16406 2.57812C4.00781 2.20312 4.97656 1.88281 6.07031 1.61719C7.16406 1.35156 8.33594 1.11719 9.58594 0.914062C10.8359 0.710937 12.1172 0.554687 13.4297 0.445312C14.7422 0.335938 16.0234 0.242187 17.2734 0.164062C18.5234 0.0859375 19.7266 0.046875 20.8828 0.046875C22.0391 0.046875 23.0781 0.03125 24 0C24.9063 0 25.9375 0.0078125 27.0938 0.0234375C28.25 0.0390625 29.4531 0.0859375 30.7031 0.164062C31.9531 0.242187 33.2422 0.335938 34.5703 0.445312C35.8984 0.554687 37.1719 0.710937 38.3906 0.914062C39.6094 1.11719 40.7812 1.34375 41.9062 1.59375C43.0312 1.84375 44.0078 2.17187 44.8359 2.57812C45.5078 2.875 46.1406 3.30469 46.7344 3.86719ZM45 6.98438C45 6.60938 44.8672 6.27344 44.6016 5.97656C44.1172 5.53906 43.3594 5.16406 42.3281 4.85156C41.2969 4.53906 40.1172 4.26562 38.7891 4.03125C37.4609 3.79688 36.0625 3.61719 34.5938 3.49219C33.125 3.36719 31.7031 3.26562 30.3281 3.1875C28.9531 3.10938 27.7109 3.0625 26.6016 3.04688C25.4922 3.03125 24.625 3.01563 24 3C23.5469 3 22.9453 3.00781 22.1953 3.02344C21.4453 3.03906 20.5938 3.0625 19.6406 3.09375C18.6875 3.125 17.6875 3.17187 16.6406 3.23438C15.5937 3.29688 14.5156 3.375 13.4062 3.46875C12.2969 3.5625 11.2344 3.6875 10.2188 3.84375C9.20313 4 8.23437 4.17969 7.3125 4.38281C6.39063 4.58594 5.60938 4.82031 4.96875 5.08594C4.32812 5.35156 3.80469 5.65625 3.39844 6C3.13281 6.26562 3 6.59375 3 6.98438V13.0078C3 14.5391 3.28125 15.9687 3.84375 17.2969C4.40625 18.625 5.19531 19.7891 6.21094 20.7891C7.22656 21.7891 8.39062 22.5703 9.70312 23.1328C11.0156 23.6953 12.4453 23.9844 13.9922 24H15.8906C16.1875 24 16.5 23.8906 16.8281 23.6719C17.1562 23.4531 17.5078 23.1875 17.8828 22.875C18.2578 22.5625 18.6562 22.2109 19.0781 21.8203C19.5 21.4297 19.9688 21.0859 20.4844 20.7891C21 20.4922 21.5391 20.2188 22.1016 19.9688C22.6641 19.7187 23.2969 19.6094 24 19.6406C24.6719 19.6406 25.2969 19.75 25.875 19.9688C26.4531 20.1875 26.9922 20.4531 27.4922 20.7656C27.9922 21.0781 28.4531 21.4297 28.875 21.8203C29.2969 22.2109 29.7031 22.5547 30.0938 22.8516C30.4844 23.1484 30.8359 23.4219 31.1484 23.6719C31.4609 23.9219 31.7812 24.0313 32.1094 24H34.0078C35.5234 24 36.9453 23.7188 38.2734 23.1562C39.6016 22.5938 40.7734 21.8047 41.7891 20.7891C42.8047 19.7734 43.5859 18.6094 44.1328 17.2969C44.6797 15.9844 44.9687 14.5547 45 13.0078V6.98438ZM25.3828 6C25.7891 6 26.1328 6.14062 26.4141 6.42188C26.6953 6.70312 26.8437 7.04687 26.8594 7.45312C26.8594 7.89062 26.7266 8.25781 26.4609 8.55469C26.1953 8.85156 25.8359 9 25.3828 9H22.6172C22.2109 9 21.8672 8.85938 21.5859 8.57812C21.3047 8.29688 21.1563 7.95313 21.1406 7.54688C21.1406 7.10938 21.2734 6.74219 21.5391 6.44531C21.8047 6.14844 22.1641 6 22.6172 6H25.3828Z" fill="#0078D4"/>
</svg>
