<svg data-slug-id="mixed-reality01" viewBox="0 0 49 48" xmlns="http://www.w3.org/2000/svg">
<g clip-path="url(#mixed-reality01_clip0_3256_9576)">
<path d="M16.2874 19.0876L20.2473 21.3701C19.3673 21.4801 18.5148 21.6176 17.6623 21.7826C15.9024 22.1401 14.2249 22.6351 12.6574 23.2676C11.7224 23.6526 10.815 24.0926 9.96247 24.5876C6.27752 26.7325 4.27005 29.5925 4.46255 32.4249C4.60005 34.7624 6.19503 37.0449 8.91748 38.9148L11.3649 37.4849L14.0049 43.6448L3.33508 42.1323L6.14003 40.5098C3.33507 38.2548 1.7126 35.5324 1.5201 32.6174C1.24511 28.6025 3.80257 24.7526 8.50499 22.0301C9.76997 21.2876 11.1725 20.6551 12.6574 20.1326C13.0974 19.9676 13.5649 19.8301 14.0049 19.6926C14.7474 19.4451 15.5174 19.2526 16.2874 19.0876Z" fill="#0078D4"/>
<path d="M42.9618 40.5375L45.6843 42.105L35.0144 43.6174L37.6544 37.4575L40.2119 38.915C42.8518 37.1 44.3918 34.9001 44.5568 32.6451C44.8043 29.7302 42.7693 26.7877 38.9469 24.5877C38.2594 24.1752 37.5169 23.8177 36.7469 23.4878C35.1244 22.8003 33.392 22.2503 31.5495 21.8378C30.7245 21.6728 29.872 21.5078 29.0195 21.3978L32.9245 19.1428C33.6945 19.3353 34.437 19.5278 35.1519 19.7478C35.7019 19.9128 36.2244 20.1053 36.7469 20.2978C38.0394 20.7928 39.2769 21.3703 40.4044 22.0303C45.2168 24.8077 47.8017 28.7677 47.4717 32.8651C47.2518 35.7251 45.6568 38.365 42.9618 40.5375Z" fill="#50E6FF"/>
<path d="M23.8867 38.165L8.68408 29.4083V11.9861L23.8867 20.7428V38.165Z" fill="#50E6FF"/>
<path d="M40.5268 29.4083L25.3242 38.165V20.7428L40.5268 11.9861V29.4083Z" fill="#0078D4"/>
<path d="M24.5142 2.01123L9.40283 10.7375L11.1055 11.7105L15.6967 14.3558L24.575 19.4942L33.2405 14.5078L37.7709 11.8929L39.6561 10.7983L24.5142 2.01123Z" fill="#50E6FF"/>
</g>
<defs>
<clipPath id="mixed-reality01_clip0_3256_9576">
<rect width="48" height="48" fill="white" transform="translate(0.5)"/>
</clipPath>
</defs>
</svg>
