<svg data-slug-id="mlflow" viewBox="0 0 49 19" xmlns="http://www.w3.org/2000/svg">
<path d="M15.1057 18.5133C14.9199 18.4492 14.7405 18.3852 14.5355 18.3211C14.6829 17.8278 14.8302 17.341 14.9647 16.8926C15.2786 16.8926 15.5605 16.9246 15.8295 16.8862C16.7968 16.758 17.431 16.1623 17.6552 15.0925C18.2126 12.4148 18.7378 9.73068 19.2759 7.04657C19.2888 6.98251 19.2888 6.92486 19.3016 6.82237C18.5649 6.82237 17.8474 6.82237 17.0851 6.82237C17.1428 6.34832 17.1876 5.91912 17.2581 5.49633C17.2709 5.43867 17.431 5.36821 17.5271 5.36821C18.1229 5.3554 18.725 5.3554 19.3208 5.36821C19.5322 5.37461 19.6411 5.32337 19.6859 5.08635C19.8269 4.31122 19.987 3.5361 20.1728 2.77379C20.5187 1.34525 21.3643 0.39717 22.8377 0.0704647C22.8761 0.0640587 22.9017 0.0256228 22.9338 0.00640488C23.427 0.00640488 23.9139 0.00640488 24.4071 0.00640488C24.5801 0.0640587 24.753 0.128118 24.9644 0.198584C24.8427 0.685439 24.721 1.16589 24.5993 1.62712C24.2598 1.62712 23.9331 1.58868 23.6256 1.63352C22.8056 1.76164 22.2739 2.26772 22.0433 3.04284C21.8191 3.78593 21.6782 4.54824 21.4924 5.3554C22.4021 5.3554 23.2669 5.3554 24.1637 5.3554C24.042 5.82944 23.9459 6.25223 23.8114 6.66222C23.7857 6.73268 23.6192 6.80315 23.5167 6.80315C22.7608 6.81596 22.0049 6.80955 21.2234 6.80955C21.044 7.69998 20.8646 8.5712 20.6917 9.44882C20.2689 11.5244 19.8653 13.6063 19.4233 15.6754C19.103 17.1808 18.2126 18.1545 16.6623 18.462C16.6367 18.4684 16.6175 18.5005 16.5982 18.5197C16.0922 18.5133 15.5989 18.5133 15.1057 18.5133Z" fill="#0494E0"/>
<path d="M0.5 7.11064C1.0381 7.11064 1.58261 7.11064 2.15915 7.11064C2.15915 7.41813 2.15915 7.67437 2.15915 7.97545C3.30582 6.51488 5.6376 6.59176 6.48318 8.16763C6.86114 7.59109 7.3544 7.18751 8.02703 7.02096C9.76945 6.57894 11.2556 7.55906 11.3581 9.33992C11.4478 10.903 11.3838 12.4789 11.3902 14.0483C11.3902 14.1508 11.3902 14.2597 11.3902 14.3814C10.8328 14.3814 10.2947 14.3814 9.7182 14.3814C9.7182 14.2597 9.7182 14.1444 9.7182 14.0355C9.7182 12.6774 9.72461 11.3258 9.7182 9.96771C9.7118 9.21821 9.38509 8.71854 8.80215 8.54558C7.82844 8.25731 6.88036 8.87869 6.84192 9.89083C6.79708 11.2681 6.8227 12.6454 6.8163 14.0227C6.8163 14.138 6.8163 14.2533 6.8163 14.3814C6.23976 14.3814 5.70166 14.3814 5.11231 14.3814C5.11231 14.2789 5.11231 14.1636 5.11231 14.0547C5.11231 12.6774 5.11871 11.3001 5.11231 9.92286C5.1059 9.2054 4.76638 8.70573 4.18984 8.53917C3.1777 8.25091 2.24883 8.90431 2.22961 9.95489C2.20399 11.313 2.22321 12.6646 2.2168 14.0227C2.2168 14.138 2.2168 14.2533 2.2168 14.4135C1.62105 14.4135 1.05732 14.4135 0.5 14.4135C0.5 11.9792 0.5 9.54491 0.5 7.11064Z" fill="#030303"/>
<path d="M48.5 7.13626C48.0195 8.10356 47.5839 8.98759 47.1483 9.87161C46.4437 11.2937 45.7326 12.7159 45.0408 14.138C44.9383 14.3494 44.823 14.407 44.6052 14.4006C44.1375 14.3878 43.6699 14.3942 43.183 14.3942C42.9076 12.6838 42.6321 10.9991 42.3502 9.2182C41.9595 9.95489 41.6072 10.6147 41.2548 11.2681C40.7423 12.229 40.2299 13.1835 39.7302 14.1508C39.6405 14.3238 39.538 14.4006 39.3394 14.3942C38.8398 14.3814 38.3401 14.3878 37.8084 14.3878C37.5201 11.96 37.2319 9.55772 36.9436 7.12985C37.5906 7.12985 38.1992 7.12985 38.8334 7.12985C38.9615 8.74416 39.0832 10.3521 39.2177 12.0432C39.301 11.9023 39.3523 11.819 39.3971 11.7357C40.185 10.2816 40.9794 8.83384 41.7545 7.37968C41.857 7.1811 41.9723 7.11063 42.1965 7.11704C42.6834 7.13626 43.1766 7.12345 43.6891 7.12345C43.9261 8.76978 44.1567 10.3713 44.3938 12.0432C44.477 11.8831 44.5283 11.787 44.5731 11.6845C45.265 10.2432 45.9504 8.80181 46.6358 7.36047C46.7191 7.1811 46.8152 7.11063 47.0202 7.11704C47.4878 7.14907 47.9555 7.13626 48.5 7.13626Z" fill="#0494E0"/>
<path d="M26.0215 3.47204C26.6044 3.47204 27.1553 3.47204 27.7575 3.47204C26.9696 7.09782 26.1816 10.7044 25.3937 14.3238C24.8235 14.3238 24.2726 14.3238 23.6641 14.3238C24.452 10.7044 25.2335 7.09782 26.0215 3.47204Z" fill="#0494E0"/>
<path d="M33.9969 7.6103C33.2794 8.13559 32.5876 8.64167 31.8573 9.17977C31.8573 8.87228 31.8573 8.61604 31.8573 8.32137C31.0886 8.33418 30.4928 8.64807 30.038 9.23742C29.4102 10.051 29.4166 10.8774 30.0444 12.1329C29.6921 12.3892 29.3333 12.6518 28.981 12.9145C28.0393 11.9792 27.751 9.82677 28.9682 8.31496C30.1853 6.79034 32.421 6.45082 33.9969 7.6103Z" fill="#45C8EB"/>
<path d="M33.6509 9.06446C34.0096 8.80181 34.3556 8.54557 34.7015 8.28933C35.7265 9.35273 36.0083 11.5692 34.6182 13.1066C33.2345 14.6377 31.0437 14.6248 29.8009 13.6768C30.5056 13.1579 31.2038 12.6454 31.9405 12.1009C31.9405 12.402 31.9405 12.6582 31.9405 12.9593C32.7605 12.9401 33.3883 12.607 33.8175 11.96C34.4709 10.9798 34.3492 10.0125 33.6509 9.06446Z" fill="#0494E0"/>
<path d="M13.517 3.61298C14.0999 3.61298 14.6508 3.61298 15.2146 3.61298C15.2146 7.20673 15.2146 10.7813 15.2146 14.3814C14.6444 14.3814 14.0871 14.3814 13.517 14.3814C13.517 10.7941 13.517 7.21314 13.517 3.61298Z" fill="#030303"/>
</svg>
