<svg data-slug-id="monitor16" viewBox="0 0 73 68" xmlns="http://www.w3.org/2000/svg">
<g filter="url(#monitor16_791a4bcf-4427-4b06-986b-cc10a168b661)">
<path d="M45.8231 49.7392H44.3332H29.6008H28.8336C30.8794 56.9553 28.1331 57.9893 16.1248 57.9893V61.7697H31.402H42.5542H56.9753V57.9893C44.9558 58.0005 43.7884 56.9664 45.8231 49.7392Z" fill="#50E6FF"/>
<path d="M16.1135 61.7701H56.9752V57.9897H16.1135V61.7701Z" fill="#50E6FF"/>
<path d="M68.1496 3.22937H4.85022V49.8283H68.1496V3.22937Z" fill="#0078D4"/>
<path d="M61.7452 15.0041C61.7452 14.1368 61.0447 13.4363 60.1775 13.4363H41.7091C40.8418 13.4363 40.0302 14.1368 40.0302 15.0041C40.0302 15.8714 40.8418 16.5718 41.7091 16.5718H60.1775C61.0447 16.5718 61.7452 15.8714 61.7452 15.0041Z" fill="white"/>
<path d="M43.3881 15.004C43.3881 16.7274 44.789 18.1173 46.5013 18.1173C48.2247 18.1173 49.6146 16.7163 49.6146 15.004C49.6146 13.2806 48.2136 11.8908 46.5013 11.8908C44.789 11.8796 43.3881 13.2806 43.3881 15.004Z" fill="#50E6FF"/>
<path d="M61.7452 25.0443C61.7452 24.1771 61.0447 23.4766 60.1775 23.4766H41.7091C40.8418 23.4766 40.0302 24.1771 40.0302 25.0443C40.0302 25.9116 40.8418 26.6121 41.7091 26.6121H60.1775C61.0447 26.601 61.7452 25.9005 61.7452 25.0443Z" fill="white"/>
<path d="M52.7723 25.0332C52.7723 26.7566 54.1733 28.1465 55.8856 28.1465C57.609 28.1465 58.9989 26.7455 58.9989 25.0332C58.9989 23.3098 57.5979 21.92 55.8856 21.92C54.1622 21.92 52.7723 23.3098 52.7723 25.0332Z" fill="#50E6FF"/>
<path d="M61.7452 34.8734C61.7452 34.0062 61.0447 33.3057 60.1775 33.3057H41.7091C40.8418 33.3057 40.0302 34.0062 40.0302 34.8734C40.0302 35.7407 40.8418 36.4412 41.7091 36.4412H60.1775C61.0447 36.4412 61.7452 35.7407 61.7452 34.8734Z" fill="white"/>
<path d="M43.4882 34.8623C43.4882 36.5857 44.8891 37.9756 46.6014 37.9756C48.3248 37.9756 49.7147 36.5746 49.7147 34.8623C49.7147 33.1389 48.3137 31.749 46.6014 31.749C44.8891 31.749 43.4882 33.15 43.4882 34.8623Z" fill="#50E6FF"/>
<path d="M23.0184 13.2809C23.0184 12.9362 22.6959 12.6582 22.3401 12.7472C22.0844 12.8028 21.9176 13.0474 21.9176 13.3031V38.2204C21.9176 38.4872 22.14 38.7096 22.4068 38.7096H22.5403C22.8071 38.7096 23.0295 38.4872 23.0295 38.2204V13.2809H23.0184Z" fill="#50E6FF"/>
<path d="M25.2421 19.7855C25.2421 19.4408 24.9197 19.1629 24.5528 19.2518C24.297 19.3074 24.1302 19.552 24.1302 19.8078V38.2205C24.1302 38.4874 24.3526 38.7097 24.6195 38.7097H24.7529C25.0198 38.7097 25.2421 38.4874 25.2421 38.2205V19.7855Z" fill="#50E6FF"/>
<path d="M27.288 16.6273C27.288 16.2826 26.9656 16.0046 26.6098 16.0936C26.354 16.1492 26.1873 16.3938 26.1873 16.6495V38.22C26.1873 38.4869 26.4096 38.7092 26.6765 38.7092H26.8099C27.0768 38.7092 27.2991 38.4869 27.2991 38.22V16.6273H27.288Z" fill="#50E6FF"/>
<path d="M31.3797 31.3045C31.3797 30.9598 31.0573 30.6819 30.6903 30.7708C30.4346 30.8264 30.2678 31.071 30.2678 31.3268V38.2204C30.2678 38.4873 30.4902 38.7096 30.757 38.7096H30.8905C31.1573 38.7096 31.3797 38.4873 31.3797 38.2204V31.3045Z" fill="#50E6FF"/>
<path d="M12.8113 35.3848C12.8113 35.0401 12.4889 34.7621 12.122 34.8511C11.8662 34.9067 11.6995 35.1513 11.6995 35.407V38.2201C11.6995 38.4869 11.9218 38.7093 12.1887 38.7093H12.3221C12.589 38.7093 12.8113 38.4869 12.8113 38.2201V35.3848V35.3848Z" fill="#50E6FF"/>
<path d="M10.7654 37.6084C10.7654 37.2637 10.443 36.9857 10.0761 37.0747C9.82035 37.1303 9.65356 37.3749 9.65356 37.6306V38.2199C9.65356 38.4868 9.87594 38.7091 10.1428 38.7091H10.2762C10.5431 38.7091 10.7654 38.4868 10.7654 38.2199V37.6084Z" fill="#50E6FF"/>
<path d="M33.4589 35.941C33.4589 35.5963 33.1365 35.3183 32.7696 35.4073C32.5138 35.4628 32.347 35.7075 32.347 35.9632V38.2203C32.347 38.4872 32.5694 38.7095 32.8363 38.7095H32.9697C33.2365 38.7095 33.4589 38.4872 33.4589 38.2203V35.941Z" fill="#50E6FF"/>
<path d="M35.5048 37.9424C35.5048 37.5977 35.1824 37.3198 34.8266 37.4087C34.5708 37.4643 34.4041 37.7089 34.4041 37.9647V38.2204C34.4041 38.4872 34.6264 38.7096 34.8933 38.7096H35.0267C35.2936 38.7096 35.5159 38.4872 35.5159 38.2204V37.9424H35.5048Z" fill="#50E6FF"/>
<path d="M29.3338 27.4014C29.3338 27.0567 29.0114 26.7788 28.6444 26.8677C28.3887 26.9233 28.2219 27.1679 28.2219 27.4236V38.2311C28.2219 38.498 28.4443 38.7204 28.7112 38.7204H28.8446C29.1114 38.7204 29.3338 38.498 29.3338 38.2311V27.4014Z" fill="#50E6FF"/>
<path d="M20.8279 27.4014C20.8279 27.1012 20.6056 26.8455 20.3387 26.8455C20.0719 26.8455 19.8495 27.1012 19.8495 27.4014V38.22C19.8495 38.4869 20.0719 38.7092 20.3387 38.7092C20.6056 38.7092 20.8279 38.4869 20.8279 38.22V27.4014Z" fill="#50E6FF"/>
<path d="M18.9378 24.7999C18.9378 24.4552 18.6154 24.1772 18.2484 24.2662C17.9927 24.3218 17.8259 24.5664 17.8259 24.8221V38.2203C17.8259 38.4871 18.0483 38.7095 18.3152 38.7095H18.4486C18.7154 38.7095 18.9378 38.4871 18.9378 38.2203V24.7999V24.7999Z" fill="#50E6FF"/>
<path d="M16.8919 31.1153C16.8919 30.7706 16.5695 30.4926 16.2025 30.5816C15.9468 30.6372 15.78 30.8818 15.78 31.1375V38.2202C15.78 38.4871 16.0024 38.7094 16.2693 38.7094H16.4027C16.6695 38.7094 16.8919 38.4871 16.8919 38.2202V31.1153V31.1153Z" fill="#50E6FF"/>
<path d="M14.846 29.2586C14.846 28.9139 14.5236 28.636 14.1566 28.7249C13.9009 28.7805 13.7341 29.0251 13.7341 29.2809V38.2204C13.7341 38.4872 13.9565 38.7096 14.2234 38.7096H14.3568C14.6236 38.7096 14.846 38.4872 14.846 38.2204V29.2586V29.2586Z" fill="#50E6FF"/>
</g>
<defs>
<filter id="monitor16_791a4bcf-4427-4b06-986b-cc10a168b661" x="0" y="-2" width="73" height="73" filterUnits="userSpaceOnUse" color-interpolation-filters="sRGB">
<feFlood flood-opacity="0" result="BackgroundImageFix"/>
<feColorMatrix in="SourceAlpha" type="matrix" values="0 0 0 0 0 0 0 0 0 0 0 0 0 0 0 0 0 0 127 0"/>
<feOffset dy="2"/>
<feGaussianBlur stdDeviation="2"/>
<feColorMatrix type="matrix" values="0 0 0 0 0 0 0 0 0 0 0 0 0 0 0 0 0 0 0.15 0"/>
<feBlend mode="normal" in2="BackgroundImageFix" result="effect1_dropShadow"/>
<feBlend mode="normal" in="SourceGraphic" in2="effect1_dropShadow" result="shape"/>
</filter>
</defs>
</svg>
