<svg data-slug-id="monitor14" viewBox="0 0 48 49" xmlns="http://www.w3.org/2000/svg">
<path d="M46.182 43.3827L31.5362 28.7369C33.6585 25.9772 34.9178 22.5179 34.9178 18.771C34.9178 9.72228 27.5716 2.3916 18.5229 2.3916C9.47423 2.3916 2.14355 9.72228 2.14355 18.771C2.14355 27.8196 9.47423 35.1503 18.5229 35.1503C22.1533 35.1503 25.5038 33.9687 28.2246 31.9708L42.9093 46.6477L46.182 43.3827ZM6.85447 18.771C6.85447 12.3187 12.0862 7.08697 18.5385 7.08697C24.9907 7.08697 30.2225 12.3187 30.2225 18.771C30.2225 25.2232 24.9751 30.4549 18.5229 30.4549C12.0784 30.4549 6.85447 25.2232 6.85447 18.771Z" fill="#0078D4"/>
<path d="M24.1816 12.9385H12.6064V15.2473H24.1816V12.9385Z" fill="#0078D4"/>
<path d="M24.1816 17.5947H12.6064V19.9035H24.1816V17.5947Z" fill="#50E6FF"/>
<path d="M24.1816 22.2783H12.6064V24.5871H24.1816V22.2783Z" fill="#50E6FF"/>
</svg>
