<svg data-slug-id="monitor05" viewBox="0 0 48 48" xmlns="http://www.w3.org/2000/svg">
<path d="M47.9165 26.6507C47.9165 33.1686 45.3014 39.0717 41.0666 43.3833C40.687 43.7707 39.894 44.5033 39.894 44.5033L8.31019 44.6886C8.31019 44.6886 7.72811 44.1749 7.44973 43.9054C2.89437 39.5517 0.0683594 33.4296 0.0683594 26.6507C0.0683594 13.4633 10.7819 2.76855 23.9924 2.76855C37.203 2.76855 47.9165 13.4633 47.9165 26.6507Z" fill="#50E6FF"/>
<path d="M24.0168 2.74536C10.8063 2.74536 0.0927734 13.4401 0.0927734 26.6275C0.0927734 32.918 2.53074 38.6443 6.51246 42.9054C7.09453 43.5285 7.71878 44.1264 8.36835 44.6906L11.11 41.9538L13.9529 39.1159C13.2864 38.5769 12.6622 37.979 12.0801 37.3475L9.24567 40.1769C7.67661 38.4759 6.4281 36.5475 5.52546 34.4169C4.69031 32.4464 4.18416 30.3833 4.01544 28.2527H7.26325C7.21263 27.7138 7.18733 27.1748 7.18733 26.6275C7.18733 26.3075 7.19576 25.9959 7.21263 25.6843H3.97327C4.08293 23.3096 4.60595 21.0106 5.52546 18.838C6.36061 16.859 7.49945 15.0485 8.91668 13.4401L11.2197 15.739C11.7764 15.0906 12.3838 14.4759 13.0334 13.9201L10.7304 11.6212C12.3585 10.1812 14.1891 9.02747 16.1968 8.17694C18.3648 7.25905 20.6425 6.74536 23.0045 6.62747V9.86115C23.3335 9.84431 23.671 9.82747 24.0084 9.82747C24.5399 9.82747 25.0629 9.85273 25.5775 9.90326V6.66115C27.7286 6.82957 29.8207 7.33484 31.8116 8.16852C33.9374 9.06957 35.8777 10.3159 37.5817 11.8822L35.2872 14.1727C35.9283 14.7454 36.5188 15.3685 37.0587 16.0422L39.3617 13.7433C40.6524 15.2759 41.7068 16.9854 42.4914 18.838C43.4109 21.019 43.9339 23.318 44.0436 25.6843H40.8042C40.8211 25.9959 40.8295 26.3075 40.8295 26.6275C40.8295 27.1748 40.8042 27.7222 40.7536 28.2527H44.0014C43.8327 30.3833 43.3265 32.4548 42.4914 34.4169C41.6393 36.4212 40.4836 38.2485 39.0411 39.8738L36.2235 37.0527C35.6583 37.7011 35.0509 38.3075 34.4014 38.8633L37.2274 41.6843L39.9606 44.4127C40.6017 43.8401 41.2091 43.2338 41.7828 42.6022C45.6042 38.3664 47.9325 32.7664 47.9325 26.619C47.9409 13.4401 37.2274 2.74536 24.0168 2.74536Z" fill="#0078D4"/>
<path d="M27.3911 25.505C28.6902 26.8018 28.6902 28.9071 27.3911 30.2039C26.0919 31.5008 23.983 31.5008 22.6838 30.2039C21.3847 28.9071 15.0747 17.9092 15.0747 17.9092C15.0747 17.9092 26.0919 24.2081 27.3911 25.505Z" fill="#0078D4"/>
</svg>
