<svg data-slug-id="monitor07" viewBox="0 0 48 48" xmlns="http://www.w3.org/2000/svg">
<circle cx="23.9782" cy="23.6889" r="21.7795" fill="white"/>
<path d="M23.9918 42.8839C13.5671 42.8839 5.11533 34.4489 5.11533 24.0493C5.11533 13.6497 13.5671 5.21467 23.9918 5.21467C34.4164 5.21467 42.8598 13.6497 42.8598 24.0493C42.8598 34.4489 34.4081 42.8839 23.9918 42.8839ZM24.0001 0.19043C10.8502 0.19043 0.191406 10.8492 0.191406 23.9991C0.191406 37.1491 10.8502 47.8078 24.0001 47.8078C37.1501 47.8078 47.8088 37.1491 47.8088 23.9991C47.8088 10.8492 37.1417 0.19043 24.0001 0.19043Z" fill="#0078D4"/>
<path d="M35.3025 12.6882L29.0076 12.6631L16.4177 25.2529L22.7127 25.2697L12.7144 35.268L19.0093 35.2847L31.549 22.7617L25.2541 22.7366L35.3025 12.6882Z" fill="#50E6FF"/>
</svg>
