<svg data-slug-id="monitor01" viewBox="0 0 48 48" xmlns="http://www.w3.org/2000/svg">
<path d="M24.0193 40.8875C14.6914 40.8875 7.15127 33.3474 7.15127 24.0195C7.15127 14.6915 14.6914 7.15147 24.0193 7.15147C24.0582 7.15147 24.097 7.15147 24.097 7.15147V0.155518C24.0582 0.155518 24.0193 0.155518 24.0193 0.155518C10.8047 0.155518 0.116455 10.8438 0.116455 24.0584C0.116455 37.2729 10.8047 47.9612 24.0193 47.9612C37.195 47.9612 47.8833 37.2729 47.9221 24.1361H40.9262C40.8873 33.3474 33.3472 40.8875 24.0193 40.8875Z" fill="#0078D4"/>
<path d="M24.0193 30.5496C20.4047 30.5496 17.4509 27.5958 17.4509 23.9812C17.4509 20.3666 20.4047 17.4128 24.0193 17.4128C24.0582 17.4128 24.097 17.4128 24.097 17.4128V10.3391C24.0582 10.3391 24.0193 10.3391 24.0193 10.3391C16.4792 10.3391 10.3772 16.4411 10.3772 23.9812C10.3772 31.5213 16.4792 37.6233 24.0193 37.6233C31.5205 37.6233 37.6225 31.5213 37.6614 24.0201H30.5877C30.5489 27.6347 27.6339 30.5496 24.0193 30.5496Z" fill="#50E6FF"/>
</svg>
