<svg data-slug-id="monitor13" viewBox="0 0 48 49" xmlns="http://www.w3.org/2000/svg">
<path d="M46.7731 44.2795L31.5451 29.0542C33.7483 26.1873 35.0605 22.5915 35.0605 18.6961C35.0605 9.29363 27.4303 1.67285 18.0262 1.67285C8.62211 1.67285 1 9.29363 1 18.6961C1 28.0986 8.62211 35.7193 18.0262 35.7193C21.8008 35.7193 25.2838 34.4883 28.1107 32.4151L43.3711 47.6729L46.7731 44.2795ZM5.8924 18.6961C5.8924 11.9905 11.3275 6.5563 18.0343 6.5563C24.7411 6.5563 30.1762 11.9905 30.1762 18.6961C30.1762 25.4017 24.733 30.8359 18.0262 30.8359C11.3275 30.8359 5.8924 25.4017 5.8924 18.6961Z" fill="#0078D4"/>
</svg>
