<svg data-slug-id="monitor03" viewBox="0 0 48 48" xmlns="http://www.w3.org/2000/svg">
<path d="M47.747 23.97C47.747 10.8538 37.1206 0.219029 24.0044 0.202148V5.03844C34.4535 5.05532 42.9107 13.5209 42.9107 23.97C42.9107 34.4191 34.445 42.8932 24.0044 42.9016V47.7379C37.1206 47.721 47.747 37.0863 47.747 23.97Z" fill="#0078D4"/>
<path d="M3.40161 12.0608L7.588 14.4831C10.8628 8.83658 16.9736 5.03844 23.9791 5.03844C23.9875 5.03844 23.9959 5.03844 24.0044 5.03844V0.202148C23.9959 0.202148 23.9875 0.202148 23.9791 0.202148C15.1927 0.202148 7.52048 4.97092 3.40161 12.0608Z" fill="white"/>
<path d="M5.03879 23.9708C5.03879 20.5103 5.96722 17.2692 7.58776 14.4839L3.40137 12.0615C1.3757 15.5642 0.210938 19.6325 0.210938 23.9708C0.210938 28.3175 1.3757 32.3858 3.40981 35.8885L7.5962 33.4746C5.96722 30.6808 5.03879 27.4313 5.03879 23.9708Z" fill="#50E6FF"/>
<path d="M7.588 14.4839L3.40161 12.0615L7.588 14.4839Z" fill="#50E6FF"/>
<path d="M23.9792 42.9121C16.9822 42.9121 10.8714 39.1224 7.59655 33.4758L3.41016 35.8982C7.52902 42.9796 15.1928 47.7399 23.9792 47.7399C23.9876 47.7399 23.9961 47.7399 24.0045 47.7399V42.9036C23.9961 42.9121 23.9876 42.9121 23.9792 42.9121Z" fill="#0078D4"/>
<path d="M3.41016 35.8898L7.59655 33.4758L3.41016 35.8898Z" fill="#0078D4"/>
</svg>
