<svg data-slug-id="monitor02" viewBox="0 0 48 48" xmlns="http://www.w3.org/2000/svg">
<path d="M42.9529 23.9993C42.9529 34.4626 34.4715 42.9524 23.9998 42.9524C13.5282 42.9524 5.0467 34.4626 5.0467 23.9993C5.0467 13.5697 13.4694 5.11339 23.8738 5.04621V0.0581055C10.715 0.125285 0.0585938 10.8153 0.0585938 23.9993C0.0585938 37.217 10.7738 47.9405 23.9998 47.9405C37.2258 47.9405 47.941 37.217 47.941 23.9993C47.941 23.9657 47.941 23.9321 47.941 23.8986H42.9529C42.9529 23.9321 42.9529 23.9657 42.9529 23.9993Z" fill="#0078D4"/>
<path d="M28.1572 23.9996C28.1572 26.2921 26.2929 28.1563 24.0004 28.1563C21.7079 28.1563 19.8437 26.2921 19.8437 23.9996C19.8437 21.7491 21.6323 19.9184 23.866 19.8512V15.1318C19.0291 15.199 15.1243 19.1458 15.1243 23.9996C15.1243 28.8953 19.0963 32.8673 23.992 32.8673C28.8877 32.8673 32.8597 28.8953 32.8597 23.9996C32.8597 23.966 32.8597 23.9324 32.8597 23.8988H28.1404C28.1572 23.9324 28.1572 23.966 28.1572 23.9996Z" fill="#50E6FF"/>
<path d="M24.0005 7.74146C19.491 7.74146 15.4099 9.5805 12.4623 12.5448L15.9305 16.013C17.9879 13.9304 20.843 12.6456 24.0005 12.6456C30.2734 12.6456 35.3623 17.7345 35.3623 24.0074C35.3623 30.2803 30.2734 35.3692 24.0005 35.3692C20.7926 35.3692 17.8955 34.0424 15.8297 31.901L12.3616 35.3692C15.3175 38.3923 19.4323 40.2733 24.0005 40.2733C32.9774 40.2733 40.258 32.9927 40.258 24.0158C40.258 15.0389 32.9858 7.74146 24.0005 7.74146Z" fill="#50E6FF"/>
</svg>
