<svg data-slug-id="monitor10" viewBox="0 0 48 49" xmlns="http://www.w3.org/2000/svg">
<path d="M1 11.685H47V1.98633H1V11.685Z" fill="#50E6FF"/>
<path d="M1 43.1289H10.6502V14.0088H1V43.1289Z" fill="#0078D4"/>
<path d="M40.3351 39.6754C41.2711 38.457 41.8198 36.9401 41.8198 35.286C41.8198 31.3 38.5842 28.0806 34.6063 28.0806C30.6203 28.0806 27.4009 31.3081 27.4009 35.286C27.4009 39.2719 30.6284 42.4914 34.6063 42.4914C36.2039 42.4914 37.6805 41.975 38.8747 41.0955L45.3377 47.5586L46.782 46.1223L40.3351 39.6754ZM34.6063 40.4338C31.7661 40.4338 29.4745 38.1342 29.4745 35.294C29.4745 32.4538 31.7741 30.1542 34.6144 30.1542C37.4546 30.1542 39.7541 32.4538 39.7541 35.294C39.7541 38.1342 37.4465 40.4338 34.6063 40.4338Z" fill="#0078D4"/>
<path d="M25.3837 35.2941C25.3837 32.8331 26.3439 30.5093 28.0868 28.7664C29.8296 27.0236 32.1454 26.0634 34.6144 26.0634C39.7058 26.0634 43.8451 30.2027 43.8451 35.286C43.8451 36.7303 43.5223 38.1181 42.8929 39.3768L46.6449 43.1288H46.9999V14.0894H13.0708V43.1288H29.7409C29.1518 42.7577 28.5951 42.3219 28.0948 41.8136C26.3439 40.0708 25.3837 37.755 25.3837 35.2941Z" fill="#0078D4"/>
<path d="M34.6144 30.1462C31.7742 30.1462 29.4746 32.4458 29.4746 35.286C29.4746 38.1262 31.7742 40.4258 34.6063 40.4258C37.4465 40.4258 39.7542 38.1262 39.7542 35.286C39.7542 32.4458 37.4546 30.1462 34.6144 30.1462Z" fill="white"/>
<path d="M37.0997 32.7283H32.0083V33.7449H37.0997V32.7283Z" fill="#0078D4"/>
<path d="M37.0997 34.7778H32.0083V35.7945H37.0997V34.7778Z" fill="#50E6FF"/>
<path d="M37.0997 36.8352H32.0083V37.8519H37.0997V36.8352Z" fill="#50E6FF"/>
</svg>
