<svg data-slug-id="monitor04" viewBox="0 0 48 49" xmlns="http://www.w3.org/2000/svg">
<rect x="13.1973" y="15.5969" width="19.2601" height="18.9521" fill="white"/>
<rect x="13.1973" y="15.5969" width="19.2601" height="18.9521" fill="white"/>
<path d="M24.0781 1.30713C10.8665 1.30713 0.15625 11.9481 0.15625 25.0742C0.15625 38.2003 10.8665 48.8413 24.0781 48.8413C37.2897 48.8413 48 38.2003 48 25.0742C48 11.9481 37.2897 1.30713 24.0781 1.30713ZM25.3884 17.0476V25.0842H17.2793L25.3884 17.0476ZM21.5407 33.1317V25.0951H29.6515L21.5407 33.1317Z" fill="#50E6FF"/>
<path d="M24.0781 11.3442C24.5011 11.3442 24.9208 11.3628 25.3371 11.4001V15.3037L32.4591 8.22778L25.3371 1.15186V6.38228C24.9208 6.35449 24.5011 6.34059 24.0781 6.34059C13.6482 6.34059 5.1924 14.7416 5.1924 25.1041C5.18897 27.5649 5.67447 30.0023 6.62108 32.2764C7.56769 34.5504 8.95677 36.6165 10.7087 38.3561L14.2693 34.8186C12.3367 32.8925 11.022 30.4406 10.4911 27.7726C9.96023 25.1045 10.2371 22.3401 11.2866 19.8283C12.3362 17.3165 14.1114 15.17 16.3881 13.66C18.6647 12.15 21.3407 11.3441 24.0781 11.3442Z" fill="#0078D4"/>
<path d="M37.4174 11.8208L33.856 15.3592L33.8719 15.3742C35.8087 17.2985 37.1277 19.7503 37.662 22.4194C38.1964 25.0885 37.9221 27.8551 36.8739 30.3693C35.8257 32.8835 34.0506 35.0325 31.7732 36.5445C29.4957 38.0564 26.8181 38.8635 24.079 38.8636V34.4854L16.957 41.5613L24.079 48.6381V43.8672C34.509 43.8672 42.9647 35.467 42.9647 25.1037C42.968 22.6355 42.4795 20.1911 41.5274 17.9113C40.5753 15.6316 39.1785 13.5616 37.4174 11.8208Z" fill="#0078D4"/>
</svg>
