<svg data-slug-id="monitor06" viewBox="0 0 48 48" xmlns="http://www.w3.org/2000/svg">
<path d="M24.0005 46.6408C36.5048 46.6408 46.6415 36.504 46.6415 23.9997C46.6415 11.4954 36.5048 1.35864 24.0005 1.35864C11.4961 1.35864 1.35938 11.4954 1.35938 23.9997C1.35938 36.504 11.4961 46.6408 24.0005 46.6408Z" fill="#0078D4"/>
<path d="M33.3253 7.61735C30.5786 6.05487 27.3939 5.15918 24.0002 5.15918C13.5903 5.15918 5.15088 13.5986 5.15088 24.0085C5.15088 27.6609 6.1859 31.0646 7.98723 33.9606L8.21613 33.7417C6.99202 31.5622 6.29537 29.0542 6.29537 26.3771C6.29537 18.0472 13.0429 11.2996 21.3728 11.2996C23.4329 11.2996 25.3935 11.7176 27.1849 12.464L33.3253 7.61735Z" fill="#50E6FF"/>
<path d="M40.172 14.3037L35.3452 20.6731C36.0618 22.4246 36.4599 24.3554 36.4599 26.3657C36.4599 27.7888 36.2608 29.1722 35.8926 30.4759L39.8635 34.208C41.7643 31.2621 42.8591 27.7689 42.8591 24.007C42.8591 20.4541 41.8738 17.1301 40.172 14.3037Z" fill="#50E6FF"/>
<path d="M37.9531 11.3185C38.192 10.5124 37.5053 9.7063 36.719 9.7063C36.5996 9.7063 36.4802 9.7262 36.3608 9.76601C36.2214 9.81577 36.0721 9.88544 35.9328 9.99491L30.4392 14.3141L23.7813 19.5489L23.8111 19.8276L23.7017 19.9072L28.1702 24.3459L33.4647 17.3694L37.7142 11.7664C37.8337 11.6171 37.9133 11.4678 37.9531 11.3185Z" fill="#50E6FF"/>
<path d="M24 28.845C26.6768 28.845 28.8467 26.675 28.8467 23.9983C28.8467 21.3215 26.6768 19.1516 24 19.1516C21.3233 19.1516 19.1533 21.3215 19.1533 23.9983C19.1533 26.675 21.3233 28.845 24 28.845Z" fill="#50E6FF"/>
</svg>
