<svg data-slug-id="monitor08" viewBox="0 0 48 49" xmlns="http://www.w3.org/2000/svg">
<path d="M5.74038 22.8439C6.05026 21.5362 5.24068 20.2245 3.93302 19.9154C2.62535 19.6056 1.31363 20.4152 1.00456 21.7228C0.69468 23.0305 1.50426 24.3422 2.81193 24.6513C3.20374 24.7437 3.59474 24.7356 3.95979 24.6448L6.50048 28.4477L7.51125 27.7704L5.03382 24.0615C5.37291 23.7452 5.62519 23.329 5.74038 22.8439Z" fill="#50E6FF"/>
<path d="M45.1878 27.0685C44.809 26.9785 44.4293 26.9833 44.074 27.0669L41.4498 22.6426L40.4033 23.2632L42.9943 27.6323C42.6406 27.9519 42.377 28.3778 42.2585 28.8759C41.9487 30.1836 42.7583 31.4953 44.0659 31.8043C45.3736 32.1142 46.6853 31.3046 46.9944 29.997C47.3051 28.6893 46.4955 27.3776 45.1878 27.0685Z" fill="#50E6FF"/>
<path d="M36.8826 35.3139L36.7715 24.0227L35.5547 24.0349L35.6626 35.0405C35.2359 35.0568 34.8278 35.1857 34.475 35.404L25.0041 25.9185L29.3571 21.4942L28.4899 20.6408L24.1442 25.0578L13.9449 14.8415C14.0658 14.6363 14.1591 14.4091 14.2167 14.1649C14.5266 12.8573 13.717 11.5456 12.4093 11.2365C11.1017 10.9266 9.78995 11.7362 9.48088 13.0439C9.171 14.3515 9.98058 15.6632 11.2882 15.9723C11.3183 15.9796 11.3483 15.9853 11.3775 15.991L11.2809 26.3485L12.4978 26.3622L12.5959 15.9212C12.7671 15.866 12.9301 15.7914 13.0843 15.7014L23.2917 25.925L20.2221 29.0116L21.0892 29.865L24.1507 26.7857L33.6345 36.2841C33.5267 36.4764 33.4431 36.6865 33.3904 36.912C33.0805 38.2196 33.8901 39.5314 35.1977 39.8404C36.5054 40.1503 37.8171 39.3407 38.1262 38.0331C38.3882 36.9258 37.8479 35.8169 36.8826 35.3139Z" fill="#50E6FF"/>
<path d="M35.1103 4.37109C32.6085 4.63392 30.4637 5.8848 29.0027 7.69298C27.5417 9.50116 26.7638 11.8666 27.0266 14.3684C27.2894 16.8702 28.5403 19.015 30.3485 20.476C32.1567 21.9369 34.5221 22.7149 37.0134 22.4521C39.5151 22.1892 41.6599 20.9384 43.1315 19.1302C44.5925 17.322 45.3704 14.9565 45.1076 12.4653C44.8447 9.94245 43.5622 7.78708 41.7224 6.305C40.1771 5.04358 38.201 4.31836 36.0878 4.31836C35.7625 4.31917 35.4469 4.34026 35.1103 4.37109Z" fill="#50E6FF"/>
<path d="M32.3244 10.9844L30.1171 9.19727C29.1712 10.5536 28.7397 12.1298 28.8029 13.6751L31.6308 13.3807C31.6308 12.5508 31.862 11.7201 32.3244 10.9844Z" fill="#0078D4"/>
<path d="M38.506 9.58545L40.2931 7.37816C38.9368 6.43229 37.3598 6.01127 35.8047 6.07455L36.0992 8.90241C36.9396 8.89187 37.7702 9.12306 38.506 9.58545Z" fill="#0078D4"/>
<path d="M35.1206 9.00658L34.8262 6.17871C33.3019 6.45209 31.8515 7.20894 30.7263 8.41764L32.9336 10.2047C33.555 9.59551 34.3224 9.18585 35.1206 9.00658Z" fill="#0078D4"/>
<path d="M31.7363 14.3652L28.9084 14.6597C29.1818 16.1945 29.9387 17.6344 31.1474 18.7595L32.9345 16.5522C32.3244 15.9317 31.9148 15.1748 31.7363 14.3652Z" fill="#0078D4"/>
<path d="M46.9578 12.2652C46.6423 9.2272 45.0864 6.61998 42.9002 4.85398C42.48 4.50679 42.0054 4.21556 41.5325 3.93164L40.6856 5.47212L40.6677 5.58082C41.036 5.80147 41.397 6.03185 41.7231 6.29468C43.5629 7.7873 44.8455 9.93213 45.1083 12.455C45.3711 14.9567 44.5932 17.3117 43.1322 19.1304C41.6607 20.9386 39.5158 22.1895 37.0141 22.4523C35.343 22.6308 33.7344 22.3257 32.3042 21.6849L31.4419 23.3357C33.1868 24.1453 35.1524 24.5233 37.2031 24.3027C40.2094 23.9871 42.8061 22.4734 44.5721 20.2977C46.3381 18.1213 47.2734 15.2618 46.9578 12.2652Z" fill="#0078D4"/>
<path d="M30.3483 20.4787C28.5401 19.0177 27.2892 16.8624 27.0264 14.3711C26.7636 11.8694 27.531 9.51445 29.0025 7.69572C30.4635 5.88754 32.6189 4.63666 35.1101 4.37383C37.1284 4.16373 39.0631 4.62612 40.6709 5.58253L41.5332 3.93172C39.5993 2.8082 37.2971 2.272 34.9211 2.52428C31.9147 2.83903 29.3181 4.35355 27.5521 6.51866C25.7966 8.69432 24.8613 11.5538 25.176 14.5504C25.4916 17.5567 27.0053 20.1534 29.181 21.9194C29.8746 22.4767 30.642 22.9496 31.4515 23.3277L32.3138 21.6769C31.6097 21.3621 30.9478 20.9622 30.3483 20.4787Z" fill="#A0A1A2"/>
<path d="M30.3483 20.4787C28.5401 19.0177 27.2892 16.8624 27.0264 14.3711C26.7636 11.8694 27.531 9.51445 29.0025 7.69572C30.4635 5.88754 32.6189 4.63666 35.1101 4.37383C37.1284 4.16373 39.0631 4.62612 40.6709 5.58253L41.5332 3.93172C39.5993 2.8082 37.2971 2.272 34.9211 2.52428C31.9147 2.83903 29.3181 4.35355 27.5521 6.51866C25.7966 8.69432 24.8613 11.5538 25.176 14.5504C25.4916 17.5567 27.0053 20.1534 29.181 21.9194C29.8746 22.4767 30.642 22.9496 31.4515 23.3277L32.3138 21.6769C31.6097 21.3621 30.9478 20.9622 30.3483 20.4787Z" fill="#0078D4"/>
<path d="M41.0708 7.99805L39.2837 10.2053C39.725 10.6466 40.0511 11.1618 40.2717 11.7085H43.2359C42.9211 10.3213 42.1854 9.01773 41.0708 7.99805Z" fill="#0078D4"/>
<path d="M35.2262 14.3054C34.7216 13.8114 34.7216 13.0018 35.2156 12.4972C35.4679 12.245 35.794 12.1184 36.1299 12.1184C36.456 12.1184 36.7821 12.2239 37.0344 12.4761C37.0344 12.4761 37.0344 12.4761 37.0449 12.4761H40.3774H43.3107H43.5841C44.0992 12.4761 44.5194 12.8858 44.5194 13.4009C44.5194 13.916 44.1097 14.3362 43.5946 14.3362H36.9825C36.7407 14.5463 36.4462 14.6729 36.1412 14.6729C35.8046 14.6737 35.4785 14.5472 35.2262 14.3054Z" fill="#0078D4"/>
<path d="M12.1586 27.5234C9.65685 27.7863 7.51202 29.0371 6.05104 30.8453C4.59005 32.6535 3.81211 35.019 4.07494 37.5207C4.33777 40.0225 5.58865 42.1673 7.39683 43.6283C9.20501 45.0893 11.5705 45.8672 14.0617 45.6044C16.5635 45.3416 18.7083 44.0907 20.1798 42.2825C21.6408 40.4743 22.4187 38.1089 22.1559 35.6177C21.8931 33.0948 20.6106 30.9394 18.7708 29.4573C17.2254 28.1959 15.2493 27.4707 13.1361 27.4707C12.81 27.4707 12.4944 27.4918 12.1586 27.5234Z" fill="#50E6FF"/>
<path d="M9.37321 34.1367L7.16592 32.3496C6.22005 33.7059 5.78849 35.2821 5.85177 36.8275L8.67963 36.533C8.67882 35.7031 8.91001 34.8725 9.37321 34.1367Z" fill="#0078D4"/>
<path d="M15.5539 32.7378L17.3409 30.5305C15.9846 29.5846 14.4076 29.1636 12.8525 29.2269L13.147 32.0548C13.9874 32.0442 14.8181 32.2754 15.5539 32.7378Z" fill="#0078D4"/>
<path d="M12.1692 32.1614L11.8747 29.3335C10.3505 29.6069 8.90005 30.3637 7.7749 31.5724L9.98219 33.3595C10.6028 32.7503 11.3702 32.3406 12.1692 32.1614Z" fill="#0078D4"/>
<path d="M8.78416 37.5205L5.9563 37.815C6.22968 39.3498 6.98653 40.7897 8.19523 41.9148L9.98232 39.7075C9.3731 39.0869 8.96263 38.3301 8.78416 37.5205Z" fill="#0078D4"/>
<path d="M24.0065 35.4175C23.6909 32.3795 22.135 29.7723 19.9488 28.0063C19.5286 27.6591 19.0541 27.3671 18.5803 27.084L18.3102 27.2324L17.718 28.7348C18.0863 28.9554 18.4449 29.1842 18.771 29.447C20.6108 30.9396 21.8933 33.0845 22.1561 35.6073C22.419 38.1091 21.641 40.464 20.18 42.2827C18.7085 44.0909 16.5637 45.3418 14.0619 45.6046C12.3908 45.7831 10.7822 45.4781 9.35206 44.8372L8.48975 46.488C10.2347 47.2976 12.2002 47.6756 14.2509 47.455C17.2573 47.1394 19.8539 45.6257 21.6199 43.4501C23.3859 41.2728 24.3212 38.4133 24.0065 35.4175Z" fill="#0078D4"/>
<path d="M7.39615 43.6317C5.58797 42.1707 4.33709 40.0153 4.07426 37.5241C3.81143 35.0224 4.57883 32.6674 6.05036 30.8487C7.51134 29.0405 9.66671 27.7896 12.1579 27.5268C14.1762 27.3167 16.1109 27.7791 17.7187 28.7355L18.5811 27.0847C16.6471 25.9596 14.3449 25.4234 11.9689 25.6756C8.96259 25.9912 6.36592 27.5049 4.59992 29.67C2.84447 31.8457 1.90915 34.7052 2.2239 37.7018C2.53946 40.7081 4.05317 43.3048 6.22882 45.0708C6.9224 45.6281 7.6898 46.101 8.49939 46.479L9.3617 44.8282C8.65757 44.5151 7.99563 44.116 7.39615 43.6317Z" fill="#A0A1A2"/>
<path d="M7.39615 43.6317C5.58797 42.1707 4.33709 40.0153 4.07426 37.5241C3.81143 35.0224 4.57883 32.6674 6.05036 30.8487C7.51134 29.0405 9.66671 27.7896 12.1579 27.5268C14.1762 27.3167 16.1109 27.7791 17.7187 28.7355L18.5811 27.0847C16.6471 25.9596 14.3449 25.4234 11.9689 25.6756C8.96259 25.9912 6.36592 27.5049 4.59992 29.67C2.84447 31.8457 1.90915 34.7052 2.2239 37.7018C2.53946 40.7081 4.05317 43.3048 6.22882 45.0708C6.9224 45.6281 7.6898 46.101 8.49939 46.479L9.3617 44.8282C8.65757 44.5151 7.99563 44.116 7.39615 43.6317Z" fill="#0078D4"/>
<path d="M17.9175 30.9941L16.1304 33.2014C16.1531 33.2241 16.1742 33.2477 16.1961 33.2704L18.7035 31.8362C18.4666 31.5393 18.2054 31.257 17.9175 30.9941Z" fill="#0078D4"/>
<path d="M12.8375 37.834C12.1536 37.6572 11.7505 36.9555 11.9273 36.2716C12.0206 35.9269 12.2404 35.6551 12.5317 35.488C12.814 35.3258 13.149 35.2544 13.4937 35.3477C13.4937 35.3477 13.4937 35.3477 13.5027 35.3428L16.3922 33.6823L18.9353 32.2213L19.1722 32.085C19.6192 31.8287 20.1878 31.9747 20.4442 32.4208C20.7005 32.8678 20.5545 33.4365 20.1083 33.6928L14.3755 36.9871C14.2709 37.2897 14.0786 37.546 13.8142 37.6977C13.5221 37.8648 13.1766 37.9176 12.8375 37.834Z" fill="#0078D4"/>
</svg>
