<svg data-slug-id="monitor11" viewBox="0 0 48 49" xmlns="http://www.w3.org/2000/svg">
<path d="M32.4095 7.82726L25.2635 0.672852V5.9565C24.8422 5.93121 24.4208 5.91436 23.9995 5.91436C13.5249 5.91436 5.03906 14.4002 5.03906 24.8748C5.03906 30.0995 7.15421 34.8354 10.5755 38.2651L14.1485 34.6921C11.5362 32.0713 10.0952 28.5826 10.0952 24.8748C10.0952 21.1586 11.5446 17.6698 14.1654 15.0407C16.7945 12.4115 20.2833 10.9705 23.9995 10.9705C24.4208 10.9705 24.8422 10.9873 25.2635 11.0295V14.9732L32.4095 7.82726Z" fill="#0078D4"/>
<path d="M37.3904 11.458L33.8174 15.031C33.8258 15.0394 33.8258 15.0394 33.8343 15.0479C36.4634 17.677 37.9044 21.1658 37.9044 24.882C37.9044 28.5982 36.455 32.087 33.8343 34.7162C31.2051 37.3453 27.7164 38.7863 24.0001 38.7863V34.3622L16.8457 41.5166L24.0001 48.671V43.8509C34.4747 43.8509 42.9606 35.365 42.9606 24.8904C42.9606 19.6321 40.8286 14.8877 37.3904 11.458Z" fill="#0078D4"/>
<path d="M30.32 26.1125V23.5844H28.9043C28.7694 23.1294 28.584 22.6996 28.3312 22.3036L29.3593 21.2755L27.5728 19.489L26.5026 20.5592C26.115 20.3485 25.7021 20.18 25.2639 20.0704V18.5283H22.7358V20.0957C22.306 20.2137 21.9015 20.3822 21.5308 20.5929L20.4268 19.489L18.6403 21.2755L19.7274 22.3625C19.4999 22.7418 19.3145 23.1547 19.1881 23.5929H17.6797V26.1209H19.1123C19.2218 26.5928 19.3903 27.031 19.6179 27.4439L18.6319 28.4299L20.4184 30.2164L21.3622 29.2726C21.7836 29.5338 22.2386 29.736 22.7274 29.8709V31.1686H25.2554V29.8877C25.7526 29.7613 26.2245 29.5675 26.6543 29.3063L27.5644 30.2164L29.3509 28.4299L28.4155 27.4945C28.6599 27.0732 28.8453 26.6097 28.9548 26.1125H30.32ZM23.9998 26.1125C23.3004 26.1125 22.7358 25.5479 22.7358 24.8485C22.7358 24.149 23.3004 23.5844 23.9998 23.5844C24.6993 23.5844 25.2639 24.149 25.2639 24.8485C25.2639 25.5479 24.6993 26.1125 23.9998 26.1125Z" fill="#50E6FF"/>
</svg>
