<svg data-slug-id="monitor12" viewBox="0 0 49 50" xmlns="http://www.w3.org/2000/svg">
<path d="M18.1312 33.4916C26.2497 33.4916 32.8312 26.9101 32.8312 18.7916C32.8312 10.673 26.2497 4.09155 18.1312 4.09155C10.0126 4.09155 3.43115 10.673 3.43115 18.7916C3.43115 26.9101 10.0126 33.4916 18.1312 33.4916Z" fill="#50E6FF"/>
<path d="M48.3313 45.19L32.6313 29.49C34.9313 26.49 36.2313 22.79 36.2313 18.79C36.2313 9.19004 28.3313 1.29004 18.6313 1.29004C9.03135 1.29004 1.13135 9.19004 1.13135 18.79C1.13135 28.49 9.03135 36.29 18.6313 36.29C22.5313 36.29 26.1313 34.99 29.0313 32.89L44.7313 48.59L48.3313 45.19ZM6.13135 18.79C6.13135 11.89 11.7313 6.29004 18.7313 6.29004C25.7313 6.29004 31.2313 11.89 31.2313 18.79C31.2313 25.69 25.6313 31.29 18.7313 31.29C11.7313 31.39 6.13135 25.79 6.13135 18.79Z" fill="#0078D4"/>
<path d="M20.1313 16.8916H16.6313V20.3916H20.1313V16.8916Z" fill="#0078D4"/>
<path d="M23.6312 13.4932L22.4312 14.6932L26.4312 18.6932L22.4312 22.6932L23.6312 23.8932L28.8312 18.6932L23.6312 13.4932Z" fill="#0078D4"/>
<path d="M13.1312 23.8932L14.3312 22.6932L10.3312 18.6932L14.3312 14.6932L13.1312 13.4932L7.93115 18.6932L13.1312 23.8932Z" fill="#0078D4"/>
</svg>
