<svg data-slug-id="mountain-device" viewBox="0 0 48 48" xmlns="http://www.w3.org/2000/svg">
    <path d="M1.00195 31.3095L17.9692 4.94092L31.8076 18.7793L37.2892 13.2976L47.002 22.8234V31.5682L1.00195 31.3095Z" fill="#50E6FF"/>
    <path d="M38.8034 43.0587H10.1924C8.15593 43.0587 6.48364 41.3864 6.48364 39.35V27.6823C6.48364 25.6458 8.15593 23.9735 10.1924 23.9735H38.8322C40.8686 23.9735 42.5409 25.6458 42.5409 27.6823V39.35C42.5122 41.3864 40.8399 43.0587 38.8034 43.0587Z" fill="#0078D4"/>
    <path d="M8.83691 40.4473L17.6632 26.7432L24.8411 33.9211L27.6873 31.0748L32.6467 36.0342V40.5767L8.83691 40.4473Z" fill="#50E6FF"/>
    <path d="M37.3703 29.9532L39.3013 28.0222C38.1801 27.0303 36.4838 26.9776 35.3051 27.8928L37.3703 29.9532Z" fill="#50E6FF"/>
    <path d="M36.8199 30.4996L34.7595 28.4392C33.8443 29.6132 33.897 31.2855 34.8889 32.4355L36.8199 30.4996Z" fill="#50E6FF"/>
    <path d="M37.9172 30.4996L39.6902 32.2725C40.5239 31.204 40.5766 29.7138 39.7956 28.5925L37.9172 30.4996Z" fill="#50E6FF"/>
    <path d="M37.3708 31.0458L35.4637 32.9529C36.5849 33.7099 38.0751 33.686 39.1437 32.8474L37.3708 31.0458Z" fill="#50E6FF"/>
    <path d="M40.1109 35.2529H34.6771V36.2975H40.1061V35.2529H40.1109Z" fill="#50E6FF"/>
    <path d="M40.1109 37.3901H34.6771V38.4347H40.1061V37.3901H40.1109Z" fill="#50E6FF"/>
    <path d="M40.1109 39.5608H34.6771V40.6054H40.1061V39.5608H40.1109Z" fill="#50E6FF"/>
</svg>
