<svg data-slug-id="multiple-four" viewBox="0 0 48 48" xmlns="http://www.w3.org/2000/svg">
    <path d="M30.2529 33.2647C30.2529 28.3602 34.222 24.3911 39.1264 24.3911C44.0309 24.3911 48 28.3602 48 33.2647H30.2529Z" fill="#0078D7"/>
    <path d="M44.0977 17.0148C44.0977 19.7619 41.873 21.9782 39.1342 21.9782C36.3955 21.9782 34.1708 19.7535 34.1708 17.0148C34.1708 14.276 36.3955 12.0513 39.1342 12.0513C41.873 12.0513 44.0977 14.276 44.0977 17.0148Z" fill="#0078D7"/>
    <path d="M15.0839 23.1514C15.0839 18.2469 19.053 14.2778 23.9574 14.2778C28.8619 14.2778 32.831 18.2469 32.831 23.1514H15.0839Z" fill="#50E6FF"/>
    <path d="M28.9299 6.90538C28.9299 9.65257 26.7052 11.8689 23.9665 11.8689C21.2277 11.8689 19.003 9.64414 19.003 6.90538C19.003 4.16661 21.2193 1.94189 23.958 1.94189C26.6968 1.94189 28.9299 4.16661 28.9299 6.90538Z" fill="#50E6FF"/>
    <path d="M15.0839 46.0655C15.0839 41.161 19.053 37.1919 23.9574 37.1919C28.8619 37.1919 32.831 41.161 32.831 46.0655H15.0839Z" fill="#0078D7"/>
    <path d="M28.9299 29.8233C28.9299 32.5705 26.7052 34.7868 23.9665 34.7868C21.2277 34.7868 19.003 32.5621 19.003 29.8233C19.003 27.0846 21.2277 24.8599 23.9665 24.8599C26.7052 24.8599 28.9299 27.0762 28.9299 29.8233Z" fill="#0078D7"/>
    <path d="M0 33.2647C0 28.3602 3.96909 24.3911 8.87357 24.3911C13.7781 24.3911 17.7471 28.3602 17.7471 33.2647H0Z" fill="#50E6FF"/>
    <path d="M13.8458 17.0148C13.8458 19.7619 11.6211 21.9782 8.88235 21.9782C6.1436 21.9782 3.91888 19.7535 3.91888 17.0148C3.91888 14.276 6.13517 12.0513 8.87393 12.0513C11.6127 12.0513 13.8458 14.276 13.8458 17.0148Z" fill="#50E6FF"/>
</svg>
