<svg data-slug-id="net-app-migration" viewBox="0 0 49 48" xmlns="http://www.w3.org/2000/svg">
<path d="M48.3333 0H0.333313V48H48.3333V0Z" fill="#512BD4"/>
<path d="M8.88845 30.6667C8.54906 30.6667 8.26057 30.5537 8.02299 30.3274C7.78542 30.0954 7.66663 29.82 7.66663 29.501C7.66663 29.1762 7.78542 28.8979 8.02299 28.6659C8.26057 28.4339 8.54906 28.3179 8.88845 28.3179C9.2335 28.3179 9.52482 28.4339 9.76239 28.6659C10.0056 28.8979 10.1272 29.1762 10.1272 29.501C10.1272 29.82 10.0056 30.0954 9.76239 30.3274C9.52482 30.5537 9.2335 30.6667 8.88845 30.6667Z" fill="white"/>
<path d="M22.4561 30.4753H20.25L14.4379 21.3059C14.2909 21.0739 14.1692 20.8332 14.0731 20.5838H14.0221C14.0674 20.8506 14.09 21.4219 14.09 22.2976V30.4753H12.1385V18H14.4888L20.1058 26.9519C20.3434 27.3232 20.4961 27.5783 20.564 27.7175H20.5979C20.5414 27.3869 20.5131 26.8273 20.5131 26.0384V18H22.4561V30.4753Z" fill="white"/>
<path d="M31.9595 30.4753H25.1292V18H31.6881V19.7574H27.1487V23.2894H31.3317V25.038H27.1487V28.7266H31.9595V30.4753Z" fill="white"/>
<path d="M41.6667 19.7574H38.1709V30.4753H36.1514V19.7574H32.6642V18H41.6667V19.7574Z" fill="white"/>
</svg>
