<svg data-slug-id="network-routing" xmlns="http://www.w3.org/2000/svg" viewBox="0 0 48 48">
	<path d="M35.4884 33.3117C31.7362 36.1496 27.0167 37.3943 22.3529 36.776C17.6892 36.1576 13.4571 33.726 10.574 30.0083C7.69103 26.2907 6.38945 21.5865 6.95147 16.9156C7.51348 12.2447 9.8938 7.98359 13.5764 5.05591L13.7576 4.91615C17.5231 2.03309 22.2796 0.763941 26.9808 1.38791C29.3087 1.69687 31.5528 2.46129 33.5852 3.63755C35.6176 4.8138 37.3984 6.37885 38.8259 8.24332C40.2535 10.1078 41.2998 12.2352 41.9052 14.504C42.5106 16.7729 42.6631 19.1388 42.3542 21.4666C42.0452 23.7944 41.2808 26.0386 40.1045 28.0709C38.9283 30.1033 37.3632 31.8841 35.4988 33.3117" fill="url(#network-routing_897f9986-784u-0t7e-x7i3-qwe397o54321)"/>
	<path d="M26.8778 42.1381H26.6862C26.6176 42.1381 26.5517 42.1108 26.5032 42.0623C26.4547 42.0137 26.4274 41.9479 26.4274 41.8793V36.9616C25.1722 37.0949 23.9064 37.0949 22.6512 36.9616V41.8793C22.6512 41.9479 22.6239 42.0137 22.5754 42.0623C22.5268 42.1108 22.461 42.1381 22.3923 42.1381H19.3072C19.2531 42.1342 19.1991 42.1474 19.1529 42.1759C19.1068 42.2043 19.0707 42.2465 19.0498 42.2966C19.0289 42.3467 19.0243 42.402 19.0366 42.4548C19.0488 42.5077 19.0774 42.5553 19.1182 42.591L24.3439 47.8141C24.3681 47.8395 24.3972 47.8598 24.4294 47.8737C24.4617 47.8875 24.4964 47.8946 24.5315 47.8946C24.5666 47.8946 24.6014 47.8875 24.6336 47.8737C24.6659 47.8598 24.695 47.8395 24.7192 47.8141L29.9448 42.591C29.9856 42.5553 30.0142 42.5077 30.0265 42.4548C30.0388 42.402 30.0341 42.3467 30.0132 42.2966C29.9924 42.2465 29.9563 42.2043 29.9101 42.1759C29.8639 42.1474 29.81 42.1342 29.7559 42.1381H26.8778Z" fill="#50E6FF"/>
	<path d="M17.2001 35.4863C15.8892 34.8925 14.6558 34.1406 13.5274 33.2474V35.9289C13.5274 35.9804 13.5172 36.0314 13.4974 36.079C13.4776 36.1266 13.4486 36.1698 13.412 36.2061C13.3755 36.2425 13.3321 36.2712 13.2843 36.2907C13.2366 36.3102 13.1855 36.32 13.134 36.3197H10.5923C10.5237 36.3197 10.4579 36.2924 10.4093 36.2439C10.3608 36.1953 10.3335 36.1295 10.3335 36.0609V33.0818C10.3338 33.0304 10.3188 32.9801 10.2904 32.9372C10.262 32.8944 10.2214 32.861 10.1739 32.8413C10.1265 32.8215 10.0742 32.8164 10.0238 32.8265C9.97338 32.8366 9.92713 32.8615 9.89093 32.898L4.90858 37.883C4.87211 37.9193 4.84317 37.9624 4.82343 38.01C4.80368 38.0575 4.79352 38.1085 4.79352 38.1599C4.79352 38.2114 4.80368 38.2623 4.82343 38.3099C4.84317 38.3574 4.87211 38.4005 4.90858 38.4369L9.89093 43.4218C9.92713 43.4583 9.97338 43.4832 10.0238 43.4933C10.0742 43.5034 10.1265 43.4983 10.1739 43.4786C10.2214 43.4589 10.262 43.4255 10.2904 43.3826C10.3188 43.3398 10.3338 43.2894 10.3335 43.238V40.2538C10.3335 40.1852 10.3608 40.1193 10.4093 40.0708C10.4579 40.0222 10.5237 39.995 10.5923 39.995H16.8041C16.8556 39.9953 16.9067 39.9855 16.9545 39.966C17.0022 39.9465 17.0456 39.9178 17.0821 39.8814C17.1187 39.8451 17.1477 39.8019 17.1675 39.7543C17.1873 39.7067 17.1975 39.6557 17.1975 39.6042V36.3223L17.2001 35.4863Z" fill="#9CEBFF"/>
	<path d="M44.5031 37.883L39.5208 32.898C39.4846 32.8615 39.4383 32.8366 39.3879 32.8265C39.3375 32.8164 39.2852 32.8215 39.2378 32.8413C39.1903 32.861 39.1498 32.8944 39.1213 32.9372C39.0929 32.9801 39.0779 33.0304 39.0782 33.0818V36.066C39.0782 36.1347 39.0509 36.2005 39.0024 36.2491C38.9538 36.2976 38.888 36.3249 38.8194 36.3249H36.2777C36.2262 36.3252 36.1751 36.3153 36.1274 36.2959C36.0797 36.2764 36.0363 36.2476 35.9997 36.2113C35.9631 36.175 35.9341 36.1318 35.9143 36.0842C35.8945 36.0366 35.8843 35.9856 35.8843 35.934V32.9705C35.7497 33.0818 35.6255 33.2034 35.4883 33.3122C34.4711 34.0963 33.3726 34.7688 32.2116 35.318V36.3197V39.6016C32.2116 39.6531 32.2218 39.7041 32.2416 39.7517C32.2614 39.7993 32.2904 39.8425 32.327 39.8788C32.3636 39.9152 32.4069 39.9439 32.4547 39.9634C32.5024 39.9829 32.5535 39.9927 32.605 39.9924H38.8168C38.8854 39.9924 38.9513 40.0197 38.9998 40.0682C39.0483 40.1167 39.0756 40.1826 39.0756 40.2512V43.238C39.0753 43.2894 39.0903 43.3398 39.1187 43.3826C39.1472 43.4255 39.1877 43.4589 39.2352 43.4786C39.2827 43.4983 39.3349 43.5034 39.3853 43.4933C39.4357 43.4832 39.482 43.4583 39.5182 43.4218L44.5005 38.4369C44.5372 38.4007 44.5663 38.3577 44.5863 38.3103C44.6063 38.2628 44.6167 38.2119 44.6169 38.1605C44.6171 38.109 44.6072 38.058 44.5877 38.0104C44.5682 37.9628 44.5394 37.9195 44.5031 37.883V37.883Z" fill="#9CEBFF"/>
	<path d="M14.8086 24.2578C17.9819 24.2578 20.5544 21.6853 20.5544 18.5119C20.5544 15.3385 17.9819 12.766 14.8086 12.766C11.6352 12.766 9.06268 15.3385 9.06268 18.5119C9.06268 21.6853 11.6352 24.2578 14.8086 24.2578Z" fill="url(#network-routing_f50d6d5a-3e0b-48f6-b707-1739d4aae5db)"/>
	<path d="M26.919 32.7421C28.9817 32.7421 30.6538 31.0699 30.6538 29.0073C30.6538 26.9446 28.9817 25.2724 26.919 25.2724C24.8563 25.2724 23.1841 26.9446 23.1841 29.0073C23.1841 31.0699 24.8563 32.7421 26.919 32.7421Z" fill="url(#network-routing_0de1544d-0aef-43ce-95f7-b412101f5218)"/>
	<path d="M35.4293 23.7117C37.6193 23.7117 39.3945 21.9364 39.3945 19.7465C39.3945 17.5566 37.6193 15.7813 35.4293 15.7813C33.2394 15.7813 31.4642 17.5566 31.4642 19.7465C31.4642 21.9364 33.2394 23.7117 35.4293 23.7117Z" fill="url(#network-routing_72ee6d58-b809-46ff-8841-e2bb4f7110d8)"/>
	<path opacity="0.45" d="M10.8201 22.635C11.6437 23.4304 12.6868 23.9605 13.8147 24.1569C12.8095 26.5055 12.0455 28.9501 11.5345 31.4532C11.1234 31.0194 10.7347 30.565 10.3698 30.0918C9.89456 29.4725 9.45721 28.8252 9.06012 28.1532C9.51163 26.2734 10.0999 24.4291 10.8201 22.635V22.635ZM19.0119 22.4306C18.1776 23.3278 17.0769 23.9331 15.8724 24.1569C16.811 25.1395 17.8281 26.0441 18.9135 26.8616C20.2614 27.8729 21.7037 28.7518 23.2204 29.4861C23.1978 29.3275 23.1857 29.1675 23.1841 29.0073C23.1835 28.5091 23.2831 28.016 23.4769 27.5571C23.6708 27.0982 23.955 26.683 24.3126 26.3362C22.3824 25.2719 20.6003 23.9588 19.0119 22.4306V22.4306ZM12.8907 13.1129C12.1458 11.1176 11.6587 9.03539 11.4413 6.9167C10.5599 7.85178 9.78316 8.88021 9.12483 9.98376C9.3693 11.6725 9.76871 13.3351 10.318 14.9506C10.9841 14.1093 11.8714 13.4703 12.8804 13.1052L12.8907 13.1129ZM41.4131 22.0656L41.3484 22.032L40.7272 21.6955L40.6107 21.6308L40.0491 21.3176L39.9119 21.2426L39.2493 20.8647C39.0242 21.6398 38.5549 22.3215 37.9112 22.8085L38.6877 23.2588L38.8662 23.3598L39.5961 23.7661L39.6686 23.8049C40.2561 24.1259 40.8618 24.4442 41.4804 24.7626C41.7315 24.0005 41.9304 23.2223 42.0757 22.4332L41.4131 22.0656ZM30.6408 28.7769C30.6408 28.852 30.6408 28.9296 30.6408 29.0073C30.6417 29.9819 30.2597 30.9179 29.5771 31.6136C31.939 32.0815 34.3497 32.2554 36.7542 32.1313C37.6576 31.2765 38.4687 30.3292 39.1742 29.3049C38.2597 29.405 37.3404 29.456 36.4204 29.4576C34.474 29.4549 32.5345 29.2265 30.6408 28.7769V28.7769ZM32.7994 16.9409C30.347 15.1437 28.0469 13.1475 25.9225 10.9725C29.8032 9.01909 34.0793 7.97886 38.4237 7.93129C37.5118 6.79241 36.4615 5.77167 35.2971 4.8927C31.8981 5.10838 28.5599 5.8959 25.4229 7.22211C24.7319 7.51458 24.0641 7.85364 23.4041 8.20305C21.807 6.31204 20.4113 4.25969 19.2397 2.07928C18.4543 2.32169 17.6864 2.61744 16.9413 2.96446C18.1597 5.27697 19.6161 7.45599 21.2869 9.46611C19.6725 10.5229 18.1803 11.7555 16.8378 13.1414C18.0109 13.5887 19.0059 14.4065 19.6719 15.4708C20.9076 14.2486 22.2677 13.159 23.7302 12.22C26.1149 14.7178 28.7188 16.9968 31.5105 19.0296C31.7029 18.2123 32.1552 17.4795 32.7994 16.9409V16.9409Z" fill="white"/>
	<defs>
		<radialGradient id="network-routing_897f9986-784u-0t7e-x7i3-qwe397o54321" cx="0" cy="0" r="1" gradientUnits="userSpaceOnUse" gradientTransform="translate(24.528 19.1768) scale(17.8786)">
			<stop offset="0.183" stop-color="#A67AF4"/>
			<stop offset="1" stop-color="#773ADC"/>
		</radialGradient>
		<linearGradient id="network-routing_f50d6d5a-3e0b-48f6-b707-1739d4aae5db" x1="14.8526" y1="24.4079" x2="14.7879" y2="16.0816" gradientUnits="userSpaceOnUse">
			<stop stop-color="#CCCCCC"/>
			<stop offset="1" stop-color="#FCFCFC"/>
		</linearGradient>
		<linearGradient id="network-routing_0de1544d-0aef-43ce-95f7-b412101f5218" x1="26.919" y1="32.7395" x2="26.919" y2="25.2724" gradientUnits="userSpaceOnUse">
			<stop stop-color="#CCCCCC"/>
			<stop offset="1" stop-color="#FCFCFC"/>
		</linearGradient>
		<linearGradient id="network-routing_72ee6d58-b809-46ff-8841-e2bb4f7110d8" x1="35.4293" y1="23.7117" x2="35.4293" y2="15.7813" gradientUnits="userSpaceOnUse">
			<stop stop-color="#CCCCCC"/>
			<stop offset="1" stop-color="#FCFCFC"/>
		</linearGradient>
	</defs>
</svg>
