<svg data-slug-id="node25" viewBox="0 0 48 49" xmlns="http://www.w3.org/2000/svg">
<path d="M38.459 42.4458V37.5537L9.49247 37.5537V42.4458L38.459 42.4458Z" fill="#50E6FF"/>
<path d="M38.4619 11.0053V6.21777L9.4954 6.21777V11.0053L38.4619 11.0053Z" fill="#50E6FF"/>
<path d="M5.90862 37.9014H10.7686L10.7686 8.93485H5.90862L5.90862 37.9014Z" fill="#50E6FF"/>
<path d="M37.2265 37.9014H42.0703V8.93485H37.2265V37.9014Z" fill="#50E6FF"/>
<path d="M16.6074 47.3686L16.6074 31.8232L1.06206 31.8232L1.06206 47.3686H16.6074Z" fill="#0078D4"/>
<path d="M31.3535 39.4709C31.3535 35.1742 34.8375 31.6982 39.1262 31.6982C43.4229 31.6982 46.8989 35.1823 46.8989 39.4709C46.8989 43.7676 43.4149 47.2436 39.1262 47.2436C34.8295 47.2436 31.3535 43.7676 31.3535 39.4709Z" fill="#0078D4"/>
<path d="M46.9004 16.9155V1.37012L31.355 1.37012L31.355 16.9155L46.9004 16.9155Z" fill="#0078D4"/>
<path d="M1.05957 9.18186C1.05957 4.89321 4.5436 1.40918 8.83225 1.40918C13.129 1.40918 16.6049 4.89321 16.6049 9.18186C16.6049 13.4786 13.1209 16.9545 8.83225 16.9545C4.5436 16.9626 1.05957 13.4786 1.05957 9.18186Z" fill="#0078D4"/>
</svg>
