<svg data-slug-id="node30" viewBox="0 0 48 49" xmlns="http://www.w3.org/2000/svg">
<path d="M18.0252 35.8672H16.9238V13.3517L29.726 13.2937L29.7508 14.3951L18.0252 14.453V35.8672Z" fill="#50E6FF"/>
<path d="M22.8864 23.6707H18.8867V24.772H22.8864V23.6707Z" fill="#50E6FF"/>
<path d="M22.2983 26.2604L25.8343 24.215L22.2983 22.1697V26.2604Z" fill="#50E6FF"/>
<path d="M10.9865 23.6707H6.98682V24.772H10.9865V23.6707Z" fill="#50E6FF"/>
<path d="M10.3823 26.2604L13.9182 24.215L10.3823 22.1697V26.2604Z" fill="#50E6FF"/>
<path d="M35.7379 23.6707H31.7383V24.772H35.7379V23.6707Z" fill="#50E6FF"/>
<path d="M35.1582 26.2604L38.6941 24.215L35.1582 22.1697V26.2604Z" fill="#50E6FF"/>
<path d="M33.3697 10.3701H26.3062V17.4585H33.3945V10.3701H33.3697Z" fill="#0078D7"/>
<path d="M47.0001 24.2249L42.8597 20.0845L38.7192 24.2249L42.8597 28.3653L47.0001 24.2249Z" fill="#0078D7"/>
<path d="M20.9815 20.6873H13.8931V27.7508H20.9815V20.6873Z" fill="#0078D7"/>
<path d="M19.0438 31.1204H15.8391C14.7626 31.1204 13.9097 31.9733 13.9097 33.0498V36.2545C13.9097 37.331 14.7626 38.1839 15.8391 38.1839H19.0438C20.1203 38.1839 20.9732 37.331 20.9732 36.2545V33.0498C20.9815 31.9733 20.0954 31.1204 19.0438 31.1204Z" fill="#0078D7"/>
<path d="M19.4911 10.3701H15.4086L13.3633 13.906L15.4086 17.4337H19.4911L21.5365 13.8977L19.4911 10.3701Z" fill="#0078D7"/>
<path d="M5.03276 28.2474C7.26859 28.2474 9.06553 26.4505 9.06553 24.2146C9.06553 21.9788 7.26859 20.1819 5.03276 20.1819C2.79694 20.1819 1 21.9871 1 24.2229C1 26.4588 2.79694 28.2474 5.03276 28.2474Z" fill="#0078D7"/>
<path d="M29.834 28.2474C32.0699 28.2474 33.8668 26.4505 33.8668 24.2146C33.8668 21.9788 32.0699 20.1819 29.834 20.1819C27.5982 20.1819 25.8013 21.9788 25.8013 24.2146C25.8013 26.4505 27.6313 28.2474 29.834 28.2474Z" fill="#0078D7"/>
</svg>
