<svg data-slug-id="node03" viewBox="0 0 48 49" xmlns="http://www.w3.org/2000/svg">
<path d="M5.04547 35.2777C6.50877 33.8124 8.88872 33.8124 10.352 35.2777C11.8153 36.7429 11.8153 39.1261 10.352 40.5913C8.88872 42.0566 6.50877 42.0566 5.04547 40.5913C3.58217 39.1261 3.58217 36.7513 5.04547 35.2777Z" fill="#0078D4"/>
<path d="M21.9827 36.097C20.9987 35.1118 19.4009 35.1118 18.4169 36.097C18.0889 36.4254 17.8703 36.8297 17.761 37.2507H15.2717C15.1203 35.5412 14.3887 33.8654 13.0852 32.5602C12.3367 31.8107 11.4705 31.2465 10.537 30.876L12.1685 28.2318C12.589 28.3581 13.0431 28.3833 13.4972 28.2739C14.8512 27.9539 15.6922 26.5897 15.3726 25.2339C15.053 23.8781 13.6907 23.036 12.3367 23.356C10.9827 23.676 10.1417 25.0402 10.4613 26.396C10.5706 26.8507 10.7977 27.2465 11.1004 27.5665L9.29235 30.497C6.86194 29.9833 4.22969 30.6654 2.34591 32.5518C-0.614325 35.516 -0.614325 40.3412 2.34591 43.3054C5.30614 46.2697 10.1249 46.2697 13.0852 43.3054C14.4223 41.9665 15.1539 40.257 15.2801 38.5054H17.761C17.8703 38.9265 18.0889 39.3307 18.4169 39.6591C19.4009 40.6444 20.9987 40.6444 21.9827 39.6591C22.9666 38.6823 22.9666 37.0823 21.9827 36.097ZM11.8826 42.1265C9.57829 44.4339 5.82754 44.4339 3.53168 42.1265C1.23582 39.8191 1.22741 36.0633 3.53168 33.7644C5.83595 31.4654 9.5867 31.457 11.8826 33.7644C14.1868 36.0633 14.1868 39.8191 11.8826 42.1265Z" fill="#50E6FF"/>
<path d="M21.3941 7.20344C22.8574 5.73818 25.2374 5.73818 26.7007 7.20344C28.1639 8.6687 28.1639 11.0519 26.7007 12.5171C25.2374 13.9824 22.8574 13.9824 21.3941 12.5171C19.9308 11.0519 19.9308 8.6687 21.3941 7.20344Z" fill="#0078D4"/>
<path d="M31.6967 16.8797C31.2426 16.7702 30.7884 16.7955 30.368 16.9218L29.3672 15.2965C29.384 15.2797 29.4092 15.2628 29.4261 15.2376C32.3863 12.2734 32.3863 7.44811 29.4261 4.4839C26.4658 1.51969 21.647 1.51969 18.6868 4.4839C15.7266 7.44811 15.7266 12.2734 18.6868 15.2376C18.6868 15.2376 18.6868 15.2376 18.6952 15.246L17.6608 16.9218C17.2403 16.7955 16.7862 16.7702 16.3321 16.8797C14.9781 17.1997 14.1371 18.5639 14.4567 19.9197C14.7763 21.2755 16.1387 22.1176 17.4926 21.7976C18.8466 21.4776 19.6876 20.1134 19.368 18.7576C19.2587 18.3028 19.0316 17.9071 18.7289 17.5871L19.6623 16.0713C22.261 17.9155 25.7678 17.9323 28.3833 16.1134L29.2915 17.5955C28.9888 17.9071 28.7617 18.3113 28.6524 18.766C28.3328 20.1218 29.1738 21.486 30.5277 21.806C31.8817 22.126 33.2441 21.2839 33.5637 19.9281C33.8916 18.5555 33.0507 17.1997 31.6967 16.8797ZM19.8726 14.0418C17.5683 11.7344 17.5683 7.97864 19.8726 5.67969C22.1769 3.38074 25.9276 3.37232 28.2235 5.67969C30.5277 7.98706 30.5277 11.7428 28.2235 14.0418C25.9276 16.3492 22.1769 16.3492 19.8726 14.0418Z" fill="#50E6FF"/>
<path d="M37.7681 35.2377C39.2398 33.7809 41.6197 33.7893 43.0746 35.263C44.5295 36.7367 44.5211 39.1198 43.0494 40.5767C41.5777 42.0335 39.1977 42.0251 37.7429 40.5514C36.2796 39.0777 36.2964 36.6946 37.7681 35.2377Z" fill="#0078D4"/>
<path d="M45.8081 32.5596C43.8991 30.6312 41.208 29.9406 38.7355 30.4964L36.9358 27.5743C37.2386 27.2627 37.4656 26.8585 37.575 26.4038C37.8945 25.048 37.0535 23.6838 35.6996 23.3638C34.3456 23.0438 32.9832 23.8859 32.6637 25.2417C32.3441 26.5975 33.1851 27.9617 34.539 28.2817C34.9932 28.3912 35.4473 28.3659 35.8678 28.2396L37.5077 30.8922C36.6247 31.2543 35.8005 31.7933 35.0773 32.509C33.7485 33.8312 33.0085 35.5238 32.8571 37.2585H30.2585C30.1491 36.8375 29.9305 36.4333 29.6025 36.1048C28.6186 35.1196 27.0207 35.1196 26.0368 36.1048C25.0528 37.0901 25.0528 38.6901 26.0368 39.6754C27.0207 40.6606 28.6186 40.6606 29.6025 39.6754C29.9305 39.3469 30.1491 38.9427 30.2585 38.5217H32.8487C32.9832 40.248 33.7065 41.9406 35.0184 43.2712C37.9618 46.2522 42.7806 46.2775 45.7576 43.3217C48.7263 40.3575 48.7515 35.5322 45.8081 32.5596ZM44.5635 42.109C42.2508 44.408 38.5 44.3827 36.2126 42.0669C33.9167 39.7512 33.9419 35.9954 36.2546 33.7048C38.5673 31.4059 42.3181 31.4312 44.6055 33.7469C46.9014 36.0627 46.8845 39.8185 44.5635 42.109Z" fill="#50E6FF"/>
</svg>
