<svg data-slug-id="node08" viewBox="0 0 49 49" xmlns="http://www.w3.org/2000/svg">
<path d="M26.1855 29.7373H23.6592V43.6993H26.1855V29.7373Z" fill="#50E6FF"/>
<path d="M26.1855 2.66309H23.6592V18.3599H26.1855V2.66309Z" fill="#50E6FF"/>
<path d="M30.6826 25.9167L29.4194 28.1045L42.1961 35.4813L43.4593 33.2935L30.6826 25.9167Z" fill="#50E6FF"/>
<path d="M7.32126 12.4245L6.05811 14.6123L19.3015 22.2586L20.5647 20.0708L7.32126 12.4245Z" fill="#50E6FF"/>
<path d="M42.3483 12.5328L29.3018 20.0654L30.5649 22.2532L43.6114 14.7206L42.3483 12.5328Z" fill="#50E6FF"/>
<path d="M19.2126 25.8824L5.83789 33.6045L7.10105 35.7923L20.4757 28.0702L19.2126 25.8824Z" fill="#50E6FF"/>
<path d="M24.9222 19.6588L28.7201 21.8483V26.2272L24.9222 28.4251L21.1328 26.2356V21.8567L24.9222 19.6588ZM24.9222 16.7451L23.6591 17.4777L19.8696 19.6672L18.6064 20.3998V21.8567V26.2356V27.6924L19.8696 28.4251L23.6675 30.6145L24.9307 31.3472L26.1938 30.6145L29.9917 28.4251L31.2549 27.6924V26.2356V21.8567V20.3998L29.9917 19.6672L26.1854 17.4777L24.9222 16.7451Z" fill="#0078D4"/>
<path d="M21.1333 44.2903V44.2314C21.1333 42.1514 22.8175 40.4756 24.8891 40.4756H24.948C27.028 40.4756 28.7038 42.1598 28.7038 44.2314V44.2903C28.7038 46.3703 27.0196 48.0461 24.948 48.0461H24.8891C22.8175 48.0461 21.1333 46.3619 21.1333 44.2903Z" fill="#0078D4"/>
<path d="M21.1333 3.86904V3.81009C21.1333 1.7301 22.8175 0.0458984 24.8975 0.0458984H24.9565C27.028 0.0458984 28.7122 1.7301 28.7122 3.81009V3.86904C28.7122 5.94061 27.028 7.62481 24.9565 7.62481H24.8975C22.8175 7.62481 21.1333 5.94061 21.1333 3.86904Z" fill="#0078D4"/>
<path d="M40.7713 37.453L40.7207 37.4193C38.9186 36.3835 38.3039 34.0846 39.3481 32.2825L39.3818 32.2319C40.4176 30.4299 42.7165 29.8151 44.5186 30.8593L44.5691 30.893C46.3713 31.9288 46.986 34.2277 45.9418 36.0298L45.9081 36.0803C44.8639 37.874 42.5649 38.4888 40.7713 37.453Z" fill="#0078D4"/>
<path d="M7.28056 17.7297H7.22161C5.14161 17.7297 3.46582 16.0455 3.46582 13.9739V13.915C3.46582 11.835 5.15003 10.1592 7.22161 10.1592H7.28056C9.36056 10.1592 11.0363 11.8434 11.0363 13.915V13.9739C11.0448 16.0455 9.36056 17.7297 7.28056 17.7297Z" fill="#0078D4"/>
<path d="M44.5523 17.2067L44.5018 17.2404C42.6997 18.2761 40.4008 17.6614 39.365 15.8677L39.3313 15.8172C38.2955 14.0151 38.9102 11.7162 40.7039 10.6804L40.7544 10.6467C42.5565 9.61092 44.8555 10.2257 45.8913 12.0193L45.925 12.0699C46.9608 13.872 46.346 16.1709 44.5523 17.2067Z" fill="#0078D4"/>
<path d="M7.28056 37.9406H7.22161C5.14161 37.9406 3.46582 36.2564 3.46582 34.1848V34.1259C3.46582 32.0459 5.15003 30.3701 7.22161 30.3701H7.28056C9.36056 30.3701 11.0363 32.0543 11.0363 34.1259V34.1848C11.0448 36.2564 9.36056 37.9406 7.28056 37.9406Z" fill="#0078D4"/>
</svg>
