<svg data-slug-id="node28" viewBox="0 0 48 49" xmlns="http://www.w3.org/2000/svg">
<path d="M5.03711 7.42139V20.01" stroke="#0078D4" stroke-width="1.51899" stroke-miterlimit="10"/>
<path d="M23.9746 7.42139V20.01" stroke="#0078D4" stroke-width="1.51899" stroke-miterlimit="10"/>
<path d="M15.3049 7.42139L5.02881 20.01" stroke="#0078D4" stroke-width="1.51899" stroke-miterlimit="10"/>
<path d="M42.8701 7.42139V20.01" stroke="#0078D4" stroke-width="1.51899" stroke-miterlimit="10"/>
<path d="M23.9697 10.5342L42.9823 18.4323" stroke="#0078D4" stroke-width="1.51899" stroke-miterlimit="10"/>
<path d="M10.0827 29.7297H0V32.3114H10.0827V29.7297Z" fill="#50E6FF"/>
<path d="M28.9611 29.7297H18.8784V32.3114H28.9611V29.7297Z" fill="#50E6FF"/>
<path d="M47.9748 29.7297H37.8921V32.3114H47.9748V29.7297Z" fill="#50E6FF"/>
<path d="M10.083 18.3586H0.0507812V28.332H10.083V18.3586Z" fill="#0078D4"/>
<path d="M47.8574 18.2183H37.8252V28.1916H47.8574V18.2183Z" fill="#0078D4"/>
<path d="M28.9448 18.3586H18.9126V28.332H28.9448V18.3586Z" fill="#0078D4"/>
<path d="M5.00389 40.2141H4.97025H1.67383V46.6472C1.67383 47.3031 3.13704 47.8581 4.97025 47.8665H5.02071C6.86234 47.8665 8.35077 47.3283 8.35077 46.6472V40.2141H5.00389Z" fill="#0078D4"/>
<path d="M8.35056 40.2145C8.35056 40.8788 6.86212 41.4338 5.02049 41.4338C3.17887 41.4338 1.69043 40.8956 1.69043 40.2145C1.69043 39.5333 3.17887 38.9951 5.02049 38.9951C6.86212 38.9951 8.35056 39.5501 8.35056 40.2145Z" fill="white"/>
<path d="M7.66941 40.1501C7.66941 40.5958 6.48371 40.9574 5.0205 40.9574C3.55729 40.9574 2.37158 40.5958 2.37158 40.1501C2.37158 39.7044 3.55729 39.3428 5.0205 39.3428C6.48371 39.3428 7.66941 39.696 7.66941 40.1501Z" fill="#50E6FF"/>
<path d="M23.9243 40.1047H23.8907H20.5942V46.5378C20.5942 47.1937 22.0574 47.7487 23.8907 47.7572H23.9411C25.7827 47.7572 27.2712 47.219 27.2712 46.5378V40.1047H23.9243Z" fill="#0078D4"/>
<path d="M27.2715 40.1056C27.2715 40.7699 25.783 41.3249 23.9414 41.3249C22.0998 41.3249 20.6113 40.7867 20.6113 40.1056C20.6113 39.4244 22.0998 38.8862 23.9414 38.8862C25.783 38.8862 27.2715 39.4497 27.2715 40.1056Z" fill="white"/>
<path d="M26.5898 40.0412C26.5898 40.4869 25.4041 40.8485 23.9409 40.8485C22.4693 40.8485 21.292 40.4869 21.292 40.0412C21.292 39.5955 22.4777 39.2339 23.9409 39.2339C25.4125 39.2339 26.5898 39.5955 26.5898 40.0412Z" fill="#50E6FF"/>
<path d="M42.9375 40.1047H42.9038H39.6074V46.5378C39.6074 47.1937 41.0706 47.7487 42.9038 47.7572H42.9543C44.7959 47.7572 46.2844 47.219 46.2844 46.5378V40.1047H42.9375Z" fill="#0078D4"/>
<path d="M46.2846 40.1056C46.2846 40.7699 44.7962 41.3249 42.9546 41.3249C41.1129 41.3249 39.6245 40.7867 39.6245 40.1056C39.6245 39.4244 41.1129 38.8862 42.9546 38.8862C44.7962 38.8862 46.2846 39.4497 46.2846 40.1056Z" fill="white"/>
<path d="M45.603 40.0412C45.603 40.4869 44.4173 40.8485 42.9541 40.8485C41.4825 40.8485 40.3052 40.4869 40.3052 40.0412C40.3052 39.5955 41.4909 39.2339 42.9541 39.2339C44.4173 39.2339 45.603 39.5955 45.603 40.0412Z" fill="#50E6FF"/>
<path d="M7.55993 0.72583H2.49756V5.7882H7.55993V0.72583Z" fill="#0078D4"/>
<path d="M7.55993 5.68701H2.49756V10.7494H7.55993V5.68701Z" fill="#50E6FF"/>
<path d="M26.5057 0.72583H21.4434V5.7882H26.5057V0.72583Z" fill="#0078D4"/>
<path d="M26.5057 5.68701H21.4434V10.7494H26.5057V5.68701Z" fill="#50E6FF"/>
<path d="M17.659 0.72583H12.5967V5.7882H17.659V0.72583Z" fill="#0078D4"/>
<path d="M17.659 5.68701H12.5967V10.7494H17.659V5.68701Z" fill="#50E6FF"/>
<path d="M45.4266 0.72583H40.3643V5.7882H45.4266V0.72583Z" fill="#0078D4"/>
<path d="M45.4266 5.68701H40.3643V10.7494H45.4266V5.68701Z" fill="#50E6FF"/>
<path d="M35.3101 22.835L37.1265 24.6514L35.3101 26.4678V22.835Z" fill="#0078D4"/>
<path d="M32.4097 26.4678L30.5933 24.6514L32.4097 22.835V26.4678Z" fill="#0078D4"/>
<path d="M35.7061 23.7998H31.4258V25.4817H35.7061V23.7998Z" fill="#0078D4"/>
<path d="M15.7842 22.835L17.6006 24.6514L15.7842 26.4678V22.835Z" fill="#0078D4"/>
<path d="M12.8833 26.4678L11.0669 24.6514L12.8833 22.835V26.4678Z" fill="#0078D4"/>
<path d="M16.1792 23.7998H11.8989V25.4817H16.1792V23.7998Z" fill="#0078D4"/>
</svg>
