<svg data-slug-id="node04" viewBox="0 0 48 49" xmlns="http://www.w3.org/2000/svg">
<path d="M27.8338 24.162C27.8338 26.2856 26.1147 28.0047 23.9911 28.0047C21.8675 28.0047 20.1484 26.2856 20.1484 24.162C20.1484 22.0384 21.8675 20.3193 23.9911 20.3193C26.1147 20.3193 27.8338 22.0384 27.8338 24.162Z" fill="#0078D4"/>
<path d="M30.388 7.26737C30.1773 6.08759 29.1408 5.19434 27.9105 5.19434C27.0846 5.19434 26.3515 5.5904 25.8964 6.19715C25.2813 6.13816 24.6577 6.10445 24.0341 6.10445C14.0902 6.10445 6.02563 14.1606 6.02563 24.1129C6.02563 34.0567 14.0818 42.1213 24.0341 42.1213C33.9779 42.1213 42.0425 34.0567 42.0425 24.1129C42.0341 16.4106 37.197 9.83759 30.388 7.26737ZM35.8655 35.9528C34.3234 37.4949 32.5369 38.7 30.5397 39.5427C28.4751 40.4191 26.2841 40.8573 24.0256 40.8573C21.7672 40.8573 19.5762 40.4106 17.5116 39.5427C15.5144 38.7 13.7279 37.4949 12.1857 35.9528C10.652 34.4191 9.43856 32.6241 8.59586 30.6269C7.71946 28.5623 7.28125 26.3713 7.28125 24.1129C7.28125 21.8545 7.71946 19.6634 8.59586 17.5988C9.43856 15.6016 10.6436 13.8151 12.1857 12.273C13.7195 10.7393 15.5144 9.5258 17.5116 8.6831C19.5762 7.8067 21.7672 7.36849 24.0256 7.36849C24.4891 7.36849 24.9442 7.38535 25.3992 7.42748C25.3908 7.52018 25.3824 7.6213 25.3824 7.72243C25.3824 9.11288 26.5116 10.2421 27.902 10.2421C28.9891 10.2421 29.9245 9.55108 30.27 8.58198C30.3543 8.61568 30.447 8.64939 30.5313 8.69153C32.5284 9.53422 34.315 10.7393 35.8571 12.2814C37.3992 13.8151 38.6043 15.6101 39.447 17.6073C40.3234 19.6719 40.7616 21.8629 40.7616 24.1213C40.7616 26.3797 40.315 28.5707 39.447 30.6353C38.6127 32.6241 37.3992 34.4106 35.8655 35.9528Z" fill="#0078D4"/>
<path d="M47.9408 24.114C47.9408 19.6898 46.7358 15.5437 44.6459 11.9876C45.1262 11.5241 45.4296 10.8836 45.4296 10.1589C45.4296 8.76847 44.3004 7.63925 42.9099 7.63925C42.4633 7.63925 42.0335 7.75723 41.6712 7.96791C37.2976 3.18982 31.0111 0.198242 24.0251 0.198242C10.8201 0.198242 0.109375 10.9005 0.109375 24.114C0.109375 28.5213 1.29758 32.6421 3.37904 36.1898C2.87342 36.6533 2.5532 37.319 2.5532 38.0606C2.5532 39.4511 3.68241 40.5803 5.07286 40.5803C5.54477 40.5803 5.98297 40.4539 6.35376 40.2263C10.7274 45.0213 17.0223 48.0297 24.0251 48.0297C28.1122 48.0297 31.9633 47.0016 35.3341 45.1898C35.7386 45.4679 36.2274 45.628 36.7583 45.628C38.1487 45.628 39.2779 44.4988 39.2779 43.1084C39.2779 42.923 39.2611 42.746 39.2189 42.5775C44.5448 38.1954 47.9408 31.555 47.9408 24.114ZM38.629 41.4314C38.1656 40.9173 37.4998 40.5971 36.7498 40.5971C35.3594 40.5971 34.2302 41.7263 34.2302 43.1168C34.2302 43.5129 34.3229 43.8836 34.483 44.2123C33.9436 44.4904 33.4043 44.7516 32.8397 44.9876C30.0504 46.1673 27.0841 46.7657 24.0251 46.7657C20.9661 46.7657 17.9998 46.1673 15.2105 44.9876C12.5139 43.8499 10.0869 42.2151 8.00544 40.1336C7.74421 39.8724 7.4914 39.6027 7.24702 39.3331C7.46612 38.9623 7.59252 38.5241 7.59252 38.0606C7.59252 36.6702 6.46331 35.5409 5.07286 35.5409C4.87904 35.5409 4.68522 35.5662 4.49982 35.6084C3.99421 34.7488 3.54758 33.864 3.15151 32.937C1.97173 30.1477 1.37342 27.1814 1.37342 24.1224C1.37342 21.0634 1.97173 18.0971 3.15151 15.3078C4.28915 12.6112 5.92398 10.1842 8.00544 8.10274C10.0869 6.02128 12.5054 4.38644 15.2105 3.2488C17.9998 2.06903 20.9661 1.47071 24.0251 1.47071C27.0841 1.47071 30.0504 2.06903 32.8397 3.2488C35.5363 4.38644 37.9633 6.02128 40.0448 8.10274C40.2892 8.34712 40.5251 8.59993 40.7611 8.85274C40.5251 9.24038 40.3903 9.68701 40.3903 10.1758C40.3903 11.5662 41.5195 12.6954 42.9099 12.6954C43.129 12.6954 43.3397 12.6702 43.542 12.6112C44.0476 13.4707 44.5026 14.3724 44.8987 15.2994C46.0785 18.0887 46.6768 21.055 46.6768 24.114C46.6768 27.173 46.0785 30.1393 44.8987 32.9286C43.7611 35.6252 42.1262 38.0522 40.0448 40.1336C39.5897 40.5887 39.1178 41.0185 38.629 41.4314Z" fill="#50E6FF"/>
<path d="M34.644 29.5985C35.4951 27.9552 35.9755 26.0929 35.9755 24.1125C35.9755 17.5142 30.6243 12.1631 24.026 12.1631C18.262 12.1631 13.4586 16.2417 12.3294 21.6603C11.1328 21.8541 10.2227 22.899 10.2227 24.1462C10.2227 25.4019 11.1412 26.4468 12.3463 26.6406C13.5092 32.0254 18.2957 36.062 24.026 36.062C26.8322 36.062 29.4109 35.0929 31.4502 33.4749C31.8547 33.753 32.3519 33.9215 32.8828 33.9215C34.2732 33.9215 35.4024 32.7923 35.4024 31.4019C35.4024 30.694 35.1159 30.0535 34.644 29.5985ZM16.467 31.6715C15.026 30.2305 14.0485 28.4524 13.6103 26.5226C14.571 26.1687 15.262 25.2417 15.262 24.1547C15.262 23.0592 14.5625 22.1322 13.5934 21.7783C14.0316 19.8148 15.0092 18.0114 16.467 16.5535C18.4895 14.5311 21.1693 13.4271 24.026 13.4271C26.8828 13.4271 29.5625 14.5395 31.585 16.5535C33.6075 18.576 34.7114 21.2558 34.7114 24.1125C34.7114 25.8316 34.3069 27.4833 33.5485 28.9665C33.3378 28.9075 33.1103 28.8738 32.8743 28.8738C31.4839 28.8738 30.3547 30.003 30.3547 31.3934C30.3547 31.7979 30.4474 32.1771 30.6159 32.5142C28.7451 33.9889 26.4446 34.7895 24.0176 34.7895C21.1693 34.7979 18.4895 33.6856 16.467 31.6715Z" fill="#0078D4"/>
</svg>
