<svg data-slug-id="node14" viewBox="0 0 44 49" xmlns="http://www.w3.org/2000/svg">
<path d="M23.1733 2.9873H20.647V18.6841H23.1733V2.9873Z" fill="#50E6FF"/>
<path d="M4.30857 12.7488L3.04541 14.9366L16.2888 22.5829L17.552 20.3951L4.30857 12.7488Z" fill="#50E6FF"/>
<path d="M39.3356 12.8564L26.2891 20.389L27.5522 22.5768L40.5987 15.0442L39.3356 12.8564Z" fill="#50E6FF"/>
<path d="M21.905 12.7314L19.8914 13.8993L13.8505 17.3896L11.8369 18.5575V20.8799V27.8605V30.1828L13.8505 31.3507L19.9048 34.841L21.9185 36.0089L23.9321 34.841L29.9864 31.3507L32 30.1828V27.8605V20.8799V18.5575L29.9864 17.3896L23.9187 13.8993L21.905 12.7314Z" fill="#50E6FF"/>
<path d="M18.1206 44.6144V44.5554C18.1206 42.4754 19.8048 40.7996 21.8764 40.7996H21.9353C24.0153 40.7996 25.6911 42.4839 25.6911 44.5554V44.6144C25.6911 46.6944 24.0069 48.3702 21.9353 48.3702H21.8764C19.8048 48.3702 18.1206 46.686 18.1206 44.6144Z" fill="#0078D4"/>
<path d="M18.1206 4.19328V4.13433C18.1206 2.05433 19.8048 0.370117 21.8848 0.370117H21.9438C24.0153 0.370117 25.6996 2.05433 25.6996 4.13433V4.19328C25.6996 6.26486 24.0153 7.94907 21.9438 7.94907H21.8848C19.8048 7.94907 18.1206 6.26486 18.1206 4.19328Z" fill="#0078D4"/>
<path d="M4.26786 18.0544H4.20891C2.12892 18.0544 0.453125 16.3702 0.453125 14.2986V14.2397C0.453125 12.1597 2.13735 10.4839 4.20891 10.4839H4.26786C6.34787 10.4839 8.0237 12.1681 8.0237 14.2397V14.2986C8.0321 16.3702 6.34787 18.0544 4.26786 18.0544Z" fill="#0078D4"/>
<path d="M41.5396 17.5309L41.4891 17.5646C39.687 18.6004 37.3881 17.9856 36.3523 16.192L36.3186 16.1414C35.2828 14.3393 35.8975 12.0404 37.6912 11.0046L37.7417 10.9709C39.5438 9.93513 41.8428 10.5499 42.8786 12.3435L42.9123 12.3941C43.9481 14.1962 43.3333 16.4951 41.5396 17.5309Z" fill="#0078D4"/>
<path d="M23 25.4404H21V39.4404H23V25.4404Z" fill="#0078D4"/>
</svg>
