<svg data-slug-id="node24" viewBox="0 0 48 49" xmlns="http://www.w3.org/2000/svg">
<path d="M41.1001 6.23022H7.29736V8.65626H41.1001V6.23022Z" fill="#50E6FF"/>
<path d="M41.1001 23.1631H7.29736V25.5891H41.1001V23.1631Z" fill="#50E6FF"/>
<path d="M41.1001 40.042H7.29736V42.468H41.1001V40.042Z" fill="#50E6FF"/>
<path d="M6.99007 30.362C10.2951 30.362 12.9743 27.6827 12.9743 24.3778C12.9743 21.0728 10.2951 18.3936 6.99007 18.3936C3.68508 18.3936 1.00586 21.0728 1.00586 24.3778C1.00586 27.6827 3.68508 30.362 6.99007 30.362Z" fill="#0078D4"/>
<path d="M40.8167 30.362C44.1217 30.362 46.8009 27.6827 46.8009 24.3778C46.8009 21.0728 44.1217 18.3936 40.8167 18.3936C37.5117 18.3936 34.8325 21.0728 34.8325 24.3778C34.8325 27.6827 37.5117 30.362 40.8167 30.362Z" fill="#0078D4"/>
<path d="M6.99007 13.4245C10.2951 13.4245 12.9743 10.7453 12.9743 7.44026C12.9743 4.13528 10.2951 1.45605 6.99007 1.45605C3.68508 1.45605 1.00586 4.13528 1.00586 7.44026C1.00586 10.7453 3.68508 13.4245 6.99007 13.4245Z" fill="#0078D4"/>
<path d="M40.8167 13.4245C44.1217 13.4245 46.8009 10.7453 46.8009 7.44026C46.8009 4.13528 44.1217 1.45605 40.8167 1.45605C37.5117 1.45605 34.8325 4.13528 34.8325 7.44026C34.8325 10.7453 37.5117 13.4245 40.8167 13.4245Z" fill="#0078D4"/>
<path d="M6.99007 47.2379C10.2951 47.2379 12.9743 44.5587 12.9743 41.2537C12.9743 37.9488 10.2951 35.2695 6.99007 35.2695C3.68508 35.2695 1.00586 37.9488 1.00586 41.2537C1.00586 44.5587 3.68508 47.2379 6.99007 47.2379Z" fill="#0078D4"/>
<path d="M40.8167 47.2379C44.1217 47.2379 46.8009 44.5587 46.8009 41.2537C46.8009 37.9488 44.1217 35.2695 40.8167 35.2695C37.5117 35.2695 34.8325 37.9488 34.8325 41.2537C34.8325 44.5587 37.5117 47.2379 40.8167 47.2379Z" fill="#0078D4"/>
</svg>
