<svg data-slug-id="node12" viewBox="0 0 49 49" xmlns="http://www.w3.org/2000/svg">
<path d="M28.3276 25.3115H18.2222V42.9961H28.3276V25.3115Z" fill="#50E6FF"/>
<path d="M15.6967 12.6787H5.59131V30.3633H15.6967V12.6787Z" fill="#50E6FF"/>
<path d="M40.9604 20.2568H30.855V37.9414H40.9604V20.2568Z" fill="#50E6FF"/>
<path d="M28.3276 5.10059H18.2222V22.7851H28.3276V5.10059Z" fill="#50E6FF"/>
<path d="M0.539062 0.0458984V5.09862V10.1514H5.59177V5.09862H10.6445V0.0458984H5.59177H0.539062Z" fill="#0078D4"/>
<path d="M43.4858 0.0458984H38.4331V5.09862H43.4858V10.1514H48.5385V5.09862V0.0458984H43.4858Z" fill="#0078D4"/>
<path d="M5.59128 37.9404H0.538574V42.9932V48.0459H5.59128H10.644V42.9932H5.59128V37.9404Z" fill="#0078D4"/>
<path d="M43.4858 42.9932H38.4331V48.0459H43.4858H48.5385V42.9932V37.9404H43.4858V42.9932Z" fill="#0078D4"/>
</svg>
