<svg data-slug-id="node26" viewBox="0 0 49 49" xmlns="http://www.w3.org/2000/svg">
<path d="M45.4368 24.4316L45.42 24.3981L45.8808 23.9379L35.6106 13.672L45.8305 3.44779L45.3614 2.97925L45.1017 2.46052L31.2881 9.34634L24.486 2.54418L24.0336 2.98762L23.6315 2.58602L16.8127 9.37981L2.94045 2.45215L2.65563 3.01272L2.22003 3.44779L12.4651 13.7054L2.37919 23.7622L2.31218 23.7957L2.32055 23.8208L2.22841 23.9128L2.51322 24.1973L2.59699 24.3563L2.18652 24.7663L12.4734 35.0406L2.26192 45.2648L2.82317 45.8253L3.02422 46.2269L16.7876 39.3495L23.5897 46.1433L24.0336 45.6998L24.4776 46.1433L31.2378 39.3746L44.9844 46.2604L45.152 45.9341L45.797 45.2982L35.5603 35.049L45.8054 24.7997L45.4368 24.4316ZM24.6619 22.8503V14.7178L30.0818 17.4286L24.6619 22.8503ZM31.2713 18.0143L42.6975 23.7288H25.5583L31.2713 18.0143ZM25.4075 13.6803L31.0368 10.8775L33.8347 13.672L31.02 16.4832L25.4075 13.6803ZM23.4054 14.6843V22.8921L17.9352 17.4119L23.4054 14.6843ZM17.0054 16.4748L14.2494 13.7138L17.064 10.9109L22.6012 13.6803L17.0054 16.4748ZM22.4755 23.7288H5.26087L16.7541 17.9976L22.4755 23.7288ZM22.5258 24.9838L16.7876 30.7317L5.31951 24.9838H22.5258ZM23.4054 25.879V34.045L17.9687 31.3174L23.4054 25.879ZM22.6012 35.0406L17.0389 37.8184L14.2577 35.0406L17.0389 32.2545L22.6012 35.0406ZM24.6619 34.0115V25.9209L30.0567 31.3174L24.6619 34.0115ZM30.9949 32.2545L33.7928 35.049L30.9949 37.8435L25.3991 35.0406L30.9949 32.2545ZM25.508 24.9838H42.7394L31.2462 30.7234L25.508 24.9838ZM42.2703 22.114L32.2012 17.0772L34.7226 14.5588L42.2703 22.114ZM42.1698 5.33031L34.7143 12.7851L32.2179 10.2918L42.1698 5.33031ZM24.6619 12.6512V4.502L30.0986 9.94038L24.6619 12.6512ZM23.4054 4.58567V12.6763L17.9939 9.97385L23.4054 4.58567ZM5.85563 5.31357L15.8745 10.3169L13.3614 12.8185L5.85563 5.31357ZM13.353 14.6007L15.8158 17.0605L5.9394 21.9885L13.353 14.6007ZM5.85563 26.6571L15.8493 31.6604L13.3614 34.1537L5.85563 26.6571ZM5.92265 43.3739L13.3698 35.9275L15.8577 38.4124L5.92265 43.3739ZM23.4054 36.0446V44.1938L17.9687 38.7638L23.4054 36.0446ZM24.6703 44.1855V36.0781L30.0651 38.7805L24.6703 44.1855ZM42.1781 43.4492L32.1761 38.4375L34.6724 35.9359L42.1781 43.4492ZM32.1761 31.6604L42.1446 26.6822L34.6724 34.1621L32.1761 31.6604Z" fill="#50E6FF"/>
<path d="M45.3445 5.47388C46.7232 5.47388 47.8408 4.3576 47.8408 2.98059C47.8408 1.60359 46.7232 0.487305 45.3445 0.487305C43.9658 0.487305 42.8481 1.60359 42.8481 2.98059C42.8481 4.3576 43.9658 5.47388 45.3445 5.47388Z" fill="#0078D4"/>
<path d="M24.05 5.47388C25.4287 5.47388 26.5464 4.3576 26.5464 2.98059C26.5464 1.60359 25.4287 0.487305 24.05 0.487305C22.6714 0.487305 21.5537 1.60359 21.5537 2.98059C21.5537 4.3576 22.6714 5.47388 24.05 5.47388Z" fill="#0078D4"/>
<path d="M2.60522 5.47388C3.98391 5.47388 5.10156 4.3576 5.10156 2.98059C5.10156 1.60359 3.98391 0.487305 2.60522 0.487305C1.22653 0.487305 0.108887 1.60359 0.108887 2.98059C0.108887 4.3576 1.22653 5.47388 2.60522 5.47388Z" fill="#0078D4"/>
<path d="M45.3279 26.8919C46.7066 26.8919 47.8242 25.7756 47.8242 24.3986C47.8242 23.0216 46.7066 21.9053 45.3279 21.9053C43.9492 21.9053 42.8315 23.0216 42.8315 24.3986C42.8315 25.7756 43.9492 26.8919 45.3279 26.8919Z" fill="#0078D4"/>
<path d="M24.05 26.8919C25.4287 26.8919 26.5464 25.7756 26.5464 24.3986C26.5464 23.0216 25.4287 21.9053 24.05 21.9053C22.6714 21.9053 21.5537 23.0216 21.5537 24.3986C21.5537 25.7756 22.6714 26.8919 24.05 26.8919Z" fill="#0078D4"/>
<path d="M2.60522 26.8919C3.98391 26.8919 5.10156 25.7756 5.10156 24.3986C5.10156 23.0216 3.98391 21.9053 2.60522 21.9053C1.22653 21.9053 0.108887 23.0216 0.108887 24.3986C0.108887 25.7756 1.22653 26.8919 2.60522 26.8919Z" fill="#0078D4"/>
<path d="M45.3279 48.1458C46.7066 48.1458 47.8242 47.0295 47.8242 45.6525C47.8242 44.2755 46.7066 43.1592 45.3279 43.1592C43.9492 43.1592 42.8315 44.2755 42.8315 45.6525C42.8315 47.0295 43.9492 48.1458 45.3279 48.1458Z" fill="#0078D4"/>
<path d="M24.05 48.1458C25.4287 48.1458 26.5464 47.0295 26.5464 45.6525C26.5464 44.2755 25.4287 43.1592 24.05 43.1592C22.6714 43.1592 21.5537 44.2755 21.5537 45.6525C21.5537 47.0295 22.6714 48.1458 24.05 48.1458Z" fill="#0078D4"/>
<path d="M2.60522 48.1458C3.98391 48.1458 5.10156 47.0295 5.10156 45.6525C5.10156 44.2755 3.98391 43.1592 2.60522 43.1592C1.22653 43.1592 0.108887 44.2755 0.108887 45.6525C0.108887 47.0295 1.22653 48.1458 2.60522 48.1458Z" fill="#0078D4"/>
</svg>
