<svg data-slug-id="node16" viewBox="0 0 49 49" xmlns="http://www.w3.org/2000/svg">
<path d="M28.6029 24.5077C28.6029 26.6313 26.8838 28.3504 24.7602 28.3504C22.6366 28.3504 20.9175 26.6313 20.9175 24.5077C20.9175 22.3841 22.6366 20.665 24.7602 20.665C26.8838 20.665 28.6029 22.3841 28.6029 24.5077Z" fill="#0078D4"/>
<path d="M31.1568 7.61307C30.9461 6.4333 29.9096 5.54004 28.6793 5.54004C27.8534 5.54004 27.1203 5.93611 26.6652 6.54285C26.0501 6.48386 25.4265 6.45015 24.8029 6.45015C14.859 6.45015 6.79443 14.5063 6.79443 24.4586C6.79443 34.4024 14.8506 42.467 24.8029 42.467C34.7467 42.467 42.8113 34.4024 42.8113 24.4586C42.8029 16.7563 37.9658 10.1833 31.1568 7.61307ZM36.6343 36.2985C35.0922 37.8406 33.3057 39.0457 31.3085 39.8884C29.2439 40.7648 27.0529 41.203 24.7944 41.203C22.536 41.203 20.345 40.7563 18.2804 39.8884C16.2832 39.0457 14.4967 37.8406 12.9545 36.2985C11.4208 34.7648 10.2074 32.9698 9.36466 30.9726C8.48825 28.908 8.05005 26.717 8.05005 24.4586C8.05005 22.2002 8.48825 20.0091 9.36466 17.9445C10.2074 15.9473 11.4124 14.1608 12.9545 12.6187C14.4883 11.085 16.2832 9.8715 18.2804 9.0288C20.345 8.1524 22.536 7.7142 24.7944 7.7142C25.2579 7.7142 25.713 7.73105 26.168 7.77319C26.1596 7.86588 26.1512 7.96701 26.1512 8.06813C26.1512 9.45858 27.2804 10.5878 28.6708 10.5878C29.7579 10.5878 30.6933 9.89678 31.0388 8.92768C31.1231 8.96139 31.2158 8.9951 31.3001 9.03723C33.2972 9.87993 35.0838 11.085 36.6259 12.6271C38.168 14.1608 39.3731 15.9558 40.2158 17.953C41.0922 20.0176 41.5304 22.2086 41.5304 24.467C41.5304 26.7254 41.0838 28.9164 40.2158 30.9811C39.3815 32.9698 38.168 34.7563 36.6343 36.2985Z" fill="#3BCAF4"/>
<path d="M48.7099 24.4597C48.7099 20.0355 47.5048 15.8895 45.4149 12.3333C45.8953 11.8698 46.1986 11.2293 46.1986 10.5046C46.1986 9.11417 45.0694 7.98496 43.679 7.98496C43.2324 7.98496 42.8026 8.10293 42.4402 8.31361C38.0666 3.53552 31.7801 0.543945 24.7942 0.543945C11.5891 0.543945 0.878418 11.2462 0.878418 24.4597C0.878418 28.867 2.06662 32.9878 4.14808 36.5355C3.64246 36.999 3.32224 37.6647 3.32224 38.4063C3.32224 39.7968 4.45145 40.926 5.8419 40.926C6.31381 40.926 6.75201 40.7996 7.1228 40.572C11.4964 45.367 17.7913 48.3754 24.7942 48.3754C28.8812 48.3754 32.7324 47.3473 36.1031 45.5355C36.5076 45.8136 36.9964 45.9737 37.5273 45.9737C38.9177 45.9737 40.047 44.8445 40.047 43.4541C40.047 43.2687 40.0301 43.0917 39.988 42.9232C45.3138 38.5411 48.7099 31.9007 48.7099 24.4597ZM39.3981 41.7771C38.9346 41.2631 38.2689 40.9428 37.5189 40.9428C36.1284 40.9428 34.9992 42.072 34.9992 43.4625C34.9992 43.8586 35.0919 44.2293 35.252 44.558C34.7127 44.8361 34.1734 45.0973 33.6088 45.3333C30.8194 46.513 27.8531 47.1114 24.7942 47.1114C21.7352 47.1114 18.7689 46.513 15.9795 45.3333C13.2829 44.1956 10.8559 42.5608 8.77449 40.4793C8.51325 40.2181 8.26044 39.9484 8.01606 39.6788C8.23516 39.308 8.36156 38.8698 8.36156 38.4063C8.36156 37.0159 7.23235 35.8866 5.8419 35.8866C5.64808 35.8866 5.45426 35.9119 5.26887 35.9541C4.76325 35.0945 4.31662 34.2097 3.92055 33.2827C2.74078 30.4934 2.14246 27.5271 2.14246 24.4681C2.14246 21.4091 2.74078 18.4428 3.92055 15.6535C5.05819 12.9569 6.69302 10.5299 8.77449 8.44844C10.8559 6.36698 13.2745 4.73215 15.9795 3.59451C18.7689 2.41473 21.7352 1.81642 24.7942 1.81642C27.8531 1.81642 30.8194 2.41473 33.6088 3.59451C36.3054 4.73215 38.7324 6.36698 40.8138 8.44844C41.0582 8.69282 41.2942 8.94563 41.5301 9.19844C41.2942 9.58608 41.1593 10.0327 41.1593 10.5215C41.1593 11.9119 42.2885 13.0411 43.679 13.0411C43.8981 13.0411 44.1088 13.0159 44.311 12.9569C44.8166 13.8164 45.2717 14.7181 45.6677 15.6451C46.8475 18.4344 47.4458 21.4007 47.4458 24.4597C47.4458 27.5187 46.8475 30.485 45.6677 33.2743C44.5301 35.9709 42.8953 38.3979 40.8138 40.4793C40.3588 40.9344 39.8868 41.3642 39.3981 41.7771Z" fill="#50E6FF"/>
<path d="M35.413 29.9442C36.2642 28.3009 36.7445 26.4386 36.7445 24.4582C36.7445 17.8599 31.3934 12.5088 24.7951 12.5088C19.031 12.5088 14.2277 16.5874 13.0984 22.006C11.9018 22.1998 10.9917 23.2447 10.9917 24.4919C10.9917 25.7476 11.9102 26.7925 13.1153 26.9863C14.2782 32.3712 19.0647 36.4077 24.7951 36.4077C27.6012 36.4077 30.1799 35.4386 32.2192 33.8206C32.6237 34.0987 33.1209 34.2672 33.6518 34.2672C35.0423 34.2672 36.1715 33.138 36.1715 31.7476C36.1715 31.0397 35.885 30.3992 35.413 29.9442ZM17.2361 32.0172C15.7951 30.5762 14.8175 28.7981 14.3793 26.8683C15.34 26.5144 16.031 25.5874 16.031 24.5004C16.031 23.4049 15.3316 22.4779 14.3625 22.124C14.8007 20.1605 15.7782 18.3571 17.2361 16.8992C19.2586 14.8768 21.9383 13.7728 24.7951 13.7728C27.6518 13.7728 30.3316 14.8852 32.3541 16.8992C34.3765 18.9217 35.4805 21.6015 35.4805 24.4582C35.4805 26.1773 35.076 27.829 34.3175 29.3122C34.1069 29.2532 33.8793 29.2195 33.6434 29.2195C32.2529 29.2195 31.1237 30.3487 31.1237 31.7391C31.1237 32.1436 31.2164 32.5228 31.385 32.8599C29.5142 34.3346 27.2136 35.1352 24.7866 35.1352C21.9383 35.1436 19.2586 34.0313 17.2361 32.0172Z" fill="#0078D4"/>
</svg>
