<svg data-slug-id="node15" viewBox="0 0 60 61" xmlns="http://www.w3.org/2000/svg">
<path d="M48.7271 49.1356V41.248L11.2702 41.248V49.1356L48.7271 49.1356Z" fill="#0078D4"/>
<path d="M48.7279 31.4248H11.271V39.3123H48.7279V31.4248Z" fill="#50E6FF"/>
<path d="M48.7279 11.6045H11.271V19.504H48.7279V11.6045Z" fill="#50E6FF"/>
<path d="M48.73 29.4614V21.5142L11.2731 21.5142V29.4614L48.73 29.4614Z" fill="#0078D4"/>
<path d="M37.0455 23.3223H32.8452V27.5226H37.0455V23.3223Z" fill="#50E6FF"/>
<path d="M27.1891 23.3223H22.9888V27.5226H27.1891V23.3223Z" fill="#50E6FF"/>
<path d="M17.297 23.3223H13.0967V27.5226H17.297V23.3223Z" fill="#50E6FF"/>
<path d="M46.9381 23.3223H42.7378V27.5226H46.9381V23.3223Z" fill="#50E6FF"/>
<path d="M37.0483 17.6705V13.4702H32.848V17.6705H37.0483Z" fill="#0078D4"/>
<path d="M27.1885 17.6742V13.4739H22.9882V17.6742H27.1885Z" fill="#0078D4"/>
<path d="M17.3008 17.6693V13.469H13.1005V17.6693H17.3008Z" fill="#0078D4"/>
<path d="M46.9404 17.6705V13.4702H42.7401V17.6705H46.9404Z" fill="#0078D4"/>
<path d="M15.1611 47.2715C16.3342 47.2715 17.2852 46.3205 17.2852 45.1475C17.2852 43.9744 16.3342 43.0234 15.1611 43.0234C13.9881 43.0234 13.0371 43.9744 13.0371 45.1475C13.0371 46.3205 13.9881 47.2715 15.1611 47.2715Z" fill="#50E6FF"/>
<path d="M25.0772 47.2715C26.2502 47.2715 27.2012 46.3205 27.2012 45.1475C27.2012 43.9744 26.2502 43.0234 25.0772 43.0234C23.9041 43.0234 22.9531 43.9744 22.9531 45.1475C22.9531 46.3205 23.9041 47.2715 25.0772 47.2715Z" fill="#50E6FF"/>
<path d="M34.9453 47.2715C36.1184 47.2715 37.0693 46.3205 37.0693 45.1475C37.0693 43.9744 36.1184 43.0234 34.9453 43.0234C33.7722 43.0234 32.8213 43.9744 32.8213 45.1475C32.8213 46.3205 33.7722 47.2715 34.9453 47.2715Z" fill="#50E6FF"/>
<path d="M44.7661 47.2715C45.9392 47.2715 46.8901 46.3205 46.8901 45.1475C46.8901 43.9744 45.9392 43.0234 44.7661 43.0234C43.5931 43.0234 42.6421 43.9744 42.6421 45.1475C42.6421 46.3205 43.5931 47.2715 44.7661 47.2715Z" fill="#50E6FF"/>
<path d="M15.1611 37.3911C16.3342 37.3911 17.2852 36.4402 17.2852 35.2671C17.2852 34.094 16.3342 33.1431 15.1611 33.1431C13.9881 33.1431 13.0371 34.094 13.0371 35.2671C13.0371 36.4402 13.9881 37.3911 15.1611 37.3911Z" fill="#0078D4"/>
<path d="M25.0772 37.3911C26.2502 37.3911 27.2012 36.4402 27.2012 35.2671C27.2012 34.094 26.2502 33.1431 25.0772 33.1431C23.9041 33.1431 22.9531 34.094 22.9531 35.2671C22.9531 36.4402 23.9041 37.3911 25.0772 37.3911Z" fill="#0078D4"/>
<path d="M34.9453 37.3911C36.1184 37.3911 37.0693 36.4402 37.0693 35.2671C37.0693 34.094 36.1184 33.1431 34.9453 33.1431C33.7722 33.1431 32.8213 34.094 32.8213 35.2671C32.8213 36.4402 33.7722 37.3911 34.9453 37.3911Z" fill="#0078D4"/>
<path d="M44.7661 37.3911C45.9392 37.3911 46.8901 36.4402 46.8901 35.2671C46.8901 34.094 45.9392 33.1431 44.7661 33.1431C43.5931 33.1431 42.6421 34.094 42.6421 35.2671C42.6421 36.4402 43.5931 37.3911 44.7661 37.3911Z" fill="#0078D4"/>
</svg>
