<svg data-slug-id="node19" viewBox="0 0 49 49" xmlns="http://www.w3.org/2000/svg">
<path fill-rule="evenodd" clip-rule="evenodd" d="M45.2025 15.5892L31.2457 32.5366L19.1758 20.1776L8.6874 35.4475L4.85596 32.8158L18.5478 12.8819L30.9512 25.5824L41.6144 12.6343L45.2025 15.5892Z" fill="#0078D4"/>
<path d="M6.65784 38.8137C9.34221 38.8137 11.5183 36.6376 11.5183 33.9532C11.5183 31.2689 9.34221 29.0928 6.65784 29.0928C3.97347 29.0928 1.79736 31.2689 1.79736 33.9532C1.79736 36.6376 3.97347 38.8137 6.65784 38.8137Z" fill="#50E6FF"/>
<path d="M6.65766 38.0241C8.90588 38.0241 10.7284 36.2015 10.7284 33.9533C10.7284 31.7051 8.90588 29.8826 6.65766 29.8826C4.40945 29.8826 2.58691 31.7051 2.58691 33.9533C2.58691 36.2015 4.40945 38.0241 6.65766 38.0241Z" fill="white"/>
<path d="M6.65779 37.1686C8.43388 37.1686 9.87368 35.7288 9.87368 33.9527C9.87368 32.1766 8.43388 30.7368 6.65779 30.7368C4.8817 30.7368 3.44189 32.1766 3.44189 33.9527C3.44189 35.7288 4.8817 37.1686 6.65779 37.1686Z" fill="#0078D4"/>
<path d="M30.9113 33.8796C33.5956 33.8796 35.7717 31.7035 35.7717 29.0192C35.7717 26.3348 33.5956 24.1587 30.9113 24.1587C28.2269 24.1587 26.0508 26.3348 26.0508 29.0192C26.0508 31.7035 28.2269 33.8796 30.9113 33.8796Z" fill="#50E6FF"/>
<path d="M30.9111 33.09C33.1593 33.09 34.9818 31.2674 34.9818 29.0192C34.9818 26.771 33.1593 24.9485 30.9111 24.9485C28.6629 24.9485 26.8403 26.771 26.8403 29.0192C26.8403 31.2674 28.6629 33.09 30.9111 33.09Z" fill="white"/>
<path d="M30.9112 32.2355C32.6873 32.2355 34.1271 30.7957 34.1271 29.0196C34.1271 27.2435 32.6873 25.8037 30.9112 25.8037C29.1351 25.8037 27.6953 27.2435 27.6953 29.0196C27.6953 30.7957 29.1351 32.2355 30.9112 32.2355Z" fill="#0078D4"/>
<path d="M18.8942 21.708C21.5785 21.708 23.7546 19.5319 23.7546 16.8475C23.7546 14.1632 21.5785 11.9871 18.8942 11.9871C16.2098 11.9871 14.0337 14.1632 14.0337 16.8475C14.0337 19.5319 16.2098 21.708 18.8942 21.708Z" fill="#50E6FF"/>
<path d="M18.8945 20.9184C21.1427 20.9184 22.9652 19.0958 22.9652 16.8476C22.9652 14.5994 21.1427 12.7769 18.8945 12.7769C16.6463 12.7769 14.8237 14.5994 14.8237 16.8476C14.8237 19.0958 16.6463 20.9184 18.8945 20.9184Z" fill="white"/>
<path d="M18.8946 20.0639C20.6707 20.0639 22.1105 18.6241 22.1105 16.848C22.1105 15.0719 20.6707 13.6321 18.8946 13.6321C17.1185 13.6321 15.6787 15.0719 15.6787 16.848C15.6787 18.6241 17.1185 20.0639 18.8946 20.0639Z" fill="#0078D4"/>
<path d="M43.2946 19.0054C45.9789 19.0054 48.155 16.8293 48.155 14.1449C48.155 11.4605 45.9789 9.28442 43.2946 9.28442C40.6102 9.28442 38.4341 11.4605 38.4341 14.1449C38.4341 16.8293 40.6102 19.0054 43.2946 19.0054Z" fill="#50E6FF"/>
<path d="M43.2944 18.2157C45.5426 18.2157 47.3651 16.3932 47.3651 14.145C47.3651 11.8968 45.5426 10.0742 43.2944 10.0742C41.0462 10.0742 39.2236 11.8968 39.2236 14.145C39.2236 16.3932 41.0462 18.2157 43.2944 18.2157Z" fill="white"/>
<path d="M43.2945 17.3603C45.0706 17.3603 46.5104 15.9204 46.5104 14.1444C46.5104 12.3683 45.0706 10.9285 43.2945 10.9285C41.5184 10.9285 40.0786 12.3683 40.0786 14.1444C40.0786 15.9204 41.5184 17.3603 43.2945 17.3603Z" fill="#0078D4"/>
</svg>
