<svg data-slug-id="node18" viewBox="0 0 49 49" xmlns="http://www.w3.org/2000/svg">
<path d="M32.7837 18.3991V24.4455C32.7837 25.4813 32.3795 26.4581 31.6468 27.1991C30.9142 27.9318 29.9374 28.336 28.9016 28.336H28.8931L20.2363 28.3191H20.2279C18.8047 28.3191 17.4489 28.7823 16.3374 29.6328V8.00757H13.811V39.4181H16.3374V37.2034H16.3458V34.736C16.3458 33.7002 16.75 32.7149 17.4826 31.9823C18.2152 31.2497 19.1921 30.8455 20.2279 30.8455H20.2363L28.8931 30.8623H28.9016C30.611 30.8623 32.2195 30.197 33.4321 28.9844C34.6447 27.7718 35.3184 26.1634 35.3184 24.4455V18.3991H32.7837Z" fill="#0078D4"/>
<path d="M33.988 23.1992C37.4715 23.1992 40.2954 20.3753 40.2954 16.8918C40.2954 13.4084 37.4715 10.5845 33.988 10.5845C30.5046 10.5845 27.6807 13.4084 27.6807 16.8918C27.6807 20.3753 30.5046 23.1992 33.988 23.1992Z" fill="#50E6FF"/>
<path d="M15.0743 13.2371C18.5532 13.2371 21.3733 10.4169 21.3733 6.93811C21.3733 3.45929 18.5532 0.63916 15.0743 0.63916C11.5955 0.63916 8.77539 3.45929 8.77539 6.93811C8.77539 10.4169 11.5955 13.2371 15.0743 13.2371Z" fill="#50E6FF"/>
<path d="M15.0745 48.5718C18.5579 48.5718 21.3818 45.7479 21.3818 42.2644C21.3818 38.7809 18.5579 35.957 15.0745 35.957C11.591 35.957 8.76709 38.7809 8.76709 42.2644C8.76709 45.7479 11.591 48.5718 15.0745 48.5718Z" fill="#50E6FF"/>
</svg>
