<svg data-slug-id="node-js01" viewBox="0 0 48 48" xmlns="http://www.w3.org/2000/svg">
<path d="M44.199 18.7912L40.5446 16.6402C40.044 16.3401 39.3932 16.3401 38.8925 16.6402L35.188 18.7912C35.0879 18.8413 34.9878 18.9413 34.9377 18.9913V13.8889C34.9377 13.2886 34.6374 12.7383 34.0867 12.4382L31.884 11.1876C31.4335 10.9375 30.8828 10.9375 30.4823 11.1876C30.0317 11.4377 29.7814 11.8879 29.7814 12.4382V16.4401C29.431 16.3901 29.0806 16.4901 28.7802 16.6402L25.0256 18.8413C24.8254 18.9413 24.6252 19.1414 24.525 19.3415C24.3748 19.1414 24.1746 18.9413 23.9744 18.7912L20.3199 16.6902C19.8193 16.3901 19.1685 16.3901 18.6679 16.6902L15.0134 18.7912C14.8132 18.8913 14.6129 19.0914 14.5128 19.2915C14.3626 19.0414 14.1624 18.8913 13.9621 18.7412L10.2576 16.6402C10.0073 16.4901 9.75702 16.4401 9.45665 16.4401H9.35653C9.10623 16.4401 8.85592 16.5402 8.60562 16.6402L4.9011 18.7912C4.30037 18.9913 4 19.5416 4 20.1419V25.8446C4 26.3449 4.30037 26.8451 4.70085 27.0452C4.95116 27.1953 5.20147 27.2453 5.45177 27.2453C5.70208 27.2453 5.95238 27.1953 6.15263 27.0452L8.35531 25.7946C8.85592 25.4945 9.35653 24.9942 9.35653 24.3939C9.35653 24.9942 9.85714 25.4945 10.3578 25.7946L12.5104 27.0452C12.9609 27.2953 13.5116 27.2953 13.9621 27.0452C14.4127 26.7951 14.663 26.2949 14.663 25.7946V25.5945C14.7631 25.6445 14.8132 25.7446 14.9133 25.7946L18.5678 27.8956C18.7179 27.9957 18.8681 28.0457 19.0684 28.0957C18.9182 28.3959 18.8181 28.696 18.8181 29.0462V33.0481C18.8181 33.7484 19.1685 34.3988 19.7692 34.7489L20.7705 35.2992C21.0708 35.4493 21.3712 35.5493 21.6215 35.5993C21.7216 35.7994 21.9219 35.9495 22.1221 36.0495L23.2735 36.7499C23.5739 36.9 23.9243 37 24.2247 37C24.5751 37 24.9255 36.9 25.1758 36.7499L28.6801 34.7489C29.2808 34.3988 29.6313 33.7484 29.6313 33.0981V29.8466H29.6813C30.232 29.8466 30.7326 29.3963 30.7326 28.7961C30.7326 28.4959 30.5824 28.1958 30.3321 27.9957L33.9866 25.8947C34.2369 25.7446 34.3871 25.5445 34.5372 25.3444C34.6874 25.5445 34.8376 25.7446 35.0879 25.8446L38.7424 27.9456C38.9927 28.0957 39.293 28.1457 39.5433 28.1457C39.8437 28.1457 40.094 28.0957 40.3443 27.9456L42.547 26.695C42.9976 26.4449 43.2979 25.9947 43.2979 25.4444C43.2979 24.9442 43.0476 24.444 42.5971 24.1938L42.0464 23.8937L44.199 22.6431C44.6996 22.343 45 21.7927 45 21.2424V20.1919C45 19.5916 44.6996 19.0914 44.199 18.7912Z" fill="white"/>
<path d="M24.2762 35.8487C24.126 35.8487 24.0259 35.7987 23.9257 35.7487L22.7743 35.0483C22.6241 34.9483 22.6742 34.8982 22.7243 34.8982C22.9746 34.7982 23.0246 34.7982 23.2749 34.6481C23.325 34.6481 23.325 34.6481 23.3751 34.6481L24.2762 35.1984C24.3262 35.1984 24.3763 35.1984 24.3763 35.1984L27.8806 33.1974C27.9306 33.1974 27.9306 33.1474 27.9306 33.0974V29.0955C27.9306 29.0454 27.9306 28.9954 27.8806 28.9954L24.3763 26.9944C24.3262 26.9944 24.3262 26.9944 24.2762 26.9944L20.7719 28.9954C20.7218 28.9954 20.7218 29.0454 20.7218 29.0955V33.0974C20.7218 33.1474 20.7218 33.1474 20.7719 33.1974L21.723 33.7477C22.2237 33.9978 22.5741 33.6977 22.5741 33.3975V29.4456C22.5741 29.3956 22.6241 29.3456 22.6742 29.3456H23.1248C23.1748 29.3456 23.2249 29.3956 23.2249 29.4456V33.3975C23.2249 34.0979 22.8244 34.498 22.1736 34.498C21.9734 34.498 21.8232 34.498 21.3726 34.298L20.4715 33.7477C20.2212 33.5976 20.1211 33.3975 20.1211 33.0974V29.0955C20.1211 28.8453 20.2713 28.5952 20.4715 28.4451L23.9758 26.4442C24.176 26.3441 24.4764 26.3441 24.7267 26.4442L28.231 28.4451C28.4813 28.5952 28.5814 28.7953 28.5814 29.0955V33.0974C28.5814 33.3475 28.4312 33.5976 28.231 33.7477L24.7267 35.7487C24.5265 35.8487 24.4263 35.8487 24.2762 35.8487Z" fill="#679E63"/>
<path d="M25.3762 33.0982C23.8744 33.0982 23.5239 32.3979 23.5239 31.7976C23.5239 31.7476 23.574 31.6975 23.624 31.6975H24.0746C24.1247 31.6975 24.1747 31.7476 24.1747 31.7976C24.2248 32.2478 24.425 32.4979 25.3762 32.4979C26.1271 32.4979 26.4275 32.3479 26.4275 31.9477C26.4275 31.7476 26.3273 31.5475 25.1759 31.4474C24.2248 31.3474 23.624 31.1473 23.624 30.3969C23.624 29.6966 24.2248 29.2964 25.226 29.2964C26.3273 29.2964 26.878 29.6966 26.9781 30.497C26.9781 30.547 26.9781 30.547 26.9281 30.597L26.878 30.647H26.4275C26.3774 30.647 26.3273 30.597 26.3273 30.547C26.2272 30.0467 25.9769 29.8967 25.226 29.8967C24.425 29.8967 24.3249 30.1968 24.3249 30.3969C24.3249 30.647 24.425 30.7471 25.5264 30.8471C26.5776 30.9972 27.1283 31.1973 27.1283 31.9477C27.0783 32.648 26.4775 33.0982 25.3762 33.0982Z" fill="#679E63"/>
<path d="M30.3836 28.896C30.3836 29.2462 30.0833 29.5463 29.7328 29.5463C29.3824 29.5463 29.082 29.2462 29.082 28.896C29.082 28.4958 29.3824 28.2457 29.7328 28.2457C30.0833 28.1957 30.3836 28.4958 30.3836 28.896ZM29.1321 28.896C29.1321 29.1961 29.3824 29.4463 29.6828 29.4463C29.9831 29.4463 30.2334 29.1961 30.2334 28.896C30.2334 28.5959 29.9831 28.3457 29.6828 28.3457C29.3824 28.2957 29.1321 28.5458 29.1321 28.896ZM29.4825 28.4958H29.7328C29.8329 28.4958 29.9831 28.4958 29.9831 28.6959C29.9831 28.846 29.883 28.846 29.8329 28.896C29.9331 28.896 29.9331 28.946 29.9331 29.0461C29.9331 29.0961 29.9331 29.1961 29.9831 29.2462H29.8329C29.8329 29.1961 29.7829 28.996 29.7829 28.996C29.7829 28.946 29.7829 28.946 29.6828 28.946H29.5326V29.2462H29.3824V28.4958H29.4825ZM29.5826 28.846H29.6828C29.7829 28.846 29.7829 28.796 29.7829 28.7459C29.7829 28.6459 29.7328 28.6459 29.6828 28.6459H29.5826V28.846Z" fill="#679E63"/>
<path fill-rule="evenodd" clip-rule="evenodd" d="M13.4632 20.1411C13.4632 19.991 13.3631 19.8409 13.263 19.7409L9.55844 17.6399C9.50838 17.5898 9.40825 17.5898 9.35819 17.5898H9.30813C9.25807 17.5898 9.15795 17.5898 9.10789 17.6399L5.40337 19.7409C5.25319 19.8409 5.20312 19.991 5.20312 20.1411V25.8438C5.20312 25.9439 5.25319 25.9939 5.30325 26.0439C5.35331 26.0939 5.45343 26.0939 5.50349 26.0439L7.70618 24.7933C7.85636 24.6933 7.90642 24.5432 7.90642 24.3931V21.7418C7.90642 21.5918 8.00654 21.4417 8.10667 21.3416L9.05783 20.7914C9.10789 20.7414 9.20801 20.7414 9.25807 20.7414C9.35819 20.7414 9.40825 20.7414 9.45831 20.7914L10.4095 21.3416C10.5597 21.4417 10.6097 21.5918 10.6097 21.7418V24.3931C10.6097 24.5432 10.7098 24.6933 10.81 24.7933L13.0126 26.0439C13.0627 26.0939 13.1628 26.0939 13.2129 26.0439C13.263 25.9939 13.313 25.9439 13.313 25.8438L13.4632 20.1411Z" fill="#333333"/>
<path fill-rule="evenodd" clip-rule="evenodd" d="M31.2834 12.288C31.2333 12.238 31.1332 12.238 31.0832 12.288C31.0331 12.338 30.983 12.3881 30.983 12.4881V18.1408C30.983 18.1908 30.933 18.2409 30.8829 18.2909C30.8328 18.3409 30.7828 18.3409 30.7327 18.2909L29.8316 17.7406C29.6814 17.6406 29.5313 17.6406 29.3811 17.7406L25.6766 19.8917C25.5264 19.9917 25.4763 20.1418 25.4763 20.2919V24.5439C25.4763 24.694 25.5764 24.844 25.6766 24.9441L29.3811 27.0951C29.5313 27.1952 29.6814 27.1952 29.8316 27.0951L33.5361 24.9441C33.6863 24.844 33.7364 24.694 33.7364 24.5439V13.8888C33.7364 13.7387 33.6363 13.5886 33.4861 13.4886L31.2834 12.288ZM30.933 23.0932C30.933 23.1432 30.933 23.1932 30.8829 23.1932L29.6314 23.9436C29.5813 23.9436 29.5313 23.9436 29.5313 23.9436L28.2797 23.1932C28.2297 23.1932 28.2297 23.1432 28.2297 23.0932V21.6425C28.2297 21.5925 28.2297 21.5425 28.2797 21.5425L29.5313 20.7921C29.5813 20.7921 29.6314 20.7921 29.6314 20.7921L30.8829 21.5425C30.933 21.5425 30.933 21.5925 30.933 21.6425V23.0932Z" fill="#333333"/>
<path fill-rule="evenodd" clip-rule="evenodd" d="M43.5984 21.5926C43.7486 21.4925 43.7986 21.3425 43.7986 21.1924V20.1419C43.7986 19.9918 43.6985 19.8417 43.5984 19.7417L39.9439 17.5907C39.7938 17.4906 39.6436 17.4906 39.4934 17.5907L35.7889 19.7417C35.6387 19.8918 35.5386 20.0418 35.5386 20.1919V24.444C35.5386 24.594 35.6387 24.7441 35.7889 24.8441L39.4433 26.9452C39.5935 27.0452 39.7437 27.0452 39.8939 26.9452L42.0966 25.6946C42.1466 25.6445 42.1967 25.5945 42.1967 25.4945C42.1967 25.3944 42.1466 25.3444 42.0966 25.2944L38.3921 23.1433C38.342 23.0933 38.2919 23.0433 38.2919 22.9432V21.5926C38.2919 21.4925 38.342 21.4425 38.3921 21.3925L39.5435 20.7422C39.5935 20.6922 39.6936 20.6922 39.7437 20.7422L40.8951 21.3925C40.9452 21.4425 40.9952 21.4925 40.9952 21.5926V22.6431C40.9952 22.7431 41.0453 22.7932 41.0953 22.8432C41.1454 22.8932 41.2455 22.8932 41.2956 22.8432L43.5984 21.5926Z" fill="#333333"/>
<path fill-rule="evenodd" clip-rule="evenodd" d="M39.6415 21.3926C39.6916 21.3926 39.6916 21.3926 39.7417 21.3926L40.4425 21.7928C40.4926 21.7928 40.4926 21.8428 40.4926 21.8428V22.6432C40.4926 22.6932 40.4926 22.6932 40.4425 22.6932L39.7417 23.0934C39.6916 23.0934 39.6916 23.0934 39.6415 23.0934L38.9407 22.6932C38.8906 22.6932 38.8906 22.6432 38.8906 22.6432V21.8428C38.8906 21.7928 38.8906 21.7928 38.9407 21.7928L39.6415 21.3926Z" fill="#679E63"/>
<path d="M19.6693 17.6908C19.5191 17.5907 19.3689 17.5907 19.2187 17.6908L15.5643 19.7918C15.4141 19.8918 15.364 20.0419 15.364 20.192V24.444C15.364 24.5941 15.4641 24.7441 15.5643 24.8442L19.2187 26.9452C19.3689 27.0453 19.5191 27.0453 19.6693 26.9452L23.3237 24.8442C23.4739 24.7441 23.524 24.5941 23.524 24.444V20.192C23.524 20.0419 23.4238 19.8918 23.3237 19.7918L19.6693 17.6908Z" fill="#679E63"/>
<path d="M19.2204 17.6911L15.5159 19.8421C15.3657 19.9421 15.2656 20.0922 15.2656 20.2423V24.4943C15.2656 24.5944 15.3157 24.6944 15.3657 24.7945L19.5208 17.7411C19.4207 17.641 19.3206 17.641 19.2204 17.6911Z" fill="#679E63"/>
<path d="M19.5703 26.996C19.6204 26.996 19.6204 26.996 19.6704 26.946L23.375 24.845C23.5251 24.7449 23.6253 24.5948 23.6253 24.4448V20.1927C23.6253 20.0927 23.5752 19.9426 23.4751 19.8926L19.5703 26.996Z" fill="#679E63"/>
<path d="M23.374 19.8415L19.6695 17.7405C19.6194 17.7405 19.5694 17.6904 19.5694 17.6904L15.4143 24.7438C15.4644 24.7938 15.5144 24.8439 15.5144 24.8439L19.2189 26.9449C19.3191 26.9949 19.4693 26.9949 19.5694 26.9949L23.4741 19.8915C23.4241 19.8415 23.374 19.8415 23.374 19.8415Z" fill="#679E63"/>
<path d="M23.574 24.4439V20.1919C23.574 20.0418 23.4739 19.8917 23.3237 19.7917L19.6192 17.6906C19.5691 17.6906 19.5191 17.6406 19.469 17.6406L23.574 24.5439C23.574 24.4939 23.574 24.4939 23.574 24.4439Z" fill="#679E63"/>
<path d="M15.5159 19.8418C15.3657 19.9418 15.2656 20.0919 15.2656 20.242V24.494C15.2656 24.6441 15.3657 24.7942 15.5159 24.8942L19.2204 26.9952C19.3206 27.0453 19.4207 27.0453 19.5208 27.0453L15.5159 19.8418Z" fill="#679E63"/>
<path d="M23.372 24.8441C23.4721 24.7941 23.5723 24.694 23.5723 24.5439L19.5173 17.6406C19.4172 17.6406 19.3171 17.6406 19.217 17.6906L15.5625 19.7917L19.5173 26.9951C19.5674 26.9951 19.6174 26.9451 19.6675 26.9451L23.372 24.8441Z" fill="#679E63"/>
<path d="M23.374 24.8441L19.6695 26.9451C19.6194 26.9951 19.5693 26.9951 19.5193 26.9951L19.5693 27.1452L23.6744 24.7941V24.744L23.5742 24.5439C23.5242 24.644 23.4741 24.744 23.374 24.8441Z" fill="#679E63"/>
<path d="M23.374 24.8441L19.6695 26.9451C19.6194 26.9951 19.5693 26.9951 19.5193 26.9951L19.5693 27.1452L23.6744 24.7941V24.744L23.5742 24.5439C23.5242 24.644 23.4741 24.744 23.374 24.8441Z" fill="#679E63"/>
</svg>
