<svg data-slug-id="node09" viewBox="0 0 49 49" xmlns="http://www.w3.org/2000/svg">
<path d="M0.0771484 10.1511V0.0458984H10.1824L0.0771484 10.1511Z" fill="#0078D4"/>
<path d="M10.1824 12.679V22.7842H0.0771484L10.1824 12.679Z" fill="#50E6FF"/>
<path d="M22.8142 0.0461426V10.1514H12.709L22.8142 0.0461426Z" fill="#50E6FF"/>
<path d="M25.3403 12.679H35.4456V22.7842L25.3403 12.679Z" fill="#0078D4"/>
<path d="M37.9717 0.0461426H48.0769V10.1514L37.9717 0.0461426Z" fill="#0078D4"/>
<path d="M48.0769 22.7842H37.9717V12.679L48.0769 22.7842Z" fill="#50E6FF"/>
<path d="M35.4456 10.1514H25.3403V0.0461426L35.4456 10.1514Z" fill="#50E6FF"/>
<path d="M35.4456 25.3079V35.4131H25.3403L35.4456 25.3079Z" fill="#0078D4"/>
<path d="M48.0769 37.9407V48.0459H37.9717L48.0769 37.9407Z" fill="#0078D4"/>
<path d="M37.9717 35.4131V25.3079H48.0769L37.9717 35.4131Z" fill="#50E6FF"/>
<path d="M25.3403 48.0459V37.9407H35.4456L25.3403 48.0459Z" fill="#50E6FF"/>
<path d="M22.8142 35.4131H12.709V25.3079L22.8142 35.4131Z" fill="#0078D4"/>
<path d="M10.1824 48.0459H0.0771484V37.9407L10.1824 48.0459Z" fill="#0078D4"/>
<path d="M0.0771484 25.3079H10.1824V35.4131L0.0771484 25.3079Z" fill="#50E6FF"/>
<path d="M12.709 37.9407H22.8142V48.0459L12.709 37.9407Z" fill="#50E6FF"/>
<path d="M12.709 22.7842V12.679H22.8142L12.709 22.7842Z" fill="#0078D4"/>
<path d="M24.0858 28.004C26.1787 28.004 27.8753 26.3074 27.8753 24.2145C27.8753 22.1216 26.1787 20.425 24.0858 20.425C21.993 20.425 20.2964 22.1216 20.2964 24.2145C20.2964 26.3074 21.993 28.004 24.0858 28.004Z" fill="#0078D4"/>
</svg>
