<svg data-slug-id="node20" viewBox="0 0 48 49" xmlns="http://www.w3.org/2000/svg">
<path d="M47.9997 2.87793H25.2524V20.6148H47.9997V2.87793Z" fill="#50E6FF"/>
<path d="M22.7473 2.87793H0V20.6148H22.7473V2.87793Z" fill="#0078D4"/>
<path d="M47.9997 28.1279H25.2524V45.8648H47.9997V28.1279Z" fill="#50E6FF"/>
<path d="M22.7473 28.1279H0V45.8648H22.7473V28.1279Z" fill="#0078D4"/>
<path d="M36.676 15.5004C38.6801 15.5004 40.3837 13.7968 40.3837 11.7927C40.3837 9.7885 38.6801 8.08496 36.676 8.08496C34.6718 8.08496 32.9683 9.7885 32.9683 11.7927C32.9683 13.7968 34.5716 15.5004 36.676 15.5004Z" fill="#0078D4"/>
<path d="M36.676 40.8558C38.6801 40.8558 40.3837 39.1523 40.3837 37.1481C40.3837 35.144 38.6801 33.4404 36.676 33.4404C34.6718 33.4404 32.9683 35.144 32.9683 37.1481C32.9683 39.1523 34.5716 40.8558 36.676 40.8558Z" fill="#0078D4"/>
<path d="M37.4781 37.8472H23.7495V36.5445H36.1753V12.4945H23.7495V11.292H37.4781V37.8472Z" fill="#0078D4"/>
<path d="M24.0504 37.8472H10.7227V11.292H24.0504V12.5947H12.0254V36.6447H24.0504V37.8472Z" fill="#50E6FF"/>
<path d="M11.3234 15.5004C13.3276 15.5004 15.0311 13.7968 15.0311 11.7927C15.0311 9.7885 13.3276 8.08496 11.3234 8.08496C9.31927 8.08496 7.61572 9.7885 7.61572 11.7927C7.61572 13.7968 9.31927 15.5004 11.3234 15.5004Z" fill="#50E6FF"/>
<path d="M11.3234 40.8558C13.3276 40.8558 15.0311 39.1523 15.0311 37.1481C15.0311 35.144 13.3276 33.4404 11.3234 33.4404C9.31927 33.4404 7.61572 35.144 7.61572 37.1481C7.61572 39.1523 9.31927 40.8558 11.3234 40.8558Z" fill="#50E6FF"/>
</svg>
