<svg data-slug-id="node05" viewBox="0 0 48 49" xmlns="http://www.w3.org/2000/svg">
<path d="M24.3375 24.4533L23.4352 23.5696L16.3938 30.7322C16.0227 30.5134 15.5842 30.3955 15.1288 30.3955C13.729 30.3955 12.6074 31.5234 12.6074 32.9121C12.6074 34.3093 13.7374 35.4287 15.1288 35.4287C16.5287 35.4287 17.6503 34.3009 17.6503 32.9121C17.6503 32.4408 17.5238 32.0031 17.2961 31.6244L24.3375 24.4533Z" fill="#50E6FF"/>
<path d="M29.0428 31.5735C28.773 31.5735 28.52 31.5988 28.267 31.6493L24.4553 23.7375L23.3169 24.2846L27.0864 32.1122C25.9901 32.7771 25.2565 33.9723 25.2565 35.3442C25.2565 37.4316 26.943 39.1233 29.0428 39.1233C31.1426 39.1233 32.8292 37.44 32.8292 35.3442C32.8292 33.2484 31.1342 31.5735 29.0428 31.5735Z" fill="#50E6FF"/>
<path d="M37.889 25.3375C36.9445 25.3375 36.1265 25.8509 35.6965 26.6168L24.0507 23.4016L23.7134 24.622L35.3676 27.8372C35.3676 27.8456 35.3676 27.8541 35.3676 27.8541C35.3676 29.2512 36.4976 30.3707 37.889 30.3707C39.2889 30.3707 40.4104 29.2428 40.4104 27.8541C40.4104 26.4653 39.2889 25.3375 37.889 25.3375Z" fill="#50E6FF"/>
<path d="M24.1515 23.4454L16.3005 19.7084C16.3511 19.4643 16.3764 19.2034 16.3764 18.9424C16.3764 16.8551 14.6898 15.1633 12.5901 15.1633C10.4903 15.1633 8.80371 16.8467 8.80371 18.9424C8.80371 21.0382 10.4903 22.7215 12.5901 22.7215C13.9731 22.7215 15.179 21.9893 15.8367 20.8867L23.6034 24.5816L24.1515 23.4454Z" fill="#50E6FF"/>
<path d="M45.4785 12.7959C44.0787 12.7959 42.9571 13.9237 42.9571 15.3125C42.9571 15.5313 42.9824 15.7502 43.0414 15.9522L23.6543 23.4178L24.1097 24.5961L43.6655 17.0632C44.1208 17.5345 44.7702 17.8291 45.4785 17.8291C46.8784 17.8291 48 16.7013 48 15.3125C48 13.9237 46.8784 12.7959 45.4785 12.7959Z" fill="#50E6FF"/>
<path d="M25.0624 12.6289C25.0624 11.2317 23.9324 10.1123 22.541 10.1123C21.1411 10.1123 20.0195 11.2401 20.0195 12.6289C20.0195 13.9082 20.9724 14.9603 22.2121 15.1203L23.2577 24.0841L24.5142 23.941L23.4686 14.9688C24.4046 14.6068 25.0624 13.6894 25.0624 12.6289Z" fill="#50E6FF"/>
<path d="M23.8818 29.023C26.6529 29.023 28.8994 26.7808 28.8994 24.015C28.8994 21.2492 26.6529 19.0071 23.8818 19.0071C21.1107 19.0071 18.8643 21.2492 18.8643 24.015C18.8643 26.7808 21.1107 29.023 23.8818 29.023Z" fill="#0078D4"/>
<path d="M19.0168 7.6815C18.3084 7.6815 17.7434 7.10916 17.7434 6.41057C17.7434 5.71199 18.3168 5.13965 19.0168 5.13965C19.7251 5.13965 20.2901 5.71199 20.2901 6.41057C20.2901 7.10916 19.7251 7.6815 19.0168 7.6815Z" fill="#0078D4"/>
<path d="M8.82072 40.4125C8.11236 40.4125 7.54736 39.8401 7.54736 39.1415C7.54736 38.4429 8.1208 37.8706 8.82072 37.8706C9.52065 37.8706 10.0941 38.4429 10.0941 39.1415C10.0941 39.8401 9.52908 40.4125 8.82072 40.4125Z" fill="#50E6FF"/>
<path d="M44.3232 30.4825C43.6148 30.4825 43.0498 29.9102 43.0498 29.2116C43.0498 28.513 43.6232 27.9407 44.3232 27.9407C45.0315 27.9407 45.5965 28.513 45.5965 29.2116C45.5965 29.9102 45.0315 30.4825 44.3232 30.4825Z" fill="#50E6FF"/>
<path d="M21.226 43.2399L24.6582 23.1829L9.83326 26.5748C9.41162 25.7836 8.57676 25.2534 7.61542 25.2534C6.21556 25.2534 5.09399 26.3812 5.09399 27.77C5.09399 29.1672 6.224 30.2866 7.61542 30.2866C8.99841 30.2866 10.12 29.1756 10.1368 27.7952L23.0981 24.8325L19.9864 43.0211C18.6878 43.1221 17.659 44.2078 17.659 45.5293C17.659 46.9264 18.789 48.0459 20.1804 48.0459C21.5802 48.0459 22.7018 46.918 22.7018 45.5293C22.7018 44.5108 22.1031 43.6355 21.226 43.2399Z" fill="#0078D4"/>
<path d="M35.3591 10.1045C33.9593 10.1045 32.8377 11.2323 32.8377 12.6211C32.8377 13.0924 32.9642 13.5301 33.1919 13.9089L23.4351 23.5628L24.3289 24.4634L34.0942 14.801C34.4652 15.0199 34.9037 15.1461 35.3675 15.1461C36.7674 15.1461 37.889 14.0183 37.889 12.6295C37.8805 11.2323 36.759 10.1045 35.3591 10.1045Z" fill="#0078D4"/>
<path d="M31.581 42.9476C30.8726 42.9476 30.3076 42.3753 30.3076 41.6767C30.3076 40.9781 30.8811 40.4058 31.581 40.4058C32.2809 40.4058 32.8543 40.9781 32.8543 41.6767C32.8543 42.3753 32.2893 42.9476 31.581 42.9476Z" fill="#0078D4"/>
<path d="M41.6161 7.59556C40.9078 7.59556 40.3428 7.02322 40.3428 6.32464C40.3428 5.62605 40.9162 5.05371 41.6161 5.05371C42.3161 5.05371 42.8895 5.62605 42.8895 6.32464C42.8895 7.02322 42.3245 7.59556 41.6161 7.59556Z" fill="#50E6FF"/>
</svg>
