<svg data-slug-id="node17" viewBox="0 0 49 49" xmlns="http://www.w3.org/2000/svg">
<path d="M28.6463 25.0497C28.6463 27.1733 26.9272 28.8924 24.8036 28.8924C22.68 28.8924 20.9609 27.1733 20.9609 25.0497C20.9609 22.9261 22.68 21.207 24.8036 21.207C26.9272 21.207 28.6463 22.9261 28.6463 25.0497Z" fill="#50E6FF"/>
<path d="M31.2003 8.15507C30.9896 6.97529 29.9531 6.08203 28.7227 6.08203C27.8969 6.08203 27.1637 6.4781 26.7087 7.08484C26.0935 7.02585 25.4699 6.99214 24.8463 6.99214C14.9025 6.99214 6.83789 15.0483 6.83789 25.0006C6.83789 34.9444 14.8941 43.009 24.8463 43.009C34.7901 43.009 42.8547 34.9444 42.8547 25.0006C42.8463 17.2983 38.0092 10.7253 31.2003 8.15507ZM36.6778 36.8405C35.1356 38.3826 33.3491 39.5877 31.3519 40.4304C29.2873 41.3068 27.0963 41.745 24.8379 41.745C22.5795 41.745 20.3885 41.2983 18.3238 40.4304C16.3267 39.5877 14.5401 38.3826 12.998 36.8405C11.4643 35.3068 10.2508 33.5118 9.40812 31.5146C8.53171 29.45 8.09351 27.259 8.09351 25.0006C8.09351 22.7421 8.53171 20.5511 9.40812 18.4865C10.2508 16.4893 11.4559 14.7028 12.998 13.1607C14.5317 11.627 16.3267 10.4135 18.3238 9.5708C20.3885 8.69439 22.5795 8.25619 24.8379 8.25619C25.3014 8.25619 25.7564 8.27304 26.2115 8.31518C26.2031 8.40787 26.1946 8.509 26.1946 8.61012C26.1946 10.0006 27.3238 11.1298 28.7143 11.1298C29.8014 11.1298 30.7368 10.4388 31.0823 9.46967C31.1665 9.50338 31.2592 9.53709 31.3435 9.57922C33.3407 10.4219 35.1272 11.627 36.6694 13.1691C38.2115 14.7028 39.4165 16.4978 40.2592 18.495C41.1356 20.5596 41.5738 22.7506 41.5738 25.009C41.5738 27.2674 41.1272 29.4584 40.2592 31.523C39.425 33.5118 38.2115 35.2983 36.6778 36.8405Z" fill="#3BCAF4"/>
<path d="M48.7533 25.0017C48.7533 20.5775 47.5483 16.4314 45.4584 12.8753C45.9387 12.4118 46.2421 11.7713 46.2421 11.0466C46.2421 9.65616 45.1129 8.52695 43.7224 8.52695C43.2758 8.52695 42.846 8.64493 42.4837 8.8556C38.1101 4.07751 31.8236 1.08594 24.8376 1.08594C11.6326 1.08594 0.921875 11.7882 0.921875 25.0017C0.921875 29.409 2.11008 33.5298 4.19154 37.0775C3.68592 37.541 3.3657 38.2067 3.3657 38.9483C3.3657 40.3387 4.49491 41.468 5.88536 41.468C6.35727 41.468 6.79547 41.3416 7.16626 41.114C11.5399 45.909 17.8348 48.9174 24.8376 48.9174C28.9247 48.9174 32.7758 47.8893 36.1466 46.0775C36.5511 46.3556 37.0399 46.5157 37.5708 46.5157C38.9612 46.5157 40.0904 45.3865 40.0904 43.9961C40.0904 43.8107 40.0736 43.6337 40.0314 43.4652C45.3573 39.0831 48.7533 32.4427 48.7533 25.0017ZM39.4415 42.3191C38.9781 41.805 38.3123 41.4848 37.5623 41.4848C36.1719 41.4848 35.0427 42.614 35.0427 44.0045C35.0427 44.4005 35.1354 44.7713 35.2955 45.1C34.7561 45.3781 34.2168 45.6393 33.6522 45.8753C30.8629 47.055 27.8966 47.6534 24.8376 47.6534C21.7786 47.6534 18.8123 47.055 16.023 45.8753C13.3264 44.7376 10.8994 43.1028 8.81794 41.0213C8.55671 40.7601 8.3039 40.4904 8.05952 40.2208C8.27862 39.85 8.40502 39.4118 8.40502 38.9483C8.40502 37.5578 7.27581 36.4286 5.88536 36.4286C5.69154 36.4286 5.49772 36.4539 5.31232 36.4961C4.80671 35.6365 4.36008 34.7517 3.96401 33.8247C2.78423 31.0354 2.18592 28.0691 2.18592 25.0101C2.18592 21.9511 2.78423 18.9848 3.96401 16.1955C5.10165 13.4989 6.73648 11.0719 8.81794 8.99043C10.8994 6.90897 13.3179 5.27414 16.023 4.1365C18.8123 2.95672 21.7786 2.35841 24.8376 2.35841C27.8966 2.35841 30.8629 2.95672 33.6522 4.1365C36.3488 5.27414 38.7758 6.90897 40.8573 8.99043C41.1017 9.23481 41.3376 9.48762 41.5736 9.74043C41.3376 10.1281 41.2028 10.5747 41.2028 11.0635C41.2028 12.4539 42.332 13.5831 43.7224 13.5831C43.9415 13.5831 44.1522 13.5578 44.3545 13.4989C44.8601 14.3584 45.3151 15.2601 45.7112 16.1871C46.891 18.9764 47.4893 21.9427 47.4893 25.0017C47.4893 28.0607 46.891 31.027 45.7112 33.8163C44.5736 36.5129 42.9387 38.9399 40.8573 41.0213C40.4022 41.4764 39.9303 41.9062 39.4415 42.3191Z" fill="#0078D4"/>
<path d="M35.4565 30.4862C36.3076 28.8429 36.788 26.9806 36.788 25.0002C36.788 18.4019 31.4368 13.0508 24.8385 13.0508C19.0745 13.0508 14.2711 17.1294 13.1419 22.548C11.9453 22.7418 11.0352 23.7867 11.0352 25.0339C11.0352 26.2895 11.9537 27.3345 13.1588 27.5283C14.3217 32.9131 19.1082 36.9497 24.8385 36.9497C27.6447 36.9497 30.2234 35.9806 32.2627 34.3626C32.6672 34.6407 33.1644 34.8092 33.6953 34.8092C35.0857 34.8092 36.2149 33.68 36.2149 32.2895C36.2149 31.5817 35.9284 30.9412 35.4565 30.4862ZM17.2795 32.5592C15.8385 31.1182 14.861 29.3401 14.4228 27.4103C15.3835 27.0564 16.0745 26.1294 16.0745 25.0424C16.0745 23.9468 15.375 23.0199 14.4059 22.6659C14.8441 20.7025 15.8217 18.8991 17.2795 17.4412C19.302 15.4188 21.9818 14.3148 24.8385 14.3148C27.6953 14.3148 30.375 15.4272 32.3975 17.4412C34.42 19.4637 35.5239 22.1435 35.5239 25.0002C35.5239 26.7193 35.1194 28.371 34.361 29.8542C34.1503 29.7952 33.9228 29.7615 33.6868 29.7615C32.2964 29.7615 31.1672 30.8907 31.1672 32.2811C31.1672 32.6856 31.2599 33.0648 31.4284 33.4019C29.5576 34.8766 27.2571 35.6772 24.8301 35.6772C21.9818 35.6856 19.302 34.5733 17.2795 32.5592Z" fill="#50E6FF"/>
</svg>
