<svg data-slug-id="node27" viewBox="0 0 48 49" xmlns="http://www.w3.org/2000/svg">
<path d="M6.99658 36.189C6.99658 38.4939 8.87314 40.3704 11.178 40.3704C13.4829 40.3704 15.3595 38.4939 15.3595 36.189C15.3595 35.1895 14.9923 34.3124 14.4212 33.5781L21.9275 19.2999C20.9892 18.9532 20.2141 18.4432 19.5002 17.7497C18.1335 16.4443 17.2769 14.5881 17.2769 12.5484C17.2769 8.57092 20.52 5.32774 24.4975 5.32774C28.475 5.32774 31.7182 8.57092 31.7182 12.5484C31.7182 13.1603 31.6162 13.7518 31.4734 14.323L34.2067 15.404C34.4718 14.4862 34.6758 13.5479 34.6758 12.5484C34.6758 6.93913 30.1068 2.37012 24.4975 2.37012C18.8882 2.37012 14.3192 6.93913 14.3192 12.5484C14.3192 15.6896 15.7878 18.4636 18.0112 20.3402L11.8512 32.0891C11.6268 32.0483 11.4024 32.0279 11.1576 32.0279C8.87314 32.0279 6.99658 33.8841 6.99658 36.189Z" fill="#0078D7"/>
<path d="M37.5113 40.3671C39.8162 40.3671 41.6927 38.4905 41.6927 36.1856C41.6927 33.8807 39.8162 32.0042 37.5113 32.0042C35.7367 32.0042 34.2069 33.126 33.6154 34.6966H18.2358C18.3378 35.1657 18.399 35.6553 18.399 36.1652C18.399 36.6752 18.3378 37.1647 18.2358 37.6338C17.5423 40.9178 14.6458 43.3859 11.1579 43.3859C7.1804 43.3859 3.93722 40.1427 3.93722 36.1652C3.93722 33.0852 5.89537 30.454 8.62861 29.4137L7.77192 26.6396C3.83523 28.0471 1 31.7798 1 36.1856C1 41.7949 5.56901 46.3639 11.1783 46.3639C16.2776 46.3639 20.4795 42.57 21.2138 37.6542H33.6154C34.2069 39.2452 35.7163 40.3671 37.5113 40.3671Z" fill="#0078D7"/>
<path d="M37.5115 26.0131C36.5324 26.0131 35.6145 26.1967 34.7171 26.4619C34.6967 26.4619 34.6967 26.4619 34.6763 26.4619V26.4822V26.4619L27.8227 15.0801C28.3531 14.3866 28.6998 13.5095 28.6998 12.5508C28.6998 10.2459 26.8233 8.36938 24.5184 8.36938C22.2135 8.36938 20.3369 10.2459 20.3369 12.5508C20.3369 14.8557 22.2135 16.7323 24.5184 16.7323C24.7835 16.7323 25.0487 16.7119 25.3139 16.6507L33.4524 30.2762C34.2887 29.7254 35.329 29.2563 36.3488 29.0727C36.7364 29.0115 37.1239 28.9707 37.5115 28.9707C41.489 28.9707 44.7322 32.2139 44.7322 36.1914C44.7322 40.1689 41.489 43.4121 37.5115 43.4121C35.6961 43.4121 34.0439 42.7389 32.7793 41.6171L30.6988 43.6976C32.4937 45.3498 34.8802 46.3697 37.5115 46.3697C43.1208 46.3697 47.6898 41.8007 47.6898 36.1914C47.6898 30.5821 43.1208 26.0131 37.5115 26.0131Z" fill="#0078D7"/>
</svg>
