<svg data-slug-id="node23" viewBox="0 0 48 49" xmlns="http://www.w3.org/2000/svg">
<path d="M44.8843 42.2475H6.33057L24.883 12.1641L44.8843 42.2475ZM10.943 39.6755H40.0833L24.9687 16.9308L10.943 39.6755Z" fill="#50E6FF"/>
<path d="M6.34529 6.15912L5.38672 8.5459L24.6799 16.2943L25.6385 13.9076L6.34529 6.15912Z" fill="#50E6FF"/>
<path d="M6.02185 12.6528C8.82015 12.6528 11.0886 10.3844 11.0886 7.58606C11.0886 4.78776 8.82015 2.51929 6.02185 2.51929C3.22355 2.51929 0.955078 4.78776 0.955078 7.58606C0.955078 10.3844 3.22355 12.6528 6.02185 12.6528Z" fill="#0078D4"/>
<path d="M25.286 20.249C28.0843 20.249 30.3528 17.9805 30.3528 15.1822C30.3528 12.3839 28.0843 10.1155 25.286 10.1155C22.4877 10.1155 20.2192 12.3839 20.2192 15.1822C20.2192 17.9805 22.4877 20.249 25.286 20.249Z" fill="#0078D4"/>
<path d="M8.56823 46.2685C11.3665 46.2685 13.635 44.0001 13.635 41.2018C13.635 38.4035 11.3665 36.135 8.56823 36.135C5.76993 36.135 3.50146 38.4035 3.50146 41.2018C3.50146 44.0001 5.76993 46.2685 8.56823 46.2685Z" fill="#0078D4"/>
<path d="M41.9779 46.2685C44.7762 46.2685 47.0447 44.0001 47.0447 41.2018C47.0447 38.4035 44.7762 36.135 41.9779 36.135C39.1796 36.135 36.9111 38.4035 36.9111 41.2018C36.9111 44.0001 39.1796 46.2685 41.9779 46.2685Z" fill="#0078D4"/>
</svg>
