<svg data-slug-id="node07" viewBox="0 0 49 49" xmlns="http://www.w3.org/2000/svg">
<path d="M6.08269 23.5059L5.19092 24.3977L24.2391 43.4459L25.1309 42.5542L6.08269 23.5059Z" fill="#0078D4"/>
<path d="M24.2428 4.46276L5.19458 23.511L6.08635 24.4028L25.1346 5.35453L24.2428 4.46276Z" fill="#0078D4"/>
<path d="M25.1349 43.4471L24.2437 42.5558L42.8417 23.9494L24.2437 5.35143L25.1349 4.46021L44.6241 23.9494L25.1349 43.4471Z" fill="#50E6FF"/>
<path d="M25.3452 5.40918H24.084V43.1097H25.3452V5.40918Z" fill="#50E6FF"/>
<path d="M43.598 29.095C46.3795 29.095 48.6343 26.8402 48.6343 24.0587C48.6343 21.2773 46.3795 19.0225 43.598 19.0225C40.8166 19.0225 38.5618 21.2773 38.5618 24.0587C38.5618 26.8402 40.8166 29.095 43.598 29.095Z" fill="#0078D4"/>
<path d="M5.84778 29.095C8.62923 29.095 10.884 26.8402 10.884 24.0587C10.884 21.2773 8.62923 19.0225 5.84778 19.0225C3.06633 19.0225 0.811523 21.2773 0.811523 24.0587C0.811523 26.8402 3.06633 29.095 5.84778 29.095Z" fill="#50E6FF"/>
<path d="M24.7225 47.97C27.504 47.97 29.7588 45.7152 29.7588 42.9337C29.7588 40.1523 27.504 37.8975 24.7225 37.8975C21.9411 37.8975 19.6863 40.1523 19.6863 42.9337C19.6863 45.7152 21.9411 47.97 24.7225 47.97Z" fill="#50E6FF"/>
<path d="M24.7225 10.22C27.504 10.22 29.7588 7.96517 29.7588 5.18372C29.7588 2.40227 27.504 0.147461 24.7225 0.147461C21.9411 0.147461 19.6863 2.40227 19.6863 5.18372C19.6863 7.96517 21.9411 10.22 24.7225 10.22Z" fill="#0078D4"/>
</svg>
