<svg data-slug-id="node11" viewBox="0 0 49 49" xmlns="http://www.w3.org/2000/svg">
<path d="M45.5887 41.036L17.2098 27.6806L2.2793 33.8278V19.2599L17.2435 26.2996L29.9761 21.0535L2.6414 8.19503L3.18035 7.0498L31.5593 20.4051L46.4898 14.258V28.8259L31.5256 21.7861L18.793 27.0322L46.1277 39.8992L45.5887 41.036ZM3.54245 21.2472V31.9415L15.6603 26.948L3.54245 21.2472ZM33.1087 21.1293L45.2266 26.8302V16.1358L33.1087 21.1293Z" fill="#50E6FF"/>
<path d="M2.91108 35.4135C4.30632 35.4135 5.43739 34.2825 5.43739 32.8873C5.43739 31.4921 4.30632 30.3611 2.91108 30.3611C1.51583 30.3611 0.384766 31.4921 0.384766 32.8873C0.384766 34.2825 1.51583 35.4135 2.91108 35.4135Z" fill="#0078D4"/>
<path d="M45.8583 17.727C47.2536 17.727 48.3847 16.596 48.3847 15.2008C48.3847 13.8056 47.2536 12.6746 45.8583 12.6746C44.4631 12.6746 43.332 13.8056 43.332 15.2008C43.332 16.596 44.4631 17.727 45.8583 17.727Z" fill="#0078D4"/>
<path d="M45.8583 30.3591C47.2536 30.3591 48.3847 29.2281 48.3847 27.8329C48.3847 26.4377 47.2536 25.3066 45.8583 25.3066C44.4631 25.3066 43.332 26.4377 43.332 27.8329C43.332 29.2281 44.4631 30.3591 45.8583 30.3591Z" fill="#0078D4"/>
<path d="M45.8583 42.9914C47.2536 42.9914 48.3847 41.8604 48.3847 40.4652C48.3847 39.07 47.2536 37.939 45.8583 37.939C44.4631 37.939 43.332 39.07 43.332 40.4652C43.332 41.8604 44.4631 42.9914 45.8583 42.9914Z" fill="#0078D4"/>
<path d="M2.91108 22.7815C4.30632 22.7815 5.43739 21.6504 5.43739 20.2552C5.43739 18.86 4.30632 17.729 2.91108 17.729C1.51583 17.729 0.384766 18.86 0.384766 20.2552C0.384766 21.6504 1.51583 22.7815 2.91108 22.7815Z" fill="#0078D4"/>
<path d="M2.91108 10.1491C4.30632 10.1491 5.43739 9.0181 5.43739 7.6229C5.43739 6.22771 4.30632 5.09668 2.91108 5.09668C1.51583 5.09668 0.384766 6.22771 0.384766 7.6229C0.384766 9.0181 1.51583 10.1491 2.91108 10.1491Z" fill="#0078D4"/>
<path d="M45.4127 2.12903L2.46875 45.0715L3.36193 45.9647L46.3059 3.02218L45.4127 2.12903Z" fill="#50E6FF"/>
<path d="M2.91108 48.0459C4.30632 48.0459 5.43739 46.9148 5.43739 45.5196C5.43739 44.1244 4.30632 42.9934 2.91108 42.9934C1.51583 42.9934 0.384766 44.1244 0.384766 45.5196C0.384766 46.9148 1.51583 48.0459 2.91108 48.0459Z" fill="#0078D4"/>
<path d="M45.8583 5.09859C47.2536 5.09859 48.3847 3.96756 48.3847 2.57237C48.3847 1.17717 47.2536 0.0461426 45.8583 0.0461426C44.4631 0.0461426 43.332 1.17717 43.332 2.57237C43.332 3.96756 44.4631 5.09859 45.8583 5.09859Z" fill="#0078D4"/>
<path d="M24.385 38.588C32.0588 38.588 38.2797 32.3674 38.2797 24.6938C38.2797 17.0202 32.0588 10.7996 24.385 10.7996C16.7111 10.7996 10.4902 17.0202 10.4902 24.6938C10.4902 32.3674 16.7111 38.588 24.385 38.588Z" fill="#0078D4"/>
<path d="M24.3842 29.7477C27.1747 29.7477 29.4368 27.4857 29.4368 24.6953C29.4368 21.9049 27.1747 19.6428 24.3842 19.6428C21.5937 19.6428 19.3315 21.9049 19.3315 24.6953C19.3315 27.4857 21.5937 29.7477 24.3842 29.7477Z" fill="#50E6FF"/>
</svg>
