<svg data-slug-id="node13" viewBox="0 0 49 49" xmlns="http://www.w3.org/2000/svg">
<path d="M24.2269 46.5482C12.1234 46.5482 2.19238 36.5133 2.19238 24.2834C2.19238 12.0534 12.1234 2.01855 24.2269 2.01855C28.2613 2.01855 32.1407 3.11612 35.5545 5.15444C36.3303 5.62483 36.4855 6.56559 36.02 7.34957C35.7096 7.97674 34.7786 8.29033 34.0027 7.81995C31.0545 6.09521 27.6407 5.15444 24.2269 5.15444C13.8303 5.15444 5.29583 13.7781 5.29583 24.2834C5.29583 34.7886 13.8303 43.4123 24.2269 43.4123C31.52 43.4123 38.0372 39.3356 41.2958 32.7503C41.6062 31.9663 42.5372 31.6527 43.3131 31.9663C44.0889 32.2799 44.3993 33.2206 44.0889 34.0046C40.3648 41.8443 32.7613 46.5482 24.2269 46.5482Z" fill="#50E6FF"/>
<path d="M24.2271 40.1168C15.5374 40.1168 8.55469 33.0611 8.55469 24.2806C8.55469 15.5001 15.6926 8.44434 24.2271 8.44434C26.7099 8.44434 29.1926 9.07151 31.5202 10.1691C32.2961 10.6395 32.6064 11.5802 32.1409 12.2074C31.6754 12.9914 30.7443 13.305 30.1236 12.8346C28.2616 11.8938 26.3995 11.4234 24.3823 11.4234C17.3995 11.4234 11.8133 17.068 11.8133 24.1238C11.8133 31.1795 17.3995 36.8241 24.3823 36.8241C29.0374 36.8241 33.2271 34.3154 35.3995 30.082C35.865 29.298 36.7961 28.9844 37.5719 29.4548C38.3478 29.9252 38.6581 30.8659 38.1926 31.6499C35.3995 36.8241 30.1237 40.1168 24.2271 40.1168Z" fill="#50E6FF"/>
<path d="M24.2271 40.1168C15.5374 40.1168 8.55469 33.0611 8.55469 24.2806C8.55469 15.5001 15.6926 8.44434 24.2271 8.44434C26.7099 8.44434 29.1926 9.07151 31.5202 10.1691C32.2961 10.6395 32.6064 11.5802 32.1409 12.2074C31.6754 12.9914 30.7443 13.305 30.1236 12.8346C28.2616 11.8938 26.3995 11.4234 24.3823 11.4234C17.3995 11.4234 11.8133 17.068 11.8133 24.1238C11.8133 31.1795 17.3995 36.8241 24.3823 36.8241C29.0374 36.8241 33.2271 34.3154 35.3995 30.082C35.865 29.298 36.7961 28.9844 37.5719 29.4548C38.3478 29.9252 38.6581 30.8659 38.1926 31.6499C35.3995 36.8241 30.1237 40.1168 24.2271 40.1168Z" fill="#50E6FF"/>
<path d="M24.2268 32.2772C19.882 32.2772 16.313 28.6709 16.313 24.2807C16.313 19.8905 19.882 16.2842 24.2268 16.2842C24.8475 16.2842 25.4682 16.441 26.0888 16.5978C26.8647 16.7546 27.4854 17.6953 27.1751 18.4793C26.8647 19.2633 26.0888 19.8905 25.313 19.5769C24.8475 19.4201 24.5371 19.4201 24.2268 19.4201C21.5888 19.4201 19.4164 21.6152 19.4164 24.2807C19.4164 26.9462 21.5888 29.1413 24.2268 29.1413C25.7785 29.1413 27.1751 28.3574 28.1061 27.103C28.5716 26.319 29.5026 26.1622 30.2785 26.7894C31.0544 27.2598 31.2095 28.2006 30.5888 28.9845C29.1923 31.0229 26.8647 32.2772 24.2268 32.2772Z" fill="#50E6FF"/>
<path d="M23.9165 26.633C23.451 26.633 23.1406 26.4762 22.8303 26.1626C22.2096 25.5354 22.2096 24.5947 22.8303 23.9675L44.5544 2.01628C45.1751 1.3891 46.1061 1.3891 46.7268 2.01628C47.3475 2.64346 47.3475 3.58423 46.7268 4.2114L25.0027 26.1626C24.6923 26.4762 24.2268 26.633 23.9165 26.633Z" fill="#0078D4"/>
</svg>
