<svg data-slug-id="node02" viewBox="0 0 48 49" xmlns="http://www.w3.org/2000/svg">
<path d="M43.5024 43.5755H3.47876L41.4642 5.67966H4.49788V4.41675H44.5215L6.53612 42.3126H43.5024V43.5755Z" fill="#50E6FF"/>
<path d="M48.0001 43.028C48.0001 45.798 45.7512 48.046 42.9802 48.046C40.2093 48.046 37.9604 45.798 37.9604 43.028C37.9604 40.258 40.2093 38.01 42.9802 38.01C45.7512 38.01 48.0001 40.258 48.0001 43.028Z" fill="#50E6FF"/>
<path d="M10.1996 43.028C10.1996 45.798 7.95083 48.046 5.17984 48.046C2.40884 48.046 0.168457 45.798 0.168457 43.028C0.168457 40.258 2.41726 38.01 5.18826 38.01C7.95926 38.01 10.1996 40.258 10.1996 43.028Z" fill="#0078D4"/>
<path d="M10.1996 5.06327C10.1996 7.83326 7.95083 10.0812 5.17984 10.0812C2.40884 10.0812 0.168457 7.83326 0.168457 5.06327C0.168457 2.29328 2.40884 0.0537109 5.17984 0.0537109C7.95083 0.0537109 10.1996 2.29328 10.1996 5.06327Z" fill="#0078D4"/>
<path d="M47.9827 5.06387C47.9827 7.83387 45.7339 10.0819 42.9629 10.0819C40.1919 10.0819 37.9431 7.83387 37.9431 5.06387C37.9431 2.29388 40.1919 0.0458984 42.9629 0.0458984C45.7339 0.0458984 47.9827 2.29388 47.9827 5.06387Z" fill="#0078D4"/>
<path d="M29.1168 23.9814C29.1168 26.7513 26.8679 28.9993 24.097 28.9993C21.326 28.9993 19.0771 26.7513 19.0771 23.9814C19.0771 21.2114 21.326 18.9634 24.097 18.9634C26.8679 18.9634 29.1168 21.2114 29.1168 23.9814Z" fill="#0078D4"/>
</svg>
