<svg data-slug-id="node06" viewBox="0 0 48 49" xmlns="http://www.w3.org/2000/svg">
<path fill-rule="evenodd" clip-rule="evenodd" d="M36 15.0615C36 16.7183 34.6567 18.0615 33 18.0615C31.3432 18.0615 30 16.7183 30 15.0615C30 13.4044 31.3432 12.0615 33 12.0615C34.6567 12.0615 36 13.4044 36 15.0615Z" fill="#0078D4"/>
<path fill-rule="evenodd" clip-rule="evenodd" d="M36 33.0537C36 34.7105 34.6567 36.0537 33 36.0537C31.3432 36.0537 30 34.7105 30 33.0537C30 31.397 31.3432 30.0537 33 30.0537C34.6567 30.0537 36 31.397 36 33.0537Z" fill="#0078D4"/>
<path fill-rule="evenodd" clip-rule="evenodd" d="M18 15.0615C18 16.7183 16.6567 18.0615 15 18.0615C13.3432 18.0615 12 16.7183 12 15.0615C12 13.4044 13.3432 12.0615 15 12.0615C16.6567 12.0615 18 13.4044 18 15.0615Z" fill="#0078D4"/>
<path fill-rule="evenodd" clip-rule="evenodd" d="M18 33.0537C18 34.7105 16.6567 36.0537 15 36.0537C13.3432 36.0537 12 34.7105 12 33.0537C12 31.397 13.3432 30.0537 15 30.0537C16.6567 30.0537 18 31.397 18 33.0537Z" fill="#0078D4"/>
<path fill-rule="evenodd" clip-rule="evenodd" d="M28.5 12.0459C28.5 14.531 26.4851 16.5459 24 16.5459C21.5149 16.5459 19.5 14.531 19.5 12.0459C19.5 9.56039 21.5149 7.5459 24 7.5459C26.4851 7.5459 28.5 9.56039 28.5 12.0459Z" fill="#0078D4"/>
<path fill-rule="evenodd" clip-rule="evenodd" d="M28.5 36.0459C28.5 38.531 26.4851 40.5459 24 40.5459C21.5149 40.5459 19.5 38.531 19.5 36.0459C19.5 33.5604 21.5149 31.5459 24 31.5459C26.4851 31.5459 28.5 33.5604 28.5 36.0459Z" fill="#0078D4"/>
<path fill-rule="evenodd" clip-rule="evenodd" d="M26.25 2.29589C26.25 3.53827 25.2424 4.54589 24 4.54589C22.7576 4.54589 21.75 3.53827 21.75 2.29589C21.75 1.05315 22.7576 0.0458984 24 0.0458984C25.2424 0.0458984 26.25 1.05315 26.25 2.29589Z" fill="#50E6FF"/>
<path fill-rule="evenodd" clip-rule="evenodd" d="M26.25 45.7959C26.25 47.0383 25.2424 48.0459 24 48.0459C22.7576 48.0459 21.75 47.0383 21.75 45.7959C21.75 44.5531 22.7576 43.5459 24 43.5459C25.2424 43.5459 26.25 44.5531 26.25 45.7959Z" fill="#0078D4"/>
<path fill-rule="evenodd" clip-rule="evenodd" d="M26.25 2.29589C26.25 3.53827 25.2424 4.54589 24 4.54589C22.7576 4.54589 21.75 3.53827 21.75 2.29589C21.75 1.05315 22.7576 0.0458984 24 0.0458984C25.2424 0.0458984 26.25 1.05315 26.25 2.29589Z" fill="#50E6FF"/>
<path fill-rule="evenodd" clip-rule="evenodd" d="M26.25 45.7959C26.25 47.0383 25.2424 48.0459 24 48.0459C22.7576 48.0459 21.75 47.0383 21.75 45.7959C21.75 44.5531 22.7576 43.5459 24 43.5459C25.2424 43.5459 26.25 44.5531 26.25 45.7959Z" fill="#50E6FF"/>
<path fill-rule="evenodd" clip-rule="evenodd" d="M16.5 24.0459C16.5 26.531 14.4851 28.5459 12 28.5459C9.51487 28.5459 7.5 26.531 7.5 24.0459C7.5 21.5604 9.51487 19.5459 12 19.5459C14.4851 19.5459 16.5 21.5604 16.5 24.0459Z" fill="#0078D4"/>
<path fill-rule="evenodd" clip-rule="evenodd" d="M40.5 24.0459C40.5 26.531 38.4851 28.5459 36 28.5459C33.5149 28.5459 31.5 26.531 31.5 24.0459C31.5 21.5604 33.5149 19.5459 36 19.5459C38.4851 19.5459 40.5 21.5604 40.5 24.0459Z" fill="#0078D4"/>
<path fill-rule="evenodd" clip-rule="evenodd" d="M2.25 21.7959C3.49237 21.7959 4.5 22.8031 4.5 24.0459C4.5 25.2883 3.49237 26.2959 2.25 26.2959C1.00762 26.2959 0 25.2883 0 24.0459C0 22.8031 1.00762 21.7959 2.25 21.7959Z" fill="#50E6FF"/>
<path fill-rule="evenodd" clip-rule="evenodd" d="M45.75 21.7959C46.9924 21.7959 48 22.8031 48 24.0459C48 25.2883 46.9924 26.2959 45.75 26.2959C44.5076 26.2959 43.5 25.2883 43.5 24.0459C43.5 22.8031 44.5076 21.7959 45.75 21.7959Z" fill="#0078D4"/>
<path fill-rule="evenodd" clip-rule="evenodd" d="M28.5 24.0459C28.5 26.531 26.4851 28.5459 24 28.5459C21.5149 28.5459 19.5 26.531 19.5 24.0459C19.5 21.5604 21.5149 19.5459 24 19.5459C26.4851 19.5459 28.5 21.5604 28.5 24.0459Z" fill="#0078D4"/>
<path fill-rule="evenodd" clip-rule="evenodd" d="M2.25 21.7959C3.49237 21.7959 4.5 22.8031 4.5 24.0459C4.5 25.2883 3.49237 26.2959 2.25 26.2959C1.00762 26.2959 0 25.2883 0 24.0459C0 22.8031 1.00762 21.7959 2.25 21.7959Z" fill="#50E6FF"/>
<path fill-rule="evenodd" clip-rule="evenodd" d="M45.75 21.7959C46.9924 21.7959 48 22.8031 48 24.0459C48 25.2883 46.9924 26.2959 45.75 26.2959C44.5076 26.2959 43.5 25.2883 43.5 24.0459C43.5 22.8031 44.5076 21.7959 45.75 21.7959Z" fill="#50E6FF"/>
<path fill-rule="evenodd" clip-rule="evenodd" d="M41.3484 9.88673C40.4698 10.7657 39.0452 10.7657 38.1666 9.88673C37.2876 9.00811 37.2876 7.58349 38.1666 6.70487C39.0452 5.82624 40.4698 5.82624 41.3484 6.70487C42.2271 7.58349 42.2271 9.00811 41.3484 9.88673Z" fill="#50E6FF"/>
<path fill-rule="evenodd" clip-rule="evenodd" d="M9.85158 41.3948C8.97296 42.2735 7.54834 42.2735 6.66971 41.3948C5.79109 40.5158 5.79109 39.0912 6.66971 38.213C7.54834 37.334 8.97296 37.334 9.85158 38.213C10.7302 39.0912 10.7302 40.5158 9.85158 41.3948Z" fill="#50E6FF"/>
<path fill-rule="evenodd" clip-rule="evenodd" d="M9.85158 6.70487C10.7302 7.58386 10.7302 9.00849 9.85158 9.88673C8.97296 10.7657 7.54834 10.7657 6.66971 9.88673C5.79109 9.00849 5.79109 7.58386 6.66971 6.70487C7.54834 5.82624 8.97296 5.82624 9.85158 6.70487Z" fill="#50E6FF"/>
<path fill-rule="evenodd" clip-rule="evenodd" d="M41.3411 38.213C42.2197 39.0916 42.2197 40.5162 41.3411 41.3948C40.4625 42.2735 39.0379 42.2735 38.1592 41.3948C37.2803 40.5162 37.2803 39.0916 38.1592 38.213C39.0379 37.334 40.4625 37.334 41.3411 38.213Z" fill="#50E6FF"/>
</svg>
