<svg data-slug-id="node21" viewBox="0 0 48 49" xmlns="http://www.w3.org/2000/svg">
<path d="M40.4939 29.1277H24.2056V31.536H40.4939V29.1277Z" fill="#50E6FF"/>
<path d="M41.4324 5.24356L23.3135 17.4014L24.6554 19.4012L42.7743 7.24343L41.4324 5.24356Z" fill="#50E6FF"/>
<path d="M23.9874 17.2042L23.9795 19.6125L42.1704 19.6726L42.1784 17.2643L23.9874 17.2042Z" fill="#50E6FF"/>
<path d="M23.6427 17.176L5.50195 23.3975L6.28322 25.6755L24.424 19.454L23.6427 17.176Z" fill="#50E6FF"/>
<path d="M41.4732 43.6033L23.4268 31.7062L5.50879 25.6773L6.27143 23.3975L24.4945 29.5226L24.6229 29.6029L42.7978 41.5884L41.4732 43.6033Z" fill="#50E6FF"/>
<path d="M42.0515 11.3545C44.6718 11.3545 46.7959 9.2304 46.7959 6.61013C46.7959 3.98987 44.6718 1.86572 42.0515 1.86572C39.4313 1.86572 37.3071 3.98987 37.3071 6.61013C37.3071 9.2304 39.4313 11.3545 42.0515 11.3545Z" fill="#0078D4"/>
<path d="M42.0515 23.0503C44.6718 23.0503 46.7959 20.9262 46.7959 18.3059C46.7959 15.6857 44.6718 13.5615 42.0515 13.5615C39.4313 13.5615 37.3071 15.6857 37.3071 18.3059C37.3071 20.9262 39.4313 23.0503 42.0515 23.0503Z" fill="#0078D4"/>
<path d="M42.0515 35.1241C44.6718 35.1241 46.7959 32.9999 46.7959 30.3797C46.7959 27.7594 44.6718 25.6353 42.0515 25.6353C39.4313 25.6353 37.3071 27.7594 37.3071 30.3797C37.3071 32.9999 39.4313 35.1241 42.0515 35.1241Z" fill="#0078D4"/>
<path d="M24.1175 23.0503C26.7377 23.0503 28.8619 20.9262 28.8619 18.3059C28.8619 15.6857 26.7377 13.5615 24.1175 13.5615C21.4972 13.5615 19.373 15.6857 19.373 18.3059C19.373 20.9262 21.4972 23.0503 24.1175 23.0503Z" fill="#0078D4"/>
<path d="M24.1175 35.1241C26.7377 35.1241 28.8619 32.9999 28.8619 30.3797C28.8619 27.7594 26.7377 25.6353 24.1175 25.6353C21.4972 25.6353 19.373 27.7594 19.373 30.3797C19.373 32.9999 21.4972 35.1241 24.1175 35.1241Z" fill="#0078D4"/>
<path d="M42.0515 47.3426C44.6718 47.3426 46.7959 45.2184 46.7959 42.5982C46.7959 39.9779 44.6718 37.8538 42.0515 37.8538C39.4313 37.8538 37.3071 39.9779 37.3071 42.5982C37.3071 45.2184 39.4313 47.3426 42.0515 47.3426Z" fill="#0078D4"/>
<path d="M5.94265 29.2496C8.56292 29.2496 10.6871 27.1254 10.6871 24.5052C10.6871 21.8849 8.56292 19.7607 5.94265 19.7607C3.32239 19.7607 1.19824 21.8849 1.19824 24.5052C1.19824 27.1254 3.32239 29.2496 5.94265 29.2496Z" fill="#0078D4"/>
</svg>
