<svg data-slug-id="node29" viewBox="0 0 48 49" xmlns="http://www.w3.org/2000/svg">
<path d="M3.13694 10.3518L1.90381 10.6174L4.37965 22.1102L5.61278 21.8446L3.13694 10.3518Z" fill="#0078D4"/>
<path d="M30.7188 10.2146L23.4619 21.6147L24.526 22.2921L31.7829 10.892L30.7188 10.2146Z" fill="#0078D4"/>
<path d="M17.3807 10.149L16.3101 10.8159L23.4547 22.2863L24.5254 21.6194L17.3807 10.149Z" fill="#0078D4"/>
<path d="M16.4926 10.014L4.59912 21.4263L5.47251 22.3365L17.366 10.9243L16.4926 10.014Z" fill="#0078D4"/>
<path d="M44.9607 10.349L42.2622 23.4182L43.4975 23.6733L46.1959 10.604L44.9607 10.349Z" fill="#0078D4"/>
<path d="M17.1884 9.94967L16.6826 11.1052L42.6133 22.4557L43.1191 21.3002L17.1884 9.94967Z" fill="#0078D4"/>
<path d="M10.0998 33.2588H0.0170898V35.8404H10.0998V33.2588Z" fill="#50E6FF"/>
<path d="M28.9782 33.2588H18.8955V35.8404H28.9782V33.2588Z" fill="#50E6FF"/>
<path d="M47.9831 33.2588H37.9004V35.8404H47.9831V33.2588Z" fill="#50E6FF"/>
<path d="M10.0996 21.8892H0.0673828V31.8625H10.0996V21.8892Z" fill="#0078D4"/>
<path d="M47.9581 21.9233H37.8418V31.9808H47.9581V21.9233Z" fill="#0078D4"/>
<path d="M28.9614 21.8892H18.9292V31.8625H28.9614V21.8892Z" fill="#0078D4"/>
<path d="M5.02049 39.9612H4.98686H1.69043V46.3943C1.69043 47.0502 3.15364 47.6052 4.98686 47.6136H5.03731C6.87894 47.6136 8.36737 47.0754 8.36737 46.3943V39.9612H5.02049Z" fill="#0078D4"/>
<path d="M8.36716 39.961C8.36716 40.6254 6.87872 41.1804 5.03709 41.1804C3.19547 41.1804 1.70703 40.6422 1.70703 39.961C1.70703 39.2799 3.19547 38.7417 5.03709 38.7417C6.87872 38.7501 8.36716 39.3051 8.36716 39.961Z" fill="white"/>
<path d="M7.68601 39.8937C7.68601 40.3394 6.50031 40.701 5.0371 40.701C3.57389 40.701 2.38818 40.3394 2.38818 39.8937C2.38818 39.448 3.57389 39.0864 5.0371 39.0864C6.50031 39.0864 7.68601 39.448 7.68601 39.8937Z" fill="#0078D4"/>
<path d="M23.9414 39.86H23.9078H20.6113V46.2846C20.6113 46.9406 22.0745 47.4956 23.9078 47.504H23.9582C25.7998 47.504 27.2883 46.9658 27.2883 46.2846V39.8516H23.9414V39.86Z" fill="#0078D4"/>
<path d="M27.2881 39.8602C27.2881 40.5245 25.7996 41.0796 23.958 41.0796C22.1164 41.0796 20.6279 40.5414 20.6279 39.8602C20.6279 39.1791 22.1164 38.6409 23.958 38.6409C25.7996 38.6409 27.2881 39.1959 27.2881 39.8602Z" fill="white"/>
<path d="M26.6069 39.7848C26.6069 40.2305 25.4212 40.5921 23.958 40.5921C22.4864 40.5921 21.3091 40.2305 21.3091 39.7848C21.3091 39.3391 22.4948 38.9775 23.958 38.9775C25.4212 38.9775 26.6069 39.3391 26.6069 39.7848Z" fill="#0078D4"/>
<path d="M42.9463 39.86H42.9126H39.6162V46.2846C39.6162 46.9406 41.0794 47.4956 42.9126 47.504H42.9631C44.8047 47.504 46.2932 46.9658 46.2932 46.2846V39.8516H42.9463V39.86Z" fill="#0078D4"/>
<path d="M46.2929 39.8602C46.2929 40.5245 44.8045 41.0796 42.9629 41.0796C41.1213 41.0796 39.6328 40.5414 39.6328 39.8602C39.6328 39.1791 41.1213 38.6409 42.9629 38.6409C44.8129 38.6409 46.2929 39.1959 46.2929 39.8602Z" fill="white"/>
<path d="M45.6201 39.7848C45.6201 40.2305 44.4344 40.5921 42.9712 40.5921C41.4996 40.5921 40.3223 40.2305 40.3223 39.7848C40.3223 39.3391 41.508 38.9775 42.9712 38.9775C44.4344 38.9775 45.6201 39.3391 45.6201 39.7848Z" fill="#0078D4"/>
<path d="M5.09606 0.479492H0.0336914V5.54186H5.09606V0.479492Z" fill="#50E6FF"/>
<path d="M5.09606 5.44116H0.0336914V10.5035H5.09606V5.44116Z" fill="#0078D4"/>
<path d="M33.6874 0.479492H28.625V5.54186H33.6874V0.479492Z" fill="#50E6FF"/>
<path d="M33.6874 5.44116H28.625V10.5035H33.6874V5.44116Z" fill="#0078D4"/>
<path d="M19.3915 0.479492H14.3291V5.54186H19.3915V0.479492Z" fill="#50E6FF"/>
<path d="M19.3915 5.44116H14.3291V10.5035H19.3915V5.44116Z" fill="#0078D4"/>
<path d="M47.9916 0.479492H42.9292V5.54186H47.9916V0.479492Z" fill="#50E6FF"/>
<path d="M47.9916 5.44116H42.9292V10.5035H47.9916V5.44116Z" fill="#0078D4"/>
<path d="M36.6829 28.187L34.8665 26.3706V27.3293H31.9653V26.3706L30.1489 28.187L31.9653 30.0034V29.0111H34.8665V29.995L36.6829 28.187Z" fill="#0078D4"/>
<path d="M17.8055 28.187L15.9891 26.3706V27.3293H13.0879V26.3706L11.2715 28.187L13.0879 30.0034V29.0111H15.9891V29.995L17.8055 28.187Z" fill="#0078D4"/>
<path d="M23.9499 23.168C24.6465 23.168 25.2113 22.6033 25.2113 21.9067C25.2113 21.21 24.6465 20.6453 23.9499 20.6453C23.2532 20.6453 22.6885 21.21 22.6885 21.9067C22.6885 22.6033 23.2532 23.168 23.9499 23.168Z" fill="#50E6FF"/>
<path d="M5.07096 23.2017C5.7676 23.2017 6.33235 22.637 6.33235 21.9403C6.33235 21.2437 5.7676 20.679 5.07096 20.679C4.37431 20.679 3.80957 21.2437 3.80957 21.9403C3.80957 22.637 4.37431 23.2017 5.07096 23.2017Z" fill="#50E6FF"/>
<path d="M2.59 11.7813C3.28665 11.7813 3.85139 11.2166 3.85139 10.5199C3.85139 9.82329 3.28665 9.25854 2.59 9.25854C1.89336 9.25854 1.32861 9.82329 1.32861 10.5199C1.32861 11.2166 1.89336 11.7813 2.59 11.7813Z" fill="#50E6FF"/>
<path d="M16.8942 11.7813C17.5908 11.7813 18.1556 11.2166 18.1556 10.5199C18.1556 9.82329 17.5908 9.25854 16.8942 9.25854C16.1976 9.25854 15.6328 9.82329 15.6328 10.5199C15.6328 11.2166 16.1976 11.7813 16.8942 11.7813Z" fill="#50E6FF"/>
<path d="M31.173 11.7813C31.8697 11.7813 32.4344 11.2166 32.4344 10.5199C32.4344 9.82329 31.8697 9.25854 31.173 9.25854C30.4764 9.25854 29.9116 9.82329 29.9116 10.5199C29.9116 11.2166 30.4764 11.7813 31.173 11.7813Z" fill="#50E6FF"/>
<path d="M45.4772 11.7813C46.1739 11.7813 46.7386 11.2166 46.7386 10.5199C46.7386 9.82329 46.1739 9.25854 45.4772 9.25854C44.7806 9.25854 44.2158 9.82329 44.2158 10.5199C44.2158 11.2166 44.7806 11.7813 45.4772 11.7813Z" fill="#50E6FF"/>
<path d="M42.9377 23.168C43.6343 23.168 44.199 22.6033 44.199 21.9067C44.199 21.21 43.6343 20.6453 42.9377 20.6453C42.241 20.6453 41.6763 21.21 41.6763 21.9067C41.6763 22.6033 42.241 23.168 42.9377 23.168Z" fill="#50E6FF"/>
</svg>
