<svg data-slug-id="node10" viewBox="0 0 49 49" xmlns="http://www.w3.org/2000/svg">
<path d="M37.9909 31.9935V26.503H34.9257C34.6394 25.5093 34.2184 24.5746 33.6879 23.7157L35.9194 21.4841L32.0374 17.6021L29.7048 19.9347C28.8711 19.4715 27.9701 19.1094 27.0186 18.8736V15.5305H21.5282V18.9242C20.6019 19.1684 19.7261 19.5389 18.9093 20.002L16.5093 17.6021L12.6273 21.4841L14.9767 23.8336C14.4799 24.6588 14.0841 25.5514 13.8147 26.503H10.5474V31.9935H13.6631C13.8989 33.0124 14.2694 33.9808 14.7662 34.865L12.6189 37.0123L16.5009 40.8944L18.5472 38.8481C19.4566 39.4207 20.4587 39.8586 21.5197 40.1365V42.9744H27.0101V40.187C28.0964 39.9176 29.1238 39.4881 30.0501 38.9239L32.0205 40.8944L35.9026 37.0123L33.8816 34.9913C34.4121 34.065 34.8079 33.0629 35.0521 31.9935H37.9909ZM24.2734 34.3008C21.4861 34.3008 19.2208 32.0356 19.2208 29.2482C19.2208 26.4609 21.4861 24.1957 24.2734 24.1957C27.0607 24.1957 29.3259 26.4609 29.3259 29.2482C29.3259 32.0356 27.0607 34.3008 24.2734 34.3008Z" fill="#50E6FF"/>
<path d="M24.2299 10.1729C25.6251 10.1729 26.7561 9.04187 26.7561 7.64664C26.7561 6.25142 25.6251 5.12036 24.2299 5.12036C22.8347 5.12036 21.7036 6.25142 21.7036 7.64664C21.7036 9.04187 22.8347 10.1729 24.2299 10.1729Z" fill="#0078D4"/>
<path d="M9.91542 17.3331C11.3106 17.3331 12.4417 16.202 12.4417 14.8068C12.4417 13.4116 11.3106 12.2805 9.91542 12.2805C8.5202 12.2805 7.38916 13.4116 7.38916 14.8068C7.38916 16.202 8.5202 17.3331 9.91542 17.3331Z" fill="#0078D4"/>
<path d="M38.5438 17.3331C39.939 17.3331 41.0701 16.202 41.0701 14.8068C41.0701 13.4116 39.939 12.2805 38.5438 12.2805C37.1486 12.2805 36.0176 13.4116 36.0176 14.8068C36.0176 16.202 37.1486 17.3331 38.5438 17.3331Z" fill="#0078D4"/>
<path d="M2.75721 10.1729C4.15243 10.1729 5.28347 9.04187 5.28347 7.64664C5.28347 6.25142 4.15243 5.12036 2.75721 5.12036C1.362 5.12036 0.230957 6.25142 0.230957 7.64664C0.230957 9.04187 1.362 10.1729 2.75721 10.1729Z" fill="#0078D4"/>
<path d="M45.7045 10.1729C47.0997 10.1729 48.2307 9.04187 48.2307 7.64664C48.2307 6.25142 47.0997 5.12036 45.7045 5.12036C44.3093 5.12036 43.1782 6.25142 43.1782 7.64664C43.1782 9.04187 44.3093 10.1729 45.7045 10.1729Z" fill="#0078D4"/>
<path d="M2.75721 24.4893C4.15243 24.4893 5.28347 23.3583 5.28347 21.963C5.28347 20.5678 4.15243 19.4368 2.75721 19.4368C1.362 19.4368 0.230957 20.5678 0.230957 21.963C0.230957 23.3583 1.362 24.4893 2.75721 24.4893Z" fill="#0078D4"/>
<path d="M45.7045 24.4893C47.0997 24.4893 48.2307 23.3583 48.2307 21.963C48.2307 20.5678 47.0997 19.4368 45.7045 19.4368C44.3093 19.4368 43.1782 20.5678 43.1782 21.963C43.1782 23.3583 44.3093 24.4893 45.7045 24.4893Z" fill="#0078D4"/>
<path d="M24.2299 31.6456C25.6251 31.6456 26.7561 30.5145 26.7561 29.1193C26.7561 27.7241 25.6251 26.593 24.2299 26.593C22.8347 26.593 21.7036 27.7241 21.7036 29.1193C21.7036 30.5145 22.8347 31.6456 24.2299 31.6456Z" fill="#0078D4"/>
</svg>
