<svg data-slug-id="node01" viewBox="0 0 48 49" xmlns="http://www.w3.org/2000/svg">
<path d="M15.4589 17.3657L13.9609 18.1357L15.501 21.1316L16.9989 20.3616L15.4589 17.3657Z" fill="#0075DA"/>
<path d="M5.97792 16.0722L3.7002 18.5537L4.94095 19.6926L7.21868 17.2111L5.97792 16.0722Z" fill="#0075DA"/>
<path d="M0.143799 22.4639L0.95222 24.0302L3.23433 21.5544L1.98801 20.4092L0.143799 22.4639Z" fill="#0075DA"/>
<path d="M42.7075 27.1969L41.3145 28.1436L43.2078 30.9296L44.6009 29.9829L42.7075 27.1969Z" fill="#0075DA"/>
<path d="M46.018 32.0758L44.625 33.0225L46.5184 35.8085L47.9114 34.8618L46.018 32.0758Z" fill="#0075DA"/>
<path d="M11.4278 16.4161C11.2089 16.4161 10.9984 16.3993 10.7878 16.374V47.1193H12.051V16.3824C11.8489 16.4077 11.6468 16.4161 11.4278 16.4161Z" fill="#50E6FF"/>
<path d="M12.0591 6.36333V0.889648H10.7959V6.36333C11.0064 6.33807 11.217 6.32123 11.4359 6.32123C11.6464 6.32123 11.8485 6.33807 12.0591 6.36333Z" fill="#50E6FF"/>
<path d="M16.4209 12.145H47.3177V10.8818H16.4546C16.4714 11.0418 16.4798 11.2018 16.4798 11.3618C16.4798 11.6313 16.463 11.8924 16.4209 12.145Z" fill="#50E6FF"/>
<path d="M6.40824 10.8818H0.286133V12.145H6.44192C6.39982 11.8924 6.38298 11.6313 6.38298 11.3618C6.38298 11.2018 6.3914 11.0418 6.40824 10.8818Z" fill="#50E6FF"/>
<path d="M36.0171 24.7373H34.7539V47.1205H36.0171V24.7373Z" fill="#50E6FF"/>
<path d="M36.0171 23.085C35.7981 23.1102 35.5792 23.1271 35.3518 23.1271C35.1497 23.1271 34.9476 23.1102 34.7539 23.0934V23.4723H36.0171V23.085Z" fill="#50E6FF"/>
<path d="M36.0171 13.0833V0.889648H34.7539V13.0749C34.9476 13.0497 35.1497 13.0412 35.3518 13.0412C35.5707 13.0412 35.7981 13.0581 36.0171 13.0833Z" fill="#50E6FF"/>
<path d="M0.286133 23.4717V24.7348H29.9198L30.1051 24.4485L30.543 24.7348H34.7535V23.4717H0.286133Z" fill="#50E6FF"/>
<path d="M36.0166 23.4717V24.7348H38.9977L38.1387 23.4717H36.0166Z" fill="#50E6FF"/>
<path d="M47.3174 23.4717H40.168L41.0269 24.7348H47.3174V23.4717Z" fill="#50E6FF"/>
<path d="M36.0171 23.4717H34.7539V24.7348H36.0171V23.4717Z" fill="#50E6FF"/>
<path d="M30.6359 23.6514L28.1602 27.3987L29.5749 28.3166L32.0507 24.5693L30.6359 23.6514Z" fill="#0075DA"/>
<path d="M39.3853 22.3193L37.9958 23.2709L38.139 23.473H40.1685L39.3853 22.3193Z" fill="#0075DA"/>
<path d="M39.8909 26.051L41.2804 25.1078L41.0278 24.7373H38.9983L39.8909 26.051Z" fill="#0075DA"/>
<path d="M38.1387 23.4717L38.9976 24.7348H41.0271L40.1681 23.4717H38.1387Z" fill="#0075DA"/>
<path d="M31.4692 22.328L32.884 23.2375L33.2461 22.6733C32.7324 22.4375 32.2608 22.1175 31.8566 21.7217L31.4692 22.328Z" fill="#0075DA"/>
<path d="M24.6401 30.3886V0.889648H23.377V30.3549C23.5454 30.3381 23.7222 30.3297 23.8991 30.3297C24.1517 30.3297 24.3959 30.3465 24.6401 30.3886Z" fill="#50E6FF"/>
<path d="M23.377 40.3993V47.1193H24.6401V40.374C24.3959 40.4077 24.1517 40.433 23.8991 40.433C23.7222 40.4246 23.5454 40.4161 23.377 40.3993Z" fill="#50E6FF"/>
<path d="M18.8798 34.8428H0.286133V36.1059H18.9051C18.8714 35.8701 18.8546 35.6259 18.8546 35.3733C18.8461 35.1965 18.863 35.0196 18.8798 34.8428Z" fill="#50E6FF"/>
<path d="M47.5705 34.8428H28.9178C28.9347 35.0196 28.9431 35.1965 28.9431 35.3733C28.9431 35.6175 28.9263 35.8617 28.8926 36.1059H47.5705V34.8428Z" fill="#50E6FF"/>
<path d="M20.8505 27.8428L19.3516 28.6091L20.7916 31.4049C21.2295 31.0596 21.7347 30.7817 22.2737 30.5965L20.8505 27.8428Z" fill="#0075DA"/>
<path d="M28.3202 30.3187L26.9054 29.4092L26.0044 30.7987C26.5181 31.0344 26.9897 31.3629 27.3939 31.7502L28.3202 30.3187Z" fill="#0075DA"/>
<path d="M11.4275 7.58105C13.516 7.58105 15.2086 9.27369 15.2086 11.3621C15.2086 13.4505 13.516 15.1432 11.4275 15.1432C9.33912 15.1432 7.64648 13.4505 7.64648 11.3621C7.64648 9.28211 9.33912 7.58105 11.4275 7.58105Z" fill="#0078D4"/>
<path d="M23.8992 31.5928C25.9877 31.5928 27.6803 33.2854 27.6803 35.3738C27.6803 37.4622 25.9877 39.1549 23.8992 39.1549C21.8108 39.1549 20.1182 37.4622 20.1182 35.3738C20.1098 33.2854 21.8108 31.5928 23.8992 31.5928Z" fill="#0075DA"/>
<path d="M35.3514 14.3037C37.4398 14.3037 39.1324 15.9963 39.1324 18.0848C39.1324 20.1732 37.4398 21.8658 35.3514 21.8658C33.263 21.8658 31.5703 20.1732 31.5703 18.0848C31.5619 15.9963 33.263 14.3037 35.3514 14.3037Z" fill="#0075DA"/>
<path d="M19.6967 25.5946L18.1557 22.5967L16.6567 23.3714L18.1978 26.3693" fill="#0075DA"/>
<path d="M46.7368 1.30906V46.7827H1.26316V1.30906H46.7368ZM48 0.0458984H0V48.0459H48V0.0458984Z" fill="#50E6FF"/>
</svg>
