<svg data-slug-id="node22" viewBox="0 0 48 49" xmlns="http://www.w3.org/2000/svg">
<path d="M23.7641 17.144H4.02393V19.5907H23.7641V17.144Z" fill="#50E6FF"/>
<path d="M43.4631 22.0853C45.5259 22.0853 47.1982 20.4203 47.1982 18.3664C47.1982 16.3125 45.5259 14.6475 43.4631 14.6475C41.4003 14.6475 39.728 16.3125 39.728 18.3664C39.728 20.4203 41.4003 22.0853 43.4631 22.0853Z" fill="#0078D4"/>
<path d="M33.7898 22.0853C35.8526 22.0853 37.5248 20.4203 37.5248 18.3664C37.5248 16.3125 35.8526 14.6475 33.7898 14.6475C31.7269 14.6475 30.0547 16.3125 30.0547 18.3664C30.0547 20.4203 31.7269 22.0853 33.7898 22.0853Z" fill="#0078D4"/>
<path d="M23.9441 22.0853C26.0069 22.0853 27.6791 20.4203 27.6791 18.3664C27.6791 16.3125 26.0069 14.6475 23.9441 14.6475C21.8812 14.6475 20.209 16.3125 20.209 18.3664C20.209 20.4203 21.8812 22.0853 23.9441 22.0853Z" fill="#0078D4"/>
<path d="M4.48264 22.0853C6.54546 22.0853 8.21771 20.4203 8.21771 18.3664C8.21771 16.3125 6.54546 14.6475 4.48264 14.6475C2.41981 14.6475 0.747559 16.3125 0.747559 18.3664C0.747559 20.4203 2.41981 22.0853 4.48264 22.0853Z" fill="#0078D4"/>
<path d="M23.7641 29.2568H4.02393V31.7035H23.7641V29.2568Z" fill="#50E6FF"/>
<path d="M43.4631 34.1947C45.5259 34.1947 47.1982 32.5296 47.1982 30.4757C47.1982 28.4218 45.5259 26.7568 43.4631 26.7568C41.4003 26.7568 39.728 28.4218 39.728 30.4757C39.728 32.5296 41.4003 34.1947 43.4631 34.1947Z" fill="#0078D4"/>
<path d="M33.7898 34.1947C35.8526 34.1947 37.5248 32.5296 37.5248 30.4757C37.5248 28.4218 35.8526 26.7568 33.7898 26.7568C31.7269 26.7568 30.0547 28.4218 30.0547 30.4757C30.0547 32.5296 31.7269 34.1947 33.7898 34.1947Z" fill="#0078D4"/>
<path d="M23.9441 34.1947C26.0069 34.1947 27.6791 32.5296 27.6791 30.4757C27.6791 28.4218 26.0069 26.7568 23.9441 26.7568C21.8812 26.7568 20.209 28.4218 20.209 30.4757C20.209 32.5296 21.8812 34.1947 23.9441 34.1947Z" fill="#0078D4"/>
<path d="M4.48264 34.1947C6.54546 34.1947 8.21771 32.5296 8.21771 30.4757C8.21771 28.4218 6.54546 26.7568 4.48264 26.7568C2.41981 26.7568 0.747559 28.4218 0.747559 30.4757C0.747559 32.5296 2.41981 34.1947 4.48264 34.1947Z" fill="#0078D4"/>
<path d="M23.7641 41.5532H4.02393V43.9999H23.7641V41.5532Z" fill="#50E6FF"/>
<path d="M43.4631 46.4957C45.5259 46.4957 47.1982 44.8307 47.1982 42.7768C47.1982 40.7229 45.5259 39.0579 43.4631 39.0579C41.4003 39.0579 39.728 40.7229 39.728 42.7768C39.728 44.8307 41.4003 46.4957 43.4631 46.4957Z" fill="#0078D4"/>
<path d="M33.7898 46.4957C35.8526 46.4957 37.5248 44.8307 37.5248 42.7768C37.5248 40.7229 35.8526 39.0579 33.7898 39.0579C31.7269 39.0579 30.0547 40.7229 30.0547 42.7768C30.0547 44.8307 31.7269 46.4957 33.7898 46.4957Z" fill="#0078D4"/>
<path d="M23.9441 46.4957C26.0069 46.4957 27.6791 44.8307 27.6791 42.7768C27.6791 40.7229 26.0069 39.0579 23.9441 39.0579C21.8812 39.0579 20.209 40.7229 20.209 42.7768C20.209 44.8307 21.8812 46.4957 23.9441 46.4957Z" fill="#0078D4"/>
<path d="M4.48264 46.4957C6.54546 46.4957 8.21771 44.8307 8.21771 42.7768C8.21771 40.7229 6.54546 39.0579 4.48264 39.0579C2.41981 39.0579 0.747559 40.7229 0.747559 42.7768C0.747559 44.8307 2.41981 46.4957 4.48264 46.4957Z" fill="#0078D4"/>
<path d="M23.7641 4.8042H4.02393V7.25085H23.7641V4.8042Z" fill="#50E6FF"/>
<path d="M43.4631 9.74543C45.5259 9.74543 47.1982 8.08042 47.1982 6.02652C47.1982 3.97263 45.5259 2.30762 43.4631 2.30762C41.4003 2.30762 39.728 3.97263 39.728 6.02652C39.728 8.08042 41.4003 9.74543 43.4631 9.74543Z" fill="#0078D4"/>
<path d="M33.7898 9.74543C35.8526 9.74543 37.5248 8.08042 37.5248 6.02652C37.5248 3.97263 35.8526 2.30762 33.7898 2.30762C31.7269 2.30762 30.0547 3.97263 30.0547 6.02652C30.0547 8.08042 31.7269 9.74543 33.7898 9.74543Z" fill="#0078D4"/>
<path d="M23.9441 9.74543C26.0069 9.74543 27.6791 8.08042 27.6791 6.02652C27.6791 3.97263 26.0069 2.30762 23.9441 2.30762C21.8812 2.30762 20.209 3.97263 20.209 6.02652C20.209 8.08042 21.8812 9.74543 23.9441 9.74543Z" fill="#0078D4"/>
<path d="M4.48264 9.74543C6.54546 9.74543 8.21771 8.08042 8.21771 6.02652C8.21771 3.97263 6.54546 2.30762 4.48264 2.30762C2.41981 2.30762 0.747559 3.97263 0.747559 6.02652C0.747559 8.08042 2.41981 9.74543 4.48264 9.74543Z" fill="#0078D4"/>
</svg>
