<svg data-slug-id="notification-hubs01" viewBox="0 0 48 48" xmlns="http://www.w3.org/2000/svg">
<path fill-rule="evenodd" clip-rule="evenodd" d="M32.9278 26.3164H32.9035H32.9026H21.3223L16.4834 35.9105H19.5454L28.7861 44.9998L28.8728 35.9105H39.3727C40.8564 35.9296 42.2864 35.3527 43.3426 34.31C44.3997 33.2665 44.9964 31.8433 44.9998 30.3567V26.3164H32.9278Z" fill="#0072C5"/>
<path fill-rule="evenodd" clip-rule="evenodd" d="M43.3223 4.44145C42.279 3.46049 40.8837 2.94177 39.4546 3.0052H32.9265H32.9022H32.9013H32.8987L27.9462 12.9312H3V12.9355H33.7425V8.39134L44.4088 17.4806H25.7661L23.4178 21.8528H44.9977V8.21843C44.9699 6.78479 44.3655 5.4224 43.3223 4.44145Z" fill="#0072C5"/>
<path fill-rule="evenodd" clip-rule="evenodd" d="M3.00087 17.4756H3V17.4799V30.016V30.0195C3 30.0264 3.00087 30.0325 3.00087 30.0395C3.00434 31.1004 3.27403 32.1178 3.74404 33.0023C4.64765 34.7114 6.29876 35.9313 8.27854 35.9904C8.28288 35.9904 8.28635 35.9912 8.28981 35.9912H8.29155H16.4431V35.9904L16.4838 35.9104L21.3227 26.3164H14.5101L14.5075 26.3963V30.9405L3.84117 21.8521H3.84724H23.4195L25.7679 17.4799L25.7705 17.4756H3.00087Z" fill="#479AD1"/>
<path fill-rule="evenodd" clip-rule="evenodd" d="M3 7.96473V7.96995C3 4.85591 5.18183 3.00434 8.28981 3.00434H32.8996L32.9013 3H8.28981C5.18183 3 3 4.85157 3 7.96473Z" fill="#479AD1"/>
<path fill-rule="evenodd" clip-rule="evenodd" d="M32.8996 3.00586H8.29068C5.18183 3.00586 3 4.85743 3 7.97146V12.9319H27.9471L32.8996 3.00586Z" fill="#479AD1"/>
</svg>
