<svg data-slug-id="object06" viewBox="0 0 49 49" xmlns="http://www.w3.org/2000/svg">
<path d="M33.9649 17.9006C36.0542 17.9006 37.748 16.2068 37.748 14.1175C37.748 12.0282 36.0542 10.3345 33.9649 10.3345C31.8756 10.3345 30.1819 12.0282 30.1819 14.1175C30.1819 16.2068 31.8756 17.9006 33.9649 17.9006Z" fill="#0078D4"/>
<path d="M33.9651 16.2325C35.1331 16.2325 36.0799 15.2857 36.0799 14.1177C36.0799 12.9498 35.1331 12.0029 33.9651 12.0029C32.7972 12.0029 31.8503 12.9498 31.8503 14.1177C31.8503 15.2857 32.7972 16.2325 33.9651 16.2325Z" fill="#50E6FF"/>
<path d="M41.2447 1.8755L39.9219 0.6201C39.5933 0.308357 39.1046 0.257804 38.7171 0.493717C37.8745 1.00767 36.1473 2.25464 34.083 4.87497C31.2521 8.46423 31.2268 11.3963 31.2268 11.5143V12.0451L31.7408 11.9187C33.0636 11.5901 34.6728 11.2699 35.0351 11.312C35.2879 11.489 36.0293 12.2136 36.5012 12.6938L37.0909 13.3005L37.2089 12.4663C37.2173 12.4326 37.7229 8.8855 38.3716 7.04875C38.8687 5.64169 40.5622 3.83021 41.2616 3.11404C41.4216 2.94553 41.5143 2.72647 41.5059 2.49056C41.5059 2.25464 41.4132 2.03558 41.2447 1.8755Z" fill="#0078D4"/>
<path d="M30.9233 16.3757L30.9907 16.8728C31.1424 17.985 31.2182 21.4563 30.4178 26.6464C29.7859 30.7159 28.8844 33.0076 25.8428 38.3073C23.7785 41.9134 21.6216 44.3652 20.7959 45.2499C20.4673 45.5953 20.4505 46.143 20.7538 46.5137L21.6974 47.6764C21.8744 47.8955 22.1356 48.0219 22.4136 48.0303C22.422 48.0303 22.4389 48.0303 22.4473 48.0303C22.7169 48.0303 22.9697 47.9208 23.155 47.727C24.7306 46.0334 28.5136 41.9218 29.5331 40.2704C31.3446 37.3552 32.6253 34.8191 34.184 29.8144C34.8075 27.826 35.2709 25.0624 35.5658 21.5911C35.7848 19.0129 35.827 16.9908 35.827 16.9739L35.8354 16.5695L30.9233 16.3757Z" fill="#0078D4"/>
<path d="M47.4543 9.36575L46.2242 7.78176C46.081 7.5964 45.8619 7.47844 45.6344 7.46159C45.3985 7.44474 45.171 7.529 45.0025 7.68908C44.5644 8.11036 43.6881 8.91078 42.795 9.47529C42.1463 9.88813 40.7645 10.3684 39.0036 10.7897C38.7171 10.8571 38.4812 11.0509 38.3464 11.312C38.22 11.5732 38.2116 11.885 38.3295 12.1546C38.6076 12.7697 38.7424 13.4268 38.7424 14.1093C38.7424 14.6654 38.6497 15.2046 38.4643 15.7186C38.3295 16.0893 38.4391 16.5021 38.734 16.7633C38.9109 16.9234 39.1384 16.9992 39.3659 16.9992C39.5175 16.9992 39.6608 16.9655 39.804 16.8981C41.4638 16.0556 43.6629 14.8255 44.7498 13.747C45.9715 12.5253 46.9657 11.312 47.4459 10.7054C47.7577 10.3178 47.7577 9.76175 47.4543 9.36575Z" fill="#0078D4"/>
<path d="M30.2072 10.3431C30.0471 10.0566 29.7522 9.88811 29.4236 9.90496L28.9687 9.93867L28.8507 10.0566C28.8254 10.0819 26.6348 12.3905 24.2335 13.2246C23.2393 13.5701 22.1187 13.8481 20.9307 14.143C19.1445 14.5895 17.1224 15.0951 14.9992 15.9545C14.679 16.0893 14.3673 16.2157 14.0555 16.3336C10.9634 17.5806 8.73063 18.4821 6.27039 20.361C4.23985 21.9113 1.87229 24.144 0.95391 25.0287C0.549486 25.4163 0.52421 26.0482 0.87808 26.4695L1.65323 27.3794C1.83859 27.5985 2.09135 27.7249 2.37782 27.7501C2.40309 27.7501 2.42837 27.7501 2.46207 27.7501C2.71484 27.7501 2.95918 27.6575 3.15296 27.489C4.7538 26.0903 10.4916 21.3889 17.1561 19.4258C22.7001 17.7912 27.0982 17.3025 28.7243 17.1677C29.0276 17.1425 29.2888 16.9824 29.4489 16.7296C29.609 16.4768 29.6343 16.1651 29.5247 15.8871C29.2972 15.3226 29.1877 14.7243 29.1877 14.1177C29.1877 13.0645 29.5247 12.0703 30.1482 11.2362C30.342 10.975 30.3673 10.6296 30.2072 10.3431Z" fill="#0078D4"/>
</svg>
