<svg data-slug-id="object20" viewBox="0 0 48 49" xmlns="http://www.w3.org/2000/svg">
<path d="M34.8544 31.7227C32.1798 31.7227 30.0039 33.8985 30.0039 36.5732C30.0039 39.2478 32.1798 41.4237 34.8544 41.4237C37.5291 41.4237 39.7049 39.2478 39.7049 36.5732C39.7049 33.8985 37.5291 31.7227 34.8544 31.7227Z" fill="#50E6FF"/>
<path d="M25.9312 40.2345C25.4594 39.0858 25.2121 37.8442 25.2121 36.5647C25.2121 31.2475 29.5385 26.9211 34.8557 26.9211C37.0434 26.9211 39.1196 27.6444 40.811 28.9762V5.55078H8.21289V40.2345H25.9312Z" fill="#50E6FF"/>
<path d="M30.5831 36.5732C30.5831 34.2083 32.4982 32.3017 34.8546 32.3017C37.2111 32.3017 39.1262 34.2167 39.1262 36.5732C39.1262 38.1262 38.2982 39.4867 37.0567 40.2345H40.8091V32.6772C39.5397 30.736 37.3487 29.4531 34.8538 29.4531C30.9317 29.4531 27.7422 32.6342 27.7422 36.5647C27.7422 37.9084 28.1144 39.1634 28.7601 40.2345H32.6509C31.4111 39.4867 30.5831 38.1253 30.5831 36.5732Z" fill="#50E6FF"/>
<path d="M31.3335 42.7436H42.1655L40.4175 40.9957C40.4487 40.956 40.4791 40.9155 40.5095 40.875H29.1973C29.7754 41.6321 30.5021 42.2685 31.3335 42.7436Z" fill="#0078D4"/>
<path d="M41.9661 36.5659C41.9661 35.4737 41.7196 34.4398 41.2808 33.5156V39.6119C41.7196 38.6886 41.9661 37.6563 41.9661 36.5659Z" fill="#0078D4"/>
<path d="M7.80993 40.8742H26.222C26.1173 40.6641 26.0203 40.4514 25.9308 40.2345H8.21252V5.55078H7.80908V40.8742H7.80993Z" fill="#0078D4"/>
<path d="M41.281 29.3721V5.55078H40.8101V28.9771C40.9713 29.1028 41.1282 29.2353 41.281 29.3721Z" fill="#0078D4"/>
<path d="M40.8098 40.233H37.0573C36.4151 40.6204 35.6614 40.8433 34.8545 40.8433C34.0476 40.8433 33.2948 40.6204 32.6516 40.233H28.7607C28.8941 40.455 29.0401 40.6677 29.1971 40.8728H40.5093C40.8081 40.4812 41.0672 40.0583 41.2808 39.6093V33.513C41.1423 33.2227 40.9845 32.9433 40.8098 32.6758V40.233Z" fill="#0078D4"/>
<path d="M45.8091 0H43.4653H41.4532H40.8101V5.55104H41.281V29.3723C41.4152 29.4922 41.5469 29.6163 41.6752 29.7445C42.4095 30.4788 43.0095 31.3102 43.4662 32.2099V2.5354H45.81V0H45.8091Z" fill="#0078D4"/>
<path d="M27.4484 42.744C26.9639 42.1658 26.5537 41.5387 26.2212 40.8753H7.81V32.8969H18.1635V30.3615H7.81V25.3H18.1635V22.7646H7.81V17.7031H18.1635V15.1677H7.81V10.107H18.1635V7.57244H7.81V5.55104H8.21344V0H7.35593H5.55735H3V2.5354H5.55735V42.744H27.4484Z" fill="#0078D4"/>
<path d="M40.4172 40.9958C41.3861 39.7804 41.9659 38.2418 41.9659 36.5647C41.9659 32.6342 38.7848 29.4531 34.8543 29.4531C30.9322 29.4531 27.7427 32.6342 27.7427 36.5647C27.7427 40.4953 30.9237 43.6764 34.8543 43.6764C36.0865 43.6764 37.2445 43.3632 38.254 42.8138L43.4395 47.9994L45.4297 46.0092L40.4172 40.9958ZM34.8543 40.8456C32.4894 40.8456 30.5828 38.9305 30.5828 36.574C30.5828 34.2091 32.4978 32.3025 34.8543 32.3025C37.2108 32.3025 39.1258 34.2176 39.1258 36.574C39.1267 38.9305 37.2192 40.8456 34.8543 40.8456Z" fill="#0078D4"/>
</svg>
