<svg data-slug-id="object14" viewBox="0 0 49 49" xmlns="http://www.w3.org/2000/svg">
<path d="M22.4099 18.0437V3.65986H24.9511V1.20996H12.2532V3.65986H14.8692V18.3842L1.88887 37.8339C-0.286977 41.0893 2.04666 45.4493 5.96649 45.4493H21.5794C21.1226 44.461 20.7738 43.423 20.533 42.335H8.24199C6.00802 42.335 4.67926 39.8519 5.91666 37.9917L13.8311 26.1408L24.021 26.0079L25.2252 27.7104C26.039 26.9796 26.9277 26.3318 27.8827 25.7837L22.4099 18.0437Z" fill="#0078D4"/>
<path d="M13.8313 26.1407L5.9169 37.9999C4.6795 39.8518 6.00826 42.3432 8.24223 42.3432H20.5332C20.3007 41.2885 20.1844 40.1923 20.1844 39.0712C20.1844 34.57 22.1278 30.5173 25.2254 27.7186L24.0212 26.0161L13.8313 26.1407Z" fill="#50E6FF"/>
<path d="M48.1464 38.9963C48.1464 42.451 46.7595 45.5736 44.5172 47.8657C44.3179 48.0733 43.8943 48.4554 43.8943 48.4554L27.1603 48.555C27.1603 48.555 26.853 48.281 26.7035 48.1398C24.2868 45.8311 22.792 42.5922 22.792 38.9963C22.792 32.012 28.4724 26.3398 35.465 26.3398C42.4742 26.3481 48.1464 32.012 48.1464 38.9963Z" fill="#50E6FF"/>
<path d="M35.4899 26.3315C28.489 26.3315 22.8169 31.9954 22.8169 38.988C22.8169 42.3182 24.1124 45.3577 26.2218 47.6083C26.5291 47.9405 26.8613 48.2561 27.2018 48.555L28.6551 47.1017L30.1583 45.5985C29.8012 45.3162 29.4773 44.9923 29.17 44.6601L27.6669 46.1633C26.8364 45.258 26.172 44.2366 25.6986 43.1154C25.2585 42.069 24.9844 40.9811 24.9014 39.8517H26.6205C26.5956 39.5693 26.5789 39.2786 26.5789 38.988C26.5789 38.8219 26.5872 38.6558 26.5956 38.4897H24.8765C24.9346 37.2274 25.2087 36.0149 25.6986 34.8605C26.1388 33.8141 26.745 32.8508 27.4925 32.0037L28.7133 33.2245C29.0122 32.884 29.3278 32.5518 29.6766 32.2611L28.4558 31.0403C29.3195 30.2763 30.2912 29.67 31.3542 29.2133C32.5002 28.7233 33.7127 28.4576 34.9584 28.3911V30.1019C35.1328 30.0936 35.3155 30.0853 35.4899 30.0853C35.7723 30.0853 36.0463 30.1019 36.3204 30.1268V28.4077C37.4582 28.4991 38.571 28.7648 39.6257 29.205C40.7551 29.6784 41.7766 30.3427 42.6818 31.1732L41.4693 32.3857C41.8098 32.693 42.1254 33.0169 42.4078 33.374L43.6286 32.1532C44.3096 32.967 44.8743 33.8722 45.2895 34.8522C45.7795 36.0066 46.0536 37.2274 46.1117 38.4814H44.3926C44.4009 38.6475 44.4092 38.8136 44.4092 38.9797C44.4092 39.2703 44.3926 39.561 44.3677 39.8434H46.0868C45.9954 40.9728 45.7297 42.069 45.2895 43.1071C44.8411 44.1701 44.2265 45.1335 43.4625 45.9972L41.9676 44.5023C41.6687 44.8428 41.3448 45.1667 41.0043 45.4657L42.4991 46.9605L43.9442 48.4055C44.2846 48.0983 44.6085 47.7827 44.9075 47.4422C46.9339 45.1999 48.163 42.2351 48.163 38.9714C48.163 32.0037 42.4825 26.3315 35.4899 26.3315Z" fill="#0078D4"/>
<path d="M37.2756 38.3901C37.9649 39.0794 37.9649 40.1922 37.2756 40.8815C36.5863 41.5708 35.4734 41.5708 34.7841 40.8815C34.0949 40.1922 30.7563 34.3706 30.7563 34.3706C30.7563 34.3706 36.5863 37.7091 37.2756 38.3901Z" fill="#0078D4"/>
</svg>
