<svg data-slug-id="object03" viewBox="0 0 48 49" xmlns="http://www.w3.org/2000/svg">
<path d="M0 40.6373H48V7.8457H0V40.6373Z" fill="#0078D4"/>
<path d="M35.318 16.6973C31.1411 16.6973 27.7474 20.0825 27.7474 24.2678C27.7474 26.2383 28.4969 28.032 29.7348 29.3794H18.0043C19.2422 28.032 19.9916 26.2383 19.9916 24.2678C19.9916 20.091 16.6064 16.6973 12.4211 16.6973C8.24427 16.6973 4.85059 20.0825 4.85059 24.2678C4.85059 28.4531 8.23585 31.8383 12.4211 31.8383C12.5727 31.8383 12.7243 31.8299 12.8758 31.8215H34.8464C34.998 31.8299 35.1495 31.8383 35.3011 31.8383C39.478 31.8383 42.8716 28.4531 42.8716 24.2678C42.8716 20.0825 39.4948 16.6973 35.318 16.6973ZM7.38532 24.2594C7.38532 21.4804 9.65059 19.2152 12.4295 19.2152C15.2085 19.2152 17.4737 21.4804 17.4737 24.2594C17.4737 27.0383 15.2085 29.3036 12.4295 29.3036C9.65059 29.3036 7.38532 27.0467 7.38532 24.2594ZM35.318 29.3036C32.539 29.3036 30.2737 27.0383 30.2737 24.2594C30.2737 21.4804 32.539 19.2152 35.318 19.2152C38.0969 19.2152 40.3622 21.4804 40.3622 24.2594C40.3622 27.0383 38.0969 29.3036 35.318 29.3036Z" fill="#50E6FF"/>
</svg>
