<svg data-slug-id="object11" viewBox="0 0 49 49" xmlns="http://www.w3.org/2000/svg">
<path d="M42.1944 22.7986H37.417V12.3839H25.1869V7.22438C25.1869 4.07132 22.6072 1.396 19.3586 1.396C16.1099 1.396 13.5302 3.97577 13.5302 7.22438V12.3839H1.49121V22.7986H5.79084C8.9439 22.7986 11.6192 25.3784 11.6192 28.627C11.6192 31.78 9.03945 34.4554 5.79084 34.4554H1.49121V48.2142H13.6257V43.5324C13.6257 40.3793 16.2055 37.704 19.4541 37.704C22.7027 37.704 25.2825 40.2837 25.2825 43.5324V48.2142H37.417V34.3598H42.1944C45.3474 34.3598 48.0227 31.78 48.0227 28.5314C47.9272 25.3784 45.3474 22.7986 42.1944 22.7986Z" fill="#0078D4"/>
</svg>
