<svg data-slug-id="object02" viewBox="0 0 49 49" xmlns="http://www.w3.org/2000/svg">
<path d="M14.0947 28.7762C13.4921 28.7762 12.9554 28.3303 12.8728 27.7111C12.7903 27.1497 13.104 26.6213 13.5994 26.3984C13.5251 25.9278 13.038 25.0692 12.5013 24.9288C8.90993 23.9876 6.11938 22.8318 4.17094 20.2476C2.1482 17.5727 1.24829 13.6593 1.24829 7.56629C1.24829 6.88104 1.80145 6.32788 2.4867 6.32788H14.4828C15.168 6.32788 15.7212 6.88104 15.7212 7.56629C15.7212 8.25155 15.168 8.8047 14.4828 8.8047H3.74163C3.84896 13.5519 4.62503 16.7388 6.1524 18.7533C7.67978 20.7678 9.95845 21.6924 13.137 22.5346C14.9369 23.0052 16.1753 25.1352 16.0845 26.7204C16.0184 27.8185 15.3084 28.6193 14.2764 28.7679C14.2186 28.7762 14.1525 28.7762 14.0947 28.7762Z" fill="#50E6FF"/>
<path d="M36.4275 28.5863C36.3697 28.5863 36.3119 28.5863 36.2541 28.5698C35.0487 28.3964 34.2149 27.4139 34.1405 26.0517C34.0993 25.3416 34.2726 24.6068 34.6277 23.9876C35.057 23.2528 35.7092 22.7327 36.4853 22.5346C39.6639 21.7007 41.9425 20.776 43.4699 18.7533C44.9973 16.7305 45.7734 13.5519 45.8807 8.8047H35.1395C34.4543 8.8047 33.9011 8.25155 33.9011 7.56629C33.9011 6.88104 34.4543 6.32788 35.1395 6.32788H47.1356C47.8209 6.32788 48.374 6.88104 48.374 7.56629C48.374 13.6593 47.4741 17.5727 45.4514 20.2476C43.5029 22.8235 40.7124 23.9876 37.121 24.9288C36.8651 24.9949 36.733 25.3004 36.6834 25.4324C36.5761 25.7462 36.6091 26.0186 36.6587 26.126C37.3109 26.2498 37.7567 26.8607 37.6576 27.5212C37.5668 28.1404 37.0384 28.5863 36.4275 28.5863Z" fill="#50E6FF"/>
<path d="M40.9352 1.48413H8.68701C8.68701 14.9003 10.5859 24.5929 18.3549 28.3412C21.0216 29.6291 22.7471 32.2876 22.7471 35.2515V37.5714C22.7471 39.1319 20.6583 43.6232 19.0897 43.6232H17.9338V46.6449H31.804V43.6149H30.8628C29.3024 43.6149 27.2054 39.1318 27.2054 37.5632V35.3836C27.2054 32.4031 28.9639 29.7199 31.6719 28.4733C39.606 24.8488 40.9352 14.9746 40.9352 1.48413Z" fill="#0078D4"/>
<path d="M33.3645 43.4976H16.2661V46.8908H33.3645V43.4976Z" fill="#50E6FF"/>
<path d="M35.9734 45.8179H13.6489V48.4598H35.9734V45.8179Z" fill="#0078D4"/>
</svg>
