<svg data-slug-id="object17" viewBox="0 0 48 48" xmlns="http://www.w3.org/2000/svg">
<path d="M4.77051 35.0153V12.9763L23.8568 1.95264L42.9513 12.9763V35.0153L23.8568 46.0389L4.77051 35.0153Z" fill="#50E6FF"/>
<path d="M23.8571 3.37162L41.7131 13.6816V34.3017L23.8571 44.6199L6.00116 34.3099V13.6898L23.8571 3.37162ZM23.8571 0.533691L22.6268 1.24727L4.77084 11.5573L3.54053 12.2709V13.6898V34.3099V35.7289L4.77084 36.4425L22.6268 46.7525L23.8571 47.4661L25.0874 46.7525L42.9434 36.4425L44.1737 35.7289V34.3099V13.6898V12.2627L42.9434 11.5491L25.0874 1.24727L23.8571 0.533691Z" fill="#0078D4"/>
<path d="M24.5951 23.9343H23.3647V45.2926H24.5951V23.9343Z" fill="#0078D4"/>
<path d="M41.9596 12.8685L23.4634 23.5476L24.0785 24.6131L42.5748 13.9339L41.9596 12.8685Z" fill="#0078D4"/>
<path d="M6.01164 12.8706L5.39648 13.936L23.8927 24.6152L24.5079 23.5497L6.01164 12.8706Z" fill="#0078D4"/>
<path d="M14.3096 29.5118V18.48L23.8568 12.96L33.4122 18.48V29.5118L23.8568 35.0318L14.3096 29.5118Z" fill="#50E6FF"/>
<path d="M24.5379 23.9673H23.3076V34.6628H24.5379V23.9673Z" fill="#0078D4"/>
<path d="M32.7662 18.161L23.5039 23.5088L24.1191 24.5742L33.3814 19.2265L32.7662 18.161Z" fill="#0078D4"/>
<path d="M15.0795 18.1577L14.4644 19.2231L23.7267 24.5709L24.3418 23.5055L15.0795 18.1577Z" fill="#0078D4"/>
<path d="M14.8018 18.3569L24.0127 13.0747L33.2729 18.7506L23.8815 23.7702L14.8018 18.3569Z" fill="white"/>
<path d="M33.4945 18.9229L24.2344 24.205L24.2754 34.4658L33.4043 29.6184L33.4945 18.9229Z" fill="#0078D4"/>
<path d="M23.8571 13.4053L33.0297 18.6984V29.2931L23.8571 34.5862L14.6846 29.2931V18.6984L23.8571 13.4053ZM23.8571 11.9495L23.226 12.3113L14.0535 17.6044L13.4224 17.9663V18.6984V29.2931V30.0252L14.0535 30.3871L23.226 35.6802L23.8571 36.042L24.4883 35.6802L33.6608 30.3871L34.2919 30.0252V29.2931V18.6984V17.9663L33.6608 17.6044L24.4883 12.3113L23.8571 11.9495Z" fill="#0078D4"/>
</svg>
