<svg data-slug-id="object21" viewBox="0 0 49 49" xmlns="http://www.w3.org/2000/svg">
<path d="M35.9082 1.74168L22.6147 15.0352L23.4633 15.8837L36.7567 2.5902L35.9082 1.74168Z" fill="#0078D4"/>
<path d="M10.2435 1.69372L9.39502 2.54224L22.6885 15.8357L23.537 14.9872L10.2435 1.69372Z" fill="#0078D4"/>
<path d="M23.1189 21.6017C26.5431 21.6017 29.3189 18.8258 29.3189 15.4017C29.3189 11.9775 26.5431 9.20166 23.1189 9.20166C19.6948 9.20166 16.9189 11.9775 16.9189 15.4017C16.9189 18.8258 19.6948 21.6017 23.1189 21.6017Z" fill="#0078D4"/>
<path d="M35.8095 16.1018C35.5487 22.8061 30.0662 28.3018 23.1192 28.3018C16.1629 28.3018 10.4992 22.7971 10.2293 16.1018H35.8095Z" fill="#50E6FF" stroke="white"/>
<path d="M41.1661 27.1655C37.2075 33.2006 30.4958 37.3016 22.8647 37.3016C15.2258 37.3016 8.32937 33.194 4.55392 27.1712L22.8647 16.1847L41.1661 27.1655Z" fill="#50E6FF" stroke="white"/>
<path d="M17.1963 45.7858L17.1963 45.7857L17.1859 45.7791C13.5893 43.5075 12.0556 39.1444 13.0003 35.1388L13.5779 33.406L16.9539 27.4483L16.9539 27.4483L16.9567 27.4433L22.9189 16.6368L28.8811 27.4433L28.8811 27.4434L28.8839 27.4483L32.2599 33.406L32.5446 34.2599L32.8446 35.1599L32.8558 35.1936L32.8717 35.2254C33.2116 35.9052 33.2189 36.5892 33.2189 37.4018C33.2189 40.6312 31.5053 43.8766 28.6416 45.7858C26.9252 46.93 25.022 47.5018 22.9189 47.5018C21.0111 47.5018 18.9088 46.9275 17.1963 45.7858Z" fill="#0078D4" stroke="white"/>
<path d="M33.3732 35.0017C30.3732 36.6017 26.7732 37.6017 22.9732 37.6017C19.1732 37.6017 15.7732 36.6017 12.5732 35.0017C12.7732 34.4017 12.9732 33.8017 13.1732 33.2017L16.5732 27.2017C18.5732 28.2017 20.5732 28.8017 22.9732 28.8017C25.3732 28.8017 27.5732 28.2017 29.3732 27.2017L32.7732 33.2017C32.9732 33.8017 33.1732 34.4017 33.3732 35.0017Z" fill="white"/>
<path d="M36.3191 4.40171C37.5342 4.40171 38.5191 3.41674 38.5191 2.20171C38.5191 0.986683 37.5342 0.00170898 36.3191 0.00170898C35.1041 0.00170898 34.1191 0.986683 34.1191 2.20171C34.1191 3.41674 35.1041 4.40171 36.3191 4.40171Z" fill="#0078D4"/>
<path d="M9.71904 4.40171C10.9341 4.40171 11.919 3.41674 11.919 2.20171C11.919 0.986683 10.9341 0.00170898 9.71904 0.00170898C8.50402 0.00170898 7.51904 0.986683 7.51904 2.20171C7.51904 3.41674 8.50402 4.40171 9.71904 4.40171Z" fill="#0078D4"/>
</svg>
