<svg data-slug-id="object10" viewBox="0 0 49 45" xmlns="http://www.w3.org/2000/svg">
<path d="M48.269 35.7537H0.269043V44.6858H48.269V35.7537Z" fill="#0078D4"/>
<path d="M23.6152 5.26591C28.8055 5.26591 33.533 7.19718 37.134 10.3757L40.9765 6.79483C36.4199 2.60036 30.3243 0.0354004 23.6152 0.0354004C16.8759 0.0354004 10.73 2.63054 6.15332 6.88536L10.0159 10.4461C13.6269 7.22735 18.3947 5.26591 23.6152 5.26591Z" fill="#0078D4"/>
<path d="M12.752 12.9609L15.4779 15.4655C17.7008 13.6952 20.5273 12.6289 23.6053 12.6289C26.653 12.6289 29.4594 13.675 31.6824 15.4252L34.3882 12.9005C31.4711 10.4462 27.7092 8.95752 23.6053 8.95752C19.4611 8.95752 15.669 10.4663 12.752 12.9609Z" fill="#0078D4"/>
<path d="M18.2236 18.0002L19.6017 19.2676C20.7584 18.5534 22.1264 18.1309 23.5849 18.1309C25.0434 18.1309 26.4013 18.5433 27.548 19.2474L28.916 17.97C27.4072 16.9239 25.5665 16.3103 23.5849 16.3103C21.5933 16.3103 19.7425 16.9339 18.2236 18.0002Z" fill="#50E6FF"/>
<path d="M23.5651 26.7712C25.1872 26.7712 26.5022 25.4562 26.5022 23.8341C26.5022 22.212 25.1872 20.897 23.5651 20.897C21.9429 20.897 20.6279 22.212 20.6279 23.8341C20.6279 25.4562 21.9429 26.7712 23.5651 26.7712Z" fill="#0078D4"/>
<path d="M6.40491 41.0649H3.61865L4.73517 21.7522H5.28839L6.40491 41.0649Z" fill="#0078D4"/>
<path d="M44.9196 35.9247H42.1333L43.2498 16.6121H43.803L44.9196 35.9247Z" fill="#0078D4"/>
<path d="M5.01652 42.151C6.17201 42.151 7.10873 41.2143 7.10873 40.0588C7.10873 38.9033 6.17201 37.9666 5.01652 37.9666C3.86103 37.9666 2.92432 38.9033 2.92432 40.0588C2.92432 41.2143 3.86103 42.151 5.01652 42.151Z" fill="#50E6FF"/>
<path d="M45.1609 41.1754C45.7776 41.1754 46.2775 40.6755 46.2775 40.0589C46.2775 39.4423 45.7776 38.9424 45.1609 38.9424C44.5443 38.9424 44.0444 39.4423 44.0444 40.0589C44.0444 40.6755 44.5443 41.1754 45.1609 41.1754Z" fill="white"/>
<path d="M41.0169 41.1754C41.6335 41.1754 42.1334 40.6755 42.1334 40.0589C42.1334 39.4423 41.6335 38.9424 41.0169 38.9424C40.4003 38.9424 39.9004 39.4423 39.9004 40.0589C39.9004 40.6755 40.4003 41.1754 41.0169 41.1754Z" fill="white"/>
<path d="M36.2088 41.1754C36.8254 41.1754 37.3253 40.6755 37.3253 40.0589C37.3253 39.4423 36.8254 38.9424 36.2088 38.9424C35.5922 38.9424 35.0923 39.4423 35.0923 40.0589C35.0923 40.6755 35.5922 41.1754 36.2088 41.1754Z" fill="white"/>
</svg>
