<svg data-slug-id="object19" viewBox="0 0 48 49" xmlns="http://www.w3.org/2000/svg">
<path d="M22.7606 40.2243C21.2277 38.2756 20.3127 35.8202 20.3127 33.1543C20.3127 26.8382 25.4499 21.7002 31.7651 21.7002C34.4861 21.7002 36.9883 22.6553 38.9553 24.2467V5.91455H6.70947V40.2243H22.7606Z" fill="#50E6FF"/>
<path d="M39.4211 24.6418C40.0231 25.1845 40.5674 25.7889 41.0442 26.4468C41.2137 26.6806 41.5827 26.5646 41.5827 26.2757V0.421875H38.9561V5.91307H39.4219V24.6418H39.4211Z" fill="#0078D4"/>
<path d="M23.2963 40.8557H6.31089V5.91307H6.70998V0.421875H4.08252V42.705H24.5328C24.8167 42.705 24.9377 42.3477 24.714 42.1724C24.2055 41.7741 23.7313 41.3333 23.2963 40.8557Z" fill="#0078D4"/>
<path d="M6.31089 40.8572H23.2971C23.1109 40.6526 22.9323 40.4414 22.7611 40.2243H6.70915V5.91455H6.31006V40.8572H6.31089Z" fill="#0078D4"/>
<path d="M39.421 24.6432V5.91455H38.9551V24.2467C39.1137 24.3744 39.2698 24.5072 39.421 24.6432Z" fill="#0078D4"/>
<path d="M16.552 7.91406H5.43018V10.4221H16.552V7.91406Z" fill="#0078D4"/>
<path d="M5.8617 0.421875H1.55273V2.92994H5.8617V0.421875Z" fill="#0078D4"/>
<path d="M43.9003 0.421875H39.5913V2.92994H43.9003V0.421875Z" fill="#0078D4"/>
<path d="M16.552 15.4297H5.43018V17.9378H16.552V15.4297Z" fill="#0078D4"/>
<path d="M16.552 22.9414H5.43018V25.4495H16.552V22.9414Z" fill="#0078D4"/>
<path d="M16.552 30.4578H5.43018V32.9658H16.552V30.4578Z" fill="#0078D4"/>
<path d="M40.7128 33.1564C40.7128 28.2196 36.7011 24.207 31.7651 24.207C26.8291 24.207 22.8174 28.2196 22.8174 33.1564C22.8174 38.0932 26.8291 42.1058 31.7651 42.1058C33.718 42.1058 35.5306 41.4813 36.9908 40.4251L44.6453 48.002L46.5021 46.1192L38.8827 38.5775C40.0357 37.0722 40.7128 35.1886 40.7128 33.1564ZM31.7651 39.4658C28.281 39.4658 25.4482 36.6322 25.4482 33.1472C25.4482 29.6623 28.281 26.8286 31.7651 26.8286C35.2492 26.8286 38.082 29.6623 38.082 33.1472C38.082 36.6322 35.2492 39.4658 31.7651 39.4658Z" fill="#0078D4"/>
</svg>
