<svg data-slug-id="object05" viewBox="0 0 48 49" xmlns="http://www.w3.org/2000/svg">
<path d="M35.0038 39.2173H11.458C9.80153 39.2173 8.5 37.8996 8.5 36.2225V12.384C8.5 10.7069 9.80153 9.38916 11.458 9.38916H35.0038C36.6603 9.38916 37.9618 10.7069 37.9618 12.384V36.2225C38.0802 37.8996 36.6603 39.2173 35.0038 39.2173Z" fill="#0078D7"/>
<path d="M32.7551 35.0233H13.8238C13.1139 35.0233 12.6406 34.4243 12.6406 33.8254V14.7785C12.6406 14.0597 13.2322 13.5806 13.8238 13.5806H32.6368C33.3467 13.5806 33.82 14.1795 33.82 14.7785V33.8254C33.82 34.5441 33.3467 35.0233 32.7551 35.0233Z" fill="#50E6FF"/>
<path d="M31.454 1.48291H15.0074L13.1143 10.1079H33.4654L31.454 1.48291Z" fill="#0078D7"/>
<path d="M15.0074 47.4803H31.454L33.3471 38.6157H13.1143L15.0074 47.4803Z" fill="#0078D7"/>
<path d="M39.4997 17.1743H37.4883V19.3306H39.4997V17.1743Z" fill="#0078D7"/>
<path d="M39.4997 29.272H37.4883V31.4282H39.4997V29.272Z" fill="#0078D7"/>
</svg>
