<svg data-slug-id="object08" viewBox="0 0 49 49" xmlns="http://www.w3.org/2000/svg">
<path d="M32.5087 24.6396L36.6557 20.699C40.3898 16.9649 45.6439 7.99535 41.9098 4.26118C38.1756 0.527014 29.2061 5.79988 25.4719 9.51529L2.5415 33.6466L12.5431 43.6482L27.4422 29.4809V24.6584H32.5087V24.6396Z" fill="#0078D4"/>
<path d="M16.5774 45.1495L14.5508 43.1229L17.3092 40.3645L22.5445 37.137L23.5766 38.169L16.5774 45.1495Z" fill="#0078D4"/>
<path d="M6.3695 31.8455C6.3132 31.883 6.23814 31.9205 6.16309 31.9205C6.21938 31.9205 6.29444 31.9018 6.3695 31.8455Z" fill="#0078D4"/>
<path d="M33.5594 16.7209C35.8187 16.7209 37.6501 14.8895 37.6501 12.6302C37.6501 10.371 35.8187 8.53955 33.5594 8.53955C31.3002 8.53955 29.4688 10.371 29.4688 12.6302C29.4688 14.8895 31.3002 16.7209 33.5594 16.7209Z" fill="#50E6FF"/>
<path d="M14.8772 33.3177L12.8472 31.2876L4.5809 39.5539L6.61098 41.5839L14.8772 33.3177Z" fill="#50E6FF"/>
<path d="M19.092 42.0722H25.8098C26.6166 42.0722 27.2922 41.4154 27.2922 40.6086V30.9072L17.3281 40.3083L19.092 42.0722Z" fill="#0078D4"/>
<path d="M27.2358 43.9673C27.2358 43.986 27.217 44.0048 27.217 44.0236C27.217 44.0048 27.2358 43.986 27.2358 43.9673Z" fill="#0078D4"/>
<path d="M27.2358 43.9487C27.2734 43.8173 27.2921 43.6672 27.2921 43.5359V42.8604V43.5359C27.3109 43.686 27.2734 43.8173 27.2358 43.9487Z" fill="#0078D4"/>
<path d="M27.2171 44.0235C27.0107 44.6052 26.4665 45.018 25.8098 45.018H19.8614C19.3735 45.018 18.9044 44.8304 18.5478 44.4739L15.8645 41.7905L18.8293 44.7366C18.9982 44.9055 19.2421 44.9993 19.4861 44.9993H25.8285C26.4665 45.018 27.0107 44.5865 27.2171 44.0235Z" fill="#50E6FF"/>
<path d="M25.8098 42.0723H19.0921L17.3469 40.3271L15.8833 41.7908L18.5666 44.4741C18.9044 44.8119 19.3923 45.0183 19.8802 45.0183H25.8286C26.4666 45.0183 27.0295 44.6055 27.2359 44.0238C27.2359 44.005 27.2547 43.9863 27.2547 43.9675V43.9487C27.2922 43.8174 27.311 43.6673 27.311 43.5359V42.8604V40.6086C27.2922 41.4155 26.6355 42.0723 25.8098 42.0723Z" fill="#50E6FF"/>
<path d="M1.02148 29.5937L3.06683 31.639L5.82524 28.8619L9.03399 23.6265L8.0207 22.5945L1.02148 29.5937Z" fill="#0078D4"/>
<path d="M4.09912 27.0791V20.3613C4.09912 19.5544 4.75588 18.8789 5.56276 18.8789H15.2641L5.863 28.8429L4.09912 27.0791Z" fill="#0078D4"/>
<path d="M2.20375 18.9541C2.18499 18.9541 2.16623 18.9729 2.14746 18.9729C2.18499 18.9541 2.18499 18.9541 2.20375 18.9541Z" fill="#0078D4"/>
<path d="M2.22266 18.9352C2.35401 18.8977 2.50413 18.8789 2.63548 18.8789H3.31101H2.63548C2.50413 18.8789 2.35401 18.8977 2.22266 18.9352Z" fill="#0078D4"/>
<path d="M2.16616 18.9727C1.58445 19.1791 1.17163 19.7232 1.17163 20.38V26.3284C1.17163 26.8163 1.35928 27.2854 1.71581 27.6419L4.39915 30.3253L1.43434 27.3605C1.26545 27.1916 1.17163 26.9476 1.17163 26.7037V20.3612C1.17163 19.7232 1.58445 19.1603 2.16616 18.9727Z" fill="#50E6FF"/>
<path d="M4.09892 20.3613V27.0791L5.84403 28.8242L4.38039 30.2878L1.71581 27.6232C1.37804 27.2855 1.17163 26.7976 1.17163 26.3097V20.3613C1.17163 19.7233 1.58445 19.1604 2.16616 18.954C2.18492 18.954 2.20369 18.9352 2.22245 18.9352H2.24122C2.37257 18.8977 2.52269 18.8789 2.65404 18.8789H3.32957H5.58133C4.75568 18.8789 4.09892 19.5544 4.09892 20.3613Z" fill="#50E6FF"/>
<path d="M31.1952 25.4465H28.1929V28.4489H31.1952V25.4465Z" fill="#50E6FF"/>
<path d="M47.2388 25.4465H33.2029V28.4489H47.2388V25.4465Z" fill="#0078D4"/>
<path d="M31.1952 30.4568H28.1929V33.4591H31.1952V30.4568Z" fill="#50E6FF"/>
<path d="M47.2388 30.4568H33.2029V33.4591H47.2388V30.4568Z" fill="#0078D4"/>
<path d="M31.1952 35.4668H28.1929V38.4691H31.1952V35.4668Z" fill="#50E6FF"/>
<path d="M47.2388 35.4668H33.2029V38.4691H47.2388V35.4668Z" fill="#0078D4"/>
<path d="M31.1952 40.4583H28.1929V43.4606H31.1952V40.4583Z" fill="#50E6FF"/>
<path d="M47.2388 40.4771H33.2029V43.4794H47.2388V40.4771Z" fill="#0078D4"/>
<path d="M47.2388 25.4465H45.2498V28.4489H47.2388V25.4465Z" fill="#50E6FF"/>
<path d="M47.2388 30.4568H45.2498V33.4591H47.2388V30.4568Z" fill="#50E6FF"/>
<path d="M47.2388 35.4668H45.2498V38.4691H47.2388V35.4668Z" fill="#50E6FF"/>
<path d="M47.2388 40.4771H45.2498V43.4794H47.2388V40.4771Z" fill="#50E6FF"/>
</svg>
