<svg data-slug-id="object01" viewBox="0 0 49 49" xmlns="http://www.w3.org/2000/svg">
<path d="M16.3255 40.684L1.0603 47.4416V8.80695L16.3255 2.05737V40.684Z" fill="#0078D7"/>
<path d="M47.0574 40.684L31.8003 47.4416V8.80695L47.0574 2.05737V40.684Z" fill="#0078D7"/>
<path d="M12.5292 16.6423L4.7439 20.1507V12.0199L12.5292 8.51147V16.6423Z" fill="#50E6FF"/>
<path d="M43.619 16.7351L35.5212 20.3844V11.9273L43.619 8.27808V16.7351Z" fill="#50E6FF"/>
<path d="M13.8821 23.5317L3.40698 28.4104V26.0638L13.8821 21.1931V23.5317Z" fill="#50E6FF"/>
<path d="M13.8821 28.3703L3.40698 33.249V30.9024L13.8821 26.0317V28.3703Z" fill="#50E6FF"/>
<path d="M13.8821 33.2092L3.40698 38.0879V35.7413L13.8821 30.8706V33.2092Z" fill="#50E6FF"/>
<path d="M45.4849 23.5317L35.0098 28.4104V26.0638L45.4849 21.1931V23.5317Z" fill="#50E6FF"/>
<path d="M45.4849 28.3703L35.0098 33.249V30.9024L45.4849 26.0317V28.3703Z" fill="#50E6FF"/>
<path d="M45.4849 33.2092L35.0098 38.0879V35.7413L45.4849 30.8706V33.2092Z" fill="#50E6FF"/>
<path d="M31.8083 47.4417L16.3237 40.641L16.3352 2.04834L31.8083 8.80692V47.4417Z" fill="#50E6FF"/>
<path d="M18.7849 23.5317L29.2601 28.4104V26.0638L18.7849 21.1931V23.5317Z" fill="#0078D7"/>
<path d="M18.7849 28.3703L29.2601 33.249V30.9024L18.7849 26.0317V28.3703Z" fill="#0078D7"/>
<path d="M18.7849 33.2092L29.2601 38.0879V35.7413L18.7849 30.8706V33.2092Z" fill="#0078D7"/>
<path d="M19.8254 17.086L28.2544 20.8845V12.0766L19.8254 8.27808V17.086Z" fill="#0078D7"/>
</svg>
