<svg data-slug-id="object04" viewBox="0 0 49 49" xmlns="http://www.w3.org/2000/svg">
<path d="M33.2015 25.4326H15.3794L18.0409 48.0387H30.5063L33.2015 25.4326Z" fill="#0078D4"/>
<path d="M15.3794 20.356H33.2015L32.9067 17.8545H15.6742L15.3794 20.356Z" fill="#50E6FF"/>
<path d="M35.5766 21.5771H12.9116V24.1039H35.5766V21.5771Z" fill="#50E6FF"/>
<path d="M22.926 14.399C22.926 14.399 19.1611 12.5713 19.1611 9.90978C19.1611 6.20387 24.4421 6.20387 24.4421 3.39917C24.4421 0.47655 23.0102 0.139648 23.0102 0.139648C23.0102 0.139648 26.7077 0.754493 26.7414 3.39917C26.8004 7.71992 21.6879 7.38302 21.6879 10.9205C21.6963 13.2788 22.926 14.399 22.926 14.399Z" fill="#0078D4"/>
<path d="M25.5706 16.3146C25.5706 16.3146 22.6479 14.4364 22.6479 11.7665C22.6479 8.06054 27.811 7.83313 27.811 4.41358C27.811 1.91209 26.6908 1.44043 26.6908 1.44043C26.6908 1.44043 29.5544 2.51009 29.5544 5.14634C29.5544 10.0567 24.6104 9.1302 24.6104 11.8844C24.6104 14.8744 25.5706 16.3146 25.5706 16.3146Z" fill="#0078D4"/>
</svg>
