<svg data-slug-id="object09" viewBox="0 0 49 49" xmlns="http://www.w3.org/2000/svg">
<path d="M24.5158 24.1107C27.5807 24.1107 30.0653 21.6261 30.0653 18.5612C30.0653 15.4963 27.5807 13.0117 24.5158 13.0117C21.4509 13.0117 18.9663 15.4963 18.9663 18.5612C18.9663 21.6261 21.4509 24.1107 24.5158 24.1107Z" fill="#50E6FF"/>
<path d="M24.5161 0.615723C14.6045 0.615723 6.5708 8.64941 6.5708 18.561C6.5708 28.4726 14.6045 36.5062 24.5161 36.5062C34.4276 36.5062 42.4613 28.4726 42.4613 18.561C42.4529 8.64941 34.4192 0.615723 24.5161 0.615723ZM24.5161 26.6789C20.0276 26.6789 16.3982 23.041 16.3982 18.561C16.3982 14.0726 20.0361 10.4431 24.5161 10.4431C28.9961 10.4431 32.634 14.081 32.634 18.561C32.634 23.0494 28.9961 26.6789 24.5161 26.6789Z" fill="#0078D4"/>
<path d="M24.5158 7.64738C25.5623 7.64738 26.4106 6.79908 26.4106 5.75265C26.4106 4.70621 25.5623 3.85791 24.5158 3.85791C23.4694 3.85791 22.6211 4.70621 22.6211 5.75265C22.6211 6.79908 23.4694 7.64738 24.5158 7.64738Z" fill="#50E6FF"/>
<path d="M24.516 40.3631C19.0087 40.3631 13.9897 38.3084 10.1581 34.9399L6.9834 48.0768H42.0571L38.8823 34.9399C35.0339 38.3084 30.0234 40.3631 24.516 40.3631Z" fill="#0078D4"/>
</svg>
