<svg data-slug-id="object07" viewBox="0 0 49 49" xmlns="http://www.w3.org/2000/svg">
<path d="M34.1759 43.6993H31.6165V40.2215L32.8919 34.907H34.1759V43.6993Z" fill="#0078D4"/>
<path d="M19.3887 41.7607C19.3802 41.8288 19.3462 41.8883 19.3037 41.9393C19.3462 41.8883 19.3802 41.8288 19.3887 41.7607Z" fill="#0078D4"/>
<path d="M24.3972 2.07617C19.7119 2.07617 17.3735 11.0216 17.3735 15.7068L18.1048 45.281H30.6726L31.4038 15.7068C31.4209 11.0216 29.091 2.07617 24.3972 2.07617Z" fill="#0078D4"/>
<path d="M24.3972 16.217C26.4072 16.217 28.0366 14.5876 28.0366 12.5776C28.0366 10.5676 26.4072 8.93823 24.3972 8.93823C22.3872 8.93823 20.7578 10.5676 20.7578 12.5776C20.7578 14.5876 22.3872 16.217 24.3972 16.217Z" fill="#50E6FF"/>
<path d="M25.6557 37.322H23.1047V47.713H25.6557V37.322Z" fill="#50E6FF"/>
<path d="M33.8188 40.1876L38.0449 35.9615C38.5551 35.4513 38.5551 34.618 38.0534 34.1078L31.9651 28.0195L31.6165 40.1876H33.8188Z" fill="#0078D4"/>
<path d="M40.1282 36.259C40.1367 36.276 40.1452 36.2845 40.1452 36.3015C40.1367 36.2845 40.1367 36.276 40.1282 36.259Z" fill="#0078D4"/>
<path d="M40.1196 36.2421C40.0601 36.1315 39.9836 36.0295 39.8985 35.9444L39.4734 35.5193L39.8985 35.9444C39.9836 36.038 40.0601 36.14 40.1196 36.2421Z" fill="#0078D4"/>
<path d="M38.0535 34.1077C38.0535 34.1077 38.062 34.1077 38.0535 34.1077L39.465 35.5192L38.0535 34.1077Z" fill="#50E6FF"/>
<path d="M40.1196 36.2422C40.1196 36.2507 40.1281 36.2507 40.1281 36.2592C40.1196 36.2507 40.1196 36.2507 40.1196 36.2422Z" fill="#50E6FF"/>
<path d="M40.1452 36.3018C40.3748 36.7864 40.2982 37.3987 39.8901 37.8068L36.1487 41.5482C35.8426 41.8544 35.4259 42.0329 34.9837 42.0329H31.6165H35.3239C35.5364 42.0329 35.749 41.9479 35.9021 41.7948L39.8901 37.8068C40.2982 37.3987 40.3748 36.7949 40.1452 36.3018Z" fill="#50E6FF"/>
<path d="M38.0449 35.9614L33.8188 40.1875H31.6165V42.0327H34.9837C35.4174 42.0327 35.8426 41.8626 36.1487 41.548L39.8901 37.8066C40.2982 37.3984 40.3833 36.7947 40.1452 36.3015C40.1367 36.2845 40.1367 36.276 40.1282 36.259C40.1282 36.2505 40.1197 36.2505 40.1197 36.242C40.0602 36.1314 39.9836 36.0294 39.8986 35.9444L39.4734 35.5192L38.0619 34.1077C38.5636 34.6179 38.5636 35.4512 38.0449 35.9614Z" fill="#50E6FF"/>
<path d="M14.6184 43.6993H17.1779V40.2215L15.9024 34.907H14.6184V43.6993Z" fill="#0078D4"/>
<path d="M14.9755 40.1876L10.7494 35.9615C10.2392 35.4513 10.2392 34.618 10.7409 34.1078L16.8292 28.0195L17.1779 40.1876H14.9755Z" fill="#0078D4"/>
<path d="M8.66618 36.259C8.65767 36.276 8.64917 36.2845 8.64917 36.3015C8.65767 36.2845 8.66618 36.276 8.66618 36.259Z" fill="#0078D4"/>
<path d="M8.6748 36.2421C8.73433 36.1315 8.81086 36.0295 8.89589 35.9444L9.32105 35.5193L8.89589 35.9444C8.81086 36.038 8.73433 36.14 8.6748 36.2421Z" fill="#0078D4"/>
<path d="M10.7411 34.1077L9.32104 35.5192L10.7411 34.1077Z" fill="#50E6FF"/>
<path d="M8.67476 36.2422C8.67476 36.2507 8.66626 36.2507 8.66626 36.2592C8.67476 36.2507 8.67476 36.2507 8.67476 36.2422Z" fill="#50E6FF"/>
<path d="M8.64931 36.3018C8.41973 36.7864 8.49625 37.3987 8.90441 37.8068L12.6458 41.5482C12.9519 41.8544 13.3686 42.0329 13.8108 42.0329H17.178H13.4706C13.2581 42.0329 13.0455 41.9479 12.8924 41.7948L8.90441 37.8068C8.50476 37.3987 8.41973 36.7949 8.64931 36.3018Z" fill="#50E6FF"/>
<path d="M10.7494 35.9614L14.9755 40.1875H17.1779V42.0327H13.8106C13.3769 42.0327 12.9518 41.8626 12.6457 41.548L8.90425 37.8066C8.4961 37.3984 8.41106 36.7947 8.64915 36.3015C8.65766 36.2845 8.65766 36.276 8.66616 36.259C8.66616 36.2505 8.67466 36.2505 8.67466 36.242C8.73419 36.1314 8.81072 36.0294 8.89575 35.9444L9.32091 35.5192L10.7324 34.1077C10.2308 34.6179 10.2393 35.4512 10.7494 35.9614Z" fill="#50E6FF"/>
</svg>
