<svg data-slug-id="object15" viewBox="0 0 49 49" xmlns="http://www.w3.org/2000/svg">
<path d="M39.8254 35.6511L32.1319 35.6593L27.1971 43.0491C26.3678 44.2971 27.2546 45.9639 28.7572 45.9639H43.4956C45.0146 45.9639 45.9014 44.2479 45.0311 43.008L39.8254 35.6511Z" fill="#50E6FF"/>
<path d="M47.6174 42.8684L38.413 29.6407V19.6235H39.9813V17.9731H38.413H31.442V19.6235H33.117V29.8706L24.4792 42.9423C23.0177 45.1263 24.586 48.0658 27.2134 48.0658H44.9242C47.6009 48.0576 49.161 45.0525 47.6174 42.8684ZM43.4873 45.9639H28.7489C27.2463 45.9639 26.3595 44.2888 27.1888 43.049L32.1235 35.6593L39.8171 35.6511L45.0145 43.008C45.8931 44.2478 45.0063 45.9639 43.4873 45.9639Z" fill="#0078D4"/>
<path d="M31.0727 21.6433C30.1202 21.4627 29.3977 20.6334 29.3977 19.6235V17.9731C29.3977 16.84 30.3173 15.9204 31.4504 15.9204H38.4214V1.16553H26.0641V13.4736H13.7889V25.7898H1.56299V38.065L25.2102 38.1143L31.0809 29.2466V21.6433H31.0727Z" fill="#0078D4"/>
</svg>
