<svg data-slug-id="parameters04" viewBox="0 0 49 49" xmlns="http://www.w3.org/2000/svg">
<path d="M43.2474 13.3251H5.7225C3.00157 13.3251 0.818848 11.1424 0.818848 8.45139C0.818848 5.73045 3.00157 3.54773 5.7225 3.54773H43.2773C45.9684 3.54773 48.181 5.73045 48.181 8.45139C48.1511 11.1424 45.9684 13.3251 43.2474 13.3251Z" fill="#0078D4"/>
<path d="M27.3108 13.3253H21.5101C18.8191 13.3253 16.6064 11.1425 16.6064 8.4216C16.6064 5.73057 18.7892 3.51794 21.5101 3.51794H27.3108C30.0018 3.51794 32.2144 5.70067 32.2144 8.4216C32.1845 11.1425 30.0018 13.3253 27.3108 13.3253Z" fill="#50E6FF"/>
<path d="M43.2474 29.1424H5.7225C3.00157 29.1424 0.818848 26.9597 0.818848 24.2387C0.818848 21.5477 3.00157 19.3351 5.7225 19.3351H43.2773C45.9684 19.3351 48.181 21.5178 48.181 24.2387C48.1511 26.9597 45.9684 29.1424 43.2474 29.1424Z" fill="#0078D4"/>
<path d="M11.6727 29.1424H5.7225C3.00157 29.1424 0.818848 26.9597 0.818848 24.2387C0.818848 21.5477 3.00157 19.3351 5.7225 19.3351H11.6727C14.3637 19.3351 16.5763 21.5178 16.5763 24.2387C16.5464 26.9597 14.3637 29.1424 11.6727 29.1424Z" fill="#50E6FF"/>
<path d="M5.7225 35.0029H43.2773C45.9684 35.0029 48.181 37.1857 48.181 39.9066C48.181 42.5976 45.9983 44.8102 43.2773 44.8102H5.7225C3.03147 44.8102 0.818848 42.6275 0.818848 39.9066C0.818848 37.1857 3.00157 35.0029 5.7225 35.0029Z" fill="#0078D4"/>
<path d="M37.2975 35.0029H43.2476C45.9387 35.0029 48.1513 37.1857 48.1513 39.9066C48.1513 42.5976 45.9686 44.8102 43.2476 44.8102H37.2975C34.6064 44.8102 32.3938 42.6275 32.3938 39.9066C32.4237 37.1857 34.6064 35.0029 37.2975 35.0029Z" fill="#50E6FF"/>
</svg>
