<svg data-slug-id="parameters06" viewBox="0 0 49 49" xmlns="http://www.w3.org/2000/svg">
<path d="M40.0357 3.71106L22.0918 30.2443L25.0086 32.2183L42.9525 5.68514L40.0357 3.71106Z" fill="#50E6FF"/>
<path d="M39.9148 11.6719C42.5415 11.6719 44.6687 9.54469 44.6687 6.91796C44.6687 4.29123 42.5415 2.16406 39.9148 2.16406C37.2881 2.16406 35.1609 4.29123 35.1609 6.91796C35.1609 9.54469 37.2881 11.6719 39.9148 11.6719Z" fill="#1F1D21"/>
<path d="M23.7678 25.6677C27.6837 25.6677 30.8503 28.794 30.9389 32.6616H35.4672C35.3383 26.2801 30.1412 21.1797 23.7678 21.1797C17.3863 21.1797 12.1973 26.2801 12.0684 32.6213H16.5966C16.6853 28.7456 19.8519 25.6677 23.7678 25.6677Z" fill="#1F1D21"/>
<path d="M23.7676 25.6677C19.8516 25.6677 16.6851 28.794 16.5964 32.6616H18.5302C18.6591 29.8495 20.9475 27.6015 23.7676 27.6015C26.5796 27.6015 28.9163 29.8415 29.0049 32.6616H30.9387C30.8017 28.7457 27.6351 25.6677 23.7676 25.6677Z" fill="#E7E8EA"/>
<path d="M23.7676 27.6014C20.9556 27.6014 18.6189 29.8414 18.5303 32.6615H29.0452C28.9163 29.8495 26.5797 27.6014 23.7676 27.6014Z" fill="#1F1D21"/>
<path d="M40.0357 3.71106L22.0918 30.2443L25.0086 32.2183L42.9525 5.68514L40.0357 3.71106Z" fill="#0078D4"/>
<path d="M39.9148 11.6719C42.5415 11.6719 44.6687 9.54469 44.6687 6.91796C44.6687 4.29123 42.5415 2.16406 39.9148 2.16406C37.2881 2.16406 35.1609 4.29123 35.1609 6.91796C35.1609 9.54469 37.2881 11.6719 39.9148 11.6719Z" fill="#0078D4"/>
<path d="M23.7678 25.6677C27.6837 25.6677 30.8503 28.794 30.9389 32.6616H35.4672C35.3383 26.2801 30.1412 21.1797 23.7678 21.1797C17.3863 21.1797 12.1973 26.2801 12.0684 32.6213H16.5966C16.6853 28.7456 19.8519 25.6677 23.7678 25.6677Z" fill="#50E6FF"/>
<path d="M23.7676 25.6677C19.8516 25.6677 16.6851 28.794 16.5964 32.6616H18.5302C18.6591 29.8495 20.9475 27.6015 23.7676 27.6015C26.5796 27.6015 28.9163 29.8415 29.0049 32.6616H30.9387C30.8017 28.7457 27.6351 25.6677 23.7676 25.6677Z" fill="#0078D4"/>
<path d="M23.7676 27.6014C20.9556 27.6014 18.6189 29.8414 18.5303 32.6615H29.0452C28.9163 29.8495 26.5797 27.6014 23.7676 27.6014Z" fill="#50E6FF"/>
<path d="M47.1423 34.4906V31.9364H1.27124V34.4906H47.1423Z" fill="#0078D4"/>
<path d="M47.0859 36.8676H1.14233V46.5446H47.0859V36.8676Z" fill="#0078D4"/>
<path d="M22.3577 41.831C22.3577 41.0655 21.7372 40.4451 20.9718 40.4451H4.42983C3.66437 40.4451 3.04395 41.0655 3.04395 41.831C3.04395 42.5964 3.66437 43.2168 4.42983 43.2168H20.9718C21.7372 43.2168 22.3577 42.5964 22.3577 41.831Z" fill="white"/>
<path d="M14.0261 41.8309C14.0261 43.3537 15.2589 44.5865 16.7818 44.5865C18.3046 44.5865 19.5374 43.3537 19.5374 41.8309C19.5374 40.308 18.3046 39.0752 16.7818 39.0752C15.2589 39.0672 14.0261 40.308 14.0261 41.8309Z" fill="#50E6FF"/>
<path d="M39.7617 41.6455C39.657 43.3134 41.0268 44.6832 42.6947 44.5785C44.0644 44.4898 45.1844 43.3779 45.265 42.0081C45.3697 40.3402 44 38.9705 42.3321 39.0752C40.9704 39.1638 39.8504 40.2758 39.7617 41.6455Z" fill="#50E6FF"/>
<path d="M29.9317 41.6455C29.8269 43.3134 31.1967 44.6832 32.8646 44.5785C34.2343 44.4898 35.3543 43.3779 35.4349 42.0081C35.5396 40.3402 34.1699 38.9705 32.502 39.0752C31.1403 39.1638 30.0203 40.2758 29.9317 41.6455Z" fill="#50E6FF"/>
</svg>
