<svg data-slug-id="parameters02" viewBox="0 0 49 48" xmlns="http://www.w3.org/2000/svg">
<path d="M42.2888 47.9495H6.98779V0H31.3752L33.5815 7.12421L42.2888 10.9474V47.9495Z" fill="#0078D4"/>
<path d="M42.2892 10.9137H31.3755V0L42.2892 10.9137Z" fill="#50E6FF"/>
<path d="M34.6511 18.0812C34.6511 17.2812 34.0027 16.6328 33.2027 16.6328H15.9142C15.1142 16.6328 14.4658 17.2812 14.4658 18.0812C14.4658 18.8812 15.1142 19.5297 15.9142 19.5297H33.2027C34.0027 19.5297 34.6511 18.8812 34.6511 18.0812Z" fill="white"/>
<path d="M25.9351 18.0793C25.9351 19.6708 27.2235 20.9593 28.8151 20.9593C30.4066 20.9593 31.6951 19.6708 31.6951 18.0793C31.6951 16.4877 30.4066 15.1993 28.8151 15.1993C27.2235 15.1908 25.9351 16.4877 25.9351 18.0793Z" fill="#50E6FF"/>
<path d="M34.6511 26.6125C34.6511 25.8125 34.0027 25.1641 33.2027 25.1641H15.9142C15.1142 25.1641 14.4658 25.8125 14.4658 26.6125C14.4658 27.4125 15.1142 28.0609 15.9142 28.0609H33.2027C34.0027 28.0609 34.6511 27.4125 34.6511 26.6125Z" fill="white"/>
<path d="M17.354 26.6027C17.354 28.1942 18.6424 29.4827 20.234 29.4827C21.8256 29.4827 23.114 28.1942 23.114 26.6027C23.114 25.0111 21.8256 23.7227 20.234 23.7227C18.6424 23.7227 17.354 25.0111 17.354 26.6027Z" fill="#50E6FF"/>
<path d="M34.6511 35.3078C34.6511 34.5078 34.0027 33.8594 33.2027 33.8594H15.9142C15.1142 33.8594 14.4658 34.5078 14.4658 35.3078C14.4658 36.1078 15.1142 36.7562 15.9142 36.7562H33.2027C34.0027 36.7478 34.6511 36.0994 34.6511 35.3078Z" fill="white"/>
<path d="M23.0806 35.3019C23.0806 36.8935 24.369 38.1819 25.9606 38.1819C27.5521 38.1819 28.8406 36.8935 28.8406 35.3019C28.8406 33.7103 27.5521 32.4219 25.9606 32.4219C24.3774 32.4219 23.0806 33.7103 23.0806 35.3019Z" fill="#50E6FF"/>
</svg>
