<svg data-slug-id="parameter01" viewBox="0 0 48 48" xmlns="http://www.w3.org/2000/svg">
<path d="M47.9501 6.50488H0.0500488V41.7049H47.9501V6.50488Z" fill="#0078D4"/>
<path d="M37.9501 15.1057C37.9501 14.4057 37.3501 13.8057 36.6501 13.8057H11.4501C10.7501 13.8057 10.1501 14.4057 10.1501 15.1057C10.1501 15.8057 10.7501 16.4057 11.4501 16.4057H36.6501C37.3501 16.4057 37.9501 15.8057 37.9501 15.1057Z" fill="#50E6FF"/>
<path d="M30.3499 15.1064C30.3499 16.5064 31.4499 17.6064 32.8499 17.6064C34.2499 17.6064 35.3499 16.5064 35.3499 15.1064C35.3499 13.7064 34.2499 12.6064 32.8499 12.6064C31.4499 12.6064 30.3499 13.7064 30.3499 15.1064Z" fill="white"/>
<path d="M37.9501 24.0041C37.9501 23.3041 37.3501 22.7041 36.6501 22.7041H11.4501C10.7501 22.7041 10.1501 23.3041 10.1501 24.0041C10.1501 24.7041 10.7501 25.3041 11.4501 25.3041H36.6501C37.3501 25.2041 37.9501 24.7041 37.9501 24.0041Z" fill="#50E6FF"/>
<path d="M21.45 24.0029C21.45 25.4029 22.55 26.5029 23.95 26.5029C25.35 26.5029 26.45 25.4029 26.45 24.0029C26.45 22.6029 25.35 21.5029 23.95 21.5029C22.65 21.4029 21.45 22.6029 21.45 24.0029Z" fill="white"/>
<path d="M37.9501 32.8049C37.9501 32.1049 37.3501 31.5049 36.6501 31.5049H11.4501C10.7501 31.5049 10.1501 32.1049 10.1501 32.8049C10.1501 33.5049 10.7501 34.1049 11.4501 34.1049H36.6501C37.3501 34.1049 37.9501 33.5049 37.9501 32.8049Z" fill="#50E6FF"/>
<path d="M12.7502 32.8057C12.7502 34.2057 13.8502 35.3057 15.2502 35.3057C16.6502 35.3057 17.7502 34.2057 17.7502 32.8057C17.7502 31.4057 16.6502 30.3057 15.2502 30.3057C13.8502 30.3057 12.7502 31.4057 12.7502 32.8057Z" fill="white"/>
</svg>
