<svg data-slug-id="parameters01" viewBox="0 0 49 49" xmlns="http://www.w3.org/2000/svg">
<path d="M48.4501 7H0.550049V42.2H48.4501V7Z" fill="#0078D4"/>
<path d="M38.4501 15.6008C38.4501 14.9008 37.8501 14.3008 37.1501 14.3008H11.9501C11.2501 14.3008 10.6501 14.9008 10.6501 15.6008C10.6501 16.3008 11.2501 16.9008 11.9501 16.9008H37.1501C37.8501 16.9008 38.4501 16.3008 38.4501 15.6008Z" fill="#50E6FF"/>
<path d="M30.8499 15.6016C30.8499 17.0016 31.9499 18.1016 33.3499 18.1016C34.7499 18.1016 35.8499 17.0016 35.8499 15.6016C35.8499 14.2016 34.7499 13.1016 33.3499 13.1016C31.9499 13.1016 30.8499 14.2016 30.8499 15.6016Z" fill="white"/>
<path d="M38.4501 24.4992C38.4501 23.7992 37.8501 23.1992 37.1501 23.1992H11.9501C11.2501 23.1992 10.6501 23.7992 10.6501 24.4992C10.6501 25.1992 11.2501 25.7992 11.9501 25.7992H37.1501C37.8501 25.6992 38.4501 25.1992 38.4501 24.4992Z" fill="#50E6FF"/>
<path d="M21.95 24.498C21.95 25.898 23.05 26.998 24.45 26.998C25.85 26.998 26.95 25.898 26.95 24.498C26.95 23.098 25.85 21.998 24.45 21.998C23.15 21.898 21.95 23.098 21.95 24.498Z" fill="white"/>
<path d="M38.4501 33.3C38.4501 32.6 37.8501 32 37.1501 32H11.9501C11.2501 32 10.6501 32.6 10.6501 33.3C10.6501 34 11.2501 34.6 11.9501 34.6H37.1501C37.8501 34.6 38.4501 34 38.4501 33.3Z" fill="#50E6FF"/>
<path d="M13.2502 33.3008C13.2502 34.7008 14.3502 35.8008 15.7502 35.8008C17.1502 35.8008 18.2502 34.7008 18.2502 33.3008C18.2502 31.9008 17.1502 30.8008 15.7502 30.8008C14.3502 30.8008 13.2502 31.9008 13.2502 33.3008Z" fill="white"/>
</svg>
