<svg data-slug-id="parameters03" viewBox="0 0 48 49" xmlns="http://www.w3.org/2000/svg">
<path d="M42.7474 13.3251H5.2225C2.50157 13.3251 0.318848 11.1424 0.318848 8.45139C0.318848 5.73045 2.50157 3.54773 5.2225 3.54773H42.7773C45.4684 3.54773 47.681 5.73045 47.681 8.45139C47.6511 11.1424 45.4684 13.3251 42.7474 13.3251Z" fill="#50E6FF"/>
<path d="M26.8108 13.3253H21.0101C18.3191 13.3253 16.1064 11.1425 16.1064 8.4216C16.1064 5.73057 18.2892 3.51794 21.0101 3.51794H26.8108C29.5018 3.51794 31.7144 5.70067 31.7144 8.4216C31.6845 11.1425 29.5018 13.3253 26.8108 13.3253Z" fill="#0078D4"/>
<path d="M42.7474 29.1424H5.2225C2.50157 29.1424 0.318848 26.9597 0.318848 24.2387C0.318848 21.5477 2.50157 19.3351 5.2225 19.3351H42.7773C45.4684 19.3351 47.681 21.5178 47.681 24.2387C47.6511 26.9597 45.4684 29.1424 42.7474 29.1424Z" fill="#50E6FF"/>
<path d="M11.1727 29.1424H5.2225C2.50157 29.1424 0.318848 26.9597 0.318848 24.2387C0.318848 21.5477 2.50157 19.3351 5.2225 19.3351H11.1727C13.8637 19.3351 16.0763 21.5178 16.0763 24.2387C16.0464 26.9597 13.8637 29.1424 11.1727 29.1424Z" fill="#0078D4"/>
<path d="M5.2225 35.0029H42.7773C45.4684 35.0029 47.681 37.1857 47.681 39.9066C47.681 42.5976 45.4983 44.8102 42.7773 44.8102H5.2225C2.53147 44.8102 0.318848 42.6275 0.318848 39.9066C0.318848 37.1857 2.50157 35.0029 5.2225 35.0029Z" fill="#50E6FF"/>
<path d="M36.7975 35.0029H42.7476C45.4387 35.0029 47.6513 37.1857 47.6513 39.9066C47.6513 42.5976 45.4686 44.8102 42.7476 44.8102H36.7975C34.1064 44.8102 31.8938 42.6275 31.8938 39.9066C31.9237 37.1857 34.1064 35.0029 36.7975 35.0029Z" fill="#0078D4"/>
</svg>
