<svg data-slug-id="parameters05" viewBox="0 0 48 49" xmlns="http://www.w3.org/2000/svg">
<path d="M39.9165 3.18309L21.771 30.0078L24.7188 32.0018L42.8642 5.1771L39.9165 3.18309Z" fill="#50E6FF"/>
<path d="M39.7927 11.2338C42.4461 11.2338 44.5971 9.08281 44.5971 6.42941C44.5971 3.77601 42.4461 1.625 39.7927 1.625C37.1393 1.625 34.9883 3.77601 34.9883 6.42941C34.9883 9.08281 37.1393 11.2338 39.7927 11.2338Z" fill="#1F1D21"/>
<path d="M23.4664 25.3812C27.4256 25.3812 30.6285 28.5397 30.7175 32.4544H35.2995C35.166 26.004 29.9167 20.8438 23.4664 20.8438C17.016 20.8438 11.7668 26.004 11.6333 32.4099H16.2153C16.3043 28.4952 19.5072 25.3812 23.4664 25.3812Z" fill="#1F1D21"/>
<path d="M23.4664 25.3789C19.5072 25.3789 16.3043 28.5374 16.2153 32.4521H18.1727C18.3061 29.605 20.6194 27.3363 23.4664 27.3363C26.3135 27.3363 28.6712 29.605 28.7602 32.4521H30.7175C30.5841 28.4929 27.3811 25.3789 23.4664 25.3789Z" fill="#E7E8EA"/>
<path d="M23.4661 27.3398C20.6191 27.3398 18.2613 29.6086 18.1724 32.4557H28.8043C28.6709 29.6086 26.3132 27.3398 23.4661 27.3398Z" fill="#1F1D21"/>
<path d="M39.9165 3.18309L21.771 30.0078L24.7188 32.0018L42.8642 5.1771L39.9165 3.18309Z" fill="#0078D4"/>
<path d="M39.7927 11.2338C42.4461 11.2338 44.5971 9.08281 44.5971 6.42941C44.5971 3.77601 42.4461 1.625 39.7927 1.625C37.1393 1.625 34.9883 3.77601 34.9883 6.42941C34.9883 9.08281 37.1393 11.2338 39.7927 11.2338Z" fill="#0078D4"/>
<path d="M23.4664 25.3812C27.4256 25.3812 30.6285 28.5397 30.7175 32.4544H35.2995C35.166 26.004 29.9167 20.8438 23.4664 20.8438C17.016 20.8438 11.7668 26.004 11.6333 32.4099H16.2153C16.3043 28.4952 19.5072 25.3812 23.4664 25.3812Z" fill="#50E6FF"/>
<path d="M23.4664 25.3789C19.5072 25.3789 16.3043 28.5374 16.2153 32.4521H18.1727C18.3061 29.605 20.6194 27.3363 23.4664 27.3363C26.3135 27.3363 28.6712 29.605 28.7602 32.4521H30.7175C30.5841 28.4929 27.3811 25.3789 23.4664 25.3789Z" fill="#0078D4"/>
<path d="M23.4661 27.3398C20.6191 27.3398 18.2613 29.6086 18.1724 32.4557H28.8043C28.6709 29.6086 26.3132 27.3398 23.4661 27.3398Z" fill="#50E6FF"/>
<path d="M47.104 34.1402V31.7227L0.72261 31.7227V34.1402L47.104 34.1402Z" fill="#0078D4"/>
<path d="M47.1084 40.5234H37.3486V42.8515H47.1084V40.5234Z" fill="#0078D4"/>
<path d="M43.3936 46.5645V36.8047H41.0655V46.5645H43.3936Z" fill="#0078D4"/>
<path d="M10.4785 40.5156H0.71875V42.8436H10.4785V40.5156Z" fill="#0078D4"/>
</svg>
