<svg data-slug-id="percept" xmlns="http://www.w3.org/2000/svg" viewBox="0 0 18 18">
  <defs>
    <linearGradient id="percept_f797b07c-0d03-41dd-96ca-a7906a3f13c9" x1="9.617" y1=".932" x2="9.617" y2="16.773" gradientUnits="userSpaceOnUse">
      <stop offset="0" stop-color="#5ea0ef"/>
      <stop offset=".817" stop-color="#0078d4"/>
    </linearGradient>
  </defs>
  <circle cx="9.617" cy="8.853" r="7.921" fill="url(#percept_f797b07c-0d03-41dd-96ca-a7906a3f13c9)"/>
  <path d="M9.617 17.236A8.383 8.383 0 1118 8.853a8.392 8.392 0 01-8.383 8.383zm0-15.842a7.459 7.459 0 107.458 7.459 7.466 7.466 0 00-7.458-7.459z" fill="#e6e6e6"/>
  <path d="M14.938 9.573a2.391 2.391 0 00-2.075-2.3 3.014 3.014 0 00-3.1-2.882A3.092 3.092 0 006.8 6.408a2.852 2.852 0 00-2.5 2.745 2.9 2.9 0 003 2.783c.089 0 .177 0 .264-.011h4.853a.451.451 0 00.128-.02 2.418 2.418 0 002.393-2.332zM3.393 8.853a1.7 1.7 0 11-1.7-1.7 1.7 1.7 0 011.7 1.7zM14.32.729a1.7 1.7 0 101.7 1.7 1.7 1.7 0 00-1.7-1.7zm0 12.652a1.7 1.7 0 101.7 1.7 1.7 1.7 0 00-1.7-1.7z" fill="#50e6ff"/>
</svg>
