<svg data-slug-id="personalizer01" viewBox="0 0 49 48" xmlns="http://www.w3.org/2000/svg">
<path d="M19.0529 10.6194C21.8413 10.622 24.5589 11.4979 26.824 13.124C29.0891 14.7502 30.7881 17.0449 31.6823 19.686L37.3756 18.7607C36.6439 16.1781 35.3745 13.7793 33.6507 11.7217C31.9269 9.66401 29.7877 7.994 27.3732 6.82113C24.9587 5.64825 22.3235 4.99902 19.6406 4.916C16.9576 4.83297 14.2873 5.31804 11.8049 6.33938L12.6236 12.278C14.5909 11.1877 16.8037 10.6168 19.0529 10.6194Z" fill="url(#personalizer01_paint0_linear)"/>
<path d="M31.6078 19.5235C32.1122 20.9411 32.3702 22.4347 32.3704 23.9395C32.3756 26.0632 31.8733 28.1574 30.9055 30.0478C29.9378 31.9381 28.5324 33.57 26.8065 34.8075C25.0806 36.045 23.0841 36.8523 20.9831 37.1623C18.8821 37.4722 16.7375 37.2758 14.7278 36.5894C12.7181 35.9031 10.9014 34.7465 9.42893 33.2162C7.95648 31.6858 6.8709 29.8258 6.26255 27.7911C5.6542 25.7564 5.54068 23.6058 5.93144 21.5184C6.3222 19.4309 7.20594 17.467 8.50909 15.7901C8.50909 15.7901 9.43975 14.4835 9.87175 13.9981C9.92567 13.9736 9.98507 13.9637 10.044 13.9693C10.103 13.9749 10.1594 13.9959 10.2078 14.0301L10.4104 14.1741L13.4638 16.3608C13.5195 16.3974 13.5846 16.4171 13.6513 16.4176C13.718 16.4181 13.7834 16.3993 13.8397 16.3636C13.896 16.3278 13.9408 16.2766 13.9687 16.216C13.9966 16.1555 14.0065 16.0881 13.9971 16.0221L12.5011 6.92613C12.4671 6.72299 12.354 6.5416 12.1866 6.42165C12.0192 6.3017 11.811 6.25297 11.6078 6.28613L2.52242 7.79013C2.45484 7.80148 2.39214 7.83262 2.34224 7.87959C2.29235 7.92657 2.25749 7.98728 2.24208 8.05405C2.22667 8.12082 2.2314 8.19067 2.25567 8.25476C2.27993 8.31885 2.32265 8.37431 2.37842 8.41413L5.43175 10.6008C3.06021 13.0245 1.37908 16.0376 0.562165 19.3287C-0.25475 22.6198 -0.177794 26.0693 0.785075 29.3207C1.74794 32.5721 3.56178 35.5073 6.03905 37.8228C8.51632 40.1383 11.5671 41.7502 14.876 42.4916C18.1849 43.2331 21.6318 43.0773 24.8603 42.0404C28.0888 41.0035 30.9818 39.123 33.2401 36.5935C35.4984 34.064 37.0401 30.9771 37.7057 27.6522C38.3714 24.3272 38.1369 20.8848 37.0264 17.6808L31.6078 19.5235Z" fill="url(#personalizer01_paint1_linear)"/>
<path d="M46.2294 41.2566C46.4611 41.2577 46.6907 41.213 46.9051 41.1252C47.1196 41.0375 47.3146 40.9083 47.479 40.745C47.6435 40.5818 47.7742 40.3878 47.8636 40.174C47.9529 39.9603 47.9993 39.731 48 39.4993C48.0052 39.4283 48.0052 39.3569 48 39.2859C47.3094 33.7419 44.144 29.2273 38.112 29.2273C31.9787 29.2273 28.8027 33.0513 28.1867 39.3019C28.1627 39.5336 28.1846 39.7677 28.251 39.9909C28.3175 40.2141 28.4273 40.422 28.5742 40.6028C28.721 40.7836 28.902 40.9336 29.1069 41.0444C29.3117 41.1553 29.5364 41.2246 29.768 41.2486C29.8267 41.2486 29.888 41.2486 29.9467 41.2486L46.2294 41.2566Z" fill="#32BEDD"/>
<path d="M38.099 30.5446C41.1712 30.5446 43.6617 28.0541 43.6617 24.982C43.6617 21.9098 41.1712 19.4193 38.099 19.4193C35.0269 19.4193 32.5364 21.9098 32.5364 24.982C32.5364 28.0541 35.0269 30.5446 38.099 30.5446Z" fill="url(#personalizer01_paint2_linear)"/>
<path d="M37.984 43.9608C38.2786 43.9618 38.5704 43.9049 38.8429 43.7931C39.1154 43.6814 39.3632 43.5171 39.5722 43.3096C39.7812 43.1021 39.9473 42.8554 40.0609 42.5837C40.1746 42.312 40.2337 42.0206 40.2347 41.7261C40.2346 41.637 40.2292 41.5479 40.2187 41.4594C39.336 34.4088 35.3147 28.6594 27.64 28.6594C19.832 28.6594 15.8054 33.5208 15.0214 41.4594C14.9907 41.754 15.0184 42.0517 15.1029 42.3355C15.1874 42.6193 15.327 42.8837 15.5138 43.1135C15.7005 43.3434 15.9307 43.5341 16.1912 43.6749C16.4517 43.8157 16.7375 43.9038 17.032 43.9341C17.1075 43.9382 17.1832 43.9382 17.2587 43.9341L37.984 43.9608Z" fill="#50E6FF"/>
<path d="M27.6401 30.3394C31.5473 30.3394 34.7148 27.172 34.7148 23.2647C34.7148 19.3575 31.5473 16.1901 27.6401 16.1901C23.7329 16.1901 20.5654 19.3575 20.5654 23.2647C20.5654 27.172 23.7329 30.3394 27.6401 30.3394Z" fill="url(#personalizer01_paint3_linear)"/>
<defs>
<linearGradient id="personalizer01_paint0_linear" x1="25.9276" y1="20.7874" x2="22.9543" y2="3.92338" gradientUnits="userSpaceOnUse">
<stop stop-color="#0078D4"/>
<stop offset="1" stop-color="#005BA1"/>
</linearGradient>
<linearGradient id="personalizer01_paint1_linear" x1="34.3758" y1="35.4648" x2="-1.60558" y2="14.6915" gradientUnits="userSpaceOnUse">
<stop offset="0.301" stop-color="#0078D4"/>
<stop offset="1" stop-color="#5EA0EF"/>
</linearGradient>
<linearGradient id="personalizer01_paint2_linear" x1="38.099" y1="18.9126" x2="38.099" y2="33.9126" gradientUnits="userSpaceOnUse">
<stop offset="0.225" stop-color="#32BEDD"/>
<stop offset="1" stop-color="#198AB3"/>
</linearGradient>
<linearGradient id="personalizer01_paint3_linear" x1="27.6401" y1="15.5474" x2="27.6401" y2="34.6221" gradientUnits="userSpaceOnUse">
<stop offset="0.225" stop-color="#50E6FF"/>
<stop offset="1" stop-color="#32BEDD"/>
</linearGradient>
</defs>
</svg>
