<svg data-slug-id="phone04" viewBox="0 0 48 49" xmlns="http://www.w3.org/2000/svg">
<path d="M33.506 48.3926H14.1556C12.5002 48.3926 11.1572 47.0496 11.1572 45.3942V3.39111C11.1572 1.73565 12.5002 0.3927 14.1556 0.3927H33.506C35.1615 0.3927 36.5044 1.73565 36.5044 3.39111V45.3857C36.5044 47.0496 35.1615 48.3926 33.506 48.3926Z" fill="#0078D4"/>
<path d="M25.2889 43.138C25.2889 43.8475 24.7061 44.4303 23.9966 44.4303C23.2871 44.4303 22.7043 43.8475 22.7043 43.138C22.7043 42.42 23.2871 41.8457 23.9966 41.8457C24.7146 41.8457 25.2889 42.4285 25.2889 43.138Z" fill="#50E6FF"/>
<path d="M26.4621 6.12045H21.3691C21.0228 6.12045 20.7356 5.83328 20.7356 5.48698C20.7356 5.14069 21.0228 4.85352 21.3691 4.85352H26.4537C26.8 4.85352 27.0872 5.14069 27.0872 5.48698C27.0872 5.83328 26.8084 6.12045 26.4621 6.12045Z" fill="#50E6FF"/>
<path d="M20.0092 15.5645C20.0092 16.9497 18.8859 18.0646 17.5091 18.0646C16.1239 18.0646 15.009 16.9413 15.009 15.5645C15.009 14.1794 16.1324 13.0645 17.5091 13.0645C18.8943 13.0645 20.0092 14.1794 20.0092 15.5645Z" fill="white"/>
<path d="M26.4797 15.5645C26.4797 16.9497 25.3563 18.0646 23.9796 18.0646C22.5944 18.0646 21.4795 16.9413 21.4795 15.5645C21.4795 14.1794 22.6028 13.0645 23.9796 13.0645C25.3563 13.0645 26.4797 14.1794 26.4797 15.5645Z" fill="#50E6FF"/>
<path d="M32.7629 15.5645C32.7629 16.9497 31.6395 18.0646 30.2628 18.0646C28.8776 18.0646 27.7627 16.9413 27.7627 15.5645C27.7627 14.1794 28.886 13.0645 30.2628 13.0645C31.6395 13.0645 32.7629 14.1794 32.7629 15.5645Z" fill="#50E6FF"/>
<path d="M20.0092 22.0645C20.0092 23.4497 18.8859 24.5646 17.5091 24.5646C16.1239 24.5646 15.009 23.4413 15.009 22.0645C15.009 20.6794 16.1324 19.5645 17.5091 19.5645C18.8943 19.5645 20.0092 20.6794 20.0092 22.0645Z" fill="white"/>
<path d="M26.4797 22.0645C26.4797 23.4497 25.3563 24.5646 23.9796 24.5646C22.5944 24.5646 21.4795 23.4413 21.4795 22.0645C21.4795 20.6794 22.6028 19.5645 23.9796 19.5645C25.3563 19.5645 26.4797 20.6794 26.4797 22.0645Z" fill="white"/>
<path d="M32.7629 22.0645C32.7629 23.4497 31.6395 24.5646 30.2628 24.5646C28.8776 24.5646 27.7627 23.4413 27.7627 22.0645C27.7627 20.6794 28.886 19.5645 30.2628 19.5645C31.6395 19.5645 32.7629 20.6794 32.7629 22.0645Z" fill="#50E6FF"/>
<path d="M20.0092 28.3145C20.0092 29.6997 18.8859 30.8146 17.5091 30.8146C16.1239 30.8146 15.009 29.6913 15.009 28.3145C15.009 26.9294 16.1324 25.8145 17.5091 25.8145C18.8943 25.8145 20.0092 26.9294 20.0092 28.3145Z" fill="#50E6FF"/>
<path d="M26.4797 28.3145C26.4797 29.6997 25.3563 30.8146 23.9796 30.8146C22.5944 30.8146 21.4795 29.6913 21.4795 28.3145C21.4795 26.9294 22.6028 25.8145 23.9796 25.8145C25.3563 25.8145 26.4797 26.9294 26.4797 28.3145Z" fill="white"/>
<path d="M26.4797 34.9864C26.4797 36.3716 25.3563 37.4865 23.9796 37.4865C22.5944 37.4865 21.4795 36.3631 21.4795 34.9864C21.4795 33.6012 22.6028 32.4863 23.9796 32.4863C25.3563 32.4863 26.4797 33.6012 26.4797 34.9864Z" fill="#50E6FF"/>
<path d="M32.7629 28.3145C32.7629 29.6997 31.6395 30.8146 30.2628 30.8146C28.8776 30.8146 27.7627 29.6913 27.7627 28.3145C27.7627 26.9294 28.886 25.8145 30.2628 25.8145C31.6395 25.8145 32.7629 26.9294 32.7629 28.3145Z" fill="#50E6FF"/>
</svg>
