<svg data-slug-id="phone03" viewBox="0 0 48 49" xmlns="http://www.w3.org/2000/svg">
<path d="M12.1873 5.32614C12.1873 4.69467 11.6735 4.17266 11.0334 4.17266H10.3596L9.68582 1.15845H3.34365L2.66143 4.18108H1.97078C1.33909 4.18108 0.816895 4.69467 0.816895 5.33456V14.4024C0.816895 15.0339 1.33067 15.5559 1.97078 15.5559H2.66143L3.34365 18.6712H9.68582L10.368 15.5559H11.0587C11.3619 15.5559 11.6651 15.4296 11.8757 15.2107C12.0862 14.9918 12.1957 14.714 12.1873 14.4109V14.394V5.32614Z" fill="#0078D4"/>
<path d="M47.0145 10.9514H28.0891C27.7353 10.9514 27.449 11.2377 27.449 11.5913V47.5934C27.449 47.947 27.7353 48.2333 28.0891 48.2333H47.0145C47.3683 48.2333 47.6546 47.947 47.6546 47.5934V11.5829C47.6462 11.2377 47.3598 10.9514 47.0145 10.9514Z" fill="#0078D4"/>
<path d="M23.5494 42.2288H18.6138V43.9127H23.5494V42.2288Z" fill="#50E6FF"/>
<path d="M14.992 42.2288H10.8145V43.9127H14.992V42.2288Z" fill="#50E6FF"/>
<path d="M7.11683 43.9139H4.16895V40.967H5.85345V42.23H7.11683V43.9139Z" fill="#50E6FF"/>
<path d="M43.5021 7.55049H41.8176V6.28755H40.5542V4.60364H43.5021V7.55049Z" fill="#50E6FF"/>
<path d="M5.85345 21.0724H4.16895V23.7414H5.85345V21.0724Z" fill="#50E6FF"/>
<path d="M5.85345 33.8694H4.16895V38.0455H5.85345V33.8694Z" fill="#50E6FF"/>
<path d="M5.85345 26.3499H4.16895V30.526H5.85345V26.3499Z" fill="#50E6FF"/>
<path d="M37.2108 4.60364H33.0332V6.28755H37.2108V4.60364Z" fill="#50E6FF"/>
<path d="M14.0483 4.90674V6.28755H15.6907V4.60364H14.0315C14.0399 4.70467 14.0483 4.80571 14.0483 4.90674Z" fill="#50E6FF"/>
<path d="M22.1678 4.60364H17.9902V6.28755H22.1678V4.60364Z" fill="#50E6FF"/>
<path d="M29.6893 4.60364H25.5117V6.28755H29.6893V4.60364Z" fill="#50E6FF"/>
<path d="M10.1574 13.9393H2.87193C2.61925 13.9393 2.40869 13.7288 2.40869 13.4762V6.22699C2.40869 5.97441 2.61925 5.76392 2.87193 5.76392H10.1406C10.3932 5.76392 10.6038 5.97441 10.6038 6.22699V13.4931C10.6038 13.7541 10.3932 13.9393 10.1574 13.9393Z" fill="#50E6FF"/>
<path d="M35.3242 46.1528H39.7797V44.6036H35.3242V46.1528Z" fill="#50E6FF"/>
<path d="M38.331 13.7457C38.331 14.1582 38.0194 14.4698 37.6067 14.4698C37.194 14.4698 36.8823 14.1582 36.8823 13.7457C36.8823 13.3331 37.194 13.0216 37.6067 13.0216C38.0194 13.0216 38.331 13.3247 38.331 13.7457Z" fill="#50E6FF"/>
<path d="M28.8972 42.6334H46.1971V16.5411H28.8972V42.6334Z" fill="#50E6FF"/>
</svg>
