<svg data-slug-id="phone02" viewBox="0 0 48 49" xmlns="http://www.w3.org/2000/svg">
<path d="M47.0148 10.9514H28.0893C27.7356 10.9514 27.4492 11.2377 27.4492 11.5913V47.5934C27.4492 47.947 27.7356 48.2333 28.0893 48.2333H47.0148C47.3685 48.2333 47.6549 47.947 47.6549 47.5934V11.5829C47.6464 11.2377 47.3601 10.9514 47.0148 10.9514Z" fill="#0078D4"/>
<path d="M23.5496 42.2288H18.614V43.9127H23.5496V42.2288Z" fill="#0078D4"/>
<path d="M14.992 42.2288H10.8145V43.9127H14.992V42.2288Z" fill="#0078D4"/>
<path d="M7.11708 43.9139H4.16919V40.967H5.8537V42.23H7.11708V43.9139Z" fill="#0078D4"/>
<path d="M43.5028 7.55049H41.8183V6.28755H40.5549V4.60364H43.5028V7.55049Z" fill="#0078D4"/>
<path d="M5.8537 21.0724H4.16919V23.7414H5.8537V21.0724Z" fill="#0078D4"/>
<path d="M5.8537 33.8694H4.16919V38.0455H5.8537V33.8694Z" fill="#0078D4"/>
<path d="M5.8537 26.3499H4.16919V30.526H5.8537V26.3499Z" fill="#0078D4"/>
<path d="M37.211 4.60364H33.0334V6.28755H37.211V4.60364Z" fill="#0078D4"/>
<path d="M22.1685 4.60364H17.991V6.28755H22.1685V4.60364Z" fill="#0078D4"/>
<path d="M29.6895 4.60364H25.512V6.28755H29.6895V4.60364Z" fill="#0078D4"/>
<path d="M35.3242 46.1528H39.7797V44.6036H35.3242V46.1528Z" fill="#50E6FF"/>
<path d="M38.331 13.7457C38.331 14.1582 38.0194 14.4698 37.6067 14.4698C37.194 14.4698 36.8823 14.1582 36.8823 13.7457C36.8823 13.3331 37.194 13.0216 37.6067 13.0216C38.0194 13.0216 38.331 13.3247 38.331 13.7457Z" fill="#50E6FF"/>
<path d="M28.8979 42.6334H46.1978V16.5411H28.8979V42.6334Z" fill="#50E6FF"/>
<path d="M16.5421 6.8192V5.50575H14.7313V3.27456H12.6593V1.44751H11.337V3.27456H9.42509V1.44751H8.10275V3.27456H6.18241V1.44751H4.8685V3.27456H2.69549V5.50575H0.876221V6.8192H2.69549V8.73886H0.876221V10.0523H2.69549V11.9636H0.876221V13.277H2.69549V15.2809H4.8685V17.209H6.19084V15.2809H8.11117V17.209H9.43351V15.2809H11.3454V17.209H12.6678V15.2809H14.7397V13.277H16.5505V11.9636H14.7397V10.0523H16.5505V8.73886H14.7397V6.8192H16.5421Z" fill="#0078D4"/>
<path d="M12.6841 5.30676H4.7417V13.238H12.6841V5.30676Z" fill="#50E6FF"/>
</svg>
