<svg data-slug-id="phone06" viewBox="0 0 48 49" xmlns="http://www.w3.org/2000/svg">
<path d="M33.5057 48.3922H14.1554C12.4999 48.3922 11.157 47.0493 11.157 45.3938V3.39097C11.157 1.73552 12.4999 0.392578 14.1554 0.392578H33.5057C35.1612 0.392578 36.5042 1.73552 36.5042 3.39097V45.3854C36.5042 47.0493 35.1612 48.3922 33.5057 48.3922Z" fill="#0078D4"/>
<path d="M25.2882 43.1377C25.2882 43.8472 24.7054 44.43 23.9959 44.43C23.2864 44.43 22.7036 43.8472 22.7036 43.1377C22.7036 42.4198 23.2864 41.8455 23.9959 41.8455C24.7138 41.8455 25.2882 42.4282 25.2882 43.1377Z" fill="white"/>
<path d="M15.0254 38.3672H20.1269V28.2909H15.0254V38.3672Z" fill="white"/>
<path d="M21.3516 38.3659H26.4531V18.1542H21.3516V38.3659Z" fill="#50E6FF"/>
<path d="M27.771 38.3674H32.8725V10.5879H27.771V38.3674Z" fill="#50E6FF"/>
<path d="M26.4614 6.12044H21.3683C21.022 6.12044 20.7349 5.83327 20.7349 5.48698C20.7349 5.14069 21.022 4.85352 21.3683 4.85352H26.453C26.7993 4.85352 27.0864 5.14069 27.0864 5.48698C27.0864 5.83327 26.8077 6.12044 26.4614 6.12044Z" fill="white"/>
</svg>
