<svg data-slug-id="phone01" viewBox="0 0 48 49" xmlns="http://www.w3.org/2000/svg">
<path d="M33.506 48.3926H14.1556C12.5002 48.3926 11.1572 47.0496 11.1572 45.3942V3.39111C11.1572 1.73565 12.5002 0.3927 14.1556 0.3927H33.506C35.1615 0.3927 36.5044 1.73565 36.5044 3.39111V45.3857C36.5044 47.0496 35.1615 48.3926 33.506 48.3926Z" fill="#0078D4"/>
<path d="M25.2889 43.1419C25.2889 43.8514 24.7061 44.4342 23.9966 44.4342C23.2871 44.4342 22.7043 43.8514 22.7043 43.1419C22.7043 42.424 23.2871 41.8496 23.9966 41.8496C24.7146 41.8496 25.2889 42.4324 25.2889 43.1419Z" fill="white"/>
<path d="M26.4621 6.11667H21.3691C21.0228 6.11667 20.7356 5.82949 20.7356 5.4832C20.7356 5.1369 21.0228 4.84973 21.3691 4.84973H26.4537C26.8 4.84973 27.0872 5.1369 27.0872 5.4832C27.0872 5.82949 26.8084 6.11667 26.4621 6.11667Z" fill="white"/>
<path d="M16.4111 28.1649L23.2104 32.0671V24.2459L16.4111 20.3184V28.1649Z" fill="#50E6FF"/>
<path d="M23.8943 15.5957L17.1626 19.481L23.8943 23.3662L30.6259 19.481L23.8943 15.5957Z" fill="#50E6FF"/>
<path d="M24.5786 24.2452V32.0749L31.3778 28.1727V20.3262L24.5786 24.2452Z" fill="#50E6FF"/>
</svg>
