<svg data-slug-id="phone05" viewBox="0 0 48 49" xmlns="http://www.w3.org/2000/svg">
<path d="M35.532 33.1761V31.2476H32.8832V27.9803H29.8547V25.3108H27.9229V27.9803H25.1222V25.3108H23.1904V27.9803H20.3812V25.3108H18.4494V27.9803H15.2691V31.2476H12.6118V33.1761H15.2691V35.9803H12.6118V37.9087H15.2691V40.7045H12.6118V42.6329H15.2691V45.5634H18.4494V48.3845H20.3812V45.5634H23.1904V48.3845H25.1222V45.5634H27.9229V48.3845H29.8547V45.5634H32.8832V42.6329H35.532V40.7045H32.8832V37.9087H35.532V35.9803H32.8832V33.1761H35.532Z" fill="#0078D4"/>
<path d="M29.8883 30.9709H18.2637V42.5752H29.8883V30.9709Z" fill="#50E6FF"/>
<path d="M23.9239 2.47371C27.1548 2.47371 30.3014 3.08845 33.2877 4.29266C36.3752 5.53897 39.1421 7.37476 41.5126 9.7495L42.8792 8.38529C37.649 3.16424 30.7822 0.545288 23.9239 0.545288C17.0655 0.545288 10.2072 3.15581 4.96851 8.38529L6.33511 9.74108C8.71402 7.36634 11.481 5.53897 14.5601 4.28424C17.5464 3.08003 20.6929 2.47371 23.9239 2.47371Z" fill="#0078D4"/>
<path d="M23.9241 8.92281C28.8422 8.92281 33.4651 10.8344 36.9407 14.3039L38.3073 12.9396C34.334 8.97333 29.1291 6.99438 23.9241 6.99438C18.7192 6.99438 13.5143 8.97333 9.54102 12.9396L10.9076 14.3039C14.3916 10.8344 19.0145 8.92281 23.9241 8.92281Z" fill="#0078D4"/>
<path d="M23.9239 16.2587C26.8765 16.2587 29.6519 17.404 31.744 19.4924L33.1106 18.1282C30.5714 15.5935 27.2477 14.3303 23.9239 14.3303C20.6002 14.3303 17.2765 15.5935 14.7373 18.1282L16.1039 19.4924C18.196 17.4124 20.9714 16.2587 23.9239 16.2587Z" fill="#0078D4"/>
</svg>
