<svg data-slug-id="power-bi01" viewBox="0 0 24 24" xmlns="http://www.w3.org/2000/svg">
<path d="M9 9C9.21094 9 9.40625 9.03906 9.58594 9.11719C9.76562 9.19531 9.92578 9.30469 10.0664 9.44531C10.1992 9.57812 10.3047 9.73438 10.3828 9.91406C10.4609 10.0938 10.5 10.2891 10.5 10.5V19.5C10.5 19.7109 10.4609 19.9062 10.3828 20.0859C10.3047 20.2656 10.1992 20.4258 10.0664 20.5664C9.92578 20.6992 9.76562 20.8047 9.58594 20.8828C9.40625 20.9609 9.21094 21 9 21C8.78906 21 8.59375 20.9609 8.41406 20.8828C8.23438 20.8047 8.07812 20.6992 7.94531 20.5664C7.80469 20.4258 7.69531 20.2656 7.61719 20.0859C7.53906 19.9062 7.5 19.7109 7.5 19.5V10.5C7.5 10.2891 7.53906 10.0938 7.61719 9.91406C7.69531 9.73438 7.80469 9.57812 7.94531 9.44531C8.07812 9.30469 8.23438 9.19531 8.41406 9.11719C8.59375 9.03906 8.78906 9 9 9ZM13.5 12C13.7109 12 13.9062 12.0391 14.0859 12.1172C14.2656 12.1953 14.4258 12.3047 14.5664 12.4453C14.6992 12.5781 14.8047 12.7344 14.8828 12.9141C14.9609 13.0938 15 13.2891 15 13.5V19.5C15 19.7109 14.9609 19.9062 14.8828 20.0859C14.8047 20.2656 14.6992 20.4258 14.5664 20.5664C14.4258 20.6992 14.2656 20.8047 14.0859 20.8828C13.9062 20.9609 13.7109 21 13.5 21C13.2891 21 13.0938 20.9609 12.9141 20.8828C12.7344 20.8047 12.5781 20.6992 12.4453 20.5664C12.3047 20.4258 12.1953 20.2656 12.1172 20.0859C12.0391 19.9062 12 19.7109 12 19.5V13.5C12 13.2891 12.0391 13.0938 12.1172 12.9141C12.1953 12.7344 12.3047 12.5781 12.4453 12.4453C12.5781 12.3047 12.7344 12.1953 12.9141 12.1172C13.0938 12.0391 13.2891 12 13.5 12ZM4.5 13.5C4.71094 13.5 4.90625 13.5391 5.08594 13.6172C5.26562 13.6953 5.42578 13.8047 5.56641 13.9453C5.69922 14.0781 5.80469 14.2344 5.88281 14.4141C5.96094 14.5938 6 14.7891 6 15V19.5C6 19.7109 5.96094 19.9062 5.88281 20.0859C5.80469 20.2656 5.69922 20.4258 5.56641 20.5664C5.42578 20.6992 5.26562 20.8047 5.08594 20.8828C4.90625 20.9609 4.71094 21 4.5 21C4.28906 21 4.09375 20.9609 3.91406 20.8828C3.73438 20.8047 3.57812 20.6992 3.44531 20.5664C3.30469 20.4258 3.19531 20.2656 3.11719 20.0859C3.03906 19.9062 3 19.7109 3 19.5V15C3 14.7891 3.03906 14.5938 3.11719 14.4141C3.19531 14.2344 3.30469 14.0781 3.44531 13.9453C3.57812 13.8047 3.73438 13.6953 3.91406 13.6172C4.09375 13.5391 4.28906 13.5 4.5 13.5ZM18 7.5C18.2109 7.5 18.4062 7.53906 18.5859 7.61719C18.7656 7.69531 18.9258 7.80469 19.0664 7.94531C19.1992 8.07812 19.3047 8.23438 19.3828 8.41406C19.4609 8.59375 19.5 8.78906 19.5 9V19.5C19.5 19.7109 19.4609 19.9062 19.3828 20.0859C19.3047 20.2656 19.1992 20.4258 19.0664 20.5664C18.9258 20.6992 18.7656 20.8047 18.5859 20.8828C18.4062 20.9609 18.2109 21 18 21C17.7891 21 17.5938 20.9609 17.4141 20.8828C17.2344 20.8047 17.0781 20.6992 16.9453 20.5664C16.8047 20.4258 16.6953 20.2656 16.6172 20.0859C16.5391 19.9062 16.5 19.7109 16.5 19.5V9C16.5 8.78906 16.5391 8.59375 16.6172 8.41406C16.6953 8.23438 16.8047 8.07812 16.9453 7.94531C17.0781 7.80469 17.2344 7.69531 17.4141 7.61719C17.5938 7.53906 17.7891 7.5 18 7.5ZM21 3C21.4141 3 21.8047 3.07812 22.1719 3.23438C22.5312 3.39062 22.8477 3.60547 23.1211 3.87891C23.3945 4.15234 23.6094 4.47266 23.7656 4.83984C23.9219 5.19922 24 5.58594 24 6V15C24 15.4141 23.9219 15.8047 23.7656 16.1719C23.6094 16.5312 23.3945 16.8477 23.1211 17.1211C22.8477 17.3945 22.5312 17.6094 22.1719 17.7656C21.8047 17.9219 21.4141 18 21 18V16.5C21.2109 16.5 21.4062 16.4609 21.5859 16.3828C21.7656 16.3047 21.9258 16.1992 22.0664 16.0664C22.1992 15.9258 22.3047 15.7656 22.3828 15.5859C22.4609 15.4062 22.5 15.2109 22.5 15V6C22.5 5.78906 22.4609 5.59375 22.3828 5.41406C22.3047 5.23438 22.1992 5.07812 22.0664 4.94531C21.9258 4.80469 21.7656 4.69531 21.5859 4.61719C21.4062 4.53906 21.2109 4.5 21 4.5H3C2.78906 4.5 2.59375 4.53906 2.41406 4.61719C2.23438 4.69531 2.07812 4.80469 1.94531 4.94531C1.80469 5.07812 1.69531 5.23438 1.61719 5.41406C1.53906 5.59375 1.5 5.78906 1.5 6V17.6016C1.04688 17.3438 0.683594 16.9883 0.410156 16.5352C0.136719 16.0742 0 15.5625 0 15V6C0 5.58594 0.078125 5.19922 0.234375 4.83984C0.390625 4.47266 0.605469 4.15234 0.878906 3.87891C1.15234 3.60547 1.47266 3.39062 1.83984 3.23438C2.19922 3.07812 2.58594 3 3 3H21Z" fill="#3A3A38"/>
</svg>
