<svg data-slug-id="power-plug" viewBox="0 0 34 47" xmlns="http://www.w3.org/2000/svg">
    <path d="M7.27359 30.8951V43.6279C7.27359 45.2103 8.56895 46.502 10.1477 46.502C11.7301 46.502 13.0217 45.2066 13.0217 43.6279V30.8951H20.9816V43.6279C20.9816 45.2103 22.2769 46.502 23.8557 46.502C25.4381 46.502 26.7297 45.2066 26.7297 43.6279V30.8951H33.5856V20.0906C33.5856 15.3176 30.7777 11.1666 26.7297 9.21251V0.501953H7.2699V9.21251C3.2219 11.1666 0.414062 15.3176 0.414062 20.0906V30.8951H7.27359Z" fill="#0078D4"/>
    <path d="M14.9836 6.36401H22.7448L16.7095 15.8511H21.236L12.9339 26.6298L15.1971 17.1427H12.0728L14.9836 6.36401Z" fill="#50E6FF"/>
</svg>
