<svg data-slug-id="power-bi" viewBox="0 0 60 60" xmlns="http://www.w3.org/2000/svg"><g mask="url(#power-bi_mask0)"><path d="M52 0v60H32V0h20z" fill="url(#power-bi_paint0_linear)"/><path d="M40 17.5V60H20V15h17.5a2.5 2.5 0 012.5 2.5z" filter="url(#power-bi_filter0_dd)" fill="url(#power-bi_paint1_linear)"/><path d="M8 30v30h20V32.5a2.5 2.5 0 00-2.5-2.5H8z" fill="url(#power-bi_paint2_linear)"/></g><defs><linearGradient id="power-bi_paint0_linear" x1="28.667" y1="0" x2="55.041" y2="55.904" gradientUnits="userSpaceOnUse"><stop stop-color="#E6AD10"/><stop offset="1" stop-color="#C87E0E"/></linearGradient><linearGradient id="power-bi_paint1_linear" x1="19.998" y1="15" x2="42.179" y2="58.016" gradientUnits="userSpaceOnUse"><stop stop-color="#F6D751"/><stop offset="1" stop-color="#E6AD10"/></linearGradient><linearGradient id="power-bi_paint2_linear" x1="7.998" y1="30" x2="20.255" y2="59.048" gradientUnits="userSpaceOnUse"><stop stop-color="#F9E589"/><stop offset="1" stop-color="#F6D751"/></linearGradient><filter id="power-bi_filter0_dd" x="15" y="11.25" width="30" height="55" filterUnits="userSpaceOnUse" color-interpolation-filters="sRGB"><feFlood flood-opacity="0" result="BackgroundImageFix"/><feColorMatrix in="SourceAlpha" values="0 0 0 0 0 0 0 0 0 0 0 0 0 0 0 0 0 0 127 0"/><feOffset dy=".237"/><feGaussianBlur stdDeviation=".237"/><feColorMatrix values="0 0 0 0 0 0 0 0 0 0 0 0 0 0 0 0 0 0 0.2 0"/><feBlend in2="BackgroundImageFix" result="effect1_dropShadow"/><feColorMatrix in="SourceAlpha" values="0 0 0 0 0 0 0 0 0 0 0 0 0 0 0 0 0 0 127 0"/><feOffset dy="1.25"/><feGaussianBlur stdDeviation="2.5"/><feColorMatrix values="0 0 0 0 0 0 0 0 0 0 0 0 0 0 0 0 0 0 0.18 0"/><feBlend in2="effect1_dropShadow" result="effect2_dropShadow"/><feBlend in="SourceGraphic" in2="effect2_dropShadow" result="shape"/></filter><mask id="power-bi_mask0" maskUnits="userSpaceOnUse" x="8" y="0" width="44" height="60"><path d="M32 2.5A2.5 2.5 0 0134.5 0h15A2.5 2.5 0 0152 2.5v55a2.5 2.5 0 01-2.5 2.5h-39A2.5 2.5 0 018 57.5v-25a2.5 2.5 0 012.5-2.5H20V17.5a2.5 2.5 0 012.5-2.5H32V2.5z" fill="#C4C4C4"/></mask></defs></svg>