<svg data-slug-id="pricing10" viewBox="0 0 49 49" xmlns="http://www.w3.org/2000/svg">
<path d="M27.5096 29.4652C27.5096 28.4774 26.7854 27.6584 25.3285 27.0167V31.652C26.7854 31.4156 27.5096 30.6895 27.5096 29.4652ZM23.1054 21.8579V17.0115C21.6906 17.2648 20.9833 18.0078 20.9833 19.232C20.9833 20.2959 21.6906 21.174 23.1054 21.8579ZM31.5685 29.2541C31.5685 30.9428 31.038 32.3106 29.9769 33.3322C28.9159 34.3623 27.3664 34.9955 25.3369 35.2235V38.5417H23.1054V35.3164C21.0085 35.2995 19.0885 34.8267 17.3454 33.9063V29.6763C17.8927 30.1238 18.7685 30.5628 19.9727 30.985C21.1769 31.4072 22.2212 31.652 23.1054 31.7111V26.147C20.8569 25.3112 19.2654 24.3993 18.3306 23.403C17.3959 22.4067 16.9243 21.1064 16.9243 19.4853C16.9243 17.8642 17.4969 16.4964 18.6506 15.3819C19.7959 14.2674 21.2864 13.6173 23.1054 13.4315V10.5862H25.3285V13.364C27.4759 13.4653 29.0759 13.8115 30.1285 14.4025V18.5312C28.7138 17.6785 27.1138 17.1466 25.3285 16.9439V22.736C27.5769 23.555 29.1769 24.4668 30.1285 25.4885C31.0885 26.5101 31.5685 27.7681 31.5685 29.2541Z" fill="#0078D4"/>
<path d="M48.1668 18.2365V5.57169H43.1058V10.1057C38.7521 4.47407 31.9395 0.851929 24.2931 0.851929C11.1395 0.851929 0.486816 11.5326 0.486816 24.7209C0.486816 37.9092 11.1479 48.5899 24.2931 48.5899C37.4384 48.5899 48.0994 37.9008 48.0994 24.7209C48.0994 24.2481 48.0826 23.7837 48.0573 23.3193H43.4005C43.4342 23.7837 43.451 24.2481 43.451 24.7209C43.451 35.3256 34.8784 43.9292 24.2931 43.9292C13.7079 43.9292 5.13524 35.3256 5.13524 24.7209C5.13524 14.1162 13.7079 5.51258 24.2931 5.51258C30.5163 5.51258 36.0405 8.4846 39.5352 13.0946H35.5268V18.169H43.1058V18.2365H48.1668Z" fill="#50E6FF"/>
</svg>
