<svg data-slug-id="pricing08" viewBox="0 0 49 49" xmlns="http://www.w3.org/2000/svg">
<path d="M10.9004 48.4423H38.7004V0.589844H10.9004V48.4423Z" fill="#0078D4"/>
<path d="M27.4508 28.5325C27.4508 27.7341 26.8508 27.0854 25.6508 26.5365V30.3288C26.8508 30.1292 27.4508 29.5304 27.4508 28.5325ZM23.8508 22.2952V18.3532C22.7008 18.5528 22.1008 19.1516 22.1008 20.1495C22.1008 21.0477 22.7008 21.7463 23.8508 22.2952ZM30.7508 28.3329C30.7508 29.73 30.3008 30.8278 29.4508 31.676C28.6008 32.5243 27.3008 33.0233 25.6508 33.2229V35.9174H23.8508V33.2728C22.1508 33.2728 20.5508 32.8736 19.1508 32.1251V28.6822C19.6008 29.0314 20.3008 29.3807 21.3008 29.73C22.3008 30.0793 23.1508 30.2789 23.8508 30.3288V25.7881C22.0008 25.0895 20.7008 24.341 19.9508 23.5426C19.2008 22.7443 18.8008 21.6465 18.8008 20.3491C18.8008 19.0518 19.2508 17.9041 20.2008 17.006C21.1508 16.1078 22.3508 15.5589 23.8508 15.4092V13.1139H25.6508V15.3593C27.4008 15.4591 28.7008 15.7086 29.6008 16.2076V19.5508C28.4508 18.8522 27.1508 18.4031 25.6508 18.2534V23.0436C27.5008 23.6923 28.8008 24.4408 29.6008 25.2891C30.4008 26.0874 30.7508 27.1353 30.7508 28.3329Z" fill="#50E6FF"/>
</svg>
