<svg data-slug-id="pricing15" viewBox="0 0 48 48" xmlns="http://www.w3.org/2000/svg">
<path d="M25.2747 2.55505V7.69646C29.5549 7.98351 33.4469 9.68042 36.4861 12.3313L40.0995 8.71799C36.14 5.12998 30.9733 2.85054 25.2747 2.55505Z" fill="#0078D4"/>
<path d="M6.1021 10.5277C2.54785 14.5041 0.293735 19.6624 0.0151367 25.3525H5.0468C5.33384 21.0723 7.04764 17.1719 9.70699 14.1326L6.1021 10.5277Z" fill="#50E6FF"/>
<path d="M22.7418 2.54722C17.0517 2.8427 11.8849 5.12214 7.91699 8.70172L11.5303 12.3151C14.5696 9.66415 18.4615 7.96723 22.7418 7.68863V2.54722Z" fill="#50E6FF"/>
<path d="M0.0239258 27.8832C0.336294 33.548 2.61574 38.6894 6.18686 42.632L9.69045 39.1284C7.0311 36.0807 5.32574 32.1719 5.04714 27.8832H0.0239258Z" fill="#50E6FF"/>
<path d="M47.9761 27.8832H42.9528C42.6742 32.1719 40.9773 36.0723 38.3264 39.12L41.83 42.6236C45.3927 38.6725 47.6637 33.5396 47.9761 27.8832Z" fill="#0078D4"/>
<path d="M41.9145 10.5433L38.3096 14.1482C40.9605 17.1874 42.6658 21.0709 42.9529 25.3512H47.9845C47.7059 19.6695 45.4603 14.5112 41.9145 10.5433Z" fill="#0078D4"/>
<path d="M32.0622 26.6608H26.009V16.6565L15.9373 26.7283H21.9904V36.7325L32.0622 26.6608Z" fill="#50E6FF"/>
</svg>
