<svg data-slug-id="pricing18" viewBox="0 0 48 48" xmlns="http://www.w3.org/2000/svg">
<path d="M6.83083 38.5435C10.4517 42.1644 15.2837 44.2958 20.3747 44.5434C20.9263 44.5702 21.3744 44.1199 21.3744 43.5676L21.3744 39.4411C21.3744 38.8889 20.9252 38.4447 20.3742 38.407C12.8651 37.8934 6.93323 31.6394 6.93323 24C6.93323 16.3606 12.8651 10.1066 20.3742 9.59297C20.9252 9.55528 21.3744 9.11116 21.3744 8.55888L21.3743 4.43234C21.3743 3.88005 20.9263 3.4298 20.3747 3.45662C15.2837 3.70416 10.4517 5.83556 6.83082 9.45647C2.97364 13.3136 0.806701 18.5451 0.806702 24C0.806702 29.4549 2.97365 34.6863 6.83083 38.5435Z" fill="#0078D4"/>
<rect width="6.12653" height="6.12653" rx="1" transform="matrix(-1 0 0 1 29.689 3.43233)" fill="#0078D4"/>
<rect width="6.12653" height="6.12653" rx="1" transform="matrix(-1 0 0 1 38.4412 12.1845)" fill="#0078D4"/>
<rect width="6.12653" height="6.12653" rx="1" transform="matrix(-1 0 0 1 47.1934 20.9367)" fill="#50E6FF"/>
<rect width="6.12653" height="6.12653" rx="1" transform="matrix(-1 0 0 1 38.4412 29.6889)" fill="#50E6FF"/>
<rect width="6.12653" height="6.12653" rx="1" transform="matrix(-1 0 0 1 29.689 38.4411)" fill="#50E6FF"/>
<path d="M26.3937 24.7356C25.5937 23.9684 24.2917 23.3058 22.4941 22.6915C22.3923 22.6567 22.3235 22.5613 22.3235 22.4538V18.547C22.3235 18.3986 22.4521 18.2827 22.5993 18.3014C23.8629 18.4618 25.0051 18.8017 26.0218 19.292C26.1919 19.3741 26.3937 19.2527 26.3937 19.0638V16.4779C26.3937 16.3858 26.3435 16.3007 26.2607 16.2605C25.4112 15.8486 24.1367 15.6135 22.5658 15.5461C22.431 15.5403 22.3235 15.4298 22.3235 15.2948V13.6852C22.3235 13.5472 22.2116 13.4352 22.0735 13.4352H20.6251C20.487 13.4352 20.3751 13.5472 20.3751 13.6852V15.3592C20.3751 15.4907 20.2731 15.5993 20.1423 15.6117C18.7112 15.7475 17.4979 16.2192 16.603 17.064C16.1315 17.4843 15.7779 17.9603 15.4797 18.4858C15.244 19.0113 15.0637 19.5923 15.1261 20.1673C15.1261 21.3789 15.5421 22.3742 16.3673 23.1098C17.114 23.8235 18.4089 24.5372 20.2646 25.1549C20.3675 25.1892 20.4375 25.2851 20.4375 25.3935V29.1466C20.4375 29.2917 20.3143 29.4067 20.17 29.3906C19.4539 29.3108 18.612 29.1138 17.7263 28.8342C16.9156 28.5508 16.3114 28.3323 15.8333 28.0795C15.6548 27.9852 15.4243 28.109 15.4243 28.3108V30.8838C15.4243 30.98 15.4793 31.0678 15.5665 31.1082C16.9836 31.7646 18.499 32.1118 20.0696 32.145C20.2076 32.148 20.3196 32.2596 20.3196 32.3977V34.3148C20.3196 34.4528 20.4315 34.5648 20.5696 34.5648H22.018C22.1561 34.5648 22.268 34.4528 22.268 34.3148V32.3203C22.268 32.191 22.367 32.0834 22.4955 32.0691C24.148 31.8853 25.3737 31.3739 26.2758 30.6702C27.1634 29.8789 27.6349 28.8837 27.6349 27.5669C27.5725 26.3676 27.2188 25.4713 26.3937 24.7356ZM20.3751 21.5687C20.3751 21.7497 20.1884 21.8703 20.0283 21.7857C19.0807 21.2848 18.6069 20.6552 18.6069 19.9014C18.6069 19.0825 19.0989 18.5318 20.083 18.2825C20.2338 18.2443 20.3751 18.3629 20.3751 18.5185V21.5687ZM22.5517 29.3081C22.4009 29.3429 22.2611 29.2247 22.2611 29.07V26.2058C22.2611 26.0305 22.437 25.9096 22.5976 25.9802C23.6186 26.429 24.1471 26.968 24.1471 27.6844C24.0962 28.5531 23.5948 29.0672 22.5517 29.3081Z" fill="#0078D4"/>
</svg>
