<svg data-slug-id="pricing14" viewBox="0 0 49 49" xmlns="http://www.w3.org/2000/svg">
<path d="M23.0006 15.1898H22.1006V35.0898H23.0006V15.1898Z" fill="#0078D4"/>
<path d="M33.1002 15.1898H28.2002V35.0898H33.1002V15.1898Z" fill="#0078D4"/>
<path d="M16.1002 15.1898H8.2002V35.0898H16.1002V15.1898Z" fill="#0078D4"/>
<path d="M20.0006 15.1898H17.1006V35.0898H20.0006V15.1898Z" fill="#0078D4"/>
<path d="M41.5006 15.1898H37.1006V35.0898H41.5006V15.1898Z" fill="#0078D4"/>
<path d="M36.1006 15.1898H34.1006V35.0898H36.1006V15.1898Z" fill="#0078D4"/>
<path d="M27.0998 15.1898H25.2998V35.0898H27.0998V15.1898Z" fill="#0078D4"/>
<path d="M3.0002 45.8899V37.4899H0.200195V48.6899H11.4002V45.8899H3.0002Z" fill="#50E6FF"/>
<path d="M3.0002 3.28987H11.5002V0.489868H0.200195V11.3899H3.0002V3.28987Z" fill="#50E6FF"/>
<path d="M45.6006 45.8899H37.6006V48.6899H48.4006V37.4899H45.6006V45.8899Z" fill="#50E6FF"/>
<path d="M45.6002 3.28987V11.3899H48.4002V0.489868H37.7002V3.28987H45.6002Z" fill="#50E6FF"/>
</svg>
