<svg data-slug-id="pricing13" viewBox="0 0 49 49" xmlns="http://www.w3.org/2000/svg">
<path d="M22.8004 15.1898H21.9004V35.0898H22.8004V15.1898Z" fill="#50E6FF"/>
<path d="M32.9 15.1898H28V35.0898H32.9V15.1898Z" fill="#50E6FF"/>
<path d="M15.9 15.1898H8V35.0898H15.9V15.1898Z" fill="#50E6FF"/>
<path d="M19.8004 15.1898H16.9004V35.0898H19.8004V15.1898Z" fill="#50E6FF"/>
<path d="M41.3004 15.1898H36.9004V35.0898H41.3004V15.1898Z" fill="#50E6FF"/>
<path d="M35.9004 15.1898H33.9004V35.0898H35.9004V15.1898Z" fill="#50E6FF"/>
<path d="M26.8996 15.1898H25.0996V35.0898H26.8996V15.1898Z" fill="#50E6FF"/>
<path d="M2.8 45.8899V37.4899H0V48.6899H11.2V45.8899H2.8Z" fill="#0078D4"/>
<path d="M2.8 3.28987H11.3V0.489868H0V11.3899H2.8V3.28987Z" fill="#0078D4"/>
<path d="M45.4004 45.8899H37.4004V48.6899H48.2004V37.4899H45.4004V45.8899Z" fill="#0078D4"/>
<path d="M45.4 3.28987V11.3899H48.2V0.489868H37.5V3.28987H45.4Z" fill="#0078D4"/>
</svg>
