<svg data-slug-id="pricing02" viewBox="0 0 49 49" xmlns="http://www.w3.org/2000/svg">
<path d="M5.40015 24.4898C5.40015 13.7898 14.1001 5.08984 24.8501 5.08984H24.9001V0.589844C16.1001 0.589844 8.60015 4.93984 4.20015 12.5398C-0.199853 20.1398 -0.199853 28.8398 4.20015 36.4398L8.00015 34.2398C6.35015 31.3898 5.40015 28.0398 5.40015 24.4898Z" fill="#50E6FF"/>
<path d="M24.9005 0.589844V5.08984C35.6005 5.08984 44.3005 13.7898 44.3005 24.5398C44.3005 35.2898 35.6005 43.9898 24.8505 43.9898C17.6505 43.9898 11.4005 40.0898 8.05049 34.2898L4.25049 36.4898C8.60049 44.0898 16.1005 48.4398 24.9005 48.4398C38.1005 48.4398 48.7505 37.7398 48.7505 24.5398C48.7505 11.2898 38.0505 0.589844 24.9005 0.589844Z" fill="#0078D4"/>
<path d="M8.05093 34.2383L4.20093 36.4383L8.05093 34.2383Z" fill="#0078D4"/>
<path d="M27.5001 28.4898C27.5001 27.6898 26.9001 27.0398 25.7001 26.4898V30.2398C26.9001 30.0898 27.5001 29.4898 27.5001 28.4898ZM23.9001 22.2898V18.3398C22.7501 18.5398 22.1501 19.1398 22.1501 20.1398C22.1501 21.0398 22.7501 21.7398 23.9001 22.2898ZM30.8001 28.3398C30.8001 29.7398 30.3501 30.8398 29.5001 31.6898C28.6501 32.5398 27.3501 33.0398 25.7001 33.2398V35.9398H23.9001V33.2898C22.2001 33.2898 20.6001 32.8898 19.2001 32.1398V28.6898C19.6501 29.0398 20.3501 29.3898 21.3501 29.7398C22.3501 30.0898 23.2001 30.2898 23.9001 30.3398V25.7898C22.0501 25.0898 20.7501 24.3398 20.0001 23.5398C19.2501 22.7398 18.8501 21.6898 18.8501 20.3398C18.8501 19.0398 19.3001 17.8898 20.2501 16.9898C21.2001 16.0898 22.4001 15.5398 23.9001 15.3898V13.0898H25.7001V15.3398C27.4501 15.4398 28.7501 15.6898 29.6001 16.1898V19.5898C28.4501 18.8898 27.1501 18.4398 25.7001 18.2898V22.9898C27.5501 23.6398 28.8501 24.3898 29.6001 25.2398C30.4501 26.0898 30.8001 27.0898 30.8001 28.3398Z" fill="#0078D4"/>
</svg>
