<svg data-slug-id="pricing12" viewBox="0 0 61 61" xmlns="http://www.w3.org/2000/svg">
<path d="M17.1428 43.499L57.2108 3.39478L57.2461 57.7727H2.86816L17.1428 43.499Z" fill="#0078D4"/>
<path d="M43.4326 32.0154H51.5273V40.1101L43.4326 32.0154Z" fill="#50E6FF"/>
<path d="M15.7471 29.1527C22.86 29.1527 28.6261 23.3866 28.6261 16.2738C28.6261 9.16089 22.86 3.39478 15.7471 3.39478C8.63428 3.39478 2.86816 9.16089 2.86816 16.2738C2.86816 23.3866 8.63428 29.1527 15.7471 29.1527Z" fill="#50E6FF"/>
<path d="M19.1108 16.4863C18.5756 15.9244 17.6798 15.4159 16.4339 14.9542V11.7421C17.4232 11.8708 18.318 12.1485 19.1108 12.636V10.3387C18.5212 10.0067 17.6264 9.80258 16.4339 9.74915V8.19604H15.1794V9.77587C14.1901 9.85028 13.3429 10.2099 12.7057 10.8472C12.396 11.1439 12.1502 11.5006 11.9834 11.8957C11.8166 12.2907 11.7322 12.7156 11.7354 13.1444C11.7354 14.0393 11.993 14.751 12.5282 15.3138C13.0367 15.87 13.9315 16.3852 15.1784 16.8402V19.9312C14.6699 19.9035 14.0804 19.748 13.4231 19.5171C12.7314 19.2662 12.2506 19.0401 11.9386 18.7788V21.1227C12.9273 21.6497 14.0314 21.9225 15.1517 21.9165V23.6985H16.41V21.8688C17.5548 21.74 18.4239 21.3803 19.0135 20.8194C19.6031 20.2584 19.9017 19.4971 19.9017 18.5479C19.8979 17.7074 19.647 17.0224 19.1108 16.4863ZM15.1794 14.4466C14.3933 14.065 14.0069 13.5785 14.0069 12.9622C14.0069 12.304 14.3933 11.8909 15.1794 11.7421V14.4466ZM16.41 19.9016V17.3258C17.2238 17.6855 17.6302 18.1119 17.6302 18.6748C17.6264 19.3407 17.22 19.7471 16.41 19.9016Z" fill="#0078D4"/>
<path d="M45.7921 32.0154H34.3441V37.7394H41.7443L30.4375 49.0462L34.4853 53.094L45.7921 41.7872V49.1874H51.5161V37.7394V32.0154H45.7921Z" fill="#50E6FF"/>
</svg>
