<svg data-slug-id="pricing03" viewBox="0 0 49 49" xmlns="http://www.w3.org/2000/svg">
<path d="M24.6066 5.50425C24.6231 5.50425 24.6396 5.50425 24.6479 5.50425V1.08948C16.025 1.08948 8.65053 5.35544 4.33496 12.8374L8.08835 15.0035C11.3953 9.32378 17.5545 5.50425 24.6066 5.50425Z" fill="#0078D4"/>
<path d="M8.08747 15.0106L4.33409 12.8363C0.0185204 20.3183 0.0185204 28.8502 4.33409 36.3322L8.07921 34.1661C6.44227 31.3552 5.50805 28.0813 5.50805 24.5925C5.50805 21.1037 6.45053 17.8215 8.08747 15.0106Z" fill="#50E6FF"/>
<path d="M24.6068 43.6927C17.5548 43.6927 11.3956 39.865 8.08862 34.177L4.34351 36.3431C8.65907 43.825 16.0253 48.091 24.6564 48.091V43.6927C24.6316 43.6927 24.6151 43.6927 24.6068 43.6927Z" fill="#50E6FF"/>
<path d="M48.1017 24.5853C48.1017 11.6056 37.6022 1.08948 24.6472 1.08948V5.50425C35.1716 5.52906 43.6952 14.0692 43.6952 24.5936C43.6952 35.118 35.1716 43.6664 24.6472 43.6912V48.0895C37.6022 48.0895 48.1017 37.5651 48.1017 24.5853Z" fill="#50E6FF"/>
<path d="M27.2186 28.5147C27.2186 27.7211 26.6316 27.0679 25.4659 26.5554V30.2674C26.6399 30.0773 27.2186 29.4986 27.2186 28.5147ZM23.6801 22.4217V18.536C22.5475 18.7427 21.9771 19.3297 21.9771 20.3135C21.9853 21.1733 22.5475 21.876 23.6801 22.4217ZM30.4759 28.3411C30.4759 29.697 30.046 30.7883 29.1945 31.6067C28.3429 32.4335 27.1028 32.9378 25.4659 33.1279V35.7818H23.6801V33.2023C22.0019 33.1858 20.4559 32.8138 19.0504 32.078V28.6883C19.4886 29.0438 20.1913 29.3993 21.1586 29.7383C22.1259 30.0773 22.9609 30.2674 23.6719 30.317V25.8609C21.8696 25.1912 20.5882 24.4555 19.8441 23.6618C19.0918 22.8681 18.7197 21.8182 18.7197 20.5202C18.7197 19.2222 19.1827 18.1309 20.1004 17.238C21.0263 16.3452 22.2168 15.8243 23.6719 15.6755V13.402H25.4576V15.6259C27.1772 15.7086 28.467 15.9814 29.3102 16.4609V19.7679C28.1776 19.0817 26.8879 18.66 25.4576 18.4947V23.1327C27.2599 23.7858 28.5496 24.5216 29.3102 25.3318C30.0956 26.1503 30.4759 27.1506 30.4759 28.3411Z" fill="#0078D4"/>
</svg>
