<svg data-slug-id="pricing09" viewBox="0 0 49 49" xmlns="http://www.w3.org/2000/svg">
<path d="M24.4004 38.3414C16.8046 38.3414 10.6488 32.1856 10.6488 24.5898C10.6488 16.994 16.8046 10.8383 24.4004 10.8383V0.589844C11.1457 0.589844 0.400391 11.3351 0.400391 24.5898C0.400391 37.8446 11.1457 48.5898 24.4004 48.5898C31.1204 48.5898 37.2004 45.8277 41.5541 41.373L34.3035 34.1309C31.8025 36.7246 28.2909 38.3414 24.4004 38.3414Z" fill="#0078D4"/>
<path d="M38.152 24.2025H48.4004C48.1899 11.1246 37.5288 0.589844 24.4004 0.589844V10.8383C31.8699 10.8383 37.9414 16.7835 38.152 24.2025Z" fill="#50E6FF"/>
<path d="M24.4006 36.0923C30.6792 36.0923 35.7691 31.0025 35.7691 24.7239C35.7691 18.4453 30.6792 13.3555 24.4006 13.3555C18.122 13.3555 13.0322 18.4453 13.0322 24.7239C13.0322 31.0025 18.122 36.0923 24.4006 36.0923Z" fill="#50E6FF"/>
<path d="M27.3728 24.9083C26.9012 24.4115 26.1096 23.9652 25.0064 23.5526V20.7147C25.8822 20.8326 26.6738 21.0768 27.3728 21.5062V19.4768C26.8506 19.182 26.0591 19.0052 25.0064 18.9547V17.582H23.9033V18.9799C23.0275 19.0473 22.278 19.3589 21.7222 19.9231C21.158 20.4873 20.8633 21.161 20.8633 21.9526C20.8633 22.7441 21.0906 23.3673 21.5622 23.8641C22.0085 24.3526 22.8001 24.8073 23.9033 25.2115V27.9399C23.457 27.9147 22.9349 27.7799 22.3538 27.5778C21.7475 27.3589 21.318 27.1568 21.0401 26.9294V29.001C21.8991 29.4557 22.8422 29.6999 23.878 29.6999V31.2747H24.9896V29.6578C26.0001 29.5399 26.7664 29.2283 27.2885 28.7315C27.8022 28.2431 28.0717 27.561 28.0717 26.7273C28.0717 25.9862 27.8443 25.3799 27.3728 24.9083ZM23.9033 23.1062C23.2128 22.761 22.8675 22.3399 22.8675 21.7926C22.8675 21.2115 23.2128 20.8494 23.9033 20.7147V23.1062ZM24.9896 27.9231V25.6494C25.7054 25.9694 26.0675 26.3399 26.0675 26.8368C26.0675 27.4262 25.7054 27.7883 24.9896 27.9231Z" fill="#0078D4"/>
<path d="M48.3583 24.5905C48.3583 24.4642 48.3583 24.3294 48.3499 24.2031H38.152C38.152 24.3294 38.1604 24.4558 38.1604 24.5905C38.1604 28.2958 36.6952 31.6642 34.312 34.1315L41.5457 41.3484C45.7562 37.0284 48.3583 31.1084 48.3583 24.5905Z" fill="#50E6FF"/>
</svg>
