<svg data-slug-id="pricing04" viewBox="0 0 48 49" xmlns="http://www.w3.org/2000/svg">
<path d="M24.0057 5.50499C24.0223 5.50499 24.0388 5.50499 24.0471 5.50499V1.09021C15.4242 1.09021 8.0497 5.35617 3.73413 12.8381L7.48752 15.0042C10.7945 9.32451 16.9537 5.50499 24.0057 5.50499Z" fill="#50E6FF"/>
<path d="M7.48689 15.0106L3.7335 12.8363C-0.582066 20.3183 -0.582066 28.8502 3.7335 36.3322L7.47862 34.1661C5.84168 31.3552 4.90747 28.0813 4.90747 24.5925C4.90747 21.1037 5.84995 17.8215 7.48689 15.0106Z" fill="#0078D4"/>
<path d="M24.0065 43.6918C16.9544 43.6918 10.7952 39.864 7.48828 34.176L3.74316 36.3421C8.05873 43.824 15.425 48.09 24.0561 48.09V43.6918C24.0313 43.6918 24.0148 43.6918 24.0065 43.6918Z" fill="#0078D4"/>
<path d="M47.5014 24.5861C47.5014 11.6063 37.0018 1.09021 24.0469 1.09021V5.50499C34.5712 5.52979 43.0949 14.07 43.0949 24.5943C43.0949 35.1187 34.5712 43.6672 24.0469 43.692V48.0902C37.0018 48.0902 47.5014 37.5658 47.5014 24.5861Z" fill="#0078D4"/>
<path d="M26.6178 28.5155C26.6178 27.7218 26.0308 27.0687 24.8651 26.5561V30.2681C26.039 30.078 26.6178 29.4993 26.6178 28.5155ZM23.0793 22.4224V18.5367C21.9467 18.7434 21.3762 19.3304 21.3762 20.3142C21.3845 21.174 21.9467 21.8768 23.0793 22.4224ZM29.8751 28.3418C29.8751 29.6977 29.4452 30.789 28.5937 31.6075C27.7421 32.4342 26.502 32.9385 24.8651 33.1287V35.7825H23.0793V33.2031C21.401 33.1865 19.855 32.8145 18.4496 32.0787V28.6891C18.8878 29.0446 19.5905 29.4001 20.5578 29.739C21.5251 30.078 22.3601 30.2681 23.0711 30.3177V25.8616C21.2688 25.192 19.9873 24.4562 19.2433 23.6625C18.4909 22.8688 18.1189 21.8189 18.1189 20.5209C18.1189 19.2229 18.5819 18.1316 19.4995 17.2388C20.4255 16.3459 21.616 15.825 23.0711 15.6762V13.4027H24.8568V15.6266C26.5764 15.7093 27.8661 15.9821 28.7094 16.4616V19.7686C27.5768 19.0824 26.2871 18.6608 24.8568 18.4954V23.1334C26.6591 23.7865 27.9488 24.5223 28.7094 25.3325C29.4948 26.151 29.8751 27.1513 29.8751 28.3418Z" fill="#0078D4"/>
</svg>
