<svg data-slug-id="pricing17" viewBox="0 0 49 48" xmlns="http://www.w3.org/2000/svg">
<path d="M25.7385 7.30376H36.4447V17.3802" stroke="#50E6FF" stroke-width="3" stroke-linecap="round" stroke-linejoin="round"/>
<path d="M34.791 1.65749H41.952V8.39733" stroke="#50E6FF" stroke-width="3" stroke-linecap="round" stroke-linejoin="round"/>
<rect x="6.03696" y="11.8535" width="25.7416" height="36.1465" rx="2" fill="#0078D4"/>
<path d="M24.5153 30.7485C23.5935 29.8646 22.0752 29.1049 19.9683 28.4005V23.5249C21.6802 23.7044 23.1984 24.174 24.5153 24.8785V21.3564C23.5237 20.8246 21.9435 20.5346 19.9683 20.4724V18.1244H17.7916V20.5346C16.0797 20.652 14.6312 21.1837 13.5777 22.1782C13.051 22.6478 12.6559 23.1796 12.3228 23.7666C12.0595 24.3536 11.8581 25.0028 11.9278 25.645C11.9278 26.9986 12.3925 28.1105 13.3143 28.9323C14.1742 29.7541 15.6847 30.5759 17.8613 31.2803V35.9764C17.0015 35.9142 15.948 35.6794 14.8326 35.3272C13.6474 34.9129 12.8573 34.6228 12.2609 34.2085V37.7927C13.9728 38.6145 15.8163 39.0288 17.7296 39.0288V41.7291H19.9063V38.9667C21.8816 38.7871 23.3301 38.2001 24.3836 37.3783C25.3751 36.4943 25.9018 35.3825 25.9018 33.9115C25.8321 32.5717 25.437 31.5704 24.5153 30.7485ZM17.7916 27.6409C16.4748 27.0538 15.8163 26.2873 15.8163 25.3481C15.8163 24.3467 16.4748 23.7044 17.7916 23.4696V27.6409ZM19.8986 35.9211V31.9847C21.2851 32.5165 22.0055 33.1587 22.0055 34.0427C21.9435 35.0993 21.2851 35.6863 19.8986 35.9211Z" fill="white"/>
</svg>
