<svg data-slug-id="pricing07" viewBox="0 0 48 49" xmlns="http://www.w3.org/2000/svg">
<path d="M23.9075 48.4802C37.1538 48.4802 47.8148 37.7434 47.8148 24.5729C47.8906 11.3266 37.1538 0.589844 23.9075 0.589844C10.7371 0.589844 0.000244141 11.3267 0.000244141 24.4971C0.000244141 37.7434 10.7371 48.4802 23.9075 48.4802Z" fill="#50E6FF"/>
<path d="M30.2152 24.9253C29.2131 23.8474 27.5626 22.921 25.272 22.0621V16.1169C27.1331 16.3358 28.7836 16.9084 30.2152 17.7674V13.4727C29.1373 12.8242 27.4194 12.4706 25.272 12.3948V9.53162H22.9057V12.4706C21.0447 12.6137 19.4699 13.2621 18.3247 14.4748C17.7521 15.0474 17.3226 15.6958 16.9605 16.4116C16.6742 17.1274 16.4552 17.919 16.531 18.7021C16.531 20.3526 17.0363 21.7084 18.0384 22.7105C18.9731 23.7126 20.6152 24.7147 22.9815 25.5737V31.3C22.0468 31.2242 20.9015 30.9379 19.6889 30.5084C18.4005 30.0031 17.5415 29.6494 16.8931 29.1442V33.5147C18.7542 34.5168 20.7584 35.0221 22.8384 35.0221V38.3147H25.2047V34.9463C27.352 34.7273 28.9268 34.0115 30.072 33.0094C31.1499 31.9315 31.7225 30.5758 31.7225 28.7821C31.6467 27.1484 31.2173 25.9274 30.2152 24.9253ZM22.9057 21.1358C21.4742 20.42 20.7584 19.4853 20.7584 18.34C20.7584 17.119 21.4742 16.3358 22.9057 16.0495V21.1358ZM25.1962 31.2326V26.4326C26.7036 27.081 27.4868 27.8642 27.4868 28.9421C27.4194 30.2305 26.7036 30.9463 25.1962 31.2326Z" fill="#0078D4"/>
</svg>
