<svg data-slug-id="pricing01" viewBox="0 0 48 49" xmlns="http://www.w3.org/2000/svg">
<path d="M41.4885 48.5882H46.5053V38.4113H41.4885V48.5882Z" fill="#0078D4"/>
<path d="M31.3281 48.5862H36.3449V33.4304H31.3281V48.5862Z" fill="#0078D4"/>
<path d="M11.1687 48.5885H16.1855V10.6062H11.1687V48.5885Z" fill="#0078D4"/>
<path d="M21.3369 48.5898H26.3537V23.2655H21.3369V48.5898Z" fill="#0078D4"/>
<path d="M1 48.5894H6.04205V0.590454H1V48.5894Z" fill="#0078D4"/>
<path d="M42.5083 15.8638C42.5083 15.079 41.9265 14.4292 40.7714 13.9229V17.6021C41.9349 17.4165 42.5083 16.8342 42.5083 15.8638ZM39.0008 9.81327V5.96525C37.8794 6.16778 37.3145 6.75004 37.3145 7.72893C37.3145 8.58123 37.8794 9.2732 39.0008 9.81327ZM45.7376 15.695C45.7376 17.0367 45.316 18.1169 44.4728 18.9354C43.6297 19.754 42.3987 20.2519 40.7798 20.4375V23.3235H39.0092V20.5135C37.3398 20.4966 35.8137 20.1253 34.4224 19.3996V16.0325C34.8609 16.387 35.5607 16.7329 36.5135 17.0705C37.4747 17.408 38.301 17.6021 39.0092 17.6443V13.2225C37.2217 12.5558 35.957 11.8301 35.215 11.0453C34.473 10.2521 34.1021 9.21413 34.1021 7.93145C34.1021 6.64878 34.5574 5.5602 35.4764 4.67414C36.387 3.78809 37.5674 3.27333 39.0176 3.12987V0.589844H40.7883V3.07924C42.4914 3.16363 43.7646 3.43366 44.6077 3.90623V7.18042C43.4863 6.49689 42.2132 6.08339 40.7883 5.91462V10.5137C42.5757 11.1634 43.8489 11.8892 44.6077 12.6993C45.3581 13.5178 45.7376 14.5136 45.7376 15.695Z" fill="#50E6FF"/>
</svg>
