<svg data-slug-id="pricing05" viewBox="0 0 49 49" xmlns="http://www.w3.org/2000/svg">
<path d="M25.675 3.14478V8.28619C29.9553 8.57323 33.8473 10.2701 36.8865 12.9211L40.4999 9.30771C36.5404 5.7197 31.3737 3.44026 25.675 3.14478Z" fill="#50E6FF"/>
<path d="M6.50249 11.1176C2.94824 15.0939 0.694126 20.2522 0.415527 25.9424H5.44719C5.73423 21.6621 7.44803 17.7617 10.1074 14.7225L6.50249 11.1176Z" fill="#0078D4"/>
<path d="M23.1422 3.13708C17.452 3.43257 12.2853 5.71201 8.31738 9.29158L11.9307 12.9049C14.97 10.254 18.8619 8.55709 23.1422 8.2785V3.13708Z" fill="#0078D4"/>
<path d="M0.424316 28.4729C0.736685 34.1377 3.01613 39.2792 6.58726 43.2217L10.0908 39.7182C7.43149 36.6705 5.72613 32.7616 5.44753 28.4729H0.424316Z" fill="#0078D7"/>
<path d="M48.3764 28.4729H43.3532C43.0746 32.7616 41.3777 36.662 38.7268 39.7097L42.2304 43.2133C45.7931 39.2623 48.0641 34.1293 48.3764 28.4729Z" fill="#50E6FF"/>
<path d="M42.3149 11.1331L38.71 14.738C41.3609 17.7772 43.0662 21.6607 43.3533 25.941H48.3849C48.1063 20.2593 45.8607 15.101 42.3149 11.1331Z" fill="#50E6FF"/>
<path d="M32.4626 27.2506H26.4094V17.2463L16.3376 27.3181H22.3908V37.3223L32.4626 27.2506Z" fill="#0078D4"/>
</svg>
