<svg data-slug-id="pricing11" viewBox="0 0 48 49" xmlns="http://www.w3.org/2000/svg">
<path d="M10.1119 13.2031H0V35.8811H10.1119V13.2031Z" fill="#0078D4"/>
<path d="M22.7327 5.75H12.6377V35.9648H22.7327V5.75Z" fill="#0078D4"/>
<path d="M35.3455 0.589844H25.2842V35.9836H35.3539V0.589844H35.3455Z" fill="#0078D4"/>
<path d="M47.9832 25.8867H37.9219V35.9836H47.9748V25.8867H47.9832Z" fill="#0078D4"/>
<path d="M47.9828 38.4492H7.86377V40.9671H47.9758V38.4492H47.9828Z" fill="#0078D7"/>
<path d="M11.3926 48.5824C17.6483 48.5824 22.7169 43.5129 22.7169 37.256C22.7169 30.9992 17.6483 25.9297 11.3926 25.9297C5.13692 25.9297 0.0683594 30.9992 0.0683594 37.256C0.0683594 43.5129 5.13692 48.5824 11.3926 48.5824Z" fill="#50E6FF"/>
<path d="M14.3552 37.4411C13.8837 36.9442 13.1007 36.4979 11.9978 36.0937V33.2642C12.8734 33.3821 13.6564 33.6263 14.3552 34.0558V32.0348C13.8332 31.74 13.0502 31.5632 11.9978 31.5127V30.1484H10.8948V31.5379C10.0192 31.6053 9.27825 31.9169 8.72256 32.4811C8.15845 33.0453 7.86377 33.7106 7.86377 34.5021C7.86377 35.2937 8.0911 35.9085 8.56259 36.4053C9.00883 36.8937 9.79184 37.3485 10.8948 37.7442V40.4643C10.4486 40.439 9.92655 40.3043 9.35403 40.1021C8.74782 39.8832 8.31842 39.6811 8.049 39.4537V41.5169C8.90779 41.9716 9.84236 42.2158 10.878 42.2158V43.7822H11.9809V42.1737C12.9913 42.0558 13.749 41.7443 14.271 41.2474C14.7846 40.759 15.054 40.0769 15.054 39.2516C15.054 38.519 14.8267 37.9127 14.3552 37.4411ZM10.8948 35.6474C10.2044 35.3021 9.8592 34.8811 9.8592 34.3421C9.8592 33.7611 10.2044 33.399 10.8948 33.2642V35.6474ZM11.9809 40.4474V38.1821C12.6966 38.5021 13.0586 38.8727 13.0586 39.3695C13.0586 39.9506 12.6966 40.3127 11.9809 40.4474Z" fill="#0078D4"/>
</svg>
