<svg data-slug-id="product-sql" viewBox="0 0 48 48" xmlns="http://www.w3.org/2000/svg">
<path d="M38.64 19.0665C38.5277 15.4532 36.9944 12.0301 34.3731 9.54064C31.7518 7.05118 28.2543 5.69638 24.64 5.77046C21.7167 5.73579 18.8553 6.61331 16.4541 8.2809C14.0528 9.94848 12.2312 12.3232 11.2427 15.0745C8.16429 15.4907 5.33715 16.9968 3.27436 19.3194C1.21156 21.642 0.0498258 24.6271 0 27.7331C0.0921796 31.2268 1.56723 34.5411 4.10119 36.9481C6.63516 39.355 10.0208 40.6579 13.5147 40.5705H36.8533C39.7445 40.4983 42.5012 39.3342 44.5691 37.3123C46.637 35.2904 47.8628 32.5606 48 29.6718C47.9465 27.0825 46.9767 24.596 45.263 22.6543C43.5493 20.7126 41.2026 19.4413 38.64 19.0665Z" fill="url(#product-sql_paint0_linear)"/>
<path d="M34.4 30.3995V21.3328H32V32.3462H38.56V30.3995H34.4ZM15.36 25.9462C14.8644 25.7471 14.4049 25.4678 14 25.1195C13.8926 25.0057 13.809 24.8716 13.754 24.7251C13.6991 24.5786 13.6739 24.4225 13.68 24.2662C13.6724 24.1097 13.7052 23.9539 13.7752 23.8138C13.8453 23.6736 13.9503 23.5539 14.08 23.4662C14.4083 23.2398 14.8017 23.1274 15.2 23.1462C16.1498 23.1035 17.0871 23.3753 17.8667 23.9195V21.6262C17.0147 21.3092 16.1084 21.1642 15.2 21.1995C14.1538 21.144 13.1225 21.4657 12.2934 22.1062C11.932 22.3848 11.642 22.7452 11.4473 23.1579C11.2526 23.5705 11.1587 24.0235 11.1734 24.4795C11.1734 25.8395 12.0267 26.9062 13.84 27.7062C14.4286 27.9567 14.984 28.2792 15.4934 28.6662C15.6182 28.7707 15.7186 28.9012 15.7877 29.0486C15.8568 29.196 15.8929 29.3567 15.8934 29.5195C15.8932 29.6813 15.8544 29.8407 15.7802 29.9845C15.706 30.1283 15.5985 30.2523 15.4667 30.3462C15.104 30.5593 14.6868 30.6613 14.2667 30.6395C13.1941 30.6307 12.1612 30.2327 11.36 29.5195V31.9995C12.2408 32.4533 13.2232 32.6736 14.2134 32.6395C15.3312 32.7064 16.4391 32.3966 17.36 31.7595C17.6854 31.4514 17.9344 31.0715 18.0871 30.6503C18.2399 30.229 18.2922 29.7779 18.24 29.3328C18.2533 28.6501 18.0162 27.986 17.5734 27.4662C16.9501 26.8102 16.196 26.2924 15.36 25.9462ZM29.3334 30.1862C29.9124 29.2583 30.2194 28.1866 30.2194 27.0928C30.2194 25.9991 29.9124 24.9274 29.3334 23.9995C28.9173 23.1666 28.269 22.4719 27.4667 21.9995C26.6539 21.5388 25.7343 21.2997 24.8 21.3062C23.7929 21.2843 22.7984 21.5329 21.92 22.0262C21.0964 22.4851 20.421 23.1697 19.9734 23.9995C19.5018 24.9426 19.264 25.9852 19.28 27.0395C19.2852 27.9658 19.5042 28.8784 19.92 29.7062C20.3278 30.5293 20.9674 31.2153 21.76 31.6795C22.5653 32.1712 23.4838 32.4467 24.4267 32.4795L26.72 35.1462H29.9467L26.6667 32.2128C27.7712 31.8816 28.7184 31.1616 29.3334 30.1862ZM26.6667 29.5195C26.4238 29.8208 26.1144 30.0619 25.7628 30.2238C25.4112 30.3857 25.0269 30.4641 24.64 30.4528C24.2501 30.4663 23.8626 30.3862 23.51 30.2192C23.1574 30.0521 22.85 29.8031 22.6134 29.4928C22.0503 28.7224 21.7765 27.7783 21.84 26.8262C21.7779 25.8742 22.0515 24.9305 22.6134 24.1595C22.8643 23.8501 23.1815 23.6009 23.5414 23.4301C23.9013 23.2594 24.295 23.1715 24.6934 23.1728C25.0828 23.1558 25.4703 23.2373 25.8199 23.4098C26.1695 23.5822 26.4699 23.8401 26.6934 24.1595C27.2189 24.9456 27.4719 25.8824 27.4134 26.8262C27.5067 27.7854 27.2406 28.7452 26.6667 29.5195Z" fill="#F2F2F2"/>
<defs>
<linearGradient id="product-sql_paint0_linear" x1="26.4213" y1="42.5145" x2="20.0427" y2="6.35446" gradientUnits="userSpaceOnUse">
<stop offset="0.15" stop-color="#0078D4"/>
<stop offset="0.8" stop-color="#5EA0EF"/>
<stop offset="1" stop-color="#83B9F9"/>
</linearGradient>
</defs>
</svg>
