<svg data-slug-id="product-sentinel" viewBox="0 0 48 48" xmlns="http://www.w3.org/2000/svg">
<path d="M35.92 3.67999C33.4056 3.46975 30.8927 4.10262 28.7778 5.47875C26.6629 6.85488 25.0664 8.89595 24.24 11.28C23.4046 8.89642 21.8022 6.85727 19.6838 5.48198C17.5653 4.10668 15.0505 3.47293 12.5333 3.67999C2 4.50665 1.44 14.9333 1.6 18.9333C1.68 21.7867 2.24 30.7733 24 46.4V46.6666L24.1867 46.5333L24.3733 46.6666V46.4C46.24 30.7733 46.8 21.6267 46.88 18.6667C47.04 14.7733 46.4533 4.50665 35.92 3.67999Z" fill="url(#product-sentinel_paint0_linear)"/>
<path d="M45.3333 10.1333C46.2139 13.6851 45.924 17.4263 44.5067 20.8C42.16 26.1333 37.04 30.4 29.6 33.5467C29.2605 33.1796 28.8477 32.8879 28.3883 32.6904C27.929 32.4928 27.4333 32.3939 26.9333 32.4C26.2143 32.3951 25.5097 32.6024 24.908 32.9961C24.3063 33.3898 23.8341 33.9524 23.5507 34.6132C23.2672 35.2741 23.1851 36.0039 23.3146 36.7112C23.4441 37.4186 23.7795 38.0719 24.2787 38.5895C24.7779 39.1071 25.4188 39.4658 26.121 39.6207C26.8232 39.7757 27.5555 39.72 28.2261 39.4606C28.8968 39.2012 29.476 38.7496 29.8912 38.1625C30.3063 37.5754 30.539 36.8788 30.56 36.16C36.3728 33.7461 41.4621 29.8694 45.3333 24.9067C46.5922 22.1929 47.09 19.1881 46.7733 16.2133C46.6383 14.1202 46.1515 12.0647 45.3333 10.1333Z" fill="#FFE452"/>
<path d="M18.32 31.84L17.28 32.9067C9.94667 25.68 7.62667 19.9467 10.6667 16.96C13.7067 13.9733 19.3867 16.2933 26.6667 23.5467L25.6267 24.6133C25.4961 24.7423 25.3923 24.8959 25.3216 25.0653C25.2508 25.2347 25.2143 25.4164 25.2143 25.6C25.2143 25.7836 25.2508 25.9653 25.3216 26.1347C25.3923 26.3041 25.4961 26.4577 25.6267 26.5867C25.7537 26.7206 25.9067 26.8273 26.0764 26.9002C26.246 26.9731 26.4287 27.0107 26.6133 27.0107C26.798 27.0107 26.9807 26.9731 27.1503 26.9002C27.3199 26.8273 27.4729 26.7206 27.6 26.5867L29.5733 24.6133C29.8307 24.3494 29.9747 23.9953 29.9747 23.6267C29.9747 23.258 29.8307 22.9039 29.5733 22.64L28.5867 21.6533C23.6533 16.6933 15.2533 10.6933 9.92 14.24C8.42638 12.835 7.48116 10.9446 7.25333 8.90666C7.08895 7.35402 7.52818 5.79764 8.48 4.56C6.94572 5.23999 5.59352 6.2724 4.53333 7.57333C4.30989 9.19059 4.51214 10.8382 5.12009 12.3534C5.72804 13.8686 6.72068 15.199 8 16.2133C4.53333 21.5467 10.5067 29.92 15.44 34.88L16.4267 35.8933C16.6906 36.1507 17.0447 36.2947 17.4133 36.2947C17.782 36.2947 18.1361 36.1507 18.4 35.8933L20.4 33.8933C20.6574 33.6294 20.8014 33.2753 20.8014 32.9067C20.8014 32.538 20.6574 32.184 20.4 31.92C20.2756 31.7673 20.1202 31.6428 19.944 31.5549C19.7678 31.467 19.5749 31.4176 19.3781 31.41C19.1813 31.4024 18.9852 31.4369 18.8027 31.511C18.6203 31.5852 18.4557 31.6973 18.32 31.84Z" fill="#FFE452"/>
<defs>
<linearGradient id="product-sentinel_paint0_linear" x1="24.24" y1="46.6666" x2="24.24" y2="3.62665" gradientUnits="userSpaceOnUse">
<stop stop-color="#EF7100"/>
<stop offset="0.13" stop-color="#F27D07"/>
<stop offset="0.43" stop-color="#F69113"/>
<stop offset="0.72" stop-color="#F99E1B"/>
<stop offset="1" stop-color="#FAA21D"/>
</linearGradient>
</defs>
</svg>
