<svg data-slug-id="pytorch" viewBox="0 0 188 188" xmlns="http://www.w3.org/2000/svg">
<path d="M121.995 52.2107C127.523 52.2107 132.004 47.729 132.004 42.2006C132.004 36.6722 127.523 32.1907 121.995 32.1907C116.466 32.1907 111.985 36.6722 111.985 42.2006C111.985 47.729 116.466 52.2107 121.995 52.2107Z" fill="#EE4C2C"/>
<path d="M49.8595 74.051C41.8102 83.9577 36.9945 96.6165 36.9945 110.376C36.9945 142.229 62.8279 168.062 94.6809 168.062C126.534 168.062 152.367 142.229 152.367 110.376C152.367 94.4492 145.9 80.0362 135.478 69.5792L149.168 55.9573C163.065 69.8887 171.665 89.1176 171.665 110.341C171.665 152.858 137.198 187.325 94.6809 187.325C52.1644 187.36 17.6969 152.892 17.6969 110.376C17.6969 90.6654 25.1271 72.675 37.304 59.0531L94.6121 1.26361V28.4729C94.6121 28.4729 63.0343 60.6011 58.2872 65.073C53.5403 69.5447 49.8595 74.051 49.8595 74.051Z" fill="#EE4C2C"/>
</svg>
