<svg data-slug-id="qna-maker01" viewBox="0 0 48 48" xmlns="http://www.w3.org/2000/svg">
<path d="M19.4401 18.6761H46.2244C46.69 18.6761 47.1366 18.8609 47.4661 19.1899C47.7956 19.5189 47.981 19.9652 47.9817 20.4308V41.7138C47.9803 42.1792 47.7946 42.6251 47.4653 42.9539C47.136 43.2827 46.6898 43.4677 46.2244 43.4685H35.2642C35.1995 43.4684 35.1366 43.49 35.0856 43.5298L29.4642 47.8365C29.3777 47.9034 29.2741 47.9447 29.1653 47.9557C29.0564 47.9666 28.9467 47.9468 28.8486 47.8984C28.7505 47.8501 28.668 47.7751 28.6104 47.6821C28.5528 47.5892 28.5224 47.4819 28.5228 47.3725V43.7618C28.5228 43.6845 28.4923 43.6102 28.4379 43.5553C28.3834 43.5004 28.3095 43.4692 28.2322 43.4685H19.4321C18.9669 43.4677 18.521 43.2826 18.1921 42.9537C17.8632 42.6248 17.6781 42.1789 17.6774 41.7138V20.4308C17.6788 19.9645 17.8652 19.5178 18.1957 19.1888C18.5262 18.8598 18.9737 18.6754 19.4401 18.6761Z" fill="url(#qna-maker01_paint0_linear)"/>
<path d="M31.2965 1.71585V22.9961C31.2958 23.4613 31.1107 23.9072 30.7818 24.2361C30.4529 24.565 30.007 24.7501 29.5418 24.7508H20.7577C20.6804 24.7515 20.6064 24.7827 20.552 24.8377C20.4976 24.8926 20.467 24.9668 20.467 25.0441V28.6575C20.4664 28.7665 20.4355 28.8731 20.3777 28.9655C20.3199 29.0578 20.2375 29.1322 20.1397 29.1804C20.042 29.2286 19.9328 29.2486 19.8243 29.2382C19.7159 29.2278 19.6125 29.1874 19.5257 29.1215L13.8963 24.8121C13.8442 24.7752 13.7814 24.7565 13.7176 24.7588H2.75748C2.29207 24.7581 1.8459 24.5731 1.51656 24.2442C1.18722 23.9154 1.00153 23.4695 1.00012 23.0041V1.71585C1.00012 1.24977 1.18527 0.802781 1.51484 0.473213C1.84441 0.143645 2.2914 -0.0415039 2.75748 -0.0415039H29.5418C30.0072 -0.0400941 30.4531 0.145593 30.7819 0.474932C31.1108 0.804271 31.2958 1.25045 31.2965 1.71585Z" fill="url(#qna-maker01_paint1_linear)"/>
<path d="M14.2648 16.0975C14.1862 15.853 14.1282 15.6024 14.0915 15.3482C14.0367 15.0473 14.009 14.742 14.0088 14.4362C14.0035 13.9952 14.1002 13.5589 14.2915 13.1615C14.4826 12.779 14.7189 12.4209 14.9955 12.0948C15.2805 11.7589 15.5841 11.4393 15.9048 11.1375C16.2328 10.8308 16.5369 10.5294 16.8169 10.2388C17.0865 9.95952 17.3227 9.64989 17.5209 9.3161C17.7092 8.99237 17.8068 8.62391 17.8035 8.24942C17.8106 7.93546 17.7391 7.62472 17.5955 7.34541C17.4572 7.09165 17.2619 6.87347 17.0249 6.70807C16.7734 6.53126 16.4926 6.40035 16.1955 6.3214C15.8701 6.23529 15.5347 6.19314 15.1982 6.19606C14.5777 6.21942 13.9683 6.36691 13.4058 6.62982C12.8434 6.89272 12.3393 7.26572 11.9235 7.72675V5.06005C13.1035 4.3473 14.4543 3.96677 15.8328 3.9587C16.429 3.95464 17.0226 4.03637 17.5955 4.20137C18.12 4.34773 18.6128 4.59005 19.0489 4.91605C19.4608 5.22799 19.7956 5.63033 20.0276 6.09206C20.2747 6.60089 20.3971 7.16122 20.3849 7.72675C20.3951 8.26879 20.2934 8.80711 20.0862 9.3081C19.8895 9.76235 19.636 10.1898 19.3316 10.5801C19.0423 10.9557 18.7163 11.3014 18.3582 11.6121C18.0089 11.9108 17.6835 12.2121 17.3795 12.5108C17.0922 12.7912 16.8388 13.1045 16.6249 13.4441C16.4256 13.7641 16.3212 14.1339 16.3235 14.5108C16.3196 14.8152 16.3627 15.1183 16.4515 15.4095C16.5211 15.6423 16.6057 15.8703 16.7049 16.0922L14.2648 16.0975ZM15.5795 20.9722C15.1479 20.9755 14.7312 20.8144 14.4142 20.5216C14.2591 20.3875 14.1352 20.2211 14.0514 20.0341C13.9675 19.847 13.9257 19.6439 13.9288 19.4389C13.9244 19.2341 13.9657 19.0309 14.0496 18.8441C14.1336 18.6573 14.2581 18.4915 14.4142 18.3589C14.7272 18.0625 15.1418 17.8974 15.5728 17.8974C16.0039 17.8974 16.4185 18.0625 16.7315 18.3589C16.8876 18.492 17.0119 18.6582 17.0954 18.8456C17.1789 19.0329 17.2195 19.2365 17.2142 19.4416C17.2178 19.6463 17.1765 19.8494 17.0931 20.0365C17.0097 20.2236 16.8863 20.3901 16.7315 20.5242C16.4181 20.8141 16.0064 20.9742 15.5795 20.9722Z" fill="white"/>
<defs>
<linearGradient id="qna-maker01_paint0_linear" x1="32.8322" y1="50.2579" x2="32.8322" y2="7.93735" gradientUnits="userSpaceOnUse">
<stop stop-color="#32BEDD"/>
<stop offset="1" stop-color="#50E6FF"/>
</linearGradient>
<linearGradient id="qna-maker01_paint1_linear" x1="16.1496" y1="-2.3402" x2="16.1496" y2="39.9803" gradientUnits="userSpaceOnUse">
<stop stop-color="#5EA0EF"/>
<stop offset="1" stop-color="#0078D4"/>
</linearGradient>
</defs>
</svg>
