<svg data-slug-id="question-answering" viewBox="0 0 49 48" xmlns="http://www.w3.org/2000/svg">
<path d="M33.78 0H1.01367V22.7464H6.0663V27.7384L11.1021 22.7464H33.78V0Z" fill="#0078D4"/>
<path d="M26.2246 27.7393V42.9596H38.8899L43.9425 47.9854V42.9596H48.9951V27.7393H26.2246Z" fill="#50E6FF"/>
<path d="M15.905 15.033C15.8386 14.8484 15.7795 14.6086 15.7279 14.3133C15.6762 14.0181 15.6504 13.7266 15.6504 13.4387C15.6504 12.9885 15.7389 12.5825 15.9161 12.2209C16.1006 11.8518 16.3257 11.5086 16.5914 11.1913C16.8645 10.8739 17.156 10.5676 17.466 10.2723C17.7834 9.97712 18.075 9.68926 18.3407 9.40879C18.6138 9.12832 18.8389 8.83309 19.016 8.5231C19.2005 8.21311 19.2928 7.87359 19.2928 7.50455C19.2928 7.17242 19.2264 6.88456 19.0935 6.641C18.9607 6.39005 18.7761 6.18339 18.5399 6.02101C18.3111 5.85125 18.0454 5.72578 17.7428 5.64459C17.4476 5.5634 17.1302 5.52281 16.7907 5.52281C15.691 5.52281 14.6429 6.01363 13.6465 6.99528V4.43783C14.8569 3.72928 16.1117 3.375 17.4107 3.375C18.0085 3.375 18.5732 3.4525 19.1046 3.60749C19.636 3.76249 20.101 3.9913 20.4995 4.29391C20.8981 4.59652 21.2118 4.97294 21.4406 5.42317C21.6694 5.8734 21.7838 6.39743 21.7838 6.99528C21.7838 7.5636 21.6879 8.06918 21.496 8.51203C21.3041 8.95488 21.0605 9.36451 20.7653 9.74093C20.4774 10.11 20.1637 10.4384 19.8242 10.7263C19.4921 11.0141 19.1784 11.302 18.8832 11.5898C18.5953 11.8777 18.3554 12.1766 18.1635 12.4866C17.9716 12.7966 17.8757 13.1398 17.8757 13.5162C17.8757 13.8336 17.9163 14.1214 17.9975 14.3798C18.0786 14.6381 18.1598 14.8558 18.241 15.033H15.905ZM17.1671 19.7161C16.7464 19.7161 16.3737 19.5721 16.0489 19.2843C15.7389 19.0038 15.5839 18.6569 15.5839 18.2436C15.5839 17.8229 15.7389 17.476 16.0489 17.2029C16.3663 16.9077 16.739 16.7601 17.1671 16.7601C17.5878 16.7601 17.9569 16.9077 18.2742 17.2029C18.5842 17.476 18.7392 17.8229 18.7392 18.2436C18.7392 18.6569 18.5842 19.0038 18.2742 19.2843C17.9495 19.5721 17.5804 19.7161 17.1671 19.7161Z" fill="#50E6FF"/>
<path d="M42.5927 30.9888H32.7028C32.2728 30.9888 31.9258 31.3433 31.9258 31.7658C31.9258 32.1958 32.2803 32.5428 32.7028 32.5428H42.5852C43.0152 32.5428 43.3622 32.1882 43.3622 31.7658C43.3697 31.3358 43.0227 30.9888 42.5927 30.9888Z" fill="#0078D4"/>
<path d="M42.5927 34.3684H32.7028C32.2728 34.3684 31.9258 34.723 31.9258 35.1454C31.9258 35.5754 32.2803 35.9224 32.7028 35.9224H42.5852C43.0152 35.9224 43.3622 35.5679 43.3622 35.1454C43.3697 34.723 43.0227 34.3684 42.5927 34.3684Z" fill="#0078D4"/>
<path fill-rule="evenodd" clip-rule="evenodd" d="M32.7028 38.012H37.644C38.074 38.012 38.421 38.3665 38.421 38.789C38.421 39.219 38.0664 39.566 37.644 39.566H32.7028C32.2728 39.566 31.9258 39.2115 31.9258 38.789C31.9258 38.3665 32.2728 38.012 32.7028 38.012Z" fill="#0078D4"/>
</svg>
