<svg data-slug-id="remote-rendering" viewBox="0 0 48 48" xmlns="http://www.w3.org/2000/svg">
<path d="M47 30.3947C46.9262 27.9438 45.9836 25.599 44.3406 23.779C42.6976 21.9589 40.4612 20.7821 38.0306 20.4587C37.8816 17.0356 36.3899 13.8092 33.8786 11.4784C31.3673 9.14755 28.0388 7.90008 24.6142 8.00626C21.8459 7.95527 19.1301 8.76548 16.8423 10.3249C14.5545 11.8843 12.8076 14.116 11.843 16.7113C8.91545 17.0662 6.21195 18.4584 4.22269 20.6355C2.23343 22.8125 1.0901 25.6303 1 28.578C1.12755 31.8898 2.56331 35.0158 4.99241 37.2705C7.42151 39.5252 10.6457 40.7245 13.9577 40.6054C14.3413 40.6054 14.7223 40.5872 15.098 40.5561H36.074C36.261 40.5538 36.4467 40.5259 36.626 40.4732C39.3205 40.4529 41.9032 39.3936 43.8358 37.516C45.7685 35.6384 46.9019 33.0874 47 30.3947Z" fill="url(#remote-rendering_paint0_linear)"/>
<path d="M22.3687 25.8069L28.3293 14.088C28.3935 13.964 28.4906 13.8601 28.6099 13.7876C28.7291 13.7151 28.8661 13.6768 29.0057 13.6768C29.1452 13.6768 29.2822 13.7151 29.4014 13.7876C29.5207 13.8601 29.6178 13.964 29.682 14.088L35.6167 25.2834C36.0478 25.9825 36.2574 26.7955 36.2179 27.6158C36.2179 30.0726 32.9837 32.0629 28.9927 32.0629C25.0017 32.0629 21.7675 30.0726 21.7675 27.6158C21.7698 26.9642 21.9805 26.3304 22.3687 25.8069Z" fill="url(#remote-rendering_paint1_linear)"/>
<path d="M22.3685 25.906C21.8787 26.8934 21.7595 27.0592 21.7595 27.6967C21.762 27.8234 21.7724 27.9497 21.7906 28.0751C21.7906 28.1243 21.7906 28.171 21.7906 28.2202H21.8243C22.1871 30.1198 24.4988 31.654 27.4972 32.0428V31.6592C24.6465 31.2783 22.4566 29.8451 22.1845 28.0699C22.3012 26.2895 24.4625 24.3744 27.4972 23.9468V23.7213L27.4376 23.755L27.1785 23.6099C25.5095 23.8629 23.9722 24.6644 22.8091 25.8878L22.8506 25.8075L24.6957 22.1793L24.364 21.9875L22.3685 25.9215V25.906Z" fill="white"/>
<path opacity="0.8" d="M27.4895 23.5796V32.663L19.6396 37.2267V28.1303L27.4895 23.5796Z" fill="#9CEBFF"/>
<path opacity="0.85" d="M27.4882 23.5579L19.6384 28.119L11.7886 23.5553L19.6384 18.9916L27.4882 23.5579Z" fill="#9CEBFF"/>
<path d="M19.6384 28.1283V37.2142L11.7886 32.6505V23.5671L19.6384 28.1283Z" fill="#9CEBFF"/>
<path d="M19.6381 37.4453L11.6042 32.7805V23.4691L19.6381 18.8043L27.6719 23.4691V32.7702L19.6381 37.4453ZM11.9774 32.5525L19.6381 37.0048L27.2961 32.5525V23.6894L19.6381 19.2345L11.9774 23.6868V32.5525Z" fill="white"/>
<path d="M36.21 27.5955C36.2494 26.7751 36.0398 25.9621 35.6087 25.2631L29.6741 14.0676C29.6098 13.9436 29.5128 13.8397 29.3935 13.7672C29.2742 13.6947 29.1373 13.6564 28.9977 13.6564C28.8581 13.6564 28.7212 13.6947 28.6019 13.7672C28.4826 13.8397 28.3856 13.9436 28.3213 14.0676L24.364 21.8733L24.6957 22.0651L28.6634 14.2593C28.6941 14.1956 28.7423 14.142 28.8025 14.1048C28.8626 14.0676 28.9322 14.0484 29.0029 14.0494C29.0723 14.0485 29.1406 14.0669 29.2001 14.1026C29.2596 14.1383 29.308 14.1899 29.3398 14.2516L35.2744 25.4471V25.4626V25.4782C35.5113 25.8425 35.6701 26.2519 35.7409 26.6806C34.9178 25.6169 33.8549 24.7628 32.6389 24.1882C31.4228 23.6135 30.0881 23.3344 28.7437 23.3738C28.2155 23.3739 27.6883 23.4198 27.1681 23.5112L27.4272 23.6537L27.4868 23.62V23.8455C27.9066 23.7858 28.3301 23.7555 28.7541 23.7548C32.5715 23.7548 35.6554 26.0327 35.7979 27.9816C35.4688 30.0548 32.5404 31.6616 28.9847 31.6616C28.4837 31.6605 27.9833 31.6258 27.4868 31.5579V31.9441C27.9835 32.0088 28.4839 32.0417 28.9847 32.0426C32.6881 32.0426 35.7357 30.3295 36.1556 28.1189H36.1918C36.1918 28.0749 36.1918 28.0308 36.1789 27.9868C36.1984 27.8572 36.2087 27.7265 36.21 27.5955V27.5955Z" fill="white"/>
<defs>
<linearGradient id="remote-rendering_paint0_linear" x1="24" y1="40.6054" x2="24" y2="8.00108" gradientUnits="userSpaceOnUse">
<stop stop-color="#0078D4"/>
<stop offset="0.156" stop-color="#1380DA"/>
<stop offset="0.528" stop-color="#3C91E5"/>
<stop offset="0.822" stop-color="#559CEC"/>
<stop offset="1" stop-color="#5EA0EF"/>
</linearGradient>
<linearGradient id="remote-rendering_paint1_linear" x1="28.9849" y1="13.6681" x2="28.9849" y2="32.0422" gradientUnits="userSpaceOnUse">
<stop stop-color="#C3F1FF"/>
<stop offset="0.107" stop-color="#BEEFFE"/>
<stop offset="0.765" stop-color="#32BEDD"/>
</linearGradient>
</defs>
</svg>
