<svg data-slug-id="resources03" viewBox="0 0 48 49" xmlns="http://www.w3.org/2000/svg">
<path fill-rule="evenodd" clip-rule="evenodd" d="M1 47.126H47V5.43848H1V47.126Z" fill="#0078D4"/>
<path fill-rule="evenodd" clip-rule="evenodd" d="M7.46875 17.6572H11.7812V13.3447H7.46875V17.6572Z" fill="white"/>
<path fill-rule="evenodd" clip-rule="evenodd" d="M21.8438 24.8447H26.1562V20.5322H21.8438V24.8447Z" fill="white"/>
<path fill-rule="evenodd" clip-rule="evenodd" d="M14.6562 32.0322H18.9688V27.7197H14.6562V32.0322Z" fill="white"/>
<path fill-rule="evenodd" clip-rule="evenodd" d="M29.0312 39.2197H33.3438V34.9072H29.0312V39.2197Z" fill="white"/>
<path fill-rule="evenodd" clip-rule="evenodd" d="M1 5.43848H47V1.12598H1V5.43848Z" fill="#50E6FF"/>
<path fill-rule="evenodd" clip-rule="evenodd" d="M14.6562 17.6572H18.9688V13.3447H14.6562V17.6572Z" fill="#50E6FF"/>
<path fill-rule="evenodd" clip-rule="evenodd" d="M21.8438 17.6572H26.1562V13.3447H21.8438V17.6572Z" fill="#50E6FF"/>
<path fill-rule="evenodd" clip-rule="evenodd" d="M29.0312 17.6572H33.3438V13.3447H29.0312V17.6572Z" fill="#50E6FF"/>
<path fill-rule="evenodd" clip-rule="evenodd" d="M7.46875 24.8447H11.7812V20.5322H7.46875V24.8447Z" fill="#50E6FF"/>
<path fill-rule="evenodd" clip-rule="evenodd" d="M14.6562 24.8447H18.9688V20.5322H14.6562V24.8447Z" fill="#50E6FF"/>
<path fill-rule="evenodd" clip-rule="evenodd" d="M29.0312 24.8447H33.3438V20.5322H29.0312V24.8447Z" fill="#50E6FF"/>
<path fill-rule="evenodd" clip-rule="evenodd" d="M7.46875 32.0322H11.7812V27.7197H7.46875V32.0322Z" fill="#50E6FF"/>
<path fill-rule="evenodd" clip-rule="evenodd" d="M21.8438 32.0322H26.1562V27.7197H21.8438V32.0322Z" fill="#50E6FF"/>
<path fill-rule="evenodd" clip-rule="evenodd" d="M29.0312 32.0322H33.3438V27.7197H29.0312V32.0322Z" fill="#50E6FF"/>
<path fill-rule="evenodd" clip-rule="evenodd" d="M7.46875 39.2197H11.7812V34.9072H7.46875V39.2197Z" fill="#50E6FF"/>
<path fill-rule="evenodd" clip-rule="evenodd" d="M14.6562 39.2197H18.9688V34.9072H14.6562V39.2197Z" fill="#50E6FF"/>
<path fill-rule="evenodd" clip-rule="evenodd" d="M21.8438 39.2197H26.1562V34.9072H21.8438V39.2197Z" fill="#50E6FF"/>
<path fill-rule="evenodd" clip-rule="evenodd" d="M36.2188 17.6572H40.5312V13.3447H36.2188V17.6572Z" fill="#50E6FF"/>
<path fill-rule="evenodd" clip-rule="evenodd" d="M36.2188 24.8447H40.5312V20.5322H36.2188V24.8447Z" fill="#50E6FF"/>
<path fill-rule="evenodd" clip-rule="evenodd" d="M36.2188 32.0322H40.5312V27.7197H36.2188V32.0322Z" fill="#50E6FF"/>
<path fill-rule="evenodd" clip-rule="evenodd" d="M36.2188 39.2197H40.5312V34.9072H36.2188V39.2197Z" fill="#50E6FF"/>
</svg>
