<svg data-slug-id="resource-group01" viewBox="0 0 48 48" xmlns="http://www.w3.org/2000/svg">
<path d="M24.0645 21.6937C23.9965 21.6937 23.9338 21.6736 23.8729 21.6378L11.0614 14.2194C10.9395 14.1495 10.8672 14.0202 10.8672 13.8795C10.8672 13.7432 10.9395 13.6139 11.0614 13.5457L23.7901 6.17546C23.9112 6.10818 24.0592 6.10818 24.1751 6.17546L36.9892 13.5982C37.105 13.6663 37.1816 13.7939 37.1816 13.932C37.1816 14.0744 37.105 14.2011 36.9892 14.2701L24.2578 21.6386C24.1977 21.6736 24.1333 21.6937 24.0645 21.6937Z" fill="#3999C6"/>
<path d="M22.2228 39.7268C22.1531 39.7268 22.0852 39.7102 22.026 39.6753L9.25541 32.2796C9.13175 32.2106 9.05859 32.0839 9.05859 31.9424V17.1013C9.05859 16.9624 9.13175 16.8348 9.25541 16.7614C9.37211 16.6941 9.5219 16.6941 9.64556 16.7614L22.4144 24.157C22.5328 24.2287 22.6042 24.3562 22.6042 24.4952V39.338C22.6042 39.4804 22.5319 39.6045 22.4144 39.6753C22.3508 39.7111 22.2872 39.7268 22.2228 39.7268Z" fill="#59B4D9"/>
<path d="M25.8342 39.7259C25.7689 39.7259 25.7018 39.7093 25.6374 39.6743C25.519 39.6036 25.4458 39.4795 25.4458 39.3371V24.5904C25.4458 24.4514 25.519 24.3239 25.6374 24.2522L38.4045 16.8592C38.5281 16.7911 38.6727 16.7911 38.7946 16.8592C38.9113 16.9291 38.9862 17.0576 38.9862 17.1956V31.9423C38.9862 32.0839 38.9122 32.2097 38.7946 32.2796L26.0232 39.6752C25.9701 39.7102 25.9013 39.7259 25.8342 39.7259Z" fill="#59B4D9"/>
<path opacity="0.5" d="M25.8342 39.7259C25.7689 39.7259 25.7018 39.7093 25.6374 39.6743C25.519 39.6036 25.4458 39.4795 25.4458 39.3371V24.5904C25.4458 24.4514 25.519 24.3239 25.6374 24.2522L38.4045 16.8592C38.5281 16.7911 38.6727 16.7911 38.7946 16.8592C38.9113 16.9291 38.9862 17.0576 38.9862 17.1956V31.9423C38.9862 32.0839 38.9122 32.2097 38.7946 32.2796L26.0232 39.6752C25.9701 39.7102 25.9013 39.7259 25.8342 39.7259Z" fill="white"/>
<path d="M10.5738 41.3752C10.3587 41.3752 10.141 41.3201 9.94159 41.2048L3.98043 37.7516C2.97718 37.1697 2.25 35.9054 2.25 34.7441V12.7565C2.25 11.5952 2.97718 10.33 3.98043 9.74981L9.94159 6.29665C10.5486 5.94627 11.3228 6.15423 11.672 6.7615C12.0221 7.36964 11.814 8.14643 11.2087 8.49769L5.24756 11.9508C5.03594 12.074 4.78425 12.5109 4.78425 12.7565V34.7441C4.78425 34.9896 5.03594 35.4274 5.24756 35.5497L11.2087 39.0029C11.8148 39.3542 12.0221 40.1309 11.672 40.7391C11.4378 41.1471 11.0119 41.3752 10.5738 41.3752Z" fill="#7A7A7A"/>
<path d="M37.4715 6.125C37.6866 6.125 37.9043 6.18005 38.1038 6.29539L44.0649 9.74854C45.0682 10.3305 45.7953 11.5948 45.7953 12.7561V34.7437C45.7953 35.905 45.0682 37.1702 44.0649 37.7504L38.1038 41.2035C37.4968 41.5539 36.7225 41.346 36.3733 40.7387C36.0232 40.1305 36.2314 39.3538 36.8366 39.0025L42.7978 35.5494C43.0094 35.4261 43.2611 34.9893 43.2611 34.7437V12.7561C43.2611 12.5105 43.0094 12.0728 42.7978 11.9505L36.8366 8.4973C36.2305 8.14604 36.0232 7.36925 36.3733 6.76111C36.6076 6.35306 37.0334 6.125 37.4715 6.125Z" fill="#7A7A7A"/>
</svg>
