<svg data-slug-id="resources02" viewBox="0 0 48 49" xmlns="http://www.w3.org/2000/svg">
<path d="M38.4883 11.3807L38.9462 11.8387L41.2446 9.84276L45.0809 3.55257L44.165 2.62805L38.0303 6.6199L36.1899 9.07377L36.6479 9.53171L24.5341 21.9652L22.0802 19.3558L19.3239 22.2676C19.4795 23.6501 19.0215 25.1794 18.097 26.2595C17.0256 27.3309 15.6431 27.7975 14.2607 27.6419L2 40.2223L8.89502 47.126L21.0088 34.5456C20.8533 33.1631 21.3112 31.6338 22.3913 30.5537C23.4627 29.4823 24.8451 29.0157 26.2276 29.1713L28.9839 26.2595L26.53 23.6501L38.4883 11.3807Z" fill="#0078D4"/>
<path d="M37.4169 43.4452C39.1018 45.2856 42.0136 45.2856 43.6985 43.4452C44.6144 42.5207 44.9254 41.2938 44.9254 40.0668C44.9254 38.8399 44.4675 37.613 43.6985 36.6885L30.0553 22.7343L28.8284 24.1167L31.2823 26.7261L30.2109 27.7975L27.4546 30.7093L27.1522 31.0204L26.5387 30.8648C26.2363 30.8648 25.7697 30.8648 25.3118 31.0204L37.4169 43.4452Z" fill="#50E6FF"/>
<path d="M19.324 4.01918C16.8702 1.40979 13.1894 0.640797 10.122 1.40979L15.4877 6.93099L14.2694 12.2967L8.90374 13.8346L3.53807 8.31345C2.76908 11.6918 3.53807 15.2171 5.99194 17.8265C8.4458 20.4359 12.1266 21.2049 15.3408 20.2804L15.4963 20.4359L17.9502 23.0453C18.1057 22.7342 18.1057 22.4318 18.1057 22.2763C18.1057 22.1208 18.1057 21.9652 18.1057 21.8183L17.9502 21.5073L22.0889 17.213L22.8579 17.982L24.5428 19.6669L25.7697 18.2844L21.7865 13.9902C22.6938 10.6118 22.0803 6.77546 19.324 4.01918Z" fill="#50E6FF"/>
</svg>
