<svg data-slug-id="retail" viewBox="0 0 48 49" xmlns="http://www.w3.org/2000/svg">
<path d="M15.2091 42.5902C17.2069 42.5902 18.8265 40.9706 18.8265 38.9728C18.8265 36.975 17.2069 35.3555 15.2091 35.3555C13.2113 35.3555 11.5918 36.975 11.5918 38.9728C11.5918 40.9706 13.2113 42.5902 15.2091 42.5902Z" fill="#50E6FF"/>
<path d="M34.8634 42.5902C36.8612 42.5902 38.4808 40.9706 38.4808 38.9728C38.4808 36.975 36.8612 35.3555 34.8634 35.3555C32.8656 35.3555 31.2461 36.975 31.2461 38.9728C31.2461 40.9706 32.8656 42.5902 34.8634 42.5902Z" fill="#0078D7"/>
<path d="M38.5277 32.8048H11.656L9.55664 13.4746H45.3344L38.5277 32.8048Z" fill="#0078D7"/>
<path d="M11.5763 6.66895H2V9.83412H9.17816L10.2682 19.9756L13.5868 19.5073L11.5763 6.66895Z" fill="#0078D7"/>
</svg>
