<svg data-slug-id="rtos" viewBox="0 0 48 48" xmlns="http://www.w3.org/2000/svg">
<path d="M29.5353 45.9128L4.33777 34.5753C3.87122 34.3808 3.44817 34.0951 3.09338 33.7351C2.73859 33.3751 2.45919 32.9479 2.27155 32.4785C2.0839 32.0092 1.99178 31.5071 2.00058 31.0017C2.00937 30.4964 2.11891 29.9978 2.32277 29.5353L13.6603 4.33777C13.8548 3.87122 14.1404 3.44817 14.5004 3.09338C14.8605 2.73859 15.2876 2.45919 15.757 2.27155C16.2263 2.0839 16.7284 1.99178 17.2338 2.00058C17.7392 2.00937 18.2377 2.11891 18.7003 2.32277L43.8978 13.6603C44.3643 13.8548 44.7874 14.1404 45.1422 14.5004C45.4969 14.8605 45.7763 15.2876 45.964 15.757C46.1516 16.2263 46.2438 16.7284 46.235 17.2338C46.2262 17.7392 46.1166 18.2377 45.9128 18.7003L34.5753 43.8978C34.3808 44.3643 34.0951 44.7874 33.7351 45.1422C33.3751 45.4969 32.9479 45.7763 32.4785 45.964C32.0092 46.1516 31.5071 46.2438 31.0017 46.235C30.4964 46.2262 29.9978 46.1166 29.5353 45.9128Z" fill="#74CFEB"/>
<path d="M41.3682 14.4176L34.5757 7.61762C34.253 7.27855 33.8606 7.01354 33.4255 6.84089C32.9904 6.66824 32.5231 6.59206 32.0557 6.61762H10.6382C10.1736 6.6074 9.71168 6.6913 9.28033 6.86427C8.84897 7.03723 8.45708 7.29568 8.12822 7.62407C7.79937 7.95246 7.54036 8.34399 7.36678 8.7751C7.1932 9.2062 7.10864 9.66798 7.1182 10.1326V38.1026C7.10689 38.5689 7.19041 39.0327 7.36368 39.4658C7.53695 39.8989 7.79637 40.2923 8.1262 40.6221C8.45604 40.952 8.84943 41.2114 9.28252 41.3846C9.71561 41.5579 10.1794 41.6414 10.6457 41.6301H38.8682C39.3345 41.6414 39.7983 41.5579 40.2314 41.3846C40.6645 41.2114 41.0579 40.952 41.3877 40.6221C41.7175 40.2923 41.977 39.8989 42.1502 39.4658C42.3235 39.0327 42.407 38.5689 42.3957 38.1026V16.9376C42.3789 16.0042 42.0236 15.1086 41.3957 14.4176H41.3682Z" fill="url(#rtos_paint0_linear)"/>
<path d="M20.2402 41.6304L29.4902 45.7604C32.4052 47.4629 34.8377 43.8179 35.5652 41.6304" fill="url(#rtos_paint1_linear)"/>
<path d="M36.8344 25.5554V22.6554L36.4294 22.5029L33.3244 21.4854L32.5119 19.5004L34.0869 16.1429L32.0519 14.1179L31.6469 14.3204L28.7469 15.7979L26.7619 14.9829L25.4894 11.4829H22.5919L22.4369 11.8679L21.4194 14.9729L19.4369 15.7879L16.1294 14.2104L14.0944 16.2454L14.2994 16.6529L15.7744 19.5504L14.9594 21.5354L11.3994 22.8079V25.7079L11.8044 25.8604L14.9094 26.8779L15.7219 28.8604L14.1469 32.2179L16.1819 34.2529L16.5869 34.0504L19.4869 32.5754L21.4719 33.3879L22.7444 36.8879H25.6419L25.7969 36.4804L26.8144 33.3754L28.7969 32.5629L32.1544 34.1404L34.1894 32.1054L33.9869 31.6979L32.5119 28.7979L33.3244 26.8129L36.8344 25.5554Z" fill="url(#rtos_paint2_linear)"/>
<path d="M25.7475 17.3478C25.708 17.3253 25.663 17.3141 25.6175 17.3153C25.5715 17.3206 25.527 17.335 25.4866 17.3578C25.4463 17.3805 25.4109 17.4111 25.3825 17.4478L19.6175 25.8353C19.5876 25.8791 19.569 25.9297 19.5634 25.9824C19.5577 26.0352 19.5651 26.0886 19.585 26.1378C19.6129 26.1851 19.6518 26.225 19.6983 26.2542C19.7449 26.2833 19.7978 26.3009 19.8525 26.3053H23.2975L21.755 31.3678C21.7407 31.3987 21.7329 31.4321 21.732 31.4662C21.7311 31.5002 21.7372 31.534 21.7498 31.5656C21.7624 31.5972 21.7814 31.6259 21.8055 31.6499C21.8296 31.6739 21.8584 31.6928 21.89 31.7053C21.9291 31.7311 21.9759 31.7426 22.0225 31.7378C22.0678 31.7349 22.112 31.7227 22.1524 31.7021C22.1929 31.6814 22.2286 31.6528 22.2575 31.6178L28.1975 23.1178C28.23 23.0503 28.2625 23.0178 28.2625 22.9503C28.2629 22.9107 28.2553 22.8714 28.2404 22.8347C28.2255 22.798 28.2034 22.7646 28.1756 22.7365C28.1477 22.7084 28.1145 22.6861 28.0779 22.6708C28.0414 22.6556 28.0021 22.6478 27.9625 22.6478H24.405L25.8825 17.6828C25.8964 17.652 25.9039 17.6188 25.9046 17.585C25.9053 17.5513 25.8992 17.5177 25.8866 17.4864C25.8739 17.4551 25.8551 17.4267 25.8312 17.4029C25.8073 17.3791 25.7789 17.3603 25.7475 17.3478V17.3478Z" fill="white"/>
<defs>
<linearGradient id="rtos_paint0_linear" x1="24.7482" y1="41.6301" x2="24.7482" y2="6.54762" gradientUnits="userSpaceOnUse">
<stop stop-color="#B3B4B4"/>
<stop offset="0.33" stop-color="#B3B4B4"/>
<stop offset="0.82" stop-color="#CCCCCB"/>
<stop offset="1" stop-color="#CCCCCB"/>
</linearGradient>
<linearGradient id="rtos_paint1_linear" x1="28.0127" y1="39.7279" x2="27.7152" y2="44.6629" gradientUnits="userSpaceOnUse">
<stop offset="0.317" stop-color="#33BEDD"/>
<stop offset="1" stop-color="#74CFEB"/>
</linearGradient>
<linearGradient id="rtos_paint2_linear" x1="24.1169" y1="36.9004" x2="24.1169" y2="11.4629" gradientUnits="userSpaceOnUse">
<stop stop-color="#616261"/>
<stop offset="1" stop-color="#B6B8BA"/>
</linearGradient>
</defs>
</svg>
