<svg data-slug-id="run-workloads" viewBox="0 0 60 60" xmlns="http://www.w3.org/2000/svg">
    <path d="M43.114 23.078h1v9.516l6.79 3.902v19.598l-5.893 3.734-5.445-3.555.547-.837 4.906 3.203 4.885-3.095v-18.47l-6.79-3.901V23.078zM37.848 48.125V22.113h1V48.72l-17.816 9.667L4.058 48.062l7.631-4.972.546.838-6.3 4.105 15.126 9.2 16.787-9.108z" fill="#50E6FF"/>
    <path d="M27.294 4.164l2.348-1.351c1.13-.653 2.643-.698 4.359-.023l-2.349 1.351c-1.716-.675-3.23-.63-4.358.023zM53.242 28.254l-2.349 1.35c1.084-.63 1.762-1.935 1.762-3.804.022-3.467-2.281-7.678-5.33-10.019l2.349-1.35c3.049 2.34 5.33 6.55 5.33 10.018 0 1.869-.655 3.174-1.762 3.805z" fill="#2195DC"/>
    <path d="M33.482 1.89L35.83.539c1.467-.856 3.568-.72 5.871.608 4.404 2.544 7.95 8.465 7.972 13.306l-2.349 1.35c-.022-4.818-3.568-10.761-7.972-13.305-2.303-1.329-4.403-1.464-5.871-.608z" fill="#2195DC"/>
    <path d="M47.325 15.781c-.022-4.818-3.568-10.762-7.972-13.306-3.568-2.049-6.64-1.26-7.678 1.644-3.681-1.441-6.436.427-6.459 4.593-.022 4.638 3.433 10.379 7.701 12.833.226.135.452.247.678.36l12.51 7.227c.114.067.227.113.317.135 3.455 1.824 6.21.315 6.21-3.445.046-3.49-2.258-7.7-5.307-10.041z" fill="url(#run-workloads_991f87cf-7465-437d-a497-bab819b0df90)"/>
    <path d="M18.756 19.823l-.078 27.787L5.7 40.595l.039-27.943 13.017 7.17z" fill="#E2E2E2"/>
    <path d="M18.639 19.706l.039 27.943L31.656 40.4l-.04-27.904-12.977 7.21z" fill="#C9C9C9"/>
    <path d="M31.615 12.496l-12.978 7.249-12.9-7.093 13.017-7.21 12.861 7.054z" fill="#E2E2E2"/>
    <path d="M17.625 21.265v4.754l-11.03-6.313V14.99l11.03 6.275zm-11.03-.585v4.638l11.03 6.313v-4.676L6.595 20.68zm.001 5.768v4.677l11.03 6.274v-4.676l-11.03-6.275zm0 5.768v4.755l11.03 6.313V38.53l-11.03-6.314z" fill="url(#run-workloads_63365ae4-ce9c-4af2-9e67-f2a593948d05)"/>
    <path d="M30.642 19.55l-10.99 6.352v-4.754l10.99-6.275v4.677zm0 1.013l-10.99 6.275v4.637l10.99-6.313v-4.599zm0 5.768l-10.99 6.314v4.793l10.99-6.313V26.33zm0 5.768l-10.99 6.275v4.754l10.99-6.313v-4.716z" fill="url(#run-workloads_dce248d1-1f09-4f88-9701-0d96d58a1e68)"/>
    <path d="M34.62 46.048L34.58 60l-11.419-6.703.04-14.109 11.418 6.86z" fill="#E2E2E2"/>
    <path d="M34.541 45.892L34.581 60l11.224-6.626-.04-14.342-11.224 6.86z" fill="#C9C9C9"/>
    <path d="M45.766 39.032L34.542 45.97 23.2 39.188l11.224-6.937 11.341 6.782z" fill="#E2E2E2"/>
    <path d="M29.007 49.555l-2.182-1.286.039-4.053 2.143 1.247v4.092zm2.962-2.377l-.039 4.092 2.183 1.247v-4.053l-2.144-1.286zm-.39-.195l-2.182-1.247v4.053l2.183 1.286v-4.092zm-2.572 3.508l-2.143-1.209-.04 3.82 2.183 1.247V50.49zm2.962 1.753l-.039 3.859 2.222 1.286V53.53l-2.183-1.286zm-2.572-1.48v3.819l2.222 1.286V52.01l-2.222-1.248z" fill="url(#run-workloads_d58b2752-d75f-46d0-bbd1-9e21b547cddd)"/>
    <path d="M44.752 46.788l-2.104 1.286v-4.092l2.065-1.247.04 4.053zm-2.455 1.481l-.039-4.053-2.143 1.247.039 4.092 2.143-1.286zm-5.183-1.091l-2.26 1.286v4.131l2.299-1.325-.04-4.092zm.39-.195v4.092l2.182-1.286v-4.092l-2.183 1.286zm7.248 4.677l-.039-3.82-2.026 1.17v3.858l2.065-1.208zm-2.455 1.403l-.039-3.82-2.143 1.247.039 3.859 2.143-1.286zm-5.144 3.04l-.04-3.859-2.22 1.247v3.898l2.26-1.286zm.35-4.093v3.859l2.183-1.286v-3.82l-2.183 1.248z" fill="url(#run-workloads_b147f0fe-d755-48d5-91c4-d225a6b521f9)"/>
    <defs>
        <linearGradient id="run-workloads_991f87cf-7465-437d-a497-bab819b0df90" x1="38.925" y1="1.329" x2="38.925" y2="30.039" gradientUnits="userSpaceOnUse">
            <stop stop-color="#4DC2EB"/>
            <stop offset="1" stop-color="#2195DC"/>
        </linearGradient>
        <linearGradient id="run-workloads_63365ae4-ce9c-4af2-9e67-f2a593948d05" x1="11.736" y1="16.549" x2="11.736" y2="42.463" gradientUnits="userSpaceOnUse">
            <stop stop-color="#50E6FF"/>
            <stop offset=".848" stop-color="#32B0E7"/>
        </linearGradient>
        <linearGradient id="run-workloads_dce248d1-1f09-4f88-9701-0d96d58a1e68" x1="24.864" y1="11.677" x2="24.864" y2="57.665" gradientUnits="userSpaceOnUse">
            <stop stop-color="#0078D4"/>
            <stop offset=".848" stop-color="#4DC2EB"/>
        </linearGradient>
        <linearGradient id="run-workloads_d58b2752-d75f-46d0-bbd1-9e21b547cddd" x1="32.047" y1="44.528" x2="25.422" y2="57.194" gradientUnits="userSpaceOnUse">
            <stop stop-color="#32B0E7"/>
            <stop offset=".848" stop-color="#0078D4"/>
        </linearGradient>
        <linearGradient id="run-workloads_b147f0fe-d755-48d5-91c4-d225a6b521f9" x1="39.062" y1="44.138" x2="37.309" y2="63.04" gradientUnits="userSpaceOnUse">
            <stop stop-color="#0078D4"/>
            <stop offset=".848" stop-color="#185A97"/>
        </linearGradient>
    </defs>
</svg>
