<svg data-slug-id="sap-on-azure" viewBox="0 0 48 48" xmlns="http://www.w3.org/2000/svg">
<path fill-rule="evenodd" clip-rule="evenodd" d="M0.0357666 35.7664H24.295L47.995 12.0557H0.0357666V35.7664Z" fill="#002169"/>
<path fill-rule="evenodd" clip-rule="evenodd" d="M28.4899 16.532H23.8058V27.7229L19.681 16.532H15.6261L12.1305 25.9044C11.7809 23.5263 9.33403 22.7569 7.3765 22.1274C6.11808 21.7078 4.78975 21.0783 4.78975 20.4488C4.78975 19.8892 5.48887 19.3996 6.95702 19.4696C7.93579 19.5395 8.77473 19.6095 10.3827 20.3789L11.9208 17.5112C10.3827 16.7418 8.28535 16.2522 6.60746 16.2522C4.58002 16.2522 2.90213 16.8817 1.85345 18.0008C1.15433 18.7002 0.734863 19.6794 0.734863 20.7286C0.734863 22.1974 1.22425 23.1766 2.34284 24.0159C3.25169 24.7153 4.51011 25.135 5.55879 25.4847C6.88711 25.9044 7.93579 26.2541 7.93579 27.0235C7.93579 27.3032 7.79597 27.583 7.65614 27.7928C7.30658 28.1426 6.8172 28.2824 6.11808 28.2824C4.78975 28.2824 3.81099 28.0726 2.20301 27.1633L0.734863 30.031C2.34284 30.9403 4.16055 31.4299 6.04817 31.4299H6.2579C7.93579 31.4299 9.26412 30.9403 10.3128 30.031C10.3827 29.9611 10.4526 29.9611 10.4526 29.8911L9.96324 31.1501H14.2279L14.927 28.9819C15.696 29.2616 16.535 29.4015 17.4438 29.4015C18.3527 29.4015 19.1916 29.2616 19.8907 29.0518L20.5898 31.2201H27.581V26.6737H29.1191C32.8244 26.6737 34.9917 24.7853 34.9917 21.6378C35.1315 18.1407 32.9643 16.532 28.4899 16.532ZM17.5836 26.1142C17.0243 26.1142 16.535 26.0443 16.0456 25.8344L17.5137 21.1482L18.9819 25.9044C18.6323 26.0443 18.1429 26.1142 17.5836 26.1142ZM28.7695 23.3864H27.7209V19.6095H28.7695C30.1678 19.6095 31.2864 20.0991 31.2864 21.4979C31.2864 22.9668 30.1678 23.3864 28.7695 23.3864Z" fill="white"/>
<path d="M30.0976 34.2277C30.0976 33.5283 30.6569 32.9687 31.356 32.9687C32.0552 32.9687 32.6144 33.5283 32.6144 34.2277C32.6144 34.9971 32.0552 35.4867 31.356 35.4867C30.6569 35.4867 30.0976 34.9971 30.0976 34.2277ZM31.356 35.7665C32.195 35.7665 32.8941 35.137 32.8941 34.2277C32.8941 33.3185 32.195 32.689 31.356 32.689C30.5171 32.689 29.818 33.3185 29.818 34.2277C29.818 35.137 30.5171 35.7665 31.356 35.7665ZM31.0065 34.3676H31.2861L31.7755 35.137H32.0552L31.5658 34.3676C31.8454 34.3676 32.0552 34.2277 32.0552 33.878C32.0552 33.5283 31.8454 33.3884 31.426 33.3884H30.7268V35.137H31.0065V34.3676ZM31.0065 34.0878V33.5283H31.356C31.5658 33.5283 31.7056 33.5982 31.7056 33.8081C31.7056 34.0878 31.4959 34.0878 31.2861 34.0878H31.0065V34.0878Z" fill="#002169"/>
</svg>
