<svg data-slug-id="satellite" viewBox="0 0 48 48" xmlns="http://www.w3.org/2000/svg">
<path d="M46.8815 41.8749L30.9775 25.9709L25.8524 31.096L41.7564 47L46.8815 41.8749Z" fill="#0078D4"/>
<path d="M22.029 16.904L6.12506 1L0.999991 6.12507L16.904 22.0291L22.029 16.904Z" fill="#0078D4"/>
<path d="M5.54808 7.5706L3.35162 5.37415L2.45677 6.269L4.65323 8.46546L5.54808 7.5706Z" fill="#50E6FF"/>
<path d="M7.11156 6.11144L4.9151 3.91498L4.02025 4.80983L6.21671 7.00629L7.11156 6.11144Z" fill="#50E6FF"/>
<path d="M8.59374 4.65227L6.39728 2.45581L5.50242 3.35066L7.69888 5.54712L8.59374 4.65227Z" fill="#50E6FF"/>
<path d="M42.5529 44.6465L40.3564 42.4501L39.4616 43.3449L41.658 45.5414L42.5529 44.6465Z" fill="#50E6FF"/>
<path d="M44.0351 43.1877L41.8386 40.9912L40.9438 41.8861L43.1402 44.0825L44.0351 43.1877Z" fill="#50E6FF"/>
<path d="M45.5579 41.6878L43.3615 39.4913L42.4666 40.3862L44.6631 42.5826L45.5579 41.6878Z" fill="#50E6FF"/>
<path d="M31.0357 23.6385L24.2023 16.8051L16.9214 24.0859L23.7548 30.9193L31.0357 23.6385Z" fill="#0078D4"/>
<path d="M31.1643 21.096L26.8121 16.7438L18.1889 25.3669L22.5412 29.7192L31.1643 21.096Z" fill="#50E6FF"/>
<path d="M20.6622 33.7324C21.4485 32.9462 20.5926 30.8155 18.7505 28.9735C16.9084 27.1314 14.7778 26.2755 13.9915 27.0617C13.2053 27.848 14.0612 29.9786 15.9032 31.8207C17.7453 33.6628 19.876 34.5187 20.6622 33.7324Z" fill="#50E6FF"/>
<path d="M20.0114 33.0816C20.5281 32.5649 19.745 30.9442 18.2624 29.4615C16.7798 27.9789 15.159 27.1958 14.6423 27.7125C14.1256 28.2292 14.9087 29.8499 16.3913 31.3326C17.874 32.8152 19.4948 33.5983 20.0114 33.0816Z" fill="#0078D4"/>
<path d="M15.3939 39.6047C13.3806 39.6047 11.4823 38.7994 10.0442 37.3613C8.60612 35.9232 7.80078 34.0249 7.80078 32.0115" stroke="#0078D4" stroke-miterlimit="10"/>
<path d="M10.4468 32.0691C10.4468 33.4497 11.0221 34.6577 11.8849 35.578C12.7478 36.4409 14.0133 37.0161 15.3939 37.0161" stroke="#0078D4" stroke-miterlimit="10"/>
<path d="M15.3939 34.4851C14.7611 34.4851 14.1284 34.255 13.6682 33.7948C13.208 33.3346 12.9779 32.7019 12.9779 32.0691" stroke="#0078D4" stroke-miterlimit="10"/>
</svg>
