<svg data-slug-id="scale12" viewBox="0 0 48 48" xmlns="http://www.w3.org/2000/svg">
<path d="M39.9165 3.01903L21.771 29.8438L24.7188 31.8378L42.8642 5.01304L39.9165 3.01903Z" fill="#50E6FF"/>
<path d="M39.7927 11.0698C42.4461 11.0698 44.5971 8.91875 44.5971 6.26535C44.5971 3.61194 42.4461 1.46094 39.7927 1.46094C37.1393 1.46094 34.9883 3.61194 34.9883 6.26535C34.9883 8.91875 37.1393 11.0698 39.7927 11.0698Z" fill="#1F1D21"/>
<path d="M23.4664 25.2172C27.4256 25.2172 30.6285 28.3756 30.7175 32.2903H35.2995C35.166 25.84 29.9167 20.6797 23.4664 20.6797C17.016 20.6797 11.7668 25.84 11.6333 32.2459H16.2153C16.3043 28.3312 19.5072 25.2172 23.4664 25.2172Z" fill="#1F1D21"/>
<path d="M23.4664 25.2148C19.5072 25.2148 16.3043 28.3733 16.2153 32.288H18.1727C18.3061 29.4409 20.6194 27.1722 23.4664 27.1722C26.3135 27.1722 28.6712 29.4409 28.7602 32.288H30.7175C30.5841 28.3288 27.3811 25.2148 23.4664 25.2148Z" fill="#E7E8EA"/>
<path d="M23.4661 27.1758C20.6191 27.1758 18.2613 29.4445 18.1724 32.2916H28.8043C28.6709 29.4445 26.3132 27.1758 23.4661 27.1758Z" fill="#1F1D21"/>
<path d="M39.9165 3.01903L21.771 29.8438L24.7188 31.8378L42.8642 5.01304L39.9165 3.01903Z" fill="#0078D4"/>
<path d="M39.7927 11.0698C42.4461 11.0698 44.5971 8.91875 44.5971 6.26535C44.5971 3.61194 42.4461 1.46094 39.7927 1.46094C37.1393 1.46094 34.9883 3.61194 34.9883 6.26535C34.9883 8.91875 37.1393 11.0698 39.7927 11.0698Z" fill="#0078D4"/>
<path d="M23.4664 25.2172C27.4256 25.2172 30.6285 28.3756 30.7175 32.2903H35.2995C35.166 25.84 29.9167 20.6797 23.4664 20.6797C17.016 20.6797 11.7668 25.84 11.6333 32.2459H16.2153C16.3043 28.3312 19.5072 25.2172 23.4664 25.2172Z" fill="#50E6FF"/>
<path d="M23.4664 25.2148C19.5072 25.2148 16.3043 28.3733 16.2153 32.288H18.1727C18.3061 29.4409 20.6194 27.1722 23.4664 27.1722C26.3135 27.1722 28.6712 29.4409 28.7602 32.288H30.7175C30.5841 28.3288 27.3811 25.2148 23.4664 25.2148Z" fill="#0078D4"/>
<path d="M23.4661 27.1758C20.6191 27.1758 18.2613 29.4445 18.1724 32.2916H28.8043C28.6709 29.4445 26.3132 27.1758 23.4661 27.1758Z" fill="#50E6FF"/>
<path d="M47.104 33.9762V31.5586L0.72261 31.5586V33.9762L47.104 33.9762Z" fill="#0078D4"/>
<path d="M47.1084 40.3594H37.3486V42.6874H47.1084V40.3594Z" fill="#0078D4"/>
<path d="M43.3936 46.4004V36.6406H41.0655V46.4004H43.3936Z" fill="#0078D4"/>
<path d="M10.4785 40.3516H0.71875V42.6796H10.4785V40.3516Z" fill="#0078D4"/>
</svg>
