<svg data-slug-id="scale11" viewBox="0 0 48 48" xmlns="http://www.w3.org/2000/svg">
<path d="M32.8523 30.2982C41.2179 30.2982 47.9996 23.5165 47.9996 15.1509C47.9996 6.78532 41.2179 0.00366211 32.8523 0.00366211C24.4867 0.00366211 17.7051 6.78532 17.7051 15.1509C17.7051 23.5165 24.4867 30.2982 32.8523 30.2982Z" fill="#50E6FF"/>
<path d="M10.1311 42.9182C12.9196 42.9182 15.1802 40.6577 15.1802 37.8692C15.1802 35.0806 12.9196 32.8201 10.1311 32.8201C7.34258 32.8201 5.08203 35.0806 5.08203 37.8692C5.08203 40.6577 7.34258 42.9182 10.1311 42.9182Z" fill="#0078D4"/>
<path d="M2.52454 47.9941C3.91881 47.9941 5.04908 46.8638 5.04908 45.4696C5.04908 44.0753 3.91881 42.945 2.52454 42.945C1.13028 42.945 0 44.0753 0 45.4696C0 46.8638 1.13028 47.9941 2.52454 47.9941Z" fill="#0078D4"/>
</svg>
