<svg data-slug-id="scale08" viewBox="0 0 48 49" xmlns="http://www.w3.org/2000/svg">
<path d="M25.2754 0.99707H48V23.7344H25.2754V0.99707Z" fill="#0078D4"/>
<path d="M25.2754 26.2598H48V48.9971H25.2754V26.2598Z" fill="#0078D4"/>
<path d="M3.8147e-06 26.2598H22.7246V48.9971H3.8147e-06V26.2598Z" fill="#0078D4"/>
<path d="M25.2754 26.2598H48V48.9971H25.2754V26.2598Z" fill="#0078D4"/>
<path d="M3.58643 14.1588H3.62853C3.43488 13.6872 3.33384 13.182 3.33384 12.643C3.33384 10.4114 5.14406 8.60081 7.37527 8.60081C7.84677 8.60081 8.30143 8.68502 8.72241 8.82818C9.8338 7.45552 11.5261 6.57971 13.429 6.57971C16.7716 6.57971 19.4827 9.29135 19.4827 12.6346C19.4827 13.1567 19.4153 13.6704 19.2891 14.1504C20.5183 14.1841 21.5034 15.1862 21.5034 16.4241C21.5034 17.6789 20.4846 18.6979 19.2301 18.6979H3.57801C2.32348 18.6979 1.3047 17.6789 1.3047 16.4241C1.31312 15.1778 2.3319 14.1588 3.58643 14.1588Z" fill="#50E6FF"/>
</svg>
