<svg data-slug-id="scale13" viewBox="0 0 48 48" xmlns="http://www.w3.org/2000/svg">
<path d="M39.8932 3.54706L21.9492 30.0802L24.866 32.0543L42.81 5.52113L39.8932 3.54706Z" fill="#50E6FF"/>
<path d="M39.7725 11.5078C42.3992 11.5078 44.5263 9.38063 44.5263 6.7539C44.5263 4.12717 42.3992 2 39.7725 2C37.1457 2 35.0186 4.12717 35.0186 6.7539C35.0186 9.38063 37.1457 11.5078 39.7725 11.5078Z" fill="#1F1D21"/>
<path d="M23.6252 25.5036C27.5411 25.5036 30.7077 28.6299 30.7963 32.4975H35.3246C35.1957 26.116 29.9986 21.0156 23.6252 21.0156C17.2437 21.0156 12.0547 26.116 11.9258 32.4572H16.4541C16.5427 28.5815 19.7093 25.5036 23.6252 25.5036Z" fill="#1F1D21"/>
<path d="M23.6252 25.5036C19.7093 25.5036 16.5427 28.6299 16.4541 32.4975H18.3879C18.5168 29.6854 20.8051 27.4374 23.6252 27.4374C26.4373 27.4374 28.7739 29.6774 28.8626 32.4975H30.7964C30.6594 28.5815 27.4928 25.5036 23.6252 25.5036Z" fill="#E7E8EA"/>
<path d="M23.6255 27.4374C20.8135 27.4374 18.4768 29.6774 18.3882 32.4975H28.9032C28.7742 29.6854 26.4376 27.4374 23.6255 27.4374Z" fill="#1F1D21"/>
<path d="M39.8932 3.54706L21.9492 30.0802L24.866 32.0543L42.81 5.52113L39.8932 3.54706Z" fill="#0078D4"/>
<path d="M39.7725 11.5078C42.3992 11.5078 44.5263 9.38063 44.5263 6.7539C44.5263 4.12717 42.3992 2 39.7725 2C37.1457 2 35.0186 4.12717 35.0186 6.7539C35.0186 9.38063 37.1457 11.5078 39.7725 11.5078Z" fill="#0078D4"/>
<path d="M23.6252 25.5036C27.5411 25.5036 30.7077 28.6299 30.7963 32.4975H35.3246C35.1957 26.116 29.9986 21.0156 23.6252 21.0156C17.2437 21.0156 12.0547 26.116 11.9258 32.4572H16.4541C16.5427 28.5815 19.7093 25.5036 23.6252 25.5036Z" fill="#50E6FF"/>
<path d="M23.6252 25.5036C19.7093 25.5036 16.5427 28.6299 16.4541 32.4975H18.3879C18.5168 29.6854 20.8051 27.4374 23.6252 27.4374C26.4373 27.4374 28.7739 29.6774 28.8626 32.4975H30.7964C30.6594 28.5815 27.4928 25.5036 23.6252 25.5036Z" fill="#0078D4"/>
<path d="M23.6255 27.4374C20.8135 27.4374 18.4768 29.6774 18.3882 32.4975H28.9032C28.7742 29.6854 26.4376 27.4374 23.6255 27.4374Z" fill="#50E6FF"/>
<path d="M47 34.3265V31.7723H1.12891V34.3265H47Z" fill="#0078D4"/>
<path d="M46.9436 36.7035H1V46.3805H46.9436V36.7035Z" fill="#0078D4"/>
<path d="M22.2151 41.6669C22.2151 40.9014 21.5947 40.281 20.8292 40.281H4.28725C3.52179 40.281 2.90137 40.9014 2.90137 41.6669C2.90137 42.4323 3.52179 43.0527 4.28725 43.0527H20.8292C21.5947 43.0527 22.2151 42.4323 22.2151 41.6669Z" fill="white"/>
<path d="M13.8838 41.6669C13.8838 43.1897 15.1166 44.4225 16.6394 44.4225C18.1623 44.4225 19.3951 43.1897 19.3951 41.6669C19.3951 40.144 18.1623 38.9112 16.6394 38.9112C15.1166 38.9031 13.8838 40.144 13.8838 41.6669Z" fill="#50E6FF"/>
<path d="M39.6194 41.4815C39.5147 43.1494 40.8844 44.5192 42.5523 44.4145C43.9221 44.3258 45.0421 43.2139 45.1226 41.8441C45.2274 40.1762 43.8576 38.8065 42.1897 38.9112C40.828 38.9998 39.708 40.1118 39.6194 41.4815Z" fill="#50E6FF"/>
<path d="M29.7893 41.4815C29.6846 43.1494 31.0543 44.5192 32.7222 44.4145C34.092 44.3258 35.212 43.2139 35.2926 41.8441C35.3973 40.1762 34.0275 38.8065 32.3597 38.9112C30.9979 38.9998 29.878 40.1118 29.7893 41.4815Z" fill="#50E6FF"/>
</svg>
