<svg data-slug-id="scale09" viewBox="0 0 48 49" xmlns="http://www.w3.org/2000/svg">
<path d="M47.9238 28.6357H35.4102V32.6105C35.4102 34.3452 38.2144 35.7431 41.6838 35.7431C45.1533 35.7431 47.9575 34.3368 47.9575 32.6105C47.9575 32.6021 47.9491 28.661 47.9238 28.6357Z" fill="#0078D7"/>
<path d="M47.9491 27.9287L47.9575 31.4066C47.9575 33.1413 45.1533 34.5392 41.6838 34.5392C38.2144 34.5392 35.4102 33.1329 35.4102 31.4066V27.9287H47.9491Z" fill="#50E6FF"/>
<path d="M47.9243 24.3428H35.4106V28.3175C35.4106 30.0522 38.2149 31.4501 41.6843 31.4501C45.1538 31.4501 47.958 30.0438 47.958 28.3175C47.958 28.3091 47.9496 24.368 47.9243 24.3428Z" fill="#0078D7"/>
<path d="M47.9575 21.874H35.4102V25.1667C35.4102 26.9014 38.2144 28.2993 41.6838 28.2993C45.1533 28.2993 47.9575 26.893 47.9575 25.1667C47.9575 25.1667 47.9575 21.8993 47.9575 21.874Z" fill="#50E6FF"/>
<path d="M41.6843 25.2174C45.1492 25.2174 47.958 23.8149 47.958 22.0848C47.958 20.3547 45.1492 18.9521 41.6843 18.9521C38.2195 18.9521 35.4106 20.3547 35.4106 22.0848C35.4106 23.8149 38.2195 25.2174 41.6843 25.2174Z" fill="#0078D7"/>
<path d="M31.1327 29.9756H21.0527V33.1756C21.0527 34.5735 23.318 35.7019 26.1054 35.7019C28.8927 35.7019 31.158 34.5735 31.158 33.1756C31.158 33.1756 31.1496 29.9924 31.1327 29.9756Z" fill="#0078D7"/>
<path d="M31.1496 29.4052L31.158 32.2095C31.158 33.6073 28.8927 34.7358 26.1054 34.7358C23.318 34.7358 21.0527 33.6073 21.0527 32.2095V29.4137H31.1496" fill="#50E6FF"/>
<path d="M31.1327 26.5146H21.0527V29.7146C21.0527 31.1125 23.318 32.241 26.1054 32.241C28.8927 32.241 31.158 31.1125 31.158 29.7146C31.158 29.7146 31.1496 26.5399 31.1327 26.5146Z" fill="#0078D7"/>
<path d="M31.158 24.5381H21.0527V27.1907C21.0527 28.5886 23.318 29.717 26.1054 29.717C28.8927 29.717 31.158 28.5886 31.158 27.1907C31.158 27.1907 31.158 24.5549 31.158 24.5381Z" fill="#50E6FF"/>
<path d="M26.1054 27.2235C28.8959 27.2235 31.158 26.0925 31.158 24.6972C31.158 23.302 28.8959 22.1709 26.1054 22.1709C23.3149 22.1709 21.0527 23.302 21.0527 24.6972C21.0527 26.0925 23.3149 27.2235 26.1054 27.2235Z" fill="#0078D7"/>
<path d="M16.4879 31.4092H8.92578V33.8092C8.92578 34.8534 10.6184 35.7039 12.7153 35.7039C14.8121 35.7039 16.5047 34.8534 16.5047 33.8092C16.5047 33.8092 16.5047 31.426 16.4879 31.4092Z" fill="#0078D7"/>
<path d="M16.5051 30.9795L16.5135 33.0763C16.5135 34.1205 14.8209 34.9711 12.724 34.9711C10.6272 34.9711 8.93457 34.1205 8.93457 33.0763V30.9795H16.5051Z" fill="#50E6FF"/>
<path d="M16.4879 28.8154H8.92578V31.2154C8.92578 32.2596 10.6184 33.1102 12.7153 33.1102C14.8121 33.1102 16.5047 32.2596 16.5047 31.2154C16.5047 31.2154 16.5047 28.8323 16.4879 28.8154Z" fill="#0078D7"/>
<path d="M16.5052 27.3232H8.92627V29.3106C8.92627 30.3548 10.6189 31.2053 12.7157 31.2053C14.8126 31.2053 16.5052 30.3548 16.5052 29.3106C16.5052 29.3106 16.5052 27.3401 16.5052 27.3232Z" fill="#50E6FF"/>
<path d="M12.7153 29.3432C14.8081 29.3432 16.5047 28.4949 16.5047 27.4484C16.5047 26.402 14.8081 25.5537 12.7153 25.5537C10.6224 25.5537 8.92578 26.402 8.92578 27.4484C8.92578 28.4949 10.6224 29.3432 12.7153 29.3432Z" fill="#0078D7"/>
<path d="M5.03556 32.8896H0.0839844V34.4644C0.0839844 35.1465 1.19556 35.7023 2.56819 35.7023C3.94083 35.7023 5.05241 35.1465 5.05241 34.456C5.05241 34.456 5.05241 32.8981 5.03556 32.8896Z" fill="#0078D7"/>
<path d="M5.05241 32.6045V33.9771C5.05241 34.6592 3.94083 35.215 2.56819 35.215C1.19556 35.215 0.0839844 34.6676 0.0839844 33.9855V32.6129H5.05241" fill="#50E6FF"/>
<path d="M5.03556 31.1904H0.0839844V32.7652C0.0839844 33.4473 1.19556 34.0031 2.56819 34.0031C3.94083 34.0031 5.05241 33.4473 5.05241 32.7652C5.05241 32.7652 5.05241 31.1989 5.03556 31.1904Z" fill="#0078D7"/>
<path d="M5.05241 30.2139H0.0839844V31.5191C0.0839844 32.2012 1.19556 32.757 2.56819 32.757C3.94083 32.757 5.05241 32.2012 5.05241 31.5191C5.05241 31.5191 5.05241 30.2223 5.05241 30.2139Z" fill="#50E6FF"/>
<path d="M2.56819 31.5334C3.94019 31.5334 5.05241 30.9792 5.05241 30.2955C5.05241 29.6118 3.94019 29.0576 2.56819 29.0576C1.1962 29.0576 0.0839844 29.6118 0.0839844 30.2955C0.0839844 30.9792 1.1962 31.5334 2.56819 31.5334Z" fill="#0078D7"/>
<path d="M12.6655 41.917C11.9666 41.917 11.4023 42.4812 11.4023 43.1801C11.4023 43.8791 11.9666 44.4433 12.6655 44.4433C13.3644 44.4433 13.9287 43.8791 13.9287 43.1801C13.9287 42.4812 13.3644 41.917 12.6655 41.917Z" fill="#0078D7"/>
<path d="M10.2573 43.9541C10.1815 43.7099 10.131 43.4489 10.131 43.1794C10.131 43.011 10.1479 42.851 10.1815 42.691H2.52681V40.7373L0.0341797 43.2384L2.52681 45.7394V43.9626H10.2573V43.9541Z" fill="#50E6FF"/>
<path d="M15.1494 42.6904C15.1831 42.8504 15.1999 43.0104 15.1999 43.1788C15.1999 43.4483 15.1578 43.7094 15.082 43.9536H23.3852V42.6904H15.1494Z" fill="#0078D4"/>
<path d="M35.9834 42.6904H24.6318V43.9536H35.9834V42.6904Z" fill="#0078D4"/>
<path d="M47.9998 43.2377L45.5071 40.7451V42.6904H37.2461V43.9535H45.5071V45.7388L47.9998 43.2377Z" fill="#0078D4"/>
</svg>
