<svg data-slug-id="science03" viewBox="0 0 48 48" xmlns="http://www.w3.org/2000/svg">
<path d="M24.1292 34.2752C29.8041 34.2752 34.4044 29.6748 34.4044 24C34.4044 18.3251 29.8041 13.7248 24.1292 13.7248C18.4544 13.7248 13.854 18.3251 13.854 24C13.854 29.6748 18.4544 34.2752 24.1292 34.2752Z" fill="#0078D7"/>
<path d="M24.0001 10.9137C23.4508 10.9137 23.0308 10.4936 23.0308 9.94431V1.76938C23.0308 1.22007 23.4508 0.800018 24.0001 0.800018C24.5494 0.800018 24.9695 1.22007 24.9695 1.76938V9.94431C24.9695 10.4936 24.5494 10.9137 24.0001 10.9137Z" fill="#0078D7"/>
<path d="M24.0001 47.2C23.4508 47.2 23.0308 46.7799 23.0308 46.2306V38.0557C23.0308 37.5064 23.4508 37.0863 24.0001 37.0863C24.5494 37.0863 24.9695 37.5064 24.9695 38.0557V46.2306C24.9695 46.7799 24.5494 47.2 24.0001 47.2Z" fill="#0078D7"/>
<path d="M33.952 15.0495C33.6935 15.0495 33.4673 14.9526 33.2735 14.7587C32.8857 14.371 32.8857 13.757 33.2735 13.4016L39.0573 7.58546C39.4451 7.19771 40.059 7.19771 40.4144 7.58546C40.8022 7.9732 40.8022 8.58713 40.4144 8.94256L34.6306 14.7264C34.4367 14.9526 34.1782 15.0495 33.952 15.0495Z" fill="#0078D7"/>
<path d="M8.29651 40.7053C8.03801 40.7053 7.81183 40.6084 7.61796 40.4145C7.23021 40.0267 7.23021 39.4128 7.61796 39.0574L13.4018 33.2735C13.7895 32.8858 14.4035 32.8858 14.7589 33.2735C15.1466 33.6613 15.1466 34.2752 14.7589 34.6306L8.97506 40.4145C8.78119 40.6084 8.52269 40.7053 8.29651 40.7053Z" fill="#0078D7"/>
<path d="M46.2307 24.9694H38.0558C37.5065 24.9694 37.0864 24.5493 37.0864 24C37.0864 23.4507 37.5065 23.0307 38.0558 23.0307H46.2307C46.78 23.0307 47.2001 23.4507 47.2001 24C47.2001 24.5493 46.78 24.9694 46.2307 24.9694Z" fill="#0078D7"/>
<path d="M9.94434 24.9694H1.76941C1.2201 24.9694 0.800049 24.5493 0.800049 24C0.800049 23.4507 1.2201 23.0307 1.76941 23.0307H9.94434C10.4936 23.0307 10.9137 23.4507 10.9137 24C10.9137 24.5493 10.4936 24.9694 9.94434 24.9694Z" fill="#0078D7"/>
<path d="M39.7359 40.7053C39.4774 40.7053 39.2512 40.6084 39.0573 40.4145L33.2735 34.6306C32.8857 34.2429 32.8857 33.629 33.2735 33.2735C33.6612 32.8858 34.2751 32.8858 34.6306 33.2735L40.4144 39.0574C40.8022 39.4451 40.8022 40.059 40.4144 40.4145C40.2205 40.6084 39.9621 40.7053 39.7359 40.7053Z" fill="#0078D7"/>
<path d="M14.0802 15.0496C13.8217 15.0496 13.5955 14.9527 13.4016 14.7588L7.58549 8.97498C7.19774 8.58724 7.19774 7.97331 7.58549 7.61788C7.97323 7.23014 8.58716 7.23014 8.94259 7.61788L14.7264 13.4017C15.1142 13.7895 15.1142 14.4034 14.7264 14.7588C14.5649 14.9527 14.3064 15.0496 14.0802 15.0496Z" fill="#0078D7"/>
</svg>
