<svg data-slug-id="science04" viewBox="0 0 46 47" xmlns="http://www.w3.org/2000/svg">
<path d="M5.98503 18.4559C5.9785 18.4412 5.97198 18.4265 5.96627 18.4119C4.8284 19.022 3.89853 19.6859 3.20113 20.3793C2.18153 21.3923 1.70028 22.4217 1.69702 23.4266C1.69702 23.4405 1.69784 23.4536 1.69784 23.4674C1.71089 22.4747 2.18724 21.4584 3.18971 20.4551C3.892 19.7504 4.83248 19.0766 5.98503 18.4559Z" fill="#3BCAF4"/>
<path d="M6.05949 30.4463C6.05459 30.461 6.04888 30.4757 6.04399 30.4904C6.05867 30.4969 6.07254 30.5043 6.0864 30.5108C6.38494 30.6527 6.69082 30.7906 7.00485 30.9243C7.20062 31.0075 7.40046 31.0883 7.60274 31.1674C7.60764 31.1535 7.61253 31.1397 7.61743 31.1258C7.63211 31.1315 7.64679 31.1372 7.66147 31.1437C7.91107 31.2424 8.16556 31.3379 8.42494 31.4317C9.75205 31.9105 11.2031 32.3257 12.7545 32.6666C13.0294 32.727 13.3084 32.7849 13.5898 32.8403C13.5914 32.8501 13.5939 32.8599 13.5955 32.8705C13.6053 32.8722 13.6151 32.8746 13.6257 32.8762C14.2007 32.988 14.7888 33.0891 15.3875 33.1797C15.3859 33.1715 15.3843 33.1634 15.3827 33.1552C15.3933 33.1568 15.4039 33.1585 15.4145 33.1601C15.6975 33.2041 15.983 33.2457 16.2709 33.2849C16.6478 33.3363 17.0287 33.3828 17.4137 33.4252C17.8664 33.4758 18.324 33.5198 18.7865 33.5581C18.7922 33.563 18.7979 33.5679 18.8028 33.572C18.8101 33.5728 18.8175 33.5736 18.8248 33.5736C19.753 33.647 20.7 33.6968 21.6617 33.7205C21.6601 33.7188 21.6585 33.718 21.6568 33.7164C21.6683 33.7164 21.6797 33.7172 21.6911 33.7172C22.0997 33.7286 22.5108 33.7351 22.9244 33.7368C22.948 33.7196 22.9717 33.7025 22.9954 33.6854C23.7099 33.1576 24.4236 32.5956 25.1324 32.0035C24.4415 32.0296 23.7401 32.0426 23.0304 32.0402C23.0198 32.0402 23.0092 32.0402 22.9986 32.0402C22.9929 32.0402 22.9872 32.0402 22.9807 32.0402C22.9758 32.0402 22.9709 32.0402 22.966 32.0402C22.957 32.0402 22.9489 32.0402 22.9399 32.0402C22.2343 32.0394 21.5369 32.0247 20.8493 31.9961C20.3982 31.9774 19.9513 31.9529 19.5092 31.9227C19.5026 31.9219 19.4969 31.9219 19.4904 31.9211C18.5336 31.8558 17.5988 31.7637 16.6902 31.647C16.6877 31.647 16.6861 31.6462 16.6837 31.6462C16.4316 31.6136 16.1804 31.5801 15.9324 31.5442C15.7261 31.5141 15.5213 31.4831 15.3182 31.4504C15.2415 31.4382 15.1641 31.426 15.0874 31.4129C15.0784 31.4113 15.0703 31.4096 15.0613 31.4088C14.4658 31.3101 13.8843 31.2 13.3174 31.0809C13.3092 31.0793 13.3011 31.0777 13.2929 31.076C13.0131 31.0165 12.7358 30.9553 12.4634 30.8909C11.2398 30.6029 10.0914 30.2677 9.03344 29.8909C8.77324 29.7979 8.51793 29.7024 8.26833 29.6046C8.25447 29.5989 8.24142 29.594 8.22755 29.5882C8.0375 29.5132 7.84908 29.4373 7.66555 29.3599C7.3352 29.2196 7.0179 29.076 6.71203 28.9284C6.69898 28.9218 6.68592 28.9153 6.67287 28.9088C6.43551 28.7938 6.20549 28.6771 5.98363 28.5581C4.83026 27.9373 3.8906 27.2636 3.18749 26.5588C2.17198 25.5417 1.69481 24.5107 1.69481 23.5058C1.69481 23.4919 1.69562 23.4788 1.69562 23.465C1.69562 23.4511 1.69481 23.4381 1.69481 23.4242C1.69889 22.4193 2.18013 21.3899 3.19891 20.3768C3.89631 19.6835 4.82618 19.0204 5.96405 18.4094C5.86699 18.1876 5.77318 17.9665 5.68428 17.7463C5.56437 17.451 5.45344 17.159 5.34903 16.8702C4.00806 17.575 2.86612 18.3727 1.98682 19.2536C0.773909 20.4731 0.0153313 21.8956 0.00146484 23.4642C0.0096216 25.0327 0.76249 26.4585 1.97295 27.6796C2.85878 28.5735 4.01214 29.3827 5.36861 30.098C5.59292 30.2163 5.82376 30.333 6.05949 30.4463Z" fill="#3BCAF4"/>
<path d="M6.11283 16.4395C6.09897 16.4461 6.08429 16.4526 6.07042 16.4599C6.07531 16.4746 6.08021 16.4893 6.08592 16.5048C6.19603 16.8148 6.31431 17.1272 6.44155 17.4428C6.52149 17.641 6.60713 17.8409 6.69441 18.0423C6.70746 18.0358 6.72133 18.0301 6.73438 18.0236C6.7409 18.0383 6.74661 18.053 6.75314 18.0668C6.85999 18.3132 6.97256 18.5611 7.0892 18.8107C7.68872 20.0872 8.4212 21.4062 9.27766 22.7439C9.42937 22.9813 9.58598 23.2194 9.74504 23.4576C9.73933 23.4658 9.73362 23.4747 9.72791 23.4829C9.73362 23.4911 9.73933 23.5 9.74504 23.5082C10.0729 23.9935 10.4172 24.4805 10.7761 24.9682C10.7809 24.9617 10.785 24.9544 10.7899 24.9479C10.7964 24.9568 10.803 24.965 10.8095 24.974C10.9792 25.2048 11.1504 25.4364 11.3266 25.6681C11.5575 25.9707 11.794 26.2733 12.0355 26.5759C12.3201 26.9316 12.6121 27.2864 12.9123 27.6404C12.9131 27.6477 12.9131 27.6551 12.9139 27.6624C12.9188 27.6681 12.9237 27.6738 12.9278 27.6795C13.5322 28.3876 14.1668 29.0923 14.83 29.7897C14.83 29.7873 14.8291 29.7856 14.8291 29.7832C14.8373 29.7913 14.8446 29.7995 14.8528 29.8076C15.1326 30.1037 15.4172 30.3982 15.7076 30.6902C15.7084 30.691 15.7101 30.6927 15.7109 30.6935C15.7394 30.6975 15.768 30.7024 15.7973 30.7073C16.6766 30.8395 17.5788 30.9471 18.4989 31.0295C17.9907 30.5589 17.485 30.0703 16.9833 29.5662C16.976 29.5589 16.9678 29.5507 16.9605 29.5434C16.9564 29.5393 16.9523 29.5352 16.9483 29.5311C16.945 29.5279 16.9409 29.5238 16.9377 29.5205C16.932 29.514 16.9254 29.5083 16.9197 29.5018C16.4222 29.0026 15.9401 28.5001 15.4752 27.9944C15.1693 27.6624 14.8707 27.3288 14.5795 26.9952C14.5755 26.9903 14.5714 26.9862 14.5673 26.9813C13.9368 26.2586 13.3414 25.5327 12.781 24.8084C12.7793 24.8067 12.7785 24.8051 12.7769 24.8027C12.6211 24.6012 12.4678 24.3997 12.3177 24.1991C12.1929 24.0319 12.0705 23.8655 11.9498 23.6991C11.9041 23.6354 11.8576 23.5726 11.8128 23.509C11.8079 23.5017 11.803 23.4943 11.7973 23.487C11.4465 22.9959 11.1129 22.5074 10.7964 22.022C10.7915 22.0147 10.7875 22.0082 10.7826 22.0008C10.6268 21.761 10.4743 21.522 10.3266 21.2838C9.6651 20.2153 9.09005 19.1672 8.6088 18.1525C8.49053 17.9029 8.37715 17.6549 8.2703 17.4094C8.26459 17.3955 8.25888 17.3825 8.25317 17.3686C8.17078 17.1794 8.09085 16.9918 8.01581 16.8058C7.88203 16.4746 7.75968 16.1492 7.64875 15.8302C7.64386 15.8164 7.63978 15.8025 7.63489 15.7886C7.54842 15.5399 7.46849 15.2943 7.39589 15.0537C7.01823 13.7976 6.82981 12.6548 6.83063 11.6589C6.83144 10.2217 7.22297 9.15556 7.93424 8.4443C7.94403 8.43451 7.95381 8.42553 7.9636 8.41656C7.97339 8.40677 7.98236 8.39617 7.99215 8.3872C8.70587 7.67919 9.77359 7.29175 11.2108 7.29582C12.1953 7.29909 13.3226 7.48751 14.56 7.86109C14.6481 7.63596 14.7378 7.4141 14.83 7.19631C14.9548 6.90185 15.0828 6.61637 15.2133 6.33822C13.7688 5.88878 12.3992 5.6449 11.1553 5.6449C11.1529 5.6449 11.1504 5.6449 11.148 5.6449C9.42855 5.64653 7.88611 6.11554 6.76701 7.21507C5.6634 8.3301 5.18786 9.8701 5.18052 11.5895C5.17481 12.8489 5.4187 14.2389 5.87221 15.7046C5.94481 15.9477 6.02637 16.1932 6.11283 16.4395Z" fill="#0377BB"/>
<path d="M39.8794 30.5785C39.8933 30.572 39.908 30.5655 39.9219 30.5581C39.917 30.5434 39.9121 30.5288 39.9064 30.5133C39.7962 30.2025 39.6772 29.8885 39.5491 29.572C39.4692 29.3746 39.3843 29.1756 39.2979 28.9757C39.2848 28.9822 39.2718 28.9879 39.2579 28.9945C39.2514 28.9798 39.2457 28.9651 39.2391 28.9512C39.1323 28.7049 39.0197 28.4569 38.9031 28.2073C38.3036 26.93 37.5703 25.6102 36.7138 24.2717C36.5621 24.0344 36.4055 23.7962 36.2464 23.558C36.2521 23.5498 36.2578 23.5409 36.2635 23.5327C36.2578 23.5246 36.2521 23.5156 36.2464 23.5074C35.9185 23.0221 35.5743 22.5351 35.2154 22.0474C35.2105 22.0539 35.2064 22.0612 35.2015 22.0678C35.195 22.0588 35.1885 22.0506 35.182 22.0417C35.0123 21.8108 34.841 21.5792 34.6648 21.3475C34.4348 21.0449 34.1983 20.7431 33.9568 20.4405C33.6721 20.0849 33.3801 19.73 33.08 19.376C33.0792 19.3687 33.0792 19.3613 33.0783 19.354C33.0734 19.3483 33.0685 19.3426 33.0645 19.3369C32.4601 18.6289 31.8255 17.9241 31.1623 17.2267C31.1623 17.2292 31.1631 17.2308 31.1631 17.2333C31.155 17.2251 31.1476 17.2169 31.1395 17.2088C30.8605 16.9143 30.5775 16.6215 30.2879 16.3295C30.2855 16.327 30.2822 16.3238 30.2798 16.3213C30.2512 16.3172 30.2235 16.3124 30.1949 16.3083C29.3156 16.1761 28.4135 16.0685 27.4934 15.9861C28.0024 16.4584 28.5089 16.9469 29.0114 17.4519C29.0179 17.4584 29.0244 17.4649 29.031 17.4714C29.0342 17.4747 29.0383 17.4788 29.0416 17.482C29.0456 17.4861 29.0497 17.4902 29.0538 17.4943C29.0611 17.5016 29.0677 17.5089 29.075 17.5163C29.5718 18.0147 30.053 18.5171 30.5179 19.022C30.8238 19.354 31.1223 19.6876 31.4135 20.0212C31.4176 20.0261 31.4217 20.0302 31.4258 20.0351C32.0563 20.7578 32.6517 21.4837 33.2121 22.2089C33.2137 22.2105 33.2146 22.2121 33.2162 22.2146C33.372 22.4161 33.5245 22.6167 33.6746 22.8174C33.7994 22.9846 33.9217 23.1518 34.0433 23.319C34.089 23.3818 34.1346 23.4454 34.1795 23.5082C34.1844 23.5156 34.1893 23.5229 34.195 23.5303C34.5457 24.0213 34.8793 24.5099 35.1958 24.9952C35.2007 25.0026 35.2048 25.0091 35.2097 25.0164C35.3655 25.2562 35.518 25.4952 35.6657 25.7334C36.328 26.8028 36.903 27.8517 37.3843 28.8672C37.5026 29.1168 37.6159 29.3648 37.7228 29.6103C37.7285 29.6242 37.7342 29.6372 37.7399 29.6511C37.8215 29.8387 37.9014 30.0255 37.9757 30.2106C38.1102 30.5426 38.2326 30.8689 38.3443 31.1886C38.3492 31.2025 38.3533 31.2164 38.3582 31.2302C38.4447 31.479 38.5246 31.7245 38.5972 31.9652C38.974 33.2197 39.1625 34.3616 39.1608 35.3567C39.16 36.794 38.7685 37.8609 38.0572 38.5713C38.0474 38.5811 38.0368 38.5901 38.027 38.5991C38.0173 38.6088 38.0083 38.6186 37.9993 38.6284C37.2856 39.3364 36.2179 39.7239 34.7807 39.7198C33.7961 39.7165 32.6697 39.5281 31.4323 39.1553C31.3442 39.3805 31.2545 39.6031 31.1623 39.8209C31.0375 40.1154 30.9103 40.4009 30.7789 40.679C32.2227 41.1285 33.5922 41.3715 34.8361 41.3715C34.8386 41.3715 34.841 41.3715 34.8443 41.3715C36.5637 41.3699 38.1062 40.9009 39.2245 39.8014C40.3281 38.6863 40.8036 37.1463 40.8118 35.4261C40.8175 34.1675 40.5744 32.7792 40.1209 31.3143C40.0475 31.0704 39.9667 30.8257 39.8794 30.5785Z" fill="#0377BB"/>
<path d="M7.05054 28.1877C7.34989 28.3329 7.66148 28.474 7.98449 28.6111C8.17535 28.6918 8.37112 28.7709 8.56851 28.8484C9.05465 27.8305 9.63541 26.7766 10.3051 25.704C9.94211 25.2187 9.593 24.7317 9.25857 24.2448C8.39395 25.5849 7.65495 26.9079 7.05054 28.1877Z" fill="#0377BB"/>
<path d="M13.8037 33.7424C14.1406 35.302 14.5533 36.7596 15.0313 38.0924C15.3445 37.9831 15.6643 37.864 15.9881 37.7327C16.1814 37.6544 16.3764 37.5712 16.5713 37.4864C16.1953 36.4219 15.8608 35.2669 15.5754 34.0344C14.9758 33.9472 14.3853 33.8501 13.8037 33.7424Z" fill="#3BCAF4"/>
<path d="M30.0035 9.28281C29.8102 9.36111 29.6161 9.4435 29.4211 9.52914C29.7972 10.5936 30.1316 11.7486 30.4171 12.9811C31.0166 13.0675 31.608 13.1654 32.1887 13.2731C31.8519 11.7135 31.4391 10.2559 30.9611 8.9231C30.6471 9.03158 30.3282 9.15148 30.0035 9.28281Z" fill="#3BCAF4"/>
<path d="M22.259 9.77053C20.9181 8.90673 19.595 8.16692 18.3152 7.5625C18.17 7.86104 18.0298 8.17181 17.8927 8.49319C17.8112 8.68487 17.732 8.88145 17.6545 9.07966C18.6733 9.5658 19.7264 10.1466 20.799 10.8162C21.2851 10.4541 21.7721 10.105 22.259 9.77053Z" fill="#0377BB"/>
<path d="M38.9416 18.8254C38.6438 18.681 38.3339 18.5407 38.0133 18.4045C37.82 18.323 37.6234 18.243 37.4236 18.1655C36.9374 19.1843 36.3567 20.2382 35.687 21.3116C36.05 21.7969 36.3991 22.2839 36.7335 22.7708C37.5981 21.429 38.3371 20.106 38.9416 18.8254Z" fill="#0377BB"/>
<path d="M12.7606 14.3164C11.2011 14.6533 9.74346 15.0668 8.41064 15.544C8.51913 15.8572 8.63903 16.1761 8.77036 16.5C8.84866 16.6941 8.93186 16.889 9.01751 17.084C10.0811 16.7072 11.237 16.3735 12.4694 16.0881C12.5559 15.4877 12.653 14.8972 12.7606 14.3164Z" fill="#3BCAF4"/>
<path d="M23.7322 37.2442C25.0731 38.1088 26.3962 38.8478 27.6768 39.4522C27.8212 39.1537 27.9623 38.8429 28.0993 38.5215C28.1809 38.329 28.26 38.1333 28.3375 37.9351C27.3187 37.4489 26.2657 36.8682 25.1922 36.1985C24.7061 36.5606 24.22 36.9098 23.7322 37.2442Z" fill="#0377BB"/>
<path d="M33.231 32.7009C34.7905 32.3641 36.2481 31.9513 37.581 31.4733C37.4717 31.1593 37.3517 30.8396 37.2204 30.5149C37.1421 30.3224 37.0597 30.1283 36.9749 29.9333C35.9104 30.3094 34.7555 30.6438 33.523 30.9293C33.4357 31.5288 33.3386 32.1202 33.231 32.7009Z" fill="#3BCAF4"/>
<path d="M30.6341 38.8421C30.7328 38.5925 30.8282 38.338 30.922 38.0787C31.4008 36.7516 31.816 35.3005 32.1562 33.7499C32.2165 33.475 32.2744 33.196 32.3299 32.9146C32.3397 32.913 32.3495 32.9105 32.3601 32.9089C32.3617 32.8991 32.3642 32.8893 32.3658 32.8787C32.4775 32.3037 32.5787 31.7156 32.6692 31.1169C32.6611 31.1185 32.6529 31.1201 32.6447 31.1218C32.6464 31.1112 32.648 31.1006 32.6496 31.09C32.6937 30.8069 32.7353 30.5214 32.7744 30.2335C32.8258 29.8558 32.8723 29.4741 32.9147 29.0891C32.9653 28.6364 33.0094 28.1788 33.0477 27.7163C33.0526 27.7106 33.0575 27.7049 33.0616 27.7C33.0624 27.6927 33.0632 27.6853 33.0632 27.678C33.1366 26.7497 33.1864 25.8027 33.21 24.8411C33.2084 24.8427 33.2076 24.8443 33.2059 24.846C33.2059 24.8345 33.2067 24.8231 33.2067 24.8117C33.2182 24.4063 33.2247 23.9985 33.2263 23.5882C33.2263 23.5849 33.2263 23.5817 33.2263 23.5784C33.2092 23.5547 33.1921 23.5311 33.1749 23.5074C32.6472 22.7921 32.0852 22.0784 31.493 21.3704C31.5191 22.0629 31.5322 22.766 31.5297 23.4773C31.5297 23.4879 31.5297 23.4976 31.5297 23.5082C31.5297 23.514 31.5297 23.5197 31.5297 23.5254C31.5297 23.5303 31.5297 23.536 31.5297 23.5409C31.5297 23.5498 31.5297 23.5588 31.5297 23.5686C31.5289 24.2725 31.5142 24.9683 31.4857 25.6543C31.4669 26.1054 31.4424 26.5515 31.4123 26.9936C31.4114 27.0002 31.4114 27.0059 31.4106 27.0124C31.3454 27.9692 31.2532 28.9039 31.1374 29.8126C31.1374 29.815 31.1366 29.8167 31.1366 29.8191C31.1039 30.072 31.0705 30.3232 31.0338 30.572C31.0036 30.7775 30.9726 30.9815 30.94 31.1846C30.9277 31.2621 30.9155 31.3395 30.9025 31.417C30.9008 31.426 30.8992 31.4342 30.8984 31.4431C30.7997 32.0386 30.6904 32.6202 30.5705 33.1871C30.5689 33.1952 30.5672 33.2034 30.5656 33.2115C30.506 33.4913 30.4449 33.7686 30.3804 34.0411C30.0933 35.2646 29.7573 36.4122 29.3804 37.4702C29.2874 37.7304 29.192 37.9857 29.0949 38.2353C29.0892 38.2491 29.0843 38.2622 29.0786 38.276C29.0036 38.4669 28.9269 38.6562 28.8494 38.8405C28.7099 39.17 28.5664 39.4865 28.4187 39.7908C28.4122 39.8038 28.4057 39.8169 28.3992 39.8299C28.2841 40.0673 28.1675 40.2973 28.0484 40.5192C27.4277 41.6733 26.7531 42.6146 26.0484 43.3177C25.0312 44.3333 24.0002 44.8104 22.9953 44.8104C22.9814 44.8104 22.9676 44.8096 22.9545 44.8096C22.9407 44.8096 22.9276 44.8104 22.9137 44.8104C21.9088 44.8063 20.8794 44.3251 19.8664 43.3063C19.1722 42.6081 18.5083 41.6774 17.8973 40.5387C17.6763 40.6358 17.4552 40.7296 17.2358 40.8185C16.9397 40.9384 16.6477 41.0502 16.3582 41.1538C17.0629 42.4955 17.8614 43.6383 18.7432 44.5192C19.9602 45.7338 21.3827 46.4923 22.9513 46.507C24.5198 46.4989 25.9456 45.746 27.1667 44.5355C28.0615 43.6489 28.8714 42.4947 29.5868 41.1374C29.7051 40.9123 29.8217 40.6815 29.9351 40.4457C29.9498 40.4506 29.9644 40.4563 29.9791 40.4612C29.9856 40.4466 29.993 40.4327 29.9995 40.4188C30.1406 40.1211 30.2785 39.8169 30.4114 39.5028C30.4946 39.3062 30.5762 39.1048 30.6561 38.9017C30.6423 38.8968 30.6284 38.8919 30.6145 38.887C30.6227 38.8707 30.6284 38.8568 30.6341 38.8421Z" fill="#3BCAF4"/>
<path d="M15.3591 8.17352C15.2604 8.42312 15.1649 8.67761 15.0711 8.937C14.5923 10.2641 14.1771 11.716 13.837 13.2674C13.7767 13.5431 13.7187 13.8213 13.6633 14.1027C13.6535 14.1043 13.6437 14.1067 13.6331 14.1084C13.6315 14.1182 13.629 14.128 13.6274 14.1386C13.5156 14.7136 13.4145 15.3017 13.324 15.9004C13.3321 15.8988 13.3403 15.8972 13.3484 15.8955C13.3468 15.9061 13.3452 15.9167 13.3435 15.9273C13.2995 16.2104 13.2579 16.4959 13.2187 16.7838C13.1673 17.1606 13.1208 17.5407 13.0784 17.9257C13.0279 18.3784 12.9838 18.836 12.9455 19.2985C12.9406 19.3042 12.9357 19.3099 12.9316 19.3148C12.9308 19.3222 12.93 19.3295 12.93 19.3369C12.8566 20.2651 12.8068 21.2121 12.7832 22.1738C12.7848 22.1721 12.7856 22.1705 12.7872 22.1689C12.7872 22.1803 12.7864 22.1917 12.7864 22.2031C12.775 22.6085 12.7685 23.0172 12.7668 23.4275C12.7668 23.4307 12.7668 23.434 12.7668 23.4381C12.784 23.4617 12.8003 23.4846 12.8174 23.5082C13.3452 24.2236 13.908 24.9373 14.5002 25.6469C14.4741 24.9536 14.461 24.2513 14.4635 23.5392C14.4635 23.5286 14.4635 23.5188 14.4635 23.5082C14.4635 23.5025 14.4635 23.4968 14.4635 23.4911C14.4635 23.4862 14.4635 23.4805 14.4635 23.4756C14.4635 23.4666 14.4635 23.4576 14.4635 23.4479C14.4643 22.7431 14.4789 22.0465 14.5075 21.3605C14.5263 20.9095 14.5507 20.4633 14.5809 20.0212C14.5817 20.0147 14.5817 20.009 14.5825 20.0024C14.6478 19.0457 14.74 18.1109 14.8558 17.2022C14.8558 17.1998 14.8566 17.1973 14.8566 17.1957C14.8892 16.9437 14.9227 16.6933 14.9586 16.4461C14.9887 16.2397 15.0197 16.0342 15.0524 15.8311C15.0646 15.7544 15.0768 15.6777 15.0891 15.6011C15.0907 15.5921 15.0923 15.5839 15.0932 15.575C15.1918 14.9795 15.3011 14.3979 15.4211 13.831C15.4227 13.8229 15.4243 13.8147 15.4259 13.8066C15.4855 13.5268 15.5467 13.2495 15.6111 12.977C15.899 11.7527 16.2343 10.6051 16.6111 9.54631C16.7041 9.28611 16.7995 9.0308 16.8966 8.7812C16.9023 8.76734 16.9072 8.75428 16.9129 8.74042C16.988 8.54955 17.0646 8.36031 17.1421 8.17597C17.2816 7.84644 17.426 7.52996 17.5728 7.22571C17.5793 7.21266 17.5859 7.19961 17.5924 7.18656C17.7074 6.9492 17.824 6.71917 17.9431 6.49731C18.5638 5.34313 19.2384 4.40184 19.9432 3.69873C20.9603 2.68321 21.9913 2.20604 22.9962 2.20604C23.0101 2.20604 23.0231 2.20686 23.037 2.20686C23.0509 2.20686 23.0647 2.20604 23.0778 2.20604C24.0827 2.21012 25.1121 2.69137 26.1252 3.71015C26.8193 4.40837 27.4833 5.33905 28.0934 6.47773C28.3144 6.38149 28.5347 6.28768 28.7541 6.19877C29.0502 6.07887 29.343 5.96712 29.6326 5.86272C28.9278 4.52093 28.1301 3.37817 27.2475 2.49805C26.0314 1.2827 24.6088 0.52412 23.0403 0.510254C21.4717 0.518411 20.0467 1.27128 18.8249 2.48174C17.9301 3.36838 17.1201 4.52256 16.4048 5.87984C16.2865 6.10497 16.1698 6.33581 16.0565 6.57154C16.0418 6.56664 16.0271 6.56093 16.0124 6.55604C16.0059 6.57072 15.9986 6.58459 15.992 6.59846C15.8509 6.89618 15.7131 7.20042 15.5801 7.51446C15.4969 7.71104 15.4153 7.91169 15.3354 8.11561C15.3493 8.12051 15.3631 8.1254 15.377 8.13029C15.3713 8.14416 15.3648 8.15884 15.3591 8.17352Z" fill="#3BCAF4"/>
<path d="M17.5286 39.8087C17.5221 39.7956 17.5164 39.7818 17.5099 39.7687C17.5246 39.7622 17.5392 39.7565 17.5531 39.75C17.7994 39.6431 18.0474 39.5305 18.297 39.4139C19.5735 38.8144 20.8933 38.0811 22.231 37.2254C22.4684 37.0737 22.7065 36.9171 22.9447 36.7581C22.9529 36.7638 22.9619 36.7695 22.97 36.7752C22.9782 36.7695 22.9871 36.7638 22.9953 36.7581C23.4806 36.4302 23.9676 36.0859 24.4554 35.727C24.4488 35.7222 24.4415 35.7181 24.435 35.7132C24.4439 35.7067 24.4521 35.7001 24.4611 35.6936C24.6919 35.5239 24.9235 35.3527 25.1552 35.1765C25.4578 34.9464 25.7596 34.7099 26.0614 34.4685C26.4171 34.1838 26.7719 33.8918 27.1259 33.5916C27.1332 33.5908 27.1406 33.5908 27.1479 33.59C27.1536 33.5851 27.1593 33.5802 27.165 33.5761C27.873 32.9725 28.5778 32.3371 29.2744 31.674C29.2719 31.674 29.2703 31.6748 29.2678 31.6748C29.276 31.6666 29.2842 31.6593 29.2923 31.6511C29.5884 31.3705 29.8837 31.085 30.1773 30.7938C30.1781 30.793 30.1798 30.7914 30.1806 30.7906C30.1847 30.762 30.1896 30.7343 30.1936 30.7058C30.3258 29.8265 30.4334 28.9235 30.5158 28.0034C30.0452 28.5116 29.5574 29.0173 29.0533 29.5189C29.0452 29.5271 29.0378 29.5344 29.0297 29.5426C29.0256 29.5467 29.0207 29.5508 29.0166 29.5556C29.0133 29.5589 29.0101 29.5622 29.006 29.5663C29.0003 29.572 28.9938 29.5777 28.9881 29.5834C28.4889 30.0818 27.9848 30.5638 27.4791 31.0296C27.1471 31.3355 26.8135 31.6332 26.4799 31.9252C26.475 31.9293 26.4709 31.9333 26.466 31.9374C25.7433 32.5671 25.0174 33.1634 24.293 33.7237C24.2914 33.7254 24.2898 33.7262 24.2873 33.7278C24.0859 33.8836 23.8852 34.0362 23.6845 34.1862C23.5173 34.311 23.3501 34.4334 23.1829 34.5549C23.1201 34.6006 23.0565 34.6463 22.9937 34.6911C22.9863 34.696 22.979 34.7009 22.9716 34.7066C22.4806 35.0574 21.992 35.391 21.5067 35.7075C21.4993 35.7124 21.4928 35.7164 21.4855 35.7213C21.2457 35.8771 21.0067 36.0297 20.7685 36.1773C19.7 36.8396 18.651 37.4139 17.6363 37.8951C17.3867 38.0134 17.1387 38.1268 16.8932 38.2336C16.8794 38.2393 16.8663 38.245 16.8524 38.2507C16.664 38.3331 16.4764 38.4123 16.2913 38.4873C15.9593 38.6219 15.6346 38.7434 15.3149 38.8552C15.301 38.8601 15.2872 38.8641 15.2733 38.869C15.0245 38.9555 14.779 39.0354 14.5384 39.108C13.2855 39.484 12.1452 39.6725 11.1509 39.6725C11.1492 39.6725 11.1468 39.6725 11.1443 39.6725C9.70713 39.6717 8.64104 39.2801 7.92977 38.5689C7.91998 38.5591 7.91101 38.5493 7.90204 38.5395C7.89225 38.5297 7.88165 38.5207 7.87267 38.5118C7.16467 37.798 6.77722 36.7303 6.7813 35.2931C6.78456 34.3086 6.97298 33.1805 7.34656 31.9431C7.12307 31.855 6.9012 31.7661 6.68423 31.674C6.38896 31.5492 6.10266 31.4203 5.8237 31.2898C5.37344 32.7368 5.12956 34.1096 5.13037 35.3559C5.132 37.0754 5.60102 38.6178 6.70055 39.7369C7.81558 40.8405 9.35557 41.3161 11.075 41.3242C12.3344 41.3299 13.7235 41.0869 15.1893 40.6325C15.4324 40.5575 15.6779 40.4759 15.925 40.3894C15.9315 40.4033 15.9381 40.418 15.9454 40.4319C15.9601 40.427 15.9748 40.4221 15.9903 40.4164C16.3002 40.3063 16.6135 40.188 16.9291 40.0599C17.129 39.9808 17.328 39.896 17.5286 39.8087Z" fill="#0377BB"/>
<path d="M28.4637 7.20617C28.4702 7.21922 28.4759 7.23227 28.4824 7.24614C28.4677 7.25266 28.4531 7.25837 28.4392 7.2649C28.1929 7.37175 27.9449 7.48431 27.6953 7.60096C26.418 8.20048 25.0982 8.93377 23.7605 9.79023C23.5231 9.94194 23.2849 10.0986 23.0468 10.2576C23.0386 10.2519 23.0296 10.2462 23.0215 10.2405C23.0133 10.2462 23.0044 10.2519 22.9962 10.2576C22.5109 10.5855 22.0239 10.9297 21.5361 11.2886C21.5427 11.2935 21.55 11.2976 21.5565 11.3025C21.5476 11.309 21.5394 11.3155 21.5304 11.3221C21.2996 11.4917 21.0679 11.663 20.8363 11.8392C20.5337 12.07 20.2311 12.3066 19.9284 12.5488C19.5728 12.8335 19.218 13.1255 18.864 13.4257C18.8566 13.4265 18.8493 13.4265 18.842 13.4273C18.8363 13.4322 18.8305 13.4371 18.8248 13.4412C18.1168 14.0456 17.4121 14.6802 16.7147 15.3433C16.7171 15.3433 16.7188 15.3425 16.7212 15.3425C16.713 15.3507 16.7049 15.358 16.6967 15.3662C16.4031 15.6443 16.1111 15.9274 15.8199 16.2153C15.8166 16.2186 15.8142 16.221 15.8109 16.2235C15.8068 16.2528 15.8019 16.2814 15.797 16.3107C15.6649 17.1892 15.5572 18.0914 15.4749 19.0106C15.9463 18.5016 16.4357 17.9951 16.9406 17.4927C16.9471 17.4861 16.9537 17.4796 16.9602 17.4731C16.9635 17.4698 16.9675 17.4657 16.9708 17.4625C16.9749 17.4584 16.979 17.4543 16.983 17.4502C16.9904 17.4429 16.9977 17.4364 17.0051 17.429C17.5026 16.9323 18.0051 16.4519 18.5092 15.9877C18.8411 15.6819 19.1748 15.3833 19.5084 15.0921C19.5133 15.088 19.5173 15.084 19.5222 15.0799C20.2449 14.4494 20.9709 13.8531 21.696 13.2936C21.6976 13.2919 21.6993 13.2911 21.7017 13.2895C21.9032 13.1337 22.1047 12.9803 22.3053 12.8303C22.4725 12.7055 22.6389 12.5831 22.8053 12.4624C22.869 12.4167 22.9318 12.3702 22.9954 12.3253C23.0027 12.3205 23.0101 12.3156 23.0174 12.3098C23.5084 11.9591 23.997 11.6255 24.4824 11.309C24.4897 11.3041 24.4962 11.3 24.5036 11.2952C24.7434 11.1394 24.9824 10.9868 25.2205 10.8392C26.2891 10.1769 27.3389 9.60262 28.3527 9.12056C28.6023 9.00229 28.8503 8.88891 29.0958 8.78205C29.1097 8.77634 29.1227 8.77063 29.1366 8.76493C29.325 8.68336 29.5118 8.60342 29.697 8.52838C30.0289 8.39379 30.3544 8.27226 30.6741 8.16051C30.688 8.15562 30.7019 8.15154 30.7157 8.14664C30.9645 8.06018 31.21 7.98025 31.4507 7.90765C32.7027 7.53162 33.843 7.3432 34.8374 7.3432C34.839 7.3432 34.8414 7.3432 34.8439 7.3432C36.2811 7.34402 37.3472 7.73554 38.0585 8.44681C38.0682 8.4566 38.0772 8.46639 38.0862 8.47618C38.096 8.48596 38.1066 8.49494 38.1156 8.50472C38.8236 9.21844 39.211 10.2862 39.2069 11.7234C39.2037 12.7071 39.0152 13.8343 38.6425 15.0717C38.8684 15.1598 39.0919 15.2504 39.3105 15.3433C39.6033 15.4673 39.888 15.5946 40.1653 15.7251C40.6156 14.2789 40.8587 12.9069 40.8579 11.6606C40.8562 9.94113 40.3864 8.39869 39.2877 7.27958C38.1727 6.17597 36.6327 5.70043 34.9132 5.69309C33.6538 5.68738 32.2655 5.93045 30.7998 6.38478C30.5567 6.45983 30.3112 6.54139 30.064 6.62786C30.0575 6.61399 30.051 6.59931 30.0436 6.58544C30.0289 6.59033 30.0143 6.59523 29.9988 6.60094C29.688 6.71105 29.3748 6.82933 29.0591 6.95739C28.8633 7.03406 28.6643 7.11889 28.4637 7.20617Z" fill="#0377BB"/>
<path d="M44.0256 19.3361C43.139 18.4413 41.9832 17.6305 40.6251 16.9144C40.3999 16.7961 40.1691 16.6794 39.9334 16.5661C39.9383 16.5514 39.944 16.5367 39.9489 16.522C39.9342 16.5155 39.9203 16.5082 39.9065 16.5016C39.6096 16.3605 39.3061 16.2235 38.9929 16.0905C38.7955 16.0065 38.5932 15.9258 38.3893 15.845C38.3844 15.8589 38.3795 15.8727 38.3746 15.8866C38.3599 15.8809 38.3453 15.8752 38.3306 15.8687C38.081 15.77 37.8265 15.6745 37.5671 15.5807C36.24 15.1019 34.7889 14.6876 33.2375 14.3466C32.9618 14.2863 32.6837 14.2283 32.4022 14.1729C32.4006 14.1631 32.3982 14.1533 32.3965 14.1427C32.3867 14.1411 32.377 14.1386 32.3664 14.137C31.7913 14.0252 31.2032 13.9241 30.6045 13.8336C30.6061 13.8417 30.6078 13.8499 30.6094 13.8572C30.5988 13.8556 30.5882 13.8539 30.5776 13.8523C30.2945 13.8083 30.0091 13.7667 29.7211 13.7275C29.3443 13.6761 28.9625 13.6296 28.5775 13.5872C28.1248 13.5367 27.6673 13.4926 27.2048 13.4543C27.1991 13.4494 27.1942 13.4445 27.1884 13.4404C27.1811 13.4396 27.1738 13.4388 27.1664 13.4388C26.239 13.3654 25.292 13.3156 24.3295 13.2919C24.3311 13.2936 24.3328 13.2944 24.3344 13.296C24.323 13.296 24.3116 13.2952 24.3001 13.2952C23.8964 13.2838 23.4902 13.2773 23.0815 13.2756C23.0766 13.2756 23.0709 13.2756 23.066 13.2756C23.0424 13.2928 23.0195 13.3091 22.9959 13.327C22.2805 13.8548 21.5668 14.4176 20.8572 15.0098C21.5505 14.9837 22.2544 14.9706 22.9665 14.9722C22.9771 14.9722 22.9877 14.9722 22.9983 14.9722C23.004 14.9722 23.0097 14.9722 23.0163 14.9722C23.0212 14.9722 23.0261 14.9722 23.031 14.9722C23.0399 14.9722 23.0481 14.9722 23.0571 14.9722C23.761 14.9731 24.4568 14.9877 25.1427 15.0163C25.5938 15.035 26.04 15.0595 26.4821 15.0897C26.4886 15.0905 26.4943 15.0905 26.5008 15.0913C27.4576 15.1566 28.3924 15.2488 29.3002 15.3646C29.3027 15.3646 29.3051 15.3654 29.3068 15.3654C29.5596 15.398 29.81 15.4315 30.0588 15.4674C30.2652 15.4975 30.4691 15.5285 30.6722 15.5612C30.7497 15.5734 30.8272 15.5856 30.9039 15.5987C30.9128 15.6003 30.921 15.6019 30.93 15.6028C31.5254 15.7015 32.107 15.8108 32.6739 15.9307C32.682 15.9323 32.6902 15.9339 32.6983 15.9356C32.9781 15.9951 33.2554 16.0563 33.5279 16.1207C34.7514 16.4078 35.8999 16.7439 36.9578 17.1199C37.218 17.2129 37.4733 17.3083 37.7229 17.4054C37.7368 17.4111 37.7498 17.416 37.7637 17.4217C37.9562 17.4976 38.1454 17.5742 38.3306 17.6525C38.6593 17.792 38.975 17.9356 39.2784 18.0816C39.2914 18.0881 39.3045 18.0946 39.3175 18.1012C39.5549 18.2162 39.7849 18.3328 40.0068 18.4519C41.1618 19.0735 42.1039 19.748 42.8078 20.4536C43.8233 21.4707 44.3005 22.5017 44.3005 23.5067C44.3005 23.5205 44.2997 23.5336 44.2997 23.5474C44.2997 23.5613 44.3005 23.5744 44.3005 23.5882C44.2964 24.5931 43.8152 25.6225 42.7964 26.6356C42.0974 27.3297 41.1667 27.9945 40.0264 28.6054C40.1226 28.8265 40.2164 29.0459 40.3053 29.2645C40.4252 29.5614 40.537 29.8542 40.6414 30.1438C41.984 29.4391 43.1276 28.6405 44.0093 27.758C45.2247 26.541 45.9824 25.1184 45.9971 23.5499C45.9881 21.9838 45.2353 20.558 44.0256 19.3361Z" fill="#3BCAF4"/>
<path d="M22.9985 27.253C25.0671 27.253 26.7441 25.576 26.7441 23.5074C26.7441 21.4388 25.0671 19.7618 22.9985 19.7618C20.9299 19.7618 19.2529 21.4388 19.2529 23.5074C19.2529 25.576 20.9299 27.253 22.9985 27.253Z" fill="#0078D4"/>
</svg>
