<svg data-slug-id="science05" viewBox="0 0 46 47" xmlns="http://www.w3.org/2000/svg">
    <path d="M5.985 18.285C5.97847 18.2703 5.97195 18.2556 5.96624 18.2409C4.82837 18.851 3.8985 19.515 3.2011 20.2083C2.1815 21.2214 1.70025 22.2508 1.69699 23.2557C1.69699 23.2695 1.69781 23.2826 1.69781 23.2965C1.71086 22.3038 2.18721 21.2875 3.18968 20.2842C3.89197 19.5794 4.83245 18.9057 5.985 18.285Z" fill="#3BCAF4"/>
    <path d="M6.05955 30.2753C6.05465 30.29 6.04894 30.3047 6.04405 30.3194C6.05873 30.3259 6.0726 30.3332 6.08646 30.3398C6.385 30.4817 6.69088 30.6195 7.00491 30.7533C7.20068 30.8365 7.40052 30.9173 7.6028 30.9964C7.6077 30.9825 7.61259 30.9686 7.61749 30.9548C7.63217 30.9605 7.64685 30.9662 7.66153 30.9727C7.91113 31.0714 8.16562 31.1669 8.425 31.2607C9.75211 31.7395 11.2032 32.1546 12.7546 32.4956C13.0295 32.5559 13.3085 32.6139 13.5899 32.6693C13.5915 32.6791 13.5939 32.6889 13.5956 32.6995C13.6054 32.7011 13.6151 32.7036 13.6258 32.7052C14.2008 32.817 14.7889 32.9181 15.3876 33.0086C15.386 33.0005 15.3843 32.9923 15.3827 32.9842C15.3933 32.9858 15.4039 32.9874 15.4145 32.9891C15.6976 33.0331 15.9831 33.0747 16.271 33.1139C16.6478 33.1653 17.0287 33.2117 17.4137 33.2542C17.8664 33.3047 18.324 33.3488 18.7865 33.3871C18.7922 33.392 18.7979 33.3969 18.8028 33.401C18.8102 33.4018 18.8175 33.4026 18.8249 33.4026C19.7531 33.476 20.7001 33.5258 21.6618 33.5494C21.6602 33.5478 21.6585 33.547 21.6569 33.5454C21.6683 33.5454 21.6797 33.5462 21.6911 33.5462C22.0998 33.5576 22.5109 33.5641 22.9244 33.5658C22.9481 33.5486 22.9718 33.5315 22.9954 33.5144C23.7099 32.9866 24.4237 32.4246 25.1325 31.8324C24.4416 31.8585 23.7401 31.8716 23.0305 31.8691C23.0199 31.8691 23.0093 31.8691 22.9987 31.8691C22.993 31.8691 22.9873 31.8691 22.9807 31.8691C22.9758 31.8691 22.9709 31.8691 22.966 31.8691C22.9571 31.8691 22.9489 31.8691 22.9399 31.8691C22.2344 31.8683 21.537 31.8536 20.8494 31.8251C20.3983 31.8063 19.9513 31.7819 19.5092 31.7517C19.5027 31.7509 19.497 31.7509 19.4905 31.7501C18.5337 31.6848 17.5989 31.5926 16.6902 31.476C16.6878 31.476 16.6862 31.4752 16.6837 31.4752C16.4317 31.4425 16.1804 31.4091 15.9325 31.3732C15.7261 31.343 15.5214 31.312 15.3183 31.2794C15.2416 31.2672 15.1641 31.2549 15.0874 31.2419C15.0785 31.2403 15.0703 31.2386 15.0613 31.2378C14.4659 31.1391 13.8843 31.029 13.3174 30.9099C13.3093 30.9083 13.3011 30.9067 13.293 30.905C13.0132 30.8455 12.7358 30.7843 12.4634 30.7199C11.2399 30.4319 10.0914 30.0967 9.0335 29.7198C8.7733 29.6269 8.51799 29.5314 8.2684 29.4335C8.25453 29.4278 8.24148 29.4229 8.22761 29.4172C8.03756 29.3422 7.84914 29.2663 7.66561 29.1888C7.33526 29.0485 7.01797 28.905 6.71209 28.7573C6.69904 28.7508 6.68599 28.7443 6.67293 28.7378C6.43557 28.6228 6.20555 28.5061 5.98369 28.387C4.83032 27.7663 3.89067 27.0926 3.18755 26.3878C2.17204 25.3707 1.69487 24.3396 1.69487 23.3347C1.69487 23.3209 1.69568 23.3078 1.69568 23.294C1.69568 23.2801 1.69487 23.267 1.69487 23.2532C1.69895 22.2483 2.18019 21.2189 3.19897 20.2058C3.89638 19.5125 4.82625 18.8493 5.96411 18.2384C5.86705 18.0165 5.77324 17.7955 5.68434 17.5753C5.56443 17.28 5.4535 16.988 5.34909 16.6992C4.00812 17.404 2.86618 18.2017 1.98688 19.0826C0.77397 20.3021 0.0153924 21.7246 0.00152588 23.2931C0.00968263 24.8617 0.762551 26.2875 1.97301 27.5085C2.85884 28.4025 4.0122 29.2117 5.36867 29.927C5.59298 30.0453 5.82382 30.1619 6.05955 30.2753Z" fill="#3BCAF4"/>
    <path d="M6.11296 16.2685C6.09909 16.275 6.08441 16.2816 6.07054 16.2889C6.07544 16.3036 6.08033 16.3183 6.08604 16.3338C6.19616 16.6437 6.31443 16.9561 6.44167 17.2718C6.52161 17.47 6.60726 17.6699 6.69453 17.8713C6.70758 17.8648 6.72145 17.8591 6.7345 17.8526C6.74103 17.8672 6.74674 17.8819 6.75326 17.8958C6.86012 18.1421 6.97268 18.3901 7.08932 18.6397C7.68884 19.9162 8.42132 21.2352 9.27778 22.5729C9.42949 22.8102 9.5861 23.0484 9.74516 23.2866C9.73945 23.2948 9.73374 23.3037 9.72803 23.3119C9.73374 23.32 9.73945 23.329 9.74516 23.3372C10.0731 23.8225 10.4173 24.3095 10.7762 24.7972C10.7811 24.7907 10.7851 24.7834 10.79 24.7768C10.7966 24.7858 10.8031 24.794 10.8096 24.8029C10.9793 25.0338 11.1506 25.2654 11.3268 25.4971C11.5576 25.7997 11.7941 26.1023 12.0356 26.4049C12.3202 26.7606 12.6123 27.1154 12.9124 27.4694C12.9132 27.4767 12.9132 27.4841 12.9141 27.4914C12.919 27.4971 12.9238 27.5028 12.9279 27.5085C13.5323 28.2165 14.1669 28.9213 14.8301 29.6187C14.8301 29.6162 14.8293 29.6146 14.8293 29.6122C14.8374 29.6203 14.8448 29.6285 14.8529 29.6366C15.1327 29.9327 15.4174 30.2272 15.7077 30.5192C15.7086 30.52 15.7102 30.5216 15.711 30.5225C15.7396 30.5265 15.7681 30.5314 15.7975 30.5363C16.6768 30.6685 17.5789 30.7761 18.499 30.8585C17.9908 30.3879 17.4851 29.8993 16.9835 29.3952C16.9761 29.3878 16.968 29.3797 16.9606 29.3723C16.9565 29.3683 16.9525 29.3642 16.9484 29.3601C16.9451 29.3568 16.941 29.3528 16.9378 29.3495C16.9321 29.343 16.9256 29.3373 16.9198 29.3307C16.4223 28.8316 15.9402 28.3291 15.4753 27.8234C15.1694 27.4914 14.8709 27.1578 14.5797 26.8242C14.5756 26.8193 14.5715 26.8152 14.5674 26.8103C13.9369 26.0876 13.3415 25.3617 12.7811 24.6374C12.7795 24.6357 12.7787 24.6341 12.777 24.6316C12.6212 24.4302 12.4679 24.2287 12.3178 24.028C12.193 23.8608 12.0706 23.6944 11.9499 23.528C11.9043 23.4644 11.8578 23.4016 11.8129 23.338C11.808 23.3306 11.8031 23.3233 11.7974 23.316C11.4467 22.8249 11.113 22.3363 10.7966 21.851C10.7917 21.8437 10.7876 21.8371 10.7827 21.8298C10.6269 21.59 10.4744 21.351 10.3267 21.1128C9.66522 20.0443 9.09017 18.9961 8.60892 17.9814C8.49065 17.7318 8.37727 17.4839 8.27042 17.2384C8.26471 17.2245 8.259 17.2114 8.25329 17.1976C8.17091 17.0083 8.09097 16.8207 8.01593 16.6348C7.88216 16.3036 7.75981 15.9781 7.64887 15.6592C7.64398 15.6453 7.6399 15.6315 7.63501 15.6176C7.54855 15.3688 7.46861 15.1233 7.39601 14.8827C7.01836 13.6266 6.82994 12.4838 6.83075 11.4879C6.83157 10.0506 7.22309 8.98454 7.93436 8.27327C7.94415 8.26349 7.95394 8.25451 7.96372 8.24554C7.97351 8.23575 7.98248 8.22515 7.99227 8.21618C8.70599 7.50817 9.77371 7.12073 11.2109 7.1248C12.1954 7.12807 13.3227 7.31649 14.5601 7.69007C14.6482 7.46494 14.7379 7.24308 14.8301 7.02529C14.9549 6.73083 15.0829 6.44535 15.2134 6.1672C13.7689 5.71776 12.3994 5.47388 11.1555 5.47388C11.153 5.47388 11.1506 5.47388 11.1481 5.47388C9.42868 5.47551 7.88624 5.94452 6.76713 7.04405C5.66352 8.15908 5.18798 9.69908 5.18064 11.4185C5.17493 12.6779 5.41882 14.0678 5.87233 15.5336C5.94493 15.7767 6.0265 16.0222 6.11296 16.2685Z" fill="#50E6FF"/>
    <path d="M39.8795 30.4075C39.8933 30.4009 39.908 30.3944 39.9219 30.3871C39.917 30.3724 39.9121 30.3577 39.9064 30.3422C39.7963 30.0314 39.6772 29.7174 39.5491 29.4009C39.4692 29.2035 39.3844 29.0045 39.2979 28.8047C39.2848 28.8112 39.2718 28.8169 39.2579 28.8234C39.2514 28.8087 39.2457 28.7941 39.2392 28.7802C39.1323 28.5339 39.0197 28.2859 38.9031 28.0363C38.3036 26.7589 37.5703 25.4392 36.7138 24.1007C36.5621 23.8633 36.4055 23.6251 36.2465 23.3869C36.2522 23.3788 36.2579 23.3698 36.2636 23.3617C36.2579 23.3535 36.2522 23.3445 36.2465 23.3364C35.9185 22.851 35.5743 22.3641 35.2154 21.8763C35.2105 21.8828 35.2065 21.8902 35.2016 21.8967C35.195 21.8877 35.1885 21.8796 35.182 21.8706C35.0123 21.6398 34.841 21.4081 34.6649 21.1765C34.4348 20.8739 34.1983 20.5721 33.9569 20.2694C33.6722 19.9138 33.3802 19.559 33.08 19.205C33.0792 19.1976 33.0792 19.1903 33.0784 19.183C33.0735 19.1772 33.0686 19.1715 33.0645 19.1658C32.4601 18.4578 31.8255 17.7531 31.1623 17.0557C31.1623 17.0581 31.1632 17.0598 31.1632 17.0622C31.155 17.054 31.1477 17.0459 31.1395 17.0377C30.8605 16.7433 30.5775 16.4504 30.2879 16.1584C30.2855 16.156 30.2822 16.1527 30.2798 16.1503C30.2512 16.1462 30.2235 16.1413 30.195 16.1372C29.3157 16.0051 28.4135 15.8974 27.4934 15.815C28.0024 16.2873 28.509 16.7759 29.0114 17.2808C29.0179 17.2873 29.0245 17.2939 29.031 17.3004C29.0343 17.3036 29.0383 17.3077 29.0416 17.311C29.0457 17.3151 29.0497 17.3191 29.0538 17.3232C29.0612 17.3306 29.0677 17.3379 29.075 17.3452C29.5718 17.8436 30.053 18.3461 30.518 18.851C30.8238 19.183 31.1224 19.5166 31.4136 19.8502C31.4177 19.8551 31.4217 19.8592 31.4258 19.864C32.0563 20.5867 32.6518 21.3127 33.2121 22.0378C33.2138 22.0395 33.2146 22.0411 33.2162 22.0435C33.372 22.245 33.5245 22.4457 33.6746 22.6463C33.7994 22.8135 33.9218 22.9807 34.0433 23.148C34.089 23.2108 34.1347 23.2744 34.1795 23.3372C34.1844 23.3445 34.1893 23.3519 34.195 23.3592C34.5458 23.8502 34.8794 24.3388 35.1959 24.8242C35.2008 24.8315 35.2048 24.838 35.2097 24.8454C35.3655 25.0852 35.5181 25.3242 35.6657 25.5624C36.328 26.6317 36.9031 27.6807 37.3843 28.6962C37.5026 28.9458 37.616 29.1937 37.7228 29.4393C37.7285 29.4531 37.7342 29.4662 37.74 29.48C37.8215 29.6676 37.9015 29.8544 37.9757 30.0396C38.1103 30.3716 38.2326 30.6978 38.3444 31.0176C38.3493 31.0315 38.3533 31.0453 38.3582 31.0592C38.4447 31.308 38.5246 31.5535 38.5972 31.7941C38.9741 33.0486 39.1625 34.1906 39.1609 35.1857C39.16 36.6229 38.7685 37.6898 38.0573 38.4003C38.0475 38.4101 38.0369 38.419 38.0271 38.428C38.0173 38.4378 38.0083 38.4476 37.9993 38.4574C37.2856 39.1654 36.2179 39.5528 34.7807 39.5487C33.7962 39.5455 32.6697 39.3571 31.4323 38.9843C31.3442 39.2094 31.2545 39.4321 31.1623 39.6499C31.0375 39.9443 30.9103 40.2298 30.779 40.508C32.2227 40.9574 33.5922 41.2005 34.8361 41.2005C34.8386 41.2005 34.841 41.2005 34.8443 41.2005C36.5637 41.1988 38.1062 40.7298 39.2245 39.6303C40.3281 38.5153 40.8036 36.9753 40.8118 35.255C40.8175 33.9964 40.5744 32.6082 40.1209 31.1432C40.0475 30.8993 39.9667 30.6546 39.8795 30.4075Z" fill="#50E6FF"/>
    <path d="M7.05057 28.0167C7.34992 28.1619 7.66151 28.303 7.98452 28.4401C8.17538 28.5208 8.37115 28.5999 8.56854 28.6774C9.05468 27.6595 9.63544 26.6056 10.3051 25.533C9.94214 25.0477 9.59303 24.5607 9.2586 24.0738C8.39398 25.4139 7.65498 26.7369 7.05057 28.0167Z" fill="#50E6FF"/>
    <path d="M13.8036 33.5714C14.1405 35.131 14.5533 36.5886 15.0312 37.9214C15.3445 37.8121 15.6642 37.693 15.988 37.5617C16.1813 37.4834 16.3763 37.4002 16.5712 37.3154C16.1952 36.2509 15.8608 35.0959 15.5753 33.8635C14.9758 33.7762 14.3852 33.6791 13.8036 33.5714Z" fill="#3BCAF4"/>
    <path d="M30.0035 9.11185C29.8102 9.19015 29.6161 9.27254 29.4211 9.35818C29.7972 10.4226 30.1316 11.5776 30.4171 12.8101C31.0166 12.8966 31.608 12.9945 32.1887 13.1021C31.8519 11.5426 31.4391 10.0849 30.9611 8.75214C30.6471 8.86062 30.3282 8.98053 30.0035 9.11185Z" fill="#3BCAF4"/>
    <path d="M22.259 9.59957C20.918 8.73577 19.595 7.99596 18.3152 7.39154C18.17 7.69008 18.0297 8.00085 17.8927 8.32223C17.8111 8.51391 17.732 8.71049 17.6545 8.9087C18.6733 9.39484 19.7263 9.9756 20.7989 10.6453C21.2851 10.2831 21.772 9.934 22.259 9.59957Z" fill="#50E6FF"/>
    <path d="M38.9415 18.6544C38.6438 18.51 38.3338 18.3697 38.0133 18.2335C37.82 18.152 37.6234 18.072 37.4236 17.9945C36.9374 19.0133 36.3567 20.0672 35.687 21.1406C36.05 21.6259 36.3991 22.1129 36.7335 22.5998C37.5981 21.2581 38.3371 19.935 38.9415 18.6544Z" fill="#50E6FF"/>
    <path d="M12.7606 14.1454C11.201 14.4822 9.7434 14.8958 8.41058 15.3729C8.51907 15.6862 8.63897 16.0051 8.7703 16.3289C8.8486 16.523 8.9318 16.718 9.01745 16.9129C10.0811 16.5361 11.2369 16.2025 12.4694 15.917C12.5558 15.3167 12.6529 14.7261 12.7606 14.1454Z" fill="#3BCAF4"/>
    <path d="M23.7321 37.0732C25.0731 37.9378 26.3961 38.6768 27.6767 39.2812C27.8211 38.9827 27.9622 38.6719 28.0992 38.3505C28.1808 38.158 28.2599 37.9622 28.3374 37.764C27.3186 37.2779 26.2656 36.6971 25.1922 36.0275C24.706 36.3896 24.2199 36.7387 23.7321 37.0732Z" fill="#50E6FF"/>
    <path d="M33.231 32.5299C34.7906 32.193 36.2482 31.7803 37.581 31.3023C37.4717 30.9883 37.3518 30.6685 37.2205 30.3439C37.1422 30.1514 37.0598 29.9572 36.975 29.7623C35.9105 30.1383 34.7555 30.4728 33.5231 30.7582C33.4358 31.3578 33.3387 31.9491 33.231 32.5299Z" fill="#3BCAF4"/>
    <path d="M30.6342 38.6711C30.7329 38.4215 30.8283 38.167 30.9221 37.9076C31.4009 36.5805 31.8161 35.1294 32.1562 33.5788C32.2166 33.304 32.2745 33.025 32.33 32.7436C32.3398 32.742 32.3496 32.7395 32.3602 32.7379C32.3618 32.7281 32.3642 32.7183 32.3659 32.7077C32.4776 32.1327 32.5788 31.5446 32.6693 30.9458C32.6611 30.9475 32.653 30.9491 32.6448 30.9507C32.6465 30.9401 32.6481 30.9295 32.6497 30.9189C32.6938 30.6359 32.7354 30.3504 32.7745 30.0625C32.8259 29.6848 32.8724 29.3031 32.9148 28.9181C32.9654 28.4654 33.0094 28.0078 33.0478 27.5453C33.0527 27.5396 33.0576 27.5339 33.0616 27.529C33.0625 27.5216 33.0633 27.5143 33.0633 27.507C33.1367 26.5787 33.1864 25.6317 33.2101 24.67C33.2085 24.6717 33.2077 24.6733 33.206 24.6749C33.206 24.6635 33.2068 24.6521 33.2068 24.6407C33.2183 24.2353 33.2248 23.8274 33.2264 23.4172C33.2264 23.4139 33.2264 23.4106 33.2264 23.4074C33.2093 23.3837 33.1922 23.3601 33.175 23.3364C32.6473 22.6211 32.0853 21.9073 31.4931 21.1993C31.5192 21.8918 31.5323 22.595 31.5298 23.3062C31.5298 23.3168 31.5298 23.3266 31.5298 23.3372C31.5298 23.3429 31.5298 23.3486 31.5298 23.3544C31.5298 23.3592 31.5298 23.365 31.5298 23.3699C31.5298 23.3788 31.5298 23.3878 31.5298 23.3976C31.529 24.1015 31.5143 24.7973 31.4858 25.4833C31.467 25.9343 31.4425 26.3805 31.4124 26.8226C31.4115 26.8291 31.4115 26.8348 31.4107 26.8414C31.3455 27.7982 31.2533 28.7329 31.1375 29.6416C31.1375 29.644 31.1367 29.6457 31.1367 29.6481C31.104 29.901 31.0706 30.1522 31.0339 30.401C31.0037 30.6065 30.9727 30.8104 30.9401 31.0135C30.9278 31.091 30.9156 31.1685 30.9026 31.246C30.9009 31.255 30.8993 31.2631 30.8985 31.2721C30.7998 31.8676 30.6905 32.4491 30.5706 33.016C30.5689 33.0242 30.5673 33.0323 30.5657 33.0405C30.5061 33.3203 30.445 33.5976 30.3805 33.87C30.0934 35.0936 29.7573 36.2412 29.3805 37.2991C29.2875 37.5593 29.1921 37.8146 29.095 38.0642C29.0893 38.0781 29.0844 38.0912 29.0787 38.105C29.0037 38.2959 28.927 38.4851 28.8495 38.6695C28.71 38.999 28.5665 39.3155 28.4188 39.6197C28.4123 39.6328 28.4058 39.6458 28.3992 39.6589C28.2842 39.8963 28.1676 40.1263 28.0485 40.3481C27.4278 41.5023 26.7532 42.4436 26.0485 43.1467C25.0313 44.1622 24.0003 44.6394 22.9954 44.6394C22.9815 44.6394 22.9677 44.6386 22.9546 44.6386C22.9407 44.6386 22.9277 44.6394 22.9138 44.6394C21.9089 44.6353 20.8795 44.1541 19.8665 43.1353C19.1723 42.4371 18.5084 41.5064 17.8974 40.3677C17.6764 40.4648 17.4553 40.5586 17.2359 40.6475C16.9398 40.7674 16.6478 40.8791 16.3582 40.9827C17.063 42.3245 17.8615 43.4673 18.7433 44.3482C19.9603 45.5627 21.3828 46.3213 22.9513 46.336C24.5199 46.3279 25.9457 45.575 27.1668 44.3645C28.0616 43.4779 28.8715 42.3237 29.5869 40.9664C29.7051 40.7413 29.8218 40.5105 29.9352 40.2747C29.9498 40.2796 29.9645 40.2853 29.9792 40.2902C29.9857 40.2755 29.9931 40.2617 29.9996 40.2478C30.1407 39.9501 30.2786 39.6458 30.4115 39.3318C30.4947 39.1352 30.5763 38.9338 30.6562 38.7307C30.6424 38.7258 30.6285 38.7209 30.6146 38.716C30.6228 38.6997 30.6285 38.6858 30.6342 38.6711Z" fill="#3BCAF4"/>
    <path d="M15.3592 8.00253C15.2605 8.25213 15.165 8.50662 15.0712 8.76601C14.5924 10.0931 14.1772 11.545 13.8371 13.0964C13.7767 13.3721 13.7188 13.6503 13.6634 13.9317C13.6536 13.9333 13.6438 13.9358 13.6332 13.9374C13.6316 13.9472 13.6291 13.957 13.6275 13.9676C13.5157 14.5426 13.4146 15.1307 13.324 15.7294C13.3322 15.7278 13.3404 15.7262 13.3485 15.7245C13.3469 15.7351 13.3453 15.7457 13.3436 15.7563C13.2996 16.0394 13.258 16.3249 13.2188 16.6128C13.1674 16.9896 13.1209 17.3697 13.0785 17.7547C13.028 18.2074 12.9839 18.665 12.9456 19.1275C12.9407 19.1332 12.9358 19.1389 12.9317 19.1438C12.9309 19.1512 12.9301 19.1585 12.9301 19.1659C12.8567 20.0941 12.8069 21.0411 12.7833 22.0028C12.7849 22.0012 12.7857 21.9995 12.7873 21.9979C12.7873 22.0093 12.7865 22.0207 12.7865 22.0322C12.7751 22.4375 12.7686 22.8462 12.7669 23.2565C12.7669 23.2597 12.7669 23.263 12.7669 23.2671C12.7841 23.2907 12.8004 23.3136 12.8175 23.3372C13.3453 24.0526 13.9081 24.7663 14.5002 25.4759C14.4741 24.7826 14.4611 24.0803 14.4635 23.3682C14.4635 23.3576 14.4635 23.3478 14.4635 23.3372C14.4635 23.3315 14.4635 23.3258 14.4635 23.3201C14.4635 23.3152 14.4635 23.3095 14.4635 23.3046C14.4635 23.2956 14.4635 23.2867 14.4635 23.2769C14.4644 22.5721 14.479 21.8755 14.5076 21.1896C14.5263 20.7385 14.5508 20.2923 14.581 19.8502C14.5818 19.8437 14.5818 19.838 14.5826 19.8315C14.6479 18.8747 14.7401 17.9399 14.8559 17.0312C14.8559 17.0288 14.8567 17.0264 14.8567 17.0247C14.8893 16.7727 14.9228 16.5223 14.9587 16.2751C14.9888 16.0687 15.0198 15.8632 15.0525 15.6601C15.0647 15.5834 15.0769 15.5067 15.0892 15.4301C15.0908 15.4211 15.0924 15.4129 15.0932 15.404C15.1919 14.8085 15.3012 14.227 15.4211 13.6601C15.4228 13.6519 15.4244 13.6437 15.426 13.6356C15.4856 13.3558 15.5468 13.0785 15.6112 12.806C15.8991 11.5817 16.2344 10.4341 16.6112 9.37532C16.7042 9.11512 16.7996 8.85981 16.8967 8.61021C16.9024 8.59635 16.9073 8.58329 16.913 8.56943C16.9881 8.37856 17.0647 8.18932 17.1422 8.00498C17.2817 7.67545 17.4261 7.35897 17.5729 7.05472C17.5794 7.04167 17.5859 7.02862 17.5925 7.01557C17.7075 6.77821 17.8241 6.54818 17.9432 6.32632C18.5639 5.17214 19.2385 4.23085 19.9432 3.52774C20.9604 2.51222 21.9914 2.03505 22.9963 2.03505C23.0102 2.03505 23.0232 2.03587 23.0371 2.03587C23.051 2.03587 23.0648 2.03505 23.0779 2.03505C24.0828 2.03913 25.1122 2.52038 26.1253 3.53916C26.8194 4.23738 27.4834 5.16806 28.0935 6.30675C28.3145 6.2105 28.5348 6.11669 28.7542 6.02778C29.0503 5.90788 29.3431 5.79613 29.6327 5.69173C28.9279 4.34994 28.1302 3.20718 27.2476 2.32706C26.0314 1.11171 24.6089 0.35313 23.0404 0.339264C21.4718 0.347421 20.0468 1.10029 18.825 2.31075C17.9302 3.19739 17.1202 4.35157 16.4048 5.70885C16.2866 5.93398 16.1699 6.16482 16.0566 6.40055C16.0419 6.39565 16.0272 6.38994 16.0125 6.38505C16.006 6.39973 15.9986 6.4136 15.9921 6.42746C15.851 6.72519 15.7132 7.02943 15.5802 7.34347C15.497 7.54005 15.4154 7.7407 15.3355 7.94462C15.3494 7.94952 15.3632 7.95441 15.3771 7.9593C15.3714 7.97317 15.3649 7.98785 15.3592 8.00253Z" fill="#3BCAF4"/>
    <path d="M17.5287 39.6377C17.5222 39.6246 17.5165 39.6108 17.51 39.5977C17.5247 39.5912 17.5393 39.5855 17.5532 39.5789C17.7995 39.4721 18.0475 39.3595 18.2971 39.2429C19.5736 38.6434 20.8934 37.9101 22.2311 37.0544C22.4685 36.9027 22.7066 36.7461 22.9448 36.587C22.953 36.5928 22.9619 36.5985 22.9701 36.6042C22.9783 36.5985 22.9872 36.5928 22.9954 36.587C23.4807 36.2591 23.9677 35.9149 24.4554 35.556C24.4489 35.5511 24.4416 35.5471 24.4351 35.5422C24.444 35.5356 24.4522 35.5291 24.4612 35.5226C24.692 35.3529 24.9236 35.1816 25.1553 35.0054C25.4579 34.7754 25.7597 34.5389 26.0615 34.2974C26.4171 34.0128 26.772 33.7208 27.126 33.4206C27.1333 33.4198 27.1406 33.4198 27.148 33.419C27.1537 33.4141 27.1594 33.4092 27.1651 33.4051C27.8731 32.8015 28.5779 32.1661 29.2745 31.5029C29.272 31.5029 29.2704 31.5038 29.2679 31.5038C29.2761 31.4956 29.2842 31.4883 29.2924 31.4801C29.5885 31.1995 29.8838 30.914 30.1774 30.6228C30.1782 30.622 30.1799 30.6204 30.1807 30.6196C30.1847 30.591 30.1896 30.5633 30.1937 30.5347C30.3259 29.6554 30.4335 28.7525 30.5159 27.8324C30.0453 28.3406 29.5575 28.8463 29.0534 29.3479C29.0453 29.3561 29.0379 29.3634 29.0298 29.3716C29.0257 29.3757 29.0208 29.3797 29.0167 29.3846C29.0134 29.3879 29.0102 29.3912 29.0061 29.3952C29.0004 29.4009 28.9939 29.4067 28.9882 29.4124C28.489 29.9107 27.9849 30.3928 27.4792 30.8586C27.1472 31.1644 26.8136 31.4622 26.48 31.7542C26.4751 31.7582 26.471 31.7623 26.4661 31.7664C25.7434 32.3961 25.0174 32.9924 24.2931 33.5527C24.2915 33.5544 24.2899 33.5552 24.2874 33.5568C24.0859 33.7126 23.8853 33.8651 23.6846 34.0152C23.5174 34.14 23.3502 34.2624 23.183 34.3839C23.1202 34.4296 23.0566 34.4753 22.9938 34.5201C22.9864 34.525 22.9791 34.5299 22.9717 34.5356C22.4807 34.8864 21.9921 35.22 21.5068 35.5365C21.4994 35.5413 21.4929 35.5454 21.4856 35.5503C21.2458 35.7061 21.0068 35.8586 20.7686 36.0063C19.7001 36.6686 18.6511 37.2428 17.6364 37.7241C17.3868 37.8424 17.1388 37.9557 16.8933 38.0626C16.8795 38.0683 16.8664 38.074 16.8525 38.0797C16.6641 38.1621 16.4765 38.2412 16.2913 38.3163C15.9594 38.4509 15.6347 38.5724 15.315 38.6841C15.3011 38.689 15.2873 38.6931 15.2734 38.698C15.0246 38.7845 14.7791 38.8644 14.5385 38.937C13.2856 39.313 12.1453 39.5015 11.151 39.5015C11.1493 39.5015 11.1469 39.5015 11.1444 39.5015C9.70722 39.5006 8.64113 39.1091 7.92986 38.3978C7.92007 38.3881 7.9111 38.3783 7.90213 38.3685C7.89234 38.3587 7.88174 38.3497 7.87276 38.3407C7.16476 37.627 6.77731 36.5593 6.78139 35.1221C6.78465 34.1376 6.97308 33.0095 7.34665 31.7721C7.12316 31.684 6.9013 31.5951 6.68433 31.5029C6.38905 31.3781 6.10275 31.2493 5.82379 31.1188C5.37354 32.5658 5.12965 33.9385 5.13046 35.1849C5.1321 36.9043 5.60111 38.4468 6.70064 39.5659C7.81567 40.6695 9.35566 41.145 11.0751 41.1532C12.3345 41.1589 13.7236 40.9158 15.1894 40.4615C15.4324 40.3865 15.678 40.3049 15.9251 40.2184C15.9316 40.2323 15.9382 40.247 15.9455 40.2608C15.9602 40.256 15.9749 40.2511 15.9904 40.2453C16.3003 40.1352 16.6135 40.017 16.9292 39.8889C17.129 39.8098 17.3281 39.7249 17.5287 39.6377Z" fill="#50E6FF"/>
    <path d="M28.4636 7.03515C28.4702 7.0482 28.4759 7.06125 28.4824 7.07512C28.4677 7.08164 28.453 7.08735 28.4392 7.09388C28.1928 7.20073 27.9449 7.31329 27.6953 7.42994C26.4179 8.02946 25.0982 8.76275 23.7605 9.61921C23.5231 9.77092 23.2849 9.92753 23.0467 10.0866C23.0386 10.0809 23.0296 10.0752 23.0215 10.0695C23.0133 10.0752 23.0043 10.0809 22.9962 10.0866C22.5108 10.4145 22.0239 10.7587 21.5361 11.1176C21.5426 11.1225 21.55 11.1266 21.5565 11.1315C21.5475 11.138 21.5394 11.1445 21.5304 11.151C21.2996 11.3207 21.0679 11.492 20.8363 11.6682C20.5336 11.899 20.231 12.1356 19.9284 12.3778C19.5728 12.6625 19.218 12.9545 18.864 13.2547C18.8566 13.2555 18.8493 13.2555 18.8419 13.2563C18.8362 13.2612 18.8305 13.2661 18.8248 13.2702C18.1168 13.8746 17.4121 14.5092 16.7146 15.1723C16.7171 15.1723 16.7187 15.1715 16.7212 15.1715C16.713 15.1797 16.7049 15.187 16.6967 15.1952C16.4031 15.4733 16.111 15.7564 15.8199 16.0443C15.8166 16.0475 15.8141 16.05 15.8109 16.0524C15.8068 16.0818 15.8019 16.1104 15.797 16.1397C15.6649 17.0182 15.5572 17.9203 15.4748 18.8396C15.9463 18.3306 16.4357 17.8241 16.9406 17.3216C16.9471 17.3151 16.9536 17.3086 16.9602 17.3021C16.9634 17.2988 16.9675 17.2947 16.9708 17.2915C16.9748 17.2874 16.9789 17.2833 16.983 17.2792C16.9903 17.2719 16.9977 17.2654 17.005 17.258C17.5026 16.7613 18.005 16.2808 18.5091 15.8167C18.8411 15.5108 19.1747 15.2123 19.5083 14.9211C19.5132 14.917 19.5173 14.9129 19.5222 14.9089C20.2449 14.2783 20.9708 13.6821 21.696 13.1225C21.6976 13.1209 21.6992 13.1201 21.7017 13.1185C21.9032 12.9627 22.1046 12.8093 22.3053 12.6592C22.4725 12.5344 22.6389 12.4121 22.8053 12.2914C22.8689 12.2457 22.9317 12.1992 22.9954 12.1543C23.0027 12.1494 23.01 12.1445 23.0174 12.1388C23.5084 11.7881 23.997 11.4545 24.4823 11.138C24.4897 11.1331 24.4962 11.129 24.5035 11.1241C24.7433 10.9683 24.9823 10.8158 25.2205 10.6682C26.289 10.0058 27.3388 9.4316 28.3527 8.94954C28.6023 8.83127 28.8503 8.71789 29.0958 8.61103C29.1097 8.60532 29.1227 8.59961 29.1366 8.5939C29.325 8.51234 29.5118 8.4324 29.6969 8.35736C30.0289 8.22277 30.3544 8.10124 30.6741 7.98949C30.688 7.98459 30.7019 7.98052 30.7157 7.97562C30.9645 7.88916 31.21 7.80922 31.4506 7.73663C32.7027 7.3606 33.843 7.17218 34.8373 7.17218C34.839 7.17218 34.8414 7.17218 34.8438 7.17218C36.2811 7.173 37.3472 7.56452 38.0584 8.27579C38.0682 8.28558 38.0772 8.29537 38.0862 8.30516C38.0959 8.31494 38.1066 8.32392 38.1155 8.3337C38.8235 9.04742 39.211 10.1151 39.2069 11.5524C39.2036 12.5361 39.0152 13.6633 38.6425 14.9007C38.8684 14.9888 39.0919 15.0793 39.3105 15.1723C39.6033 15.2963 39.888 15.4236 40.1653 15.5541C40.6156 14.1079 40.8586 12.7359 40.8578 11.4896C40.8562 9.77011 40.3864 8.22767 39.2876 7.10856C38.1726 6.00495 36.6326 5.52941 34.9132 5.52207C33.6538 5.51636 32.2655 5.75943 30.7997 6.21376C30.5567 6.28881 30.3111 6.37037 30.064 6.45683C30.0575 6.44297 30.0509 6.42829 30.0436 6.41442C30.0289 6.41931 30.0142 6.42421 29.9987 6.42992C29.688 6.54003 29.3747 6.65831 29.0591 6.78637C28.8633 6.86304 28.6643 6.94787 28.4636 7.03515Z" fill="#50E6FF"/>
    <path d="M44.0257 19.1651C43.139 18.2703 41.9832 17.4595 40.6251 16.7433C40.4 16.625 40.1692 16.5084 39.9334 16.395C39.9383 16.3803 39.944 16.3657 39.9489 16.351C39.9343 16.3444 39.9204 16.3371 39.9065 16.3306C39.6096 16.1895 39.3062 16.0524 38.993 15.9195C38.7956 15.8355 38.5933 15.7547 38.3894 15.674C38.3845 15.6878 38.3796 15.7017 38.3747 15.7156C38.36 15.7099 38.3453 15.7041 38.3306 15.6976C38.081 15.5989 37.8265 15.5035 37.5672 15.4097C36.2401 14.9309 34.789 14.5165 33.2376 14.1756C32.9619 14.1152 32.6837 14.0573 32.4023 14.0018C32.4007 13.992 32.3982 13.9822 32.3966 13.9716C32.3868 13.97 32.377 13.9676 32.3664 13.9659C31.7914 13.8542 31.2033 13.753 30.6046 13.6625C30.6062 13.6707 30.6078 13.6788 30.6095 13.6862C30.5988 13.6845 30.5882 13.6829 30.5776 13.6813C30.2946 13.6372 30.0091 13.5956 29.7212 13.5565C29.3443 13.5051 28.9626 13.4586 28.5776 13.4162C28.1249 13.3656 27.6673 13.3216 27.2048 13.2832C27.1991 13.2783 27.1942 13.2734 27.1885 13.2693C27.1812 13.2685 27.1738 13.2677 27.1665 13.2677C26.2391 13.1943 25.2921 13.1446 24.3296 13.1209C24.3312 13.1225 24.3328 13.1233 24.3345 13.125C24.323 13.125 24.3116 13.1242 24.3002 13.1242C23.8964 13.1127 23.4902 13.1062 23.0816 13.1046C23.0767 13.1046 23.071 13.1046 23.0661 13.1046C23.0424 13.1217 23.0196 13.138 22.9959 13.156C22.2806 13.6837 21.5669 14.2465 20.8572 14.8387C21.5506 14.8126 22.2545 14.7996 22.9666 14.8012C22.9772 14.8012 22.9878 14.8012 22.9984 14.8012C23.0041 14.8012 23.0098 14.8012 23.0163 14.8012C23.0212 14.8012 23.0261 14.8012 23.031 14.8012C23.04 14.8012 23.0481 14.8012 23.0571 14.8012C23.761 14.802 24.4568 14.8167 25.1428 14.8452C25.5939 14.864 26.04 14.8885 26.4821 14.9186C26.4887 14.9195 26.4944 14.9195 26.5009 14.9203C27.4577 14.9855 28.3924 15.0777 29.3003 15.1935C29.3027 15.1935 29.3052 15.1943 29.3068 15.1943C29.5597 15.227 29.8101 15.2604 30.0589 15.2963C30.2652 15.3265 30.4692 15.3575 30.6723 15.3901C30.7497 15.4023 30.8272 15.4146 30.9039 15.4276C30.9129 15.4293 30.921 15.4309 30.93 15.4317C31.5255 15.5304 32.107 15.6397 32.6739 15.7596C32.6821 15.7612 32.6902 15.7629 32.6984 15.7645C32.9782 15.824 33.2555 15.8852 33.5279 15.9497C34.7515 16.2368 35.8999 16.5728 36.9579 16.9489C37.2181 17.0418 37.4734 17.1373 37.723 17.2343C37.7368 17.2401 37.7499 17.245 37.7637 17.2507C37.9562 17.3265 38.1455 17.4032 38.3306 17.4815C38.6594 17.621 38.975 17.7645 39.2784 17.9105C39.2915 17.9171 39.3046 17.9236 39.3176 17.9301C39.555 18.0451 39.785 18.1618 40.0068 18.2809C41.1618 18.9024 42.1039 19.577 42.8079 20.2825C43.8234 21.2997 44.3006 22.3307 44.3006 23.3356C44.3006 23.3495 44.2997 23.3625 44.2997 23.3764C44.2997 23.3903 44.3006 23.4033 44.3006 23.4172C44.2965 24.4221 43.8152 25.4515 42.7965 26.4645C42.0974 27.1587 41.1667 27.8234 40.0264 28.4344C40.1227 28.6554 40.2165 28.8749 40.3054 29.0935C40.4253 29.3904 40.537 29.6832 40.6414 29.9727C41.984 29.268 43.1276 28.4695 44.0094 27.5869C45.2247 26.3699 45.9825 24.9474 45.9972 23.3788C45.9882 21.8127 45.2353 20.3869 44.0257 19.1651Z" fill="#3BCAF4"/>
    <path d="M22.9984 27.0819C25.067 27.0819 26.744 25.405 26.744 23.3363C26.744 21.2677 25.067 19.5908 22.9984 19.5908C20.9298 19.5908 19.2528 21.2677 19.2528 23.3363C19.2528 25.405 20.9298 27.0819 22.9984 27.0819Z" fill="#0078D4"/>
</svg>
