<svg data-slug-id="science01" viewBox="0 0 48 49" xmlns="http://www.w3.org/2000/svg">
<path d="M24.4668 46.8799C21.7057 46.8799 19.1533 44.4398 17.2832 40.0012C15.4853 35.7312 14.49 30.0645 14.49 24.0527C14.49 18.0409 15.4853 12.3743 17.2832 8.10423C19.1533 3.66562 21.7057 1.22559 24.4668 1.22559C27.2279 1.22559 29.7803 3.66562 31.6505 8.10423C33.4484 12.3743 34.4437 18.0409 34.4437 24.0527C34.4437 30.0645 33.4484 35.7312 31.6505 40.0012C29.7803 44.4398 27.2279 46.8799 24.4668 46.8799ZM24.4668 2.42955C22.2515 2.42955 20.0443 4.66892 18.3989 8.56976C16.6571 12.6953 15.702 18.1934 15.702 24.0527C15.702 29.912 16.6571 35.4101 18.3989 39.5357C20.0443 43.4365 22.2596 45.6759 24.4668 45.6759C26.6741 45.6759 28.8894 43.4365 30.5348 39.5357C32.2765 35.4101 33.2317 29.912 33.2317 24.0527C33.2317 18.1934 32.2765 12.6953 30.5348 8.56976C28.8894 4.66892 26.6821 2.42955 24.4668 2.42955Z" fill="#0078D4"/>
<path d="M37.2688 38.4197C36.4662 38.4197 35.5993 38.3635 34.6923 38.2511C30.0932 37.6732 24.6914 35.6987 19.4823 32.6969C14.2731 29.6789 9.8586 25.9948 7.06541 22.2946C4.15985 18.458 3.31707 15.0307 4.69762 12.6388C6.07816 10.247 9.46531 9.25972 14.241 9.8617C18.8402 10.4396 24.2419 12.4141 29.4511 15.416C34.6602 18.4259 39.0748 22.118 41.868 25.8102C44.7735 29.6468 45.6163 33.0741 44.2358 35.466C43.1201 37.4003 40.6881 38.4197 37.2688 38.4197ZM11.6967 10.8971C8.74293 10.8971 6.62396 11.7158 5.74105 13.2408C4.6334 15.1591 5.46815 18.1931 8.02055 21.5722C10.7255 25.144 15.0035 28.7238 20.0843 31.6534C25.157 34.5831 30.3982 36.5014 34.8448 37.0552C39.0507 37.585 42.0927 36.7823 43.2004 34.872C44.308 32.9537 43.4733 29.9197 40.9208 26.5406C38.2159 22.9688 33.9379 19.3891 28.8571 16.4594C23.7844 13.5298 18.5432 11.6115 14.0966 11.0576C13.2458 10.9453 12.4431 10.8971 11.6967 10.8971Z" fill="#0078D4"/>
<path d="M11.6645 38.4197C8.24529 38.4197 5.81329 37.4003 4.69762 35.466C3.31707 33.0741 4.15985 29.6468 7.06541 25.8102C9.86663 22.118 14.2731 18.4259 19.4823 15.416L19.7873 15.9377L19.4823 15.416C24.6914 12.4061 30.0932 10.4316 34.6923 9.8617C39.4681 9.25972 42.8552 10.247 44.2358 12.6388C45.6163 15.0307 44.7735 18.458 41.868 22.2946C39.0667 25.9868 34.6602 29.6789 29.4511 32.6888C24.2419 35.6987 18.8402 37.6732 14.241 38.2431C13.334 38.3635 12.4752 38.4197 11.6645 38.4197ZM37.2367 10.8971C36.4903 10.8971 35.6876 10.9533 34.8368 11.0576C30.3902 11.6115 25.157 13.5378 20.0762 16.4594C14.9955 19.381 10.7255 22.9688 8.02055 26.5406C5.46013 29.9197 4.6334 32.9537 5.74105 34.872C6.8487 36.7903 9.89071 37.585 14.0966 37.0552C18.5432 36.5014 23.7764 34.575 28.8571 31.6534C33.9298 28.7238 38.2159 25.144 40.9208 21.5722C43.4813 18.1931 44.308 15.1591 43.2004 13.2408C42.3094 11.7158 40.1985 10.8971 37.2367 10.8971Z" fill="#0078D4"/>
<path d="M24.3625 27.9697C26.5169 27.9697 28.2633 26.2233 28.2633 24.0689C28.2633 21.9145 26.5169 20.168 24.3625 20.168C22.2081 20.168 20.4617 21.9145 20.4617 24.0689C20.4617 26.2233 22.2081 27.9697 24.3625 27.9697Z" fill="#50E6FF"/>
<path d="M5.47622 20.6816C6.77949 20.6816 7.83599 19.6251 7.83599 18.3218C7.83599 17.0185 6.77949 15.962 5.47622 15.962C4.17296 15.962 3.11646 17.0185 3.11646 18.3218C3.11646 19.6251 4.17296 20.6816 5.47622 20.6816Z" fill="#50E6FF"/>
<path d="M37.5338 12.9523C38.8371 12.9523 39.8936 11.8958 39.8936 10.5925C39.8936 9.28923 38.8371 8.23273 37.5338 8.23273C36.2306 8.23273 35.1741 9.28923 35.1741 10.5925C35.1741 11.8958 36.2306 12.9523 37.5338 12.9523Z" fill="#50E6FF"/>
<path d="M29.724 44.4079C31.0273 44.4079 32.0838 43.3514 32.0838 42.0481C32.0838 40.7448 31.0273 39.6883 29.724 39.6883C28.4208 39.6883 27.3643 40.7448 27.3643 42.0481C27.3643 43.3514 28.4208 44.4079 29.724 44.4079Z" fill="#50E6FF"/>
</svg>
