<svg data-slug-id="science02" viewBox="0 0 49 48" xmlns="http://www.w3.org/2000/svg">
<path d="M13.699 9.69728C18.3316 10.2803 23.7764 12.2657 29.0232 15.2942C34.27 18.3227 38.7119 22.0461 41.5333 25.7658C44.4647 29.6339 45.308 33.0896 43.9165 35.5003C42.5251 37.9092 39.1097 38.9083 34.2956 38.3034C29.663 37.7204 24.2182 35.735 18.9715 32.7065C13.7247 29.6779 9.28271 25.9546 6.46133 22.2349C3.52996 18.3667 2.68666 14.9111 4.0781 12.5003C5.46954 10.0896 8.88306 9.09231 13.699 9.69728ZM40.5635 26.5064C37.8411 22.9077 33.5238 19.3054 28.4127 16.3538C23.3016 13.4023 18.02 11.4645 13.5432 10.9054C9.31021 10.3756 7.11213 11.6845 6.00118 13.6113C4.8884 15.538 4.8554 18.0954 7.42929 21.4961C10.1517 25.0948 14.469 28.6971 19.5801 31.6487C24.6912 34.6002 29.971 36.5361 34.4496 37.0953C38.6826 37.6251 40.8752 36.3235 41.9916 34.3894C43.1081 32.4571 43.1392 29.9071 40.5635 26.5064Z" fill="#3BCAF4"/>
<path d="M23.9963 47C21.2134 47 18.6432 44.5416 16.7586 40.0685C14.9474 35.7658 13.9446 30.0571 13.9446 23.9982C13.9446 17.9393 14.9474 12.2305 16.7586 7.92787C18.6432 3.45839 21.2134 1 23.9963 1C26.7792 1 29.3494 3.45839 31.234 7.93153C33.0453 12.2342 34.048 17.9429 34.048 24.0018C34.048 30.0607 33.0453 35.7695 31.234 40.0721C29.3494 44.5416 26.7792 47 23.9963 47ZM23.9963 3.22007C21.7634 3.22007 19.5397 4.46852 17.8824 8.39901C16.128 12.555 15.1655 18.0951 15.1655 24C15.1655 29.9049 16.128 35.4432 17.8824 39.601C19.5397 43.5315 21.7726 44.7799 23.9963 44.7799C26.22 44.7799 28.453 43.5315 30.1102 39.601C31.8646 35.445 32.8271 29.9049 32.8271 24C32.8271 18.0951 31.8646 12.5568 30.1102 8.39901C28.453 4.46852 26.2292 3.22007 23.9963 3.22007Z" fill="#50E6FF"/>
<path d="M43.9146 12.5002C45.306 14.9091 44.4627 18.3666 41.5313 22.2347C38.7118 25.9544 34.268 29.6778 29.0212 32.7063C23.7745 35.7348 18.3297 37.7221 13.6971 38.3032C8.8811 38.9082 5.46759 37.9091 4.07615 35.5002C2.68471 33.0913 3.528 29.6338 6.45938 25.7656C9.27892 22.0459 13.7227 18.3226 18.9695 15.294C24.2163 12.2655 29.661 10.2783 34.2937 9.69712C39.1096 9.09215 42.5231 10.0913 43.9146 12.5002ZM6.00106 34.3892C7.11751 36.3215 9.31008 37.6231 13.5431 37.0951C18.0199 36.536 23.2996 34.6 28.4126 31.6485C33.5255 28.697 37.841 25.0928 40.5634 21.4959C43.1391 18.0953 43.1043 15.5379 41.9915 13.6111C40.8787 11.6844 38.6825 10.3773 34.4495 10.9052C29.9727 11.4644 24.6929 13.4003 19.58 16.3518C14.467 19.3034 10.1515 22.9075 7.42917 26.5062C4.85345 29.9069 4.88461 32.457 6.00106 34.3892Z" fill="#0078D4"/>
<path d="M23.8917 27.9473C26.0623 27.9473 27.8222 26.1874 27.8222 24.0168C27.8222 21.8462 26.0623 20.0863 23.8917 20.0863C21.7211 20.0863 19.9612 21.8462 19.9612 24.0168C19.9612 26.1874 21.7211 27.9473 23.8917 27.9473Z" fill="#50E6FF"/>
<path d="M23.8917 30.0334C20.5735 30.0334 17.875 27.3349 17.875 24.0167C17.875 20.6985 20.5735 17.9999 23.8917 17.9999C27.2099 17.9999 29.9085 20.6985 29.9085 24.0167C29.9066 27.3349 27.2081 30.0334 23.8917 30.0334ZM23.8917 18.3666C20.777 18.3666 18.2417 20.902 18.2417 24.0167C18.2417 27.1314 20.7752 29.6668 23.8917 29.6668C27.0083 29.6668 29.5418 27.1332 29.5418 24.0167C29.54 20.902 27.0064 18.3666 23.8917 18.3666Z" fill="#50E6FF"/>
<path d="M23.8918 21.9506C22.7515 21.9506 21.8257 22.8782 21.8257 24.0166C21.8257 25.1569 22.7533 26.0827 23.8918 26.0827C25.0302 26.0827 25.9578 25.1551 25.9578 24.0166C25.9578 22.8764 25.0302 21.9506 23.8918 21.9506Z" fill="#0078D4"/>
<path d="M16.9988 39.4908C18.3114 39.4908 19.3766 38.4257 19.3766 37.1131C19.3766 35.8004 18.3114 34.7353 16.9988 34.7353C15.6862 34.7353 14.6211 35.8004 14.6211 37.1131C14.6211 38.4275 15.6862 39.4908 16.9988 39.4908Z" fill="#0078D4"/>
<path d="M28.8782 7.78692C30.1908 7.78692 31.256 6.7218 31.256 5.40919C31.256 4.09658 30.1908 3.03146 28.8782 3.03146C27.5656 3.03146 26.5005 4.09658 26.5005 5.40919C26.5005 6.7218 27.5638 7.78692 28.8782 7.78692Z" fill="#50E6FF"/>
<path d="M14.0784 20.2801L15.347 19.4093L15.6165 17.1489L14.2819 18.0619L14.0784 20.2801Z" fill="#50E6FF"/>
<path d="M32.3596 17.3875L32.5393 18.9861L33.9417 20.031L33.7951 18.4013L32.3596 17.3875Z" fill="#3BCAF4"/>
<path d="M8.59703 22.9294L9.72631 24.1595L8.93435 25.0724L7.7959 23.8478L8.59703 22.9294Z" fill="#3BCAF4"/>
<path d="M30.6841 9.87859L31.2891 11.7797L32.4458 11.4479L31.883 9.66043L30.6841 9.87859Z" fill="#50E6FF"/>
</svg>
