<svg data-slug-id="security13" viewBox="0 0 48 49" xmlns="http://www.w3.org/2000/svg">
<path d="M47.296 24.1271C47.3125 24.0195 47.3456 23.9119 47.3539 23.8208C47.4781 23.1669 47.536 22.5048 47.536 21.826C47.536 15.9576 42.785 11.1983 36.9165 11.1983C36.0971 11.1983 35.3108 11.2893 34.5493 11.4797C32.1324 7.64744 27.878 5.12293 23.0111 5.12293C15.4707 5.12293 9.36219 11.2397 9.36219 18.7801C9.36219 18.9622 9.36219 19.1525 9.37875 19.3346C8.70003 19.1029 7.95509 18.9787 7.17705 18.9787C3.46893 18.987 0.464355 21.9916 0.464355 25.708C0.464355 29.1926 3.12957 32.0565 6.51489 32.3958L36.9248 32.4538C40.9143 32.4538 44.3824 30.2521 46.2117 26.9992C46.2613 26.9081 46.3193 26.8171 46.3689 26.7178C46.6503 26.1384 47.0476 25.261 47.296 24.1271Z" fill="#50E6FF"/>
<path d="M42.5367 25.2474C42.5367 20.4716 38.6299 16.5565 33.854 16.5565C29.5665 16.5565 25.9908 19.7101 25.3038 23.8155H28.863C29.103 22.9713 29.5582 22.2098 30.1873 21.5724C31.1723 20.5875 32.4718 20.0495 33.8623 20.0495C35.2446 20.0495 36.5441 20.5957 37.5373 21.5724C38.5223 22.5574 39.0603 23.8569 39.0603 25.2474C39.0603 25.5206 39.0603 26.3069 39.0603 27.3415H25.1714V44.7565H42.5201V28.4589C42.5367 26.8863 42.5367 25.6116 42.5367 25.2474Z" fill="#0078D4"/>
<path d="M33.8118 38.1821C34.9788 38.1821 35.939 37.2302 35.939 36.0549C35.939 34.8878 34.9954 33.9277 33.8118 33.9277C32.6447 33.9277 31.6846 34.8712 31.6846 36.0549C31.6846 37.2302 32.6364 38.1821 33.8118 38.1821Z" fill="#50E6FF"/>
</svg>
