<svg data-slug-id="security12" viewBox="0 0 48 49" xmlns="http://www.w3.org/2000/svg">
<path d="M25.2172 18.5955V0.938965H0V28.7885H20.5932V18.5955H25.2172Z" fill="#0078D7"/>
<path d="M48 21.0641H22.707V48.9389H48V21.0641Z" fill="#0078D7"/>
<path d="M43.6873 13.5834C40.2678 7.77926 34.3383 3.6431 27.3896 2.66592V5.56376C33.1002 6.48197 37.9853 9.85997 40.9416 14.5774L38.0021 15.6388L43.2746 18.107L45.7424 12.8336L43.6873 13.5834Z" fill="#0078D7"/>
<path d="M7.36921 35.2749L9.76123 34.4072L4.49711 31.939L2.0293 37.2124L4.63187 36.2689C7.95037 42.0477 13.7535 46.2176 20.5927 47.3211V44.4149C14.9916 43.3703 10.2329 39.967 7.36921 35.2749Z" fill="#0078D7"/>
<path d="M42.5499 29.4156L32.1041 39.8631L28.9788 36.7289L26.8896 38.8184L32.1041 44.0337L44.6391 31.4967L42.5499 29.4156Z" fill="#50E6FF"/>
<path d="M18.4196 10.2053C18.4196 6.89901 15.7142 4.19326 12.4085 4.19326C9.43749 4.19326 6.95647 6.37788 6.48028 9.21823H8.9406C9.10623 8.63843 9.42024 8.10349 9.86192 7.65828C10.5452 6.97494 11.4492 6.59876 12.4051 6.59876C13.3609 6.59876 14.265 6.97494 14.9482 7.65828C15.6314 8.34162 16.0075 9.24584 16.0075 10.2018C16.0075 10.3951 16.0075 10.9369 16.0041 11.6513H6.39746V23.7133H18.4161V12.4417C18.4196 11.3511 18.4196 10.4676 18.4196 10.2053Z" fill="#50E6FF"/>
<path d="M12.4083 18.9945C13.2659 18.9945 13.9611 18.2992 13.9611 17.4415C13.9611 16.5838 13.2659 15.8884 12.4083 15.8884C11.5507 15.8884 10.8555 16.5838 10.8555 17.4415C10.8555 18.2992 11.5507 18.9945 12.4083 18.9945Z" fill="#0078D4"/>
</svg>
