<svg data-slug-id="security10" viewBox="0 0 48 49" xmlns="http://www.w3.org/2000/svg">
<path d="M5.05244 15.8649C3.71368 15.8689 2.43089 16.4025 1.48424 17.3492C0.537591 18.2959 0.00399831 19.5787 0 20.9175V31.0227H10.1049V20.9175C10.1009 19.5787 9.56728 18.2959 8.62063 17.3492C7.67398 16.4025 6.3912 15.8689 5.05244 15.8649ZM5.05244 27.2333C4.80262 27.2333 4.55841 27.1592 4.35069 27.0204C4.14297 26.8816 3.98108 26.6843 3.88548 26.4535C3.78987 26.2227 3.76486 25.9687 3.8136 25.7237C3.86234 25.4787 3.98263 25.2536 4.15928 25.077C4.33593 24.9003 4.561 24.78 4.80602 24.7313C5.05104 24.6825 5.305 24.7075 5.53581 24.8031C5.76661 24.8987 5.96388 25.0606 6.10267 25.2684C6.24147 25.4761 6.31555 25.7203 6.31555 25.9701C6.31555 26.3051 6.18247 26.6264 5.94559 26.8633C5.70871 27.1002 5.38743 27.2333 5.05244 27.2333ZM2.52622 20.9175C2.52622 20.2475 2.79237 19.6049 3.26613 19.1312C3.73989 18.6574 4.38244 18.3912 5.05244 18.3912C5.72243 18.3912 6.36498 18.6574 6.83874 19.1312C7.3125 19.6049 7.57865 20.2475 7.57865 20.9175H2.52622Z" fill="#0078D4"/>
<path d="M37.8937 13.3337H15.1577V37.3336H37.8937V13.3337Z" fill="#50E6FF"/>
<path d="M35.1004 23.6993L33.0979 25.7027L30.3149 22.9204L25.2624 27.9721V15.3415L17.1609 23.4433H12.6313V25.9696H18.2067L22.7362 21.44V34.0715L30.3149 26.4926L33.0979 29.2757L36.1471 26.2256H42.946V23.6993H35.1004Z" fill="#0078D4"/>
<path d="M35.3676 34.8091C36.0652 34.8091 36.6307 34.2436 36.6307 33.546C36.6307 32.8484 36.0652 32.2828 35.3676 32.2828C34.67 32.2828 34.1045 32.8484 34.1045 33.546C34.1045 34.2436 34.67 34.8091 35.3676 34.8091Z" fill="#0078D4"/>
<path d="M30.3149 34.8091C31.0125 34.8091 31.578 34.2436 31.578 33.546C31.578 32.8484 31.0125 32.2828 30.3149 32.2828C29.6173 32.2828 29.0518 32.8484 29.0518 33.546C29.0518 34.2436 29.6173 34.8091 30.3149 34.8091Z" fill="#0078D4"/>
<path d="M5.05273 0.704834V13.3364H10.1052V5.75744H42.946V43.652H10.1052V33.5468H5.05273V48.7046H47.9984V0.704834H5.05273Z" fill="#0078D4"/>
</svg>
