<svg data-slug-id="security11" viewBox="0 0 48 49" xmlns="http://www.w3.org/2000/svg">
<path d="M3.10881 19.7119C4.82576 19.7119 6.21762 18.3191 6.21762 16.6009C6.21762 14.8828 4.82576 13.49 3.10881 13.49C1.39186 13.49 0 14.8828 0 16.6009C0 18.3191 1.39186 19.7119 3.10881 19.7119Z" fill="#50E6FF"/>
<path d="M39.0885 29.1849C39.2211 28.571 39.2957 27.9405 39.2957 27.2852C39.2957 22.4652 35.391 18.5662 30.5827 18.5662C29.9112 18.5662 29.2563 18.6408 28.6346 18.7901C26.6449 15.6543 23.1465 13.572 19.1589 13.572C12.9661 13.572 7.9506 18.5993 7.9506 24.7881C7.9506 24.9457 7.9506 25.095 7.95889 25.2444C7.39516 25.0536 6.78997 24.9457 6.15992 24.9457C3.10914 24.9457 0.638672 27.4179 0.638672 30.4708C0.638672 33.3329 2.81898 35.6889 5.61277 35.9627L30.5827 36.0125C33.9568 36.0125 36.875 34.0961 38.3258 31.3004C38.2843 31.1345 38.2594 30.9686 38.2594 30.786C38.2511 30.1224 38.5828 29.5334 39.0885 29.1849Z" fill="#50E6FF"/>
<path d="M40.2073 15.1736C35.9213 15.1736 32.4062 18.6827 32.4062 22.98V38.5846H48V22.98C48 18.6827 44.4933 15.1736 40.2073 15.1736ZM40.2073 32.736C39.1296 32.736 38.2591 31.8649 38.2591 30.7865C38.2591 29.708 39.1296 28.8369 40.2073 28.8369C41.285 28.8369 42.1555 29.708 42.1555 30.7865C42.1555 31.8567 41.2767 32.736 40.2073 32.736ZM34.8933 22.98C34.8933 21.5697 35.4487 20.2341 36.4519 19.2303C37.4633 18.2182 38.7897 17.6706 40.199 17.6706C41.6083 17.6706 42.943 18.2265 43.9462 19.2303C44.9576 20.2424 45.5047 21.5697 45.5047 22.98H34.8933Z" fill="#0078D4"/>
</svg>
