<svg data-slug-id="security05" viewBox="0 0 48 49" xmlns="http://www.w3.org/2000/svg">
<path d="M39.0002 20.2116V15.9807C39.0002 8.08056 33.0002 1.30365 25.1252 0.742031C24.7502 0.70459 24.3752 0.70459 24.0002 0.70459C15.7127 0.70459 9.00024 7.40662 9.00024 15.6812V20.2491H4.50024V48.7046H43.5002V20.2491H39.0002V20.2116ZM13.5377 15.6812C13.5377 9.9152 18.2252 5.19757 24.0377 5.19757C24.3002 5.19757 24.5627 5.19757 24.8252 5.23501C30.2252 5.60943 34.5002 10.3271 34.5002 15.9807V20.2116H13.5377V15.6812Z" fill="#0078D4"/>
<path d="M28.5002 32.1172V32.2295C28.5002 34.6632 26.5127 36.6476 24.0377 36.6476H23.9252C21.4877 36.6476 19.5002 34.6632 19.5002 32.192V32.0797C19.5002 29.646 21.4877 27.6616 23.9627 27.6616H24.0752C26.5127 27.6616 28.5002 29.646 28.5002 32.1172Z" fill="#50E6FF"/>
<path d="M24 42.6765C22.725 42.6765 21.75 41.6656 21.75 40.43V34.4394C21.75 33.2038 22.7625 32.1929 24 32.1929C25.2375 32.1929 26.25 33.2038 26.25 34.4394V40.4674C26.25 41.703 25.2375 42.6765 24 42.6765Z" fill="#50E6FF"/>
</svg>
