<svg data-slug-id="security09" viewBox="0 0 48 49" xmlns="http://www.w3.org/2000/svg">
<path d="M37.8909 17.2352V18.3888H44.2005C46.298 18.3888 47.9913 16.6962 47.9913 14.5994C47.9913 12.5027 46.298 10.8101 44.2005 10.8101H36.8716C37.5539 12.4521 37.933 14.2542 37.933 16.1405C37.933 16.511 37.9246 16.8731 37.8909 17.2352Z" fill="#0078D4"/>
<path d="M10.1256 16.1068C10.1341 14.2289 10.5047 12.4437 11.1871 10.8101H3.7908C1.69322 10.8101 0 12.5027 0 14.5994C0 16.6962 1.69322 18.3888 3.7908 18.3888H10.092V16.1068H10.1256Z" fill="#0078D4"/>
<path d="M24.0337 2.23719C28.8016 2.23719 33.0052 4.63713 35.5072 8.28337H44.2091C46.3067 8.28337 47.9999 6.59078 47.9999 4.49398C47.9999 2.39718 46.3067 0.70459 44.2091 0.70459H3.7908C1.69322 0.70459 0 2.39718 0 4.49398C0 6.59078 1.69322 8.28337 3.7908 8.28337H12.5518C15.0621 4.62871 19.2657 2.23719 24.0337 2.23719Z" fill="#0078D4"/>
<path d="M44.2002 28.4941C46.2978 28.4941 47.991 26.8015 47.991 24.7047C47.991 22.6079 46.2978 20.9153 44.2002 20.9153H37.8906V28.4941H44.2002Z" fill="#50E6FF"/>
<path d="M3.7908 20.9153C1.69322 20.9153 0 22.6079 0 24.7047C0 26.8015 1.69322 28.4941 3.7908 28.4941H10.092V20.9153H3.7908Z" fill="#50E6FF"/>
<path d="M44.2002 38.5993C46.2978 38.5993 47.991 36.9068 47.991 34.81C47.991 32.7132 46.2978 31.0206 44.2002 31.0206H37.8906V38.5993H44.2002Z" fill="#0078D4"/>
<path d="M3.7908 31.0206C1.69322 31.0206 0 32.7132 0 34.81C0 36.9068 1.69322 38.5993 3.7908 38.5993H10.092V31.0206H3.7908Z" fill="#0078D4"/>
<path d="M10.092 43.6773V41.1258H3.7908C1.69322 41.1258 0 42.8184 0 44.9152C0 47.012 1.69322 48.7046 3.7908 48.7046H44.2007C46.2983 48.7046 47.9915 47.012 47.9915 44.9152C47.9915 42.8184 46.2983 41.1258 44.2007 41.1258H37.8911V43.6773H10.092Z" fill="#0078D4"/>
<path d="M35.4062 15.6426C35.4062 9.40275 30.3012 4.28286 24.0422 4.28286C18.4402 4.28286 13.7396 8.40066 12.8467 13.7816H17.4967C17.8169 12.6785 18.4065 11.6764 19.2405 10.8427C20.5294 9.55432 22.2395 8.84697 24.0422 8.84697C25.8449 8.84697 27.555 9.56274 28.8439 10.8427C30.1327 12.1311 30.8404 13.8405 30.8404 15.6426C30.8404 16.0047 30.8404 17.0321 30.8404 18.3878H12.6782V41.1663H35.3893V19.8362C35.4062 17.7899 35.4062 16.131 35.4062 15.6426Z" fill="#0078D4"/>
<path d="M23.983 32.5706C25.5162 32.5706 26.763 31.3243 26.763 29.7917C26.763 28.2591 25.5162 27.0128 23.983 27.0128C22.4499 27.0128 21.2031 28.2591 21.2031 29.7917C21.2031 31.3243 22.4499 32.5706 23.983 32.5706Z" fill="#50E6FF"/>
</svg>
