<svg data-slug-id="security22" viewBox="0 0 48 48" xmlns="http://www.w3.org/2000/svg">
<path d="M22.9393 26.391C22.1612 26.391 21.403 26.9097 21.403 27.6679C21.403 27.6679 21.1436 32.8155 18.3104 36.1475C15.7366 39.2401 10.0902 39.2401 9.5714 39.2401C9.31202 39.2401 8.79327 39.2401 8.53389 39.4995C8.27451 39.7589 8.01514 40.0182 8.01514 40.537C8.01514 41.3151 8.53389 42.0733 9.29207 42.0733H9.55145C10.8284 42.0733 17.253 41.8139 20.3455 37.9632C23.6775 33.5937 23.9369 27.9472 23.9369 27.6878C24.2162 26.9097 23.6975 26.391 22.9393 26.391Z" fill="#0078D7"/>
<path d="M24.4754 20.4855C20.1059 19.9668 17.2727 21.2637 16.2551 24.5957C15.9957 25.3738 15.7364 26.132 15.477 26.9101C14.9582 28.4464 14.6989 30.2421 13.6813 31.7984C12.4044 34.1128 9.57118 33.5941 9.3118 33.3347C8.53367 33.0753 7.77549 33.5941 7.51611 34.3722C7.51611 34.6316 7.51611 35.1503 7.77549 35.4097C8.03487 35.6691 8.29424 35.9284 8.55362 36.1878C10.3493 36.7066 14.4594 36.7066 16.2551 33.0952C17.2926 31.2996 17.7914 29.2445 18.0508 27.7082C18.3102 26.9301 18.5696 26.1719 18.5696 25.3937C19.0883 24.1168 19.8465 23.0793 22.4203 23.0793C22.9391 23.0793 23.4578 23.0793 23.9566 23.0793C27.2886 23.5981 28.5855 24.875 28.0668 28.7257C27.548 33.0952 26.5305 35.1503 24.7348 37.9835L24.4754 38.2429C22.9391 41.0761 19.3277 43.3905 19.3277 43.3905C18.5496 43.9093 18.5496 44.6675 18.809 45.4456C19.3277 46.2237 20.0859 46.2237 20.8641 45.9643C21.1234 45.9643 24.9742 43.3905 27.0293 39.7991L27.2886 39.5398C29.0843 36.4472 30.6206 33.8933 30.88 29.0051C31.6781 23.8175 29.3636 20.9843 24.4754 20.4855Z" fill="#0078D7"/>
<path d="M23.4379 14.3205C23.4379 14.3205 23.1985 14.3205 23.4379 14.3205C18.809 14.3205 15.477 15.5974 12.9032 18.1712C8.53369 22.5407 8.53369 28.9653 8.53369 29.2247C8.53369 29.7434 8.79307 30.0028 9.05245 30.2622C9.31182 30.5216 9.5712 30.781 10.09 30.781C10.8681 30.781 11.6263 30.0028 11.3669 29.2446C11.3669 29.2446 11.3669 23.8576 14.6989 20.2463C16.754 18.1912 19.5871 17.1537 22.9191 17.1537H23.1785C27.0293 17.1537 29.8625 18.4306 31.6582 20.7451C34.9902 25.1146 34.4914 32.0579 34.232 34.1129C33.1945 39.0012 28.8449 43.6101 28.8449 43.8695C28.3262 44.3883 28.3262 45.4058 28.8449 45.9246C29.3637 46.4433 30.3812 46.4433 30.9 45.9246C31.1594 45.6652 35.7882 40.5375 37.0652 34.8711C37.8433 31.5391 38.1027 24.3364 33.9726 19.1888C31.6781 16.1162 28.0668 14.3205 23.4379 14.3205Z" fill="#0078D7"/>
<path d="M23.6974 8.13672C23.438 8.13672 23.438 8.13672 23.1787 8.13672C11.367 8.13672 6.73815 15.8382 6.73815 15.8382C6.21939 16.6164 6.47877 17.3745 7.2569 17.8933C8.03503 18.412 8.79321 18.1527 9.31197 17.3745C9.57134 17.1152 13.4221 10.95 23.1787 10.95C23.438 10.95 23.438 10.95 23.6974 10.95C34.2321 11.2093 38.6016 19.9484 38.861 20.2077C39.1204 20.9859 40.1379 21.2452 40.6567 20.9859C41.4348 20.7265 41.6942 19.7089 41.4348 19.1902C41.1754 18.6714 36.0278 8.3961 23.6974 8.13672Z" fill="#0078D7"/>
<path d="M9.05242 8.654C9.3118 8.654 9.83056 8.39462 10.0899 8.13524C10.0899 8.13524 13.1825 4.54387 21.4028 4.54387C21.6621 4.54387 22.1809 4.54387 22.4403 4.54387C31.4387 4.80325 35.8082 8.39462 36.0675 8.654C36.5863 9.17275 37.6039 9.17275 38.1226 8.39462C38.382 8.13524 38.382 7.61649 38.382 7.35711C38.382 7.09774 38.1226 6.57898 37.8632 6.3196C37.5839 6.08018 32.6956 1.97005 22.4203 1.71067C11.8856 1.47125 8.03487 6.33956 7.77549 6.59893C7.51611 6.85831 7.51611 7.37706 7.51611 7.63644C7.51611 7.89582 7.77549 8.41457 8.03487 8.67395C8.55362 8.654 8.79305 8.91337 9.05242 8.654Z" fill="#0078D7"/>
</svg>
