<svg data-slug-id="security15" viewBox="0 0 48 49" xmlns="http://www.w3.org/2000/svg">
<path d="M45.5573 23.4397H17.5909C17.3299 21.6224 16.4962 19.8724 15.0983 18.4673C13.372 16.7426 11.1152 15.8844 8.85831 15.8844C6.60147 15.8844 4.34463 16.7426 2.61831 18.4673C-0.825896 21.9084 -0.825896 27.4866 2.61831 30.9277C4.34463 32.6525 6.60147 33.5106 8.85831 33.5106C11.1152 33.5106 13.372 32.6525 15.0983 30.9277C16.4962 29.5311 17.3299 27.7726 17.5909 25.9553H35.4267V29.3964H43.0057V25.9553H45.5573V23.4397ZM13.3131 29.144C12.1257 30.3303 10.5425 30.9866 8.85831 30.9866C7.1741 30.9866 5.59937 30.3303 4.40358 29.144C1.95305 26.6957 1.95305 22.6993 4.40358 20.251C5.59095 19.0647 7.1741 18.4084 8.85831 18.4084C10.5425 18.4084 12.1173 19.0647 13.3131 20.251C14.5004 21.4373 15.1573 23.019 15.1573 24.7017C15.1573 26.376 14.5004 27.9577 13.3131 29.144Z" fill="#0078D4"/>
<path d="M46.9642 7.09742L40.6906 0.837791V5.04453H0.134766V9.49526H40.6906V13.3655L46.9642 7.09742Z" fill="#50E6FF"/>
<path d="M46.9642 42.4365L40.6906 36.1769V40.3836H0.134766V44.8344H40.6906V48.7046L46.9642 42.4365Z" fill="#50E6FF"/>
</svg>
