<svg data-slug-id="security20" viewBox="0 0 49 49" xmlns="http://www.w3.org/2000/svg">
<path d="M35.8548 17.6454C35.8548 11.2561 30.6215 6.02003 24.2355 6.02003C18.489 6.02003 13.6932 10.2459 12.7761 15.7345H17.5298C17.8495 14.6149 18.4553 13.5795 19.3135 12.7208C20.6344 11.3992 22.3845 10.6752 24.2271 10.6752C26.0781 10.6752 27.8197 11.3992 29.1407 12.7208C30.4616 14.0425 31.1852 15.7934 31.1852 17.637C31.1852 18.0074 31.1852 19.0597 31.1768 20.4402H12.6162V43.7668H35.8464V21.9723C35.8548 19.8594 35.8548 18.1505 35.8548 17.6454Z" fill="#0078D4"/>
<path d="M24.2356 34.6416C25.8931 34.6416 27.2393 33.2947 27.2393 31.6363C27.2393 29.9779 25.8931 28.631 24.2356 28.631C22.5781 28.631 21.2319 29.9779 21.2319 31.6363C21.2319 33.3031 22.5781 34.6416 24.2356 34.6416Z" fill="#50E6FF"/>
<path d="M45.6065 46.2417H40.5835V48.8345H48.1221V41.2245H45.6065V46.2417Z" fill="#0078D4"/>
<path d="M45.5728 3.40198V8.42759H48.1642V0.884972H40.5498V3.40198H45.5728Z" fill="#0078D4"/>
<path d="M2.73883 3.44409H7.7618V0.851318H0.223145V8.46128H2.73883V3.44409Z" fill="#0078D4"/>
<path d="M2.81456 46.2585V41.2329H0.223145V48.7755H7.8291V46.2585H2.81456Z" fill="#0078D4"/>
</svg>
