<svg data-slug-id="security26" viewBox="0 0 48 49" xmlns="http://www.w3.org/2000/svg">
<path d="M27.5688 24.0108H28.0155" stroke="#75757A" stroke-width="1.01266" stroke-miterlimit="10"/>
<path d="M27.5688 5.60526H28.0155" stroke="#75757A" stroke-width="1.01266" stroke-miterlimit="10"/>
<path d="M24.0041 48.0292C37.1186 48.0292 47.8226 37.3554 47.8226 24.278C47.8226 11.2005 37.1102 0.53511 24.0041 0.53511C10.8896 0.53511 0.185547 11.2089 0.185547 24.278C0.185547 37.347 10.8896 48.0292 24.0041 48.0292Z" fill="#0078D4"/>
<path d="M24.266 0.621056H23.8193V48.0311H24.266V0.621056Z" fill="white"/>
<path d="M24.0043 36.0196C10.7971 36.0196 0.00878906 30.7751 0.00878906 24.3709C0.00878906 17.9666 10.7971 12.7222 24.0043 12.7222C37.2115 12.7222 47.9998 17.9666 47.9998 24.3709C47.9914 30.7751 37.2031 36.0196 24.0043 36.0196ZM24.0043 13.0752C10.9825 13.0752 0.455492 18.1431 0.455492 24.2784C0.455492 30.4137 10.9825 35.4817 24.0043 35.4817C37.0261 35.4817 47.5531 30.4137 47.5531 24.2784C47.5447 18.1431 37.0261 13.0752 24.0043 13.0752Z" fill="white"/>
<path d="M24.004 48.3008C17.5816 48.3008 12.3223 37.543 12.3223 24.373C12.3223 11.2031 17.5816 0.445305 24.004 0.445305C30.4264 0.445305 35.6857 11.2115 35.6857 24.373C35.6857 37.5346 30.4264 48.3008 24.004 48.3008ZM24.004 0.798296C17.7586 0.798296 12.769 11.2956 12.769 24.2806C12.769 37.2656 17.8513 47.7629 24.004 47.7629C30.1567 47.7629 35.239 37.2656 35.239 24.2806C35.239 11.2956 30.2409 0.798296 24.004 0.798296Z" fill="white"/>
<path d="M47.8133 24.1008H0.277344V24.5462H47.8217V24.1008H47.8133Z" fill="white"/>
<path d="M24.0031 37.8856C25.1662 37.8856 26.1439 36.9106 26.1439 35.7508C26.1439 34.591 25.1662 33.616 24.0031 33.616C22.84 33.616 21.8623 34.591 21.8623 35.7508C21.8623 36.9106 22.84 37.8856 24.0031 37.8856Z" fill="white"/>
<path d="M12.4997 26.0627C13.4774 26.0627 14.2865 25.2642 14.2865 24.2809C14.2865 23.306 13.4858 22.4991 12.4997 22.4991C11.522 22.4991 10.7129 23.2976 10.7129 24.2809C10.7129 25.2642 11.5136 26.0627 12.4997 26.0627Z" fill="white"/>
<path d="M24.0712 26.6825C25.4281 26.6825 26.5154 25.5983 26.5154 24.2452C26.5154 22.892 25.4281 21.8078 24.0712 21.8078C22.7142 21.8078 21.627 22.892 21.627 24.2452C21.627 25.5983 22.7142 26.6825 24.0712 26.6825Z" fill="#50E6FF"/>
<path d="M24.0712 15.2531C25.4281 15.2531 26.5154 14.169 26.5154 12.8158C26.5154 11.4627 25.4281 10.3785 24.0712 10.3785C22.7142 10.3785 21.627 11.4627 21.627 12.8158C21.627 14.169 22.7142 15.2531 24.0712 15.2531Z" fill="#50E6FF"/>
<path d="M35.4071 26.6825C36.7641 26.6825 37.8513 25.5983 37.8513 24.2452C37.8513 22.892 36.7641 21.8078 35.4071 21.8078C34.0501 21.8078 32.9629 22.892 32.9629 24.2452C32.9629 25.5983 34.0501 26.6825 35.4071 26.6825Z" fill="#50E6FF"/>
<path d="M34.0839 35.6166C34.7751 35.6166 35.3398 35.0535 35.3398 34.3643C35.3398 33.6752 34.7751 33.1121 34.0839 33.1121C33.3928 33.1121 32.8281 33.6752 32.8281 34.3643C32.8281 35.0535 33.3928 35.6166 34.0839 35.6166Z" fill="white"/>
<path d="M13.8305 35.6166C14.5217 35.6166 15.0864 35.0535 15.0864 34.3643C15.0864 33.6752 14.5217 33.1121 13.8305 33.1121C13.1394 33.1121 12.5747 33.6752 12.5747 34.3643C12.5747 35.0535 13.1394 35.6166 13.8305 35.6166Z" fill="white"/>
<path d="M34.0839 15.3362C34.7751 15.3362 35.3398 14.7731 35.3398 14.0839C35.3398 13.3947 34.7751 12.8316 34.0839 12.8316C33.3928 12.8316 32.8281 13.3947 32.8281 14.0839C32.8281 14.7815 33.3928 15.3362 34.0839 15.3362Z" fill="white"/>
<path d="M13.8305 15.3362C14.5217 15.3362 15.0864 14.7731 15.0864 14.0839C15.0864 13.3947 14.5217 12.8316 13.8305 12.8316C13.1394 12.8316 12.5747 13.3947 12.5747 14.0839C12.5747 14.7815 13.1394 15.3362 13.8305 15.3362Z" fill="white"/>
</svg>
