<svg data-slug-id="security17" viewBox="0 0 48 48" xmlns="http://www.w3.org/2000/svg">
<path d="M31.7739 19.734L28.2046 16.168L0.0437399 44.3036L3.61301 47.8697L31.7739 19.734Z" fill="#0078D4"/>
<path d="M17.8095 40.8161L14.2402 37.25L7.08383 44.4L10.6531 47.9661L17.8095 40.8161Z" fill="#0078D4"/>
<path d="M35.4015 0C28.4409 0 22.8032 5.63259 22.8032 12.587C22.8032 19.5415 28.4409 25.1741 35.4015 25.1741C42.3622 25.1741 47.9999 19.5415 47.9999 12.587C47.9999 5.63259 42.3538 0 35.4015 0ZM35.4015 20.1729C31.2049 20.1729 27.8088 16.7799 27.8088 12.587C27.8088 8.39417 31.2049 5.00114 35.4015 5.00114C39.5982 5.00114 42.9942 8.39417 42.9942 12.587C42.9942 16.7799 39.5897 20.1729 35.4015 20.1729Z" fill="#0078D4"/>
</svg>
