<svg data-slug-id="security27" viewBox="0 0 48 48" xmlns="http://www.w3.org/2000/svg">
<path d="M5.05244 15.1603C3.71368 15.1643 2.43089 15.6979 1.48424 16.6446C0.537591 17.5913 0.00399831 18.8741 0 20.2129V30.3182H10.1049V20.2129C10.1009 18.8741 9.56728 17.5913 8.62063 16.6446C7.67398 15.6979 6.3912 15.1643 5.05244 15.1603ZM5.05244 26.5287C4.80262 26.5287 4.55841 26.4546 4.35069 26.3158C4.14297 26.177 3.98108 25.9797 3.88548 25.7489C3.78987 25.5181 3.76486 25.2641 3.8136 25.0191C3.86234 24.7741 3.98263 24.549 4.15928 24.3724C4.33593 24.1957 4.561 24.0754 4.80602 24.0267C5.05104 23.9779 5.305 24.0029 5.53581 24.0985C5.76661 24.1942 5.96388 24.3561 6.10267 24.5638C6.24147 24.7715 6.31555 25.0157 6.31555 25.2655C6.31555 25.6006 6.18247 25.9218 5.94559 26.1587C5.70871 26.3956 5.38743 26.5287 5.05244 26.5287ZM2.52622 20.2129C2.52622 19.5429 2.79237 18.9003 3.26613 18.4266C3.73989 17.9528 4.38244 17.6866 5.05244 17.6866C5.72243 17.6866 6.36498 17.9528 6.83874 18.4266C7.3125 18.9003 7.57865 19.5429 7.57865 20.2129H2.52622Z" fill="#50E6FF"/>
<path d="M37.8937 12.6291H15.1577V36.629H37.8937V12.6291Z" fill="#50E6FF"/>
<path d="M35.1004 22.9947L33.0979 24.9981L30.3149 22.2158L25.2624 27.2675V14.6369L17.1609 22.7387H12.6313V25.265H18.2067L22.7362 20.7354V33.3669L30.3149 25.788L33.0979 28.5711L36.1471 25.521H42.946V22.9947H35.1004Z" fill="#0078D4"/>
<path d="M35.3676 34.1045C36.0652 34.1045 36.6307 33.539 36.6307 32.8414C36.6307 32.1438 36.0652 31.5782 35.3676 31.5782C34.67 31.5782 34.1045 32.1438 34.1045 32.8414C34.1045 33.539 34.67 34.1045 35.3676 34.1045Z" fill="#0078D4"/>
<path d="M30.3149 34.1045C31.0125 34.1045 31.578 33.539 31.578 32.8414C31.578 32.1438 31.0125 31.5782 30.3149 31.5782C29.6173 31.5782 29.0518 32.1438 29.0518 32.8414C29.0518 33.539 29.6173 34.1045 30.3149 34.1045Z" fill="#0078D4"/>
<path d="M5.05273 0.000244141V12.6318H10.1052V5.05285H42.946V42.9474H10.1052V32.8422H5.05273V48H47.9984V0.000244141H5.05273Z" fill="#0078D4"/>
</svg>
