<svg data-slug-id="security14" viewBox="0 0 48 49" xmlns="http://www.w3.org/2000/svg">
<path d="M36.9954 11.1142C36.1714 11.1142 35.3808 11.2057 34.6151 11.3972C32.1765 7.55205 27.8986 5.0136 23.0048 5.0136C15.4227 5.0136 9.28049 11.1641 9.28049 18.7462C9.28049 18.9293 9.28049 19.1207 9.29714 19.3038C8.61467 19.0708 7.86562 18.9459 7.08328 18.9459C3.35467 18.9543 0.333496 21.9754 0.333496 25.7124C0.333496 29.2163 3.01343 32.0959 6.41745 32.4372L22.547 32.4705V25.6208C22.547 19.4703 27.5324 14.4766 33.6912 14.4766C39.8501 14.4766 44.8354 19.462 44.8354 25.6208V29.0748C45.4097 28.4506 45.9174 27.7598 46.3335 27.019C46.3835 26.9275 46.4417 26.8359 46.4917 26.7361C46.7747 26.1452 47.1741 25.2546 47.4238 24.1227C47.4405 24.0145 47.4738 23.9063 47.4821 23.8148C47.6069 23.1573 47.6652 22.4915 47.6652 21.809C47.6735 15.8998 42.8962 11.1142 36.9954 11.1142Z" fill="#50E6FF"/>
<path d="M42.5056 25.2486C42.5056 20.4463 38.5773 16.5096 33.775 16.5096C29.4638 16.5096 25.8684 19.6806 25.1776 23.8087H28.7564C28.9978 22.9598 29.4555 22.1941 30.088 21.5533C31.0785 20.5628 32.3851 20.0219 33.7834 20.0219C35.1733 20.0219 36.4799 20.5712 37.4787 21.5533C38.4691 22.5437 39.0101 23.8503 39.0101 25.2486C39.0101 25.5232 39.0101 26.3139 39.0101 27.3542H25.0444V44.8654H42.489V28.4778C42.5056 26.8965 42.5056 25.6148 42.5056 25.2486Z" fill="#0078D4"/>
<path d="M33.7337 38.2563C34.9072 38.2563 35.8726 37.2992 35.8726 36.1174C35.8726 34.9438 34.9238 33.9784 33.7337 33.9784C32.5602 33.9784 31.5947 34.9272 31.5947 36.1174C31.5947 37.2992 32.5518 38.2563 33.7337 38.2563Z" fill="#50E6FF"/>
</svg>
