<svg data-slug-id="security-center02" viewBox="0 0 49 48" xmlns="http://www.w3.org/2000/svg">
<path d="M41.9716 22.6097C41.9716 33.8849 28.0942 42.9597 25.075 44.8097C24.9017 44.9149 24.7029 44.9705 24.5002 44.9705C24.2975 44.9705 24.0987 44.9149 23.9255 44.8097C20.9063 42.9671 7.02881 33.8923 7.02881 22.6097V9.04304C7.03008 8.75859 7.14296 8.48601 7.34317 8.28395C7.54338 8.08189 7.81492 7.96651 8.09934 7.96264C18.896 7.68144 16.4096 3.0293 24.5002 3.0293C32.5909 3.0293 30.1045 7.68144 40.9011 7.96264C41.1843 7.96648 41.4547 8.08084 41.6547 8.28131C41.8547 8.48177 41.9685 8.75248 41.9716 9.03564V22.6097Z" fill="#76BC2D"/>
<path d="M40.5335 22.7249C40.5335 33.0627 27.8055 41.3877 25.0379 43.075C24.8788 43.1717 24.6962 43.2228 24.51 43.2228C24.3238 43.2228 24.1412 43.1717 23.9821 43.075C21.2047 41.3877 8.4668 33.0627 8.4668 22.7249V10.2831C8.4668 10.0214 8.57075 9.77041 8.75578 9.58537C8.94082 9.40033 9.19178 9.29638 9.45346 9.29638C19.3596 9.03492 17.0804 4.76758 24.5001 4.76758C31.9199 4.76758 29.6407 9.03492 39.5468 9.29885C39.8085 9.29885 40.0595 9.4028 40.2445 9.58784C40.4295 9.77287 40.5335 10.0238 40.5335 10.2855V22.7249Z" fill="url(#security-center02_paint0_linear)"/>
<path d="M31.5381 20.6904H30.5317V17.1951C30.5403 15.543 29.9234 13.9489 28.8051 12.7329C28.26 12.1358 27.5965 11.659 26.8569 11.3327C26.1173 11.0064 25.3178 10.8379 24.5094 10.8379C23.701 10.8379 22.9014 11.0064 22.1618 11.3327C21.4222 11.659 20.7587 12.1358 20.2136 12.7329C19.086 13.9421 18.4676 15.5393 18.487 17.1926V20.6904H17.4633C17.253 20.6916 17.0514 20.7747 16.9012 20.922C16.7511 21.0694 16.6643 21.2694 16.6592 21.4797V30.562C16.6649 30.7721 16.7519 30.9717 16.9019 31.1189C17.0519 31.2662 17.2532 31.3495 17.4633 31.3513H31.5381C31.7483 31.3495 31.9495 31.2662 32.0995 31.1189C32.2495 30.9717 32.3365 30.7721 32.3423 30.562V21.4797C32.3371 21.2694 32.2503 21.0694 32.1002 20.922C31.9501 20.7747 31.7485 20.6916 31.5381 20.6904ZM27.7173 20.6904H21.2941V17.1359C21.3029 16.2218 21.6654 15.3466 22.3054 14.6939C22.583 14.3838 22.9229 14.1358 23.3029 13.966C23.6829 13.7962 24.0944 13.7084 24.5106 13.7084C24.9268 13.7084 25.3383 13.7962 25.7183 13.966C26.0983 14.1358 26.4382 14.3838 26.7158 14.6939C26.8562 14.8466 26.9825 15.0117 27.0932 15.1872C27.492 15.7611 27.7133 16.4396 27.7296 17.1384L27.7173 20.6904Z" fill="white"/>
<path opacity="0.15" d="M17.4667 20.6855H31.5391C31.7296 20.6883 31.913 20.7582 32.0571 20.8829L16.9487 31.1492C16.8601 31.0774 16.7884 30.9868 16.739 30.884C16.6895 30.7812 16.6634 30.6688 16.6626 30.5547V21.4773C16.6671 21.2666 16.7536 21.066 16.9038 20.9181C17.054 20.7702 17.256 20.6868 17.4667 20.6855Z" fill="#B3B3B3"/>
<path opacity="0.09" d="M31.5396 20.6855H17.4648C17.2751 20.6889 17.0926 20.7587 16.9492 20.8829L32.0551 31.1492C32.1441 31.0775 32.2161 30.987 32.266 30.8842C32.3159 30.7815 32.3424 30.6689 32.3437 30.5547V21.4773C32.3386 21.2668 32.2518 21.0665 32.1018 20.9188C31.9517 20.771 31.7501 20.6874 31.5396 20.6855Z" fill="#A3A3A3"/>
<defs>
<linearGradient id="security-center02_paint0_linear" x1="24.5001" y1="43.2229" x2="24.5001" y2="4.76758" gradientUnits="userSpaceOnUse">
<stop stop-color="#5E9624"/>
<stop offset="0.321" stop-color="#639D26"/>
<stop offset="0.794" stop-color="#6FB12A"/>
<stop offset="0.999" stop-color="#76BC2D"/>
</linearGradient>
</defs>
</svg>
