<svg data-slug-id="security18" viewBox="0 0 48 48" xmlns="http://www.w3.org/2000/svg">
<path d="M3.11621 32.751L14.3162 37.9132H18.9309V28.2542H14.6531V33.8542L4.21937 29.4584L3.11621 32.751Z" fill="#0078D4"/>
<path d="M27.385 22.1571L12.4966 16.2034L8.66504 25.7866L23.5535 31.7487L27.385 22.1571Z" fill="#50E6FF"/>
<path d="M43.6464 17.5008L28.758 11.5472L24.0254 23.3787L38.9138 29.3324L43.6464 17.5008Z" fill="#50E6FF"/>
<path d="M4.87558 25.3909H0.151367V37.8541H4.87558V25.3909Z" fill="#0078D4"/>
<path d="M33.8697 29.2398L3.78125 17.1555L10.3665 0.683968L47.9244 15.7324L36.6149 22.0987L33.8697 29.2398Z" fill="#0078D4"/>
<path d="M35.301 19.4635L9.27148 9.02978L11.3599 3.7582L42.661 16.2803L35.301 19.4635Z" fill="#50E6FF"/>
</svg>
