<svg data-slug-id="security16" viewBox="0 0 48 48" xmlns="http://www.w3.org/2000/svg">
<path d="M21.8869 21.1271C20.6602 19.0438 19.9545 16.616 19.9545 14.0203C19.9545 6.27511 26.2307 0 33.9772 0C41.7238 0 48 6.27511 48 14.0203C48 21.7655 41.7238 28.0406 33.9772 28.0406C32.0028 28.0406 30.1208 27.629 28.4152 26.8897L22.7019 32.602V32.7532H17.6524L17.6776 37.9531H12.6028V42.9429H7.35165L7.30964 42.9849H7.46928V47.9916H5.06634V48H0V42.9261L21.8869 21.1271Z" fill="#0078D7"/>
<path d="M39.0857 12.7872C36.993 12.7872 35.2965 11.091 35.2965 8.99862C35.2965 6.90624 36.993 5.21003 39.0857 5.21003C41.1785 5.21003 42.875 6.90624 42.875 8.99862C42.875 11.091 41.1785 12.7872 39.0857 12.7872Z" fill="#50E6FF"/>
</svg>
