<svg data-slug-id="security-center01" viewBox="0 0 24 24" xmlns="http://www.w3.org/2000/svg">
<path d="M3.31763 2.96471C7.76469 2.96471 12.3529 0 12.3529 0C12.3529 0 16.1647 2.96471 20.6823 2.96471C20.6823 2.96471 20.6823 13.7647 20.6823 15.8471C20.6823 19.9412 12.3529 24 12.3529 24C12.3529 24 3.31763 19.9412 3.31763 15.9529C3.31763 13.8353 3.31763 2.96471 3.31763 2.96471Z" fill="#7FBA00"/>
<path opacity="0.15" d="M3.31763 2.96471C7.76469 2.96471 12.3529 0 12.3529 0C12.3529 0 14.647 1.76471 17.7882 2.57647L4.44704 18.5647C3.77645 17.7176 3.31763 16.8353 3.31763 15.9882C3.31763 13.8353 3.31763 2.96471 3.31763 2.96471Z" fill="white"/>
<path d="M13.6941 11.6823H10.3058V10.5529C10.3058 10.0588 10.4823 9.45882 10.7294 9.17646C11.047 8.92941 11.647 8.75293 11.9999 8.75293C12.3529 8.75293 12.9529 8.92941 13.2705 9.24705C13.5882 9.5647 13.6941 9.95293 13.6941 10.4471V11.6823H15.1411V10.4823C15.1411 9.70588 14.8235 8.92941 14.3646 8.3647C13.8705 7.83529 12.8117 7.44705 11.9999 7.44705C11.1882 7.44705 10.1294 7.79999 9.63523 8.3647C9.14112 8.89411 8.85876 9.63529 8.85876 10.4823V11.6823C8.15288 11.6823 7.90582 12.1059 7.90582 12.6353V15.5294C7.90582 16.0235 8.22347 16.4823 8.75288 16.4823H15.247C15.847 16.4823 16.0941 15.9882 16.0941 15.5294V12.6353C16.0941 12.1412 15.9176 11.6823 15.1411 11.6823H13.6941Z" fill="white"/>
</svg>
