<svg data-slug-id="security25" viewBox="0 0 48 49" xmlns="http://www.w3.org/2000/svg">
<path d="M24.0481 12.445H12.2388V14.7973H24.0401V12.445H24.0481Z" fill="#0078D4"/>
<path d="M24.0481 17.2052H12.2388V19.5575H24.0401V17.2052H24.0481Z" fill="#50E6FF"/>
<path d="M24.0481 21.9747H12.2388V24.327H24.0401V21.9747H24.0481Z" fill="#50E6FF"/>
<path d="M9.99855 25.6554C6.75818 25.6554 4.06187 28.0317 3.54181 31.1281H6.22212C6.40614 30.496 6.74218 29.9119 7.22223 29.4319C7.96632 28.6878 8.95043 28.2797 9.99055 28.2797C11.0307 28.2797 12.0148 28.6878 12.7589 29.4319C13.5029 30.1759 13.911 31.1601 13.911 32.2002C13.911 32.4082 13.911 33.0003 13.911 33.7764H3.4458V46.9139H16.5433V34.6405C16.5433 33.4563 16.5433 32.4882 16.5433 32.2082C16.5433 28.5998 13.599 25.6554 9.99855 25.6554Z" fill="#0078D4"/>
<path d="M9.99825 41.7774C10.9344 41.7774 11.6864 41.0173 11.6864 40.0892C11.6864 39.1611 10.9264 38.401 9.99825 38.401C9.07015 38.401 8.31006 39.1611 8.31006 40.0892C8.31006 41.0173 9.06214 41.7774 9.99825 41.7774Z" fill="#50E6FF"/>
<path d="M31.5369 28.5596C33.6972 25.7433 34.9853 22.2069 34.9853 18.3904C34.9853 12.7578 32.193 7.78122 27.9205 4.74887C25.1922 2.81265 21.8558 1.68452 18.2474 1.68452C9.02236 1.68452 1.5415 9.16538 1.5415 18.3904C1.5415 21.3348 2.30159 24.0951 3.63774 26.5034C3.88577 26.2233 4.1578 25.9593 4.44584 25.7113C5.40595 24.8872 6.53407 24.2951 7.73421 23.9591C6.85411 22.2949 6.35805 20.4067 6.35805 18.3904C6.35805 11.8057 11.6867 6.46907 18.2794 6.46907C22.2559 6.46907 25.7603 8.40529 27.9205 11.3976C29.3527 13.3579 30.1928 15.7821 30.1928 18.3984C30.2088 20.9987 29.3607 23.415 27.9285 25.3752C25.7683 28.3516 22.2799 30.2798 18.3354 30.3038C18.4714 30.9199 18.5434 31.5519 18.5434 32.192C18.5434 33.0241 18.5434 33.8402 18.5434 34.6323V35.0883C22.0238 35.0243 25.2482 33.8962 27.9205 32.008C27.9925 31.96 28.0725 31.896 28.1445 31.848L43.1142 46.8177L46.4586 43.4893L31.5369 28.5596Z" fill="#0078D7"/>
<path d="M11.3506 30.8402C10.9826 30.4721 10.5025 30.2721 9.99049 30.2721C9.48643 30.2721 9.00638 30.4721 8.63833 30.8402C8.39831 31.0802 8.23029 31.3682 8.14228 31.6803L8.13428 31.6963C8.17428 31.7203 8.20629 31.7523 8.24629 31.7763H11.8707C11.7907 31.4242 11.6147 31.1042 11.3506 30.8402Z" fill="#0078D7"/>
</svg>
