<svg data-slug-id="security21" viewBox="0 0 48 48" xmlns="http://www.w3.org/2000/svg">
<path d="M24.0863 45.6232H23.9141C19.2648 45.451 6.69434 37.1855 6.69434 21.6016V9.37555L7.64143 9.46165C7.72752 9.46165 15.5625 10.3226 23.4837 2.83202L24.0863 2.31543L24.689 2.74592C33.1267 9.54775 40.4452 9.46165 40.4452 9.46165H41.3062V21.6877C41.3062 37.1855 28.7357 45.451 24.0863 45.6232Z" fill="#0078D4"/>
<path d="M25.1192 24.7016V30.298H22.8807V24.7016C21.8475 24.2711 21.1587 23.2379 21.1587 22.1186C21.1587 20.5688 22.4502 19.2773 24 19.2773C25.5497 19.2773 26.8412 20.5688 26.8412 22.1186C26.8412 23.2379 26.1524 24.2711 25.1192 24.7016Z" fill="#50E6FF"/>
</svg>
