<svg data-slug-id="security06" viewBox="0 0 48 49" xmlns="http://www.w3.org/2000/svg">
<path d="M6.16208 8.58733C2.57595 12.5536 0.303053 17.7157 0 23.4083H5.13506C5.42128 19.1304 7.12175 15.2399 9.77346 12.1999L6.16208 8.58733Z" fill="#50E6FF"/>
<path d="M7.97192 42.5819C11.9453 46.1356 17.1056 48.3924 22.7878 48.6703V43.6346C18.503 43.3482 14.6138 41.6388 11.5749 38.9778L7.97192 42.5819Z" fill="#0078D4"/>
<path d="M0 25.9427C0.294635 31.6353 2.56753 36.7974 6.14524 40.7636L9.75662 37.151C7.11333 34.1111 5.42128 30.2206 5.13506 25.9427H0Z" fill="#0078D4"/>
<path d="M41.8549 8.68111L38.3613 12.1758C41.0299 15.2158 42.7388 19.1147 43.0166 23.4094H47.9328C47.6381 17.7589 45.3905 12.6305 41.8549 8.68111Z" fill="#50E6FF"/>
<path d="M25.3215 0.712524V5.73143C29.6064 6.00932 33.504 7.70194 36.5513 10.3546L40.0533 6.85142C36.1052 3.29777 30.9701 1.0241 25.3215 0.712524Z" fill="#50E6FF"/>
<path d="M22.7877 0.70459C17.1055 0.982482 11.9536 3.23089 7.98022 6.77612L11.5832 10.3803C14.6137 7.72769 18.5029 6.02665 22.7793 5.73192V0.70459H22.7877Z" fill="#50E6FF"/>
<path d="M47.0996 31.1048C47.5542 29.4458 47.8404 27.7195 47.933 25.9427H43.0168C43 26.1953 42.9747 26.448 42.9495 26.7006C44.8099 27.6269 46.2915 29.1932 47.0996 31.1048Z" fill="#0078D4"/>
<path d="M25.3215 43.6339V48.6529C27.0557 48.5602 28.7477 48.2739 30.364 47.8276V42.6066C28.7646 43.1708 27.0725 43.516 25.3215 43.6339Z" fill="#0078D4"/>
<path d="M37.7217 25.8909C37.7638 25.6046 37.7806 25.3183 37.7806 25.0152C37.7806 21.5878 35.0026 18.8089 31.5764 18.8089C31.0966 18.8089 30.6336 18.8594 30.1875 18.9689C28.7732 16.7373 26.2814 15.2552 23.4445 15.2552C19.0334 15.2552 15.4641 18.8341 15.4641 23.2383C15.4641 23.3478 15.4641 23.4573 15.4725 23.5667C15.0685 23.432 14.6392 23.3562 14.193 23.3562C12.0211 23.3562 10.2617 25.1162 10.2617 27.2888C10.2617 29.3267 11.8107 31.0025 13.8058 31.1962L30.9956 31.2298C32.132 28.4425 34.6659 26.3709 37.7217 25.8909Z" fill="#50E6FF"/>
<path d="M45.4076 34.4393C45.4076 30.9614 42.5623 28.1067 39.0771 28.1067C35.954 28.1067 33.3444 30.4056 32.8477 33.3951H35.4405C35.6173 32.7803 35.9456 32.2246 36.4086 31.7614C37.1241 31.0456 38.0754 30.6498 39.0856 30.6498C40.0957 30.6498 41.0386 31.0456 41.7625 31.7614C42.4781 32.4772 42.8737 33.4288 42.8737 34.4393C42.8737 34.6414 42.8737 35.214 42.8737 35.9635H32.7551V48.6539H45.3992V36.7803C45.4076 35.6351 45.4076 34.7087 45.4076 34.4393Z" fill="#0078D4"/>
<path d="M39.0519 43.8696C39.9021 43.8696 40.6008 43.1791 40.6008 42.3202C40.6008 41.4697 39.9105 40.7707 39.0519 40.7707C38.2016 40.7707 37.5029 41.4612 37.5029 42.3202C37.5029 43.1791 38.1932 43.8696 39.0519 43.8696Z" fill="#50E6FF"/>
</svg>
