<svg data-slug-id="security04" viewBox="0 0 48 49" xmlns="http://www.w3.org/2000/svg">
<path d="M38.6592 15.5744C38.6592 7.51271 32.0617 0.915237 24 0.915237C16.7546 0.915237 10.7041 6.24203 9.54278 13.1677H15.5428C15.9467 11.7539 16.7125 10.4496 17.7896 9.36405C19.4558 7.69785 21.6606 6.78059 23.9916 6.78059C26.3226 6.78059 28.5274 7.69785 30.1936 9.36405C31.8598 11.0302 32.777 13.235 32.777 15.566C32.777 16.0373 32.777 17.3584 32.7686 19.1004H9.34082V48.5113H38.6508V21.0274C38.6592 18.3683 38.6592 16.214 38.6592 15.5744Z" fill="#0078D4"/>
<path d="M24.0002 37.0084C26.0916 37.0084 27.787 35.313 27.787 33.2216C27.787 31.1302 26.0916 29.4348 24.0002 29.4348C21.9088 29.4348 20.2134 31.1302 20.2134 33.2216C20.2134 35.313 21.9088 37.0084 24.0002 37.0084Z" fill="#50E6FF"/>
</svg>
