<svg data-slug-id="security24" viewBox="0 0 48 48" xmlns="http://www.w3.org/2000/svg">
<path d="M29.8257 20.2158C29.8257 16.9628 27.1124 14.3049 23.7916 14.3049C20.811 14.3049 18.3244 16.455 17.8466 19.24H20.3169C20.487 18.6687 20.7948 18.145 21.2402 17.7087C21.9287 17.0342 22.8359 16.6693 23.7916 16.6693C24.7473 16.6693 25.6544 17.0422 26.3429 17.7087C27.0313 18.3831 27.4039 19.2716 27.4039 20.2079C27.4039 20.3983 27.4039 20.9299 27.4039 21.636H17.7656V33.4896H29.8257V22.4136C29.8257 21.3425 29.8257 20.4776 29.8257 20.2158Z" fill="#0078D4"/>
<path d="M23.7998 28.8567C24.6583 28.8567 25.3549 28.1744 25.3549 27.3334C25.3549 26.4924 24.6583 25.8101 23.7998 25.8101C22.9413 25.8101 22.2447 26.4924 22.2447 27.3334C22.2366 28.1744 22.9413 28.8567 23.7998 28.8567Z" fill="#50E6FF"/>
<path d="M47 17.4299V5.46055H42.1173V9.74555C37.917 4.42321 31.3445 1 23.9676 1C11.2773 1 1 11.0941 1 23.5581C1 36.0221 11.2854 46.1162 23.9676 46.1162C36.6496 46.1162 46.9351 36.0141 46.9351 23.5581C46.9351 23.1112 46.9188 22.6724 46.8945 22.2335H42.4016C42.4342 22.6724 42.4504 23.1112 42.4504 23.5581C42.4504 33.5804 34.1798 41.7115 23.9676 41.7115C13.7552 41.7115 5.48463 33.5804 5.48463 23.5581C5.48463 13.5358 13.7552 5.40469 23.9676 5.40469C29.9714 5.40469 35.301 8.21348 38.6726 12.5703H34.8054V17.366H42.1173V17.4299H47Z" fill="#50E6FF"/>
</svg>
