<svg data-slug-id="security03" viewBox="0 0 48 49" xmlns="http://www.w3.org/2000/svg">
<path d="M23.9789 0.70459C18.9506 3.60103 13.4339 5.706 7.60547 6.87636V35.8239L23.9031 48.6726L40.4786 35.8576V6.87636C34.6502 5.71442 29.1419 3.60103 24.0968 0.70459H23.9789Z" fill="#0078D4"/>
<path d="M29.4203 21.8967H28.8055C28.4265 21.8967 28.0475 21.9978 27.7443 22.2167C26.6156 23.0334 25.2259 23.5217 23.7183 23.5217C22.2107 23.5217 20.8209 23.0334 19.6923 22.2167C19.3891 21.9978 19.0101 21.8967 18.6311 21.8967C17.494 21.8967 16.5339 22.7387 16.3907 23.867L15.0684 33.7435H32.9831L31.6607 23.867C31.5176 22.7387 30.5574 21.8967 29.4203 21.8967Z" fill="#50E6FF"/>
<path d="M24.0208 20.9314C26.8025 20.9314 29.0575 18.6771 29.0575 15.8963C29.0575 13.1155 26.8025 10.8612 24.0208 10.8612C21.2391 10.8612 18.9841 13.1155 18.9841 15.8963C18.9841 18.6771 21.2391 20.9314 24.0208 20.9314Z" fill="#50E6FF"/>
</svg>
