<svg data-slug-id="security01" viewBox="0 0 48 49" xmlns="http://www.w3.org/2000/svg">
<path d="M37.8471 16.091C37.8471 8.53336 31.6628 2.34905 24.1052 2.34905C17.3142 2.34905 11.6439 7.34537 10.557 13.833H16.1768C16.5559 12.5102 17.2721 11.2885 18.2832 10.269C19.8419 8.7103 21.9146 7.8509 24.0968 7.8509C26.279 7.8509 28.3516 8.7103 29.9103 10.269C31.4691 11.8277 32.3285 13.9004 32.3285 16.0826C32.3285 16.5207 32.3285 16.883 32.32 18.5176H10.2031V46.3722H37.8471V21.1969C37.8471 18.7029 37.8471 16.6892 37.8471 16.091Z" fill="#0078D4"/>
<path d="M30.7953 25.4701L20.3477 35.9177L17.2218 32.7834L15.1323 34.873L20.3477 40.0883L32.8848 27.5512L30.7953 25.4701Z" fill="#50E6FF"/>
</svg>
