<svg data-slug-id="security02" viewBox="0 0 48 49" xmlns="http://www.w3.org/2000/svg">
<path d="M47.8469 28.5158C47.8469 22.2782 42.793 17.2158 36.5469 17.2158C35.9592 17.2158 35.38 17.2578 34.8175 17.3502C33.3315 12.8335 29.0668 9.56777 24.0464 9.56777C18.0522 9.56777 13.141 14.2187 12.7296 20.1122C11.9237 19.9023 11.0674 19.7932 10.1943 19.7932C4.65341 19.7848 0.153564 24.2846 0.153564 29.8339C0.153564 34.8374 3.82228 38.9931 8.61596 39.7486L9.20363 39.8242C9.53104 39.8578 36.6393 39.8074 36.6393 39.8074C42.8433 39.7654 47.8469 34.7283 47.8469 28.5158Z" fill="#50E6FF"/>
<path d="M30.2505 20.8535C30.2505 17.4114 27.4381 14.599 23.9961 14.599C20.9066 14.599 18.3293 16.8742 17.834 19.8209H20.3945C20.5708 19.2164 20.8898 18.6623 21.3516 18.2006C22.0652 17.487 23.0054 17.1008 23.9961 17.1008C24.9867 17.1008 25.927 17.4954 26.6406 18.2006C27.3541 18.9142 27.7403 19.8545 27.7403 20.8451C27.7403 21.0466 27.7403 21.6091 27.7403 22.3562H17.75V34.8987H30.2505V23.179C30.2505 22.0456 30.2505 21.1305 30.2505 20.8535Z" fill="#0078D4"/>
<path d="M24.0048 29.9947C24.8947 29.9947 25.6167 29.2727 25.6167 28.3828C25.6167 27.4929 24.8947 26.7709 24.0048 26.7709C23.1149 26.7709 22.3929 27.4929 22.3929 28.3828C22.3845 29.2727 23.1149 29.9947 24.0048 29.9947Z" fill="#50E6FF"/>
</svg>
