<svg data-slug-id="security23" viewBox="0 0 48 49" xmlns="http://www.w3.org/2000/svg">
<path d="M24.0843 46.5363L4.46094 35.2224V12.603L24.0843 1.28906L43.7076 12.603V35.2224L24.0843 46.5363ZM5.72587 34.4984L24.0843 45.08L42.4426 34.4984V13.3269L24.0843 2.74539L5.72587 13.3269V34.4984Z" fill="#50E6FF"/>
<path d="M23.9579 5.21922C25.4017 5.21922 26.5721 4.05086 26.5721 2.60961C26.5721 1.16836 25.4017 0 23.9579 0C22.5142 0 21.3438 1.16836 21.3438 2.60961C21.3438 4.05086 22.5142 5.21922 23.9579 5.21922Z" fill="#0078D7"/>
<path d="M23.9579 47.9731C25.4017 47.9731 26.5721 46.8048 26.5721 45.3635C26.5721 43.9223 25.4017 42.7539 23.9579 42.7539C22.5142 42.7539 21.3438 43.9223 21.3438 45.3635C21.3438 46.8048 22.5142 47.9731 23.9579 47.9731Z" fill="#0078D7"/>
<path d="M43.016 38.0161C44.4598 38.0161 45.6302 36.8477 45.6302 35.4065C45.6302 33.9652 44.4598 32.7969 43.016 32.7969C41.5723 32.7969 40.4019 33.9652 40.4019 35.4065C40.4019 36.8477 41.5723 38.0161 43.016 38.0161Z" fill="#0078D7"/>
<path d="M43.016 15.2192C44.4598 15.2192 45.6302 14.0509 45.6302 12.6096C45.6302 11.1684 44.4598 10 43.016 10C41.5723 10 40.4019 11.1684 40.4019 12.6096C40.4019 14.0509 41.5723 15.2192 43.016 15.2192Z" fill="#0078D7"/>
<path d="M5.06001 37.9481C6.45255 37.9481 7.58144 36.8212 7.58144 35.4311C7.58144 34.041 6.45255 32.9141 5.06001 32.9141C3.66746 32.9141 2.53857 34.041 2.53857 35.4311C2.53857 36.8212 3.66746 37.9481 5.06001 37.9481Z" fill="#0078D7"/>
<path d="M5.06001 15.3036C6.45255 15.3036 7.58144 14.1766 7.58144 12.7865C7.58144 11.3964 6.45255 10.2695 5.06001 10.2695C3.66746 10.2695 2.53857 11.3964 2.53857 12.7865C2.53857 14.1766 3.66746 15.3036 5.06001 15.3036Z" fill="#0078D7"/>
<path d="M30.1393 19.529C30.1393 16.1365 27.3564 13.3164 23.9158 13.3164C20.8631 13.3164 18.2995 15.564 17.8104 18.502H20.3234C20.5174 17.8958 20.8209 17.3571 21.2763 16.9025C22.0015 16.1786 22.9207 15.7997 23.9074 15.7997C24.9025 15.7997 25.8132 16.1786 26.5384 16.9025C27.2637 17.6265 27.6431 18.544 27.6431 19.529C27.6431 19.7226 27.6431 20.295 27.6431 21.019H17.7261V33.4441H30.1308C30.1393 33.4356 30.1393 19.7899 30.1393 19.529Z" fill="#0078D4"/>
<path d="M23.9155 28.7144C24.7419 28.7144 25.4081 28.0493 25.4081 27.2244C25.4081 26.3994 24.7419 25.7344 23.9155 25.7344C23.0891 25.7344 22.4229 26.3994 22.4229 27.2244C22.4229 28.0493 23.0891 28.7144 23.9155 28.7144Z" fill="#50E6FF"/>
</svg>
