<svg data-slug-id="security19" viewBox="0 0 49 49" xmlns="http://www.w3.org/2000/svg">
<path d="M34.156 19.099C34.156 13.939 29.9332 9.71631 24.7733 9.71631C20.1358 9.71631 16.2632 13.1257 15.5199 17.5585H19.3602C19.6188 16.6537 20.1089 15.8188 20.7983 15.124C21.8648 14.0575 23.2759 13.4705 24.7679 13.4705C26.2599 13.4705 27.671 14.0575 28.7375 15.124C29.804 16.1905 30.3911 17.6016 30.3911 19.0936C30.3911 19.3952 30.3911 20.2408 30.3857 21.3558H15.3906V40.1804H34.1506V22.5892C34.156 20.8872 34.156 19.5083 34.156 19.099Z" fill="#0078D4"/>
<path d="M24.7734 32.8175C26.112 32.8175 27.1971 31.7323 27.1971 30.3937C27.1971 29.0551 26.112 27.97 24.7734 27.97C23.4348 27.97 22.3496 29.0551 22.3496 30.3937C22.3496 31.7323 23.4348 32.8175 24.7734 32.8175Z" fill="#50E6FF"/>
<path d="M0.773438 0.942871V11.0481H5.82607V5.9955H10.8787V0.942871H0.773438Z" fill="#0078D4"/>
<path d="M38.668 0.942871V5.9955H43.7206V11.0481H48.7732V0.942871H38.668Z" fill="#0078D4"/>
<path d="M5.82607 38.8376H0.773438V48.9429H10.8787V43.8903H5.82607V38.8376Z" fill="#0078D4"/>
<path d="M43.7206 43.8903H38.668V48.9429H48.7732V38.8376H43.7206V43.8903Z" fill="#0078D4"/>
</svg>
