<svg data-slug-id="server13" viewBox="0 0 48 49" xmlns="http://www.w3.org/2000/svg">
<path d="M47 24.1797C42.0346 16.8722 33.6029 12.0005 24.0468 12.0005C14.3971 12.0005 5.96538 16.8722 1 24.3671L4.56008 26.9903C8.77597 20.6196 15.8961 16.4974 24.0468 16.4974C32.1039 16.4974 39.224 20.6196 43.4399 26.8029L47 24.1797Z" fill="#0078D4"/>
<path d="M15.2405 34.3931C17.0205 31.3951 20.2996 29.4277 24.047 29.4277C27.7008 29.4277 30.9798 31.3951 32.7599 34.2994L31.1672 35.611C29.6682 33.2689 27.045 31.6762 24.047 31.6762C20.9554 31.6762 18.3322 33.2689 16.8332 35.7047L15.2405 34.3931Z" fill="#0078D4"/>
<path d="M8.4949 29.7057C11.7739 24.6466 17.5825 21.2739 24.1405 21.2739C30.6049 21.2739 36.3198 24.5529 39.6925 29.612L37.1629 31.2984C34.3523 27.0825 29.5743 24.2719 24.1405 24.2719C18.613 24.2719 13.835 27.0825 11.0244 31.3921L8.4949 29.7057Z" fill="#0078D4"/>
<circle cx="24.5" cy="39.5005" r="2.5" fill="#0078D4"/>
<path fill-rule="evenodd" clip-rule="evenodd" d="M6.99994 40.0002L40.9999 6.00019L43.8284 8.82861L9.82837 42.8286L6.99994 40.0002Z" fill="#50E6FF"/>
</svg>
