<svg data-slug-id="server05" viewBox="0 0 49 49" xmlns="http://www.w3.org/2000/svg">
<path d="M45.8852 28.8384H48.4971V16.3013H0.497314V28.8468H28.2845C30.5509 26.6225 33.6599 25.2575 37.0806 25.2575C40.5014 25.2575 43.6188 26.6225 45.8852 28.8384Z" fill="#0078D7"/>
<path d="M26.2539 31.4263H0.497314V43.9718H26.1023C25.0828 42.1519 24.5014 40.0624 24.5014 37.8296C24.5014 35.4958 25.1418 33.3051 26.2539 31.4263Z" fill="#0078D7"/>
<path d="M48.4971 1.07469H0.497314V13.6202H48.4971V1.07469Z" fill="#0078D7"/>
<path d="M8.32454 10.0329C9.76705 10.0329 10.9364 8.86348 10.9364 7.42097C10.9364 5.97846 9.76705 4.80907 8.32454 4.80907C6.88203 4.80907 5.71265 5.97846 5.71265 7.42097C5.71265 8.86348 6.88203 10.0329 8.32454 10.0329Z" fill="#50E6FF"/>
<path d="M8.32454 40.3805C9.76705 40.3805 10.9364 39.2111 10.9364 37.7686C10.9364 36.3261 9.76705 35.1567 8.32454 35.1567C6.88203 35.1567 5.71265 36.3261 5.71265 37.7686C5.71265 39.2111 6.88203 40.3805 8.32454 40.3805Z" fill="#50E6FF"/>
<path d="M8.32454 25.2555C9.76705 25.2555 10.9364 24.0861 10.9364 22.6436C10.9364 21.2011 9.76705 20.0317 8.32454 20.0317C6.88203 20.0317 5.71265 21.2011 5.71265 22.6436C5.71265 24.0861 6.88203 25.2555 8.32454 25.2555Z" fill="#50E6FF"/>
<path d="M30.2815 40.1791C29.6074 38.4013 29.6664 36.4634 30.4584 34.7278C31.242 32.9921 32.6574 31.6693 34.4352 30.9953C35.48 30.5993 36.5584 30.4561 37.6537 30.574L37.342 32.3181L41.2177 30.2117L38.3193 26.8247L37.9823 28.7289C36.5584 28.5603 35.1177 28.7373 33.778 29.2428C31.5284 30.0938 29.7422 31.7705 28.748 33.9611C27.7538 36.1517 27.678 38.6035 28.529 40.8531C29.1356 42.4708 30.1888 43.8695 31.5706 44.8889L31.9076 45.1417L33.0197 43.6251L32.6827 43.3723C31.5958 42.5635 30.7617 41.4513 30.2815 40.1791Z" fill="#0078D7"/>
<path d="M45.3796 34.4754C44.8404 33.043 43.9473 31.7792 42.7846 30.7934L41.5629 32.2089C42.4813 32.9925 43.189 33.9867 43.6187 35.1326C45.0089 38.8145 43.1469 42.9346 39.4649 44.3248C38.8415 44.5607 38.1843 44.7039 37.5102 44.7545L37.6198 42.8419L33.9968 45.3527L37.2659 48.7313L37.3923 46.6502C38.3275 46.5997 39.2459 46.4143 40.1221 46.0857C44.773 44.3332 47.1321 39.1262 45.3796 34.4754Z" fill="#0078D7"/>
</svg>
