<svg data-slug-id="server11" viewBox="0 0 48 48" xmlns="http://www.w3.org/2000/svg">
<path d="M47 24.1792C42.0346 16.8717 33.6029 12 24.0468 12C14.3972 12 5.96538 16.8717 1 24.3666L4.56008 26.9898C8.77597 20.6191 15.8961 16.4969 24.0468 16.4969C32.1039 16.4969 39.224 20.6191 43.4399 26.8024L47 24.1792Z" fill="#0078D4"/>
<path d="M15.2407 34.3925C17.0208 31.3945 20.2998 29.4271 24.0472 29.4271C27.701 29.4271 30.98 31.3945 32.7601 34.2988L31.1674 35.6104C29.6684 33.2683 27.0452 31.6756 24.0472 31.6756C20.9556 31.6756 18.3324 33.2683 16.8334 35.7041L15.2407 34.3925Z" fill="#0078D4"/>
<path d="M8.49512 29.7053C11.7741 24.6462 17.5827 21.2735 24.1407 21.2735C30.6051 21.2735 36.32 24.5525 39.6927 29.6116L37.1631 31.2979C34.3525 27.082 29.5745 24.2714 24.1407 24.2714C18.6132 24.2714 13.8352 27.082 11.0246 31.3916L8.49512 29.7053Z" fill="#0078D4"/>
</svg>
