<svg data-slug-id="server12" viewBox="0 0 48 48" xmlns="http://www.w3.org/2000/svg">
<path d="M0.0927734 23.8906H15.2033V11.2422H0.0927734V23.8906Z" fill="#0078D4"/>
<path d="M5.09277 16.3036H10.2026V14.5352H5.09277V16.3036Z" fill="#50E6FF"/>
<path d="M6.6167 19.8817H8.68755V18.8965H6.6167V19.8817Z" fill="#50E6FF"/>
<path d="M32.8896 23.8906H48.0001V11.2422H32.8896V23.8906Z" fill="#0078D4"/>
<path d="M37.8896 16.3036H42.9994V14.5352H37.8896V16.3036Z" fill="#50E6FF"/>
<path d="M39.4136 19.8817H41.4844V18.8965H39.4136V19.8817Z" fill="#50E6FF"/>
<path d="M16.4238 23.8906H31.5343V11.2422H16.4238V23.8906Z" fill="#0078D4"/>
<path d="M21.4238 16.3036H26.5336V14.5352H21.4238V16.3036Z" fill="#50E6FF"/>
<path d="M22.9478 19.8817H25.0186V18.8965H22.9478V19.8817Z" fill="#50E6FF"/>
<path d="M0.0927734 37.9955H15.2033V25.3555H0.0927734V37.9955Z" fill="#0078D4"/>
<path d="M5.09277 30.4169H10.2026V28.6484H5.09277V30.4169Z" fill="#50E6FF"/>
<path d="M6.6167 33.9866H8.68755V33.0098H6.6167V33.9866Z" fill="#50E6FF"/>
<path d="M32.8896 37.9955H48.0001V25.3555H32.8896V37.9955Z" fill="#0078D4"/>
<path d="M37.8896 30.4169H42.9994V28.6484H37.8896V30.4169Z" fill="#50E6FF"/>
<path d="M39.4136 33.9866H41.4844V33.0098H39.4136V33.9866Z" fill="#50E6FF"/>
<path d="M16.4238 37.9955H31.5343V25.3555H16.4238V37.9955Z" fill="#0078D4"/>
<path d="M21.4238 30.4169H26.5336V28.6484H21.4238V30.4169Z" fill="#50E6FF"/>
<path d="M22.9478 33.9866H25.0186V33.0098H22.9478V33.9866Z" fill="#50E6FF"/>
</svg>
