<svg data-slug-id="serverless-database" viewBox="0 0 48 48" xmlns="http://www.w3.org/2000/svg">
<path d="M48 22.1852C48 16.0447 42.9206 11.0781 36.6407 11.0781C36.0404 11.0781 35.4632 11.1232 34.9091 11.2135C33.3853 6.74357 29.0909 3.53784 24.0346 3.53784C18.0087 3.53784 13.0678 8.12067 12.6522 13.9C11.8442 13.6968 10.9899 13.584 10.1126 13.584C4.52525 13.584 0 18.0088 0 23.472C0 28.3935 3.69408 32.4797 8.51948 33.2247L9.11977 33.2924C9.443 33.315 36.733 33.2698 36.733 33.2698C42.9437 33.2472 48 28.2806 48 22.1852Z" fill="#0078D4"/>
<path d="M14.9046 36.0947H4V39.5228C4 41.0173 6.44455 42.2272 9.46429 42.2272C12.484 42.2272 14.9286 41.0173 14.9286 39.5228C14.9286 39.5228 14.9286 36.1185 14.9046 36.0947Z" fill="#0078D4"/>
<path d="M14.9046 29.9619H4V35.104C4 37.3459 6.44455 39.1608 9.46429 39.1608C12.484 39.1608 14.9286 37.3459 14.9286 35.104C14.9286 35.104 14.9286 29.9975 14.9046 29.9619Z" fill="#50E6FF"/>
<path d="M14.9286 28.4287H4V32.3518C4 34.4201 6.44455 36.0944 9.46429 36.0944C12.484 36.0944 14.9286 34.4201 14.9286 32.3518C14.9286 32.3682 14.9286 28.4615 14.9286 28.4287Z" fill="#50E6FF"/>
<path d="M9.46429 31.4951C12.4821 31.4951 14.9286 30.1222 14.9286 28.4288C14.9286 26.7354 12.4821 25.3625 9.46429 25.3625C6.44645 25.3625 4 26.7354 4 28.4288C4 30.1222 6.44645 31.4951 9.46429 31.4951Z" fill="white"/>
<path d="M9.46423 30.1809C11.8114 30.1809 13.7142 29.3719 13.7142 28.374C13.7142 27.3761 11.8114 26.5671 9.46423 26.5671C7.11702 26.5671 5.21423 27.3761 5.21423 28.374C5.21423 29.3719 7.11702 30.1809 9.46423 30.1809Z" fill="#0062AD"/>
<path d="M29.476 36.0947H18.5714V39.5228C18.5714 41.0173 21.016 42.2272 24.0357 42.2272C27.0554 42.2272 29.5 41.0173 29.5 39.5228C29.5 39.5228 29.5 36.1185 29.476 36.0947Z" fill="#0078D4"/>
<path d="M29.476 29.9619H18.5714V35.104C18.5714 37.3459 21.016 39.1608 24.0357 39.1608C27.0554 39.1608 29.5 37.3459 29.5 35.104C29.5 35.104 29.5 29.9975 29.476 29.9619Z" fill="#50E6FF"/>
<path d="M29.5 28.4287H18.5714V32.3518C18.5714 34.4201 21.016 36.0944 24.0357 36.0944C27.0554 36.0944 29.5 34.4201 29.5 32.3518C29.5 32.3682 29.5 28.4615 29.5 28.4287Z" fill="#50E6FF"/>
<path d="M24.0357 31.4951C27.0536 31.4951 29.5 30.1222 29.5 28.4288C29.5 26.7354 27.0536 25.3625 24.0357 25.3625C21.0179 25.3625 18.5714 26.7354 18.5714 28.4288C18.5714 30.1222 21.0179 31.4951 24.0357 31.4951Z" fill="white"/>
<path d="M24.0356 30.1809C26.3829 30.1809 28.2856 29.3719 28.2856 28.374C28.2856 27.3761 26.3829 26.5671 24.0356 26.5671C21.6884 26.5671 19.7856 27.3761 19.7856 28.374C19.7856 29.3719 21.6884 30.1809 24.0356 30.1809Z" fill="#0062AD"/>
<path d="M44.0473 36.0947H33.1428V39.5228C33.1428 41.0173 35.5873 42.2272 38.6071 42.2272C41.6268 42.2272 44.0713 41.0173 44.0713 39.5228C44.0713 39.5228 44.0713 36.1185 44.0473 36.0947Z" fill="#0078D4"/>
<path d="M44.0473 29.9619H33.1428V35.104C33.1428 37.3459 35.5873 39.1608 38.6071 39.1608C41.6268 39.1608 44.0713 37.3459 44.0713 35.104C44.0713 35.104 44.0713 29.9975 44.0473 29.9619Z" fill="#50E6FF"/>
<path d="M44.0713 28.4287H33.1428V32.3518C33.1428 34.4201 35.5873 36.0944 38.6071 36.0944C41.6268 36.0944 44.0713 34.4201 44.0713 32.3518C44.0713 32.3682 44.0713 28.4615 44.0713 28.4287Z" fill="#50E6FF"/>
<path d="M38.6071 31.4951C41.625 31.4951 44.0714 30.1222 44.0714 28.4288C44.0714 26.7354 41.625 25.3625 38.6071 25.3625C35.5893 25.3625 33.1428 26.7354 33.1428 28.4288C33.1428 30.1222 35.5893 31.4951 38.6071 31.4951Z" fill="white"/>
<path d="M38.6071 30.1809C40.9543 30.1809 42.8571 29.3719 42.8571 28.374C42.8571 27.3761 40.9543 26.5671 38.6071 26.5671C36.2598 26.5671 34.3571 27.3761 34.3571 28.374C34.3571 29.3719 36.2598 30.1809 38.6071 30.1809Z" fill="#0062AD"/>
</svg>
