<svg data-slug-id="server01" viewBox="0 0 49 49" xmlns="http://www.w3.org/2000/svg">
<path d="M48.4214 1.13719H0.530518V6.1748H48.4214V1.13719Z" fill="#50E6FF"/>
<path d="M48.4214 6.09032H0.530518V23.7387H48.4214V6.09032Z" fill="#0078D4"/>
<path d="M10.6141 26.2075H0.530518V36.2911H10.6141V26.2075Z" fill="#0078D4"/>
<path d="M23.2181 26.2075H13.1345V36.2911H23.2181V26.2075Z" fill="#0078D4"/>
<path d="M35.8192 26.2075H25.7356V36.2911H35.8192V26.2075Z" fill="#50E6FF"/>
<path d="M48.4221 26.2075H38.3469V36.2911H48.4305V26.2075H48.4221Z" fill="#50E6FF"/>
<path d="M23.2165 38.8091H0.530518V48.8927H23.2165V38.8091Z" fill="#0078D4"/>
<path d="M48.4216 38.8091H25.7356V48.8843H48.4216V38.8091Z" fill="#50E6FF"/>
<path d="M42.0656 14.7739L35.8274 8.53563V12.7252H6.68481V17.1583H35.8274V21.0121L42.0656 14.7739Z" fill="#50E6FF"/>
</svg>
