<svg data-slug-id="server08" viewBox="0 0 49 49" xmlns="http://www.w3.org/2000/svg">
<path d="M10.6027 0.91893H0.497314V48.8852H10.6027V0.91893Z" fill="#0078D4"/>
<path d="M23.2335 0.918442H13.1282V48.8847H23.2335V0.918442Z" fill="#0078D4"/>
<path d="M35.8663 0.918442H25.761V48.8847H35.8663V0.918442Z" fill="#0078D4"/>
<path d="M48.4972 0.918442H38.3918V48.8847H48.4972V0.918442Z" fill="#0078D4"/>
<path d="M6.74557 42.6059H4.20239V45.1509H6.74557V42.6059Z" fill="#50E6FF"/>
<path d="M6.74557 37.5513H4.20239V40.0962H6.74557V37.5513Z" fill="#50E6FF"/>
<path d="M19.437 42.6059H16.8938V45.1509H19.437V42.6059Z" fill="#50E6FF"/>
<path d="M19.437 37.5513H16.8938V40.0962H19.437V37.5513Z" fill="#50E6FF"/>
<path d="M32.0932 42.6059H29.55V45.1509H32.0932V42.6059Z" fill="#50E6FF"/>
<path d="M32.0932 37.5513H29.55V40.0962H32.0932V37.5513Z" fill="#50E6FF"/>
<path d="M44.6738 42.6059H42.1306V45.1509H44.6738V42.6059Z" fill="#50E6FF"/>
<path d="M44.6738 37.5513H42.1306V40.0962H44.6738V37.5513Z" fill="#50E6FF"/>
</svg>
