<svg data-slug-id="server10" viewBox="0 0 49 49" xmlns="http://www.w3.org/2000/svg">
<path d="M0.497559 11.0771H48.4975V0.903305H0.497559V11.0771Z" fill="#0078D4"/>
<path d="M0.497559 36.312H48.4975V26.1382H0.497559V36.312Z" fill="#0078D4"/>
<path d="M0.497559 23.812H48.4975V13.6382H0.497559V23.812Z" fill="#0078D4"/>
<path d="M0.497559 48.8276H48.4975V38.6538H0.497559V48.8276Z" fill="#0078D4"/>
<path d="M23.1123 6.02592C23.1123 7.38466 22.0009 8.49179 20.637 8.49179C19.273 8.49179 18.1616 7.38466 18.1616 6.02592C18.1616 4.66717 19.273 3.56004 20.637 3.56004C22.0094 3.56004 23.1123 4.66717 23.1123 6.02592Z" fill="white"/>
<path d="M7.95754 6.02592C7.95754 7.38466 6.84616 8.49179 5.48219 8.49179C4.11822 8.49179 3.00684 7.38466 3.00684 6.02592C3.00684 4.66717 4.11822 3.56004 5.48219 3.56004C6.85458 3.56004 7.95754 4.66717 7.95754 6.02592Z" fill="#50E6FF"/>
<path d="M15.5352 6.02592C15.5352 7.38466 14.4238 8.49179 13.0598 8.49179C11.6959 8.49179 10.5845 7.38466 10.5845 6.02592C10.5845 4.66717 11.6959 3.56004 13.0598 3.56004C14.4322 3.56004 15.5352 4.66717 15.5352 6.02592Z" fill="#50E6FF"/>
<path d="M23.1123 18.6119C23.1123 19.9706 22.0009 21.0777 20.637 21.0777C19.273 21.0777 18.1616 19.9706 18.1616 18.6119C18.1616 17.2531 19.273 16.146 20.637 16.146C22.0094 16.146 23.1123 17.2531 23.1123 18.6119Z" fill="white"/>
<path d="M7.95754 18.6119C7.95754 19.9706 6.84616 21.0777 5.48219 21.0777C4.11822 21.0777 3.00684 19.9706 3.00684 18.6119C3.00684 17.2531 4.11822 16.146 5.48219 16.146C6.85458 16.146 7.95754 17.2531 7.95754 18.6119Z" fill="#50E6FF"/>
<path d="M15.5352 18.6119C15.5352 19.9706 14.4238 21.0777 13.0598 21.0777C11.6959 21.0777 10.5845 19.9706 10.5845 18.6119C10.5845 17.2531 11.6959 16.146 13.0598 16.146C14.4322 16.146 15.5352 17.2531 15.5352 18.6119Z" fill="#50E6FF"/>
<path d="M23.1123 31.19C23.1123 32.5487 22.0009 33.6559 20.637 33.6559C19.273 33.6559 18.1616 32.5487 18.1616 31.19C18.1616 29.8312 19.273 28.7241 20.637 28.7241C22.0094 28.7241 23.1123 29.8312 23.1123 31.19Z" fill="white"/>
<path d="M7.95754 31.19C7.95754 32.5487 6.84616 33.6559 5.48219 33.6559C4.11822 33.6559 3.00684 32.5487 3.00684 31.19C3.00684 29.8312 4.11822 28.7241 5.48219 28.7241C6.85458 28.7241 7.95754 29.8312 7.95754 31.19Z" fill="#50E6FF"/>
<path d="M15.5352 31.19C15.5352 32.5487 14.4238 33.6559 13.0598 33.6559C11.6959 33.6559 10.5845 32.5487 10.5845 31.19C10.5845 29.8312 11.6959 28.7241 13.0598 28.7241C14.4322 28.7241 15.5352 29.8312 15.5352 31.19Z" fill="#50E6FF"/>
<path d="M23.1123 43.7686C23.1123 45.1273 22.0009 46.2345 20.637 46.2345C19.273 46.2345 18.1616 45.1273 18.1616 43.7686C18.1616 42.4098 19.273 41.3027 20.637 41.3027C22.0094 41.3027 23.1123 42.4098 23.1123 43.7686Z" fill="white"/>
<path d="M7.95754 43.7686C7.95754 45.1273 6.84616 46.2345 5.48219 46.2345C4.11822 46.2345 3.00684 45.1273 3.00684 43.7686C3.00684 42.4098 4.11822 41.3027 5.48219 41.3027C6.85458 41.3027 7.95754 42.4098 7.95754 43.7686Z" fill="#50E6FF"/>
<path d="M15.5352 43.7686C15.5352 45.1273 14.4238 46.2345 13.0598 46.2345C11.6959 46.2345 10.5845 45.1273 10.5845 43.7686C10.5845 42.4098 11.6959 41.3027 13.0598 41.3027C14.4322 41.3027 15.5352 42.4098 15.5352 43.7686Z" fill="#50E6FF"/>
</svg>
