<svg data-slug-id="smart-car" viewBox="0 0 48 48" xmlns="http://www.w3.org/2000/svg">
    <path d="M42.9472 27.7893H5.05261C3.71258 27.7893 2.42742 28.3216 1.47988 29.2692C0.532327 30.2167 0 31.5019 0 32.8419C0 34.182 0.532327 35.4671 1.47988 36.4147C2.42742 37.3622 3.71258 37.8945 5.05261 37.8945V47.9998H12.6315V42.9471H35.3683V47.9998H42.9472V37.8945C44.2872 37.8945 45.5724 37.3622 46.5199 36.4147C47.4675 35.4671 47.9998 34.182 47.9998 32.8419C47.9998 31.5019 47.4675 30.2167 46.5199 29.2692C45.5724 28.3216 44.2872 27.7893 42.9472 27.7893ZM2.52631 32.8419C2.52631 32.3423 2.67447 31.8538 2.95207 31.4384C3.22966 31.0229 3.62421 30.6991 4.08584 30.5079C4.54746 30.3167 5.05541 30.2667 5.54547 30.3642C6.03553 30.4616 6.48567 30.7022 6.83898 31.0556C7.19229 31.4089 7.4329 31.859 7.53038 32.3491C7.62785 32.8391 7.57782 33.3471 7.38661 33.8087C7.1954 34.2703 6.8716 34.6649 6.45615 34.9425C6.0407 35.2201 5.55227 35.3682 5.05261 35.3682C4.38259 35.3682 3.74002 35.1021 3.26624 34.6283C2.79247 34.1545 2.52631 33.5119 2.52631 32.8419ZM42.9472 35.3682C42.4475 35.3682 41.9591 35.2201 41.5437 34.9425C41.1282 34.6649 40.8044 34.2703 40.6132 33.8087C40.422 33.3471 40.372 32.8391 40.4694 32.3491C40.5669 31.859 40.8075 31.4089 41.1608 31.0556C41.5141 30.7022 41.9643 30.4616 42.4543 30.3642C42.9444 30.2667 43.4524 30.3167 43.914 30.5079C44.3756 30.6991 44.7702 31.0229 45.0478 31.4384C45.3253 31.8538 45.4735 32.3423 45.4735 32.8419C45.4735 33.5119 45.2073 34.1545 44.7336 34.6283C44.2598 35.1021 43.6172 35.3682 42.9472 35.3682Z" fill="#50E6FF"/>
    <path d="M15.1593 30.3125H12.633V35.3651H15.1593V30.3125Z" fill="#0078D4"/>
    <path d="M25.2648 30.3125H22.7385V35.3651H25.2648V30.3125Z" fill="#0078D4"/>
    <path d="M20.2101 30.3125H17.6838V35.3651H20.2101V30.3125Z" fill="#0078D4"/>
    <path d="M35.3683 30.3125H32.842V35.3651H35.3683V30.3125Z" fill="#0078D4"/>
    <path d="M30.3156 30.3125H27.7893V35.3651H30.3156V30.3125Z" fill="#0078D4"/>
    <path d="M24.4467 23.5864L9.75537 8.89512C10.0676 8.36543 10.1759 7.74004 10.0601 7.13619C9.94422 6.53234 9.6121 5.99147 9.12599 5.61496C8.63988 5.23845 8.03314 5.05215 7.4195 5.09098C6.80586 5.12981 6.22744 5.3911 5.79267 5.82588C5.35789 6.26066 5.0966 6.83907 5.05777 7.45271C5.01894 8.06635 5.20524 8.67309 5.58175 9.1592C5.95826 9.64531 6.49913 9.97743 7.10298 10.0933C7.70683 10.2092 8.33221 10.1008 8.8619 9.78859L23.5541 24.4799L24.4467 23.5864Z" fill="#0078D4"/>
    <path d="M40.4221 5.08594C39.9768 5.08604 39.5394 5.20384 39.1543 5.42742C38.7692 5.65099 38.45 5.97239 38.2291 6.35905C38.0082 6.74572 37.8934 7.1839 37.8964 7.6292C37.8994 8.0745 38.02 8.5111 38.2461 8.89477L23.5548 23.5861L24.4474 24.4795L39.1396 9.78824C39.4742 9.98563 39.8499 10.1032 40.2374 10.1317C40.6249 10.1603 41.0137 10.0991 41.3737 9.95285C41.7337 9.80664 42.0551 9.57937 42.3129 9.28871C42.5708 8.99805 42.7581 8.65184 42.8603 8.277C42.9626 7.90215 42.977 7.50878 42.9024 7.12746C42.8278 6.74614 42.6663 6.38716 42.4304 6.07843C42.1945 5.7697 41.8906 5.51954 41.5423 5.3474C41.194 5.17527 40.8106 5.08579 40.4221 5.08594V5.08594Z" fill="#50E6FF"/>
    <path d="M24.6304 4.97266H23.3672V24.0319H24.6304V4.97266Z" fill="#0078D4"/>
    <path d="M39.9169 20.212L35.3695 12.6331H12.6328L8.08544 20.212H2.52757V25.2646H45.4748V20.212H39.9169ZM9.51701 22.7383L14.0644 15.1594H33.938L38.4853 22.7383H9.51701Z" fill="#50E6FF"/>
    <path d="M24.001 5.05261C25.3962 5.05261 26.5273 3.92155 26.5273 2.52631C26.5273 1.13107 25.3962 0 24.001 0C22.6058 0 21.4747 1.13107 21.4747 2.52631C21.4747 3.92155 22.6058 5.05261 24.001 5.05261Z" fill="#0078D4"/>
</svg>
