<svg data-slug-id="spatial-anchors01" viewBox="0 0 37 36" xmlns="http://www.w3.org/2000/svg">
<path d="M3.69922 23.29L17.6238 13.6963L31.3291 23.29L17.6238 33.3771L3.69922 23.29Z" fill="#BFE1EE"/>
<path d="M17.6224 34.3648L2.27246 23.2909L17.6224 12.7104L32.753 23.2909L17.6224 34.3648ZM5.12316 23.2909L17.6224 32.3364L29.9571 23.2909L17.6224 14.684L5.12316 23.2909Z" fill="#4099C1"/>
<path d="M3.69922 23.29L17.6238 13.6963L31.3291 23.29L17.6238 33.3771L3.69922 23.29Z" stroke="#4099C1" stroke-width="3" stroke-miterlimit="10"/>
<path d="M29.1364 27.2918C31.498 27.2918 33.4125 25.3774 33.4125 23.0158C33.4125 20.6542 31.498 18.7397 29.1364 18.7397C26.7748 18.7397 24.8604 20.6542 24.8604 23.0158C24.8604 25.3774 26.7748 27.2918 29.1364 27.2918Z" fill="#419AC2"/>
<path d="M29.135 25.099C30.2855 25.099 31.2182 24.1663 31.2182 23.0158C31.2182 21.8653 30.2855 20.9326 29.135 20.9326C27.9844 20.9326 27.0518 21.8653 27.0518 23.0158C27.0518 24.1663 27.9844 25.099 29.135 25.099Z" fill="white"/>
<path d="M17.1303 17.698C18.7652 17.698 20.0906 16.3726 20.0906 14.7377C20.0906 13.1027 18.7652 11.7773 17.1303 11.7773C15.4953 11.7773 14.1699 13.1027 14.1699 14.7377C14.1699 16.3726 15.4953 17.698 17.1303 17.698Z" fill="#7E4E94"/>
<path d="M17.1303 35.6248C18.7652 35.6248 20.0906 34.2994 20.0906 32.6644C20.0906 31.0295 18.7652 29.7041 17.1303 29.7041C15.4953 29.7041 14.1699 31.0295 14.1699 32.6644C14.1699 34.2994 15.4953 35.6248 17.1303 35.6248Z" fill="#7E4E94"/>
<path d="M4.74062 26.3055C6.37557 26.3055 7.70096 24.9801 7.70096 23.3451C7.70096 21.7102 6.37557 20.3848 4.74062 20.3848C3.10566 20.3848 1.78027 21.7102 1.78027 23.3451C1.78027 24.9801 3.10566 26.3055 4.74062 26.3055Z" fill="#7E4E94"/>
<path d="M35.2201 6.46015C35.2201 9.80424 29.135 22.8517 29.135 22.8517C29.135 22.8517 23.0498 9.85906 23.0498 6.46015C23.0498 3.06124 25.7909 0.375 29.135 0.375C32.479 0.375 35.2201 3.11606 35.2201 6.46015Z" fill="#7E4E94"/>
<path d="M29.139 9.8039C30.9859 9.8039 32.4831 8.3067 32.4831 6.45981C32.4831 4.61292 30.9859 3.11572 29.139 3.11572C27.2921 3.11572 25.7949 4.61292 25.7949 6.45981C25.7949 8.3067 27.2921 9.8039 29.139 9.8039Z" fill="white"/>
</svg>
