<svg data-slug-id="spatial-anchors" viewBox="0 0 48 48" xmlns="http://www.w3.org/2000/svg">
<path d="M4.26562 31.0533L22.8317 18.2617L41.1054 31.0533L22.8317 44.5028L4.26562 31.0533Z" fill="#BFE1EE"/>
<path d="M22.8298 45.8197L2.36328 31.0546L22.8298 16.9473L43.004 31.0546L22.8298 45.8197ZM6.16421 31.0546L22.8298 43.1152L39.2762 31.0546L22.8298 19.5787L6.16421 31.0546Z" fill="#4099C1"/>
<path d="M4.26562 31.0533L22.8317 18.2617L41.1054 31.0533L22.8317 44.5028L4.26562 31.0533Z" stroke="#4099C1" stroke-width="3" stroke-miterlimit="10"/>
<path d="M38.1819 36.3891C41.3307 36.3891 43.8833 33.8365 43.8833 30.6877C43.8833 27.5389 41.3307 24.9863 38.1819 24.9863C35.0331 24.9863 32.4805 27.5389 32.4805 30.6877C32.4805 33.8365 35.0331 36.3891 38.1819 36.3891Z" fill="#419AC2"/>
<path d="M38.18 33.4654C39.714 33.4654 40.9576 32.2218 40.9576 30.6878C40.9576 29.1537 39.714 27.9102 38.18 27.9102C36.6459 27.9102 35.4023 29.1537 35.4023 30.6878C35.4023 32.2218 36.6459 33.4654 38.18 33.4654Z" fill="white"/>
<path d="M22.1737 23.5974C24.3536 23.5974 26.1208 21.8302 26.1208 19.6502C26.1208 17.4703 24.3536 15.7031 22.1737 15.7031C19.9937 15.7031 18.2266 17.4703 18.2266 19.6502C18.2266 21.8302 19.9937 23.5974 22.1737 23.5974Z" fill="#7E4E94"/>
<path d="M22.1737 47.4997C24.3536 47.4997 26.1208 45.7325 26.1208 43.5526C26.1208 41.3727 24.3536 39.6055 22.1737 39.6055C19.9937 39.6055 18.2266 41.3727 18.2266 43.5526C18.2266 45.7325 19.9937 47.4997 22.1737 47.4997Z" fill="#7E4E94"/>
<path d="M5.65415 35.0739C7.83409 35.0739 9.60128 33.3067 9.60128 31.1268C9.60128 28.9469 7.83409 27.1797 5.65415 27.1797C3.47422 27.1797 1.70703 28.9469 1.70703 31.1268C1.70703 33.3067 3.47422 35.0739 5.65415 35.0739Z" fill="#7E4E94"/>
<path d="M46.2935 8.61353C46.2935 13.0723 38.1799 30.4689 38.1799 30.4689C38.1799 30.4689 30.0664 13.1454 30.0664 8.61353C30.0664 4.08165 33.7212 0.5 38.1799 0.5C42.6387 0.5 46.2935 4.15474 46.2935 8.61353Z" fill="#7E4E94"/>
<path d="M38.1854 13.0719C40.6479 13.0719 42.6441 11.0756 42.6441 8.61308C42.6441 6.15056 40.6479 4.1543 38.1854 4.1543C35.7228 4.1543 33.7266 6.15056 33.7266 8.61308C33.7266 11.0756 35.7228 13.0719 38.1854 13.0719Z" fill="white"/>
</svg>
