<svg data-slug-id="specific01" viewBox="0 0 48 48" xmlns="http://www.w3.org/2000/svg">
<path d="M45.3971 24.0613L45.3804 24.0279L45.8407 23.5677L35.5795 13.3017L45.7905 3.07755L45.3218 2.60901L45.0623 2.09028L31.2608 8.97611L24.4646 2.17394L24.0126 2.61738L23.6109 2.21578L16.798 9.00957L2.93784 2.08191L2.65327 2.64248L2.21805 3.07755L12.4541 13.3352L2.37707 23.392L2.31012 23.4255L2.31848 23.4506L2.22642 23.5426L2.51099 23.8271L2.59468 23.986L2.18457 24.396L12.4625 34.6704L2.2599 44.8945L2.82066 45.4551L3.02154 45.8567L16.7729 38.9792L23.5691 45.773L24.0126 45.3296L24.4562 45.773L31.2106 39.0043L44.9452 45.8902L45.1126 45.5639L45.757 44.928L35.5293 34.6787L45.7654 24.4295L45.3971 24.0613ZM24.6404 22.48V14.3476L30.0555 17.0584L24.6404 22.48ZM31.244 17.6441L42.6602 23.3585H25.5359L31.244 17.6441ZM25.3853 13.3101L31.0097 10.5072L33.8051 13.3017L30.9929 16.1129L25.3853 13.3101ZM23.3849 14.3141V22.5219L17.9195 17.0416L23.3849 14.3141ZM16.9905 16.1046L14.2369 13.3435L17.0491 10.5407L22.5814 13.3101L16.9905 16.1046ZM22.4559 23.3585H5.25624L16.7394 17.6273L22.4559 23.3585ZM22.5061 24.6135L16.7729 30.3615L5.31482 24.6135H22.5061ZM23.3849 25.5088V33.6747L17.953 30.9472L23.3849 25.5088ZM22.5814 34.6704L17.024 37.4481L14.2452 34.6704L17.024 31.8842L22.5814 34.6704ZM24.6404 33.6413V25.5506L30.0304 30.9472L24.6404 33.6413ZM30.9678 31.8842L33.7633 34.6787L30.9678 37.4732L25.3769 34.6704L30.9678 31.8842ZM25.4857 24.6135H42.7021L31.2189 30.3531L25.4857 24.6135ZM42.2334 21.7438L32.1731 16.707L34.6923 14.1886L42.2334 21.7438ZM42.133 4.96007L34.684 12.4148L32.1898 9.92155L42.133 4.96007ZM24.6404 12.281V4.13176L30.0723 9.57014L24.6404 12.281ZM23.3849 4.21543V12.3061L17.9781 9.60361L23.3849 4.21543ZM5.85048 4.94334L15.8606 9.94665L13.3497 12.4483L5.85048 4.94334ZM13.3413 14.2304L15.802 16.6902L5.93418 21.6183L13.3413 14.2304ZM5.85048 26.2869L15.8355 31.2902L13.3497 33.7835L5.85048 26.2869ZM5.91744 43.0036L13.3581 35.5572L15.8439 38.0422L5.91744 43.0036ZM23.3849 35.6744V43.8236L17.953 38.3936L23.3849 35.6744ZM24.6487 43.8152V35.7078L30.0388 38.4103L24.6487 43.8152ZM42.1413 43.079L32.148 38.0673L34.6421 35.5656L42.1413 43.079ZM32.148 31.2902L42.1078 26.312L34.6421 33.7919L32.148 31.2902Z" fill="#0078D4"/>
<path d="M45.3049 5.10352C46.6824 5.10352 47.7991 3.98724 47.7991 2.61023C47.7991 1.23323 46.6824 0.116943 45.3049 0.116943C43.9275 0.116943 42.8108 1.23323 42.8108 2.61023C42.8108 3.98724 43.9275 5.10352 45.3049 5.10352Z" fill="#50E6FF"/>
<path d="M24.0291 5.10352C25.4066 5.10352 26.5232 3.98724 26.5232 2.61023C26.5232 1.23323 25.4066 0.116943 24.0291 0.116943C22.6516 0.116943 21.5349 1.23323 21.5349 2.61023C21.5349 3.98724 22.6516 5.10352 24.0291 5.10352Z" fill="#50E6FF"/>
<path d="M2.6028 5.10352C3.98029 5.10352 5.09696 3.98724 5.09696 2.61023C5.09696 1.23323 3.98029 0.116943 2.6028 0.116943C1.22532 0.116943 0.108643 1.23323 0.108643 2.61023C0.108643 3.98724 1.22532 5.10352 2.6028 5.10352Z" fill="#50E6FF"/>
<path d="M45.2883 26.5215C46.6658 26.5215 47.7825 25.4052 47.7825 24.0282C47.7825 22.6512 46.6658 21.5349 45.2883 21.5349C43.9109 21.5349 42.7942 22.6512 42.7942 24.0282C42.7942 25.4052 43.9109 26.5215 45.2883 26.5215Z" fill="#50E6FF"/>
<path d="M24.0291 26.5215C25.4066 26.5215 26.5232 25.4052 26.5232 24.0282C26.5232 22.6512 25.4066 21.5349 24.0291 21.5349C22.6516 21.5349 21.5349 22.6512 21.5349 24.0282C21.5349 25.4052 22.6516 26.5215 24.0291 26.5215Z" fill="#50E6FF"/>
<path d="M2.6028 26.5215C3.98029 26.5215 5.09696 25.4052 5.09696 24.0282C5.09696 22.6512 3.98029 21.5349 2.6028 21.5349C1.22532 21.5349 0.108643 22.6512 0.108643 24.0282C0.108643 25.4052 1.22532 26.5215 2.6028 26.5215Z" fill="#50E6FF"/>
<path d="M45.2883 47.7754C46.6658 47.7754 47.7825 46.6591 47.7825 45.2821C47.7825 43.9051 46.6658 42.7888 45.2883 42.7888C43.9109 42.7888 42.7942 43.9051 42.7942 45.2821C42.7942 46.6591 43.9109 47.7754 45.2883 47.7754Z" fill="#50E6FF"/>
<path d="M24.0291 47.7754C25.4066 47.7754 26.5232 46.6591 26.5232 45.2821C26.5232 43.9051 25.4066 42.7888 24.0291 42.7888C22.6516 42.7888 21.5349 43.9051 21.5349 45.2821C21.5349 46.6591 22.6516 47.7754 24.0291 47.7754Z" fill="#50E6FF"/>
<path d="M2.6028 47.7754C3.98029 47.7754 5.09696 46.6591 5.09696 45.2821C5.09696 43.9051 3.98029 42.7888 2.6028 42.7888C1.22532 42.7888 0.108643 43.9051 0.108643 45.2821C0.108643 46.6591 1.22532 47.7754 2.6028 47.7754Z" fill="#50E6FF"/>
</svg>
