<svg data-slug-id="specific02" viewBox="0 0 73 72" xmlns="http://www.w3.org/2000/svg">
<path d="M68.6584 32.0505C66.8417 32.0505 65.3278 33.3374 64.9619 35.0405H8.05075C7.68489 33.3374 6.17096 32.0505 4.35424 32.0505C2.27259 32.0505 0.582031 33.7411 0.582031 35.8227C0.582031 37.9044 2.27259 39.595 4.35424 39.595C6.05741 39.595 7.49565 38.4721 7.96244 36.9203H65.0376C65.517 38.4721 66.9553 39.595 68.6458 39.595C70.7275 39.595 72.418 37.9044 72.418 35.8227C72.4432 33.7411 70.7401 32.0505 68.6584 32.0505Z" fill="#50E6FF"/>
<path d="M61.0253 7.56409C58.9436 7.56409 57.2531 9.25464 57.2531 11.3363C57.2531 12.068 57.4549 12.7367 57.8082 13.317L35.7931 35.3321L37.1304 36.6694L59.1707 14.6291C59.7132 14.9445 60.3566 15.1211 61.0253 15.1211C63.1069 15.1211 64.7975 13.4306 64.7975 11.3489C64.8101 9.25464 63.1069 7.56409 61.0253 7.56409Z" fill="#0075DA"/>
<path d="M34.6831 36.4392L13.8791 57.2431C13.3114 56.9025 12.6428 56.7006 11.9363 56.7006C9.85462 56.7006 8.16406 58.3912 8.16406 60.4728C8.16406 62.5545 9.85462 64.2451 11.9363 64.2451C14.0179 64.2451 15.7085 62.5545 15.7085 60.4728C15.7085 59.7916 15.5192 59.1482 15.2038 58.593L36.0204 37.7765L34.6831 36.4392Z" fill="#0075DA"/>
<path d="M61.0632 56.7794C60.382 56.7794 59.7512 56.9561 59.2087 57.2715L15.1785 13.2413C15.5065 12.6862 15.6958 12.0302 15.6958 11.3363C15.6958 9.25464 14.0052 7.56409 11.9236 7.56409C9.84192 7.56409 8.15137 9.25464 8.15137 11.3363C8.15137 13.418 9.84192 15.1085 11.9236 15.1085C12.6301 15.1085 13.2861 14.9193 13.8538 14.5786L57.8587 58.5835C57.5055 59.1639 57.3036 59.8325 57.3036 60.5643C57.3036 62.6459 58.9942 64.3365 61.0758 64.3365C63.1575 64.3365 64.8481 62.6459 64.8481 60.5643C64.8354 58.4826 63.1449 56.7794 61.0632 56.7794Z" fill="#0075DA"/>
<path d="M37.5088 64.4656V7.52922C39.1236 7.10027 40.3096 5.62419 40.3096 3.88317C40.3096 1.80152 38.619 0.110962 36.5373 0.110962C34.4557 0.110962 32.7651 1.80152 32.7651 3.88317C32.7651 5.64942 33.9889 7.13812 35.629 7.55445V64.453C33.9889 64.8567 32.7651 66.3454 32.7651 68.1243C32.7651 70.2059 34.4557 71.8965 36.5373 71.8965C38.619 71.8965 40.3096 70.2059 40.3096 68.1243C40.3096 66.3706 39.1236 64.8946 37.5088 64.4656Z" fill="#50E6FF"/>
<path d="M44.0318 35.7989C44.0318 39.9748 40.6507 43.3559 36.4748 43.3559C32.2988 43.3559 28.9177 39.9748 28.9177 35.7989C28.9177 31.6229 32.2988 28.2418 36.4748 28.2418C40.6507 28.2418 44.0318 31.6229 44.0318 35.7989Z" fill="#0075DA"/>
</svg>
