<svg data-slug-id="speech10" viewBox="0 0 49 48" xmlns="http://www.w3.org/2000/svg">
  <path d="M45.2184 31.5539L43.2044 29.5643V33.5679C43.2044 34.4252 43.0427 35.23 42.7191 35.9822C42.3956 36.7344 41.9508 37.3935 41.3846 37.9597C40.8184 38.5259 40.1593 38.9707 39.4071 39.2942C38.6549 39.6178 37.8501 39.7795 36.9928 39.7795H32.9892L34.9788 41.7935L32.7951 43.9772L27.0444 38.2266L32.7951 32.476L34.9788 34.6598L32.9892 36.6737H36.9928C37.4295 36.6737 37.8339 36.5928 38.206 36.4311C38.578 36.2693 38.9056 36.0469 39.1887 35.7638C39.4718 35.4807 39.6942 35.1531 39.856 34.7811C40.0177 34.409 40.0986 34.0046 40.0986 33.5679V29.5643L38.0847 31.5539L35.9009 29.3702L41.6515 23.6195L47.4021 29.3702L45.2184 31.5539Z" fill="#50E6FF"/>
  <path d="M27.2097 46.1719H20.814L18.9608 40.3759H9.69439L7.85928 46.1719H1.5L10.9844 20.117H17.9433L27.2097 46.1719ZM17.6162 35.8699L14.8182 27.1122C14.6122 26.4581 14.4669 25.6768 14.3821 24.7684H14.2367C14.1762 25.5315 14.0248 26.2885 13.7825 27.0395L10.9481 35.8699H17.6162Z" fill="#0078D4"/>
  <path d="M21.0625 11.0168C21.0786 9.90921 21.0906 8.80961 21.0986 7.71802C21.1066 6.62645 21.0946 5.52684 21.0625 4.41921C21.0625 4.33894 21.0786 4.25065 21.1107 4.15434C21.2391 4.12223 21.3434 4.10618 21.4237 4.10618C22.0979 4.12223 22.7681 4.13828 23.4343 4.15434C24.1004 4.17039 24.7706 4.17842 25.4448 4.17842H32.0665C32.0665 3.66473 32.0625 3.135 32.0545 2.58921C32.0465 2.04342 31.9783 1.51368 31.8498 1C32.9575 1 34.0571 1.04816 35.1487 1.14447C35.245 1.16053 35.3453 1.1846 35.4496 1.21671C35.554 1.24882 35.6062 1.32908 35.6062 1.4575C35.6062 1.55381 35.5821 1.65013 35.5339 1.74645C35.4858 1.84276 35.4456 1.93908 35.4135 2.03539C35.3814 2.11565 35.3533 2.24006 35.3292 2.40861C35.3052 2.57717 35.2891 2.75375 35.2811 2.93835C35.2731 3.12296 35.269 3.29954 35.269 3.46809C35.269 3.63664 35.269 3.76908 35.269 3.86539V4.17842H42.3964C43.0706 4.17842 43.7408 4.17039 44.407 4.15434C45.0732 4.13828 45.7434 4.12223 46.4176 4.10618C46.5299 4.10618 46.6343 4.13026 46.7306 4.17842C46.7788 4.25868 46.8028 4.33894 46.8028 4.4192C46.7868 4.6921 46.7707 4.97703 46.7547 5.27401C46.7386 5.57098 46.7306 5.85591 46.7306 6.12881V7.52538C46.7306 8.10328 46.7386 8.68518 46.7547 9.2711C46.7707 9.85702 46.7868 10.4389 46.8028 11.0168C46.8028 11.065 46.7988 11.1212 46.7908 11.1854C46.7828 11.2496 46.7627 11.2977 46.7306 11.3298C46.6022 11.362 46.4978 11.378 46.4176 11.378C46.3373 11.378 46.1527 11.382 45.8638 11.39C45.5748 11.3981 45.2698 11.4021 44.9488 11.4021C44.6277 11.4021 44.3347 11.3981 44.0699 11.39C43.805 11.382 43.6485 11.3539 43.6003 11.3058C43.5682 11.1292 43.5482 10.8443 43.5401 10.451C43.5321 10.0577 43.5321 9.64031 43.5401 9.19886C43.5482 8.75741 43.5562 8.33202 43.5642 7.92268C43.5722 7.51334 43.5763 7.1963 43.5763 6.97156H24.2651C24.2651 7.05183 24.2691 7.21235 24.2771 7.45314C24.2851 7.69393 24.2891 7.97084 24.2891 8.28386C24.2891 8.59689 24.2891 8.92998 24.2891 9.28314C24.2891 9.6363 24.2891 9.96136 24.2891 10.2583C24.2891 10.5553 24.2811 10.8041 24.2651 11.0048C24.249 11.2054 24.2249 11.3218 24.1928 11.3539C24.0644 11.386 23.9601 11.4021 23.8798 11.4021H21.4237C21.2472 11.4021 21.1428 11.378 21.1107 11.3298C21.0786 11.2817 21.0626 11.1773 21.0626 11.0168L21.0625 11.0168Z" fill="#0078D4"/>
  <path d="M47.4517 17.2296C47.4838 17.358 47.4999 17.4623 47.4999 17.5426V19.8542C47.4999 19.9184 47.4838 20.0147 47.4517 20.1431C47.3233 20.1752 47.219 20.1913 47.1387 20.1913C46.4966 20.1752 45.8625 20.1592 45.2365 20.1431C44.6104 20.1271 43.9763 20.119 43.3342 20.119H35.6049C35.5889 21.0822 35.5929 22.0494 35.6169 23.0205C35.641 23.9917 35.6691 24.9589 35.7012 25.9221C35.7173 26.3234 35.6531 26.7247 35.5086 27.126C35.3641 27.5273 35.1233 27.8484 34.7862 28.0892C34.5615 28.2497 34.2444 28.3741 33.8351 28.4624C33.4258 28.5507 32.9883 28.6149 32.5228 28.655C32.0573 28.6951 31.6038 28.7192 31.1623 28.7273C30.7209 28.7353 30.3718 28.7393 30.1149 28.7393C30.0186 28.7393 29.8661 28.7353 29.6574 28.7273C29.4487 28.7192 29.3043 28.6751 29.224 28.5948C29.1758 28.5467 29.1197 28.4182 29.0554 28.2096C28.9912 28.0009 28.9431 27.8564 28.911 27.7761C28.7986 27.3588 28.6662 26.9695 28.5137 26.6083C28.3612 26.2471 28.1725 25.8819 27.9478 25.5127C28.4936 25.5769 29.0394 25.6211 29.5852 25.6452C30.131 25.6692 30.6768 25.6813 31.2225 25.6813C31.6078 25.6813 31.9008 25.6211 32.1014 25.5007C32.3021 25.3803 32.4024 25.1114 32.4024 24.694V20.119H24.7212C24.0791 20.119 23.437 20.1271 22.7949 20.1431C22.1528 20.1592 21.5107 20.1752 20.8686 20.1913C20.7402 20.1913 20.6439 20.1672 20.5797 20.119C20.5475 20.0227 20.5315 19.9344 20.5315 19.8542V17.5426C20.5315 17.4944 20.5355 17.4342 20.5435 17.362C20.5516 17.2898 20.5716 17.2376 20.6037 17.2055C20.7 17.1734 20.7883 17.1573 20.8686 17.1573C21.5107 17.1734 22.1528 17.1894 22.7949 17.2055C23.437 17.2216 24.0791 17.2296 24.7212 17.2296H32.4024C32.3703 16.8122 32.3502 16.3908 32.3422 15.9654C32.3342 15.54 32.29 15.1187 32.2098 14.7013C32.5629 14.7334 32.9081 14.7655 33.2452 14.7976C33.5823 14.8297 33.9274 14.8618 34.2806 14.8939C34.8424 14.4926 35.3802 14.0672 35.8939 13.6177C36.4075 13.1683 36.9212 12.7108 37.4349 12.2452H30.0186C29.3444 12.2452 28.6742 12.2533 28.008 12.2693C27.3418 12.2854 26.6716 12.3014 25.9974 12.3175C25.869 12.3175 25.7727 12.2934 25.7085 12.2452C25.6764 12.1489 25.6603 12.0606 25.6603 11.9804V9.69288C25.6603 9.62867 25.6764 9.53236 25.7085 9.40394C25.8369 9.37183 25.9332 9.35578 25.9974 9.35578C26.6716 9.37183 27.3418 9.38788 28.008 9.40394C28.6742 9.41999 29.3444 9.42801 30.0186 9.42801H39C39.2569 9.42801 39.4977 9.3919 39.7224 9.31966C39.9471 9.24742 40.1478 9.2113 40.3244 9.2113C40.4528 9.2113 40.6374 9.30762 40.8782 9.50025C41.119 9.69288 41.3598 9.91762 41.6006 10.1745C41.8413 10.4313 42.054 10.6922 42.2387 10.957C42.4233 11.2219 42.5156 11.4185 42.5156 11.547C42.5156 11.7075 42.4634 11.8319 42.359 11.9202C42.2547 12.0085 42.1383 12.0847 42.0099 12.1489C41.7852 12.2613 41.5685 12.4058 41.3598 12.5824C41.1511 12.7589 40.9504 12.9275 40.7578 13.088C39.9231 13.7783 39.0843 14.4485 38.2416 15.0986C37.3988 15.7487 36.5199 16.3708 35.6049 16.9647V17.2296H43.3343C43.9764 17.2296 44.6104 17.2215 45.2365 17.2055C45.8625 17.1894 46.4966 17.1734 47.1387 17.1573C47.2511 17.1573 47.3554 17.1814 47.4517 17.2296Z" fill="#0078D4"/>
</svg>
