<svg data-slug-id="speech06" viewBox="0 0 48 49" xmlns="http://www.w3.org/2000/svg">
<path d="M34.8022 34.002L38.3877 37.59L34.8022 41.178V34.002Z" fill="#50E6FF"/>
<path d="M13.2557 15.7518L9.67017 12.1637L13.2557 8.57574V15.7518Z" fill="#0078D4"/>
<path d="M11.3283 48.82H24.029C30.2825 48.82 35.3578 43.7412 35.3578 37.4832C35.3578 31.2253 30.2825 26.1465 24.029 26.1465H11.3283C5.07474 26.1381 -0.000488281 31.2169 -0.000488281 37.4748C-0.000488281 43.7412 5.07474 48.82 11.3283 48.82Z" fill="#50E6FF"/>
<path d="M20.149 37.2641C20.2668 38.797 19.0043 40.0604 17.4725 39.9425C16.2689 39.8499 15.2926 38.8729 15.2 37.6684C15.0822 36.1355 16.3447 34.8721 17.8765 34.9901C19.0801 35.0911 20.0564 36.0597 20.149 37.2641Z" fill="white"/>
<path d="M12.5743 37.2641C12.6921 38.797 11.4296 40.0604 9.8978 39.9425C8.69422 39.8499 7.71789 38.8729 7.62531 37.6684C7.50748 36.1355 8.76997 34.8721 10.3018 34.9901C11.5054 35.0911 12.4817 36.0597 12.5743 37.2641Z" fill="white"/>
<path d="M27.7237 37.2641C27.8415 38.797 26.579 40.0604 25.0472 39.9425C23.8436 39.8499 22.8673 38.8729 22.7747 37.6684C22.6569 36.1355 23.9194 34.8721 25.4512 34.9901C26.6548 35.0911 27.6311 36.0597 27.7237 37.2641Z" fill="white"/>
<path d="M23.8945 23.5427H36.5952C42.8487 23.5427 47.9239 18.4639 47.9239 12.2059C47.9239 5.94796 42.8571 0.869171 36.5952 0.869171H23.8945C17.6409 0.869171 12.5657 5.94796 12.5657 12.2059C12.5657 18.4723 17.6409 23.5427 23.8945 23.5427Z" fill="#0078D4"/>
<path d="M32.7149 11.9953C32.8327 13.5282 31.5703 14.7916 30.0384 14.6737C28.8348 14.581 27.8585 13.604 27.7659 12.3996C27.6481 10.8667 28.9106 9.60332 30.4424 9.72123C31.6544 9.81388 32.6223 10.7909 32.7149 11.9953Z" fill="#50E6FF"/>
<path d="M25.14 11.9953C25.2578 13.5282 23.9953 14.7916 22.4635 14.6737C21.2599 14.581 20.2836 13.604 20.191 12.3996C20.0731 10.8667 21.3356 9.60332 22.8675 9.72123C24.0795 9.81388 25.0474 10.7909 25.14 11.9953Z" fill="#50E6FF"/>
<path d="M40.2899 11.9953C40.4077 13.5282 39.1452 14.7916 37.6134 14.6737C36.4098 14.581 35.4335 13.604 35.3409 12.3996C35.2231 10.8667 36.4855 9.60332 38.0174 9.72123C39.2294 9.81388 40.1973 10.7909 40.2899 11.9953Z" fill="#50E6FF"/>
</svg>
