<svg data-slug-id="speech09" viewBox="0 0 48 49" xmlns="http://www.w3.org/2000/svg">
<g clip-path="url(#speech09_clip0)">
<rect x="20" y="7.54785" width="12" height="24" fill="#50E6FF"/>
<path d="M24 38.2286C25.6178 38.2286 27.1422 37.8065 28.4644 37.0873C29.2422 36.6495 29.9733 36.1179 30.5956 35.4768C31.2178 34.8514 31.7467 34.1479 32.1667 33.3817C32.9133 32.0371 33.3333 30.4892 33.3333 28.8475V9.92896C33.3333 9.60062 33.3178 9.28792 33.2867 8.97521C32.8044 4.23775 28.8378 0.547852 24 0.547852C18.8511 0.547852 14.6667 4.75372 14.6667 9.92896V28.8475C14.6667 28.9257 14.6667 29.0039 14.6667 29.0821C14.8067 34.1635 18.9289 38.2286 24 38.2286ZM31.4667 26.9713H26.8C26.2867 26.9713 25.8667 26.5492 25.8667 26.0332C25.8667 25.5172 26.2867 25.0951 26.8 25.0951H31.4667V26.9713ZM31.4667 23.2189H24.9333C24.42 23.2189 24 22.7967 24 22.2808C24 21.7648 24.42 21.3426 24.9333 21.3426H31.4667V23.2189ZM26.8 10.0853H31.4667V11.9615H26.8C26.2867 11.9615 25.8667 11.5394 25.8667 11.0234C25.8667 10.5075 26.2867 10.0853 26.8 10.0853ZM24.9333 13.8378H31.4667V15.714H24.9333C24.42 15.714 24 15.2918 24 14.7759C24 14.2599 24.42 13.8378 24.9333 13.8378ZM23.0667 17.5902H31.4667V19.4664H23.0667C22.5533 19.4664 22.1333 19.0443 22.1333 18.5283C22.1333 18.0123 22.5533 17.5902 23.0667 17.5902ZM24.9333 42.8879V46.6716H31.4667C31.98 46.6716 32.4 47.0938 32.4 47.6097C32.4 48.1257 31.98 48.5479 31.4667 48.5479H16.5333C16.02 48.5479 15.6 48.1257 15.6 47.6097C15.6 47.0938 16.02 46.6716 16.5333 46.6716H23.0667V42.8879C15.7867 42.4032 10 36.2899 10 28.8475C10 28.3316 10.42 27.9094 10.9333 27.9094C11.4467 27.9094 11.8667 28.3316 11.8667 28.8475C11.8667 35.5707 17.3111 41.043 24 41.043C30.6889 41.043 36.1333 35.5707 36.1333 28.8475C36.1333 28.3316 36.5533 27.9094 37.0667 27.9094C37.58 27.9094 38 28.3316 38 28.8475C38 36.2899 32.2133 42.4032 24.9333 42.8879Z" fill="#0078D4"/>
</g>
<defs>
<clipPath id="speech09_clip0">
<path d="M0 0.547852H48V48.5479H0V0.547852Z" fill="white"/>
</clipPath>
</defs>
</svg>
