<svg data-slug-id="speech-service41" viewBox="0 0 48 48" xmlns="http://www.w3.org/2000/svg">
<rect x="25.7928" y="8" width="22.2072" height="15.8623" fill="#0078D4"/>
<rect x="12.004" y="31.2334" width="5.62121" height="6.24579" fill="#50E6FF"/>
<rect x="11.9498" y="25.124" width="4.54239" height="6.05652" fill="#0078D4"/>
<path fill-rule="evenodd" clip-rule="evenodd" d="M38.4773 10.1949C37.9699 10.0536 37.4433 9.98291 36.8972 9.98291L36.8972 9.98291C36.3473 9.98291 35.8197 10.0536 35.3143 10.1949C34.8089 10.3363 34.3355 10.5357 33.894 10.7933C33.4525 11.0508 33.0507 11.3606 32.6886 11.7227C32.3265 12.0848 32.0167 12.4866 31.7592 12.9281C31.5017 13.3695 31.3022 13.8439 31.1609 14.3512C31.0195 14.8586 30.9489 15.3852 30.9489 15.9313C30.9489 16.4812 31.0195 17.0088 31.1609 17.5142C31.3022 18.0196 31.5017 18.493 31.7592 18.9345C32.0167 19.376 32.3265 19.7778 32.6886 20.1399C33.0507 20.502 33.4525 20.8118 33.894 21.0693C34.3355 21.3268 34.8099 21.5263 35.3172 21.6676C35.8245 21.809 36.3512 21.8796 36.8972 21.8796C37.4433 21.8796 37.9699 21.809 38.4773 21.6676C38.9846 21.5263 39.459 21.3268 39.9004 21.0693C40.3419 20.8118 40.7437 20.502 41.1058 20.1399C41.4679 19.7778 41.7777 19.376 42.0352 18.9345C42.2928 18.493 42.4922 18.0186 42.6336 17.5113C42.7749 17.004 42.8456 16.4773 42.8456 15.9313C42.8456 15.3852 42.7749 14.8586 42.6336 14.3512C42.4922 13.8439 42.2928 13.3695 42.0352 12.928C41.7777 12.4866 41.4679 12.0848 41.1058 11.7227C40.7437 11.3606 40.3419 11.0508 39.9004 10.7933C39.459 10.5357 38.9846 10.3363 38.4773 10.1949ZM41.0617 12.8148C41.2708 13.0917 41.449 13.387 41.5961 13.7007L39.6618 13.7007C39.6153 13.4683 39.5611 13.234 39.4991 12.9978C39.4372 12.7616 39.3626 12.5283 39.2755 12.2978C39.1883 12.0674 39.0886 11.8438 38.9763 11.6269C38.864 11.41 38.7381 11.2048 38.5987 11.0112C38.924 11.1235 39.2358 11.2687 39.534 11.4468C39.8322 11.625 40.1091 11.8283 40.3646 12.0568C40.6202 12.2852 40.8526 12.5379 41.0617 12.8148ZM42.102 15.9312C42.102 15.4161 42.0303 14.9204 41.887 14.4441H39.7784C39.8094 14.6919 39.8326 14.9388 39.8481 15.1847C39.8636 15.4306 39.8713 15.6795 39.8713 15.9312C39.8713 16.1829 39.8636 16.4317 39.8481 16.6776C39.8326 16.9235 39.8094 17.1704 39.7784 17.4183H41.887C42.0303 16.9419 42.102 16.4462 42.102 15.9312ZM37.4286 20.9792C37.264 21.0838 37.0869 21.1361 36.8971 21.1361C36.7073 21.1361 36.5302 21.0838 36.3656 20.9792C36.201 20.8747 36.049 20.7372 35.9096 20.5668C35.7702 20.3964 35.6453 20.2037 35.5349 19.9888C35.4245 19.7739 35.3267 19.556 35.2415 19.3353C35.1564 19.1146 35.0847 18.9016 35.0266 18.6963C34.9685 18.4911 34.924 18.3129 34.893 18.1619H38.9012C38.8702 18.3129 38.8257 18.4911 38.7676 18.6963C38.7095 18.9016 38.6378 19.1146 38.5526 19.3353C38.4674 19.556 38.3697 19.7739 38.2593 19.9888C38.1489 20.2037 38.024 20.3964 37.8846 20.5668C37.7452 20.7372 37.5932 20.8747 37.4286 20.9792ZM39.0291 17.4183C39.0601 17.1704 39.0843 16.9235 39.1017 16.6776C39.1191 16.4317 39.1278 16.1829 39.1278 15.9312C39.1278 15.6795 39.1191 15.4306 39.1017 15.1847C39.0843 14.9388 39.0601 14.6919 39.0291 14.4441H34.7653C34.7343 14.6919 34.7101 14.9388 34.6927 15.1847C34.6753 15.4306 34.6666 15.6795 34.6666 15.9312C34.6666 16.1829 34.6753 16.4317 34.6927 16.6776C34.7101 16.9235 34.7343 17.1704 34.7653 17.4183H39.0291ZM31.9066 17.4183C31.7633 16.9419 31.6917 16.4462 31.6917 15.9312C31.6917 15.4161 31.7633 14.9204 31.9066 14.4441H34.0153C33.9843 14.6919 33.961 14.9388 33.9456 15.1847C33.9301 15.4306 33.9223 15.6795 33.9223 15.9312C33.9223 16.1829 33.9301 16.4317 33.9456 16.6776C33.961 16.9235 33.9843 17.1704 34.0153 17.4183H31.9066ZM36.8971 10.7263C36.7073 10.7263 36.5302 10.7786 36.3656 10.8831C36.201 10.9877 36.049 11.1252 35.9096 11.2956C35.7702 11.4659 35.6453 11.6586 35.5349 11.8735C35.4245 12.0885 35.3267 12.3063 35.2415 12.5271C35.1564 12.7478 35.0847 12.9608 35.0266 13.166C34.9685 13.3713 34.924 13.5494 34.893 13.7005H38.9012C38.8702 13.5494 38.8257 13.3713 38.7676 13.166C38.7095 12.9608 38.6378 12.7478 38.5526 12.5271C38.4674 12.3063 38.3697 12.0885 38.2593 11.8735C38.1489 11.6586 38.024 11.4659 37.8846 11.2956C37.7452 11.1252 37.5932 10.9877 37.4286 10.8831C37.264 10.7786 37.0869 10.7263 36.8971 10.7263ZM34.2593 11.4468C34.5575 11.2687 34.8692 11.1235 35.1945 11.0112L35.1945 11.0112C35.0551 11.2048 34.9292 11.41 34.8169 11.6269C34.7046 11.8438 34.6049 12.0674 34.5178 12.2978C34.4306 12.5283 34.3561 12.7616 34.2941 12.9978C34.2322 13.234 34.178 13.4683 34.1315 13.7007H32.1971C32.3443 13.387 32.5224 13.0917 32.7315 12.8148C32.9406 12.5379 33.173 12.2852 33.4286 12.0568C33.6842 11.8283 33.9611 11.625 34.2593 11.4468ZM32.1971 18.1619C32.3443 18.4756 32.5224 18.7709 32.7315 19.0478C32.9406 19.3247 33.173 19.5773 33.4286 19.8058C33.6842 20.0343 33.9611 20.2376 34.2593 20.4158C34.5575 20.5939 34.8692 20.7391 35.1945 20.8514C35.0551 20.6578 34.9292 20.4526 34.8169 20.2357C34.7046 20.0188 34.6049 19.7952 34.5178 19.5648C34.4306 19.3343 34.3561 19.101 34.2941 18.8648C34.2322 18.6286 34.178 18.3943 34.1315 18.1619L32.1971 18.1619ZM39.534 20.4158C39.2358 20.5939 38.924 20.7391 38.5987 20.8514C38.7381 20.6578 38.864 20.4526 38.9763 20.2357C39.0886 20.0188 39.1883 19.7952 39.2755 19.5648C39.3626 19.3343 39.4372 19.101 39.4991 18.8648C39.5611 18.6285 39.6153 18.3943 39.6618 18.1619H41.5961C41.449 18.4756 41.2708 18.7709 41.0617 19.0478C40.8526 19.3247 40.6202 19.5773 40.3646 19.8058C40.1091 20.0343 39.8322 20.2376 39.534 20.4158Z" fill="#50E6FF"/>
<path d="M36.8972 9.98291V9.89298H36.862L36.8362 9.91686L36.8972 9.98291ZM38.4773 10.1949L38.5014 10.1083L38.4773 10.1949ZM36.8972 9.98291V10.0728H36.9324L36.9582 10.049L36.8972 9.98291ZM35.3143 10.1949L35.2901 10.1083L35.2901 10.1083L35.3143 10.1949ZM33.894 10.7933L33.9393 10.8709L33.9393 10.8709L33.894 10.7933ZM32.6886 11.7227L32.625 11.6591L32.6886 11.7227ZM31.7592 12.9281L31.8369 12.9734L31.7592 12.9281ZM31.1609 14.3512L31.0742 14.3271L31.1609 14.3512ZM31.1609 17.5142L31.0743 17.5384L31.0743 17.5384L31.1609 17.5142ZM31.7592 18.9345L31.8369 18.8892L31.8369 18.8892L31.7592 18.9345ZM32.6886 20.1399L32.7522 20.0763L32.6886 20.1399ZM38.4773 21.6676L38.5014 21.7543H38.5014L38.4773 21.6676ZM39.9004 21.0693L39.8551 20.9916H39.8551L39.9004 21.0693ZM41.1058 20.1399L41.0422 20.0763L41.1058 20.1399ZM42.6336 17.5113L42.5469 17.4872L42.6336 17.5113ZM42.6336 14.3512L42.7202 14.3271V14.3271L42.6336 14.3512ZM42.0352 12.928L41.9576 12.9734V12.9734L42.0352 12.928ZM41.1058 11.7227L41.0422 11.7863V11.7863L41.1058 11.7227ZM39.9004 10.7933L39.8551 10.8709L39.9004 10.7933ZM41.5961 13.7007V13.7906L41.7377 13.7906L41.6776 13.6625L41.5961 13.7007ZM41.0617 12.8148L41.1335 12.7606V12.7606L41.0617 12.8148ZM39.6618 13.7007L39.5736 13.7183L39.588 13.7906H39.6618V13.7007ZM39.4991 12.9978L39.4121 13.0206V13.0206L39.4991 12.9978ZM39.2755 12.2978L39.3596 12.266V12.266L39.2755 12.2978ZM38.9763 11.6269L39.0562 11.5855L39.0562 11.5855L38.9763 11.6269ZM38.5987 11.0112L38.6281 10.9261L38.3601 10.8336L38.5257 11.0637L38.5987 11.0112ZM39.534 11.4468L39.4878 11.524L39.534 11.4468ZM40.3646 12.0568L40.3047 12.1238L40.3646 12.0568ZM41.887 14.4441L41.9731 14.4182L41.9539 14.3542H41.887V14.4441ZM39.7784 14.4441V14.3542H39.6765L39.6891 14.4552L39.7784 14.4441ZM39.8481 15.1847L39.7583 15.1904V15.1904L39.8481 15.1847ZM39.8481 16.6776L39.7583 16.672L39.8481 16.6776ZM39.7784 17.4183L39.6891 17.4071L39.6765 17.5082H39.7784V17.4183ZM41.887 17.4183V17.5082H41.9539L41.9731 17.4442L41.887 17.4183ZM37.4286 20.9792L37.4768 21.0552L37.4768 21.0551L37.4286 20.9792ZM36.3656 20.9792L36.3174 21.0551L36.3174 21.0552L36.3656 20.9792ZM35.9096 20.5668L35.84 20.6238H35.84L35.9096 20.5668ZM35.5349 19.9888L35.6149 19.9477L35.5349 19.9888ZM35.2415 19.3353L35.1576 19.3677V19.3677L35.2415 19.3353ZM35.0266 18.6963L34.9401 18.7208H34.9401L35.0266 18.6963ZM34.893 18.1619V18.072H34.7828L34.8049 18.18L34.893 18.1619ZM38.9012 18.1619L38.9893 18.18L39.0114 18.072H38.9012V18.1619ZM38.7676 18.6963L38.681 18.6718L38.7676 18.6963ZM38.5526 19.3353L38.6365 19.3677V19.3677L38.5526 19.3353ZM38.2593 19.9888L38.1793 19.9477L38.2593 19.9888ZM37.8846 20.5668L37.815 20.5099H37.815L37.8846 20.5668ZM39.1017 16.6776L39.012 16.6713V16.6713L39.1017 16.6776ZM39.0291 17.4183V17.5082H39.1085L39.1183 17.4294L39.0291 17.4183ZM39.1017 15.1847L39.012 15.1911V15.1911L39.1017 15.1847ZM39.0291 14.4441L39.1183 14.4329L39.1085 14.3542H39.0291V14.4441ZM34.7653 14.4441V14.3542H34.6859L34.6761 14.4329L34.7653 14.4441ZM34.6927 15.1847L34.7824 15.1911L34.6927 15.1847ZM34.6927 16.6776L34.603 16.684L34.6927 16.6776ZM34.7653 17.4183L34.6761 17.4294L34.6859 17.5082H34.7653V17.4183ZM31.9066 17.4183L31.8205 17.4442L31.8398 17.5082H31.9066V17.4183ZM31.9066 14.4441V14.3542H31.8398L31.8205 14.4182L31.9066 14.4441ZM34.0153 14.4441L34.1045 14.4552L34.1171 14.3542H34.0153V14.4441ZM33.9456 15.1847L34.0353 15.1904L33.9456 15.1847ZM33.9456 16.6776L34.0353 16.672L33.9456 16.6776ZM34.0153 17.4183V17.5082H34.1171L34.1045 17.4071L34.0153 17.4183ZM36.3656 10.8831L36.4138 10.959L36.4138 10.959L36.3656 10.8831ZM35.9096 11.2956L35.9792 11.3525L35.9792 11.3525L35.9096 11.2956ZM35.5349 11.8735L35.6149 11.9146V11.9146L35.5349 11.8735ZM35.2415 12.5271L35.1576 12.4947V12.4947L35.2415 12.5271ZM35.0266 13.166L35.1132 13.1905V13.1905L35.0266 13.166ZM34.893 13.7005L34.8049 13.6824L34.7828 13.7904H34.893V13.7005ZM38.9012 13.7005V13.7904H39.0114L38.9893 13.6824L38.9012 13.7005ZM38.7676 13.166L38.8541 13.1415V13.1415L38.7676 13.166ZM38.5526 12.5271L38.4687 12.5594L38.5526 12.5271ZM38.2593 11.8735L38.1793 11.9146V11.9146L38.2593 11.8735ZM37.8846 11.2956L37.9542 11.2386V11.2386L37.8846 11.2956ZM37.4286 10.8831L37.4768 10.8072L37.4768 10.8072L37.4286 10.8831ZM35.1945 11.0112L35.2714 11.0578L35.4004 10.8449L35.1652 10.9261L35.1945 11.0112ZM34.2593 11.4468L34.2132 11.3696V11.3696L34.2593 11.4468ZM35.1945 11.0112L35.2677 11.0639L35.2714 11.0578L35.1945 11.0112ZM34.8169 11.6269L34.8968 11.6683L34.8968 11.6683L34.8169 11.6269ZM34.5178 12.2978L34.4337 12.266V12.266L34.5178 12.2978ZM34.2941 12.9978L34.3811 13.0206V13.0206L34.2941 12.9978ZM34.1315 13.7007V13.7906H34.2052L34.2197 13.7183L34.1315 13.7007ZM32.1971 13.7007L32.1157 13.6625L32.0556 13.7906H32.1971V13.7007ZM32.7315 12.8148L32.8033 12.869L32.8033 12.869L32.7315 12.8148ZM33.4286 12.0568L33.4885 12.1238L33.4885 12.1238L33.4286 12.0568ZM32.7315 19.0478L32.6598 19.102H32.6598L32.7315 19.0478ZM32.1971 18.1619L32.1971 18.072H32.0556L32.1157 18.2001L32.1971 18.1619ZM33.4286 19.8058L33.3687 19.8729L33.4286 19.8058ZM34.2593 20.4158L34.3054 20.3386H34.3054L34.2593 20.4158ZM35.1945 20.8514L35.1652 20.9364L35.4332 21.029L35.2675 20.7989L35.1945 20.8514ZM34.8169 20.2357L34.7371 20.2771H34.7371L34.8169 20.2357ZM34.5178 19.5648L34.4337 19.5966H34.4337L34.5178 19.5648ZM34.2941 18.8648L34.3811 18.842L34.2941 18.8648ZM34.1315 18.1619L34.2197 18.1443L34.2052 18.072H34.1315L34.1315 18.1619ZM38.5987 20.8514L38.5257 20.7989L38.3601 21.029L38.6281 20.9364L38.5987 20.8514ZM38.9763 20.2357L38.8965 20.1943L38.9763 20.2357ZM39.2755 19.5648L39.3596 19.5966L39.2755 19.5648ZM39.6618 18.1619V18.072H39.588L39.5736 18.1443L39.6618 18.1619ZM41.5961 18.1619L41.6776 18.2001L41.7377 18.072H41.5961V18.1619ZM41.0617 19.0478L40.99 18.9936L41.0617 19.0478ZM40.3646 19.8058L40.3047 19.7388L40.3646 19.8058ZM36.8972 10.0728C37.4354 10.0728 37.9539 10.1425 38.4531 10.2816L38.5014 10.1083C37.9859 9.96468 37.4511 9.89298 36.8972 9.89298V10.0728ZM36.9582 10.049L36.9583 10.049L36.8362 9.91686L36.8362 9.91686L36.9582 10.049ZM35.3385 10.2815C35.8356 10.1425 36.3551 10.0728 36.8972 10.0728V9.89298C36.3395 9.89298 35.8037 9.96467 35.2901 10.1083L35.3385 10.2815ZM33.9393 10.8709C34.374 10.6174 34.8403 10.4209 35.3385 10.2815L35.2901 10.1083C34.7775 10.2517 34.297 10.4541 33.8487 10.7156L33.9393 10.8709ZM32.7522 11.7863C33.1089 11.4296 33.5045 11.1246 33.9393 10.8709L33.8487 10.7156C33.4005 10.977 32.9926 11.2916 32.625 11.6591L32.7522 11.7863ZM31.8369 12.9734C32.0905 12.5386 32.3956 12.1429 32.7522 11.7863L32.625 11.6591C32.2575 12.0266 31.9429 12.4346 31.6815 12.8827L31.8369 12.9734ZM31.2475 14.3754C31.3869 13.8753 31.5833 13.408 31.8369 12.9734L31.6815 12.8827C31.42 13.3311 31.2176 13.8126 31.0742 14.3271L31.2475 14.3754ZM31.0388 15.9313C31.0388 15.3931 31.1084 14.8746 31.2475 14.3754L31.0742 14.3271C30.9306 14.8426 30.8589 15.3774 30.8589 15.9313H31.0388ZM31.2475 17.49C31.1084 16.9929 31.0388 16.4734 31.0388 15.9313H30.8589C30.8589 16.489 30.9306 17.0248 31.0743 17.5384L31.2475 17.49ZM31.8369 18.8892C31.5833 18.4545 31.3868 17.9882 31.2475 17.49L31.0743 17.5384C31.2176 18.051 31.42 18.5315 31.6815 18.9798L31.8369 18.8892ZM32.7522 20.0763C32.3956 19.7196 32.0905 19.324 31.8369 18.8892L31.6815 18.9798C31.9429 19.428 32.2575 19.8359 32.625 20.2035L32.7522 20.0763ZM33.9393 20.9916C33.5045 20.738 33.1089 20.4329 32.7522 20.0763L32.625 20.2035C32.9926 20.571 33.4005 20.8855 33.8487 21.147L33.9393 20.9916ZM35.3413 21.581C34.8412 21.4416 34.3739 21.2452 33.9393 20.9916L33.8487 21.147C34.297 21.4085 34.7785 21.6109 35.293 21.7543L35.3413 21.581ZM36.8972 21.7897C36.359 21.7897 35.8405 21.7201 35.3413 21.581L35.293 21.7543C35.8085 21.8979 36.3433 21.9696 36.8972 21.9696V21.7897ZM38.4531 21.581C37.9539 21.7201 37.4354 21.7897 36.8972 21.7897V21.9696C37.4511 21.9696 37.9859 21.8979 38.5014 21.7543L38.4531 21.581ZM39.8551 20.9916C39.4205 21.2452 38.9532 21.4416 38.4531 21.581L38.5014 21.7543C39.0159 21.6109 39.4974 21.4085 39.9458 21.147L39.8551 20.9916ZM41.0422 20.0763C40.6856 20.4329 40.2899 20.738 39.8551 20.9916L39.9458 21.147C40.3939 20.8855 40.8019 20.571 41.1694 20.2035L41.0422 20.0763ZM41.9576 18.8892C41.7039 19.324 41.3989 19.7196 41.0422 20.0763L41.1694 20.2035C41.5369 19.8359 41.8515 19.428 42.1129 18.9798L41.9576 18.8892ZM42.5469 17.4872C42.4076 17.9873 42.2111 18.4546 41.9576 18.8892L42.1129 18.9798C42.3744 18.5315 42.5768 18.05 42.7202 17.5355L42.5469 17.4872ZM42.7557 15.9313C42.7557 16.4695 42.686 16.988 42.5469 17.4872L42.7202 17.5355C42.8638 17.02 42.9355 16.4852 42.9355 15.9313H42.7557ZM42.5469 14.3754C42.686 14.8746 42.7557 15.3931 42.7557 15.9313H42.9355C42.9355 15.3774 42.8638 14.8426 42.7202 14.3271L42.5469 14.3754ZM41.9576 12.9734C42.2111 13.408 42.4076 13.8752 42.5469 14.3754L42.7202 14.3271C42.5768 13.8126 42.3744 13.3311 42.1129 12.8827L41.9576 12.9734ZM41.0422 11.7863C41.3989 12.1429 41.7039 12.5386 41.9576 12.9734L42.1129 12.8827C41.8515 12.4346 41.5369 12.0266 41.1694 11.6591L41.0422 11.7863ZM39.8551 10.8709C40.2899 11.1246 40.6856 11.4296 41.0422 11.7863L41.1694 11.6591C40.8019 11.2916 40.3939 10.977 39.9458 10.7156L39.8551 10.8709ZM38.4531 10.2816C38.9532 10.4209 39.4205 10.6174 39.8551 10.8709L39.9458 10.7156C39.4974 10.4541 39.0159 10.2517 38.5014 10.1083L38.4531 10.2816ZM41.6776 13.6625C41.5277 13.3432 41.3464 13.0425 41.1335 12.7606L40.99 12.869C41.1953 13.1409 41.3702 13.4309 41.5147 13.7389L41.6776 13.6625ZM39.6618 13.7906L41.5961 13.7906V13.6108L39.6618 13.6108V13.7906ZM39.4121 13.0206C39.4737 13.2552 39.5275 13.4878 39.5736 13.7183L39.75 13.6831C39.7031 13.4489 39.6485 13.2129 39.5861 12.975L39.4121 13.0206ZM39.1914 12.3296C39.2774 12.5571 39.351 12.7875 39.4121 13.0206L39.5861 12.975C39.5233 12.7357 39.4478 12.4994 39.3596 12.266L39.1914 12.3296ZM38.8964 11.6683C39.0071 11.882 39.1054 12.1025 39.1914 12.3296L39.3596 12.266C39.2712 12.0324 39.1701 11.8055 39.0562 11.5855L38.8964 11.6683ZM38.5257 11.0637C38.6625 11.2537 38.7861 11.4552 38.8964 11.6683L39.0562 11.5855C38.9419 11.3649 38.8137 11.1559 38.6717 10.9586L38.5257 11.0637ZM39.5801 11.3696C39.2766 11.1883 38.9593 11.0405 38.6281 10.9261L38.5694 11.0962C38.8888 11.2064 39.1949 11.349 39.4878 11.524L39.5801 11.3696ZM40.4246 11.9897C40.1647 11.7574 39.8831 11.5507 39.5801 11.3696L39.4878 11.524C39.7812 11.6993 40.0534 11.8992 40.3047 12.1238L40.4246 11.9897ZM41.1335 12.7606C40.9209 12.4791 40.6846 12.2221 40.4246 11.9897L40.3047 12.1238C40.5559 12.3484 40.7843 12.5967 40.99 12.869L41.1335 12.7606ZM41.8009 14.47C41.9416 14.9376 42.012 15.4246 42.012 15.9312H42.1919C42.1919 15.4077 42.1191 14.9032 41.9731 14.4182L41.8009 14.47ZM39.7784 14.534H41.887V14.3542H39.7784V14.534ZM39.9378 15.1791C39.9222 14.9313 39.8988 14.6826 39.8676 14.4329L39.6891 14.4552C39.7199 14.7013 39.743 14.9463 39.7583 15.1904L39.9378 15.1791ZM39.9613 15.9312C39.9613 15.6776 39.9535 15.4269 39.9378 15.1791L39.7583 15.1904C39.7737 15.4344 39.7814 15.6813 39.7814 15.9312H39.9613ZM39.9378 16.6833C39.9535 16.4354 39.9613 16.1847 39.9613 15.9312H39.7814C39.7814 16.1811 39.7737 16.428 39.7583 16.672L39.9378 16.6833ZM39.8676 17.4294C39.8988 17.1798 39.9222 16.9311 39.9378 16.6833L39.7583 16.672C39.743 16.916 39.7199 17.1611 39.6891 17.4071L39.8676 17.4294ZM41.887 17.3283H39.7784V17.5082H41.887V17.3283ZM42.012 15.9312C42.012 16.4378 41.9416 16.9247 41.8009 17.3924L41.9731 17.4442C42.1191 16.9591 42.1919 16.4547 42.1919 15.9312H42.012ZM36.8971 21.226C37.1044 21.226 37.2983 21.1686 37.4768 21.0552L37.3804 20.9033C37.2298 20.999 37.0693 21.0461 36.8971 21.0461V21.226ZM36.3174 21.0552C36.4959 21.1686 36.6898 21.226 36.8971 21.226V21.0461C36.7249 21.0461 36.5644 20.999 36.4138 20.9033L36.3174 21.0552ZM35.84 20.6238C35.9847 20.8006 36.1437 20.9448 36.3174 21.0551L36.4138 20.9033C36.2583 20.8045 36.1133 20.6738 35.9792 20.5099L35.84 20.6238ZM35.4549 20.0299C35.5679 20.2499 35.6962 20.448 35.84 20.6238L35.9792 20.5099C35.8441 20.3448 35.7227 20.1576 35.6149 19.9477L35.4549 20.0299ZM35.1576 19.3677C35.244 19.5915 35.3431 19.8122 35.4549 20.0299L35.6149 19.9477C35.506 19.7356 35.4095 19.5206 35.3254 19.3029L35.1576 19.3677ZM34.9401 18.7208C34.999 18.929 35.0716 19.1446 35.1576 19.3677L35.3254 19.3029C35.2411 19.0845 35.1704 18.8741 35.1132 18.6718L34.9401 18.7208ZM34.8049 18.18C34.8365 18.3338 34.8816 18.5142 34.9401 18.7208L35.1132 18.6718C35.0555 18.468 35.0115 18.2921 34.9811 18.1438L34.8049 18.18ZM38.9012 18.072H34.893V18.2518H38.9012V18.072ZM38.8541 18.7208C38.9126 18.5142 38.9577 18.3338 38.9893 18.18L38.8131 18.1438C38.7827 18.2921 38.7387 18.468 38.681 18.6718L38.8541 18.7208ZM38.6365 19.3677C38.7226 19.1446 38.7952 18.929 38.8541 18.7208L38.681 18.6718C38.6238 18.8741 38.553 19.0845 38.4687 19.3029L38.6365 19.3677ZM38.3393 20.0299C38.4511 19.8122 38.5502 19.5915 38.6365 19.3677L38.4687 19.3029C38.3847 19.5206 38.2882 19.7356 38.1793 19.9477L38.3393 20.0299ZM37.9542 20.6238C38.098 20.448 38.2263 20.2499 38.3393 20.0299L38.1793 19.9477C38.0715 20.1576 37.95 20.3448 37.815 20.5099L37.9542 20.6238ZM37.4768 21.0551C37.6505 20.9448 37.8095 20.8006 37.9542 20.6238L37.815 20.5099C37.6809 20.6738 37.5359 20.8045 37.3804 20.9033L37.4768 21.0551ZM39.012 16.6713C38.9947 16.9156 38.9706 17.1608 38.9399 17.4071L39.1183 17.4294C39.1495 17.18 39.1739 16.9315 39.1914 16.684L39.012 16.6713ZM39.0379 15.9312C39.0379 16.1808 39.0293 16.4275 39.012 16.6713L39.1914 16.684C39.209 16.4359 39.2178 16.185 39.2178 15.9312H39.0379ZM39.012 15.1911C39.0293 15.4348 39.0379 15.6815 39.0379 15.9312H39.2178C39.2178 15.6774 39.209 15.4264 39.1914 15.1784L39.012 15.1911ZM38.9399 14.4552C38.9706 14.7015 38.9947 14.9468 39.012 15.1911L39.1914 15.1784C39.1739 14.9308 39.1495 14.6824 39.1183 14.4329L38.9399 14.4552ZM34.7653 14.534H39.0291V14.3542H34.7653V14.534ZM34.7824 15.1911C34.7997 14.9468 34.8238 14.7015 34.8545 14.4552L34.6761 14.4329C34.6449 14.6824 34.6205 14.9308 34.603 15.1784L34.7824 15.1911ZM34.7565 15.9312C34.7565 15.6815 34.7651 15.4348 34.7824 15.1911L34.603 15.1784C34.5854 15.4264 34.5766 15.6774 34.5766 15.9312H34.7565ZM34.7824 16.6713C34.7651 16.4275 34.7565 16.1808 34.7565 15.9312H34.5766C34.5766 16.185 34.5854 16.4359 34.603 16.684L34.7824 16.6713ZM34.8545 17.4071C34.8238 17.1608 34.7997 16.9156 34.7824 16.6713L34.603 16.684C34.6205 16.9315 34.6449 17.18 34.6761 17.4294L34.8545 17.4071ZM39.0291 17.3283H34.7653V17.5082H39.0291V17.3283ZM31.6018 15.9312C31.6018 16.4547 31.6746 16.9591 31.8205 17.4442L31.9927 17.3924C31.8521 16.9247 31.7816 16.4378 31.7816 15.9312H31.6018ZM31.8205 14.4182C31.6746 14.9032 31.6018 15.4077 31.6018 15.9312H31.7816C31.7816 15.4246 31.8521 14.9376 31.9927 14.47L31.8205 14.4182ZM34.0153 14.3542H31.9066V14.534H34.0153V14.3542ZM34.0353 15.1904C34.0507 14.9463 34.0737 14.7013 34.1045 14.4552L33.926 14.4329C33.8948 14.6826 33.8714 14.9313 33.8558 15.1791L34.0353 15.1904ZM34.0123 15.9312C34.0123 15.6813 34.0199 15.4344 34.0353 15.1904L33.8558 15.1791C33.8402 15.4269 33.8324 15.6776 33.8324 15.9312H34.0123ZM34.0353 16.672C34.0199 16.428 34.0123 16.1811 34.0123 15.9312H33.8324C33.8324 16.1847 33.8402 16.4354 33.8558 16.6833L34.0353 16.672ZM34.1045 17.4071C34.0737 17.1611 34.0507 16.916 34.0353 16.672L33.8558 16.6833C33.8714 16.9311 33.8948 17.1798 33.926 17.4294L34.1045 17.4071ZM31.9066 17.5082H34.0153V17.3283H31.9066V17.5082ZM36.4138 10.959C36.5644 10.8634 36.7249 10.8162 36.8971 10.8162V10.6363C36.6898 10.6363 36.4959 10.6938 36.3174 10.8072L36.4138 10.959ZM35.9792 11.3525C36.1133 11.1886 36.2583 11.0578 36.4138 10.959L36.3174 10.8072C36.1437 10.9175 35.9847 11.0617 35.84 11.2386L35.9792 11.3525ZM35.6149 11.9146C35.7227 11.7048 35.8441 11.5175 35.9792 11.3525L35.84 11.2386C35.6962 11.4144 35.5679 11.6124 35.4549 11.8325L35.6149 11.9146ZM35.3254 12.5594C35.4095 12.3417 35.506 12.1268 35.6149 11.9146L35.4549 11.8325C35.3431 12.0502 35.244 12.2709 35.1576 12.4947L35.3254 12.5594ZM35.1132 13.1905C35.1704 12.9882 35.2411 12.7779 35.3254 12.5594L35.1576 12.4947C35.0716 12.7177 34.999 12.9334 34.9401 13.1415L35.1132 13.1905ZM34.9811 13.7185C35.0115 13.5703 35.0555 13.3944 35.1132 13.1905L34.9401 13.1415C34.8816 13.3482 34.8365 13.5286 34.8049 13.6824L34.9811 13.7185ZM38.9012 13.6105H34.893V13.7904H38.9012V13.6105ZM38.681 13.1905C38.7387 13.3944 38.7827 13.5703 38.8131 13.7185L38.9893 13.6824C38.9577 13.5286 38.9126 13.3482 38.8541 13.1415L38.681 13.1905ZM38.4687 12.5594C38.553 12.7779 38.6238 12.9882 38.681 13.1905L38.8541 13.1415C38.7952 12.9334 38.7226 12.7177 38.6365 12.4947L38.4687 12.5594ZM38.1793 11.9146C38.2882 12.1268 38.3847 12.3417 38.4687 12.5594L38.6365 12.4947C38.5502 12.2709 38.4511 12.0502 38.3393 11.8325L38.1793 11.9146ZM37.815 11.3525C37.95 11.5175 38.0715 11.7048 38.1793 11.9146L38.3393 11.8325C38.2263 11.6124 38.098 11.4144 37.9542 11.2386L37.815 11.3525ZM37.3804 10.959C37.5359 11.0578 37.6809 11.1886 37.815 11.3525L37.9542 11.2386C37.8095 11.0617 37.6505 10.9175 37.4768 10.8072L37.3804 10.959ZM36.8971 10.8162C37.0693 10.8162 37.2298 10.8634 37.3804 10.959L37.4768 10.8072C37.2983 10.6938 37.1044 10.6363 36.8971 10.6363V10.8162ZM35.1652 10.9261C34.834 11.0405 34.5166 11.1883 34.2132 11.3696L34.3054 11.524C34.5983 11.349 34.9045 11.2064 35.2239 11.0962L35.1652 10.9261ZM35.2714 11.0578L35.2714 11.0578L35.1176 10.9645L35.1176 10.9645L35.2714 11.0578ZM34.8968 11.6683C35.0071 11.4552 35.1307 11.2537 35.2675 11.0637L35.1215 10.9586C34.9795 11.1559 34.8514 11.3649 34.7371 11.5855L34.8968 11.6683ZM34.6019 12.3296C34.6878 12.1025 34.7861 11.882 34.8968 11.6683L34.7371 11.5855C34.6232 11.8055 34.522 12.0324 34.4337 12.266L34.6019 12.3296ZM34.3811 13.0206C34.4423 12.7875 34.5159 12.5571 34.6019 12.3296L34.4337 12.266C34.3454 12.4994 34.2699 12.7357 34.2071 12.975L34.3811 13.0206ZM34.2197 13.7183C34.2658 13.4878 34.3196 13.2552 34.3811 13.0206L34.2071 12.975C34.1447 13.2129 34.0901 13.4489 34.0433 13.6831L34.2197 13.7183ZM32.1971 13.7906H34.1315V13.6108H32.1971V13.7906ZM32.6598 12.7606C32.4469 13.0425 32.2655 13.3432 32.1157 13.6625L32.2785 13.7389C32.423 13.4309 32.5979 13.1409 32.8033 12.869L32.6598 12.7606ZM33.3687 11.9897C33.1087 12.2221 32.8724 12.4791 32.6598 12.7606L32.8033 12.869C33.0089 12.5967 33.2373 12.3484 33.4885 12.1238L33.3687 11.9897ZM34.2132 11.3696C33.9101 11.5507 33.6286 11.7574 33.3687 11.9897L33.4885 12.1238C33.7398 11.8992 34.0121 11.6993 34.3054 11.524L34.2132 11.3696ZM32.8033 18.9936C32.5979 18.7216 32.423 18.4317 32.2785 18.1237L32.1157 18.2001C32.2655 18.5194 32.4469 18.8201 32.6598 19.102L32.8033 18.9936ZM33.4885 19.7388C33.2373 19.5142 33.0089 19.2659 32.8033 18.9936L32.6598 19.102C32.8724 19.3835 33.1087 19.6405 33.3687 19.8729L33.4885 19.7388ZM34.3054 20.3386C34.0121 20.1633 33.7398 19.9634 33.4885 19.7388L33.3687 19.8729C33.6286 20.1052 33.9101 20.3119 34.2132 20.493L34.3054 20.3386ZM35.2239 20.7664C34.9045 20.6562 34.5983 20.5136 34.3054 20.3386L34.2132 20.493C34.5166 20.6743 34.834 20.8221 35.1652 20.9364L35.2239 20.7664ZM34.7371 20.2771C34.8514 20.4977 34.9795 20.7067 35.1215 20.904L35.2675 20.7989C35.1307 20.6089 35.0071 20.4074 34.8968 20.1943L34.7371 20.2771ZM34.4337 19.5966C34.522 19.8302 34.6232 20.0571 34.7371 20.2771L34.8968 20.1943C34.7861 19.9806 34.6878 19.7601 34.6019 19.533L34.4337 19.5966ZM34.2071 18.8876C34.2699 19.1269 34.3454 19.3632 34.4337 19.5966L34.6019 19.533C34.5159 19.3055 34.4423 19.0751 34.3811 18.842L34.2071 18.8876ZM34.0433 18.1795C34.0901 18.4137 34.1447 18.6497 34.2071 18.8876L34.3811 18.842C34.3196 18.6074 34.2658 18.3748 34.2197 18.1443L34.0433 18.1795ZM32.1971 18.2518L34.1315 18.2518L34.1315 18.072L32.1971 18.072L32.1971 18.2518ZM38.6281 20.9364C38.9593 20.8221 39.2766 20.6743 39.5801 20.493L39.4878 20.3386C39.1949 20.5136 38.8888 20.6562 38.5694 20.7664L38.6281 20.9364ZM38.8965 20.1943C38.7861 20.4074 38.6625 20.6089 38.5257 20.7989L38.6717 20.904C38.8137 20.7067 38.9419 20.4977 39.0562 20.277L38.8965 20.1943ZM39.1914 19.5329C39.1054 19.7601 39.0071 19.9806 38.8965 20.1943L39.0562 20.277C39.1701 20.0571 39.2712 19.8302 39.3596 19.5966L39.1914 19.5329ZM39.4121 18.842C39.351 19.0751 39.2774 19.3054 39.1914 19.5329L39.3596 19.5966C39.4478 19.3632 39.5233 19.1269 39.5861 18.8876L39.4121 18.842ZM39.5736 18.1443C39.5275 18.3748 39.4737 18.6074 39.4121 18.842L39.5861 18.8876C39.6485 18.6497 39.7031 18.4137 39.75 18.1795L39.5736 18.1443ZM41.5961 18.072H39.6618V18.2518H41.5961V18.072ZM41.1335 19.102C41.3464 18.8201 41.5277 18.5194 41.6776 18.2001L41.5147 18.1237C41.3702 18.4317 41.1953 18.7216 40.99 18.9936L41.1335 19.102ZM40.4246 19.8729C40.6846 19.6405 40.9209 19.3835 41.1335 19.102L40.99 18.9936C40.7843 19.2659 40.5559 19.5142 40.3047 19.7388L40.4246 19.8729ZM39.5801 20.493C39.8831 20.3119 40.1647 20.1052 40.4246 19.8729L40.3047 19.7388C40.0534 19.9634 39.7812 20.1633 39.4878 20.3386L39.5801 20.493Z" fill="#50E6FF"/>
<path d="M2 39.1529C2 32.602 7.32875 27.2871 13.8967 27.2871C20.4647 27.2871 25.7935 32.602 25.7935 39.1529H2Z" fill="#0078D4"/>
<path d="M23.6057 21.1464V18.298H22.1815V16.1617C22.1815 15.865 22.1258 15.5869 22.0146 15.3272C21.9033 15.0676 21.7513 14.8414 21.5584 14.6485C21.3655 14.4557 21.1393 14.3036 20.8797 14.1923C20.6201 14.0811 20.3419 14.0254 20.0452 14.0254H15.0605V11.7C15.2756 11.5739 15.4481 11.3996 15.5779 11.1771C15.7077 10.9545 15.7726 10.7172 15.7726 10.465C15.7726 10.2647 15.7355 10.0792 15.6614 9.90864C15.5872 9.73803 15.4852 9.58782 15.3554 9.45801C15.2256 9.32821 15.0754 9.22621 14.9048 9.15204C14.7341 9.07786 14.5487 9.04077 14.3484 9.04077C14.1482 9.04077 13.9627 9.07786 13.7921 9.15204C13.6215 9.22621 13.4713 9.32821 13.3415 9.45801C13.2117 9.58782 13.1097 9.73803 13.0355 9.90864C12.9613 10.0792 12.9242 10.2647 12.9242 10.465C12.9242 10.7172 12.9891 10.9545 13.1189 11.1771C13.2488 11.3996 13.4212 11.5739 13.6363 11.7V14.0254H8.65166C8.35496 14.0254 8.0768 14.0811 7.81718 14.1923C7.55756 14.3036 7.33132 14.4557 7.13846 14.6485C6.9456 14.8414 6.79354 15.0676 6.68228 15.3272C6.57101 15.5869 6.51538 15.865 6.51538 16.1617V18.298H5.09119V21.1464H6.51538V24.7069C6.51538 25.0036 6.57101 25.2817 6.68228 25.5414C6.79354 25.801 6.9456 26.0272 7.13846 26.2201C7.33132 26.4129 7.55756 26.565 7.81718 26.6763C8.07679 26.7875 8.35496 26.8432 8.65166 26.8432H12.2121H17.1078H20.0452C20.3419 26.8432 20.6201 26.7875 20.8797 26.6763C21.1393 26.565 21.3655 26.4129 21.5584 26.2201C21.7513 26.0272 21.9033 25.801 22.0146 25.5414C22.1258 25.2817 22.1815 25.0036 22.1815 24.7069V21.1464H23.6057Z" fill="#0078D4"/>
<path d="M12.0976 19.6722H10.6734V18.248H12.0976V19.6722Z" fill="#50E6FF"/>
<path d="M17.7941 19.6722H16.3699V18.248H17.7941V19.6722Z" fill="#50E6FF"/>
<path d="M11.1745 21.252C11.5825 21.6599 12.0498 21.9733 12.5765 22.1921C13.1031 22.411 13.6558 22.5204 14.2343 22.5204C14.8129 22.5204 15.3655 22.411 15.8922 22.1921C16.4188 21.9733 16.8861 21.6599 17.2941 21.252L18.2955 22.2645C17.754 22.806 17.1328 23.2213 16.4318 23.5106C15.7309 23.7999 14.9984 23.9446 14.2343 23.9446C13.4703 23.9446 12.7378 23.7999 12.0368 23.5106C11.3359 23.2213 10.7147 22.806 10.1732 22.2645L11.1745 21.252Z" fill="#50E6FF"/>
</svg>
