<svg data-slug-id="speech-service44" viewBox="0 0 48 48" xmlns="http://www.w3.org/2000/svg">
<path d="M47 3H29.5133V44.9992H47V3Z" fill="#50E6FF"/>
<path d="M19.7463 25.8132V22.9292H18.3043V20.7661C18.3043 20.4657 18.248 20.1841 18.1353 19.9212C18.0226 19.6583 17.8687 19.4293 17.6734 19.234C17.4781 19.0387 17.249 18.8848 16.9862 18.7721C16.7233 18.6594 16.4417 18.6031 16.1412 18.6031H11.0942V16.2486C11.312 16.1209 11.4866 15.9444 11.618 15.7191C11.7495 15.4937 11.8152 15.2534 11.8152 14.9981C11.8152 14.7953 11.7776 14.6075 11.7025 14.4348C11.6274 14.262 11.5241 14.1099 11.3927 13.9785C11.2613 13.8471 11.1092 13.7438 10.9364 13.6687C10.7637 13.5936 10.5759 13.556 10.3732 13.556C10.1704 13.556 9.9826 13.5936 9.80986 13.6687C9.63712 13.7438 9.48503 13.8471 9.3536 13.9785C9.22216 14.1099 9.11889 14.262 9.04379 14.4348C8.96868 14.6075 8.93113 14.7953 8.93113 14.9981C8.93113 15.2534 8.99684 15.4937 9.12828 15.7191C9.25971 15.9444 9.43433 16.1209 9.65214 16.2486V18.6031H4.60506C4.30464 18.6031 4.02299 18.6594 3.76012 18.7721C3.49725 18.8848 3.26818 19.0387 3.07291 19.234C2.87764 19.4293 2.72367 19.6583 2.61101 19.9212C2.49835 20.1841 2.44202 20.4657 2.44202 20.7661V22.9292H1V25.8132H2.44202V29.4183C2.44202 29.7187 2.49835 30.0004 2.61101 30.2632C2.72367 30.5261 2.87764 30.7552 3.07291 30.9504C3.26818 31.1457 3.49725 31.2997 3.76012 31.4123C4.02299 31.525 4.30464 31.5813 4.60506 31.5813H8.21012H13.1671H16.1412C16.4417 31.5813 16.7233 31.525 16.9862 31.4123C17.249 31.2997 17.4781 31.1457 17.6734 30.9504C17.8687 30.7552 18.0226 30.5261 18.1353 30.2632C18.248 30.0004 18.3043 29.7187 18.3043 29.4183V25.8132H19.7463Z" fill="#0078D4"/>
<path d="M8.09366 24.3208H6.65163V22.8788H8.09366V24.3208Z" fill="#50E6FF"/>
<path d="M13.8614 24.3208H12.4194V22.8788H13.8614V24.3208Z" fill="#50E6FF"/>
<path d="M7.15863 25.9207C7.57171 26.3337 8.04487 26.6511 8.57812 26.8726C9.11137 27.0942 9.6709 27.205 10.2567 27.205C10.8426 27.205 11.4021 27.0942 11.9353 26.8726C12.4686 26.6511 12.9417 26.3337 13.3548 25.9207L14.3687 26.9458C13.8205 27.4941 13.1915 27.9147 12.4817 28.2076C11.772 28.5005 11.0303 28.647 10.2567 28.647C9.48314 28.647 8.74147 28.5005 8.03173 28.2076C7.32198 27.9147 6.69298 27.4941 6.14471 26.9458L7.15863 25.9207Z" fill="#50E6FF"/>
<path d="M26.8303 15.0221C27.4344 15.6225 27.9714 16.2729 28.4412 16.9733C28.9111 17.6737 29.3037 18.4075 29.6192 19.1747C29.9414 19.9418 30.1863 20.739 30.3541 21.5661C30.5219 22.3933 30.6058 23.2305 30.6058 24.0777C30.6058 24.9316 30.5219 25.7721 30.3541 26.5993C30.1863 27.4198 29.9414 28.2136 29.6192 28.9807C29.3037 29.7479 28.9111 30.4817 28.4412 31.1821C27.9714 31.8825 27.4344 32.5329 26.8303 33.1333L25.9142 32.2227C26.4578 31.6824 26.9411 31.0987 27.364 30.4716C27.7868 29.8379 28.1425 29.1775 28.4312 28.4904C28.7198 27.7967 28.9379 27.0796 29.0856 26.3391C29.2332 25.5986 29.3071 24.8448 29.3071 24.0777C29.3071 23.3106 29.2332 22.5568 29.0856 21.8163C28.9379 21.0758 28.7198 20.3621 28.4312 19.675C28.1425 18.9812 27.7868 18.3208 27.364 17.6937C26.9411 17.06 26.4578 16.473 25.9142 15.9327L26.8303 15.0221ZM26.7397 24.0777C26.7397 25.2784 26.5115 26.4225 26.0551 27.5098C25.5987 28.5972 24.9476 29.5678 24.1019 30.4216L23.1857 29.5111C23.9173 28.7839 24.4778 27.9534 24.8671 27.0195C25.2564 26.0856 25.451 25.105 25.451 24.0777C25.451 23.0504 25.2564 22.0698 24.8671 21.1359C24.4778 20.202 23.9173 19.3715 23.1857 18.6443L24.1019 17.7338C24.9476 18.5876 25.5987 19.5582 26.0551 20.6456C26.5115 21.7329 26.7397 22.877 26.7397 24.0777ZM21.3634 20.4555C21.8534 20.9424 22.2259 21.4961 22.481 22.1165C22.7428 22.7369 22.8736 23.3906 22.8736 24.0777C22.8736 24.7648 22.7428 25.4185 22.481 26.0389C22.2259 26.6593 21.8534 27.213 21.3634 27.6999L20.4573 26.7994C20.8198 26.4392 21.0983 26.0256 21.293 25.5586C21.4876 25.085 21.5849 24.5913 21.5849 24.0777C21.5849 23.564 21.4876 23.0737 21.293 22.6068C21.0983 22.1332 20.8198 21.7162 20.4573 21.356L21.3634 20.4555Z" fill="#0078D4"/>
<path fill-rule="evenodd" clip-rule="evenodd" d="M39.6159 6.29717C39.1981 6.18076 38.7644 6.12256 38.3147 6.12256L38.3147 6.12256C37.8619 6.12256 37.4273 6.18076 37.0112 6.29717C36.595 6.41358 36.2051 6.57782 35.8415 6.7899C35.478 7.00198 35.1471 7.25712 34.8489 7.55531C34.5507 7.8535 34.2956 8.18437 34.0835 8.54794C33.8714 8.91151 33.7072 9.30218 33.5908 9.71997C33.4743 10.1378 33.4161 10.5715 33.4161 11.0212C33.4161 11.474 33.4743 11.9086 33.5908 12.3247C33.7072 12.7409 33.8714 13.1308 34.0835 13.4944C34.2956 13.8579 34.5507 14.1888 34.8489 14.487C35.1471 14.7852 35.478 15.0403 35.8415 15.2524C36.2051 15.4645 36.5958 15.6287 37.0136 15.7451C37.4313 15.8615 37.8651 15.9198 38.3147 15.9198C38.7644 15.9198 39.1981 15.8615 39.6159 15.7451C40.0337 15.6287 40.4244 15.4645 40.788 15.2524C41.1515 15.0403 41.4824 14.7852 41.7806 14.487C42.0788 14.1888 42.3339 13.8579 42.546 13.4944C42.7581 13.1308 42.9223 12.7401 43.0387 12.3223C43.1551 11.9046 43.2133 11.4708 43.2133 11.0212C43.2133 10.5715 43.1551 10.1377 43.0387 9.71996C42.9223 9.30218 42.7581 8.9115 42.546 8.54794C42.3339 8.18437 42.0788 7.85349 41.7806 7.5553C41.4824 7.25711 41.1515 7.00198 40.788 6.7899C40.4244 6.57782 40.0337 6.41357 39.6159 6.29717ZM41.7447 8.45452C41.9169 8.68255 42.0636 8.92572 42.1848 9.18405L40.5918 9.18405C40.5536 8.99269 40.5089 8.79975 40.4579 8.60521C40.4069 8.41066 40.3455 8.21852 40.2737 8.02876C40.202 7.83901 40.1198 7.65483 40.0273 7.47624C39.9349 7.29764 39.8312 7.12862 39.7164 6.96916C39.9843 7.06164 40.241 7.18124 40.4866 7.32794C40.7322 7.47464 40.9602 7.64207 41.1707 7.83024C41.3812 8.0184 41.5725 8.22649 41.7447 8.45452ZM42.6014 11.0211C42.6014 10.5969 42.5424 10.1887 42.4244 9.79646H40.6879C40.7134 10.0006 40.7325 10.2039 40.7453 10.4064C40.758 10.6089 40.7644 10.8138 40.7644 11.0211C40.7644 11.2284 40.758 11.4333 40.7453 11.6358C40.7325 11.8383 40.7134 12.0416 40.6879 12.2458H42.4244C42.5424 11.8535 42.6014 11.4453 42.6014 11.0211ZM38.7528 15.1783C38.6172 15.2644 38.4713 15.3074 38.3151 15.3074C38.1588 15.3074 38.0129 15.2644 37.8774 15.1783C37.7418 15.0922 37.6166 14.979 37.5018 14.8386C37.387 14.6983 37.2842 14.5396 37.1933 14.3626C37.1024 14.1856 37.0219 14.0063 36.9517 13.8245C36.8815 13.6427 36.8225 13.4673 36.7747 13.2983C36.7269 13.1292 36.6902 12.9825 36.6647 12.8581H39.9655C39.94 12.9825 39.9033 13.1292 39.8555 13.2983C39.8076 13.4673 39.7486 13.6427 39.6785 13.8245C39.6083 14.0063 39.5278 14.1856 39.4369 14.3626C39.346 14.5396 39.2431 14.6983 39.1283 14.8386C39.0135 14.979 38.8883 15.0922 38.7528 15.1783ZM40.0708 12.2458C40.0963 12.0416 40.1163 11.8383 40.1306 11.6358C40.145 11.4333 40.1521 11.2284 40.1521 11.0211C40.1521 10.8138 40.145 10.6089 40.1306 10.4064C40.1163 10.2039 40.0963 10.0006 40.0708 9.79646H36.5595C36.534 10.0006 36.5141 10.2039 36.4997 10.4064C36.4854 10.6089 36.4782 10.8138 36.4782 11.0211C36.4782 11.2284 36.4854 11.4333 36.4997 11.6358C36.5141 11.8383 36.534 12.0416 36.5595 12.2458H40.0708ZM34.2062 12.2458C34.0882 11.8535 34.0292 11.4453 34.0292 11.0211C34.0292 10.5969 34.0882 10.1887 34.2062 9.79646H35.9427C35.9172 10.0006 35.898 10.2039 35.8853 10.4064C35.8725 10.6089 35.8661 10.8138 35.8661 11.0211C35.8661 11.2284 35.8725 11.4333 35.8853 11.6358C35.898 11.8383 35.9172 12.0416 35.9427 12.2458H34.2062ZM38.3151 6.73477C38.1588 6.73477 38.0129 6.77782 37.8774 6.86393C37.7418 6.95004 37.6166 7.06325 37.5018 7.20358C37.387 7.3439 37.2842 7.50256 37.1933 7.67956C37.1024 7.85656 37.0219 8.03596 36.9517 8.21774C36.8815 8.39952 36.8225 8.57493 36.7747 8.74396C36.7269 8.91298 36.6902 9.05969 36.6647 9.18407H39.9655C39.94 9.05969 39.9033 8.91298 39.8555 8.74396C39.8076 8.57493 39.7486 8.39952 39.6785 8.21774C39.6083 8.03596 39.5278 7.85656 39.4369 7.67956C39.346 7.50256 39.2431 7.3439 39.1283 7.20358C39.0135 7.06325 38.8883 6.95004 38.7528 6.86393C38.6172 6.77782 38.4713 6.73477 38.3151 6.73477H38.3151ZM36.1436 7.32794C36.3892 7.18124 36.6459 7.06164 36.9138 6.96916L36.9138 6.96916C36.799 7.12862 36.6954 7.29764 36.6029 7.47624C36.5104 7.65483 36.4283 7.83901 36.3565 8.02876C36.2848 8.21852 36.2234 8.41067 36.1723 8.60521C36.1213 8.79975 36.0767 8.9927 36.0384 9.18405H34.4454C34.5666 8.92572 34.7133 8.68255 34.8855 8.45452C35.0577 8.22649 35.2491 8.0184 35.4596 7.83024C35.67 7.64207 35.8981 7.47464 36.1436 7.32794ZM34.4454 12.8581C34.5666 13.1165 34.7133 13.3596 34.8855 13.5877C35.0577 13.8157 35.2491 14.0238 35.4596 14.212C35.67 14.4001 35.8981 14.5676 36.1436 14.7143C36.3892 14.861 36.6459 14.9806 36.9138 15.073C36.799 14.9136 36.6954 14.7446 36.6029 14.566C36.5104 14.3874 36.4283 14.2032 36.3565 14.0134C36.2848 13.8237 36.2234 13.6315 36.1723 13.437C36.1213 13.2424 36.0767 13.0495 36.0384 12.8581L34.4454 12.8581ZM40.4866 14.7143C40.241 14.861 39.9843 14.9806 39.7164 15.073C39.8312 14.9136 39.9349 14.7445 40.0274 14.566C40.1198 14.3874 40.202 14.2032 40.2737 14.0134C40.3455 13.8237 40.4069 13.6315 40.4579 13.437C40.5089 13.2424 40.5536 13.0495 40.5918 12.8581H42.1848C42.0636 13.1165 41.9169 13.3596 41.7447 13.5877C41.5725 13.8157 41.3812 14.0238 41.1707 14.212C40.9602 14.4001 40.7322 14.5676 40.4866 14.7143Z" fill="#0078D7"/>
<path fill-rule="evenodd" clip-rule="evenodd" d="M41.9404 24.4615L38.2417 28.1603L34.45 24.3686C33.4524 23.3709 33.4524 21.7534 34.45 20.7558L34.5359 20.6698C35.5336 19.6722 37.1511 19.6722 38.1488 20.6698L41.9404 24.4615Z" fill="#0078D4"/>
<path fill-rule="evenodd" clip-rule="evenodd" d="M38.244 28.1669L34.5453 24.4681L38.337 20.6765C39.3346 19.6788 40.9521 19.6788 41.9498 20.6765L42.0357 20.7623C43.0333 21.76 43.0333 23.3776 42.0357 24.3752L38.244 28.1669Z" fill="#0078D4"/>
<path d="M33.8909 40.9249C33.8909 38.828 35.5877 37.1311 37.6846 37.1311C39.4719 37.1311 40.9695 38.365 41.3727 40.0282C41.4416 40.3164 40.3027 40.9264 40.3027 40.9264H33.8909V40.9249Z" fill="#0078D7"/>
<path d="M39.8473 34.3792C39.8473 35.5671 38.8846 36.5313 37.6951 36.5313C36.5057 36.5313 35.543 35.5686 35.543 34.3792C35.543 33.1897 36.5072 32.2271 37.6951 32.2271C38.8831 32.2271 39.8473 33.1897 39.8473 34.3792Z" fill="#0078D7"/>
<path d="M40.3093 40.9302C41.5868 40.9302 42.6224 39.8946 42.6224 38.6171C42.6224 37.3397 41.5868 36.3041 40.3093 36.3041C39.0319 36.3041 37.9963 37.3397 37.9963 38.6171C37.9963 39.8946 39.0319 40.9302 40.3093 40.9302Z" fill="#50E6FF"/>
<path d="M41.4093 37.7528C41.1272 37.7528 40.8988 37.9812 40.8988 38.2632C40.8988 38.3721 40.9862 38.4594 41.095 38.4594C41.2039 38.4594 41.2912 38.3721 41.2912 38.2632C41.2912 38.1973 41.3449 38.1452 41.4093 38.1452C41.4736 38.1452 41.5273 38.1989 41.5273 38.2632C41.5273 38.3721 41.6147 38.4594 41.7235 38.4594C41.8323 38.4594 41.9197 38.3721 41.9197 38.2632C41.9182 37.9827 41.6898 37.7528 41.4093 37.7528Z" fill="#0078D4"/>
<path d="M39.1459 37.7528C38.8638 37.7528 38.6355 37.9812 38.6355 38.2632C38.6355 38.3721 38.7228 38.4594 38.8317 38.4594C38.9405 38.4594 39.0279 38.3721 39.0279 38.2632C39.0279 38.1973 39.0815 38.1452 39.1459 38.1452C39.2103 38.1452 39.2639 38.1989 39.2639 38.2632C39.2639 38.3721 39.3513 38.4594 39.4601 38.4594C39.569 38.4594 39.6563 38.3721 39.6563 38.2632C39.6563 37.9827 39.4279 37.7528 39.1459 37.7528Z" fill="#0078D4"/>
<path d="M41.4511 39.1079C41.3775 39.0297 41.2533 39.0251 41.1736 39.1002C40.9391 39.321 40.634 39.4421 40.3121 39.4421C39.9811 39.4421 39.6684 39.3133 39.4308 39.0818C39.3541 39.0067 39.23 39.0067 39.1533 39.0849C39.1165 39.1217 39.0966 39.1723 39.0966 39.2244C39.0966 39.2765 39.1181 39.3256 39.1549 39.3623C39.4645 39.6674 39.8753 39.836 40.3106 39.836C40.7321 39.836 41.1338 39.6766 41.4419 39.3869C41.4802 39.3516 41.5016 39.3026 41.5032 39.2504C41.5047 39.1983 41.4863 39.1462 41.4511 39.1079Z" fill="#0078D4"/>
</svg>
