<svg data-slug-id="speech-service08" viewBox="0 0 49 48" xmlns="http://www.w3.org/2000/svg">
<path d="M48.2545 25.4741C48.41 24.7492 48.5 23.9998 48.5 23.226C48.5 17.5241 43.8517 12.9055 38.1314 12.9055C37.3294 12.9055 36.5519 12.9951 35.8154 13.1743C33.4504 9.45996 29.2849 7 24.5384 7C17.1732 7 11.2073 12.9463 11.2073 20.2691C11.2073 20.4565 11.2073 20.6357 11.2155 20.8067C10.5445 20.5787 9.82432 20.4565 9.07143 20.4565C5.43791 20.4565 2.5 23.3807 2.5 26.9974C2.5 30.3859 5.0942 33.1717 8.41674 33.4975L38.1232 33.5545C42.1413 33.5545 45.6112 31.2901 47.3379 27.9748C47.9108 26.7856 47.9681 26.5249 48.2545 25.4741Z" fill="#50E6FF"/>
<path d="M9.81976 36.9687C9.81976 31.3612 14.496 26.8267 20.2787 26.8267C26.0614 26.8267 30.7377 31.3612 30.7377 36.9687H9.81976Z" fill="#0078D4"/>
<path d="M26.2982 21.2799C26.2982 24.5153 23.5993 27.1432 20.2764 27.1432C16.9535 27.1432 14.2546 24.5153 14.2546 21.2799C14.2546 18.0444 16.9535 15.4165 20.2764 15.4165C23.5993 15.4165 26.2982 18.0444 26.2982 21.2799Z" fill="#0078D4"/>
<path d="M34.9748 9.71143C35.7671 10.4889 36.4714 11.3311 37.0877 12.2382C37.704 13.1452 38.219 14.0954 38.6328 15.0889C39.0553 16.0823 39.3767 17.1146 39.5968 18.1857C39.8169 19.2569 39.9269 20.341 39.9269 21.4381C39.9269 22.5438 39.8169 23.6323 39.5968 24.7035C39.3767 25.766 39.0553 26.794 38.6328 27.7874C38.219 28.7808 37.704 29.731 37.0877 30.6381C36.4714 31.5451 35.7671 32.3874 34.9748 33.1648L33.7731 31.9857C34.4862 31.286 35.12 30.5301 35.6747 29.7181C36.2293 28.8974 36.6959 28.0422 37.0745 27.1525C37.4531 26.2541 37.7392 25.3254 37.9329 24.3666C38.1265 23.4077 38.2234 22.4315 38.2234 21.4381C38.2234 20.4447 38.1265 19.4686 37.9329 18.5097C37.7392 17.5508 37.4531 16.6265 37.0745 15.7367C36.6959 14.8383 36.2293 13.9831 35.6747 13.1711C35.12 12.3505 34.4862 11.5903 33.7731 10.8906L34.9748 9.71143ZM34.8559 21.4381C34.8559 22.993 34.5566 24.4745 33.9579 25.8826C33.3593 27.2907 32.5053 28.5476 31.396 29.6533L30.1943 28.4741C31.1539 27.5326 31.889 26.4571 32.3997 25.2477C32.9103 24.0383 33.1656 22.7684 33.1656 21.4381C33.1656 20.1078 32.9103 18.8379 32.3997 17.6286C31.889 16.4192 31.1539 15.3437 30.1943 14.4021L31.396 13.223C32.5053 14.3287 33.3593 15.5856 33.9579 16.9936C34.5566 18.4017 34.8559 19.8832 34.8559 21.4381ZM27.8041 16.7474C28.4467 17.3781 28.9353 18.095 29.2699 18.8984C29.6132 19.7018 29.7849 20.5484 29.7849 21.4381C29.7849 22.3279 29.6132 23.1745 29.2699 23.9778C28.9353 24.7812 28.4467 25.4982 27.8041 26.1288L26.6155 24.9626C27.0909 24.4961 27.4563 23.9606 27.7116 23.3559C27.9669 22.7425 28.0946 22.1033 28.0946 21.4381C28.0946 20.773 27.9669 20.138 27.7116 19.5333C27.4563 18.92 27.0909 18.3801 26.6155 17.9136L27.8041 16.7474Z" fill="white"/>
<path d="M32.3204 40.4546C35.6462 40.4546 38.3422 37.6876 38.3422 34.2743C38.3422 30.861 35.6462 28.094 32.3204 28.094C28.9946 28.094 26.2986 30.861 26.2986 34.2743C26.2986 37.6876 28.9946 40.4546 32.3204 40.4546Z" fill="#3BCAF4"/>
<path d="M34.9111 31.2634L30.4344 36.0201L29.094 34.5935L28.2003 35.5453L30.4344 37.9191L35.8068 32.213L34.9111 31.2634Z" fill="white"/>
</svg>
