<svg  data-slug-id="speech-service40" viewBox="0 0 48 48" xmlns="http://www.w3.org/2000/svg">
<path d="M28.6131 26.0547V21.8066H26.489V18.6204C26.489 18.1779 26.4061 17.7631 26.2401 17.3759C26.0742 16.9887 25.8474 16.6512 25.5598 16.3636C25.2721 16.076 24.9347 15.8492 24.5475 15.6832C24.1603 15.5173 23.7454 15.4343 23.3029 15.4343H15.8686V11.9661C16.1894 11.778 16.4466 11.518 16.6402 11.1861C16.8339 10.8542 16.9307 10.5002 16.9307 10.1241C16.9307 9.82539 16.8753 9.54881 16.7647 9.29437C16.6541 9.03992 16.502 8.81589 16.3084 8.62229C16.1148 8.42869 15.8907 8.27657 15.6363 8.16594C15.3818 8.05531 15.1053 8 14.8066 8C14.5079 8 14.2313 8.05531 13.9768 8.16594C13.7224 8.27657 13.4984 8.42869 13.3048 8.62229C13.1112 8.81589 12.9591 9.03992 12.8484 9.29437C12.7378 9.54881 12.6825 9.82539 12.6825 10.1241C12.6825 10.5002 12.7793 10.8542 12.9729 11.1861C13.1665 11.518 13.4237 11.778 13.7445 11.9661V15.4343H6.31022C5.8677 15.4343 5.45284 15.5173 5.06564 15.6832C4.67843 15.8492 4.34101 16.076 4.05338 16.3636C3.76574 16.6512 3.53895 16.9887 3.373 17.3759C3.20706 17.7631 3.12409 18.1779 3.12409 18.6204V21.8066H1V26.0547H3.12409V31.365C3.12409 31.8075 3.20706 32.2223 3.373 32.6095C3.53895 32.9967 3.76574 33.3342 4.05338 33.6218C4.34101 33.9094 4.67843 34.1362 5.06564 34.3022C5.45284 34.4681 5.8677 34.5511 6.31022 34.5511H11.6204H18.922H23.3029C23.7454 34.5511 24.1603 34.4681 24.5475 34.3022C24.9347 34.1362 25.2721 33.9094 25.5598 33.6218C25.8474 33.3342 26.0742 32.9967 26.2401 32.6095C26.4061 32.2223 26.489 31.8075 26.489 31.365V26.0547H28.6131Z" fill="#0078D4"/>
<path d="M11.4492 23.8565H9.32507V21.7324H11.4492V23.8565Z" fill="#50E6FF"/>
<path d="M19.9453 23.8565H17.8212V21.7324H19.9453V23.8565Z" fill="#50E6FF"/>
<path d="M10.0717 26.2131C10.6802 26.8216 11.3772 27.289 12.1626 27.6154C12.9481 27.9417 13.7723 28.1049 14.6352 28.1049C15.4981 28.1049 16.3223 27.9417 17.1078 27.6154C17.8933 27.289 18.5902 26.8216 19.1987 26.2131L20.6922 27.7232C19.8846 28.5308 18.9581 29.1504 17.9126 29.5818C16.8672 30.0133 15.7747 30.229 14.6352 30.229C13.4957 30.229 12.4033 30.0133 11.3578 29.5818C10.3124 29.1503 9.38584 28.5308 8.57825 27.7232L10.0717 26.2131Z" fill="#50E6FF"/>
<path d="M40.4463 8.54565C41.4949 9.59561 42.427 10.7331 43.2425 11.958C44.0581 13.183 44.7397 14.4662 45.2873 15.8078C45.8465 17.1495 46.2718 18.5436 46.5631 19.9902C46.8543 21.4368 47 22.9009 47 24.3825C47 25.8758 46.8543 27.3457 46.5631 28.7923C46.2718 30.2272 45.8465 31.6155 45.2873 32.9571C44.7397 34.2987 44.0581 35.582 43.2425 36.807C42.427 38.0319 41.4949 39.1694 40.4463 40.2193L38.856 38.6269C39.7997 37.6819 40.6386 36.6611 41.3726 35.5645C42.1066 34.4562 42.7241 33.3013 43.2251 32.0997C43.7261 30.8864 44.1047 29.6323 44.361 28.3373C44.6174 27.0424 44.7455 25.7241 44.7455 24.3825C44.7455 23.0409 44.6174 21.7226 44.361 20.4277C44.1047 19.1327 43.7261 17.8844 43.2251 16.6828C42.7241 15.4695 42.1066 14.3146 41.3726 13.218C40.6386 12.1097 39.7997 11.083 38.856 10.1381L40.4463 8.54565ZM40.289 24.3825C40.289 26.4824 39.8929 28.4832 39.1006 30.3847C38.3084 32.2863 37.1782 33.9838 35.7102 35.477L34.1198 33.8846C35.3898 32.613 36.3627 31.1605 37.0384 29.5273C37.7142 27.894 38.052 26.1791 38.052 24.3825C38.052 22.5859 37.7142 20.871 37.0384 19.2377C36.3627 17.6044 35.3898 16.152 34.1198 14.8804L35.7102 13.288C37.1782 14.7812 38.3084 16.4787 39.1006 18.3802C39.8929 20.2818 40.289 22.2826 40.289 24.3825ZM30.9566 18.0478C31.8071 18.8994 32.4538 19.8677 32.8965 20.9526C33.3509 22.0376 33.5781 23.1809 33.5781 24.3825C33.5781 25.5841 33.3509 26.7274 32.8965 27.8123C32.4538 28.8973 31.8071 29.8656 30.9566 30.7172L29.3837 29.1423C30.0129 28.5123 30.4964 27.789 30.8343 26.9724C31.1722 26.1441 31.3411 25.2808 31.3411 24.3825C31.3411 23.4842 31.1722 22.6267 30.8343 21.8101C30.4964 20.9818 30.0129 20.2527 29.3837 19.6227L30.9566 18.0478Z" fill="#50E6FF"/>
</svg>
