<svg data-slug-id="speech07" viewBox="0 0 48 48" xmlns="http://www.w3.org/2000/svg">
<path d="M41.5577 39.681C45.0188 35.8073 47.2251 30.7631 47.5114 25.2305H42.6862C42.4167 29.4326 40.7409 33.2726 38.1304 36.2536L41.5577 39.681Z" fill="#0078D4"/>
<path d="M6.5346 8.20312C3.0146 12.0937 0.783018 17.1631 0.488281 22.7463H5.52407C5.80197 18.5526 7.46933 14.7294 10.0714 11.7484L6.5346 8.20312Z" fill="#50E6FF"/>
<path d="M8.30371 41.5609C12.2027 45.0472 17.2637 47.2619 22.8384 47.5314V42.5883C18.6363 42.3104 14.8216 40.6262 11.8406 38.0156L8.30371 41.5609Z" fill="#0078D4"/>
<path d="M0.488281 25.2305C0.774597 30.8136 3.00618 35.8831 6.51776 39.7736L10.063 36.2284C7.46933 33.2473 5.81039 29.4242 5.53249 25.2305H0.488281Z" fill="#0078D4"/>
<path d="M41.5416 8.29688L38.1143 11.7242C40.7332 14.7053 42.409 18.5369 42.6785 22.7474H47.5037C47.2174 17.2063 45.0111 12.1706 41.5416 8.29688Z" fill="#50E6FF"/>
<path d="M25.3219 47.5127C30.8714 47.2096 35.9156 44.9696 39.7808 41.4749L36.3451 38.0391C33.3556 40.6496 29.524 42.317 25.3135 42.5949L25.3219 47.5127Z" fill="#0078D4"/>
<path d="M25.3223 0.472656V5.39897C29.5244 5.66845 33.3475 7.33581 36.337 9.93792L39.7728 6.50213C35.8991 3.01581 30.8633 0.784235 25.3223 0.472656Z" fill="#50E6FF"/>
<path d="M22.8378 0.460938C17.2631 0.738832 12.2105 2.94515 8.31152 6.42304L11.8484 9.95989C14.821 7.35778 18.6357 5.69041 22.8294 5.39567L22.8378 0.460938Z" fill="#50E6FF"/>
<path d="M27.7393 12.6172H12.6572V22.714H14.9983V25.2993L17.7267 22.714H27.7393V12.6172Z" fill="#0078D4"/>
<path d="M25.2798 25.2383V32.8593H30.3408L32.9093 35.3267V32.8593H35.3935V25.2383H25.2798Z" fill="#50E6FF"/>
</svg>
