<svg data-slug-id="speech04" viewBox="0 0 48 49" xmlns="http://www.w3.org/2000/svg">
<rect x="4.88281" y="4.04297" width="40.3458" height="29.4089" fill="white"/>
<path d="M0 0V37.8948H48.0001V0H0ZM35.3685 27.7895H4.96843V25.2632H35.3685V27.7895ZM35.3685 18.9474H4.96843V16.4211H35.3685V18.9474ZM40.4211 29.0527C39.9215 29.0527 39.433 28.9045 39.0176 28.6269C38.6021 28.3493 38.2783 27.9548 38.0871 27.4932C37.8959 27.0315 37.8459 26.5236 37.9434 26.0335C38.0408 25.5435 38.2814 25.0933 38.6348 24.74C38.9881 24.3867 39.4382 24.1461 39.9283 24.0486C40.4183 23.9511 40.9263 24.0011 41.3879 24.1924C41.8495 24.3836 42.2441 24.7074 42.5217 25.1228C42.7993 25.5383 42.9475 26.0267 42.9475 26.5264C42.9475 27.1964 42.6813 27.839 42.2075 28.3128C41.7337 28.7865 41.0912 29.0527 40.4211 29.0527ZM40.4211 20.2106C39.9215 20.2106 39.433 20.0624 39.0176 19.7848C38.6021 19.5072 38.2783 19.1127 38.0871 18.651C37.8959 18.1894 37.8459 17.6814 37.9434 17.1914C38.0408 16.7013 38.2814 16.2512 38.6348 15.8979C38.9881 15.5446 39.4382 15.3039 39.9283 15.2065C40.4183 15.109 40.9263 15.159 41.3879 15.3502C41.8495 15.5414 42.2441 15.8652 42.5217 16.2807C42.7993 16.6961 42.9475 17.1846 42.9475 17.6842C42.9475 18.3543 42.6813 18.9968 42.2075 19.4706C41.7337 19.9444 41.0912 20.2106 40.4211 20.2106Z" fill="#0078D4"/>
<path d="M35.3697 42.9492H12.6328V48.0019H35.3697V42.9492Z" fill="#0078D4"/>
<path d="M42.9472 10.1046H37.8945L40.4209 6.0625L42.9472 10.1046Z" fill="#50E6FF"/>
<path d="M35.3688 7.57812H4.96875V10.1044H35.3688V7.57812Z" fill="#50E6FF"/>
</svg>
