<svg data-slug-id="speech-service18" viewBox="0 0 49 48" xmlns="http://www.w3.org/2000/svg">
<path d="M17.294 11.1317H34.2847C41.5812 11.1317 47.4996 17.0345 47.4996 24.3118C47.4996 31.5891 41.5812 37.4919 34.2847 37.4919H17.294C9.9975 37.4919 4.0791 31.5891 4.0791 24.3118C4.0791 17.0345 9.9975 11.1317 17.294 11.1317Z" fill="#0078D4"/>
<path d="M5.10963 27.2788L1.50001 23.6634L5.10963 20.048V27.2788Z" fill="#0078D4"/>
<ellipse cx="24.163" cy="27.3698" rx="1.98549" ry="1.98549" fill="#50E6FF"/>
<ellipse cx="11.6914" cy="27.5678" rx="1.98548" ry="1.98549" fill="#50E6FF"/>
<ellipse cx="29.3664" cy="18.0438" rx="1.98549" ry="1.98548" fill="#50E6FF"/>
<ellipse cx="41.7302" cy="24.7225" rx="1.98549" ry="1.98549" fill="#50E6FF"/>
<path d="M30.6071 18.1562H35.8616V30.2418V38.621" stroke="#50E6FF" stroke-width="2.15838" stroke-linejoin="round"/>
<path d="M36.0385 28.0319H41.8626V25.2522" stroke="#50E6FF" stroke-width="2.15838" stroke-linejoin="round"/>
<path d="M16.2305 11.0889V20.3396H24.1124V26.4433" stroke="#50E6FF" stroke-width="2.15838" stroke-linejoin="round"/>
<path d="M13.1475 27.5022H17.9126V37.562" stroke="#50E6FF" stroke-width="2.15838" stroke-linejoin="round"/>
</svg>
