<svg data-slug-id="sql-elastic" viewBox="0 0 48 48" xmlns="http://www.w3.org/2000/svg">
<path d="M23.672 14.8586C14.6253 14.8586 7.31641 12.303 7.31641 8.92969V30.3452C7.31641 33.5908 14.5231 36.2486 23.4675 36.2741H23.672C32.7186 36.2741 40.0531 33.7186 40.0531 30.3452V8.92969C40.0275 12.2008 32.6931 14.8586 23.672 14.8586Z" fill="url(#sql-elastic_paint0_linear)"/>
<path d="M40.0287 8.92889C40.0287 12.2 32.6942 14.8578 23.6475 14.8578C14.6009 14.8578 7.29199 12.3022 7.29199 8.92889C7.29199 5.55556 14.6009 3 23.6731 3C32.7453 3 40.0542 5.55556 40.0542 8.92889" fill="#EAEAEA"/>
<path d="M36.2207 8.44417C36.2207 10.5397 30.5985 12.2264 23.6474 12.2264C16.6963 12.2264 11.0996 10.5397 11.0996 8.44417C11.0996 6.34861 16.7218 4.6875 23.6729 4.6875C30.6241 4.6875 36.2463 6.37417 36.2463 8.44417" fill="#50E6FF"/>
<path d="M23.6735 9.36401C20.3035 9.2882 16.9442 9.77179 13.7324 10.7951C16.9391 11.8405 20.3022 12.3247 23.6735 12.2262C27.0481 12.3123 30.412 11.8108 33.6146 10.744C30.4009 9.73381 27.041 9.2674 23.6735 9.36401Z" fill="#198AB3"/>
<path d="M35.2491 24.7231C40.8523 24.7231 45.3946 20.2379 45.3946 14.7053C45.3946 9.17261 40.8523 4.6875 35.2491 4.6875C29.6458 4.6875 25.1035 9.17261 25.1035 14.7053C25.1035 20.2379 29.6458 24.7231 35.2491 24.7231Z" fill="#32BEDD"/>
<path d="M35.2495 22.4737C39.5543 22.4737 43.044 18.984 43.044 14.6792C43.044 10.3745 39.5543 6.88477 35.2495 6.88477C30.9448 6.88477 27.4551 10.3745 27.4551 14.6792C27.4551 18.984 30.9448 22.4737 35.2495 22.4737Z" fill="white"/>
<path d="M35.2507 15.4194C35.063 15.413 34.8846 15.3356 34.7518 15.2028C34.619 15.0699 34.5415 14.8916 34.5352 14.7039V8.9283C34.5671 8.7585 34.6574 8.6052 34.7904 8.49489C34.9234 8.38459 35.0907 8.32422 35.2635 8.32422C35.4363 8.32422 35.6036 8.38459 35.7366 8.49489C35.8696 8.6052 35.9599 8.7585 35.9918 8.9283V14.7039C35.9852 14.896 35.9042 15.078 35.7659 15.2115C35.6277 15.345 35.4429 15.4195 35.2507 15.4194Z" fill="#9F9F9F"/>
<path d="M37.6891 18.1271C37.9686 18.4065 38.4216 18.4065 38.7011 18.1271C38.9805 17.8476 38.9805 17.3946 38.7011 17.1151L36.0808 14.4949C35.8014 14.2155 35.3483 14.2155 35.0689 14.4949C34.7894 14.7743 34.7894 15.2274 35.0689 15.5068L37.6891 18.1271Z" fill="#9F9F9F"/>
<path d="M35.25 16.1874C36.0827 16.1874 36.7577 15.5124 36.7577 14.6797C36.7577 13.8469 36.0827 13.1719 35.25 13.1719C34.4172 13.1719 33.7422 13.8469 33.7422 14.6797C33.7422 15.5124 34.4172 16.1874 35.25 16.1874Z" fill="#5E5E5E"/>
<path d="M30.4706 39.5192L24.1839 45.8058C24.1169 45.8778 24.0359 45.9352 23.9457 45.9745C23.8556 46.0137 23.7583 46.034 23.66 46.034C23.5617 46.034 23.4644 46.0137 23.3743 45.9745C23.2842 45.9352 23.2031 45.8778 23.1361 45.8058L16.8495 39.5192C16.8049 39.4728 16.7748 39.4144 16.7627 39.3513C16.7507 39.2881 16.7572 39.2228 16.7816 39.1632C16.8059 39.1037 16.847 39.0525 16.8999 39.0159C16.9528 38.9793 17.0152 38.9588 17.0795 38.9569H20.9383C20.982 38.9569 21.0252 38.9483 21.0655 38.9316C21.1058 38.915 21.1424 38.8905 21.1733 38.8596C21.2041 38.8288 21.2286 38.7922 21.2453 38.7519C21.262 38.7115 21.2706 38.6683 21.2706 38.6247V30.7536C21.277 30.6836 21.3094 30.6185 21.3614 30.5712C21.4135 30.5238 21.4813 30.4978 21.5517 30.498H25.7683C25.8361 30.498 25.9011 30.525 25.9491 30.5729C25.997 30.6208 26.0239 30.6858 26.0239 30.7536V38.6247C26.0238 38.6706 26.0331 38.716 26.0514 38.758C26.0697 38.8001 26.0965 38.8379 26.1301 38.8691C26.1637 38.9004 26.2034 38.9243 26.2467 38.9394C26.29 38.9545 26.336 38.9605 26.3817 38.9569H30.2406C30.3049 38.9588 30.3672 38.9793 30.4201 39.0159C30.473 39.0525 30.5141 39.1037 30.5385 39.1632C30.5628 39.2228 30.5694 39.2881 30.5573 39.3513C30.5453 39.4144 30.5151 39.4728 30.4706 39.5192Z" fill="#50E6FF"/>
<path d="M11.6344 40.5676H2.74111C2.54456 40.5676 2.35605 40.4895 2.21707 40.3505C2.07808 40.2115 2 40.023 2 39.8265V30.9332C2.00186 30.8689 2.02234 30.8065 2.05896 30.7536C2.09558 30.7007 2.14676 30.6596 2.20629 30.6353C2.26583 30.6109 2.33115 30.6044 2.39433 30.6164C2.45751 30.6285 2.51583 30.6586 2.56222 30.7032L5.11778 33.2587L5.27111 33.4376C5.33721 33.4987 5.4239 33.5326 5.51389 33.5326C5.60388 33.5326 5.69057 33.4987 5.75667 33.4376L11.3022 27.8665C11.3543 27.818 11.4228 27.791 11.4939 27.791C11.565 27.791 11.6335 27.818 11.6856 27.8665L14.6756 30.8565C14.7241 30.9085 14.751 30.977 14.751 31.0482C14.751 31.1193 14.7241 31.1878 14.6756 31.2398L9.15556 36.7854C9.11843 36.814 9.08837 36.8508 9.06769 36.8929C9.047 36.935 9.03625 36.9813 9.03625 37.0282C9.03625 37.0751 9.047 37.1213 9.06769 37.1634C9.08837 37.2055 9.11843 37.2423 9.15556 37.2709L9.30889 37.4498L11.8644 40.0054C11.909 40.0518 11.9391 40.1101 11.9512 40.1733C11.9632 40.2365 11.9567 40.3018 11.9323 40.3613C11.908 40.4208 11.8669 40.472 11.814 40.5086C11.7611 40.5453 11.6987 40.5657 11.6344 40.5676Z" fill="#50E6FF"/>
<path d="M35.4286 40.0305L37.9841 37.4749L38.1375 37.296C38.1985 37.2299 38.2324 37.1432 38.2324 37.0532C38.2324 36.9633 38.1985 36.8766 38.1375 36.8105L32.6175 31.2394C32.569 31.1873 32.542 31.1188 32.542 31.0477C32.542 30.9765 32.569 30.9081 32.6175 30.856L35.6075 27.866C35.6552 27.8192 35.7195 27.793 35.7864 27.793C35.8532 27.793 35.9175 27.8192 35.9652 27.866L41.5619 33.4371C41.6238 33.4965 41.7062 33.5296 41.7919 33.5296C41.8776 33.5296 41.96 33.4965 42.0219 33.4371L42.2008 33.2582L44.7564 30.7027C44.8009 30.6488 44.8614 30.6103 44.9291 30.5928C44.9968 30.5752 45.0683 30.5795 45.1335 30.605C45.1986 30.6305 45.2541 30.6759 45.2919 30.7347C45.3297 30.7936 45.348 30.8628 45.3441 30.9327V39.826C45.3442 39.9255 45.3242 40.024 45.2854 40.1157C45.2465 40.2073 45.1897 40.2901 45.1181 40.3593C45.0466 40.4285 44.9618 40.4825 44.8689 40.5182C44.776 40.5539 44.6769 40.5706 44.5775 40.5671H35.6586C35.599 40.5616 35.5421 40.5401 35.4938 40.5049C35.4455 40.4697 35.4075 40.4222 35.384 40.3672C35.3604 40.3123 35.3521 40.252 35.36 40.1927C35.3678 40.1334 35.3915 40.0774 35.4286 40.0305Z" fill="#50E6FF"/>
<defs>
<linearGradient id="sql-elastic_paint0_linear" x1="7.29085" y1="22.6019" x2="40.0275" y2="22.6019" gradientUnits="userSpaceOnUse">
<stop stop-color="#005BA1"/>
<stop offset="0.07" stop-color="#0060A9"/>
<stop offset="0.36" stop-color="#0071C8"/>
<stop offset="0.52" stop-color="#0078D4"/>
<stop offset="0.64" stop-color="#0074CD"/>
<stop offset="0.82" stop-color="#006ABB"/>
<stop offset="1" stop-color="#005BA1"/>
</linearGradient>
</defs>
</svg>
