<svg data-slug-id="squares-dots" viewBox="0 0 49 48" xmlns="http://www.w3.org/2000/svg">
<path d="M7.26995 41.4611H6.00699V23.3086H19.4954V24.568H7.26995V41.4611Z" fill="#0078D4"/>
<path d="M42.0426 5.51566H6.63766V6.77508H42.0426V5.51566Z" fill="#0078D4"/>
<path d="M42.6825 24.5695H21.591V23.3101H41.4195V6.14828H42.6825V24.5695Z" fill="#50E6FF"/>
<path d="M43.3311 40.8479H7.06729V42.1073H43.3311V40.8479Z" fill="#50E6FF"/>
<path d="M13.3483 0.175995H0.617645V12.871H13.3483V0.175995Z" fill="#50E6FF"/>
<path d="M30.8866 0H18.156V12.695H30.8866V0Z" fill="#50E6FF"/>
<path d="M48.4163 0.0935364H35.6857V12.7886H48.4163V0.0935364Z" fill="#0078D4"/>
<path d="M13.2562 17.6058H0.525543V30.3009H13.2562V17.6058Z" fill="#50E6FF"/>
<path d="M30.8866 17.6058H18.156V30.3009H30.8866V17.6058Z" fill="#0078D4"/>
<path d="M48.4168 17.6058H35.6861V30.3009H48.4168V17.6058Z" fill="#0078D4"/>
<path d="M13.4327 35.1292H0.702026V47.8243H13.4327V35.1292Z" fill="#0078D4"/>
<path d="M30.8866 35.3047H18.156V47.9998H30.8866V35.3047Z" fill="#0078D4"/>
<path d="M48.5007 35.2228H35.7701V47.9178H48.5007V35.2228Z" fill="#0078D4"/>
</svg>
