<svg data-slug-id="streaming-data01" viewBox="0 0 48 48" xmlns="http://www.w3.org/2000/svg">
<path d="M21.7352 36.0476C28.0695 36.0476 33.2044 30.9127 33.2044 24.5785C33.2044 18.2443 28.0695 13.1094 21.7352 13.1094C15.401 13.1094 10.2661 18.2443 10.2661 24.5785C10.2661 30.9127 15.401 36.0476 21.7352 36.0476Z" fill="#137AD4"/>
<path d="M16.0488 10.2176C17.965 10.2176 19.5184 8.66421 19.5184 6.74797C19.5184 4.83174 17.965 3.27832 16.0488 3.27832C14.1325 3.27832 12.5791 4.83174 12.5791 6.74797C12.5791 8.66421 14.1325 10.2176 16.0488 10.2176Z" fill="#137AD4"/>
<path d="M8.82024 16.3856C10.7365 16.3856 12.2899 14.8322 12.2899 12.9159C12.2899 10.9997 10.7365 9.44629 8.82024 9.44629C6.904 9.44629 5.35059 10.9997 5.35059 12.9159C5.35059 14.8322 6.904 16.3856 8.82024 16.3856Z" fill="#137AD4"/>
<path d="M27.3249 10.3143C29.2411 10.3143 30.7945 8.76089 30.7945 6.84465C30.7945 4.92842 29.2411 3.375 27.3249 3.375C25.4086 3.375 23.8552 4.92842 23.8552 6.84465C23.8552 8.76089 25.4086 10.3143 27.3249 10.3143Z" fill="#58E6FD"/>
<path d="M39.1796 22.1688C41.0958 22.1688 42.6493 20.6154 42.6493 18.6991C42.6493 16.7829 41.0958 15.2295 39.1796 15.2295C37.2634 15.2295 35.71 16.7829 35.71 18.6991C35.71 20.6154 37.2634 22.1688 39.1796 22.1688Z" fill="#137AD4"/>
<path d="M39.1796 33.7342C41.0958 33.7342 42.6493 32.1808 42.6493 30.2646C42.6493 28.3483 41.0958 26.7949 39.1796 26.7949C37.2634 26.7949 35.71 28.3483 35.71 30.2646C35.71 32.1808 37.2634 33.7342 39.1796 33.7342Z" fill="#137AD4"/>
<path d="M27.3249 44.721C29.2411 44.721 30.7945 43.1676 30.7945 41.2514C30.7945 39.3352 29.2411 37.7817 27.3249 37.7817C25.4086 37.7817 23.8552 39.3352 23.8552 41.2514C23.8552 43.1676 25.4086 44.721 27.3249 44.721Z" fill="#58E6FD"/>
<path d="M9.20403 39.5174C11.1203 39.5174 12.6737 37.964 12.6737 36.0478C12.6737 34.1315 11.1203 32.5781 9.20403 32.5781C7.28779 32.5781 5.73438 34.1315 5.73438 36.0478C5.73438 37.964 7.28779 39.5174 9.20403 39.5174Z" fill="#58E6FD"/>
</svg>
