<svg data-slug-id="text-analytics01" viewBox="0 0 48 48" xmlns="http://www.w3.org/2000/svg">
<path d="M26.3278 0.856932H5.89849C5.6864 0.856931 5.47639 0.89875 5.28048 0.979994C5.08457 1.06124 4.9066 1.18031 4.75675 1.33041C4.6069 1.4805 4.48812 1.65867 4.4072 1.85472C4.32628 2.05076 4.28481 2.26084 4.28516 2.47293V46.5263C4.28481 46.7384 4.32628 46.9484 4.4072 47.1445C4.48812 47.3405 4.6069 47.5187 4.75675 47.6688C4.9066 47.8189 5.08457 47.938 5.28048 48.0192C5.47639 48.1004 5.6864 48.1423 5.89849 48.1423H41.3012C41.7272 48.1387 42.1345 47.9669 42.4343 47.6641C42.734 47.3613 42.9019 46.9523 42.9012 46.5263V17.3716C42.9019 16.9456 42.734 16.5365 42.4343 16.2338C42.1345 15.931 41.7272 15.7591 41.3012 15.7556H29.5518C29.1263 15.7521 28.7193 15.5806 28.4196 15.2784C28.12 14.9762 27.9518 14.5678 27.9518 14.1423V2.47293C27.954 2.25944 27.9134 2.04767 27.8324 1.85011C27.7515 1.65255 27.6318 1.47319 27.4805 1.32259C27.3291 1.17199 27.1492 1.05321 26.9512 0.973236C26.7533 0.893263 26.5413 0.853718 26.3278 0.856932Z" fill="#5EA0EF"/>
<path d="M25.5813 2.92133V13.9853C25.582 15.0609 26.0091 16.0923 26.7688 16.8535C27.5286 17.6148 28.5591 18.0438 29.6347 18.0467H40.7813V46.0787H6.41867V2.92133H25.5813ZM26.3627 0.5H5.63734C5.42209 0.5 5.20896 0.542439 5.01014 0.624889C4.81131 0.70734 4.6307 0.828183 4.47862 0.980506C4.32655 1.13283 4.206 1.31364 4.12387 1.5126C4.04174 1.71156 3.99965 1.92476 4 2.14V46.86C3.99965 47.0752 4.04174 47.2884 4.12387 47.4874C4.206 47.6864 4.32655 47.8672 4.47862 48.0195C4.6307 48.1718 4.81131 48.2927 5.01014 48.3751C5.20896 48.4576 5.42209 48.5 5.63734 48.5H41.5627C41.7779 48.5 41.991 48.4576 42.1899 48.3751C42.3887 48.2927 42.5693 48.1718 42.7214 48.0195C42.8735 47.8672 42.994 47.6864 43.0761 47.4874C43.1583 47.2884 43.2004 47.0752 43.2 46.86V17.2627C43.2 16.8284 43.0275 16.412 42.7204 16.1049C42.4134 15.7978 41.9969 15.6253 41.5627 15.6253H29.6347C29.4196 15.625 29.2068 15.5823 29.0083 15.4997C28.8098 15.4171 28.6295 15.2962 28.4777 15.1439C28.3259 14.9916 28.2056 14.8109 28.1236 14.6121C28.0417 14.4133 27.9997 14.2004 28 13.9853V2.14C28.0004 1.92476 27.9583 1.71156 27.8761 1.5126C27.794 1.31364 27.6735 1.13283 27.5214 0.980506C27.3693 0.828183 27.1887 0.70734 26.9899 0.624889C26.791 0.542439 26.5779 0.5 26.3627 0.5V0.5Z" fill="url(#text-analytics01_paint0_linear)"/>
<path d="M42.5762 15.9501L27.4349 0.85675V13.1554C27.4324 13.5202 27.5019 13.8819 27.6393 14.2198C27.7767 14.5577 27.9793 14.8652 28.2357 15.1248C28.492 15.3843 28.797 15.5908 29.1331 15.7324C29.4693 15.874 29.8301 15.948 30.1949 15.9501H42.5762Z" fill="#0078D4"/>
<path d="M34.2127 25.9193H10.5434C10.0412 25.9193 9.63403 26.3264 9.63403 26.8286V26.8579C9.63403 27.3601 10.0412 27.7673 10.5434 27.7673H34.2127C34.7149 27.7673 35.122 27.3601 35.122 26.8579V26.8286C35.122 26.3264 34.7149 25.9193 34.2127 25.9193Z" fill="#9CEBFF"/>
<path opacity="0.8" d="M34.2127 31.1172H10.5434C10.0412 31.1172 9.63403 31.5243 9.63403 32.0265V32.0559C9.63403 32.5581 10.0412 32.9652 10.5434 32.9652H34.2127C34.7149 32.9652 35.122 32.5581 35.122 32.0559V32.0265C35.122 31.5243 34.7149 31.1172 34.2127 31.1172Z" fill="#9CEBFF"/>
<path opacity="0.6" d="M34.2127 36.3151H10.5434C10.0412 36.3151 9.63403 36.7222 9.63403 37.2245V37.2538C9.63403 37.756 10.0412 38.1631 10.5434 38.1631H34.2127C34.7149 38.1631 35.122 37.756 35.122 37.2538V37.2245C35.122 36.7222 34.7149 36.3151 34.2127 36.3151Z" fill="#9CEBFF"/>
<path d="M20.6672 30.6859C20.455 30.6859 20.2515 30.6016 20.1015 30.4516C19.9515 30.3016 19.8672 30.0981 19.8672 29.8859V23.2193C19.8672 23.0071 19.9515 22.8036 20.1015 22.6536C20.2515 22.5035 20.455 22.4193 20.6672 22.4193H27.3339C27.5478 22.4193 27.753 22.5042 27.9043 22.6555C28.0555 22.8068 28.1405 23.012 28.1405 23.2259C28.1405 23.4399 28.0555 23.645 27.9043 23.7963C27.753 23.9476 27.5478 24.0326 27.3339 24.0326H21.4805V29.8833C21.4809 29.9897 21.46 30.0951 21.4192 30.1933C21.3783 30.2916 21.3182 30.3807 21.2425 30.4554C21.1667 30.5302 21.0768 30.5891 20.9781 30.6286C20.8793 30.6682 20.7736 30.6877 20.6672 30.6859ZM39.1872 29.8859V23.2193C39.1872 23.0071 39.1029 22.8036 38.9529 22.6536C38.8028 22.5035 38.5994 22.4193 38.3872 22.4193H31.7205C31.5066 22.4193 31.3014 22.5042 31.1501 22.6555C30.9988 22.8068 30.9139 23.012 30.9139 23.2259C30.9139 23.4399 30.9988 23.645 31.1501 23.7963C31.3014 23.9476 31.5066 24.0326 31.7205 24.0326H37.5685V29.8833C37.5685 30.0975 37.6537 30.3031 37.8052 30.4546C37.9567 30.6061 38.1622 30.6912 38.3765 30.6912C38.5908 30.6912 38.7963 30.6061 38.9479 30.4546C39.0994 30.3031 39.1845 30.0975 39.1845 29.8833L39.1872 29.8859ZM39.1872 40.8619V34.1952C39.1872 33.981 39.1021 33.7754 38.9505 33.6239C38.799 33.4724 38.5935 33.3873 38.3792 33.3873C38.1649 33.3873 37.9594 33.4724 37.8078 33.6239C37.6563 33.7754 37.5712 33.981 37.5712 34.1952V40.0433H31.7285C31.5163 40.0433 31.3129 40.1275 31.1628 40.2776C31.0128 40.4276 30.9285 40.6311 30.9285 40.8433C30.9285 41.0554 31.0128 41.2589 31.1628 41.4089C31.3129 41.559 31.5163 41.6432 31.7285 41.6432H38.3952C38.6046 41.6426 38.8054 41.5598 38.9545 41.4127C39.1036 41.2657 39.189 41.066 39.1925 40.8566L39.1872 40.8619ZM28.1312 40.8619C28.1312 40.6497 28.0469 40.4463 27.8969 40.2962C27.7468 40.1462 27.5434 40.0619 27.3312 40.0619H21.4805V34.2006C21.4805 33.9866 21.3955 33.7815 21.2443 33.6302C21.093 33.4789 20.8878 33.3939 20.6739 33.3939C20.4599 33.3939 20.2547 33.4789 20.1035 33.6302C19.9522 33.7815 19.8672 33.9866 19.8672 34.2006V40.8672C19.8672 41.0794 19.9515 41.2829 20.1015 41.4329C20.2515 41.583 20.455 41.6672 20.6672 41.6672H27.3339C27.4396 41.6673 27.5443 41.6463 27.6419 41.6056C27.7394 41.5649 27.828 41.5053 27.9024 41.4301C27.9768 41.355 28.0355 41.2658 28.0753 41.1679C28.115 41.0699 28.1349 40.965 28.1339 40.8593L28.1312 40.8619Z" fill="white"/>
<defs>
<linearGradient id="text-analytics01_paint0_linear" x1="23.6" y1="48.5" x2="23.6" y2="0.5" gradientUnits="userSpaceOnUse">
<stop stop-color="#0078D4"/>
<stop offset="0.817" stop-color="#5EA0EF"/>
</linearGradient>
</defs>
</svg>
