<svg data-slug-id="text-extraction" viewBox="0 0 48 48" xmlns="http://www.w3.org/2000/svg">
    <path d="M25.7663 46.3207H2V14.1796H18.419L19.9069 18.9574L25.7663 21.5186V46.3207Z" fill="#0078D4"/>
    <path d="M25.7672 21.6491H18.5242V14.406L25.7672 21.6491Z" fill="#50E6FF"/>
    <path d="M21.2387 25.2707H10.8268V27.3078H21.2387V25.2707Z" fill="white"/>
    <path d="M21.2387 31.3818H10.8268V33.1925H21.2387V31.3818Z" fill="white"/>
    <path d="M21.2387 37.2668H10.8268V39.0776H21.2387V37.2668Z" fill="white"/>
    <path d="M8.11204 25.2707H6.30127V27.3078H8.11204V25.2707Z" fill="white"/>
    <path d="M8.11204 31.3818H6.30127V33.1925H8.11204V31.3818Z" fill="white"/>
    <path d="M8.11204 37.2668H6.30127V39.0776H8.11204V37.2668Z" fill="white"/>
    <path d="M46.9999 20H42.2734L40.9038 15.7734H34.0557L32.6995 20H27.9999L35.0091 1H40.1518L46.9999 20ZM39.9101 12.4874L37.8423 6.10112C37.6901 5.62413 37.5827 5.05439 37.52 4.39191H37.4126C37.3678 4.9484 37.2559 5.50047 37.0769 6.04812L34.9822 12.4874H39.9101Z" fill="#0078D4"/>
    <path d="M33.6509 37.9011L28.8428 37.9011L28.8428 34.8409L33.6509 34.8409C34.0812 34.8409 34.4797 34.7612 34.8463 34.6018C35.2129 34.4424 35.5356 34.2233 35.8146 33.9443C36.0935 33.6654 36.3127 33.3427 36.4721 32.9761C36.6314 32.6095 36.7111 32.211 36.7111 31.7807L36.7111 29.3111L34.7268 31.2716L32.575 29.1198L38.2413 23.4536L43.9075 29.1198L41.7558 31.2716L39.7714 29.3111L39.7714 31.7807C39.7714 32.6254 39.612 33.4184 39.2932 34.1595C38.9744 34.9007 38.5361 35.5502 37.9783 36.108C37.4204 36.6659 36.7709 37.1042 36.0297 37.423C35.2886 37.7418 34.4956 37.9011 33.6509 37.9011Z" fill="#50E6FF"/>
</svg>
