<svg data-slug-id="time-series-insights02" viewBox="0 0 48 48" xmlns="http://www.w3.org/2000/svg">
<path d="M34.7829 12.3145H13.3689C12.7574 12.3145 12.2617 12.8054 12.2617 13.411V34.6191C12.2617 35.2247 12.7574 35.7156 13.3689 35.7156H34.7829C35.3944 35.7156 35.8901 35.2247 35.8901 34.6191V13.411C35.8901 12.8054 35.3944 12.3145 34.7829 12.3145Z" fill="url(#time-series-insights02_paint0_linear)"/>
<path d="M31.5155 32.5039L43.3431 24.2935C43.3933 24.2621 43.4347 24.2187 43.4634 24.1673C43.4921 24.1158 43.5071 24.058 43.5071 23.9993C43.5071 23.9405 43.4921 23.8827 43.4634 23.8313C43.4347 23.7798 43.3933 23.7364 43.3431 23.7051L31.5155 15.5214C31.4623 15.48 31.3981 15.4548 31.3308 15.4487C31.2635 15.4426 31.1958 15.4559 31.1359 15.487C31.076 15.518 31.0265 15.5656 30.9932 15.6239C30.9599 15.6822 30.9444 15.7487 30.9484 15.8156V20.5225H12.2617V27.476H30.9484V32.2097C30.9534 32.2729 30.9745 32.3337 31.0098 32.3866C31.045 32.4395 31.0932 32.4826 31.1498 32.512C31.2065 32.5414 31.2698 32.5561 31.3337 32.5547C31.3976 32.5533 31.4602 32.5358 31.5155 32.5039V32.5039Z" fill="#9CEBFF"/>
<path d="M45.6103 47H2.4042C2.03178 47 1.67462 46.8535 1.41128 46.5927C1.14794 46.3319 1 45.9781 1 45.6093V2.3907C1 2.02186 1.14794 1.66813 1.41128 1.40733C1.67462 1.14652 2.03178 1 2.4042 1H45.6103C45.9828 1 46.3399 1.14652 46.6033 1.40733C46.8666 1.66813 47.0145 2.02186 47.0145 2.3907V15.9767C47.0184 16.1059 46.9859 16.2336 46.9205 16.3455C46.8552 16.4574 46.7597 16.549 46.6447 16.6101C46.5297 16.6712 46.3998 16.6993 46.2696 16.6914C46.1394 16.6835 46.0139 16.6397 45.9074 16.5651L43.207 14.693C43.114 14.6253 43.0386 14.5366 42.9869 14.4343C42.9353 14.332 42.9089 14.219 42.91 14.1047V5.27907H5.26661V42.7209H42.7479V34.1628C42.749 34.0526 42.7764 33.9441 42.8281 33.8465C42.8797 33.7488 42.9541 33.6648 43.045 33.6012L45.7454 31.6488C45.8519 31.5742 45.9773 31.5305 46.1076 31.5225C46.2378 31.5146 46.3677 31.5428 46.4827 31.6039C46.5977 31.665 46.6932 31.7566 46.7585 31.8685C46.8238 31.9803 46.8564 32.108 46.8525 32.2372V45.6093C46.8548 45.9519 46.7293 46.2834 46.5001 46.54C46.2709 46.7967 45.954 46.9605 45.6103 47Z" fill="#B3B3B3"/>
<path d="M42.7461 5.2832V13.9751C42.7451 14.0894 42.7714 14.2024 42.8231 14.3047C42.8747 14.407 42.9501 14.4957 43.0432 14.5634L45.7436 16.4355C45.8385 16.5364 45.9617 16.6069 46.0972 16.6383C46.2328 16.6697 46.3748 16.6604 46.505 16.6116C46.6353 16.5629 46.748 16.4769 46.8288 16.3646C46.9095 16.2523 46.9548 16.1187 46.9587 15.9809V5.2832H42.7461Z" fill="#999999"/>
<path d="M42.7461 42.7202V34.0284C42.7449 33.9177 42.7713 33.8085 42.8232 33.7105C42.875 33.6124 42.9506 33.5287 43.0432 33.4667L45.7436 31.5679C45.852 31.5026 45.9758 31.4665 46.1027 31.4631C46.2295 31.4598 46.3551 31.4893 46.4669 31.5487C46.5788 31.6081 46.673 31.6954 46.7403 31.802C46.8076 31.9086 46.8457 32.0307 46.8507 32.1563V42.8539L42.7461 42.7202Z" fill="#999999"/>
<defs>
<linearGradient id="time-series-insights02_paint0_linear" x1="24.0894" y1="35.7156" x2="24.0894" y2="12.3145" gradientUnits="userSpaceOnUse">
<stop stop-color="#198AB3"/>
<stop offset="0.11" stop-color="#22A5CB"/>
<stop offset="0.23" stop-color="#29BADE"/>
<stop offset="0.37" stop-color="#2EC9EB"/>
<stop offset="0.53" stop-color="#31D1F3"/>
<stop offset="0.78" stop-color="#32D4F5"/>
</linearGradient>
</defs>
</svg>
