<svg data-slug-id="time01" viewBox="0 0 48 49" xmlns="http://www.w3.org/2000/svg">
<path d="M35.0038 39.5115H11.458C9.80153 39.5115 8.5 38.1938 8.5 36.5167V12.6781C8.5 11.0011 9.80153 9.68335 11.458 9.68335H35.0038C36.6603 9.68335 37.9618 11.0011 37.9618 12.6781V36.5167C38.0802 38.1938 36.6603 39.5115 35.0038 39.5115Z" fill="#0078D7"/>
<path d="M32.7551 35.3174H13.8238C13.1139 35.3174 12.6406 34.7184 12.6406 34.1195V15.0726C12.6406 14.3539 13.2322 13.8747 13.8238 13.8747H32.6368C33.3467 13.8747 33.82 14.4737 33.82 15.0726V34.1195C33.82 34.8382 33.3467 35.3174 32.7551 35.3174Z" fill="#50E6FF"/>
<path d="M31.454 1.77716H15.0074L13.1143 10.4022H33.4654L31.454 1.77716Z" fill="#0078D7"/>
<path d="M15.0074 47.7745H31.454L33.3471 38.9099H13.1143L15.0074 47.7745Z" fill="#0078D7"/>
<path d="M39.4997 17.4685H37.4883V19.6248H39.4997V17.4685Z" fill="#0078D7"/>
<path d="M39.4997 29.5662H37.4883V31.7224H39.4997V29.5662Z" fill="#0078D7"/>
</svg>
