<svg data-slug-id="time03" viewBox="0 0 49 49" xmlns="http://www.w3.org/2000/svg">
<path d="M24.1201 45.3776C35.4707 45.3776 44.6722 36.1761 44.6722 24.8254C44.6722 13.4748 35.4707 4.27325 24.1201 4.27325C12.7694 4.27325 3.56787 13.4748 3.56787 24.8254C3.56787 36.1761 12.7694 45.3776 24.1201 45.3776Z" fill="white"/>
<path d="M24.2885 1.07001C11.1961 1.07001 0.587402 11.6871 0.587402 24.7795C0.587402 37.872 11.2045 48.4891 24.2969 48.4891C37.3894 48.4891 48.0065 37.872 48.0065 24.7795C48.0065 11.6871 37.3809 1.07001 24.2885 1.07001ZM24.2885 43.7404C13.823 43.7404 5.32762 35.2535 5.32762 24.7795C5.32762 14.3056 13.823 5.81865 24.2885 5.81865C34.754 5.81865 43.2494 14.3056 43.2494 24.7795C43.2494 35.2535 34.7625 43.7404 24.2885 43.7404Z" fill="#0078D4"/>
<path d="M26.8898 23.6978V10.9842H21.7539V25.8279L30.6618 34.7358L34.2907 31.107L26.8898 23.6978Z" fill="#50E6FF"/>
</svg>
