<svg data-slug-id="time04" viewBox="0 0 49 49" xmlns="http://www.w3.org/2000/svg">
<path d="M41.7453 14.2929L38.1832 10.7224L24.2295 24.7097L17.6695 18.175L14.1074 21.7287L24.179 31.7834L24.1874 31.775L24.2379 31.8255L41.7453 14.2929Z" fill="#50E6FF"/>
<path d="M43.3456 24.7157C43.3456 35.2083 34.8403 43.7136 24.3477 43.7136C13.8551 43.7136 5.34981 35.2083 5.34981 24.7157C5.34981 14.2399 13.8214 5.75147 24.2888 5.71779V0.917786C11.1688 0.95147 0.549805 11.5957 0.549805 24.7157C0.549805 37.8609 11.2024 48.522 24.3477 48.522C37.493 48.522 48.1456 37.8694 48.1456 24.7241C48.1456 24.7157 48.1456 24.7073 48.1456 24.7073H43.3456C43.3456 24.7073 43.3456 24.7073 43.3456 24.7157Z" fill="#0078D4"/>
</svg>
