<svg data-slug-id="time02" viewBox="0 0 49 49" xmlns="http://www.w3.org/2000/svg">
<path d="M15.4082 32.7604C11.6725 32.7604 8.22282 31.5497 5.42944 29.4982V48.7773H48.2387V17.5507L33.0266 17.6179L32.1011 18.5344C30.8222 26.5975 23.8388 32.7604 15.4082 32.7604Z" fill="#0078D4"/>
<path d="M31.5376 10.8318C31.79 11.6306 31.9835 12.4546 32.1097 13.3037C32.2359 14.1445 32.3033 15.0021 32.3033 15.8765C32.3033 16.7762 32.2275 17.6674 32.0929 18.5334H48.2305V10.8571L31.5376 10.8318Z" fill="#50E6FF"/>
<path d="M15.408 30.9783C23.7537 30.9783 30.5192 24.2176 30.5192 15.8778C30.5192 7.53805 23.7537 0.777344 15.408 0.777344C7.06237 0.777344 0.296875 7.53805 0.296875 15.8778C0.296875 24.2176 7.06237 30.9783 15.408 30.9783Z" fill="#50E6FF"/>
<path d="M17.9907 4.51147H15.4329V18.3508H17.9907V4.51147Z" fill="#0078D4"/>
<path d="M4.03516 15.7915V18.3475H17.9852V15.7915H4.03516Z" fill="#0078D4"/>
</svg>
