<svg data-slug-id="time05" viewBox="0 0 49 49" xmlns="http://www.w3.org/2000/svg">
<path d="M48.263 18.4236V5.75863H43.202V10.2927C38.8483 4.661 32.0356 1.03882 24.3893 1.03882C11.2356 1.03882 0.583008 11.7196 0.583008 24.9081C0.583008 38.0965 11.2441 48.7773 24.3893 48.7773C37.5346 48.7773 48.1956 38.0881 48.1956 24.9081C48.1956 24.4353 48.1788 23.9709 48.1535 23.5065H43.4967C43.5304 23.9709 43.5472 24.4353 43.5472 24.9081C43.5472 35.5129 34.9746 44.1166 24.3893 44.1166C13.8041 44.1166 5.23143 35.5129 5.23143 24.9081C5.23143 14.3033 13.8041 5.69953 24.3893 5.69953C30.6125 5.69953 36.1367 8.67158 39.6314 13.2816H35.623V18.3561H43.202V18.4236H48.263Z" fill="#0078D4"/>
<path d="M26.7227 23.698V10.7966H21.6953V25.7835L28.7774 32.8759L32.3311 29.3128L26.7227 23.698Z" fill="#50E6FF"/>
</svg>
