<svg data-slug-id="time06" viewBox="0 0 49 49" xmlns="http://www.w3.org/2000/svg">
<path d="M0.331055 18.4266V5.75944H5.39211V10.2943C9.74579 4.66162 16.55 1.03882 24.2047 1.03882C37.35 1.03882 48.0111 11.7299 48.0111 24.9121C48.0111 38.0944 37.35 48.777 24.2047 48.777C11.0595 48.777 0.398423 38.0944 0.398423 24.9121C0.398423 24.4392 0.415265 23.9748 0.440528 23.5103H5.09737C5.06369 23.9748 5.04684 24.4392 5.04684 24.9121C5.04684 35.5188 13.6195 44.124 24.2047 44.124C34.79 44.124 43.3626 35.5272 43.3626 24.9121C43.3626 14.2971 34.7816 5.70032 24.2047 5.70032C17.9816 5.70032 12.4574 8.67288 8.96263 13.2837H12.9711V18.359H5.39211V18.4266H0.331055Z" fill="#0078D4"/>
<path d="M33.796 26.1481C33.897 25.768 33.956 25.3627 33.956 24.9489C33.956 22.407 31.9012 20.3465 29.3665 20.3465C28.777 20.3465 28.2212 20.4563 27.6991 20.659C26.4697 18.6322 24.2549 17.2811 21.7202 17.2811C17.8549 17.2811 14.7307 20.4225 14.7307 24.2902C14.7307 24.9236 14.8149 25.54 14.9749 26.1227C13.8297 26.4099 12.9875 27.4401 12.9875 28.673C12.9875 30.1255 14.1581 31.2994 15.6065 31.2994H33.0886C34.537 31.2994 35.7076 30.1255 35.7076 28.673C35.7076 27.4739 34.8991 26.4605 33.796 26.1481Z" fill="#50E6FF"/>
</svg>
