<svg data-slug-id="translator-apis01" viewBox="0 0 48 48" xmlns="http://www.w3.org/2000/svg">
<path d="M46.4 0.393555H1.6C0.716344 0.393555 0 1.1099 0 1.99355V46.7936C0 47.6772 0.716344 48.3936 1.6 48.3936H46.4C47.2837 48.3936 48 47.6772 48 46.7936V1.99355C48 1.1099 47.2837 0.393555 46.4 0.393555Z" fill="url(#translator-apis01_paint0_linear)"/>
<path d="M35.4156 26.5855C33.5837 26.5504 31.781 27.0479 30.2263 28.0175V30.5241C31.6037 29.3156 33.3751 28.6517 35.2076 28.6575C37.3072 28.6575 38.3561 29.9543 38.3543 32.5481L33.7756 33.1908C30.4156 33.6566 28.7356 35.317 28.7356 38.1721C28.7107 38.7666 28.8129 39.3596 29.0355 39.9115C29.258 40.4633 29.5958 40.9613 30.0263 41.3721C31.0143 42.2235 32.295 42.6567 33.5969 42.5801C34.5588 42.6103 35.5097 42.3689 36.3407 41.8836C37.1717 41.3982 37.8492 40.6887 38.2956 39.8361H38.3543V42.2228H40.7996V32.2815C40.7996 28.4841 39.0049 26.5855 35.4156 26.5855ZM38.3489 36.0095C38.3914 37.1997 37.9653 38.3592 37.1623 39.2388C36.7826 39.6544 36.318 39.9833 35.7998 40.2033C35.2817 40.4232 34.7223 40.529 34.1596 40.5135C33.3849 40.555 32.623 40.3026 32.0263 39.8068C31.7661 39.5805 31.5594 39.2992 31.421 38.9833C31.2827 38.6675 31.2162 38.3248 31.2263 37.9801C31.1832 37.5809 31.2395 37.1771 31.3903 36.8049C31.541 36.4327 31.7815 36.1035 32.0903 35.8468C32.8726 35.37 33.7539 35.079 34.6663 34.9961L38.3489 34.4895V36.0095Z" fill="white"/>
<path d="M36.7516 24.1036L40.8502 19.8903C41.2956 19.4476 41.1329 19.061 40.4236 19.061H38.6022C38.4608 19.061 38.3251 19.0048 38.2251 18.9047C38.1251 18.8047 38.0689 18.6691 38.0689 18.5276C38.1276 15.8103 37.3649 8.26628 27.0582 8.01028C26.9168 8.01028 26.7811 8.06647 26.6811 8.16649C26.5811 8.26651 26.5249 8.40217 26.5249 8.54362V11.2103C26.5247 11.2841 26.5397 11.3571 26.5692 11.4247C26.5986 11.4924 26.6417 11.5532 26.6959 11.6033C26.75 11.6535 26.814 11.6918 26.8837 11.716C26.9534 11.7401 27.0274 11.7495 27.1009 11.7436C28.0735 11.5337 29.0818 11.5561 30.0441 11.8089C31.0064 12.0618 31.8955 12.538 32.6392 13.1989C33.383 13.8597 33.9604 14.6867 34.3246 15.6125C34.6889 16.5384 34.8297 17.5371 34.7356 18.5276C34.7356 18.6691 34.6794 18.8047 34.5794 18.9047C34.4793 19.0048 34.3437 19.061 34.2022 19.061H32.5329C31.6742 19.061 31.5302 19.3276 32.1036 19.8903L35.9036 24.1036C35.9533 24.1688 36.0175 24.2217 36.091 24.2581C36.1646 24.2945 36.2455 24.3134 36.3276 24.3134C36.4096 24.3134 36.4906 24.2945 36.5641 24.2581C36.6376 24.2217 36.7018 24.1688 36.7516 24.1036Z" fill="url(#translator-apis01_paint1_linear)"/>
<path d="M12.0533 26.8793L7.95195 31.0926C7.50661 31.5379 7.66928 31.9219 8.38128 31.9219H10.1999C10.3414 31.9219 10.4771 31.9781 10.5771 32.0781C10.6771 32.1782 10.7333 32.3138 10.7333 32.4553C10.6666 35.1726 11.4266 42.7166 21.7333 42.9726C21.8747 42.9726 22.0104 42.9164 22.1104 42.8164C22.2104 42.7164 22.2666 42.5807 22.2666 42.4393V39.7726C22.2668 39.6991 22.2518 39.6263 22.2225 39.5588C22.1933 39.4914 22.1504 39.4307 22.0965 39.3806C22.0427 39.3305 21.9791 39.2921 21.9097 39.2678C21.8403 39.2435 21.7666 39.2338 21.6933 39.2393C20.7191 39.4498 19.7089 39.4273 18.745 39.1735C17.7811 38.9197 16.8909 38.4418 16.1467 37.7787C15.4025 37.1156 14.8255 36.2861 14.4626 35.3578C14.0998 34.4295 13.9614 33.4286 14.0586 32.4366C14.0586 32.3666 14.0724 32.2972 14.0992 32.2325C14.126 32.1678 14.1653 32.109 14.2148 32.0595C14.2643 32.01 14.3231 31.9707 14.3878 31.9439C14.4526 31.9171 14.5219 31.9033 14.5919 31.9033H16.2773C17.1333 31.9033 17.2773 31.6366 16.7039 31.0739L12.9093 26.8793C12.8597 26.8125 12.7951 26.7583 12.7208 26.721C12.6465 26.6836 12.5645 26.6642 12.4813 26.6642C12.3981 26.6642 12.3161 26.6836 12.2418 26.721C12.1675 26.7583 12.1029 26.8125 12.0533 26.8793Z" fill="url(#translator-apis01_paint2_linear)"/>
<path d="M17.68 12.1269C19.1153 12.3799 20.4356 13.0755 21.456 14.1162C21.9781 14.617 22.3928 15.2187 22.675 15.8848C22.9571 16.551 23.1008 17.2675 23.0974 17.9909C23.0939 18.7143 22.9432 19.4294 22.6546 20.0928C22.3661 20.7562 21.9455 21.3539 21.4186 21.8496C19.9987 23.0817 18.1941 23.7813 16.3147 23.8282L15.5547 22.1136C17.0705 22.1571 18.562 21.7264 19.8213 20.8816C20.2876 20.562 20.6686 20.1332 20.9312 19.6326C21.1938 19.132 21.33 18.5748 21.328 18.0096C21.3273 17.4996 21.2235 16.995 21.0228 16.5262C20.8221 16.0574 20.5286 15.634 20.16 15.2816C19.3689 14.4844 18.351 13.9508 17.2453 13.7536C16.6523 15.9797 15.6205 18.0649 14.2107 19.8869C14.394 20.3196 14.6286 20.7287 14.9093 21.1056L13.48 22.0976C13.26 21.8196 13.0655 21.5224 12.8987 21.2096C11.8532 22.2078 10.4903 22.8071 9.04798 22.9029C8.64523 22.9142 8.24424 22.8454 7.86837 22.7002C7.4925 22.5551 7.14927 22.3366 6.85865 22.0576C6.54893 21.7235 6.31122 21.3293 6.16029 20.8994C6.00937 20.4696 5.94845 20.0133 5.98132 19.5589C6.0092 18.1412 6.51046 16.7735 7.40532 15.6736C8.34795 14.4249 9.60491 13.4486 11.048 12.8442C11.0907 11.422 11.1369 10.4273 11.1867 9.86023C9.70398 9.91712 8.53332 9.94557 7.67465 9.94557L7.38932 8.2949C8.31198 8.32868 9.61954 8.31445 11.312 8.25223C11.4296 7.03016 11.6166 5.81575 11.872 4.6149L13.5227 4.85757L13.0667 8.1269C15.3821 7.97607 17.6877 7.70011 19.9733 7.30023L20.3226 8.90023C17.8707 9.31408 15.3989 9.60069 12.9173 9.7589C12.8104 10.5794 12.7579 11.4061 12.76 12.2336C13.5764 12.0275 14.4141 11.9174 15.256 11.9056C15.4747 11.9056 15.688 11.9056 15.9013 11.9269C16.0531 11.4844 16.156 11.0265 16.208 10.5616L17.8987 10.8042C17.8551 11.2495 17.7821 11.6913 17.68 12.1269ZM12.1387 19.5189C11.5839 17.9531 11.2422 16.3198 11.1227 14.6629C10.1461 15.1602 9.30927 15.8935 8.68798 16.7962C8.12288 17.5724 7.80924 18.503 7.78932 19.4629C7.76059 19.7027 7.77949 19.9458 7.84493 20.1783C7.91037 20.4107 8.02106 20.628 8.17065 20.8176C8.37798 21.0292 8.65858 21.1533 8.95465 21.1642C9.43706 21.1216 9.90868 20.9972 10.3493 20.7962C11.0299 20.5027 11.6399 20.0672 12.1387 19.5189ZM15.448 13.6256C14.5668 13.6394 13.6915 13.7713 12.8453 14.0176C12.88 15.34 13.0861 16.6523 13.4587 17.9216C14.3311 16.5961 15.0016 15.1483 15.448 13.6256Z" fill="white"/>
<defs>
<linearGradient id="translator-apis01_paint0_linear" x1="24" y1="0.393555" x2="24" y2="48.3936" gradientUnits="userSpaceOnUse">
<stop stop-color="#5EA0EF"/>
<stop offset="1" stop-color="#0078D4"/>
</linearGradient>
<linearGradient id="translator-apis01_paint1_linear" x1="47.5676" y1="24.221" x2="25.9089" y2="11.8449" gradientUnits="userSpaceOnUse">
<stop stop-color="white"/>
<stop offset="1" stop-color="white" stop-opacity="0.3"/>
</linearGradient>
<linearGradient id="translator-apis01_paint2_linear" x1="1.23461" y1="26.7619" x2="22.8959" y2="39.1379" gradientUnits="userSpaceOnUse">
<stop stop-color="white"/>
<stop offset="1" stop-color="white" stop-opacity="0.3"/>
</linearGradient>
</defs>
</svg>
