<svg data-slug-id="trusted-enterprise" viewBox="0 0 60 60" xmlns="http://www.w3.org/2000/svg">
    <path d="M51.439 27.374l-.035 12.786-.002.205c-.002.306-.01.606-.02.902l-.014.326c-.013.25-.027.499-.044.742l-.023.295c-.027.334-.059.66-.098.98-.002.023-.007.043-.01.066-.036.303-.08.6-.13.892-.014.09-.032.18-.046.27-.044.25-.094.499-.145.742l-.049.228c-.064.276-.13.549-.201.815-.042.155-.089.305-.135.456-.032.11-.066.22-.1.33l-.114.344c-.036.108-.07.215-.11.32a9.482 9.482 0 01-.105.281 12.137 12.137 0 01-.278.692c-.056.13-.113.26-.172.39a18.656 18.656 0 01-.447.91l-.04.083c-.13.24-.266.474-.406.702a15.806 15.806 0 01-3.535 4.047 17.837 17.837 0 01-2.107 1.469l5.532-3.286a17.841 17.841 0 002.108-1.468 15.808 15.808 0 003.49-3.972l.042-.073c.14-.228.275-.461.405-.702.015-.027.027-.055.042-.082.115-.218.226-.439.334-.667l.051-.103c.022-.045.042-.095.062-.14.058-.128.115-.258.171-.391.04-.093.079-.183.116-.276.053-.138.107-.275.159-.416.025-.065.051-.125.074-.19a47.16 47.16 0 00.255-.754c.034-.11.069-.22.1-.331.025-.083.052-.163.076-.248l.06-.208c.073-.266.14-.54.2-.815.005-.025.013-.047.018-.072.012-.05.02-.106.03-.156.05-.243.1-.491.144-.742.01-.052.022-.102.03-.155.007-.038.01-.078.017-.115a20.048 20.048 0 00.137-.948v-.01c.04-.32.071-.646.098-.98.002-.032.007-.065.01-.097.005-.065.007-.133.012-.198.017-.243.032-.491.044-.742.003-.063.01-.123.013-.185.002-.045.002-.096.002-.14.01-.297.017-.597.02-.903l.002-.135v-.07l.034-12.786-5.522 3.283z" fill="#156AB3"/>
    <path d="M55.337 23.09a61.315 61.315 0 01-1.791-1.173c-.194-.13-.385-.267-.576-.402-.236-.166-.466-.336-.7-.507-.088-.065-.176-.128-.262-.195a36.951 36.951 0 01-1.693-1.354c-.164-.137-.329-.285-.493-.428a23.285 23.285 0 01-.822-.747 24.982 24.982 0 01-.459-.436c-.12-.115-.238-.233-.358-.35-.15-.149-.297-.299-.444-.45-.177-.18-.35-.358-.527-.546-.204-.215-.405-.44-.609-.669l-.304-.343c-.14-.163-.282-.328-.422-.494l-.319-.38c-.133-.161-.263-.324-.395-.49-.125-.155-.25-.313-.375-.473-.211-.273-.425-.546-.636-.832-.174-.24-.35-.474-.527-.704l-.057-.075c-.039-.053-.08-.1-.12-.153a56.164 56.164 0 00-.316-.401c-.032-.038-.062-.08-.094-.118-.036-.045-.073-.088-.11-.13a15.882 15.882 0 00-.26-.311c-.04-.045-.079-.095-.118-.14l-.206-.236-.397-.446c-.008-.008-.015-.018-.025-.025a36.926 36.926 0 00-.596-.64l-.059-.062-.088-.088a34.24 34.24 0 00-.518-.523l-.076-.076-.069-.067c-.13-.125-.26-.25-.392-.371l-.035-.03c-.078-.073-.16-.143-.24-.213l-.196-.176c-.01-.01-.023-.017-.035-.027l-.23-.193c-.07-.058-.138-.118-.209-.173l-.037-.028c-.07-.057-.144-.112-.218-.17l-.216-.168-.086-.065c-.174-.13-.35-.258-.53-.384-.117-.082-.24-.162-.363-.243l-.179-.12-.11-.075c-.233-.15-.469-.298-.71-.444-.058-.035-.115-.07-.174-.102a19.15 19.15 0 00-.372-.21c-.023-.013-.047-.023-.07-.039-.168-.092-.335-.18-.5-.265l-.086-.045-.014-.008a28.273 28.273 0 00-.592-.285c-.046-.023-.093-.04-.14-.06-.124-.056-.247-.11-.37-.161l-.059-.025-.152-.058c-.103-.04-.203-.08-.306-.117l-.082-.03c-.046-.018-.093-.03-.137-.046a6.087 6.087 0 00-.28-.092c-.032-.01-.063-.023-.095-.033-.042-.013-.081-.023-.123-.035a5.326 5.326 0 00-.267-.075c-.037-.01-.074-.023-.108-.03-.076-.02-.152-.038-.226-.055-.096-.023-.191-.043-.287-.063l-.071-.013a9.136 9.136 0 00-.363-.06c-.037-.005-.076-.015-.113-.02-.01-.002-.02-.002-.03-.002a9.862 9.862 0 00-.54-.058l-.031-.002c-.025-.003-.052 0-.076-.003a9.01 9.01 0 00-.52-.018l-.086-.002-.081.002c-.06 0-.116.003-.175.005-.085.003-.171.008-.257.013-.059.003-.118.008-.177.013l-.11.007c-.027.003-.052.008-.079.01a9.05 9.05 0 00-.63.083c-.255.04-.51.072-.766.095h-.01c-.225.02-.45.033-.674.038-.052.002-.1.002-.15.005-.218.002-.436 0-.655-.008-.037-.002-.071-.005-.108-.005-.235-.012-.47-.03-.704-.058-.172-.02-.343-.047-.513-.075-.15-.022-.301-.047-.454-.077-.122-.023-.245-.048-.368-.073a24.3 24.3 0 01-.412-.093c-.127-.03-.257-.062-.385-.098-.127-.035-.258-.07-.385-.107-.196-.058-.395-.116-.591-.183-.2-.068-.4-.14-.599-.213-.189-.07-.38-.146-.574-.22-.103-.043-.209-.081-.312-.126-.235-.098-.47-.2-.709-.308-.064-.028-.125-.053-.186-.083a32.347 32.347 0 01-1.335-.654l-.478-.248-.395-.21c-.16-.086-.32-.171-.479-.259-.174-.095-.348-.193-.522-.29C17.1.568 17.015.52 16.929.47c-.27-.153-.54-.308-.812-.471l-5.532 3.283c.272.16.544.318.812.471.085.05.171.095.257.145l.386.218.137.076.478.258c.133.07.263.143.395.21.16.085.32.166.479.248.095.05.194.103.29.15a32.463 32.463 0 001.045.504l.026.013c.054.025.106.045.16.07.238.108.476.21.711.308l.091.04c.074.03.147.056.22.086.192.077.386.15.575.22.049.018.098.04.147.058.15.055.302.105.452.158.132.045.265.087.397.128.066.02.13.035.194.055.128.037.258.075.385.107l.196.056.19.042c.137.033.274.065.411.093.067.015.133.032.2.045.056.013.112.018.168.028.152.027.302.052.452.075.071.01.142.025.213.035.1.015.201.027.302.037.165.02.331.035.496.048.068.005.14.008.208.01a12.095 12.095 0 00.628.018l.133-.003a12.179 12.179 0 00.827-.043h.012c.255-.022.508-.055.763-.095a10.855 10.855 0 01.82-.1l.176-.013c.086-.005.172-.01.257-.012.06-.003.116-.003.175-.005h.167c.174 0 .346.007.517.017.037.003.074.003.108.005.18.013.36.033.54.058l.145.023a9.016 9.016 0 011.32.293c.073.022.144.042.218.068a11.965 11.965 0 01.802.288l.211.082c.123.05.246.106.37.16.057.026.114.048.17.076.186.085.375.175.564.273.035.018.069.035.1.053a24.845 24.845 0 01.943.514c.338.2.67.408.994.621l.176.12c.304.203.604.411.893.627.1.075.201.155.302.233l.218.17c.084.066.165.136.246.203l.23.193c.076.065.155.136.231.203.081.07.162.14.24.213.143.13.285.266.427.401l.145.143a33.917 33.917 0 011.264 1.316 23.642 23.642 0 01.743.847c.086.103.174.205.26.31l.204.249c.105.13.21.265.316.4l.177.226c.176.23.353.464.527.704.17.226.336.449.506.667.044.058.088.11.13.165.125.16.25.316.375.474.084.105.17.216.253.318.046.058.096.113.142.17l.317.38c.08.094.161.195.24.287l.182.206.304.346c.066.072.13.15.196.223.137.15.275.298.412.446.106.113.214.225.32.336.068.07.137.137.205.208.148.152.297.303.444.448.06.058.118.12.177.178.061.06.12.115.181.173.153.148.307.293.46.436.068.063.134.13.203.193.051.048.103.09.154.138.155.14.31.278.467.413l.23.206c.089.075.175.15.263.223a53.843 53.843 0 00.75.619c.312.25.626.494.943.734.024.018.046.038.07.055l.192.14c.233.174.466.341.7.51.053.037.105.077.156.115l.42.288c.363.245.729.489 1.1.73.149.097.298.19.45.285l.243.155c.393.248.788.494 1.19.734.148.088.297.178.447.266l5.532-3.285a75.492 75.492 0 01-1.634-1z" fill="#2195DC"/>
    <path d="M31.029 8.934c.724.426 1.41.882 2.063 1.368a18.975 18.975 0 011.892 1.614c.608.594 1.22 1.236 1.828 1.927.61.694 1.21 1.449 1.805 2.266a42.124 42.124 0 003.06 3.681 36.987 36.987 0 003.103 2.955 39.283 39.283 0 003.231 2.456 64.167 64.167 0 003.425 2.17l-.034 12.786c-.007 2.43-.267 4.586-.785 6.466s-1.239 3.52-2.166 4.924a15.808 15.808 0 01-3.27 3.626 17.63 17.63 0 01-4.078 2.474 28.38 28.38 0 01-4.63 1.546c-1.62.396-3.263.644-4.924.75l-.662.057-.658-.837a167.234 167.234 0 01-4.882-6.533 129.661 129.661 0 01-4.627-6.98 90.564 90.564 0 01-4.05-7.29 76.439 76.439 0 01-3.22-7.428 49.638 49.638 0 01-2.132-7.485 38.351 38.351 0 01-.768-7.38l.035-12.787a57 57 0 003.427 1.87 25.338 25.338 0 003.236 1.358c1.05.353 2.088.589 3.109.71a11.15 11.15 0 003.069-.068 9.152 9.152 0 013.623.11c1.208.278 2.535.837 3.98 1.674z" fill="url(#trusted-enterprise_9b6b64d8-15e8-4d11-9ff1-26ac22f5ab94)"/>
    <path d="M3.839 25.239c.042-.009.085-.014.13-.017l.029-.001a.887.887 0 01.132.003l.017.002c.047.005.095.011.144.023.005.001.01.001.014.003.051.012.102.027.154.043.003.002.007.002.012.003.054.019.11.042.165.068l.011.005c.058.027.115.056.174.091l5.767-3.39c-.018-.011-.038-.02-.056-.03l-.072-.039c-.015-.008-.03-.015-.046-.021l-.011-.005-.013-.007-.07-.03c-.024-.01-.048-.018-.071-.026a.03.03 0 00-.011-.004l-.012-.003c-.016-.005-.031-.012-.047-.015-.025-.006-.048-.015-.072-.02l-.035-.008-.014-.003a.438.438 0 00-.023-.005l-.077-.014-.046-.004-.016-.002-.015-.002a1.37 1.37 0 00-.082-.003l-.036.002-.028.001c-.01 0-.02 0-.028.002a.97.97 0 00-.1.015h-.001l-.021.006a.854.854 0 00-.099.029c-.003.001-.004.003-.008.003a.824.824 0 00-.134.063L3.58 25.338a.91.91 0 01.24-.094l.02-.005z" fill="#84ECFD"/>
    <path d="M23.448 36.38a2.691 2.691 0 00-.168-.128l-.01-.007a2.898 2.898 0 00-.174-.112L4.819 25.46l5.767-3.39 18.276 10.672.017.01.073.046.074.05.01.007c.002 0 .003.002.005.003l.005.003.027.02c.01.007.02.013.028.02l.039.03.038.03c.01.006.018.014.026.02l.01.008.008.008.018.014a.44.44 0 01.017.014l.052.046a1.833 1.833 0 00.043.04.601.601 0 01.027.025c.003.003.005.006.009.008l.023.022.073.072.024.026a.829.829 0 00.029.031l.006.008.012.012c.023.024.046.05.068.076l.067.08h.002l.002.002c.023.027.044.053.065.082.017.02.033.042.049.064l.028.038a2.73 2.73 0 01.193.29l.02.03.03.048.01.018a.456.456 0 01.019.034l.006.012c.014.022.026.045.038.068l.013.023.019.037.019.038.005.009.005.009.001.003a2.884 2.884 0 00.027.056l.022.047c.01.017.017.036.025.054l.014.032.005.013.005.01.013.03a1.756 1.756 0 01.048.117l.017.045.004.012.003.006.002.007.003.008a6.197 6.197 0 01.049.143l.015.046.003.013.004.013.01.034.01.034.024.095.01.04.005.02.008.034.009.046.009.047.015.082v.005c.005.03.01.06.013.09l.01.086v.015l.001.014.001.012v.005a.22.22 0 01.002.019l.002.02.002.042.001.043c.002.027.002.053.002.08l-.003.002-.041 14.243-.008.004c0 .028 0 .055-.002.082l-.004.083-.001.01-.001.01v.008l-.002.008-.005.048-.006.042-.007.042a.45.45 0 01-.003.016l-.003.016-.005.021a.239.239 0 01-.007.033c-.006.03-.014.06-.023.09l-.004.011c0 .002 0 .004-.002.006l-.002.006a.128.128 0 01-.008.026l-.015.045a.669.669 0 01-.025.063l-.009.02a.016.016 0 00-.002.003.054.054 0 00-.005.01v.002l-.001.003a.923.923 0 01-.066.12v.003h-.001v.001l-.01.015a.77.77 0 01-.067.091.81.81 0 01-.12.12.856.856 0 01-.101.07l-5.767 3.39a.876.876 0 00.115-.083l.014-.013a.794.794 0 00.074-.074l.005-.005.013-.015c.023-.028.046-.06.067-.091l.01-.015c.026-.041.049-.083.07-.13l.007-.014a1.467 1.467 0 00.095-.3l.002-.01.003-.011c.01-.053.02-.11.024-.166v-.008l.002-.008c.006-.062.01-.126.01-.194l.004-.002.04-14.235.004-.002c0-.065-.003-.133-.008-.201l-.002-.017a2.283 2.283 0 00-.024-.209v-.003a3.196 3.196 0 00-.041-.208l-.005-.02a5.49 5.49 0 00-.056-.207c0-.002 0-.005-.002-.008a3.526 3.526 0 00-.075-.224c-.026-.068-.052-.136-.082-.203l-.005-.01a3.39 3.39 0 00-.1-.215l-.004-.009a4.043 4.043 0 00-.108-.198l-.007-.012a4.33 4.33 0 00-.059-.096 3.365 3.365 0 00-.192-.29v-.001a3.89 3.89 0 00-.142-.184l-.001-.002a3.653 3.653 0 00-.148-.168l-.005-.007a3.047 3.047 0 00-.15-.152l-.009-.008a.079.079 0 00-.009-.009c-.05-.044-.098-.09-.149-.13a.178.178 0 01-.009-.008z" fill="#84ECFD"/>
    <path d="M23.095 36.133c.964.562 1.743 1.928 1.74 3.048l-.04 14.245c-.003 1.12-.787 1.573-1.75 1.01L4.768 43.764c-.963-.563-1.742-1.928-1.74-3.049l.04-14.245c.003-1.12.787-1.572 1.751-1.01l18.276 10.672z" fill="#ACF3FD"/>
    <path d="M13.945 35.831c1.04.608 1.882 2.082 1.879 3.29-.002.815-.386 1.298-.954 1.346l.937 4.696-3.768-2.201.959-3.589c-.565-.708-.945-1.638-.943-2.453.003-1.208.85-1.696 1.89-1.089z" fill="#32B0E7"/>
    <path d="M12.036 42.963l2.98-1.753.789 3.954-3.769-2.201z" fill="#2195DC"/>
    <path d="M25.548 26.146c0-.1-.001-.2-.005-.302 0-.026-.003-.052-.003-.079a7.032 7.032 0 00-.008-.184c-.003-.05-.003-.097-.007-.147-.001-.035-.006-.07-.008-.104l-.014-.179c-.004-.04-.005-.08-.01-.12l-.015-.138c-.007-.058-.012-.114-.02-.172l-.01-.088c-.008-.061-.016-.122-.026-.184-.008-.053-.014-.106-.023-.16l-.008-.055c-.013-.086-.03-.174-.044-.26l-.02-.117-.003-.022a17.314 17.314 0 00-.083-.413l-.022-.093c-.023-.101-.044-.2-.068-.301l-.012-.045c-.013-.053-.028-.104-.04-.157-.019-.07-.035-.138-.055-.207l-.039-.143a8.05 8.05 0 00-.078-.266c-.012-.04-.025-.078-.038-.116l-.052-.167c-.012-.037-.023-.075-.037-.111l-.06-.175-.047-.14-.02-.059c-.043-.12-.087-.237-.133-.354v-.002l-.001-.003c-.045-.113-.089-.225-.135-.336-.01-.023-.02-.046-.029-.071l-.05-.118c-.02-.048-.04-.098-.061-.145l-.072-.16-.053-.115-.027-.06a15.01 15.01 0 00-.166-.349l-.001-.003a18.697 18.697 0 00-.463-.877c-.023-.042-.048-.083-.07-.125l-.065-.106a14.225 14.225 0 00-.204-.34l-.105-.17c-.072-.115-.147-.23-.22-.342-.024-.033-.045-.07-.066-.103a16.362 16.362 0 00-.388-.551l-.028-.04-.101-.133c-.055-.073-.11-.148-.166-.219l-.042-.056c-.038-.05-.079-.098-.118-.146-.044-.056-.089-.11-.133-.167a1.11 1.11 0 00-.039-.048l-.14-.166c-.04-.05-.08-.099-.123-.147l-.028-.033a11.967 11.967 0 00-.27-.303c-.01-.011-.022-.023-.031-.035a14.887 14.887 0 00-.269-.284l-.018-.019c-.028-.03-.057-.056-.085-.086-.06-.06-.121-.124-.183-.183l-.048-.045c-.04-.04-.082-.076-.122-.114l-.13-.121a8.274 8.274 0 00-.208-.184l-.098-.086c-.034-.03-.07-.058-.104-.086-.045-.038-.09-.074-.135-.11l-.072-.06-.142-.111-.126-.098a1.14 1.14 0 00-.046-.035l-.208-.15c-.03-.022-.06-.045-.091-.066l-.017-.012a13.48 13.48 0 00-.32-.215l-.014-.008a18.647 18.647 0 00-.316-.195l-.076-.045c-.087-.05-.172-.1-.257-.146l-.074-.038-.13-.068-.115-.06c-.04-.02-.079-.036-.118-.056l-.12-.058-.067-.031a4.978 4.978 0 00-.194-.083l-.079-.033a.096.096 0 00-.02-.008c-.096-.04-.191-.075-.286-.11l-.025-.008c-.026-.01-.052-.016-.08-.026-.059-.02-.12-.042-.178-.06l-.069-.02-.11-.031c-.034-.01-.067-.02-.101-.028l-.116-.027a11.878 11.878 0 01-.165-.038 3.168 3.168 0 00-.169-.028l-.095-.017-.023-.003a5.976 5.976 0 00-.291-.031c-.115.001-.23-.002-.34-.004h-.023c-.025 0-.048.004-.07.004a4.41 4.41 0 00-.26.011c-.016.002-.034.002-.05.002-.044.003-.088.01-.133.015a3.415 3.415 0 00-.283.045l-.023.004c-.034.007-.067.017-.1.024-.055.013-.11.026-.165.041-.036.01-.07.021-.104.033l-.102.031-.04.017a3.97 3.97 0 00-.194.08c-.03.013-.06.024-.09.04a3.55 3.55 0 00-.272.142l-2.355 1.385c-.654.397-1.166 1.011-1.538 1.839-.371.827-.558 1.835-.561 3.02l-.013 6.17v.002c.001.847.923 1.534 2.06 1.534s2.06-.688 2.06-1.537v-.009l.013-6.46c0-.11.004-.22.007-.327 0-.02.003-.038.003-.058.005-.084.008-.167.017-.248l.011-.11a3.12 3.12 0 01.038-.31l.024-.16c.008-.046.018-.089.027-.135l.029-.14c.011-.052.026-.104.04-.153.01-.04.02-.081.032-.12.021-.072.046-.143.07-.215l.02-.06c.031-.083.064-.166.1-.246.024-.054.05-.106.077-.159.014-.03.03-.06.046-.09.02-.042.045-.082.068-.121l.035-.058a3.65 3.65 0 01.355.005c.662.046 1.381.294 2.155.746a9.887 9.887 0 012.167 1.778c.669.72 1.243 1.522 1.725 2.41.48.885.855 1.797 1.129 2.737.271.94.406 1.854.404 2.742l-.013 6.17c0 .85.923 1.538 2.06 1.538 1.14 0 2.06-.698 2.06-1.547-.003 0 .01-6.45.01-6.45z" fill="#F4F4F4"/>
    <defs>
        <linearGradient id="trusted-enterprise_9b6b64d8-15e8-4d11-9ff1-26ac22f5ab94" x1="30.993" y1="3.28" x2="30.993" y2="60" gradientUnits="userSpaceOnUse">
            <stop stop-color="#45CAF2"/>
            <stop offset="1" stop-color="#2195DC"/>
        </linearGradient>
    </defs>
</svg>
