<svg data-slug-id="ui-interface05" viewBox="0 0 48 49" xmlns="http://www.w3.org/2000/svg">
<path d="M47.47 24.5067H0.521973V48.0508H47.47V24.5067Z" fill="#0078D4"/>
<path d="M30.9991 28.414C26.6052 28.414 23.0439 31.9753 23.0439 36.3692C23.0439 40.7631 26.6052 44.3244 30.9991 44.3244C35.3931 44.3244 38.9543 40.7631 38.9543 36.3692C38.9461 31.9753 35.3931 28.414 30.9991 28.414ZM30.9991 40.0789C28.9547 40.0789 27.2895 38.4136 27.2895 36.3692C27.2895 34.3248 28.9547 32.6595 30.9991 32.6595C33.0436 32.6595 34.7088 34.3248 34.7088 36.3692C34.7088 38.4136 33.0436 40.0789 30.9991 40.0789Z" fill="white"/>
<path d="M30.9908 32.6595L30.9744 28.414C28.1797 28.4222 25.7231 29.8731 24.3052 32.066L27.7923 34.5061C28.427 33.4015 29.6224 32.6595 30.9908 32.6595Z" fill="#3BCAF4"/>
<path d="M27.2895 36.3693C27.2895 35.6933 27.4708 35.0586 27.7841 34.5145L24.3052 32.0661L24.2887 32.0908C23.5056 33.3274 23.0439 34.7865 23.0439 36.3611C23.0439 37.5317 23.2995 38.6446 23.7529 39.6421L27.6357 37.9274C27.4049 37.4657 27.2895 36.9299 27.2895 36.3693Z" fill="#50E6FF"/>
<path fill-rule="evenodd" clip-rule="evenodd" d="M33.3484 3.55898H47.4781V1.11884H33.3484V3.55898Z" fill="#50E6FF"/>
<path fill-rule="evenodd" clip-rule="evenodd" d="M33.3484 8.46425H47.4781V6.02411H33.3484V8.46425Z" fill="#50E6FF"/>
<path fill-rule="evenodd" clip-rule="evenodd" d="M33.3484 3.55898H39.2756V1.11884H33.3484V3.55898Z" fill="#0078D4"/>
<path fill-rule="evenodd" clip-rule="evenodd" d="M33.3484 8.46425H42.7133V6.02411H33.3484V8.46425Z" fill="#0078D4"/>
<path fill-rule="evenodd" clip-rule="evenodd" d="M33.3484 13.4436H47.4781V11.0035H33.3484V13.4436Z" fill="#50E6FF"/>
<path fill-rule="evenodd" clip-rule="evenodd" d="M33.3484 18.431H47.4781V15.9908H33.3484V18.431Z" fill="#50E6FF"/>
<path fill-rule="evenodd" clip-rule="evenodd" d="M33.3484 13.4436H39.2756V11.0035H33.3484V13.4436Z" fill="#0078D4"/>
<path fill-rule="evenodd" clip-rule="evenodd" d="M33.3484 18.431H42.7133V15.9908H33.3484V18.431Z" fill="#0078D4"/>
<path d="M27.4378 0.970703H3.20943C1.72556 0.970703 0.521973 2.17429 0.521973 3.65816V18.5463C0.521973 20.0302 1.72556 21.2338 3.20943 21.2338H27.4378C28.9216 21.2338 30.1252 20.0302 30.1252 18.5463V3.65816C30.1252 2.17429 28.9216 0.970703 27.4378 0.970703Z" fill="#0078D4"/>
<path d="M15.4268 12.0997C16.1275 12.0997 16.6963 11.5309 16.6963 10.8301C16.6963 10.1294 16.1275 9.56061 15.4268 9.56061C14.726 9.56061 14.1572 10.1294 14.1572 10.8301C14.1572 11.5309 14.726 12.0997 15.4268 12.0997Z" fill="#50E6FF"/>
<path d="M15.4266 4.87854C12.1373 4.87854 9.47461 7.54126 9.47461 10.8305C9.47461 14.1198 12.1373 16.7825 15.4266 16.7825C18.7158 16.7825 21.3786 14.1198 21.3786 10.8305C21.3786 7.54126 18.7158 4.87854 15.4266 4.87854ZM15.4266 15.6201C12.7886 15.6201 10.637 13.4932 10.637 10.8305C10.637 8.16779 12.7886 6.04091 15.4266 6.04091C18.0646 6.04091 20.2409 8.16779 20.2409 10.8305C20.2409 13.4932 18.0893 15.6201 15.4266 15.6201Z" fill="#50E6FF"/>
<path d="M11.6758 26.3119C11.6758 26.0728 11.478 25.875 11.2389 25.875C10.9999 25.875 10.802 26.0728 10.802 26.3119V48.1166H11.6758V26.3119Z" fill="#50E6FF"/>
<path d="M13.4317 33.1956C13.4317 32.9566 13.2338 32.7587 12.9948 32.7587C12.7557 32.7587 12.5579 32.9566 12.5579 33.1956V48.1168H13.4317V33.1956Z" fill="#50E6FF"/>
<path d="M15.0474 32.4615C15.0474 32.2224 14.8496 32.0245 14.6105 32.0245C14.3714 32.0245 14.1736 32.2224 14.1736 32.4615V48.1163H15.0474V32.4615Z" fill="#50E6FF"/>
<path d="M18.2708 42.2801C18.2708 42.041 18.073 41.8431 17.8339 41.8431C17.5948 41.8431 17.397 42.041 17.397 42.2801V48.1166H18.2708V42.2801Z" fill="#50E6FF"/>
<path d="M3.62164 46.377C3.62164 46.138 3.42379 45.9401 3.18472 45.9401C2.94565 45.9401 2.7478 46.138 2.7478 46.377V48.1165H3.62164V46.377Z" fill="#50E6FF"/>
<path d="M2.00592 47.2594C2.00592 47.0204 1.80807 46.8225 1.569 46.8225C1.32993 46.8225 1.13208 47.0204 1.13208 47.2594V48.125H2.00592V47.2594Z" fill="#50E6FF"/>
<path d="M19.9112 47.2594C19.9112 47.0204 19.7133 46.8225 19.4743 46.8225C19.2352 46.8225 19.0374 47.0204 19.0374 47.2594V48.125H19.9112V47.2594Z" fill="#50E6FF"/>
<path d="M21.5269 47.6963C21.5269 47.4572 21.3291 47.2594 21.09 47.2594C20.8509 47.2594 20.6531 47.4572 20.6531 47.6963V48.1167H21.5269V47.6963Z" fill="#50E6FF"/>
<path d="M16.6551 39.205C16.6551 38.966 16.4572 38.7681 16.2182 38.7681C15.9791 38.7681 15.7812 38.966 15.7812 39.205V48.1248H16.6551V39.205Z" fill="#50E6FF"/>
<path d="M10.0599 39.205C10.0599 38.966 9.86202 38.7681 9.62295 38.7681C9.38388 38.7681 9.18604 38.966 9.18604 39.205V48.1248H10.0599V39.205Z" fill="#50E6FF"/>
<path d="M8.45245 37.1526C8.45245 36.9135 8.2546 36.7156 8.01553 36.7156C7.77646 36.7156 7.57861 36.9135 7.57861 37.1526V48.1167H8.45245V37.1526Z" fill="#50E6FF"/>
<path d="M6.84503 42.1319C6.84503 41.8928 6.64718 41.6949 6.40811 41.6949C6.16904 41.6949 5.97119 41.8928 5.97119 42.1319V48.1168H6.84503V42.1319Z" fill="#50E6FF"/>
<path d="M5.22906 40.6645C5.22906 40.4254 5.03121 40.2275 4.79214 40.2275C4.55307 40.2275 4.35522 40.4254 4.35522 40.6645V48.1168H5.22906V40.6645Z" fill="#50E6FF"/>
<path d="M44.8402 26.9551H43.0266V28.7687H44.8402V26.9551Z" fill="white"/>
<path d="M44.8402 29.5601H43.0266V31.3737H44.8402V29.5601Z" fill="#50E6FF"/>
<path d="M44.8402 32.1732H43.0266V33.9868H44.8402V32.1732Z" fill="#3BCAF4"/>
</svg>
