<svg data-slug-id="ui-interface07" viewBox="0 0 48 49" xmlns="http://www.w3.org/2000/svg">
<path d="M32.5544 38.6545C40.2777 38.6545 46.5386 33.8626 46.5386 27.9515C46.5386 22.0405 40.2777 17.2486 32.5544 17.2486C24.8312 17.2486 18.5703 22.0405 18.5703 27.9515C18.5703 33.8626 24.8312 38.6545 32.5544 38.6545Z" fill="#50E6FF"/>
<path d="M15.2503 27.795C22.8656 27.795 29.0391 23.0031 29.0391 17.092C29.0391 11.181 22.8656 6.3891 15.2503 6.3891C7.63489 6.3891 1.46143 11.181 1.46143 17.092C1.46143 23.0031 7.63489 27.795 15.2503 27.795Z" fill="#0078D4"/>
<path d="M7.63306 24.1235V31.389C7.63306 31.8578 8.17992 32.0921 8.49242 31.7406L15.0939 25.2563C15.0939 25.2563 7.75024 24.0845 7.63306 24.1235Z" fill="#0078D4"/>
<path d="M16.1879 10.8812H14.3129L9.93799 22.2482H12.2817L13.3364 19.3186H17.1644L18.2582 22.2482H20.5628L16.1879 10.8812ZM16.3832 17.3264H14.0395L15.2113 14.1234L16.3832 17.3264Z" fill="#50E6FF"/>
<path d="M35.7966 26.5054C34.82 25.9976 33.3747 26.1929 32.0076 26.6617C32.0466 26.2711 32.0857 25.8805 32.1248 25.5289C32.6716 25.4508 33.1794 25.2945 33.6091 25.0602C34.4294 24.6695 34.195 23.4586 33.0232 23.6539C32.8279 23.693 32.5935 23.7321 32.3201 23.7321C32.3591 23.1852 32.3982 22.8336 32.4373 22.7555C32.6326 21.2712 31.1092 21.4665 30.992 22.0524C30.9138 22.3649 30.8357 22.9899 30.7967 23.7321C30.6404 23.7321 30.4842 23.732 30.367 23.693C29.6248 23.6539 28.9998 23.3414 28.6873 24.2008C28.4139 25.0602 29.8592 25.4508 30.6795 25.5289C30.6404 25.9976 30.6013 26.5836 30.5623 27.2086C30.2107 27.4039 29.8592 27.5992 29.5467 27.7945C27.867 28.8882 27.2811 30.2554 27.1639 30.7241C26.8905 31.896 27.4764 32.9506 28.5701 33.3413C29.7029 33.7319 31.3045 33.3022 31.617 30.1773C31.6951 29.5523 31.7341 28.9273 31.8123 28.2632C32.4763 27.9507 33.1794 27.6773 33.8044 27.5601C35.2106 27.3257 35.9528 27.9507 35.9528 29.396C35.9138 30.8022 35.2106 31.3882 34.7028 31.9741C33.9216 32.8335 34.9372 33.6928 35.6013 33.1069C35.9138 32.8335 37.32 31.935 37.5544 30.4897C37.7497 29.0835 37.4762 27.4039 35.7966 26.5054ZM30.2107 30.5679C30.0154 31.9741 29.0389 32.2866 28.8045 31.6616C28.492 30.8804 29.1951 30.0601 29.9373 29.5132C30.0545 29.4351 30.2107 29.3179 30.406 29.2007C30.3279 29.7085 30.2889 30.1773 30.2107 30.5679Z" fill="#0078D4"/>
<path d="M37.9841 25.3726C37.9059 24.4742 37.5934 23.8883 36.5778 23.1852C35.6794 22.5602 35.2497 22.5602 34.8591 22.8336C34.3904 23.1852 34.3904 23.693 35.1325 24.1617C35.8747 24.6695 36.3435 25.2164 36.4997 25.6461C36.8513 26.4273 38.1012 26.2711 37.9841 25.3726Z" fill="#0078D4"/>
<path d="M40.3668 34.7089V42.0916C40.3668 42.6385 39.7028 42.9119 39.3122 42.5213L33.4138 36.623L40.3668 34.7089Z" fill="#50E6FF"/>
</svg>
