<svg data-slug-id="ui-interface04" viewBox="0 0 48 49" xmlns="http://www.w3.org/2000/svg">
<path d="M47.8742 10.6496H0.0419922V23.218H47.8742V10.6496Z" fill="#50E6FF"/>
<path d="M43.184 17.7811C43.6035 17.2274 43.8552 16.5394 43.8552 15.7927C43.8552 14.6936 43.3098 13.7203 42.4792 13.133C41.9506 12.7554 41.2962 12.5373 40.5914 12.5373C38.7875 12.5373 37.3276 13.9972 37.3276 15.8011C37.3276 17.6049 38.7875 19.0648 40.5914 19.0648C41.2962 19.0648 41.9422 18.8383 42.4792 18.4607C42.496 18.4523 42.5127 18.4356 42.5211 18.4272L45.4409 21.3469L46.0953 20.7009L43.184 17.7811ZM42.4792 17.1603C42.0513 17.7476 41.3717 18.1251 40.5914 18.1251C39.3077 18.1251 38.2673 17.0847 38.2673 15.8011C38.2673 14.5174 39.3077 13.477 40.5914 13.477C41.3633 13.477 42.0513 13.8545 42.4708 14.4419C42.7477 14.8278 42.9155 15.2976 42.9155 15.8094C42.9239 16.3045 42.7644 16.7743 42.4792 17.1603Z" fill="#0078D7"/>
<path d="M27.4191 30.8279H22.2927V38.2868H27.4191V30.8279Z" fill="#0078D4"/>
<path d="M26.4876 31.7592H23.2239V33.1603H26.4876V31.7592Z" fill="#50E6FF"/>
<path d="M23.6937 34.0832H23.2239V34.553H23.6937V34.0832Z" fill="#50E6FF"/>
<path d="M23.6937 35.4844H23.2239V35.9542H23.6937V35.4844Z" fill="#50E6FF"/>
<path d="M23.6937 36.8856H23.2239V37.3554H23.6937V36.8856Z" fill="#50E6FF"/>
<path d="M25.0948 34.0832H24.625V34.553H25.0948V34.0832Z" fill="#50E6FF"/>
<path d="M25.0948 35.4844H24.625V35.9542H25.0948V35.4844Z" fill="#50E6FF"/>
<path d="M25.0948 36.8856H24.625V37.3554H25.0948V36.8856Z" fill="#50E6FF"/>
<path d="M26.4877 34.0832H26.0178V34.553H26.4877V34.0832Z" fill="#50E6FF"/>
<path d="M26.4877 35.4844H26.0178V35.9542H26.4877V35.4844Z" fill="#50E6FF"/>
<path d="M26.4877 36.8856H26.0178V37.3554H26.4877V36.8856Z" fill="#50E6FF"/>
<path d="M7.97065 30.8279H0.847422C0.411134 30.8279 0.0671387 31.1803 0.0671387 31.6082V37.5484C0.0671387 37.9847 0.419525 38.3287 0.847422 38.3287H7.97065C8.40694 38.3287 8.75093 37.9763 8.75093 37.5484V31.6082C8.75933 31.1719 8.40694 30.8279 7.97065 30.8279Z" fill="#0078D4"/>
<path d="M4.41311 34.9475C4.61447 34.9475 4.78228 34.7797 4.78228 34.5783C4.78228 34.377 4.61447 34.2092 4.41311 34.2092C4.21175 34.2092 4.04395 34.377 4.04395 34.5783C4.04395 34.7797 4.21175 34.9475 4.41311 34.9475Z" fill="#50E6FF"/>
<path d="M4.41327 32.8416C3.4568 32.8416 2.67651 33.6219 2.67651 34.5784C2.67651 35.5349 3.4568 36.3151 4.41327 36.3151C5.36975 36.3151 6.15003 35.5349 6.15003 34.5784C6.15003 33.6135 5.37814 32.8416 4.41327 32.8416ZM4.41327 35.9711C3.64138 35.9711 3.01212 35.3503 3.01212 34.57C3.01212 33.7897 3.64138 33.1688 4.41327 33.1688C5.18517 33.1688 5.82282 33.7897 5.82282 34.57C5.82282 35.3503 5.19356 35.9711 4.41327 35.9711Z" fill="#50E6FF"/>
<path d="M19.1379 30.8279H11.7378V38.2197H19.1379V30.8279Z" fill="#50E6FF"/>
<path d="M11.7293 35.7781V38.3287H19.1378V36.7681V36.7849L17.9632 35.6019L16.7886 36.7849L13.6926 33.7645L11.7209 35.7361L11.7293 35.7781Z" fill="#0078D4"/>
<path d="M18.1563 32.6736C18.1563 33.2106 17.7284 33.6385 17.1914 33.6385C16.6545 33.6385 16.2266 33.2022 16.2266 32.6736C16.2266 32.1367 16.6545 31.7004 17.183 31.7004C17.72 31.7004 18.1563 32.1283 18.1563 32.6736Z" fill="#0078D4"/>
<path d="M36.0777 38.3036H30.5737V30.8279H34.3745L34.7185 31.9354L36.0777 32.5311V38.3036Z" fill="#0078D4"/>
<path d="M36.0692 32.5227H34.366V30.8195L36.0692 32.5227Z" fill="#50E6FF"/>
<path d="M34.6849 33.3533H31.9497V33.8064H34.6849V33.3533Z" fill="white"/>
<path d="M34.6849 34.7461H31.9497V35.1992H34.6849V34.7461Z" fill="white"/>
<path d="M34.6849 36.1136H31.9497V36.5667H34.6849V36.1136Z" fill="white"/>
<path d="M45.0971 32.2207L44.5098 38.3371H45.8606C45.869 38.3371 45.8774 38.3371 45.8858 38.3371H47.0855C47.4547 38.3371 47.7568 38.0351 47.7568 37.6659V32.8919C47.7568 32.5227 47.4547 32.2207 47.0855 32.2207H45.0971Z" fill="#50E6FF"/>
<path d="M39.4756 38.3455H44.7614C45.1138 38.3455 45.4075 38.0602 45.4075 37.6995V31.474C45.4075 31.1216 45.1222 30.8279 44.7614 30.8279H39.4756C39.1232 30.8279 38.8296 31.1132 38.8296 31.474V37.6995C38.8296 38.0519 39.1149 38.3455 39.4756 38.3455Z" fill="#0078D4"/>
<path d="M41.5732 31.7508H39.7693V33.5547H41.5732V31.7508Z" fill="#50E6FF"/>
<path d="M44.4676 31.7508H42.1184V32.0109H44.4676V31.7508Z" fill="#50E6FF"/>
<path d="M44.4845 33.2946H42.1353V33.5547H44.4845V33.2946Z" fill="#50E6FF"/>
<path d="M44.4676 32.5226H42.1184V32.7827H44.4676V32.5226Z" fill="#50E6FF"/>
<path d="M42.6807 37.3302H44.4845V35.5264H42.6807V37.3302Z" fill="#50E6FF"/>
<path d="M39.7693 37.305H42.1185V37.0449H39.7693V37.305Z" fill="#50E6FF"/>
<path d="M39.7693 35.7697H42.1185V35.5096H39.7693V35.7697Z" fill="#50E6FF"/>
<path d="M39.7693 36.5415H42.1185V36.2814H39.7693V36.5415Z" fill="#50E6FF"/>
<path d="M44.4594 34.1084H39.7693V34.8971H44.4594V34.1084Z" fill="#50E6FF"/>
</svg>
