<svg data-slug-id="ui-interface09" viewBox="0 0 48 49" xmlns="http://www.w3.org/2000/svg">
<path d="M15.5224 2.11377H1.02881V11.7654H15.5224V2.11377Z" fill="#0078D4"/>
<path d="M31.2426 2.11328H16.749V11.7649H31.2426V2.11328Z" fill="#0078D4"/>
<path d="M46.9628 2.11328H32.4692V11.7649H46.9628V2.11328Z" fill="#0078D4"/>
<path d="M15.5224 12.9514H1.02881V15.3239H15.5224V12.9514Z" fill="#0078D4"/>
<path d="M31.2748 12.9514H16.7812V15.3239H31.2748V12.9514Z" fill="#0078D4"/>
<path d="M46.9706 12.9514H32.4771V15.3239H46.9706V12.9514Z" fill="#0078D4"/>
<path d="M15.5224 28.7357H1.02881V31.1083H15.5224V28.7357Z" fill="#3BCAF4"/>
<path d="M31.2748 28.7357H16.7812V31.1083H31.2748V28.7357Z" fill="#3BCAF4"/>
<path d="M46.9706 28.7357H32.4771V31.1083H46.9706V28.7357Z" fill="#3BCAF4"/>
<path d="M15.5224 44.6097H1.02881V46.9823H15.5224V44.6097Z" fill="#50E6FF"/>
<path d="M31.2748 44.6097H16.7812V46.9823H31.2748V44.6097Z" fill="#50E6FF"/>
<path d="M46.9706 44.6097H32.4771V46.9823H46.9706V44.6097Z" fill="#50E6FF"/>
<path d="M15.5224 17.7043H1.02881V27.1461H15.5224V17.7043Z" fill="#3BCAF4"/>
<path d="M31.2426 17.7043H16.749V27.1461H31.2426V17.7043Z" fill="#3BCAF4"/>
<path d="M46.9628 17.7043H32.4692V27.1461H46.9628V17.7043Z" fill="#3BCAF4"/>
<path d="M15.5224 33.7797H1.02881V43.3264H15.5224V33.7797Z" fill="#50E6FF"/>
<path d="M31.2426 33.7797H16.749V43.3264H31.2426V33.7797Z" fill="#50E6FF"/>
<path d="M46.9628 33.7797H32.4692V43.3264H46.9628V33.7797Z" fill="#50E6FF"/>
<path d="M14.5541 2.89624H1.85205V10.0058H14.546V2.89624H14.5541Z" fill="#50E6FF"/>
<path d="M1.84375 7.66554V10.1188H14.7717L13.0448 8.4806L10.8336 10.5223L7.88004 7.49607L6.75026 8.63393L3.75632 5.72876L1.84375 7.62519V7.66554Z" fill="#0078D4"/>
<path d="M8.06558 4.67164C8.06558 5.18812 7.64594 5.59968 7.12947 5.59968C6.61299 5.59968 6.19336 5.18005 6.19336 4.67164C6.19336 4.15517 6.60492 3.73553 7.1214 3.73553C7.64594 3.73553 8.06558 4.15517 8.06558 4.67164Z" fill="#0078D4"/>
<path d="M30.4274 2.89624H17.7334V10.0058H30.4274V2.89624Z" fill="#50E6FF"/>
<path d="M17.7256 7.66553V10.1188H30.6536L28.9266 8.48059L26.7155 10.5223L23.7619 7.50413L22.6321 8.64198L19.6382 5.73682L17.7337 7.63325L17.7256 7.66553Z" fill="#0078D4"/>
<path d="M23.9474 4.67164C23.9474 5.18812 23.5278 5.59968 23.0113 5.59968C22.4948 5.59968 22.0752 5.18005 22.0752 4.67164C22.0752 4.15517 22.4868 3.73553 23.0032 3.73553C23.5197 3.73553 23.9474 4.15517 23.9474 4.67164Z" fill="#0078D4"/>
<path d="M46.1559 2.89624H33.4619V10.0058H46.1559V2.89624Z" fill="#50E6FF"/>
<path d="M33.4536 7.66553V10.1188H46.3816L44.6546 8.48059L42.4435 10.5223L39.4899 7.50413L38.3601 8.64198L35.3662 5.73682L33.4617 7.63325L33.4536 7.66553Z" fill="#0078D4"/>
<path d="M39.6676 4.67164C39.6676 5.18812 39.248 5.59968 38.7315 5.59968C38.215 5.59968 37.7954 5.18005 37.7954 4.67164C37.7954 4.15517 38.207 3.73553 38.7234 3.73553C39.248 3.73553 39.6676 4.15517 39.6676 4.67164Z" fill="#0078D4"/>
<path d="M14.5541 19.0762H1.85205V26.0324H14.546V19.0762H14.5541Z" fill="#0078D4"/>
<path d="M1.84375 23.7408V26.1375H14.7717L13.0448 24.5397L10.8336 26.533L7.88004 23.5794L6.75026 24.693L3.75632 21.8524L1.85182 23.7085L1.84375 23.7408Z" fill="#3BCAF4"/>
<path d="M8.06558 20.8113C8.06558 21.3116 7.64594 21.7151 7.12947 21.7151C6.61299 21.7151 6.19336 21.3116 6.19336 20.8113C6.19336 20.3109 6.60492 19.8994 7.1214 19.8994C7.64594 19.8994 8.06558 20.3028 8.06558 20.8113Z" fill="#3BCAF4"/>
<path d="M30.4274 19.0762H17.7334V26.0324H30.4274V19.0762Z" fill="#0078D4"/>
<path d="M17.7256 23.7408V26.1375H30.6536L28.9266 24.5397L26.7155 26.533L23.7619 23.5794L22.6321 24.693L19.6382 21.8524L17.7337 23.7085L17.7256 23.7408Z" fill="#3BCAF4"/>
<path d="M23.9474 20.8113C23.9474 21.3116 23.5278 21.7151 23.0113 21.7151C22.4948 21.7151 22.0752 21.3116 22.0752 20.8113C22.0752 20.3109 22.4868 19.8994 23.0032 19.8994C23.5197 19.8994 23.9474 20.3028 23.9474 20.8113Z" fill="#3BCAF4"/>
<path d="M46.1559 19.0762H33.4619V26.0324H46.1559V19.0762Z" fill="#0078D4"/>
<path d="M33.4536 23.7408V26.1375H46.3816L44.6546 24.5397L42.4435 26.533L39.4899 23.5794L38.3601 24.693L35.3662 21.8524L33.4617 23.7085L33.4536 23.7408Z" fill="#3BCAF4"/>
<path d="M39.6676 20.8113C39.6676 21.3116 39.248 21.7151 38.7315 21.7151C38.215 21.7151 37.7954 21.3116 37.7954 20.8113C37.7954 20.3109 38.207 19.8994 38.7234 19.8994C39.248 19.8994 39.6676 20.3028 39.6676 20.8113Z" fill="#3BCAF4"/>
<path d="M14.5541 34.9819H1.85205V42.0189H14.546V34.9819H14.5541Z" fill="#0078D4"/>
<path d="M1.84375 39.7029V42.1239H14.7717L13.0448 40.5099L10.8336 42.5274L7.88004 39.5415L6.75026 40.6632L3.74825 37.7823L1.84375 39.6626V39.7029Z" fill="#50E6FF"/>
<path d="M8.06558 36.7412C8.06558 37.2496 7.64594 37.6612 7.12947 37.6612C6.61299 37.6612 6.19336 37.2496 6.19336 36.7412C6.19336 36.2328 6.60492 35.8132 7.1214 35.8132C7.64594 35.8212 8.06558 36.2328 8.06558 36.7412Z" fill="#50E6FF"/>
<path d="M30.4274 34.9819H17.7334V42.0189H30.4274V34.9819Z" fill="#0078D4"/>
<path d="M17.7256 39.7029V42.1239H30.6536L28.9266 40.5099L26.7155 42.5274L23.7619 39.5415L22.6321 40.6632L19.6301 37.7823L17.7256 39.6626V39.7029Z" fill="#50E6FF"/>
<path d="M23.9474 36.7412C23.9474 37.2496 23.5278 37.6612 23.0113 37.6612C22.4948 37.6612 22.0752 37.2496 22.0752 36.7412C22.0752 36.2328 22.4868 35.8132 23.0032 35.8132C23.5197 35.8212 23.9474 36.2328 23.9474 36.7412Z" fill="#50E6FF"/>
<path d="M46.1559 34.9819H33.4619V42.0189H46.1559V34.9819Z" fill="#0078D4"/>
<path d="M33.4539 39.7029V42.1239H46.3819L44.6549 40.5099L42.4437 42.5274L39.4902 39.5415L38.3604 40.6632L35.3503 37.7823L33.4458 39.6626L33.4539 39.7029Z" fill="#50E6FF"/>
<path d="M39.6676 36.7412C39.6676 37.2496 39.248 37.6612 38.7315 37.6612C38.215 37.6612 37.7954 37.2496 37.7954 36.7412C37.7954 36.2328 38.207 35.8132 38.7234 35.8132C39.248 35.8212 39.6676 36.2328 39.6676 36.7412Z" fill="#50E6FF"/>
</svg>
