<svg data-slug-id="ui-interface14" viewBox="0 0 48 49" xmlns="http://www.w3.org/2000/svg">
<path d="M0.446289 13.2383V30.8468H18.0547V13.2383H0.446289Z" fill="#0078D7"/>
<path d="M12.101 16.6152C11.4105 16.6152 10.7958 16.7836 10.2653 17.1204L10.1642 17.1878V18.6278L10.5347 18.3078C10.9895 17.9289 11.4779 17.7436 12.0337 17.7436C12.3874 17.7436 12.7831 17.8446 12.8421 18.6025L11.5368 18.7878C10.0042 18.9983 9.67578 19.9246 9.67578 20.6573C9.67578 21.1625 9.8442 21.5752 10.1726 21.8783C10.501 22.1815 10.9474 22.3415 11.5032 22.3415C12.0421 22.3415 12.4884 22.1731 12.8505 21.8362V22.2236H14.1137V18.7204C14.1053 17.3478 13.4147 16.6152 12.101 16.6152ZM11.6884 21.2131C11.4526 21.2131 11.2674 21.1541 11.141 21.0362C11.0147 20.9268 10.9558 20.7836 10.9558 20.6068C10.9558 20.3457 11.0147 20.1773 11.141 20.0846C11.301 19.9752 11.5537 19.891 11.8905 19.8489L12.8505 19.7141V19.9583C12.8505 20.3289 12.741 20.632 12.5221 20.8678C12.2947 21.1036 12.0253 21.2131 11.6884 21.2131Z" fill="#50E6FF"/>
<path d="M8.37068 19.8321H7.0991L4.16016 27.4952H5.73489L6.44226 25.5163H9.01068L9.76016 27.4952H11.3265L8.37068 19.8321ZM8.51384 24.1689H6.93068L7.71384 22.0131L8.51384 24.1689Z" fill="#50E6FF"/>
<path d="M25.6082 36.7751C25.4482 36.7751 25.3135 36.6403 25.3135 36.4803V7.60455C25.3135 7.44455 25.4482 7.30981 25.6082 7.30981C25.7682 7.30981 25.903 7.44455 25.903 7.60455V36.4803C25.903 36.6403 25.7766 36.7751 25.6082 36.7751Z" fill="#0078D7"/>
<path d="M26.7957 33.9204C26.6357 33.9204 26.501 33.7857 26.501 33.6257V12.2362C26.501 12.0762 26.6357 11.9415 26.7957 11.9415C26.9557 11.9415 27.0905 12.0762 27.0905 12.2362V33.6173C27.0905 33.7857 26.9557 33.9204 26.7957 33.9204Z" fill="#0078D7"/>
<path d="M27.8821 34.4087C27.7221 34.4087 27.5874 34.274 27.5874 34.114V11.7477C27.5874 11.5877 27.7221 11.4529 27.8821 11.4529C28.0421 11.4529 28.1769 11.5877 28.1769 11.7477V34.114C28.1769 34.274 28.0421 34.4087 27.8821 34.4087Z" fill="#0078D7"/>
<path d="M30.0462 26.232C29.8862 26.232 29.7515 26.0973 29.7515 25.9373V18.3499C29.7515 18.1899 29.8862 18.0552 30.0462 18.0552C30.2062 18.0552 30.3409 18.1899 30.3409 18.3499V25.9373C30.3409 26.0973 30.2062 26.232 30.0462 26.232Z" fill="#0078D7"/>
<path d="M32.2108 26.3245C32.0508 26.3245 31.916 26.1898 31.916 26.0298V18.1477C31.916 17.9877 32.0508 17.853 32.2108 17.853C32.3708 17.853 32.5055 17.9877 32.5055 18.1477V26.0298C32.5055 26.1982 32.3792 26.3245 32.2108 26.3245Z" fill="#0078D7"/>
<path d="M33.2967 27.0151C33.1367 27.0151 33.002 26.8803 33.002 26.7203V17.5582C33.002 17.3982 33.1367 17.2635 33.2967 17.2635C33.4567 17.2635 33.5914 17.3982 33.5914 17.5582V26.7203C33.5914 26.8888 33.4651 27.0151 33.2967 27.0151Z" fill="#0078D7"/>
<path d="M34.3831 23.9666C34.2231 23.9666 34.0884 23.8319 34.0884 23.6719V20.5224C34.0884 20.3624 34.2231 20.2277 34.3831 20.2277C34.5431 20.2277 34.6779 20.3624 34.6779 20.5224V23.6719C34.6779 23.8319 34.5431 23.9666 34.3831 23.9666Z" fill="#0078D7"/>
<path d="M35.4695 24.5562C35.3095 24.5562 35.1748 24.4215 35.1748 24.2615V20.0257C35.1748 19.8657 35.3095 19.731 35.4695 19.731C35.6295 19.731 35.7643 19.8657 35.7643 20.0257V24.2615C35.7643 24.4215 35.6295 24.5562 35.4695 24.5562Z" fill="#0078D7"/>
<path d="M36.5472 24.8509C36.3872 24.8509 36.2524 24.7162 36.2524 24.5562V19.7309C36.2524 19.5709 36.3872 19.4362 36.5472 19.4362C36.7072 19.4362 36.8419 19.5709 36.8419 19.7309V24.5562C36.8419 24.7162 36.7072 24.8509 36.5472 24.8509Z" fill="#0078D7"/>
<path d="M37.6336 23.9667C37.4736 23.9667 37.3389 23.832 37.3389 23.672V20.6151C37.3389 20.4551 37.4736 20.3204 37.6336 20.3204C37.7936 20.3204 37.9283 20.4551 37.9283 20.6151V23.672C37.9283 23.832 37.7936 23.9667 37.6336 23.9667Z" fill="#0078D7"/>
<path d="M38.72 23.3688C38.56 23.3688 38.4253 23.2341 38.4253 23.0741V21.2046C38.4253 21.0446 38.56 20.9099 38.72 20.9099C38.88 20.9099 39.0148 21.0446 39.0148 21.2046V23.0741C39.0148 23.2425 38.88 23.3688 38.72 23.3688Z" fill="#0078D7"/>
<path d="M39.7982 23.6719C39.6382 23.6719 39.5034 23.5372 39.5034 23.3772V20.8172C39.5034 20.6572 39.6382 20.5225 39.7982 20.5225C39.9582 20.5225 40.0929 20.6572 40.0929 20.8172V23.3772C40.0929 23.5372 39.9666 23.6719 39.7982 23.6719Z" fill="#0078D7"/>
<path d="M40.8841 23.3688C40.7241 23.3688 40.5894 23.2341 40.5894 23.0741V21.2046C40.5894 21.0446 40.7241 20.9099 40.8841 20.9099C41.0441 20.9099 41.1788 21.0446 41.1788 21.2046V23.0741C41.1788 23.2425 41.0525 23.3688 40.8841 23.3688Z" fill="#0078D7"/>
<path d="M42.0633 23.1752C41.9033 23.1752 41.7686 23.0404 41.7686 22.8804V21.3983C41.7686 21.2383 41.9033 21.1036 42.0633 21.1036C42.2233 21.1036 42.358 21.2383 42.358 21.3983V22.8804C42.358 23.0404 42.2317 23.1752 42.0633 23.1752Z" fill="#0078D7"/>
<path d="M20.1937 23.4698C20.0337 23.4698 19.8989 23.3351 19.8989 23.1751V21.1035C19.8989 20.9435 20.0337 20.8088 20.1937 20.8088C20.3537 20.8088 20.4884 20.9435 20.4884 21.1035V23.1751C20.4884 23.3351 20.3537 23.4698 20.1937 23.4698Z" fill="#0078D7"/>
<path d="M19.1072 22.7793C18.9472 22.7793 18.8125 22.6446 18.8125 22.4846V21.693C18.8125 21.533 18.9472 21.3983 19.1072 21.3983C19.2672 21.3983 19.402 21.533 19.402 21.693V22.4846C19.402 22.653 19.2672 22.7793 19.1072 22.7793Z" fill="#0078D7"/>
<path d="M46.1053 23.4698C45.9453 23.4698 45.8105 23.3351 45.8105 23.1751V21.1035C45.8105 20.9435 45.9453 20.8088 46.1053 20.8088C46.2653 20.8088 46.4 20.9435 46.4 21.1035V23.1751C46.4 23.3351 46.2737 23.4698 46.1053 23.4698Z" fill="#0078D7"/>
<path d="M47.2928 23.4698C47.1328 23.4698 46.998 23.3351 46.998 23.1751V21.1035C46.998 20.9435 47.1328 20.8088 47.2928 20.8088C47.4528 20.8088 47.5875 20.9435 47.5875 21.1035V23.1751C47.5875 23.3351 47.4528 23.4698 47.2928 23.4698Z" fill="#0078D7"/>
<path d="M45.0272 22.7793C44.8672 22.7793 44.7324 22.6446 44.7324 22.4846V21.693C44.7324 21.533 44.8672 21.3983 45.0272 21.3983C45.1872 21.3983 45.3219 21.533 45.3219 21.693V22.4846C45.3219 22.653 45.1872 22.7793 45.0272 22.7793Z" fill="#0078D7"/>
<path d="M43.9412 23.0741C43.7812 23.0741 43.6465 22.9394 43.6465 22.7794V21.3983C43.6465 21.2383 43.7812 21.1036 43.9412 21.1036C44.1012 21.1036 44.236 21.2383 44.236 21.3983V22.7794C44.236 22.9478 44.1012 23.0741 43.9412 23.0741Z" fill="#0078D7"/>
<path d="M42.8548 22.7793C42.6948 22.7793 42.5601 22.6446 42.5601 22.4846V21.693C42.5601 21.533 42.6948 21.3983 42.8548 21.3983C43.0148 21.3983 43.1495 21.533 43.1495 21.693V22.4846C43.1495 22.653 43.0232 22.7793 42.8548 22.7793Z" fill="#0078D7"/>
<path d="M16.9432 22.7793C16.7832 22.7793 16.6484 22.6446 16.6484 22.4846V21.693C16.6484 21.533 16.7832 21.3983 16.9432 21.3983C17.1032 21.3983 17.2379 21.533 17.2379 21.693V22.4846C17.2379 22.653 17.1032 22.7793 16.9432 22.7793Z" fill="#0078D7"/>
<path d="M18.0296 22.5856C17.8696 22.5856 17.7349 22.4508 17.7349 22.2908V21.9961C17.7349 21.8361 17.8696 21.7014 18.0296 21.7014C18.1896 21.7014 18.3243 21.8361 18.3243 21.9961V22.2908C18.3243 22.4508 18.1896 22.5856 18.0296 22.5856Z" fill="#0078D7"/>
<path d="M31.1243 24.5562C30.9643 24.5562 30.8296 24.4215 30.8296 24.2615V19.9246C30.8296 19.7646 30.9643 19.6299 31.1243 19.6299C31.2843 19.6299 31.4191 19.7646 31.4191 19.9246V24.2615C31.4191 24.4215 31.2927 24.5562 31.1243 24.5562Z" fill="#0078D7"/>
<path d="M28.9603 28.2025C28.8003 28.2025 28.6655 28.0677 28.6655 27.9077V16.2783C28.6655 16.1183 28.8003 15.9835 28.9603 15.9835C29.1203 15.9835 29.255 16.1183 29.255 16.2783V27.9077C29.255 28.0677 29.1203 28.2025 28.9603 28.2025Z" fill="#0078D7"/>
<path d="M24.5306 28.2025C24.3706 28.2025 24.2358 28.0677 24.2358 27.9077V16.2783C24.2358 16.1183 24.3706 15.9835 24.5306 15.9835C24.6906 15.9835 24.8253 16.1183 24.8253 16.2783V27.9077C24.8253 28.0677 24.6906 28.2025 24.5306 28.2025Z" fill="#0078D7"/>
<path d="M23.4442 29.6761C23.2842 29.6761 23.1494 29.5414 23.1494 29.3814V14.8972C23.1494 14.7372 23.2842 14.6024 23.4442 14.6024C23.6042 14.6024 23.7389 14.7372 23.7389 14.8972V29.3814C23.7389 29.5498 23.6042 29.6761 23.4442 29.6761Z" fill="#0078D7"/>
<path d="M22.3577 26.3246C22.1977 26.3246 22.063 26.1899 22.063 26.0299V18.2488C22.063 18.0888 22.1977 17.9541 22.3577 17.9541C22.5177 17.9541 22.6525 18.0888 22.6525 18.2488V26.0299C22.6525 26.1983 22.5261 26.3246 22.3577 26.3246Z" fill="#0078D7"/>
<path d="M21.2718 27.3099C21.1118 27.3099 20.9771 27.1751 20.9771 27.0151V17.2635C20.9771 17.1035 21.1118 16.9688 21.2718 16.9688C21.4318 16.9688 21.5665 17.1035 21.5665 17.2635V27.0151C21.5665 27.1835 21.4402 27.3099 21.2718 27.3099Z" fill="#0078D7"/>
</svg>
