<svg data-slug-id="ui-interface08" viewBox="0 0 48 49" xmlns="http://www.w3.org/2000/svg">
<path d="M15.3641 0.94873H0.583252V10.8467H15.3641V0.94873Z" fill="#0078D4"/>
<path d="M31.3863 0.94873H16.6055V10.8467H31.3863V0.94873Z" fill="#0078D4"/>
<path d="M47.4168 0.94873H32.636V10.8467H47.4168V0.94873Z" fill="#0078D4"/>
<path d="M15.3641 12.1212H0.583252V13.3212H15.3641V12.1212Z" fill="#0078D4"/>
<path d="M31.3863 12.1212H16.6055V13.3212H31.3863V12.1212Z" fill="#0078D4"/>
<path d="M47.4168 12.1212H32.636V13.3212H47.4168V12.1212Z" fill="#0078D4"/>
<path d="M15.3641 14.4635H0.583252V15.6635H15.3641V14.4635Z" fill="#3BCAF4"/>
<path d="M31.3863 14.4635H16.6055V15.6635H31.3863V14.4635Z" fill="#3BCAF4"/>
<path d="M47.4168 14.4635H32.636V15.6635H47.4168V14.4635Z" fill="#3BCAF4"/>
<path d="M15.3641 17.1032H0.583252V27.0012H15.3641V17.1032Z" fill="#3BCAF4"/>
<path d="M31.3863 17.1032H16.6055V27.0012H31.3863V17.1032Z" fill="#3BCAF4"/>
<path d="M47.4168 17.1032H32.636V27.0012H47.4168V17.1032Z" fill="#3BCAF4"/>
<path d="M15.3641 28.2839H0.583252V29.4839H15.3641V28.2839Z" fill="#0078D4"/>
<path d="M31.3863 28.2839H16.6055V29.4839H31.3863V28.2839Z" fill="#0078D4"/>
<path d="M47.4168 28.2839H32.636V29.4839H47.4168V28.2839Z" fill="#0078D4"/>
<path d="M15.3641 30.6261H0.583252V31.8261H15.3641V30.6261Z" fill="#3BCAF4"/>
<path d="M31.3863 30.6261H16.6055V31.8261H31.3863V30.6261Z" fill="#3BCAF4"/>
<path d="M47.4168 30.6261H32.636V31.8261H47.4168V30.6261Z" fill="#3BCAF4"/>
<path d="M15.3641 33.4235H0.583252V43.3215H15.3641V33.4235Z" fill="#50E6FF"/>
<path d="M31.3863 33.4235H16.6055V43.3215H31.3863V33.4235Z" fill="#50E6FF"/>
<path d="M47.4168 33.4235H32.636V43.3215H47.4168V33.4235Z" fill="#50E6FF"/>
<path d="M15.3641 44.6046H0.583252V45.8046H15.3641V44.6046Z" fill="#3BCAF4"/>
<path d="M31.3863 44.6046H16.6055V45.8046H31.3863V44.6046Z" fill="#3BCAF4"/>
<path d="M47.4168 44.6046H32.636V45.8046H47.4168V44.6046Z" fill="#3BCAF4"/>
<path d="M15.3641 46.9464H0.583252V48.1464H15.3641V46.9464Z" fill="#50E6FF"/>
<path d="M31.3863 46.9464H16.6055V48.1464H31.3863V46.9464Z" fill="#50E6FF"/>
<path d="M47.4168 46.9464H32.636V48.1464H47.4168V46.9464Z" fill="#50E6FF"/>
<path d="M14.371 1.75177H1.42749V9.04287H14.371V1.75177Z" fill="#50E6FF"/>
<path d="M1.41916 6.64247V9.15836H14.6027L12.84 7.47834L10.5889 9.57215L7.56818 6.46868L6.40955 7.63559L3.35573 4.65625L1.41089 6.60109L1.41916 6.64247Z" fill="#0078D4"/>
<path d="M7.75844 3.57243C7.75844 4.10209 7.33637 4.52417 6.80671 4.52417C6.27705 4.52417 5.85498 4.09382 5.85498 3.57243C5.85498 3.04278 6.27705 2.61243 6.79844 2.61243C7.3281 2.61243 7.75844 3.04278 7.75844 3.57243Z" fill="#0078D4"/>
<path d="M30.5588 1.75177H17.6152V9.04287H30.5588V1.75177Z" fill="#50E6FF"/>
<path d="M17.6069 6.64247V9.15836H30.7905L29.0277 7.47834L26.7766 9.57215L23.7559 6.46868L22.5973 7.63559L19.5435 4.65625L17.5986 6.60109L17.6069 6.64247Z" fill="#0078D4"/>
<path d="M23.9462 3.57243C23.9462 4.10209 23.5241 4.52417 22.9945 4.52417C22.4648 4.52417 22.0427 4.09382 22.0427 3.57243C22.0427 3.04278 22.4648 2.61243 22.9862 2.61243C23.5158 2.61243 23.9462 3.04278 23.9462 3.57243Z" fill="#0078D4"/>
<path d="M46.5891 1.75177H33.6455V9.04287H46.5891V1.75177Z" fill="#50E6FF"/>
<path d="M33.6372 6.64286V9.15875H46.8208L45.058 7.47873L42.8069 9.57254L39.7945 6.47735L38.6359 7.64425L35.5821 4.66492L33.6372 6.60976V6.64286Z" fill="#0078D4"/>
<path d="M39.9767 3.57243C39.9767 4.10209 39.5546 4.52417 39.025 4.52417C38.4953 4.52417 38.0732 4.09382 38.0732 3.57243C38.0732 3.04278 38.4953 2.61243 39.0167 2.61243C39.5464 2.61243 39.9767 3.04278 39.9767 3.57243Z" fill="#0078D4"/>
<path d="M14.371 18.5435H1.42749V25.8346H14.371V18.5435Z" fill="#0078D4"/>
<path d="M1.41916 23.4342V25.9418H14.6027L12.84 24.2618L10.5806 26.3556L7.56818 23.2604L6.40955 24.4273L3.35573 21.4479L1.41089 23.3928L1.41916 23.4342Z" fill="#3BCAF4"/>
<path d="M7.75844 20.3641C7.75844 20.8938 7.33637 21.3159 6.80671 21.3159C6.27705 21.3159 5.85498 20.8855 5.85498 20.3641C5.85498 19.8345 6.27705 19.4041 6.79844 19.4041C7.3281 19.4041 7.75844 19.8345 7.75844 20.3641Z" fill="#3BCAF4"/>
<path d="M30.5588 18.5435H17.6152V25.8346H30.5588V18.5435Z" fill="#0078D4"/>
<path d="M17.6069 23.4342V25.9418H30.7905L29.0277 24.2618L26.7684 26.3556L23.7559 23.2604L22.5973 24.4273L19.5435 21.4479L17.5986 23.3928L17.6069 23.4342Z" fill="#3BCAF4"/>
<path d="M23.9462 20.3641C23.9462 20.8938 23.5241 21.3159 22.9945 21.3159C22.4648 21.3159 22.0427 20.8855 22.0427 20.3641C22.0427 19.8345 22.4648 19.4041 22.9862 19.4041C23.5158 19.4041 23.9462 19.8345 23.9462 20.3641Z" fill="#3BCAF4"/>
<path d="M46.5891 18.5435H33.6455V25.8346H46.5891V18.5435Z" fill="#0078D4"/>
<path d="M33.6372 23.4342V25.9418H46.8208L45.058 24.2618L42.8069 26.3556L39.7945 23.2604L38.6359 24.4273L35.5821 21.4479L33.6372 23.3928V23.4342Z" fill="#3BCAF4"/>
<path d="M39.9767 20.3641C39.9767 20.8938 39.5546 21.3159 39.025 21.3159C38.4953 21.3159 38.0732 20.8855 38.0732 20.3641C38.0732 19.8345 38.4953 19.4041 39.0167 19.4041C39.5464 19.4041 39.9767 19.8345 39.9767 20.3641Z" fill="#3BCAF4"/>
<path d="M14.371 34.6729H1.42749V41.964H14.371V34.6729Z" fill="#0078D4"/>
<path d="M1.41916 39.5645V42.0804H14.6027L12.84 40.4004L10.5889 42.4942L7.57646 39.399L6.41783 40.5659L3.36401 37.5865L1.41089 39.5231L1.41916 39.5645Z" fill="#50E6FF"/>
<path d="M7.75844 36.4936C7.75844 37.0232 7.33637 37.4453 6.80671 37.4453C6.27705 37.4453 5.85498 37.015 5.85498 36.4936C5.85498 35.9639 6.27705 35.5336 6.79844 35.5336C7.3281 35.5336 7.75844 35.9639 7.75844 36.4936Z" fill="#50E6FF"/>
<path d="M30.5588 34.6729H17.6152V41.964H30.5588V34.6729Z" fill="#0078D4"/>
<path d="M17.6069 39.5641V42.08H30.7905L29.0277 40.4L26.7766 42.4938L23.7559 39.3903L22.5973 40.5572L19.5435 37.5779L17.5986 39.5227L17.6069 39.5641Z" fill="#50E6FF"/>
<path d="M23.9462 36.4936C23.9462 37.0232 23.5241 37.4453 22.9945 37.4453C22.4648 37.4453 22.0427 37.015 22.0427 36.4936C22.0427 35.9639 22.4648 35.5336 22.9862 35.5336C23.5158 35.5336 23.9462 35.9639 23.9462 36.4936Z" fill="#50E6FF"/>
<path d="M46.5891 34.6729H33.6455V41.964H46.5891V34.6729Z" fill="#0078D4"/>
<path d="M33.6372 39.5645V42.0804H46.8208L45.058 40.4004L42.8069 42.4942L39.7945 39.399L38.6359 40.5659L35.5821 37.5865L33.6372 39.5314V39.5645Z" fill="#50E6FF"/>
<path d="M39.9767 36.4936C39.9767 37.0232 39.5546 37.4453 39.025 37.4453C38.4953 37.4453 38.0732 37.015 38.0732 36.4936C38.0732 35.9639 38.4953 35.5336 39.0167 35.5336C39.5464 35.5336 39.9767 35.9639 39.9767 36.4936Z" fill="#50E6FF"/>
</svg>
