<svg data-slug-id="ui-interface03" viewBox="0 0 48 49" xmlns="http://www.w3.org/2000/svg">
<path d="M44.0722 15.1718H20.2732V38.944H44.0722V15.1718Z" fill="#50E6FF"/>
<path d="M20.2464 31.1061V39.292H44.0634V34.284V34.3375L40.2872 30.5437L36.5202 34.3375L26.5666 24.6251L20.2285 30.9721L20.2464 31.1061Z" fill="#0078D4"/>
<path d="M40.9118 21.1067C40.9118 22.8207 39.5281 24.2043 37.8142 24.2043C36.1002 24.2043 34.7166 22.8117 34.7166 21.1067C34.7166 19.3927 36.0824 17.9823 37.7874 17.9823C39.5014 17.9823 40.9118 19.3749 40.9118 21.1067Z" fill="#0078D4"/>
<path d="M17.3178 1.77173H3.92749V11.0647H5.9896V13.1089L8.05172 11.0647H17.3178V1.77173Z" fill="#0078D4"/>
<path d="M17.2913 31.3034H3.90991V47.3094H17.2913V31.3034Z" fill="#50E6FF"/>
<path d="M44.09 41.9677H20.2373V47.3237H44.09V41.9677Z" fill="#0078D4"/>
<path d="M44.0812 1.81494H20.2732V5.74277H44.0812V1.81494Z" fill="#0078D4"/>
<path d="M17.3092 15.1874H3.97241V18.4636H17.3092V15.1874Z" fill="#0078D4"/>
<path d="M17.3092 19.5702H3.97241V22.8463H17.3092V19.5702Z" fill="#3BCAF4"/>
<path d="M17.3092 23.9569H3.97241V27.233H17.3092V23.9569Z" fill="#50E6FF"/>
<path d="M44.0812 7.12939H20.2732V11.0573H44.0812V7.12939Z" fill="#3BCAF4"/>
</svg>
