<svg data-slug-id="ui-interface11" viewBox="0 0 48 49" xmlns="http://www.w3.org/2000/svg">
<path d="M38.4476 38.0345L24.8104 24.3552V5.09784H23.5446V24.2371L9.77246 38.1611L10.6754 39.0556L23.5446 26.0345V44.389H24.8104V26.1527L37.5531 38.9291L38.4476 38.0345Z" fill="#50E6FF"/>
<path d="M24.0843 15.8236C20.5907 15.8236 17.7637 12.9966 17.7637 9.50293C17.7637 6.00925 20.5907 3.18225 24.0843 3.18225C27.578 3.18225 30.405 6.00925 30.405 9.50293C30.405 12.9966 27.5696 15.8236 24.0843 15.8236Z" fill="#0078D4"/>
<path d="M9.18982 46.1267C5.69615 46.1267 2.86914 43.2997 2.86914 39.806C2.86914 36.3124 5.69615 33.4854 9.18982 33.4854C12.6835 33.4854 15.5105 36.3124 15.5105 39.806C15.5105 43.2997 12.675 46.1267 9.18982 46.1267Z" fill="#50E6FF"/>
<path d="M24.1434 46.1267C20.6498 46.1267 17.8228 43.2997 17.8228 39.806C17.8228 36.3124 20.6498 33.4854 24.1434 33.4854C27.6371 33.4854 30.4641 36.3124 30.4641 39.806C30.4641 43.2997 27.6371 46.1267 24.1434 46.1267Z" fill="#3BCAF4"/>
<path d="M39.1986 46.1267C35.7049 46.1267 32.8779 43.2997 32.8779 39.806C32.8779 36.3124 35.7049 33.4854 39.1986 33.4854C42.6923 33.4854 45.5193 36.3124 45.5193 39.806C45.5193 43.2997 42.6923 46.1267 39.1986 46.1267Z" fill="#0078D4"/>
<path d="M25.325 10.2179C25.6795 9.7538 25.8904 9.17152 25.8904 8.53861C25.8904 7.61034 25.4263 6.79177 24.7259 6.28544C24.2786 5.96477 23.7301 5.77911 23.1309 5.77911C21.612 5.77911 20.3799 7.01118 20.3799 8.53017C20.3799 10.0492 21.612 11.2812 23.1309 11.2812C23.7217 11.2812 24.2702 11.0956 24.7259 10.7749C24.7343 10.7665 24.7512 10.758 24.7596 10.7496L27.2322 13.2222L27.7807 12.6736L25.325 10.2179ZM24.7343 9.68629C24.3799 10.1757 23.7976 10.4964 23.1394 10.4964C22.0592 10.4964 21.1731 9.61878 21.1731 8.53017C21.1731 7.44156 22.0508 6.56392 23.1394 6.56392C23.7976 6.56392 24.3714 6.8846 24.7259 7.37405C24.9622 7.69473 25.0972 8.09979 25.0972 8.53017C25.1056 8.96899 24.9706 9.36561 24.7343 9.68629Z" fill="white"/>
<path d="M25.3924 40.3711C25.7468 39.9069 25.9578 39.3247 25.9578 38.6917C25.9578 37.7635 25.4937 36.9449 24.7933 36.4386C24.346 36.1179 23.7975 35.9323 23.1983 35.9323C21.6793 35.9323 20.4473 37.1643 20.4473 38.6833C20.4473 40.2023 21.6793 41.4344 23.1983 41.4344C23.789 41.4344 24.3376 41.2487 24.7933 40.928C24.8017 40.9196 24.8186 40.9112 24.827 40.9027L27.2996 43.3753L27.8481 42.8268L25.3924 40.3711ZM24.7933 39.8479C24.4388 40.3373 23.8565 40.658 23.1983 40.658C22.1182 40.658 21.2321 39.7804 21.2321 38.6917C21.2321 37.6031 22.1097 36.7255 23.1983 36.7255C23.8565 36.7255 24.4304 37.0462 24.7848 37.5356C25.0211 37.8563 25.1561 38.2614 25.1561 38.6917C25.173 39.1306 25.0295 39.5272 24.7933 39.8479Z" fill="white"/>
<path d="M40.4388 40.3711C40.7932 39.9069 41.0042 39.3247 41.0042 38.6917C41.0042 37.7635 40.5401 36.9449 39.8396 36.4386C39.3924 36.1179 38.8439 35.9323 38.2447 35.9323C36.7257 35.9323 35.4937 37.1643 35.4937 38.6833C35.4937 40.2023 36.7257 41.4344 38.2447 41.4344C38.8354 41.4344 39.3839 41.2487 39.8396 40.928C39.8481 40.9196 39.865 40.9112 39.8734 40.9027L42.346 43.3753L42.8945 42.8268L40.4388 40.3711ZM39.8481 39.8479C39.4937 40.3373 38.9114 40.658 38.2531 40.658C37.173 40.658 36.2869 39.7804 36.2869 38.6917C36.2869 37.6031 37.1645 36.7255 38.2531 36.7255C38.9114 36.7255 39.4852 37.0462 39.8396 37.5356C40.0759 37.8563 40.211 38.2614 40.211 38.6917C40.2194 39.1306 40.0844 39.5272 39.8481 39.8479Z" fill="white"/>
<path d="M10.4305 40.3711C10.7849 39.9069 10.9959 39.3247 10.9959 38.6917C10.9959 37.7635 10.5318 36.9449 9.83134 36.4386C9.38409 36.1179 8.83556 35.9323 8.23641 35.9323C6.71742 35.9407 5.48535 37.1728 5.48535 38.6917C5.48535 40.2107 6.71742 41.4428 8.23641 41.4428C8.82712 41.4428 9.37565 41.2571 9.83134 40.9365C9.83978 40.928 9.85666 40.9196 9.8651 40.9112L12.3377 43.3837L12.8862 42.8352L10.4305 40.3711ZM9.83978 39.8479C9.48535 40.3373 8.90307 40.658 8.24485 40.658C7.16468 40.658 6.2786 39.7804 6.2786 38.6917C6.2786 37.6031 7.15624 36.7255 8.24485 36.7255C8.90307 36.7255 9.47691 37.0462 9.83134 37.5356C10.0676 37.8563 10.2027 38.2614 10.2027 38.6917C10.2111 39.1306 10.0761 39.5272 9.83978 39.8479Z" fill="white"/>
</svg>
