<svg data-slug-id="ui-interface06" viewBox="0 0 48 49" xmlns="http://www.w3.org/2000/svg">
<path d="M47.9075 18.1979H0.0585938V30.7707H47.9075V18.1979Z" fill="#0078D4"/>
<path d="M47.9078 18.1979H35.3098V30.7707H47.9078V18.1979Z" fill="#50E6FF"/>
<path d="M43.3922 25.4336C43.8623 24.8125 44.1476 24.0403 44.1476 23.201C44.1476 21.9672 43.5349 20.8761 42.6033 20.2131C42.0074 19.785 41.2772 19.5416 40.4882 19.5416C38.4655 19.5416 36.8289 21.1783 36.8289 23.201C36.8289 25.2237 38.4655 26.8604 40.4882 26.8604C41.2772 26.8604 42.0074 26.6086 42.6033 26.1889C42.6201 26.1805 42.6369 26.1638 42.6537 26.1554L45.9353 29.4371L46.6655 28.7069L43.3922 25.4336ZM42.6033 24.7369C42.1249 25.3916 41.3527 25.8196 40.4882 25.8196C39.0446 25.8196 37.878 24.653 37.878 23.2094C37.878 21.7658 39.0446 20.5992 40.4882 20.5992C41.3611 20.5992 42.1249 21.0272 42.6033 21.6819C42.9138 22.1099 43.0985 22.6471 43.0985 23.2178C43.1069 23.7801 42.9222 24.3089 42.6033 24.7369Z" fill="#0078D7"/>
<path d="M42.8717 1.73224H31.3647V10.545H34.0673V13.2475L36.7699 10.545H42.8717V1.73224Z" fill="#50E6FF"/>
<path d="M34.6216 5.12286C34.3111 5.12286 34.0257 5.1984 33.7907 5.34948L33.7739 5.35787V5.86145L33.8411 5.8027C34.0593 5.61806 34.3195 5.51734 34.588 5.51734C34.8818 5.51734 35.0245 5.69359 35.0329 6.0461L34.353 6.13843C33.8075 6.21396 33.5305 6.49094 33.5305 6.95255C33.5305 7.17077 33.6061 7.34703 33.7487 7.48132C33.8914 7.61561 34.0845 7.68275 34.3363 7.68275C34.63 7.68275 34.865 7.56525 35.0329 7.33864V7.624H35.4945V6.02932C35.5029 5.43341 35.2007 5.12286 34.6216 5.12286ZM35.0329 6.44058V6.63362C35.0329 6.82666 34.9741 6.98613 34.8566 7.11202C34.7391 7.23792 34.5964 7.29667 34.4202 7.29667C34.2943 7.29667 34.1936 7.2631 34.118 7.19595C34.0425 7.12881 34.0089 7.04488 34.0089 6.94416C34.0089 6.80148 34.0509 6.70076 34.1264 6.64201C34.2104 6.58326 34.3363 6.54129 34.5041 6.51611L35.0329 6.44058Z" fill="#0078D4"/>
<path d="M37.3912 5.12333C37.0555 5.12333 36.7953 5.25762 36.6022 5.5178V4.03223H36.1406V7.64125H36.6022V7.37267C36.7701 7.5825 36.9967 7.69161 37.2821 7.69161C37.6262 7.69161 37.9116 7.56571 38.113 7.31392C38.3144 7.07052 38.4151 6.7348 38.4151 6.33193C38.4151 5.96263 38.3228 5.66888 38.1466 5.45066C37.9619 5.23244 37.7101 5.12333 37.3912 5.12333ZM37.9367 6.33193C37.9367 6.63408 37.8696 6.87748 37.7521 7.04534C37.6262 7.2132 37.4583 7.29713 37.2401 7.29713C37.0555 7.29713 36.9044 7.22999 36.7869 7.10409C36.6694 6.9782 36.6022 6.81873 36.6022 6.63408V6.29836C36.6022 6.08014 36.6694 5.89549 36.7953 5.74441C36.9212 5.60173 37.089 5.52619 37.2989 5.52619C37.5003 5.52619 37.6514 5.59334 37.7605 5.73602C37.878 5.8787 37.9367 6.08014 37.9367 6.33193Z" fill="#0078D4"/>
<path d="M40.0349 5.52573C40.228 5.52573 40.4126 5.58448 40.5805 5.70199L40.6476 5.75234V5.24876L40.6224 5.24037C40.4546 5.15644 40.2615 5.12286 40.0517 5.12286C39.6656 5.12286 39.3551 5.24876 39.1201 5.49216C38.8851 5.73556 38.7676 6.06289 38.7676 6.46576C38.7676 6.82666 38.8767 7.12881 39.0949 7.35542C39.3131 7.58203 39.5985 7.69954 39.951 7.69954C40.2112 7.69954 40.4378 7.64079 40.6224 7.53168L40.6392 7.52328V7.05327L40.5721 7.10363C40.3958 7.23792 40.2112 7.30506 40.0098 7.30506C39.7747 7.30506 39.5901 7.22953 39.4474 7.07845C39.3047 6.92738 39.2376 6.70916 39.2376 6.44897C39.2376 6.18039 39.3131 5.95378 39.4642 5.78592C39.6153 5.60966 39.7999 5.52573 40.0349 5.52573Z" fill="#0078D4"/>
<path d="M13.815 5.61658H2.30811V14.4293H5.01068L7.71325 17.1319V14.4293H13.815V5.61658Z" fill="#50E6FF"/>
<path d="M5.95052 9.00773C5.6148 9.00773 5.35461 9.14201 5.16157 9.4022V7.91663H4.69995V11.5256H5.16157V11.2571C5.32943 11.4669 5.55604 11.576 5.84141 11.576C6.18553 11.576 6.47089 11.4501 6.67232 11.1983C6.87376 10.9549 6.97447 10.6192 6.97447 10.2163C6.97447 9.84703 6.88215 9.55328 6.7059 9.33506C6.52125 9.11684 6.26946 9.00773 5.95052 9.00773ZM6.49607 10.2163C6.49607 10.5185 6.42892 10.7619 6.31142 10.9297C6.18553 11.0976 6.01766 11.1815 5.79944 11.1815C5.6148 11.1815 5.46372 11.1144 5.34622 10.9885C5.22872 10.8626 5.16157 10.7031 5.16157 10.5185V10.1828C5.16157 9.96454 5.22871 9.77989 5.35461 9.62881C5.48051 9.48613 5.64837 9.41059 5.8582 9.41059C6.05963 9.41059 6.21071 9.47774 6.31981 9.62042C6.43732 9.7631 6.49607 9.96454 6.49607 10.2163Z" fill="#0078D4"/>
<path d="M8.61153 9.0072C8.22545 9.0072 7.91491 9.1331 7.6799 9.3765C7.4449 9.6199 7.32739 9.94723 7.32739 10.3501C7.32739 10.711 7.4365 11.0131 7.65472 11.2398C7.87294 11.4664 8.15831 11.5839 8.51082 11.5839C8.771 11.5839 8.99761 11.5251 9.18226 11.416L9.19905 11.4076V10.9376L9.1319 10.988C8.95565 11.1223 8.771 11.1894 8.56957 11.1894C8.33456 11.1894 8.14991 11.1139 8.00723 10.9628C7.86455 10.8117 7.7974 10.5935 7.7974 10.3333C7.7974 10.0647 7.87294 9.83812 8.02402 9.67025C8.17509 9.50239 8.35974 9.41846 8.59475 9.41846C8.78779 9.41846 8.97244 9.47721 9.1403 9.59472L9.20744 9.64508V9.14988L9.18226 9.14149C9.0144 9.04077 8.82136 9.0072 8.61153 9.0072Z" fill="#0078D4"/>
<path d="M10.6004 9.0072C10.2898 9.0072 10.0045 9.08274 9.76946 9.23381L9.75268 9.24221V9.74579L9.81982 9.68704C10.038 9.50239 10.2982 9.40168 10.5668 9.40168C10.8606 9.40168 11.0032 9.57793 11.0116 9.93044L10.3318 10.0228C9.78625 10.0983 9.50928 10.3753 9.50928 10.8369C9.50928 11.0551 9.58481 11.2314 9.7275 11.3657C9.87018 11.4999 10.0632 11.5671 10.315 11.5671C10.6088 11.5671 10.8438 11.4496 11.0116 11.223V11.5083H11.4733V9.91365C11.4816 9.31775 11.1879 9.0072 10.6004 9.0072ZM11.02 10.3249V10.518C11.02 10.711 10.9613 10.8705 10.8438 10.9964C10.7263 11.1223 10.5836 11.181 10.4073 11.181C10.2814 11.181 10.1807 11.1474 10.1052 11.0803C10.0296 11.0131 9.99608 10.9292 9.99608 10.8285C9.99608 10.6858 10.038 10.5851 10.1136 10.5263C10.1975 10.4676 10.3234 10.4256 10.4913 10.4005L11.02 10.3249Z" fill="#0078D4"/>
<path d="M11.2805 43.36H22.7874V34.5473H20.0849V31.8447L17.3823 34.5473H11.2805V43.36Z" fill="#50E6FF"/>
<path d="M14.8139 38.0978C14.4278 38.0978 14.1173 38.2237 13.8823 38.4671C13.6473 38.7105 13.5298 39.0379 13.5298 39.4407C13.5298 39.8016 13.6389 40.1038 13.8571 40.3304C14.0753 40.557 14.3607 40.6745 14.7132 40.6745C14.9734 40.6745 15.2 40.6158 15.3847 40.5067L15.4014 40.4983V40.0282L15.3343 40.0786C15.158 40.2129 14.9734 40.28 14.772 40.28C14.537 40.28 14.3523 40.2045 14.2096 40.0534C14.0669 39.9024 13.9998 39.6841 13.9998 39.4239C13.9998 39.1554 14.0753 38.9288 14.2264 38.7609C14.3775 38.593 14.5621 38.5091 14.7971 38.5091C14.9902 38.5091 15.1748 38.5679 15.3427 38.6854L15.4098 38.7357V38.2405L15.3847 38.2321C15.2252 38.1398 15.0321 38.0978 14.8139 38.0978Z" fill="#0078D4"/>
<path d="M17.1554 38.0993C16.8196 38.0993 16.5594 38.2336 16.3664 38.4938V37.0166H15.9048V40.6256H16.3664V40.357C16.5343 40.5669 16.7609 40.676 17.0462 40.676C17.3904 40.676 17.6757 40.5501 17.8772 40.2983C18.0786 40.0549 18.1793 39.7192 18.1793 39.3163C18.1793 38.947 18.087 38.6533 17.9107 38.435C17.7261 38.2084 17.4743 38.0993 17.1554 38.0993ZM17.7009 39.3079C17.7009 39.6101 17.6338 39.8535 17.5163 40.0213C17.3904 40.1892 17.2225 40.2731 17.0043 40.2731C16.8196 40.2731 16.6686 40.206 16.5511 40.0801C16.4335 39.9542 16.3664 39.7947 16.3664 39.6101V39.2743C16.3664 39.0561 16.4335 38.8715 16.5594 38.7204C16.6853 38.5777 16.8532 38.5022 17.063 38.5022C17.2645 38.5022 17.4155 38.5693 17.5246 38.712C17.6422 38.8547 17.7009 39.0561 17.7009 39.3079Z" fill="#0078D4"/>
<path d="M19.5474 38.0978C19.2369 38.0978 18.9515 38.1734 18.7165 38.3245L18.6997 38.3328V38.8364L18.7668 38.7777C18.9851 38.593 19.2452 38.4923 19.5138 38.4923C19.8076 38.4923 19.9503 38.6686 19.9587 39.0211L19.2788 39.1134C18.7333 39.1889 18.4563 39.4659 18.4563 39.9275C18.4563 40.1458 18.5318 40.322 18.6745 40.4563C18.8172 40.5906 19.0102 40.6577 19.262 40.6577C19.5558 40.6577 19.7908 40.5402 19.9587 40.3136V40.599H20.4203V39.0043C20.4287 38.4084 20.1265 38.0978 19.5474 38.0978ZM19.9587 39.4156V39.6086C19.9587 39.8016 19.8999 39.9611 19.7824 40.087C19.6649 40.2129 19.5222 40.2716 19.346 40.2716C19.2201 40.2716 19.1194 40.2381 19.0438 40.1709C18.9683 40.1038 18.9347 40.0199 18.9347 39.9191C18.9347 39.7765 18.9767 39.6757 19.0522 39.617C19.1361 39.5582 19.262 39.5163 19.4299 39.4911L19.9587 39.4156Z" fill="#0078D4"/>
</svg>
