<svg data-slug-id="ui-interface10" viewBox="0 0 48 49" xmlns="http://www.w3.org/2000/svg">
<path d="M15.4997 1.32043H0.951172V11.0629H15.4997V1.32043Z" fill="#0078D4"/>
<path d="M31.2702 1.31982H16.7217V11.0623H31.2702V1.31982Z" fill="#0078D4"/>
<path d="M47.0485 1.31982H32.5V11.0623H47.0485V1.31982Z" fill="#0078D4"/>
<path d="M15.4997 12.3169H0.951172V13.498H15.4997V12.3169Z" fill="#0078D4"/>
<path d="M31.2702 12.3169H16.7217V13.498H31.2702V12.3169Z" fill="#0078D4"/>
<path d="M47.0485 12.3169H32.5V13.498H47.0485V12.3169Z" fill="#0078D4"/>
<path d="M15.4997 14.6221H0.951172V15.8032H15.4997V14.6221Z" fill="#0078D4"/>
<path d="M31.2702 14.6221H16.7217V15.8032H31.2702V14.6221Z" fill="#0078D4"/>
<path d="M47.0485 14.6221H32.5V15.8032H47.0485V14.6221Z" fill="#0078D4"/>
<path d="M15.4997 17.2205H0.951172V26.9629H15.4997V17.2205Z" fill="#3BCAF4"/>
<path d="M31.2702 17.2205H16.7217V26.9629H31.2702V17.2205Z" fill="#3BCAF4"/>
<path d="M47.0485 17.2205H32.5V26.9629H47.0485V17.2205Z" fill="#3BCAF4"/>
<path d="M15.4997 28.2255H0.951172V29.4066H15.4997V28.2255Z" fill="#0078D4"/>
<path d="M31.2702 28.2255H16.7217V29.4066H31.2702V28.2255Z" fill="#0078D4"/>
<path d="M47.0485 28.2255H32.5V29.4066H47.0485V28.2255Z" fill="#0078D4"/>
<path d="M15.4997 30.5311H0.951172V31.7122H15.4997V30.5311Z" fill="#0078D4"/>
<path d="M31.2702 30.5311H16.7217V31.7122H31.2702V30.5311Z" fill="#0078D4"/>
<path d="M47.0485 30.5311H32.5V31.7122H47.0485V30.5311Z" fill="#0078D4"/>
<path d="M15.4997 33.2842H0.951172V43.0266H15.4997V33.2842Z" fill="#50E6FF"/>
<path d="M31.2702 33.2842H16.7217V43.0266H31.2702V33.2842Z" fill="#50E6FF"/>
<path d="M47.0485 33.2842H32.5V43.0266H47.0485V33.2842Z" fill="#50E6FF"/>
<path d="M15.4997 44.2892H0.951172V45.4703H15.4997V44.2892Z" fill="#0078D4"/>
<path d="M31.2702 44.2892H16.7217V45.4703H31.2702V44.2892Z" fill="#0078D4"/>
<path d="M47.0485 44.2892H32.5V45.4703H47.0485V44.2892Z" fill="#0078D4"/>
<path d="M15.4997 46.5944H0.951172V47.7755H15.4997V46.5944Z" fill="#0078D4"/>
<path d="M31.2702 46.5944H16.7217V47.7755H31.2702V46.5944Z" fill="#0078D4"/>
<path d="M47.0485 46.5944H32.5V47.7755H47.0485V46.5944Z" fill="#0078D4"/>
</svg>
