<svg data-slug-id="ui-interface12" viewBox="0 0 48 49" xmlns="http://www.w3.org/2000/svg">
<path d="M36.5511 26.6073C38.2318 26.6073 39.8465 27.1181 41.2059 28.082C43.3314 29.5896 44.6083 32.0447 44.6083 34.6481C44.6083 34.9364 44.5919 35.2165 44.5672 35.5049C46.1737 34.9035 47.3106 33.3546 47.3106 31.5422V7.78242C47.3106 5.45094 45.4157 3.54785 43.076 3.54785H4.87422C2.5345 3.54785 0.639648 5.4427 0.639648 7.78242V31.5422C0.639648 33.8736 2.5345 35.7767 4.87422 35.7767H28.5845C28.5351 35.406 28.5021 35.0353 28.5021 34.6563C28.5104 30.2158 32.1188 26.6073 36.5511 26.6073Z" fill="#0078D4"/>
<path d="M24.144 21.6726C25.2562 21.6726 26.1542 20.7746 26.1542 19.6624C26.1542 18.5502 25.2562 17.6522 24.144 17.6522C23.0318 17.6522 22.1338 18.5502 22.1338 19.6624C22.1338 20.7746 23.0318 21.6726 24.144 21.6726Z" fill="#50E6FF"/>
<path d="M24.1439 10.2867C18.9619 10.2867 14.7686 14.4801 14.7686 19.6621C14.7686 24.8441 18.9619 29.0375 24.1439 29.0375C29.3259 29.0375 33.5193 24.8441 33.5193 19.6621C33.5193 14.4801 29.3259 10.2867 24.1439 10.2867ZM24.1439 27.2168C19.9835 27.2168 16.5893 23.8555 16.5893 19.6621C16.5893 15.4687 19.9835 12.1074 24.1439 12.1074C28.3044 12.1074 31.7316 15.4687 31.7316 19.6621C31.7316 23.8555 28.3373 27.2168 24.1439 27.2168Z" fill="#50E6FF"/>
<path d="M41.6426 38.553C42.4665 37.4737 42.9608 36.1226 42.9608 34.6562C42.9608 32.4977 41.8898 30.5946 40.2586 29.433C39.2123 28.6915 37.9353 28.2549 36.5595 28.2549C33.0252 28.2549 30.1582 31.1219 30.1582 34.6562C30.1582 38.1905 33.0252 41.0575 36.5595 41.0575C37.9353 41.0575 39.2123 40.6208 40.2586 39.8794C40.2915 39.8629 40.3162 39.8382 40.3492 39.8135L46.0832 45.5474L47.3601 44.2705L41.6426 38.553ZM40.2586 37.3337C39.4265 38.4788 38.0836 39.2203 36.5595 39.2203C34.0385 39.2203 32.0036 37.1771 32.0036 34.6562C32.0036 32.1352 34.0468 30.0921 36.5677 30.0921C38.0918 30.0921 39.4347 30.8335 40.2586 31.9787C40.8105 32.7284 41.1318 33.6593 41.1318 34.6562C41.1318 35.653 40.8105 36.584 40.2586 37.3337Z" fill="#0078D7"/>
<path d="M38.7754 32.3827H34.2524V33.2807H38.7754V32.3827Z" fill="#0078D4"/>
<path d="M38.7754 34.2034H34.2524V35.1014H38.7754V34.2034Z" fill="#50E6FF"/>
<path d="M38.7754 36.0241H34.2524V36.9221H38.7754V36.0241Z" fill="#50E6FF"/>
</svg>
