<svg data-slug-id="ui-interface13" viewBox="0 0 48 49" xmlns="http://www.w3.org/2000/svg">
<path d="M47.3871 24.6544H0.613281V36.9413H47.3871V24.6544Z" fill="#50E6FF"/>
<path d="M42.8041 31.6278C43.2147 31.0858 43.4611 30.4123 43.4611 29.6813C43.4611 28.6054 42.9273 27.6527 42.1142 27.0778C41.5967 26.7082 40.9561 26.4946 40.2662 26.4946C38.5004 26.4946 37.0713 27.9237 37.0713 29.6895C37.0713 31.4554 38.5004 32.8845 40.2662 32.8845C40.9561 32.8845 41.5885 32.6627 42.1142 32.2931C42.1306 32.2849 42.147 32.2685 42.1552 32.2603L45.0134 35.1184L45.654 34.486L42.8041 31.6278ZM42.1142 31.0283C41.6953 31.6032 41.03 31.9728 40.2662 31.9728C39.0096 31.9728 37.9912 30.9544 37.9912 29.6978C37.9912 28.4411 39.0096 27.4227 40.2662 27.4227C41.0218 27.4227 41.6953 27.7923 42.1059 28.3672C42.377 28.745 42.5412 29.205 42.5412 29.706C42.5495 30.1905 42.3934 30.6505 42.1142 31.0283Z" fill="#0078D7"/>
<path d="M27.3879 12.1627H22.3779V19.4559H27.3879V12.1627Z" fill="#0078D4"/>
<path d="M26.4767 13.0742H23.2817V14.4458H26.4767V13.0742Z" fill="#50E6FF"/>
<path d="M23.7417 15.3489H23.2817V15.8089H23.7417V15.3489Z" fill="#50E6FF"/>
<path d="M23.7417 16.7128H23.2817V17.1727H23.7417V16.7128Z" fill="#50E6FF"/>
<path d="M23.7417 18.0844H23.2817V18.5443H23.7417V18.0844Z" fill="#50E6FF"/>
<path d="M25.1133 15.3489H24.6533V15.8089H25.1133V15.3489Z" fill="#50E6FF"/>
<path d="M25.1133 16.7128H24.6533V17.1727H25.1133V16.7128Z" fill="#50E6FF"/>
<path d="M25.1133 18.0844H24.6533V18.5443H25.1133V18.0844Z" fill="#50E6FF"/>
<path d="M26.4765 15.3489H26.0166V15.8089H26.4765V15.3489Z" fill="#50E6FF"/>
<path d="M26.4765 16.7128H26.0166V17.1727H26.4765V16.7128Z" fill="#50E6FF"/>
<path d="M26.4765 18.0844H26.0166V18.5443H26.4765V18.0844Z" fill="#50E6FF"/>
<path d="M8.36627 12.1617H1.40152C0.974434 12.1617 0.637695 12.5066 0.637695 12.9255V18.7322C0.637695 19.1593 0.982647 19.496 1.40152 19.496H8.36627C8.79335 19.496 9.13009 19.1511 9.13009 18.7322V12.9255C9.1383 12.4984 8.79335 12.1617 8.36627 12.1617Z" fill="#0078D4"/>
<path d="M4.88433 16.1874C5.08144 16.1874 5.24571 16.0231 5.24571 15.826C5.24571 15.6289 5.08144 15.4646 4.88433 15.4646C4.68721 15.4646 4.52295 15.6289 4.52295 15.826C4.53116 16.0313 4.68721 16.1874 4.88433 16.1874Z" fill="#50E6FF"/>
<path d="M4.8842 14.1338C3.9479 14.1338 3.18408 14.8976 3.18408 15.8339C3.18408 16.7702 3.9479 17.534 4.8842 17.534C5.8205 17.534 6.58432 16.7702 6.58432 15.8339C6.58432 14.8894 5.82871 14.1338 4.8842 14.1338ZM4.8842 17.1891C4.12859 17.1891 3.51261 16.5813 3.51261 15.8175C3.52082 15.0619 4.13681 14.4541 4.8842 14.4541C5.6316 14.4541 6.26401 15.0619 6.26401 15.8257C6.26401 16.5813 5.64803 17.1891 4.8842 17.1891Z" fill="#50E6FF"/>
<path d="M19.29 12.1627H12.0542V19.3902H19.29V12.1627Z" fill="#50E6FF"/>
<path d="M12.0462 16.9997V19.4965H19.2902V17.9689V17.9853L18.1404 16.8272L16.9905 17.9853L13.9599 15.0286L12.0298 16.9587L12.0462 16.9997Z" fill="#0078D4"/>
<path d="M18.329 13.9693C18.329 14.4949 17.9101 14.9138 17.3845 14.9138C16.8588 14.9138 16.4399 14.4867 16.4399 13.9693C16.4399 13.4436 16.8588 13.0165 17.3762 13.0165C17.9019 13.0165 18.329 13.4354 18.329 13.9693Z" fill="#0078D4"/>
<path d="M35.8557 19.4724H30.4761V12.1627H34.1966L34.5334 13.2468L35.8639 13.8299V19.4724H35.8557Z" fill="#0078D4"/>
<path d="M35.8474 13.8216H34.1802V12.1543L35.8474 13.8216Z" fill="#50E6FF"/>
<path d="M34.4924 14.6348H31.8149V15.0783H34.4924V14.6348Z" fill="white"/>
<path d="M34.4924 15.9981H31.8149V16.4416H34.4924V15.9981Z" fill="white"/>
<path d="M34.4924 17.3285H31.8149V17.772H34.4924V17.3285Z" fill="white"/>
<path d="M44.6687 13.5259L44.0938 19.5051H45.4161C45.4243 19.5051 45.4325 19.5051 45.4407 19.5051H46.6152C46.9766 19.5051 47.2722 19.2094 47.2722 18.8481V14.183C47.2722 13.8216 46.9766 13.5259 46.6152 13.5259H44.6687Z" fill="#50E6FF"/>
<path d="M39.1739 19.5134H44.34C44.6849 19.5134 44.9724 19.2342 44.9724 18.881V12.7951C44.9724 12.4501 44.6932 12.1627 44.34 12.1627H39.1739C38.829 12.1627 38.5415 12.4419 38.5415 12.7951V18.881C38.5415 19.226 38.8208 19.5134 39.1739 19.5134Z" fill="#0078D4"/>
<path d="M41.2273 13.0663H39.4614V14.8321H41.2273V13.0663Z" fill="#50E6FF"/>
<path d="M44.0526 13.0663H41.7529V13.3209H44.0526V13.0663Z" fill="#50E6FF"/>
<path d="M44.0692 14.5772H41.7695V14.8318H44.0692V14.5772Z" fill="#50E6FF"/>
<path d="M44.0526 13.8218H41.7529V14.0764H44.0526V13.8218Z" fill="#50E6FF"/>
<path d="M42.3115 18.5194H44.0773V16.7536H42.3115V18.5194Z" fill="#50E6FF"/>
<path d="M39.4614 18.4946H41.7611V18.24H39.4614V18.4946Z" fill="#50E6FF"/>
<path d="M39.4614 16.992H41.7611V16.7374H39.4614V16.992Z" fill="#50E6FF"/>
<path d="M39.4614 17.7475H41.7611V17.4929H39.4614V17.7475Z" fill="#50E6FF"/>
<path d="M44.0444 15.3741H39.4614V16.1461H44.0444V15.3741Z" fill="#50E6FF"/>
</svg>
