<svg data-slug-id="unreal-engine" viewBox="0 0 49 49" xmlns="http://www.w3.org/2000/svg">
<path d="M24.5 2C12.0679 2 2 12.0702 2 24.5C2 36.9298 12.0679 47 24.5 47C36.9236 47 47 36.9298 47 24.5C47 12.0702 36.925 2 24.4929 2H24.5ZM24.5 2.98859C30.2395 2.98859 35.6458 5.23016 39.709 9.28719C43.7636 13.3302 46.0243 18.8019 46.0101 24.5C46.0101 30.2417 43.7721 35.6473 39.709 39.7128C35.6982 43.7488 30.2168 46.0184 24.5 46.0114C18.7832 46.0184 13.3018 43.7488 9.29105 39.7128C5.23637 35.6698 2.96864 30.1981 2.98282 24.5C2.98282 18.7583 5.22786 13.3527 9.28396 9.28719C13.2947 5.24422 18.7832 2.97313 24.5 2.98859ZM23.3697 10.9058C19.7064 11.8803 16.3155 13.7478 11.7956 18.8891C7.27576 24.0303 8.13237 28.2786 8.13237 28.2786C8.13237 28.2786 9.3804 25.3564 12.3799 22.2795C13.8052 20.8227 14.8618 20.3319 15.5936 20.3319C16.2431 20.2953 16.7906 20.8156 16.7906 21.4597V31.8969C16.7906 32.9291 16.1183 33.1569 15.4986 33.1414C14.9738 33.1344 14.486 32.9516 14.486 32.9516C17.5663 37.3897 24.9382 38.0127 24.9382 38.0127L28.1732 34.5842L28.2469 34.6503L31.2096 37.1548C36.6314 33.9613 39.2466 28.0438 39.2466 28.0438C36.8243 30.5778 35.287 31.1712 34.3708 31.1712C33.5581 31.1642 33.2405 30.6945 33.2405 30.6945C33.1965 30.4752 33.1228 27.2956 33.093 24.1175C33.0632 20.8283 33.093 17.5334 33.2561 17.525C34.1935 15.7812 37.1789 12.2656 37.1789 12.2656C31.6024 13.3569 28.566 16.9822 28.566 16.9822C27.6655 16.2791 25.8331 16.3958 25.8331 16.3958C26.6897 16.8641 27.5463 18.2267 27.5463 19.3545V30.4583C27.5463 30.4583 25.6771 32.0909 24.2376 32.0909C23.381 32.0909 22.8563 31.6297 22.5684 31.2486C22.4578 31.1023 22.3613 30.9406 22.2876 30.7648V17.0539C22.0876 17.2002 21.8437 17.2803 21.6012 17.2887C21.2906 17.2887 20.9729 17.1355 20.7587 16.6883C20.5957 16.3508 20.4921 15.8459 20.4921 15.1062C20.4921 12.5792 23.3725 10.9016 23.3725 10.9016L23.3697 10.9058Z" fill="black"/>
</svg>
