<svg data-slug-id="users27" viewBox="0 0 48 49" xmlns="http://www.w3.org/2000/svg">
<path d="M47.6281 27.031C47.645 26.9214 47.6787 26.8118 47.6871 26.7191C47.8136 26.0531 47.8726 25.3787 47.8726 24.6874C47.8726 18.7275 43.0491 13.8888 37.087 13.8888C36.2522 13.8888 35.4511 13.9815 34.6752 14.1754C32.196 10.2808 27.8784 7.7265 22.9452 7.7265C15.2797 7.7265 9.06469 13.9393 9.06469 21.6105C9.06469 21.796 9.06469 21.9899 9.08155 22.1753C8.39006 21.9393 7.6311 21.8129 6.83842 21.8129C3.06894 21.8129 0.0078125 24.8729 0.0078125 28.6411C0.0078125 32.1901 2.72319 35.0899 6.15536 35.4356L37.0617 35.4946C41.1179 35.4946 44.6429 33.2522 46.5065 29.9646C46.5571 29.8718 46.6161 29.7791 46.6667 29.6779C46.9619 29.0794 47.3751 28.1859 47.6281 27.031Z" fill="#50E6FF"/>
<path d="M15.0947 32.7973C15.0947 27.8995 19.0582 23.9374 23.9577 23.9374C28.8572 23.9374 32.8206 27.8995 32.8206 32.7973H15.0947Z" fill="#0078D7"/>
<path d="M29.009 17.5125C29.009 20.286 26.7574 22.5368 23.983 22.5368C21.2086 22.5368 18.957 20.286 18.957 17.5125C18.957 14.739 21.2086 12.4882 23.983 12.4882C26.7574 12.4882 29.009 14.739 29.009 17.5125Z" fill="#0078D7"/>
<path d="M23.8984 5.12339C25.2909 5.12339 26.4198 3.99484 26.4198 2.60271C26.4198 1.21058 25.2909 0.0820312 23.8984 0.0820312C22.5058 0.0820312 21.377 1.21058 21.377 2.60271C21.377 3.99484 22.5058 5.12339 23.8984 5.12339Z" fill="#0078D7"/>
<path d="M23.8984 48.0625C25.2909 48.0625 26.4198 46.934 26.4198 45.5419C26.4198 44.1498 25.2909 43.0213 23.8984 43.0213C22.5058 43.0213 21.377 44.1498 21.377 45.5419C21.377 46.934 22.5058 48.0625 23.8984 48.0625Z" fill="#0078D7"/>
<path d="M42.915 35.4531C44.3076 35.4531 45.4364 34.3246 45.4364 32.9325C45.4364 31.5405 44.3076 30.412 42.915 30.412C41.5224 30.412 40.3936 31.5405 40.3936 32.9325C40.3936 34.3246 41.5224 35.4531 42.915 35.4531Z" fill="#0078D7"/>
<path d="M4.98384 35.4531C6.3764 35.4531 7.50529 34.3246 7.50529 32.9325C7.50529 31.5405 6.3764 30.412 4.98384 30.412C3.59129 30.412 2.4624 31.5405 2.4624 32.9325C2.4624 34.3246 3.59129 35.4531 4.98384 35.4531Z" fill="#0078D7"/>
<path d="M42.915 17.7479C44.3076 17.7479 45.4364 16.6194 45.4364 15.2274C45.4364 13.8354 44.3076 12.707 42.915 12.707C41.5224 12.707 40.3936 13.8354 40.3936 15.2274C40.3936 16.6194 41.5224 17.7479 42.915 17.7479Z" fill="#0078D7"/>
<path d="M4.98384 17.7479C6.3764 17.7479 7.50529 16.6194 7.50529 15.2274C7.50529 13.8354 6.3764 12.707 4.98384 12.707C3.59129 12.707 2.4624 13.8354 2.4624 15.2274C2.4624 16.6194 3.59129 17.7479 4.98384 17.7479Z" fill="#0078D7"/>
</svg>
