<svg data-slug-id="users04" viewBox="0 0 48 49" xmlns="http://www.w3.org/2000/svg">
<path d="M47.7393 24.5046C47.7561 24.3949 47.7897 24.2853 47.8066 24.1841C47.9327 23.5179 48 22.8349 48 22.1349C48 16.1391 43.1638 11.2734 37.1838 11.2734C36.3427 11.2734 35.5353 11.3661 34.7615 11.5601C32.2804 7.64723 27.9488 5.0752 22.9949 5.0752C15.3075 5.0752 9.07517 11.324 9.07517 19.0485C9.07517 19.2424 9.07517 19.428 9.09199 19.6219C8.3939 19.3858 7.63694 19.2593 6.84633 19.2593C3.06991 19.2593 0 22.3373 0 26.1237C0 29.6908 2.71666 32.6086 6.16506 32.9543L37.1586 33.0218C41.221 33.0218 44.7619 30.7702 46.6291 27.4561C46.6795 27.3633 46.7384 27.2621 46.7889 27.1694C47.0832 26.5706 47.4869 25.6599 47.7393 24.5046Z" fill="#50E6FF"/>
<path d="M0.0766602 42.9225C0.0766602 38.023 4.0297 34.0596 8.91633 34.0596C13.803 34.0596 17.756 38.023 17.756 42.9225H0.0766602Z" fill="#0078D7"/>
<path d="M13.9531 27.6324C13.9531 30.4069 11.7074 32.6584 8.94028 32.6584C6.17315 32.6584 3.92749 30.4069 3.92749 27.6324C3.92749 24.858 6.17315 22.6064 8.94028 22.6064C11.7074 22.6064 13.9531 24.8496 13.9531 27.6324Z" fill="#0078D7"/>
<path d="M43.0209 20.1871V15.1611H38.0081V20.1871H39.8837V25.3649H38.0081V27.2454H32.785V25.3649H30.9094V20.1871H32.785V15.1611H27.7722V17.0416H22.7174V15.1611H17.7046V20.1871H19.5802V25.3649H17.7046V30.3909H22.7174V25.3649H20.8418V20.1871H22.7174V18.3065H27.7722V20.1871H29.6478V25.3649H27.7722V30.3909H32.785V28.5103H38.0081V30.3909H43.0209V25.3649H41.1453V20.1871H43.0209Z" fill="#0078D4"/>
</svg>
