<svg data-slug-id="users22" viewBox="0 0 48 49" xmlns="http://www.w3.org/2000/svg">
<path d="M24 47.0625C11.2222 47.0625 1 36.8403 1 24.0625C1 11.2847 11.2222 1.0625 24 1.0625C36.7778 1.0625 47 11.2847 47 24.0625C47 36.8403 36.7778 47.0625 24 47.0625Z" fill="#0078D4"/>
<path d="M14.6299 20.6544C16.3336 20.6544 17.6114 19.3766 17.6114 17.6729C17.6114 15.9692 16.3336 14.6914 14.6299 14.6914C12.9262 14.6914 11.6484 15.9692 11.6484 17.6729C11.6484 19.3766 12.9262 20.6544 14.6299 20.6544Z" fill="#50E6FF"/>
<path d="M32.5191 20.6544C34.1657 20.6544 35.5006 19.3195 35.5006 17.6729C35.5006 16.0263 34.1657 14.6914 32.5191 14.6914C30.8725 14.6914 29.5376 16.0263 29.5376 17.6729C29.5376 19.3195 30.8725 20.6544 32.5191 20.6544Z" fill="#50E6FF"/>
<path d="M23.9993 26.1875C18.4622 26.1875 13.3511 29.5949 12.0733 35.1319C11.6474 35.9838 12.0733 36.8357 12.9252 37.2616C13.3511 37.2616 13.777 37.2616 14.203 37.2616C14.6289 36.8357 15.0548 36.8357 15.0548 36.4097C16.3326 32.5764 19.74 29.5949 23.9993 29.5949C28.2585 29.5949 32.0919 32.5764 32.9437 36.4097C32.9437 37.2616 34.2215 37.6875 35.0733 37.2616C35.9252 36.8357 36.3511 35.9838 36.3511 35.1319C34.6474 30.0208 29.5363 26.1875 23.9993 26.1875Z" fill="#50E6FF"/>
</svg>
