<svg data-slug-id="users06" viewBox="0 0 48 49" xmlns="http://www.w3.org/2000/svg">
<path d="M30.2529 33.2808C30.2529 28.3763 34.222 24.4072 39.1265 24.4072C44.031 24.4072 48.0001 28.3763 48.0001 33.2808H30.2529Z" fill="#50E6FF"/>
<path d="M44.0978 17.0308C44.0978 19.778 41.8731 21.9943 39.1344 21.9943C36.3956 21.9943 34.1709 19.7696 34.1709 17.0308C34.1709 14.292 36.3956 12.0673 39.1344 12.0673C41.8731 12.0673 44.0978 14.292 44.0978 17.0308Z" fill="#50E6FF"/>
<path d="M15.084 23.1675C15.084 18.263 19.0531 14.2939 23.9576 14.2939C28.862 14.2939 32.8311 18.263 32.8311 23.1675H15.084Z" fill="#0078D7"/>
<path d="M28.9299 6.92143C28.9299 9.66862 26.7052 11.8849 23.9664 11.8849C21.2276 11.8849 19.0029 9.66019 19.0029 6.92143C19.0029 4.18267 21.2192 1.95795 23.958 1.95795C26.6967 1.95795 28.9299 4.18267 28.9299 6.92143Z" fill="#0078D7"/>
<path d="M15.084 46.0816C15.084 41.1771 19.0531 37.208 23.9576 37.208C28.862 37.208 32.8311 41.1771 32.8311 46.0816H15.084Z" fill="#50E6FF"/>
<path d="M28.9299 29.8394C28.9299 32.5866 26.7052 34.8029 23.9664 34.8029C21.2276 34.8029 19.0029 32.5782 19.0029 29.8394C19.0029 27.1006 21.2276 24.8759 23.9664 24.8759C26.7052 24.8759 28.9299 27.0922 28.9299 29.8394Z" fill="#50E6FF"/>
<path d="M0 33.2808C0 28.3763 3.96909 24.4072 8.87357 24.4072C13.7781 24.4072 17.7471 28.3763 17.7471 33.2808H0Z" fill="#0078D7"/>
<path d="M13.8459 17.0308C13.8459 19.778 11.6212 21.9943 8.88242 21.9943C6.14366 21.9943 3.91895 19.7696 3.91895 17.0308C3.91895 14.292 6.13523 12.0673 8.87399 12.0673C11.6127 12.0673 13.8459 14.292 13.8459 17.0308Z" fill="#0078D7"/>
</svg>
