<svg data-slug-id="users01" viewBox="0 0 49 49" xmlns="http://www.w3.org/2000/svg">
<path d="M36.7107 0.989868H48.9186V13.1856H43.867V6.03639H36.7107V0.989868Z" fill="#0078D4"/>
<path d="M5.96999 13.1855H0.918457V0.989746H13.1263V6.03627H5.96999V13.1855Z" fill="#0078D4"/>
<path d="M43.8668 36.794H48.9183V48.9898H36.7104V43.9432H43.8668V36.794Z" fill="#0078D4"/>
<path d="M0.918945 48.9898V36.794H5.97048V43.9432H13.1268V48.9898H0.918945Z" fill="#0078D4"/>
<path d="M10.606 41.7791C10.606 33.7783 17.0823 27.3084 25.091 27.3084C33.0998 27.3084 39.5761 33.7783 39.5761 41.7791H10.606Z" fill="#50E6FF"/>
<path d="M33.1836 15.2969C33.1836 19.764 29.5518 23.3921 25.0803 23.3921C20.6088 23.3921 16.9771 19.764 16.9771 15.2969C16.9771 10.8299 20.6088 7.20172 25.0803 7.20172C29.5518 7.20172 33.1836 10.8299 33.1836 15.2969Z" fill="#50E6FF"/>
</svg>
