<svg data-slug-id="users14" viewBox="0 0 49 49" xmlns="http://www.w3.org/2000/svg">
<path d="M48.4886 24.1766C48.4886 11.1661 37.9455 0.622921 24.9434 0.606079V5.40608C35.3013 5.42292 43.6886 13.8187 43.6886 24.1766C43.6886 34.5345 35.2928 42.9387 24.9434 42.9471V47.7387C37.9455 47.7219 48.4886 37.1787 48.4886 24.1766Z" fill="#0078D4"/>
<path d="M4.51416 12.3619L8.66574 14.7703C11.9163 9.17029 17.971 5.40608 24.9184 5.40608C24.9268 5.40608 24.9352 5.40608 24.9436 5.40608V0.606079C24.9352 0.606079 24.9268 0.606079 24.9184 0.606079C16.211 0.606079 8.59837 5.33871 4.51416 12.3619Z" fill="white"/>
<path d="M6.1396 24.1765C6.1396 20.7407 7.06592 17.5323 8.66592 14.7702L4.51434 12.3702C2.51013 15.8397 1.35645 19.8733 1.35645 24.1765C1.35645 28.4881 2.51013 32.5218 4.53118 35.9912L8.68276 33.5997C7.06592 30.8291 6.1396 27.6039 6.1396 24.1765Z" fill="#50E6FF"/>
<path d="M8.66574 14.7702L4.51416 12.3702L8.66574 14.7702Z" fill="#50E6FF"/>
<path d="M24.9182 42.9556C17.9793 42.9556 11.9246 39.1998 8.67404 33.5998L4.52246 35.9998C8.60667 43.023 16.2109 47.7387 24.9182 47.7387C24.9267 47.7387 24.9351 47.7387 24.9435 47.7387V42.9472C24.9351 42.9556 24.9267 42.9556 24.9182 42.9556Z" fill="#0078D4"/>
<path d="M4.52246 35.9914L8.67404 33.5998L4.52246 35.9914Z" fill="#0078D4"/>
<path d="M15.3101 35.4693C15.3101 30.0293 19.7227 25.6251 25.1711 25.6251C30.6195 25.6251 35.0322 30.0293 35.0322 35.4693H15.3101Z" fill="#0078D4"/>
<path d="M30.7793 18.206C30.7793 21.2881 28.2783 23.7808 25.1878 23.7808C22.0972 23.7808 19.5962 21.2881 19.5962 18.206C19.5962 15.1239 22.0972 12.6313 25.1878 12.6313C28.2783 12.6313 30.7793 15.1239 30.7793 18.206Z" fill="#0078D4"/>
</svg>
