<svg data-slug-id="users24" viewBox="0 0 48 49" xmlns="http://www.w3.org/2000/svg">
<path d="M24 47.0625C11.2222 47.0625 1 36.8403 1 24.0625C1 11.2847 11.2222 1.0625 24 1.0625C36.7778 1.0625 47 11.2847 47 24.0625C47 36.8403 36.7778 47.0625 24 47.0625Z" fill="#0078D4"/>
<path d="M15.0542 20.6544C16.7579 20.6544 18.0357 19.3766 18.0357 17.6729C18.0357 15.9692 16.7579 14.6914 15.0542 14.6914C13.3505 14.6914 12.0728 15.9692 12.0728 17.6729C12.0728 19.3766 13.3505 20.6544 15.0542 20.6544Z" fill="#50E6FF"/>
<path d="M32.9439 20.6544C34.6476 20.6544 35.9254 19.3766 35.9254 17.6729C35.9254 15.9692 34.2217 14.6914 32.9439 14.6914C31.2402 14.6914 29.9624 15.9692 29.9624 17.6729C29.9624 19.3766 31.2402 20.6544 32.9439 20.6544Z" fill="#50E6FF"/>
<path d="M35.0733 27.8984C33.7956 27.8984 32.9437 28.3244 32.9437 29.1762C31.6659 33.0095 28.2585 35.991 23.9993 35.991C19.74 35.991 15.9067 33.0095 15.0548 29.1762C15.0548 28.3244 14.203 27.8984 13.3511 27.8984H12.9252C12.0733 27.8984 11.6474 28.7503 12.0733 29.6021C13.3511 35.1392 18.4622 38.9725 23.9993 38.9725C29.5363 38.9725 34.6474 35.1392 35.9252 30.0281C35.9252 29.6021 35.9252 29.1762 35.9252 28.7503C35.4993 28.3244 35.4993 28.3244 35.0733 27.8984Z" fill="#50E6FF"/>
</svg>
