<svg data-slug-id="users07" viewBox="0 0 48 49" xmlns="http://www.w3.org/2000/svg">
<path d="M42.8551 6.25852C42.8551 9.70487 40.058 12.5019 36.6116 12.5019C33.1652 12.5019 30.3682 9.70487 30.3682 6.25852C30.3682 2.81217 33.1652 0.0151367 36.6116 0.0151367C40.058 0.0151367 42.8551 2.81217 42.8551 6.25852Z" fill="#50E6FF"/>
<path d="M36.5621 14.8469C42.8555 14.8469 48.0001 19.9415 48.0001 26.2848V27.7333H25.124V26.2848C25.124 19.9415 30.2686 14.8469 36.5621 14.8469Z" fill="#50E6FF"/>
<path d="M17.7312 26.5355C17.7312 29.9819 14.9341 32.7789 11.4878 32.7789C8.04136 32.7789 5.19434 29.9819 5.19434 26.5355C5.19434 23.0892 7.99141 20.2921 11.4878 20.2921C14.9841 20.2921 17.7312 23.0892 17.7312 26.5355Z" fill="#0078D4"/>
<path d="M11.438 35.1278C17.7314 35.1278 22.8761 40.2224 22.8761 46.5657V47.9642H0V46.5157C0 40.2224 5.09467 35.1278 11.438 35.1278Z" fill="#0078D4"/>
</svg>
