<svg data-slug-id="users21" viewBox="0 0 49 49" xmlns="http://www.w3.org/2000/svg">
<path d="M23.6975 36.1274C30.7106 36.1274 36.3959 30.4421 36.3959 23.4289C36.3959 16.4158 30.7106 10.7305 23.6975 10.7305C16.6843 10.7305 10.999 16.4158 10.999 23.4289C10.999 30.4421 16.6843 36.1274 23.6975 36.1274Z" fill="#50E6FF"/>
<path d="M29.7397 18.6836C28.1914 18.6836 26.9375 19.9374 26.9375 21.4858C26.9375 22.0833 27.4172 22.563 28.0146 22.563C28.6121 22.563 29.0918 22.0833 29.0918 21.4858C29.0918 21.124 29.3863 20.8379 29.7397 20.8379C30.0932 20.8379 30.3877 21.1324 30.3877 21.4858C30.3877 22.0833 30.8674 22.563 31.4648 22.563C32.0623 22.563 32.542 22.0833 32.542 21.4858C32.5336 19.9459 31.2797 18.6836 29.7397 18.6836Z" fill="#0078D4"/>
<path d="M17.3105 18.6836C15.7622 18.6836 14.5083 19.9374 14.5083 21.4858C14.5083 22.0833 14.988 22.563 15.5854 22.563C16.1829 22.563 16.6626 22.0833 16.6626 21.4858C16.6626 21.124 16.9571 20.8379 17.3105 20.8379C17.664 20.8379 17.9585 21.1324 17.9585 21.4858C17.9585 22.0833 18.4382 22.563 19.0357 22.563C19.6331 22.563 20.1128 22.0833 20.1128 21.4858C20.1128 19.9459 18.8589 18.6836 17.3105 18.6836Z" fill="#0078D4"/>
<path d="M29.9667 26.1221C29.5628 25.6929 28.8811 25.6677 28.4435 26.08C27.156 27.2918 25.4814 27.9566 23.7142 27.9566C21.8966 27.9566 20.1799 27.2497 18.8755 25.9791C18.4548 25.5667 17.7731 25.5667 17.3524 25.9959C17.1504 26.1979 17.041 26.4756 17.041 26.7617C17.041 27.0478 17.1588 27.3171 17.3608 27.519C19.0606 29.1936 21.3159 30.1193 23.7058 30.1193C26.02 30.1193 28.2247 29.2441 29.9162 27.6537C30.1266 27.4601 30.2444 27.1908 30.2528 26.9047C30.2612 26.6186 30.1602 26.3325 29.9667 26.1221Z" fill="#0078D4"/>
<path d="M35.7959 0.0664062H48.0052V12.2757H42.9531V5.11852H35.7959V0.0664062Z" fill="#0078D4"/>
<path d="M5.05211 12.2718H0V0.0625H12.2093V5.11461H5.05211V12.2718Z" fill="#0078D4"/>
<path d="M42.9531 35.8984H48.0052V48.1077H35.7959V43.0556H42.9531V35.8984Z" fill="#0078D4"/>
<path d="M0 48.1155V35.9062H5.05211V43.0634H12.2093V48.1155H0Z" fill="#0078D4"/>
</svg>
