<svg data-slug-id="users17" viewBox="0 0 48 49" xmlns="http://www.w3.org/2000/svg">
<path d="M37 12.1328H48V7.13281H37V12.1328Z" fill="#50E6FF"/>
<path d="M37 5.13281H48V0.132812H37V5.13281Z" fill="#50E6FF"/>
<path d="M0 0.0625H48V30.0625H0V0.0625Z" fill="#50E6FF"/>
<path d="M13 33.3827C13 27.1336 18.069 22.0703 24.3318 22.0703C30.5945 22.0703 35.6635 27.1336 35.6635 33.3827H13Z" fill="#0078D4"/>
<path d="M30.8449 13.5418C30.8449 17.0827 27.9699 19.9508 24.4225 19.9508C20.875 19.9508 18 17.0827 18 13.5418C18 10.0009 20.875 7.13281 24.4225 7.13281C27.9699 7.13281 30.8449 10.0009 30.8449 13.5418Z" fill="#0078D4"/>
<path d="M0 32.1328H48" stroke="#50E6FF" stroke-width="4"/>
<path d="M8 4.13281H4V13.1328H8V4.13281Z" fill="#0078D4"/>
<path d="M4 4.13281V8.13281H13V4.13281H4Z" fill="#0078D4"/>
<path d="M40 4.13281H44V13.1328H40V4.13281Z" fill="#0078D4"/>
<path d="M44 4.13281L44 8.13281L35 8.13281L35 4.13281L44 4.13281Z" fill="#0078D4"/>
<path d="M40 48.1328H44V39.1328H40V48.1328Z" fill="#0078D4"/>
<path d="M44 48.1328V44.1328H35V48.1328H44Z" fill="#0078D4"/>
<path d="M8 48.1328L4 48.1328L4 39.1328L8 39.1328L8 48.1328Z" fill="#0078D4"/>
<path d="M4 48.1328L4 44.1328L13 44.1328L13 48.1328L4 48.1328Z" fill="#0078D4"/>
<path d="M36 34.1328H12V38.1328H36V34.1328Z" fill="#0078D4"/>
</svg>
