<svg data-slug-id="users19" viewBox="0 0 60 61" xmlns="http://www.w3.org/2000/svg">
<path d="M4.04053 47.116C4.04053 42.5524 7.73188 38.861 12.2955 38.861C16.8591 38.861 20.5505 42.5524 20.5505 47.116H4.04053Z" fill="#0078D7"/>
<path d="M16.9979 32.8815C16.9979 35.4604 14.8994 37.5589 12.3205 37.5589C9.74158 37.5589 7.64307 35.4604 7.64307 32.8815C7.64307 30.3026 9.74158 28.2041 12.3205 28.2041C14.8994 28.2041 16.9979 30.3026 16.9979 32.8815Z" fill="#0078D7"/>
<path d="M53.6587 49.3284H4.00244V51.3257H53.6587V49.3284Z" fill="#0078D7"/>
<path d="M50.0683 11.2518L37.9324 28.9121L25.1264 15.7901L15.7969 27.117C16.2899 27.4204 16.7324 27.7744 17.1242 28.1915L25.2402 18.3564L38.1725 31.5921L51.4842 12.2252L50.0683 11.2518Z" fill="#0078D4"/>
<path d="M50.8904 17.0289C53.7111 17.0289 55.9976 14.7424 55.9976 11.9217C55.9976 9.10109 53.7111 6.81451 50.8904 6.81451C48.0698 6.81451 45.7832 9.10109 45.7832 11.9217C45.7832 14.7424 48.0698 17.0289 50.8904 17.0289Z" fill="#50E6FF"/>
<path d="M50.8905 16.2072C53.2573 16.2072 55.176 14.2886 55.176 11.9217C55.176 9.55492 53.2573 7.63623 50.8905 7.63623C48.5237 7.63623 46.605 9.55492 46.605 11.9217C46.605 14.2886 48.5237 16.2072 50.8905 16.2072Z" fill="white"/>
<path d="M50.8904 14.842C52.5032 14.842 53.8106 13.5346 53.8106 11.9218C53.8106 10.309 52.5032 9.00159 50.8904 9.00159C49.2776 9.00159 47.9702 10.309 47.9702 11.9218C47.9702 13.5346 49.2776 14.842 50.8904 14.842Z" fill="#0078D4"/>
<path d="M25.367 22.2247C28.1876 22.2247 30.4742 19.9381 30.4742 17.1175C30.4742 14.2968 28.1876 12.0103 25.367 12.0103C22.5463 12.0103 20.2598 14.2968 20.2598 17.1175C20.2598 19.9381 22.5463 22.2247 25.367 22.2247Z" fill="#50E6FF"/>
<path d="M25.3671 21.403C27.7339 21.403 29.6526 19.4843 29.6526 17.1175C29.6526 14.7507 27.7339 12.832 25.3671 12.832C23.0002 12.832 21.0815 14.7507 21.0815 17.1175C21.0815 19.4843 23.0002 21.403 25.3671 21.403Z" fill="white"/>
<path d="M25.3669 20.063C26.9936 20.063 28.3124 18.7442 28.3124 17.1175C28.3124 15.4907 26.9936 14.172 25.3669 14.172C23.7401 14.172 22.4214 15.4907 22.4214 17.1175C22.4214 18.7442 23.7401 20.063 25.3669 20.063Z" fill="#0078D4"/>
<path d="M38.0213 35.018C40.8419 35.018 43.1285 32.7314 43.1285 29.9108C43.1285 27.0902 40.8419 24.8036 38.0213 24.8036C35.2006 24.8036 32.9141 27.0902 32.9141 29.9108C32.9141 32.7314 35.2006 35.018 38.0213 35.018Z" fill="#50E6FF"/>
<path d="M38.0209 34.1963C40.3877 34.1963 42.3064 32.2776 42.3064 29.9108C42.3064 27.5439 40.3877 25.6252 38.0209 25.6252C35.654 25.6252 33.7354 27.5439 33.7354 29.9108C33.7354 32.2776 35.654 34.1963 38.0209 34.1963Z" fill="white"/>
<path d="M38.0212 32.8563C39.6479 32.8563 40.9667 31.5375 40.9667 29.9108C40.9667 28.284 39.6479 26.9653 38.0212 26.9653C36.3944 26.9653 35.0757 28.284 35.0757 29.9108C35.0757 31.5375 36.3944 32.8563 38.0212 32.8563Z" fill="#0078D4"/>
<path d="M50.7388 47.3435L55.9345 50.3016L50.7388 53.3103V47.3435Z" fill="#0078D4"/>
</svg>
