<svg data-slug-id="users09" viewBox="0 0 48 49" xmlns="http://www.w3.org/2000/svg">
<path d="M37.8638 10.204L48 10.204V0.0724392L37.8638 0.0724392V10.204Z" fill="#50E6FF"/>
<path d="M25.2965 10.204L35.4326 10.204V0.0724392L25.2965 0.0724392V10.204Z" fill="#50E6FF"/>
<path d="M12.6002 10.204L22.7363 10.204V0.0724392L12.6002 0.0724392L12.6002 10.204Z" fill="#50E6FF"/>
<path d="M0.000199318 10.1571L10.0942 10.1571L10.0942 0.0676727L0.000199318 0.0676727L0.000199318 10.1571Z" fill="#50E6FF"/>
<path d="M37.8633 22.7H47.9995V12.5684L37.8633 12.5684V22.7Z" fill="#50E6FF"/>
<path d="M25.296 22.7H35.4321V12.5684L25.296 12.5684V22.7Z" fill="#50E6FF"/>
<path d="M12.6002 22.7H22.7363V12.5684L12.6002 12.5684L12.6002 22.7Z" fill="#50E6FF"/>
<path d="M0.000199318 22.657H10.0942L10.0942 12.5676L0.000199318 12.5676L0.000199318 22.657Z" fill="#50E6FF"/>
<path d="M37.8638 35.3912H48V25.2597H37.8638V35.3912Z" fill="#50E6FF"/>
<path d="M25.2965 35.3912H35.4326V25.2597H25.2965V35.3912Z" fill="#50E6FF"/>
<path d="M12.6002 35.3912H22.7363V25.2597H12.6002L12.6002 35.3912Z" fill="#50E6FF"/>
<path d="M0.000199318 35.3444H10.0942L10.0942 25.2549H0.000199318L0.000199318 35.3444Z" fill="#50E6FF"/>
<path d="M37.8633 48.0161H47.9995V37.8846H37.8633V48.0161Z" fill="#50E6FF"/>
<path d="M25.296 48.0161H35.4321V37.8846H25.296V48.0161Z" fill="#50E6FF"/>
<path d="M12.6002 48.0161H22.7363V37.8846H12.6002L12.6002 48.0161Z" fill="#50E6FF"/>
<path d="M0.000199318 47.9731H10.0942L10.0942 37.8837H0.000199318L0.000199318 47.9731Z" fill="#50E6FF"/>
<path d="M7.57812 42.9751C7.57812 33.8626 14.9591 26.485 24.0757 26.485C33.1924 26.485 40.5733 33.8626 40.5733 42.9751H7.57812Z" fill="#0078D7"/>
<path d="M33.4791 14.5289C33.4791 19.6915 29.2915 23.8772 24.1265 23.8772C18.9615 23.8772 14.7739 19.6915 14.7739 14.5289C14.7739 9.36628 18.9615 5.1806 24.1265 5.1806C29.2915 5.1806 33.4791 9.36628 33.4791 14.5289Z" fill="#0078D7"/>
</svg>
