<svg data-slug-id="users10" viewBox="0 0 48 49" xmlns="http://www.w3.org/2000/svg">
<path d="M0 42.9883H48V6.02832H0V42.9883Z" fill="#0078D4"/>
<path d="M15.1494 35.3237C15.1494 30.4648 19.082 26.5322 23.941 26.5322C28.7999 26.5322 32.7326 30.4648 32.7326 35.3237H15.1494Z" fill="#50E6FF"/>
<path d="M0 10.0187H47.9832V5.0166H0V10.0187Z" fill="#50E6FF"/>
<path d="M7.47789 8.84152C8.15226 8.84152 8.69894 8.29484 8.69894 7.62047C8.69894 6.9461 8.15226 6.39941 7.47789 6.39941C6.80352 6.39941 6.25684 6.9461 6.25684 7.62047C6.25684 8.29484 6.80352 8.84152 7.47789 8.84152Z" fill="white"/>
<path d="M3.68834 8.84152C4.36271 8.84152 4.90939 8.29484 4.90939 7.62047C4.90939 6.9461 4.36271 6.39941 3.68834 6.39941C3.01397 6.39941 2.46729 6.9461 2.46729 7.62047C2.46729 8.29484 3.01397 8.84152 3.68834 8.84152Z" fill="white"/>
<path d="M11.3514 8.84152C12.0258 8.84152 12.5725 8.29484 12.5725 7.62047C12.5725 6.9461 12.0258 6.39941 11.3514 6.39941C10.6771 6.39941 10.1304 6.9461 10.1304 7.62047C10.1304 8.29484 10.6771 8.84152 11.3514 8.84152Z" fill="white"/>
<path d="M28.9515 20.1581C28.9515 22.9118 26.7199 25.1434 23.9662 25.1434C21.2125 25.1434 18.981 22.9118 18.981 20.1581C18.981 17.4044 21.2125 15.1729 23.9662 15.1729C26.7199 15.1729 28.9515 17.4044 28.9515 20.1581Z" fill="#50E6FF"/>
</svg>
