<svg data-slug-id="users16" viewBox="0 0 49 49" xmlns="http://www.w3.org/2000/svg">
<path d="M0.952637 47.9339C0.952637 36.422 10.2682 27.1064 21.7801 27.1064C31.5922 27.1064 39.8138 33.8806 42.027 43.011C42.4057 44.5931 36.1532 47.9423 36.1532 47.9423H0.952637V47.9339Z" fill="#0078D7"/>
<path d="M33.6532 11.9994C33.6532 18.5211 28.3685 23.8142 21.8383 23.8142C15.3082 23.8142 10.0234 18.5295 10.0234 11.9994C10.0234 5.46922 15.3166 0.184509 21.8383 0.184509C28.36 0.184509 33.6532 5.46922 33.6532 11.9994Z" fill="#0078D7"/>
<path d="M36.1867 47.9643C43.1999 47.9643 48.8852 42.279 48.8852 35.2658C48.8852 28.2527 43.1999 22.5674 36.1867 22.5674C29.1736 22.5674 23.4883 28.2527 23.4883 35.2658C23.4883 42.279 29.1736 47.9643 36.1867 47.9643Z" fill="#50E6FF"/>
<path d="M42.2285 30.5204C40.6801 30.5204 39.4263 31.7743 39.4263 33.3227C39.4263 33.9202 39.9059 34.3998 40.5034 34.3998C41.1009 34.3998 41.5805 33.9202 41.5805 33.3227C41.5805 32.9608 41.8751 32.6747 42.2285 32.6747C42.5819 32.6747 42.8765 32.9693 42.8765 33.3227C42.8765 33.9202 43.3561 34.3998 43.9536 34.3998C44.5511 34.3998 45.0308 33.9202 45.0308 33.3227C45.0223 31.7827 43.7685 30.5204 42.2285 30.5204Z" fill="#0078D4"/>
<path d="M29.7998 30.5204C28.2514 30.5204 26.9976 31.7743 26.9976 33.3227C26.9976 33.9202 27.4772 34.3998 28.0747 34.3998C28.6722 34.3998 29.1518 33.9202 29.1518 33.3227C29.1518 32.9608 29.4464 32.6747 29.7998 32.6747C30.1532 32.6747 30.4478 32.9693 30.4478 33.3227C30.4478 33.9202 30.9274 34.3998 31.5249 34.3998C32.1224 34.3998 32.602 33.9202 32.602 33.3227C32.602 31.7827 31.3482 30.5204 29.7998 30.5204Z" fill="#0078D4"/>
<path d="M42.4555 37.959C42.0515 37.5298 41.3699 37.5046 40.9323 37.9169C39.6448 39.1287 37.9702 39.7935 36.203 39.7935C34.3853 39.7935 32.6686 39.0866 31.3643 37.8159C30.9435 37.4036 30.2619 37.4036 29.8411 37.8327C29.6392 38.0347 29.5298 38.3124 29.5298 38.5985C29.5298 38.8846 29.6476 39.1539 29.8496 39.3559C31.5494 41.0305 33.8047 41.9562 36.1946 41.9562C38.5087 41.9562 40.7135 41.081 42.405 39.4905C42.6153 39.297 42.7332 39.0277 42.7416 38.7416C42.75 38.4555 42.649 38.1693 42.4555 37.959Z" fill="#0078D4"/>
</svg>
