<svg data-slug-id="users23" viewBox="0 0 48 49" xmlns="http://www.w3.org/2000/svg">
<path d="M24 47.0625C11.2222 47.0625 1 36.8403 1 24.0625C1 11.2847 11.2222 1.0625 24 1.0625C36.7778 1.0625 47 11.2847 47 24.0625C47 36.8403 36.7778 47.0625 24 47.0625Z" fill="#0078D4"/>
<path d="M15.0557 20.6544C16.7594 20.6544 18.0372 19.3766 18.0372 17.6729C18.0372 15.9692 16.7594 14.6914 15.0557 14.6914C13.352 14.6914 12.0742 15.9692 12.0742 17.6729C12.0742 19.3766 13.352 20.6544 15.0557 20.6544Z" fill="#50E6FF"/>
<path d="M32.9453 20.6544C34.6491 20.6544 35.9268 19.3766 35.9268 17.6729C35.9268 15.9692 34.2231 14.6914 32.9453 14.6914C31.2416 14.6914 29.9639 15.9692 29.9639 17.6729C29.9639 19.3766 31.2416 20.6544 32.9453 20.6544Z" fill="#50E6FF"/>
<path d="M35.9263 30.4453H12.0745C10.7967 30.4453 9.94482 31.2972 9.94482 32.5749C9.94482 33.8527 10.7967 34.7046 12.0745 34.7046H35.9263C37.2041 34.7046 38.0559 33.8527 38.0559 32.5749C38.0559 31.2972 37.2041 30.4453 35.9263 30.4453Z" fill="#50E6FF"/>
</svg>
