<svg data-slug-id="users26" viewBox="0 0 48 49" xmlns="http://www.w3.org/2000/svg">
<path d="M47.7393 24.5524C47.7561 24.4428 47.7897 24.3332 47.8066 24.232C47.9327 23.5658 48 22.8827 48 22.1828C48 16.187 43.1638 11.3212 37.1838 11.3212C36.3427 11.3212 35.5353 11.414 34.7615 11.6079C32.2804 7.69508 27.9488 5.12305 22.9949 5.12305C15.3075 5.12305 9.07517 11.3718 9.07517 19.0963C9.07517 19.2903 9.07517 19.4758 9.09199 19.6698C8.3939 19.4336 7.63694 19.3072 6.84633 19.3072C3.06991 19.3072 0 22.3852 0 26.1715C0 29.7386 2.71666 32.6564 6.16506 33.0022L37.1586 33.0696C41.221 33.0696 44.7619 30.818 46.6291 27.5039C46.6795 27.4112 46.7384 27.31 46.7889 27.2172C47.0832 26.6185 47.4869 25.7077 47.7393 24.5524Z" fill="#50E6FF"/>
<path d="M0.0756836 42.9682C0.0756836 38.0688 4.02872 34.1055 8.91534 34.1055C13.802 34.1055 17.755 38.0688 17.755 42.9682H0.0756836Z" fill="#0078D7"/>
<path d="M13.9533 27.6804C13.9533 30.4548 11.7076 32.7064 8.94052 32.7064C6.1734 32.7064 3.92773 30.4548 3.92773 27.6804C3.92773 24.9059 6.1734 22.6543 8.94052 22.6543C11.7076 22.6543 13.9533 24.8975 13.9533 27.6804Z" fill="#0078D7"/>
<path d="M43.0209 20.2349V15.209H38.0081V20.2349H39.8837V25.4126H38.0081V27.2931H32.785V25.4126H30.9094V20.2349H32.785V15.209H27.7722V17.0895H22.7174V15.209H17.7046V20.2349H19.5802V25.4126H17.7046V30.4385H22.7174V25.4126H20.8418V20.2349H22.7174V18.3544H27.7722V20.2349H29.6478V25.4126H27.7722V30.4385H32.785V28.558H38.0081V30.4385H43.0209V25.4126H41.1453V20.2349H43.0209Z" fill="#0078D4"/>
</svg>
