<svg data-slug-id="users18" viewBox="0 0 48 49" xmlns="http://www.w3.org/2000/svg">
<path d="M42.3866 6.90135C42.3866 10.1508 39.7389 12.9189 36.3691 12.9189C33.1196 12.9189 30.3516 10.2712 30.3516 6.90135C30.3516 3.6519 32.9993 0.88385 36.3691 0.88385C39.7389 0.88385 42.3866 3.53155 42.3866 6.90135Z" fill="#50E6FF"/>
<path d="M36.3688 15.0852C42.3863 15.0852 47.3207 20.0196 47.3207 26.0371V27.4813H25.417V26.0371C25.417 20.0196 30.3513 15.0852 36.3688 15.0852Z" fill="#50E6FF"/>
<path d="M18.3167 26.2777C18.3167 29.5271 15.669 32.2952 12.2992 32.2952C9.04979 32.2952 6.28174 29.6475 6.28174 26.2777C6.28174 22.9079 8.92944 20.2602 12.2992 20.2602C15.669 20.2602 18.3167 23.0282 18.3167 26.2777Z" fill="#0078D4"/>
<path d="M12.299 34.4615C18.3165 34.4615 23.2509 39.3959 23.2509 45.4134V46.7372H1.34717V45.4134C1.34717 39.3959 6.28152 34.4615 12.299 34.4615Z" fill="#0078D4"/>
</svg>
