<svg data-slug-id="users12" viewBox="0 0 48 49" xmlns="http://www.w3.org/2000/svg">
<path d="M43.6465 43.6728H4.24414V4.27045H43.6465V43.6728ZM5.51818 42.4072H42.3893V5.53605H5.51818V42.4072Z" fill="#50E6FF"/>
<path d="M35.4705 12.6221H12.4956V35.4198H35.4705V12.6221Z" fill="#50E6FF"/>
<path d="M18.2754 30.4181C18.2754 27.2456 20.8403 24.6807 24.0128 24.6807C27.1852 24.6807 29.7502 27.2456 29.7502 30.4181H18.2754Z" fill="#0078D4"/>
<path d="M27.2861 20.5117C27.2861 22.3088 25.8264 23.7685 24.0293 23.7685C22.2321 23.7685 20.7725 22.3088 20.7725 20.5117C20.7725 18.7145 22.2321 17.2549 24.0293 17.2549C25.8264 17.2549 27.2861 18.7145 27.2861 20.5117Z" fill="#0078D4"/>
<path d="M39.1779 8.89545L46.7715 8.89545V1.30184L39.1779 1.30184V8.89545Z" fill="#0078D4"/>
<path d="M26.5319 8.89545L34.1255 8.89545V1.30184L26.5319 1.30184V8.89545Z" fill="#0078D4"/>
<path d="M13.8761 8.89545L21.4697 8.89545V1.30184L13.8761 1.30184V8.89545Z" fill="#0078D4"/>
<path d="M1.21939 8.89545L8.81299 8.89545L8.81299 1.30184L1.21939 1.30184L1.21939 8.89545Z" fill="#0078D4"/>
<path d="M39.2628 46.9502H46.8564V39.3566H39.2628V46.9502Z" fill="#0078D4"/>
<path d="M26.6164 46.9502H34.21V39.3566H26.6164V46.9502Z" fill="#0078D4"/>
<path d="M13.9601 46.9502H21.5537V39.3566H13.9601V46.9502Z" fill="#0078D4"/>
<path d="M1.30386 46.9502H8.89746L8.89746 39.3566H1.30386L1.30386 46.9502Z" fill="#0078D4"/>
<path d="M39.2628 34.3799H46.8564V26.7863H39.2628V34.3799Z" fill="#0078D4"/>
<path d="M1.30386 34.3799H8.89746L8.89746 26.7863H1.30386L1.30386 34.3799Z" fill="#0078D4"/>
<path d="M39.2628 21.5518H46.8564V13.9582H39.2628V21.5518Z" fill="#0078D4"/>
<path d="M1.30386 21.5518H8.89746L8.89746 13.9582H1.30386L1.30386 21.5518Z" fill="#0078D4"/>
</svg>
