<svg data-slug-id="users13" viewBox="0 0 48 49" xmlns="http://www.w3.org/2000/svg">
<path d="M47.8013 8.66113H0.0888672V39.0435H47.8013V8.66113Z" fill="#50E6FF"/>
<path d="M7.21835 30.2697C9.82315 30.2697 11.9347 28.1581 11.9347 25.5533C11.9347 22.9485 9.82315 20.8369 7.21835 20.8369C4.61356 20.8369 2.50195 22.9485 2.50195 25.5533C2.50195 28.1581 4.61356 30.2697 7.21835 30.2697Z" fill="#0078D4"/>
<path d="M7.21831 31.915C3.26969 31.915 0.0888672 35.0959 0.0888672 39.0445H14.4574C14.3477 35.0959 11.1669 31.915 7.21831 31.915Z" fill="#0078D4"/>
<path d="M24.3287 30.2697C26.9335 30.2697 29.0451 28.1581 29.0451 25.5533C29.0451 22.9485 26.9335 20.8369 24.3287 20.8369C21.7239 20.8369 19.6123 22.9485 19.6123 25.5533C19.6123 28.1581 21.7239 30.2697 24.3287 30.2697Z" fill="#0078D4"/>
<path d="M24.3287 31.915C20.38 31.915 17.1992 35.0959 17.1992 39.0445H31.5678C31.4581 35.0959 28.2773 31.915 24.3287 31.915Z" fill="#0078D4"/>
<path d="M40.6715 30.2697C43.2763 30.2697 45.3879 28.1581 45.3879 25.5533C45.3879 22.9485 43.2763 20.8369 40.6715 20.8369C38.0667 20.8369 35.9551 22.9485 35.9551 25.5533C35.9551 28.1581 38.0667 30.2697 40.6715 30.2697Z" fill="#0078D4"/>
<path d="M40.6719 31.915C36.7233 31.915 33.5425 35.0959 33.5425 39.0445H47.911C47.8014 35.0959 44.6205 31.915 40.6719 31.915Z" fill="#0078D4"/>
</svg>
