<svg data-slug-id="users20" viewBox="0 0 48 49" xmlns="http://www.w3.org/2000/svg">
<path d="M14.0161 35.461C14.0161 29.9388 18.4861 25.4688 24.0084 25.4688C29.5307 25.4688 34.0007 29.9388 34.0007 35.461H14.0161Z" fill="#0078D7"/>
<path d="M29.6994 18.2201C29.6994 21.3516 27.1656 23.8854 24.034 23.8854C20.9025 23.8854 18.3687 21.3516 18.3687 18.2201C18.3687 15.0885 20.9025 12.5547 24.034 12.5547C27.1656 12.5547 29.6994 15.097 29.6994 18.2201Z" fill="#0078D7"/>
<path d="M24.042 46.5988L4.45312 35.2849V12.6655L24.042 1.35156L43.631 12.6655V35.2849L24.042 46.5988ZM5.71584 34.561L24.042 45.1425L42.3682 34.561V13.3894L24.042 2.80789L5.71584 13.3894V34.561Z" fill="#50E6FF"/>
<path d="M23.9158 5.28172C25.357 5.28172 26.5254 4.11336 26.5254 2.67211C26.5254 1.23086 25.357 0.0625 23.9158 0.0625C22.4745 0.0625 21.3062 1.23086 21.3062 2.67211C21.3062 4.11336 22.4745 5.28172 23.9158 5.28172Z" fill="#0078D7"/>
<path d="M23.9158 48.0356C25.357 48.0356 26.5254 46.8673 26.5254 45.426C26.5254 43.9848 25.357 42.8164 23.9158 42.8164C22.4745 42.8164 21.3062 43.9848 21.3062 45.426C21.3062 46.8673 22.4745 48.0356 23.9158 48.0356Z" fill="#0078D7"/>
<path d="M42.9407 38.0786C44.3819 38.0786 45.5503 36.9102 45.5503 35.469C45.5503 34.0277 44.3819 32.8594 42.9407 32.8594C41.4994 32.8594 40.3311 34.0277 40.3311 35.469C40.3311 36.9102 41.4994 38.0786 42.9407 38.0786Z" fill="#0078D7"/>
<path d="M42.9407 15.2817C44.3819 15.2817 45.5503 14.1134 45.5503 12.6721C45.5503 11.2309 44.3819 10.0625 42.9407 10.0625C41.4994 10.0625 40.3311 11.2309 40.3311 12.6721C40.3311 14.1134 41.4994 15.2817 42.9407 15.2817Z" fill="#0078D7"/>
<path d="M5.0507 38.0106C6.44081 38.0106 7.56771 36.8837 7.56771 35.4936C7.56771 34.1035 6.44081 32.9766 5.0507 32.9766C3.6606 32.9766 2.53369 34.1035 2.53369 35.4936C2.53369 36.8837 3.6606 38.0106 5.0507 38.0106Z" fill="#0078D7"/>
<path d="M5.0507 15.3661C6.44081 15.3661 7.56771 14.2391 7.56771 12.849C7.56771 11.4589 6.44081 10.332 5.0507 10.332C3.6606 10.332 2.53369 11.4589 2.53369 12.849C2.53369 14.2391 3.6606 15.3661 5.0507 15.3661Z" fill="#0078D7"/>
</svg>
