<svg data-slug-id="users28" viewBox="0 0 48 49" xmlns="http://www.w3.org/2000/svg">
<path d="M37.8645 10.2483L48.001 10.2483V0.116668L37.8645 0.116668V10.2483Z" fill="#50E6FF"/>
<path d="M25.2971 10.2483L35.4336 10.2483V0.116668L25.2971 0.116668V10.2483Z" fill="#50E6FF"/>
<path d="M12.6003 10.2483L22.7368 10.2483V0.116668L12.6003 0.116668L12.6003 10.2483Z" fill="#50E6FF"/>
<path d="M-0.000123024 10.2053L10.0942 10.2053L10.0942 0.115595L-0.000123024 0.115595L-0.000123024 10.2053Z" fill="#50E6FF"/>
<path d="M37.8645 22.7466H48.001V12.6149L37.8645 12.6149V22.7466Z" fill="#50E6FF"/>
<path d="M25.2971 22.7466H35.4336V12.6149L25.2971 12.6149V22.7466Z" fill="#50E6FF"/>
<path d="M12.6003 22.7466H22.7368V12.6149L12.6003 12.6149L12.6003 22.7466Z" fill="#50E6FF"/>
<path d="M-0.000123024 22.7017H10.0942L10.0942 12.6118L-0.000123024 12.6118L-0.000123024 22.7017Z" fill="#50E6FF"/>
<path d="M37.8645 35.4364H48.001V25.3046H37.8645V35.4364Z" fill="#50E6FF"/>
<path d="M25.2971 35.4364H35.4336V25.3046H25.2971V35.4364Z" fill="#50E6FF"/>
<path d="M12.6003 35.4364H22.7368V25.3046H12.6003L12.6003 35.4364Z" fill="#50E6FF"/>
<path d="M-0.000123024 35.3934H10.0942L10.0942 25.3037H-0.000123024L-0.000123024 35.3934Z" fill="#50E6FF"/>
<path d="M37.8645 48.0617H48.001V37.9296H37.8645V48.0617Z" fill="#50E6FF"/>
<path d="M25.2971 48.0617H35.4336V37.9296H25.2971V48.0617Z" fill="#50E6FF"/>
<path d="M12.6003 48.0617H22.7368V37.9296H12.6003L12.6003 48.0617Z" fill="#50E6FF"/>
<path d="M-0.000123024 48.0207H10.0942L10.0942 37.931H-0.000123024L-0.000123024 48.0207Z" fill="#50E6FF"/>
<path d="M7.57812 43.0225C7.57812 33.9097 14.9593 26.5319 24.0763 26.5319C33.1932 26.5319 40.5744 33.9097 40.5744 43.0225H7.57812Z" fill="#0078D7"/>
<path d="M33.4796 14.5734C33.4796 19.7362 29.2919 23.9221 24.1268 23.9221C18.9616 23.9221 14.7739 19.7362 14.7739 14.5734C14.7739 9.41058 18.9616 5.22473 24.1268 5.22473C29.2919 5.22473 33.4796 9.41058 33.4796 14.5734Z" fill="#0078D7"/>
</svg>
