<svg data-slug-id="users29" viewBox="0 0 49 48" xmlns="http://www.w3.org/2000/svg">
<path d="M48.0296 23.7925C48.0296 10.782 37.4865 0.238764 24.4844 0.221924V5.02192C34.8423 5.03876 43.2296 13.4346 43.2296 23.7925C43.2296 34.1504 34.8338 42.5546 24.4844 42.563V47.3546C37.4865 47.3377 48.0296 36.7946 48.0296 23.7925Z" fill="#0078D4"/>
<path d="M4.05469 11.9777L8.20627 14.3862C11.4568 8.78613 17.5115 5.02192 24.4589 5.02192C24.4673 5.02192 24.4757 5.02192 24.4841 5.02192V0.221924C24.4757 0.221924 24.4673 0.221924 24.4589 0.221924C15.7515 0.221924 8.1389 4.95455 4.05469 11.9777Z" fill="#50E6FF"/>
<path d="M5.67964 23.7924C5.67964 20.3566 6.60595 17.1482 8.20595 14.3861L4.05437 11.9861C2.05016 15.4556 0.896484 19.4893 0.896484 23.7924C0.896484 28.104 2.05016 32.1377 4.07122 35.6072L8.22279 33.2156C6.60595 30.4451 5.67964 27.2198 5.67964 23.7924Z" fill="#3BCAF4"/>
<path d="M8.20627 14.3861L4.05469 11.9861L8.20627 14.3861Z" fill="#50E6FF"/>
<path d="M24.4583 42.5715C17.5193 42.5715 11.4646 38.8157 8.21408 33.2157L4.0625 35.6157C8.14671 42.6389 15.7509 47.3547 24.4583 47.3547C24.4667 47.3547 24.4751 47.3547 24.4835 47.3547V42.5631C24.4751 42.5715 24.4667 42.5715 24.4583 42.5715Z" fill="#0078D4"/>
<path d="M4.0625 35.6073L8.21408 33.2157L4.0625 35.6073Z" fill="#0078D4"/>
<path d="M14.8506 35.0852C14.8506 29.6452 19.2632 25.241 24.7116 25.241C30.16 25.241 34.5727 29.6452 34.5727 35.0852H14.8506Z" fill="#0078D4"/>
<path d="M30.3199 17.822C30.3199 20.9041 27.8188 23.3967 24.7283 23.3967C21.6378 23.3967 19.1367 20.9041 19.1367 17.822C19.1367 14.7399 21.6378 12.2472 24.7283 12.2472C27.8188 12.2472 30.3199 14.7399 30.3199 17.822Z" fill="#0078D4"/>
</svg>
