<svg data-slug-id="users25" viewBox="0 0 48 49" xmlns="http://www.w3.org/2000/svg">
<path d="M43.6465 43.7188H4.24414V4.31641H43.6465V43.7188ZM5.51818 42.4532H42.3893V5.58201H5.51818V42.4532Z" fill="#50E6FF"/>
<path d="M35.4706 12.668H12.4956V35.4657H35.4706V12.668Z" fill="#50E6FF"/>
<path d="M18.2754 30.4621C18.2754 27.2896 20.8403 24.7246 24.0128 24.7246C27.1852 24.7246 29.7501 27.2896 29.7501 30.4621H18.2754Z" fill="#0078D4"/>
<path d="M27.2866 20.5577C27.2866 22.3549 25.827 23.8146 24.0298 23.8146C22.2326 23.8146 20.7729 22.3549 20.7729 20.5577C20.7729 18.7605 22.2326 17.3008 24.0298 17.3008C25.827 17.3008 27.2866 18.7605 27.2866 20.5577Z" fill="#0078D4"/>
<path d="M39.1783 8.94336L46.772 8.94336V1.34975L39.1783 1.34975V8.94336Z" fill="#0078D4"/>
<path d="M26.5319 8.94336L34.1255 8.94336V1.34975L26.5319 1.34975V8.94336Z" fill="#0078D4"/>
<path d="M13.8756 8.94336L21.4692 8.94336V1.34975L13.8756 1.34975V8.94336Z" fill="#0078D4"/>
<path d="M1.21997 8.94336L8.81348 8.94336L8.81348 1.34975L1.21997 1.34975L1.21997 8.94336Z" fill="#0078D4"/>
<path d="M39.2628 46.9961H46.8564V39.4026H39.2628V46.9961Z" fill="#0078D4"/>
<path d="M26.6163 46.9961H34.21V39.4026H26.6163V46.9961Z" fill="#0078D4"/>
<path d="M13.9601 46.9961H21.5537V39.4026H13.9601V46.9961Z" fill="#0078D4"/>
<path d="M1.30432 46.9961H8.89795L8.89795 39.4026H1.30432L1.30432 46.9961Z" fill="#0078D4"/>
<path d="M39.2623 34.4238H46.856V26.8302H39.2623V34.4238Z" fill="#0078D4"/>
<path d="M1.30444 34.4238H8.89795L8.89795 26.8302H1.30444L1.30444 34.4238Z" fill="#0078D4"/>
<path d="M39.2623 21.5996H46.856V14.0059H39.2623V21.5996Z" fill="#0078D4"/>
<path d="M1.30444 21.5996H8.89795L8.89795 14.0059H1.30444L1.30444 21.5996Z" fill="#0078D4"/>
</svg>
