<svg data-slug-id="users02" viewBox="0 0 48 49" xmlns="http://www.w3.org/2000/svg">
<path d="M24.0244 29.1377C20.5416 29.1377 17.7354 31.944 17.7354 35.4268H30.4137C30.3135 31.944 27.5072 29.1377 24.0244 29.1377Z" fill="#0078D4"/>
<path d="M6.48535 29.1377C3.00256 29.1377 0.196289 31.944 0.196289 35.4268H12.8746C12.7744 31.944 9.96814 29.1377 6.48535 29.1377Z" fill="#0078D4"/>
<path d="M41.564 29.1377C38.0812 29.1377 35.2749 31.944 35.2749 35.4268H47.9532C47.853 31.944 45.0467 29.1377 41.564 29.1377Z" fill="#0078D4"/>
<path d="M6.53575 26.5217C8.6321 26.5217 10.2941 24.8596 10.2941 22.7633C10.2941 20.6669 8.6321 19.0049 6.53575 19.0049C4.43939 19.0049 2.77734 20.6669 2.77734 22.7633C2.77734 24.8596 4.43939 26.5217 6.53575 26.5217Z" fill="#0078D4"/>
<path d="M23.9996 26.5217C26.096 26.5217 27.758 24.8596 27.758 22.7633C27.758 20.6669 26.096 19.0049 23.9996 19.0049C21.9033 19.0049 20.2412 20.6669 20.2412 22.7633C20.2412 24.8596 21.9033 26.5217 23.9996 26.5217Z" fill="#0078D4"/>
<path d="M41.6144 26.5217C43.7107 26.5217 45.3728 24.8596 45.3728 22.7633C45.3728 20.6669 43.7107 19.0049 41.6144 19.0049C39.518 19.0049 37.856 20.6669 37.856 22.7633C37.856 24.8596 39.518 26.5217 41.6144 26.5217Z" fill="#0078D4"/>
</svg>
