<svg data-slug-id="users08" viewBox="0 0 48 49" xmlns="http://www.w3.org/2000/svg">
<path d="M47.6293 26.9869C47.6462 26.8773 47.6799 26.7677 47.6883 26.675C47.8148 26.009 47.8739 25.3346 47.8739 24.6433C47.8739 18.6832 43.0502 13.8443 37.0882 13.8443C36.2533 13.8443 35.4522 13.9371 34.6764 14.1309C32.1971 10.2362 27.8795 7.68188 22.9462 7.68188C15.2807 7.68188 9.06571 13.8949 9.06571 21.5663C9.06571 21.7518 9.06571 21.9457 9.08258 22.1312C8.39108 21.8951 7.63212 21.7687 6.83943 21.7687C3.06993 21.7687 0.00878906 24.8288 0.00878906 28.5971C0.00878906 32.1462 2.72418 35.0462 6.15636 35.3918L37.0629 35.4508C41.1191 35.4508 44.6441 33.2084 46.5077 29.9206C46.5583 29.8279 46.6174 29.7352 46.668 29.634C46.9631 29.0355 47.3763 28.1419 47.6293 26.9869Z" fill="#50E6FF"/>
<path d="M15.0947 32.7533C15.0947 27.8554 19.0582 23.8932 23.9577 23.8932C28.8572 23.8932 32.8207 27.8554 32.8207 32.7533H15.0947Z" fill="#0078D7"/>
<path d="M29.009 17.468C29.009 20.2416 26.7575 22.4924 23.983 22.4924C21.2086 22.4924 18.957 20.2416 18.957 17.468C18.957 14.6945 21.2086 12.4437 23.983 12.4437C26.7575 12.4437 29.009 14.6945 29.009 17.468Z" fill="#0078D7"/>
<path d="M23.8986 5.07462C25.2912 5.07462 26.4201 3.9461 26.4201 2.554C26.4201 1.1619 25.2912 0.0333862 23.8986 0.0333862C22.5061 0.0333862 21.3772 1.1619 21.3772 2.554C21.3772 3.9461 22.5061 5.07462 23.8986 5.07462Z" fill="#0078D7"/>
<path d="M23.8986 48.0171C25.2912 48.0171 26.4201 46.8886 26.4201 45.4965C26.4201 44.1044 25.2912 42.9759 23.8986 42.9759C22.5061 42.9759 21.3772 44.1044 21.3772 45.4965C21.3772 46.8886 22.5061 48.0171 23.8986 48.0171Z" fill="#0078D7"/>
<path d="M42.915 35.4073C44.3075 35.4073 45.4364 34.2788 45.4364 32.8867C45.4364 31.4946 44.3075 30.3661 42.915 30.3661C41.5224 30.3661 40.3936 31.4946 40.3936 32.8867C40.3936 34.2788 41.5224 35.4073 42.915 35.4073Z" fill="#0078D7"/>
<path d="M4.98359 35.4073C6.37614 35.4073 7.50503 34.2788 7.50503 32.8867C7.50503 31.4946 6.37614 30.3661 4.98359 30.3661C3.59104 30.3661 2.46216 31.4946 2.46216 32.8867C2.46216 34.2788 3.59104 35.4073 4.98359 35.4073Z" fill="#0078D7"/>
<path d="M42.915 17.7037C44.3075 17.7037 45.4364 16.5752 45.4364 15.1831C45.4364 13.791 44.3075 12.6625 42.915 12.6625C41.5224 12.6625 40.3936 13.791 40.3936 15.1831C40.3936 16.5752 41.5224 17.7037 42.915 17.7037Z" fill="#0078D7"/>
<path d="M4.98359 17.7037C6.37614 17.7037 7.50503 16.5752 7.50503 15.1831C7.50503 13.791 6.37614 12.6625 4.98359 12.6625C3.59104 12.6625 2.46216 13.791 2.46216 15.1831C2.46216 16.5752 3.59104 17.7037 4.98359 17.7037Z" fill="#0078D7"/>
</svg>
