<svg data-slug-id="vehicle07" viewBox="0 0 49 49" xmlns="http://www.w3.org/2000/svg">
<path d="M25.9462 0.440131C16.7756 -0.124079 8.8767 6.85697 8.31249 16.0275C7.74828 25.198 24.8514 47.8843 24.8514 47.8843C24.8514 47.8843 40.9609 27.2443 41.5251 18.0654C42.0978 8.90329 35.1167 1.00434 25.9462 0.440131Z" fill="#50E6FF"/>
<path d="M24.9277 30.2832C32.4807 30.2832 38.6035 24.1604 38.6035 16.6074C38.6035 9.0545 32.4807 2.93164 24.9277 2.93164C17.3748 2.93164 11.252 9.0545 11.252 16.6074C11.252 24.1604 17.3748 30.2832 24.9277 30.2832Z" fill="#0078D4"/>
<path d="M25.0292 6.50208C25.9471 6.50208 26.8145 6.86418 27.4629 7.5126L28.2713 6.70418C27.3787 5.81155 26.1997 5.36523 25.0292 5.36523C23.8587 5.36523 22.6797 5.81155 21.7871 6.70418L22.5955 7.5126C23.244 6.86418 24.1113 6.50208 25.0292 6.50208Z" fill="#50E6FF"/>
<path d="M25.0288 8.84253C25.3236 8.84253 25.6015 8.96042 25.812 9.16253L26.6204 8.35411C26.1825 7.91621 25.6099 7.69727 25.0373 7.69727C24.4646 7.69727 23.892 7.91621 23.4541 8.35411L24.2625 9.16253C24.4562 8.96042 24.7341 8.84253 25.0288 8.84253Z" fill="#50E6FF"/>
<path d="M32.9111 21.0215C32.2795 21.0215 31.749 21.5352 31.749 22.1836C31.749 22.8404 32.2627 23.3457 32.9111 23.3457C33.568 23.3457 34.0732 22.832 34.0732 22.1836C34.0817 21.5352 33.5511 21.0215 32.9111 21.0215Z" fill="#50E6FF"/>
<path d="M17.2559 21.0215C16.6243 21.0215 16.0938 21.5352 16.0938 22.1836C16.0938 22.8404 16.6074 23.3457 17.2559 23.3457C17.9127 23.3457 18.418 22.832 18.418 22.1836C18.4264 21.5352 17.8959 21.0215 17.2559 21.0215Z" fill="#50E6FF"/>
<path d="M31.6812 12.709H30.359V19.6816H13.9717V22.0732H15.4285C15.4875 21.1132 16.279 20.3637 17.2727 20.3637C18.2664 20.3637 19.058 21.1132 19.1169 22.0816L31.0748 22.0985C31.1085 21.0964 31.9085 20.3132 32.919 20.3132C33.9296 20.3132 34.7296 21.0964 34.7633 22.0985H36.1106V17.9132L36.1359 16.8269C36.1359 14.629 33.7443 12.709 31.6812 12.709ZM31.3022 17.1553V13.7532C33.4496 13.7532 35.1675 15.269 35.1675 17.1553H31.3022Z" fill="#50E6FF"/>
<path d="M29.6601 11.0059H13.9717V18.9301H29.6601V11.0059Z" fill="#50E6FF"/>
</svg>
