<svg data-slug-id="vehicle03" viewBox="0 0 48 49" xmlns="http://www.w3.org/2000/svg">
<path d="M38.6863 23.3613C36.5221 23.3613 34.7705 25.1163 34.7705 27.2847C34.7705 29.4531 36.5221 31.208 38.6863 31.208C40.8505 31.208 42.6021 29.4531 42.6021 27.2847C42.6021 25.1247 40.8421 23.3613 38.6863 23.3613Z" fill="#0078D7"/>
<path d="M38.6861 30.3411C40.3703 30.3411 41.7345 28.9742 41.7345 27.2867C41.7345 25.5993 40.3703 24.2324 38.6861 24.2324C37.0019 24.2324 35.6377 25.5993 35.6377 27.2867C35.6377 28.9742 37.0019 30.3411 38.6861 30.3411Z" fill="#50E6FF"/>
<path d="M38.6862 31.1343C36.5725 31.1343 34.8462 29.4131 34.8462 27.2869C34.8462 25.1691 36.5641 23.4395 38.6862 23.4395C40.8083 23.4395 42.5262 25.1607 42.5262 27.2869C42.5178 29.4131 40.7999 31.1343 38.6862 31.1343ZM38.6862 25.0341C37.4399 25.0341 36.4294 26.0466 36.4294 27.2953C36.4294 28.544 37.4399 29.5565 38.6862 29.5565C39.9325 29.5565 40.943 28.544 40.943 27.2953C40.9346 26.0466 39.9241 25.0341 38.6862 25.0341Z" fill="#0078D7"/>
<path d="M8.89284 31.2198C11.0555 31.2198 12.8086 29.4632 12.8086 27.2964C12.8086 25.1296 11.0555 23.373 8.89284 23.373C6.73021 23.373 4.97705 25.1296 4.97705 27.2964C4.97705 29.4632 6.73021 31.2198 8.89284 31.2198Z" fill="#0078D7"/>
<path d="M8.89266 30.3411C10.5769 30.3411 11.9411 28.9742 11.9411 27.2867C11.9411 25.5993 10.5769 24.2324 8.89266 24.2324C7.20845 24.2324 5.84424 25.5993 5.84424 27.2867C5.84424 28.9742 7.20845 30.3411 8.89266 30.3411Z" fill="#50E6FF"/>
<path d="M8.89273 31.1343C6.77905 31.1343 5.05273 29.4131 5.05273 27.2869C5.05273 25.1691 6.77063 23.4395 8.89273 23.4395C11.0148 23.4395 12.7327 25.1607 12.7327 27.2869C12.7327 29.4131 11.0064 31.1343 8.89273 31.1343ZM8.89273 25.0341C7.64642 25.0341 6.63589 26.0466 6.63589 27.2953C6.63589 28.544 7.64642 29.5565 8.89273 29.5565C10.1391 29.5565 11.1496 28.544 11.1496 27.2953C11.1496 26.0466 10.1306 25.0341 8.89273 25.0341Z" fill="#0078D7"/>
<path d="M46.8722 24.0031C46.3585 22.4928 45.2469 22.0962 43.428 21.6659C41.609 21.2272 36.1101 20.4003 35.3606 20.24C34.889 20.1641 34.1311 19.8856 32.6743 19.0503C31.209 18.215 28.2027 16.7891 25.2722 16.3166C22.3417 15.8442 19.8153 15.8779 16.1353 16.1226C12.4553 16.3588 8.81745 18.4597 7.51219 19.0588C6.20692 19.6578 3.55429 19.8097 2.52692 19.776C1.49956 19.7422 1.26377 20.0122 1.22166 20.5269C1.17956 21.0416 1.41535 22.5097 1.41535 22.5097C1.33956 22.7881 0.547977 23.8934 0.387977 24.1381C0.227977 24.3743 0.312187 26.163 0.270082 26.7114C0.227977 27.2683 1.06166 27.8252 2.13113 28.1795C2.76271 28.3736 3.5964 28.5339 4.11008 28.652C4.27008 28.6942 4.38798 28.5339 4.34587 28.3736C4.22798 27.8167 4.18587 27.2599 4.27008 26.6271C4.59008 24.4502 6.44271 22.7459 8.66587 22.6615C11.3185 22.5434 13.4575 24.6865 13.4575 27.3021C13.4575 27.8927 13.3396 28.4495 13.1375 28.9642C13.0617 29.1583 13.2132 29.3608 13.4153 29.3608C16.1859 29.3608 31.3017 29.3608 34.1059 29.3608C34.2996 29.3608 34.4596 29.1667 34.3838 28.9642C34.1059 28.2892 33.988 27.5383 34.1059 26.7452C34.3417 24.6021 36.0848 22.8978 38.2238 22.7037C40.9943 22.4253 43.2848 24.6105 43.2848 27.3021C43.2848 27.8167 43.209 28.3314 43.0069 28.8123C42.9311 29.0486 43.1248 29.2511 43.3606 29.2511C44.228 29.1751 45.4996 29.0148 46.1732 28.9305C47.1585 28.8123 47.3185 28.458 47.3185 28.1374C47.3101 27.8083 47.3859 25.5049 46.8722 24.0031Z" fill="#0078D7"/>
<path d="M12.2529 21.1428L12.3287 19.9953C12.4466 19.8772 12.5224 19.8013 12.6487 19.7169C14.0719 18.5694 16.0508 17.8944 18.4677 17.7341C19.1414 17.692 19.7729 17.6582 20.4466 17.6582L20.8424 21.1428H12.2529Z" fill="#50E6FF"/>
<path d="M22.5429 21.1428L22.0713 17.6582C23.8481 17.7341 25.5492 17.9788 26.5008 18.291C28.4039 18.966 29.2713 19.4385 29.945 19.9194H29.625C29.3892 19.9194 29.1871 20.1135 29.1871 20.3582L29.1113 21.1091H22.5429V21.1428Z" fill="#50E6FF"/>
<path d="M20.5481 35.5533H6.06388C3.33546 35.5533 1.1123 33.3259 1.1123 30.5922C1.1123 28.9807 1.90388 27.4619 3.21757 26.5254L3.9502 27.5632C2.96494 28.255 2.38388 29.3856 2.38388 30.5922C2.38388 32.634 4.03441 34.2877 6.0723 34.2877H20.5565V35.5533H20.5481Z" fill="#0078D7"/>
<path d="M25.4992 34.3979H23.3603C23.1329 34.3979 22.9561 34.2207 22.9561 33.9929C22.9561 33.7651 23.1329 33.5879 23.3603 33.5879H25.4992C25.7266 33.5879 25.9034 33.7651 25.9034 33.9929C25.9034 34.2123 25.7182 34.3979 25.4992 34.3979Z" fill="#0078D7"/>
<path d="M25.4987 36.5932H23.3598C23.1324 36.5932 22.9556 36.416 22.9556 36.1882C22.9556 35.9604 23.1324 35.7832 23.3598 35.7832H25.4987C25.7261 35.7832 25.9029 35.9604 25.9029 36.1882C25.9029 36.4076 25.7177 36.5932 25.4987 36.5932Z" fill="#0078D7"/>
<path d="M22.4591 37.3772H24.2528C24.2696 37.3772 24.278 37.3687 24.278 37.3519V32.6523C24.278 32.6354 24.2696 32.627 24.2528 32.627H22.4591C21.1538 32.627 20.0928 33.6985 20.0928 34.9978C20.0928 36.3056 21.1622 37.3772 22.4591 37.3772Z" fill="#0078D7"/>
</svg>
