<svg data-slug-id="vehicle02" viewBox="0 0 48 49" xmlns="http://www.w3.org/2000/svg">
<path d="M42.9472 28.0178H5.05261C3.71258 28.0178 2.42742 28.5501 1.47988 29.4977C0.532327 30.4452 0 31.7304 0 33.0704C0 34.4105 0.532327 35.6956 1.47988 36.6432C2.42742 37.5907 3.71258 38.123 5.05261 38.123V48.2283H12.6315V43.1757H35.3683V48.2283H42.9472V38.123C44.2872 38.123 45.5724 37.5907 46.5199 36.6432C47.4675 35.6956 47.9998 34.4105 47.9998 33.0704C47.9998 31.7304 47.4675 30.4452 46.5199 29.4977C45.5724 28.5501 44.2872 28.0178 42.9472 28.0178ZM2.52631 33.0704C2.52631 32.5708 2.67447 32.0823 2.95207 31.6669C3.22966 31.2514 3.62421 30.9276 4.08584 30.7364C4.54746 30.5452 5.05541 30.4952 5.54547 30.5927C6.03553 30.6901 6.48567 30.9308 6.83898 31.2841C7.19229 31.6374 7.4329 32.0875 7.53038 32.5776C7.62785 33.0676 7.57782 33.5756 7.38661 34.0372C7.1954 34.4988 6.8716 34.8934 6.45615 35.171C6.0407 35.4486 5.55227 35.5967 5.05261 35.5967C4.38259 35.5967 3.74002 35.3306 3.26624 34.8568C2.79247 34.383 2.52631 33.7405 2.52631 33.0704ZM42.9472 35.5967C42.4475 35.5967 41.9591 35.4486 41.5437 35.171C41.1282 34.8934 40.8044 34.4988 40.6132 34.0372C40.422 33.5756 40.372 33.0676 40.4694 32.5776C40.5669 32.0875 40.8075 31.6374 41.1608 31.2841C41.5141 30.9308 41.9643 30.6901 42.4543 30.5927C42.9444 30.4952 43.4524 30.5452 43.914 30.7364C44.3756 30.9276 44.7702 31.2514 45.0477 31.6669C45.3253 32.0823 45.4735 32.5708 45.4735 33.0704C45.4735 33.7405 45.2073 34.383 44.7336 34.8568C44.2598 35.3306 43.6172 35.5967 42.9472 35.5967Z" fill="#0078D4"/>
<path d="M15.1594 30.541H12.6331V35.5936H15.1594V30.541Z" fill="#50E6FF"/>
<path d="M25.2648 30.541H22.7385V35.5936H25.2648V30.541Z" fill="#50E6FF"/>
<path d="M20.2101 30.541H17.6838V35.5936H20.2101V30.541Z" fill="#50E6FF"/>
<path d="M35.3683 30.541H32.842V35.5936H35.3683V30.541Z" fill="#50E6FF"/>
<path d="M30.3156 30.541H27.7893V35.5936H30.3156V30.541Z" fill="#50E6FF"/>
<path d="M24.4467 23.8149L9.75538 9.12363C10.0676 8.59394 10.176 7.96856 10.0601 7.36471C9.94422 6.76085 9.61211 6.21999 9.126 5.84348C8.63989 5.46697 8.03315 5.28067 7.41951 5.3195C6.80587 5.35833 6.22745 5.61962 5.79268 6.05439C5.3579 6.48917 5.09661 7.06759 5.05778 7.68123C5.01895 8.29487 5.20525 8.90161 5.58176 9.38772C5.95827 9.87383 6.49914 10.2059 7.10299 10.3218C7.70684 10.4377 8.33222 10.3293 8.86191 10.0171L23.5541 24.7084L24.4467 23.8149Z" fill="#0078D4"/>
<path d="M40.422 5.31445C39.9767 5.31455 39.5393 5.43236 39.1542 5.65593C38.7691 5.87951 38.4499 6.20091 38.229 6.58757C38.0081 6.97423 37.8933 7.41241 37.8963 7.85772C37.8993 8.30302 38.0199 8.73962 38.246 9.12328L23.5547 23.8146L24.4473 24.7081L39.1395 10.0168C39.4741 10.2141 39.8498 10.3317 40.2373 10.3602C40.6248 10.3888 41.0136 10.3276 41.3736 10.1814C41.7336 10.0352 42.055 9.80789 42.3128 9.51723C42.5707 9.22657 42.758 8.88036 42.8602 8.50551C42.9624 8.13067 42.9768 7.73729 42.9023 7.35598C42.8277 6.97466 42.6662 6.61568 42.4303 6.30695C42.1944 5.99822 41.8905 5.74806 41.5422 5.57592C41.1939 5.40378 40.8105 5.31431 40.422 5.31445Z" fill="#50E6FF"/>
<path d="M24.6303 5.20117H23.3672V24.2605H24.6303V5.20117Z" fill="#0078D4"/>
<path d="M39.9169 20.4405L35.3696 12.8616H12.6328L8.08546 20.4405H2.52759V25.4931H45.4748V20.4405H39.9169ZM9.51703 22.9668L14.0644 15.3879H33.938L38.4853 22.9668H9.51703Z" fill="#0078D4"/>
<path d="M24.0009 5.28113C25.3962 5.28113 26.5272 4.15006 26.5272 2.75482C26.5272 1.35958 25.3962 0.228516 24.0009 0.228516C22.6057 0.228516 21.4746 1.35958 21.4746 2.75482C21.4746 4.15006 22.6057 5.28113 24.0009 5.28113Z" fill="#50E6FF"/>
</svg>
