<svg data-slug-id="vehicle04" viewBox="0 0 49 49" xmlns="http://www.w3.org/2000/svg">
<path d="M47.7051 25.0004C47.7051 20.1543 43.7028 16.1973 38.8559 16.1973H36.1472V33.9248H37.7572C37.8235 31.9467 39.4101 30.3942 41.4132 30.3942C43.4164 30.3942 45.0037 31.9403 45.0701 33.9248H47.7051V25.0004Z" fill="#50E6FF"/>
<path d="M36.8898 11.7754H14.0459L6.69263 33.8855L8.73706 33.8879C8.85841 31.9632 10.4231 30.4689 12.3882 30.4689C14.3493 30.4689 15.9229 31.9616 16.0402 33.8976L36.8898 33.9235V11.7754Z" fill="#0078D4"/>
<path d="M39.7537 23.5095H44.7292C44.7292 21.0824 42.5149 19.127 39.7537 19.127V23.5095Z" fill="white"/>
<path d="M13.0119 11.7754L5.65858 33.8855L1.70483 27.2215L10.4432 11.7754H13.0119Z" fill="#50E6FF"/>
<path d="M44.2147 33.9279C44.1823 33.4166 44.0149 32.9466 43.7495 32.5501C43.7276 32.517 43.7042 32.4846 43.6815 32.453C43.6791 32.449 43.6759 32.445 43.6734 32.4417C43.6516 32.4126 43.6298 32.3843 43.6063 32.356C43.6014 32.3495 43.5966 32.3438 43.5917 32.3373C43.5699 32.3115 43.548 32.2856 43.5262 32.2597C43.5197 32.2516 43.5124 32.2443 43.506 32.2362C43.4849 32.2128 43.4631 32.1893 43.4404 32.1666C43.4315 32.1577 43.4234 32.1488 43.4145 32.1399C43.3935 32.1181 43.3717 32.0971 43.3498 32.0768C43.3401 32.0671 43.3296 32.0574 43.3191 32.0485C43.298 32.0291 43.2762 32.0097 43.2544 31.9911C43.243 31.9814 43.2309 31.9709 43.2196 31.9611C43.1985 31.9434 43.1767 31.9256 43.1549 31.9086C43.1419 31.898 43.129 31.8883 43.116 31.8786C43.095 31.8624 43.0731 31.8463 43.0513 31.8309C43.0367 31.8204 43.023 31.8107 43.0084 31.801C42.9874 31.7864 42.9655 31.7718 42.9437 31.7581C42.9283 31.7484 42.9129 31.7379 42.8968 31.7281C42.8757 31.7152 42.8539 31.7014 42.832 31.6893C42.8151 31.6796 42.7981 31.6699 42.7811 31.6602C42.76 31.6481 42.7382 31.6367 42.7172 31.6254C42.6994 31.6157 42.6808 31.6068 42.663 31.5979C42.6419 31.5874 42.6209 31.5769 42.599 31.5671C42.5796 31.5583 42.561 31.5502 42.5416 31.5413C42.5206 31.5324 42.4995 31.5227 42.4777 31.5138C42.4575 31.5057 42.4372 31.4976 42.417 31.4903C42.396 31.4822 42.3749 31.4741 42.3531 31.4668C42.3321 31.4595 42.3102 31.4523 42.2892 31.4458C42.2681 31.4385 42.2471 31.432 42.2261 31.4256C42.2042 31.4191 42.1816 31.4126 42.1589 31.407C42.1379 31.4013 42.1177 31.3956 42.0966 31.39C42.0732 31.3843 42.0497 31.3786 42.0262 31.3738C42.006 31.3689 41.985 31.3641 41.9648 31.36C41.9397 31.3552 41.9146 31.3511 41.8895 31.3471C41.8701 31.3439 41.8499 31.3398 41.8305 31.3374C41.8038 31.3333 41.7763 31.3301 41.7496 31.3269C41.7309 31.3244 41.7123 31.322 41.6937 31.3204C41.663 31.3172 41.6331 31.3155 41.6023 31.3131C41.5869 31.3123 41.5716 31.3107 41.5554 31.3099C41.5093 31.3074 41.4624 31.3066 41.4154 31.3066C41.3685 31.3066 41.3216 31.3083 41.2755 31.3099C41.2601 31.3107 41.2447 31.3123 41.2285 31.3131C41.1978 31.3147 41.1671 31.3172 41.1371 31.3204C41.1185 31.322 41.0999 31.3252 41.0813 31.3269C41.0546 31.3301 41.0271 31.3333 41.0004 31.3374C40.9802 31.3406 40.9608 31.3439 40.9413 31.3471C40.9163 31.3511 40.8912 31.3552 40.8661 31.36C40.8451 31.3641 40.8248 31.3689 40.8046 31.3738C40.7811 31.3786 40.7577 31.3843 40.7342 31.39C40.7132 31.3948 40.6921 31.4013 40.6719 31.407C40.6493 31.4134 40.6266 31.4191 40.6048 31.4256C40.5837 31.432 40.5627 31.4393 40.5417 31.4458C40.5206 31.4531 40.4988 31.4595 40.4778 31.4668C40.4559 31.4741 40.4349 31.4822 40.4138 31.4903C40.3936 31.4984 40.3734 31.5057 40.3532 31.5138C40.3313 31.5227 40.3103 31.5316 40.2893 31.5413C40.2698 31.5494 40.2504 31.5583 40.2318 31.5671C40.21 31.5769 40.1889 31.5874 40.1679 31.5979C40.1501 31.6068 40.1315 31.6157 40.1137 31.6254C40.0918 31.6367 40.0708 31.6489 40.0498 31.6602C40.0328 31.6699 40.0158 31.6788 39.9996 31.6893C39.9778 31.7023 39.9567 31.7152 39.9349 31.7281C39.9195 31.7379 39.9033 31.7476 39.888 31.7581C39.8661 31.7718 39.8451 31.7864 39.8232 31.801C39.8087 31.8107 39.7941 31.8212 39.7804 31.8309C39.7585 31.8463 39.7367 31.8624 39.7156 31.8786C39.7027 31.8883 39.6898 31.8989 39.6768 31.9086C39.655 31.9256 39.6331 31.9434 39.6121 31.9611C39.6008 31.9709 39.5886 31.9806 39.5773 31.9911C39.5555 32.0097 39.5336 32.0291 39.5126 32.0485C39.5021 32.0582 39.4924 32.0671 39.4826 32.0768C39.4608 32.0979 39.439 32.1189 39.4171 32.1408C39.4082 32.1497 39.4001 32.1586 39.3912 32.1675C39.3694 32.1901 39.3467 32.2136 39.3257 32.2378C39.3184 32.2451 39.3119 32.2532 39.3055 32.2613C39.2828 32.2864 39.261 32.3123 39.2391 32.339C39.2343 32.3454 39.2294 32.3511 39.2246 32.3576C39.2019 32.3859 39.1793 32.415 39.1574 32.4441C39.155 32.4482 39.1517 32.4514 39.1493 32.4555C38.8111 32.9166 38.6089 33.4878 38.6089 34.1132C38.6089 35.6884 39.841 36.9205 41.4162 36.9205C42.9914 36.9205 44.2236 35.6884 44.2236 34.1132C44.2212 34.0485 44.2187 33.9886 44.2147 33.9279Z" fill="#0078D4"/>
<path d="M26.4668 18.8066H19.802V27.3468H26.4668V18.8066Z" fill="#50E6FF"/>
<path d="M26.2517 17.5086H24.3755V17.0887C24.3755 16.8743 24.2024 16.7012 23.988 16.7012H22.2817C22.0673 16.7012 21.8942 16.8743 21.8942 17.0887V17.5086H20.0181C19.7656 17.5086 19.5618 17.7133 19.5618 17.9649V18.3273H26.7096V17.9649C26.708 17.7133 26.5041 17.5086 26.2517 17.5086ZM22.2292 17.1761C22.2292 17.0887 22.3003 17.0175 22.3877 17.0175H23.8812C23.9686 17.0175 24.0398 17.0887 24.0398 17.1761V17.5086H22.2292V17.1761Z" fill="#50E6FF"/>
<path d="M24.8749 26.2867C25.0181 26.2867 25.1337 26.171 25.1337 26.0278V20.3702C25.1337 20.227 25.0181 20.1113 24.8749 20.1113C24.7317 20.1113 24.616 20.227 24.616 20.3702V26.0278C24.616 26.171 24.7317 26.2867 24.8749 26.2867Z" fill="#0078D4"/>
<path d="M21.3944 26.2867C21.5376 26.2867 21.6533 26.171 21.6533 26.0278V20.3702C21.6533 20.227 21.5376 20.1113 21.3944 20.1113C21.2512 20.1113 21.1355 20.227 21.1355 20.3702V26.0278C21.1355 26.171 21.2512 26.2867 21.3944 26.2867Z" fill="#0078D4"/>
<path d="M23.1346 26.2867C23.2778 26.2867 23.3935 26.171 23.3935 26.0278V20.3702C23.3935 20.227 23.2778 20.1113 23.1346 20.1113C22.9914 20.1113 22.8757 20.227 22.8757 20.3702V26.0278C22.8757 26.171 22.9914 26.2867 23.1346 26.2867Z" fill="#0078D4"/>
<path d="M15.1923 34.0357C15.1898 33.9904 15.1866 33.9459 15.1825 33.9014C15.1825 33.9006 15.1825 33.899 15.1825 33.8982C15.1793 33.8634 15.1745 33.8286 15.1696 33.7946C15.168 33.7833 15.1672 33.772 15.1656 33.7615C15.1607 33.7299 15.155 33.6992 15.1494 33.6684C15.1469 33.6547 15.1445 33.6409 15.1421 33.6263C15.1364 33.5972 15.13 33.5681 15.1227 33.539C15.1194 33.5236 15.1162 33.509 15.1122 33.4937C15.1049 33.4662 15.0976 33.4386 15.0895 33.4111C15.0847 33.3958 15.0806 33.3796 15.0758 33.3642C15.0677 33.3375 15.0588 33.3108 15.0499 33.2849C15.0442 33.2688 15.0393 33.2534 15.0337 33.2372C15.0248 33.2113 15.0151 33.1854 15.0046 33.1603C14.9981 33.1442 14.9924 33.1288 14.986 33.1126C14.9754 33.0875 14.9649 33.0633 14.9544 33.0382C14.9471 33.022 14.9398 33.0066 14.9326 32.9913C14.9212 32.967 14.9099 32.9435 14.8978 32.9193C14.8897 32.9039 14.8816 32.8885 14.8735 32.8731C14.8614 32.8497 14.8484 32.8262 14.8355 32.8036C14.8266 32.7882 14.8185 32.7736 14.8096 32.7583C14.7958 32.7356 14.7829 32.7129 14.7691 32.6911C14.7602 32.6765 14.7505 32.662 14.7408 32.6474C14.7263 32.6256 14.7125 32.6037 14.6971 32.5819C14.6874 32.5673 14.6769 32.5536 14.6664 32.5398C14.651 32.5188 14.6356 32.4977 14.6203 32.4767C14.6098 32.463 14.5992 32.45 14.5879 32.4363C14.5717 32.416 14.5555 32.395 14.5386 32.3748C14.528 32.3626 14.5167 32.3505 14.5062 32.3376C14.4884 32.3173 14.4706 32.2963 14.452 32.2761C14.4431 32.2664 14.4342 32.2575 14.4245 32.2478C14.3751 32.196 14.325 32.1458 14.2724 32.0981C14.2716 32.0973 14.2708 32.0965 14.2708 32.0965C14.2522 32.0795 14.2336 32.0641 14.2149 32.0479C14.2004 32.0358 14.1866 32.0228 14.1721 32.0107C14.1543 31.9961 14.1365 31.9824 14.1179 31.9678C14.1017 31.9549 14.0855 31.9419 14.0685 31.9298C14.0507 31.9169 14.0321 31.9039 14.0143 31.891C13.9965 31.8788 13.9795 31.8659 13.9617 31.8538C13.9439 31.8416 13.9253 31.8295 13.9067 31.8182C13.8881 31.806 13.8695 31.7947 13.8509 31.7826C13.8323 31.7712 13.8137 31.7607 13.7951 31.7494C13.7756 31.7381 13.7562 31.7267 13.7368 31.7162C13.7182 31.7057 13.6996 31.696 13.6802 31.6863C13.6599 31.6758 13.6397 31.6652 13.6195 31.6555C13.6009 31.6458 13.5815 31.6369 13.5621 31.628C13.541 31.6183 13.52 31.6086 13.4989 31.5997C13.4795 31.5916 13.4601 31.5835 13.4415 31.5754C13.4197 31.5665 13.3978 31.5585 13.376 31.5496C13.3566 31.5423 13.3371 31.535 13.3177 31.5285C13.2951 31.5204 13.2724 31.5131 13.2498 31.5059C13.2303 31.4994 13.2109 31.4929 13.1907 31.4873C13.1672 31.48 13.1446 31.4735 13.1211 31.4678C13.1017 31.4622 13.0815 31.4573 13.0621 31.4525C13.0378 31.4468 13.0135 31.4411 12.9893 31.4355C12.9698 31.4314 12.9504 31.4266 12.931 31.4225C12.9059 31.4177 12.88 31.4136 12.855 31.4088C12.8355 31.4055 12.8169 31.4023 12.7975 31.3991C12.7708 31.395 12.7433 31.3918 12.7166 31.3886C12.6988 31.3861 12.6802 31.3837 12.6624 31.3821C12.6325 31.3788 12.6017 31.3772 12.5718 31.3756C12.5564 31.3748 12.5411 31.3732 12.5257 31.3724C12.4796 31.3699 12.4334 31.3691 12.3873 31.3691C12.3412 31.3691 12.2951 31.3708 12.249 31.3724C12.2336 31.3732 12.2182 31.3748 12.2037 31.3756C12.1729 31.3772 12.143 31.3797 12.1123 31.3829C12.0945 31.3845 12.0759 31.3869 12.0581 31.3894C12.0314 31.3926 12.0039 31.3958 11.9772 31.3999C11.9577 31.4023 11.9391 31.4064 11.9197 31.4096C11.8946 31.4136 11.8687 31.4185 11.8437 31.4233C11.8242 31.4274 11.8048 31.4314 11.7854 31.4355C11.7611 31.4411 11.7369 31.446 11.7126 31.4525C11.6932 31.4573 11.6738 31.4622 11.6544 31.4678C11.6309 31.4743 11.6074 31.4808 11.584 31.4881C11.5645 31.4937 11.5451 31.5002 11.5257 31.5059C11.5031 31.5131 11.4796 31.5204 11.4569 31.5285C11.4375 31.535 11.4181 31.5423 11.3995 31.5496C11.3769 31.5576 11.355 31.5665 11.3332 31.5754C11.3146 31.5835 11.2951 31.5908 11.2765 31.5989C11.2547 31.6086 11.2337 31.6175 11.2118 31.628C11.1932 31.6369 11.1746 31.645 11.156 31.6539C11.135 31.6644 11.1139 31.675 11.0929 31.6855C11.0751 31.6952 11.0565 31.7041 11.0387 31.7138C11.0185 31.7251 10.9974 31.7364 10.9772 31.7486C10.9594 31.7591 10.9416 31.7688 10.9246 31.7793C10.9044 31.7915 10.885 31.8044 10.8647 31.8173C10.8477 31.8287 10.8308 31.8392 10.8138 31.8505C10.7943 31.8635 10.7749 31.878 10.7555 31.8918C10.7393 31.9031 10.7232 31.9144 10.707 31.9266C10.6876 31.9411 10.6689 31.9565 10.6495 31.9711C10.6342 31.9832 10.6188 31.9945 10.6042 32.0067C10.584 32.0236 10.5646 32.0406 10.5444 32.0576C10.5314 32.069 10.5177 32.0803 10.5047 32.0916C10.4732 32.1199 10.4424 32.149 10.4117 32.179C10.3971 32.1935 10.3834 32.2081 10.3688 32.2227C10.3526 32.2389 10.3364 32.2558 10.3211 32.2728C10.3065 32.289 10.2919 32.3052 10.2782 32.3214C10.2636 32.3376 10.2491 32.3537 10.2353 32.3707C10.2207 32.3877 10.207 32.4055 10.1932 32.4225C10.1795 32.4395 10.1665 32.4557 10.1536 32.4727C10.1398 32.4905 10.1269 32.5091 10.1131 32.5269C10.101 32.5439 10.0881 32.5608 10.0759 32.5778C10.063 32.5964 10.05 32.6159 10.0379 32.6353C10.0266 32.6523 10.0152 32.6701 10.0039 32.6879C9.99179 32.7073 9.97965 32.7275 9.96832 32.7469C9.95781 32.7647 9.94729 32.7825 9.93677 32.8011C9.92544 32.8214 9.91412 32.8416 9.9036 32.8626C9.89389 32.8812 9.88418 32.899 9.87528 32.9176C9.86477 32.9387 9.85425 32.9597 9.84454 32.9807C9.83564 32.9993 9.82755 33.018 9.81865 33.0374C9.80894 33.0592 9.80004 33.0811 9.79034 33.1029C9.78225 33.1215 9.77496 33.1409 9.76768 33.1603C9.75878 33.183 9.75069 33.2048 9.7426 33.2275C9.73532 33.2469 9.72885 33.2663 9.72238 33.2857C9.7151 33.3084 9.70701 33.3319 9.69972 33.3545C9.69406 33.3739 9.6884 33.3942 9.68273 33.4136C9.67626 33.437 9.66898 33.4613 9.66332 33.4848C9.65846 33.5042 9.65442 33.5244 9.64956 33.5438C9.6439 33.5681 9.63824 33.5932 9.63338 33.6183C9.62934 33.6377 9.6261 33.6571 9.62287 33.6765C9.61801 33.7024 9.61316 33.7275 9.60992 33.7534C9.60749 33.772 9.60507 33.7906 9.60264 33.8092C9.5994 33.8367 9.59536 33.8634 9.59293 33.8909C9.59293 33.8925 9.59293 33.8949 9.59212 33.8966C9.58808 33.9411 9.58403 33.9864 9.58161 34.0317C9.57918 34.0794 9.57837 34.1271 9.57837 34.1757C9.57837 35.7509 10.8105 36.983 12.3857 36.983C13.9609 36.983 15.1931 35.7509 15.1931 34.1757C15.1955 34.1288 15.1947 34.0818 15.1923 34.0357Z" fill="#0078D4"/>
</svg>
