<svg data-slug-id="vehicle06" viewBox="0 0 49 49" xmlns="http://www.w3.org/2000/svg">
<path d="M24.0254 5.87801C26.0377 5.87801 27.9321 6.66116 29.355 8.08432L31.1231 6.3159C29.1614 4.3538 26.5934 3.37695 24.0254 3.37695C21.4575 3.37695 18.8895 4.3538 16.9277 6.3159L18.6958 8.08432C20.1188 6.66116 22.0132 5.87801 24.0254 5.87801Z" fill="#0078D4"/>
<path d="M24.405 10.9991C25.0533 10.9991 25.6595 11.2517 26.1142 11.7065L27.8823 9.93805C26.9225 8.97805 25.668 8.49805 24.405 8.49805C23.1505 8.49805 21.8876 8.97805 20.9277 9.93805L22.6958 11.7065C23.1505 11.2517 23.7567 10.9991 24.405 10.9991Z" fill="#0078D4"/>
<path d="M38.7513 21.2285H35.9277V40.2285H37.6409C37.7123 38.1083 39.362 36.4448 41.4558 36.4448C43.5417 36.4448 45.1994 38.1002 45.2708 40.2285H47.8801V30.6633H47.9277C47.9277 25.4689 43.8035 21.2285 38.7513 21.2285ZM39.6872 29.065V24.368C42.5662 24.368 44.8742 26.4637 44.8742 29.065H39.6872Z" fill="#50E6FF"/>
<path d="M34.9277 16.2285H0.927734V40.1873H3.63929C3.76919 38.1014 5.44158 36.4855 7.53614 36.4855C9.6307 36.4855 11.3112 38.1014 11.433 40.2038L34.9277 40.2285V16.2285Z" fill="#0078D4"/>
<path d="M41.5054 37.2285C39.8712 37.2285 38.5054 38.5456 38.5054 40.2285C38.5054 41.9114 39.8224 43.2285 41.5054 43.2285C43.1883 43.2285 44.5054 41.9114 44.5054 40.2285C44.5054 38.5456 43.1395 37.2285 41.5054 37.2285Z" fill="#0078D4"/>
<path d="M7.47168 37.2285C5.83753 37.2285 4.47168 38.5456 4.47168 40.2285C4.47168 41.9114 5.78875 43.2285 7.47168 43.2285C9.15461 43.2285 10.4717 41.9114 10.4717 40.2285C10.4717 38.5537 9.10583 37.2285 7.47168 37.2285Z" fill="#0078D4"/>
</svg>
