<svg data-slug-id="vehicle05" viewBox="0 0 49 49" xmlns="http://www.w3.org/2000/svg">
<path d="M5.52808 29.8709L19.0538 25.5695L12.3961 18.2526L14.0707 16.6858L29.7078 22.3693C29.7078 22.3693 42.2871 18.6517 42.8291 18.3709C43.3711 18.0974 45.4501 18.0974 45.9598 18.127C46.4694 18.1565 47.61 18.7995 47.7071 18.9548C47.8042 19.11 47.7718 19.753 47.1004 20.492C46.429 21.2311 45.5877 21.8741 44.8111 22.2141C44.0345 22.554 17.7352 30.4474 17.0234 30.6986C16.3196 30.9425 15.543 31.1273 14.9039 31.1273C14.2648 31.1273 6.07008 30.8243 5.52808 29.8709Z" fill="#0078D7"/>
<path d="M4.92172 29.1892L9.50042 27.6519L2.90742 24.6144L1.66162 25.7525L4.92172 29.1892Z" fill="#50E6FF"/>
</svg>
