<svg data-slug-id="vehicle09" viewBox="0 0 49 49" xmlns="http://www.w3.org/2000/svg">
<path d="M25.9476 0.440131C16.7771 -0.124079 8.87816 6.85697 8.31395 16.0275C7.74974 25.198 24.8529 47.8843 24.8529 47.8843C24.8529 47.8843 40.9624 27.2443 41.5266 18.0654C42.0992 8.90329 35.1182 1.00434 25.9476 0.440131Z" fill="#50E6FF"/>
<path d="M24.9282 30.2832C32.4812 30.2832 38.604 24.1604 38.604 16.6074C38.604 9.0545 32.4812 2.93164 24.9282 2.93164C17.3753 2.93164 11.2524 9.0545 11.2524 16.6074C11.2524 24.1604 17.3753 30.2832 24.9282 30.2832Z" fill="#0078D4"/>
<path d="M25.0297 6.50208C25.9476 6.50208 26.815 6.86418 27.4634 7.5126L28.2718 6.70418C27.3792 5.81155 26.2002 5.36523 25.0297 5.36523C23.8592 5.36523 22.6802 5.81155 21.7876 6.70418L22.596 7.5126C23.2444 6.86418 24.1118 6.50208 25.0297 6.50208Z" fill="#50E6FF"/>
<path d="M25.0293 8.84253C25.3241 8.84253 25.602 8.96042 25.8125 9.16253L26.6209 8.35411C26.183 7.91621 25.6104 7.69727 25.0377 7.69727C24.4651 7.69727 23.8925 7.91621 23.4546 8.35411L24.263 9.16253C24.4567 8.96042 24.7346 8.84253 25.0293 8.84253Z" fill="#50E6FF"/>
<path d="M32.9116 21.0215C32.28 21.0215 31.7495 21.5352 31.7495 22.1836C31.7495 22.8404 32.2632 23.3457 32.9116 23.3457C33.5685 23.3457 34.0737 22.832 34.0737 22.1836C34.0821 21.5352 33.5516 21.0215 32.9116 21.0215Z" fill="#50E6FF"/>
<path d="M17.2573 21.0215C16.6257 21.0215 16.0952 21.5352 16.0952 22.1836C16.0952 22.8404 16.6089 23.3457 17.2573 23.3457C17.9142 23.3457 18.4194 22.832 18.4194 22.1836C18.4278 21.5352 17.8973 21.0215 17.2573 21.0215Z" fill="#50E6FF"/>
<path d="M31.6826 12.709H30.3605V19.6816H13.9731V22.0732H15.43C15.4889 21.1132 16.2805 20.3637 17.2742 20.3637C18.2679 20.3637 19.0595 21.1132 19.1184 22.0816L31.0763 22.0985C31.11 21.0964 31.91 20.3132 32.9205 20.3132C33.931 20.3132 34.731 21.0964 34.7647 22.0985H36.1121V17.9132L36.1374 16.8269C36.1374 14.629 33.7458 12.709 31.6826 12.709ZM31.3037 17.1553V13.7532C33.451 13.7532 35.1689 15.269 35.1689 17.1553H31.3037Z" fill="#50E6FF"/>
<path d="M29.6616 11.0059H13.9731V18.9301H29.6616V11.0059Z" fill="#50E6FF"/>
</svg>
