<svg data-slug-id="vehicle08" viewBox="0 0 49 49" xmlns="http://www.w3.org/2000/svg">
<path d="M26.0819 0.438178C16.9114 -0.126033 9.01244 6.85502 8.44823 16.0255C7.88402 25.1961 24.9872 47.8824 24.9872 47.8824C24.9872 47.8824 41.0967 27.2424 41.6609 18.0634C42.2335 8.90134 35.2524 1.00239 26.0819 0.438178Z" fill="#50E6FF"/>
<path d="M25.5764 7.71545C26.5196 7.71545 27.4122 8.08597 28.0775 8.75124L28.9028 7.92597C27.9849 6.99966 26.7806 6.54492 25.5764 6.54492C24.3722 6.54492 23.168 7.00808 22.2417 7.92597L23.067 8.75124C23.7406 8.08597 24.6249 7.71545 25.5764 7.71545Z" fill="#0078D4"/>
<path d="M25.5767 10.1139C25.8798 10.1139 26.1661 10.2318 26.3767 10.4423L27.2019 9.61704C26.7556 9.17073 26.1577 8.94336 25.5683 8.94336C24.9788 8.94336 24.3893 9.17073 23.9346 9.61704L24.7598 10.4423C24.9872 10.2318 25.2735 10.1139 25.5767 10.1139Z" fill="#0078D4"/>
<path d="M32.4144 14.8642H30.9239V12.3379H14.1997V23.7147H15.6902C15.7492 22.721 16.566 21.9547 17.585 21.9547C18.6039 21.9547 19.4208 22.721 19.4797 23.7147L31.766 23.7316C31.7997 22.7042 32.625 21.8958 33.6692 21.8958C34.7134 21.8958 35.5302 22.6958 35.5723 23.7316H36.9618V19.4368L36.9871 19.1C36.9871 16.5821 34.9323 14.8642 32.4144 14.8642ZM32.7934 18.6621V16.3884C34.225 16.3884 35.3787 17.4074 35.3787 18.6621H32.7934Z" fill="#0078D4"/>
<path d="M33.6775 22.375C32.886 22.375 32.2207 23.015 32.2207 23.8318C32.2207 24.6487 32.8607 25.2887 33.6775 25.2887C34.4944 25.2887 35.1344 24.6487 35.1344 23.8318C35.1344 23.015 34.4691 22.375 33.6775 22.375Z" fill="#0078D4"/>
<path d="M17.5931 22.4102C16.8015 22.4102 16.1362 23.0502 16.1362 23.867C16.1362 24.6838 16.7762 25.3238 17.5931 25.3238C18.4099 25.3238 19.0499 24.6838 19.0499 23.867C19.0499 23.0502 18.3847 22.4102 17.5931 22.4102Z" fill="#0078D4"/>
</svg>
