<svg data-slug-id="vehicle01" viewBox="0 0 48 49" xmlns="http://www.w3.org/2000/svg">
<path d="M47.9579 24.9241C47.9579 19.5646 43.5828 15.1895 38.2233 15.1895H35.228V34.7933H47.9074V24.9241H47.9579Z" fill="#50E6FF"/>
<path d="M39.2161 23.274H44.7186C44.7186 20.59 42.2702 18.4277 39.2161 18.4277V23.274Z" fill="white"/>
<path d="M0 10.2988V34.749L35.2365 34.791V10.2988H0Z" fill="#0078D4"/>
<path d="M41.0924 38.5089C43.0696 38.5089 44.6682 36.9103 44.6682 34.9331C44.6682 32.9559 43.0696 31.3573 41.0924 31.3573C39.1152 31.3573 37.5166 32.9559 37.5166 34.9331C37.5166 36.9187 39.1152 38.5089 41.0924 38.5089Z" fill="#0078D4"/>
<path d="M41.0924 38.9826C38.8796 38.9826 37.0454 37.1989 37.0454 34.9356C37.0454 32.6808 38.8291 30.8887 41.0924 30.8887C43.3557 30.8887 45.1394 32.6724 45.1394 34.9356C45.1394 37.1989 43.3052 38.9826 41.0924 38.9826ZM41.0924 31.8899C39.4012 31.8899 37.9877 33.2529 37.9877 34.9945C37.9877 36.7362 39.3508 38.0992 41.0924 38.0992C42.834 38.0992 44.197 36.7362 44.197 34.9945C44.197 33.2529 42.7835 31.8899 41.0924 31.8899Z" fill="white"/>
<path d="M6.84876 38.5952C8.82597 38.5952 10.4246 36.9966 10.4246 35.0194C10.4246 33.0422 8.82597 31.4436 6.84876 31.4436C4.87155 31.4436 3.27295 33.0422 3.27295 35.0194C3.28136 36.9966 4.87155 38.5952 6.84876 38.5952Z" fill="#0078D4"/>
<path d="M6.84873 39.0645C4.63594 39.0645 2.80176 37.2808 2.80176 35.0176C2.80176 32.7627 4.58546 30.9706 6.84873 30.9706C9.1036 30.9706 10.8957 32.7543 10.8957 35.0176C10.8957 37.2808 9.06153 39.0645 6.84873 39.0645ZM6.84873 31.9634C5.15759 31.9634 3.74409 33.3264 3.74409 35.068C3.74409 36.8097 5.1071 38.1727 6.84873 38.1727C8.59036 38.1727 9.95338 36.8097 9.95338 35.068C9.95338 33.3348 8.53988 31.9634 6.84873 31.9634Z" fill="white"/>
</svg>
