<svg data-slug-id="video09" viewBox="0 0 48 49" xmlns="http://www.w3.org/2000/svg">
<path d="M43.9611 3.38574H16.3223C14.6495 3.38574 13.2837 4.75152 13.2837 6.42439V29.4729C13.2837 31.1538 14.6495 32.5115 16.3223 32.5115H43.9611C45.6421 32.5115 46.9998 31.1458 46.9998 29.4729V6.42439C46.9998 4.75152 45.6421 3.38574 43.9611 3.38574Z" fill="#0078D4"/>
<path d="M37.9812 9.28528H10.3424C8.66949 9.28528 7.30371 10.6511 7.30371 12.3239V35.3724C7.30371 37.0534 8.66949 38.4111 10.3424 38.4111H37.9812C39.6621 38.4111 41.0198 37.0453 41.0198 35.3724V12.3239C41.0198 10.6511 39.6621 9.28528 37.9812 9.28528Z" fill="#50E6FF"/>
<path d="M31.6774 15.4272H4.03865C2.36578 15.4272 1 16.793 1 18.4659V41.5144C1 43.1953 2.36578 44.553 4.03865 44.553H31.6774C33.3584 44.553 34.7161 43.1873 34.7161 41.5144V18.4659C34.7161 16.793 33.3584 15.4272 31.6774 15.4272Z" fill="#0078D4"/>
<path d="M17.8824 31.4206C18.6824 31.4206 19.3209 30.7741 19.3209 29.9821C19.3209 29.182 18.6743 28.5436 17.8824 28.5436C17.0823 28.5436 16.4438 29.1901 16.4438 29.9821C16.4438 30.7741 17.0904 31.4206 17.8824 31.4206Z" fill="#50E6FF"/>
<path d="M17.8821 23.2419C14.1565 23.2419 11.1421 26.2564 11.1421 29.9819C11.1421 33.7075 14.1565 36.7219 17.8821 36.7219C21.6077 36.7219 24.6221 33.7075 24.6221 29.9819C24.6221 26.2564 21.6077 23.2419 17.8821 23.2419ZM17.8821 35.4046C14.8919 35.4046 12.4513 32.9963 12.4513 29.9738C12.4513 26.9514 14.8919 24.5431 17.8821 24.5431C20.8722 24.5431 23.3371 26.9514 23.3371 29.9738C23.3371 32.9963 20.9046 35.4046 17.8821 35.4046Z" fill="#50E6FF"/>
</svg>
