<svg data-slug-id="video-serverless" viewBox="0 0 48 48" xmlns="http://www.w3.org/2000/svg">
<path d="M0 42.9717H48V6.01172H0V42.9717Z" fill="#50E6FF"/>
<path d="M0 10.0021H47.9832V5H0V10.0021Z" fill="#0078D4"/>
<path d="M7.47813 8.82467C8.1525 8.82467 8.69919 8.27799 8.69919 7.60362C8.69919 6.92925 8.1525 6.38257 7.47813 6.38257C6.80376 6.38257 6.25708 6.92925 6.25708 7.60362C6.25708 8.27799 6.80376 8.82467 7.47813 8.82467Z" fill="#50E6FF"/>
<path d="M3.68834 8.82467C4.36271 8.82467 4.90939 8.27799 4.90939 7.60362C4.90939 6.92925 4.36271 6.38257 3.68834 6.38257C3.01397 6.38257 2.46729 6.92925 2.46729 7.60362C2.46729 8.27799 3.01397 8.82467 3.68834 8.82467Z" fill="#50E6FF"/>
<path d="M11.3517 8.82467C12.026 8.82467 12.5727 8.27799 12.5727 7.60362C12.5727 6.92925 12.026 6.38257 11.3517 6.38257C10.6773 6.38257 10.1306 6.92925 10.1306 7.60362C10.1306 8.27799 10.6773 8.82467 11.3517 8.82467Z" fill="#50E6FF"/>
<path d="M17.6506 20.1875L23.9159 24.7433L30.1643 29.2822L24.4969 30.9496L20.5727 35.3707L19.1159 27.7749L17.6506 20.1875Z" fill="#0078D4"/>
</svg>
