<svg data-slug-id="video07" viewBox="0 0 48 49" xmlns="http://www.w3.org/2000/svg">
<path d="M8.32843 21.2643C12.9095 21.2643 16.6232 17.5506 16.6232 12.9695C16.6232 8.38848 12.9095 4.6748 8.32843 4.6748C3.74737 4.6748 0.0336914 8.38848 0.0336914 12.9695C0.0336914 17.5506 3.74737 21.2643 8.32843 21.2643Z" fill="#0078D4"/>
<path d="M27.1829 21.2643C31.764 21.2643 35.4777 17.5506 35.4777 12.9695C35.4777 8.38848 31.764 4.6748 27.1829 4.6748C22.6019 4.6748 18.8882 8.38848 18.8882 12.9695C18.8882 17.5506 22.6019 21.2643 27.1829 21.2643Z" fill="#0078D4"/>
<path d="M35.436 23.7686H0.193848V44.097H35.436V23.7686Z" fill="#0078D4"/>
<path d="M47.9661 44.0567L37.9282 39.0041V28.7725L47.9661 24.3936V44.0567Z" fill="#0078D4"/>
</svg>
