<svg data-slug-id="video02" viewBox="0 0 48 49" xmlns="http://www.w3.org/2000/svg">
<path d="M43.6704 3.91541H4.32993C1.94114 3.91541 0.000244141 5.85631 0.000244141 8.24511V41.0538C0.000244141 43.4426 1.94114 45.3835 4.32993 45.3835H43.6704C46.0592 45.3835 48.0001 43.4426 48.0001 41.0538V8.24511C48.0001 5.85631 46.0592 3.91541 43.6704 3.91541Z" fill="#0078D4"/>
<path d="M24.0375 26.6852C25.1713 26.6852 26.0904 25.7661 26.0904 24.6323C26.0904 23.4986 25.1713 22.5795 24.0375 22.5795C22.9037 22.5795 21.9846 23.4986 21.9846 24.6323C21.9846 25.7661 22.9037 26.6852 24.0375 26.6852Z" fill="#50E6FF"/>
<path d="M24.0371 15.0366C18.7369 15.0366 14.4446 19.329 14.4446 24.6292C14.4446 29.9293 18.7369 34.2217 24.0371 34.2217C29.3372 34.2217 33.6296 29.9293 33.6296 24.6292C33.6296 19.329 29.3372 15.0366 24.0371 15.0366ZM24.0371 32.3554C19.782 32.3554 16.3108 28.9215 16.3108 24.6292C16.3108 20.3368 19.782 16.9029 24.0371 16.9029C28.2921 16.9029 31.8007 20.3368 31.8007 24.6292C31.8007 28.9215 28.3294 32.3554 24.0371 32.3554Z" fill="#50E6FF"/>
</svg>
