<svg data-slug-id="video-analyzer" viewBox="0 0 49 48" xmlns="http://www.w3.org/2000/svg">
<g clip-path="url(#video-analyzer_clip0)">
<path d="M39.3493 19.9044C39.1513 16.3271 37.5654 12.9682 34.9289 10.5424C32.2923 8.11648 28.8133 6.81509 25.232 6.91503C22.365 6.89969 19.5611 7.7553 17.1911 9.3686C14.8211 10.9819 12.997 13.2768 11.96 15.9497C8.93253 16.3982 6.15361 17.8806 4.09503 20.1453C2.03645 22.41 0.825095 25.3173 0.666626 28.3737C0.706769 30.0842 1.08355 31.77 1.77543 33.3348C2.46731 34.8996 3.46074 36.3128 4.69895 37.4936C5.93716 38.6743 7.39589 39.5995 8.9918 40.2163C10.5877 40.8332 12.2895 41.1295 14 41.0884H14.2293H37.9466C40.7921 41.0855 43.52 39.9526 45.5303 37.9388C47.5406 35.925 48.6688 33.1952 48.6666 30.3497C48.5902 27.7908 47.6141 25.3408 45.91 23.4304C44.2059 21.52 41.8829 20.2714 39.3493 19.9044Z" fill="url(#video-analyzer_paint0_linear)"/>
<path d="M37.4292 27.1953L25.4639 22.75L25.1546 23.518L25.3492 22.814L14.7252 20.4753L14.2159 22.2567L23.1812 24.2007L11.6772 28.9553L12.5626 30.534L24.4399 25.6007L26.5652 34.9607L28.4026 34.734L26.2372 25.0727L36.7252 28.9073L37.4292 27.1953Z" fill="#83B9F9"/>
<path d="M12.8826 22.9338C13.1674 23.301 13.5547 23.5754 13.9955 23.7225C14.4363 23.8695 14.9108 23.8825 15.359 23.7599C15.8072 23.6372 16.2089 23.3844 16.5134 23.0335C16.818 22.6825 17.0115 22.2491 17.0697 21.7881C17.1279 21.327 17.0481 20.8591 16.8403 20.4435C16.6326 20.0278 16.3062 19.6831 15.9026 19.453C15.4989 19.2228 15.036 19.1175 14.5725 19.1504C14.109 19.1833 13.6657 19.3529 13.2986 19.6378L13.2452 19.6805C12.77 20.0667 12.4655 20.6243 12.3977 21.2329C12.3298 21.8415 12.504 22.4525 12.8826 22.9338ZM10.2159 31.2458C10.5046 31.613 10.8957 31.8864 11.3398 32.0314C11.7838 32.1765 12.2609 32.1866 12.7107 32.0605C13.1605 31.9345 13.5629 31.678 13.8669 31.3233C14.171 30.9687 14.3631 30.5319 14.4189 30.0681C14.4748 29.6043 14.392 29.1344 14.1808 28.7177C13.9697 28.301 13.6398 27.9562 13.2328 27.727C12.8258 27.4977 12.36 27.3942 11.8942 27.4296C11.4284 27.465 10.9836 27.6377 10.6159 27.9258C10.3714 28.1174 10.1671 28.3553 10.0147 28.6259C9.86227 28.8965 9.76469 29.1945 9.72754 29.5029C9.69038 29.8113 9.71439 30.1239 9.7982 30.423C9.882 30.7221 10.0239 31.0017 10.2159 31.2458ZM34.9146 29.1925C35.1969 29.5596 35.5817 29.8346 36.0205 29.9827C36.4592 30.1309 36.9321 30.1454 37.3791 30.0245C37.8261 29.9036 38.2271 29.6527 38.5314 29.3037C38.8357 28.9546 39.0295 28.5231 39.0883 28.0638C39.1471 27.6044 39.0681 27.138 38.8616 26.7236C38.655 26.3091 38.33 25.9654 37.9278 25.7358C37.5257 25.5063 37.0644 25.4013 36.6025 25.4342C36.1406 25.467 35.6989 25.6363 35.3332 25.9205C34.8472 26.2929 34.5288 26.8429 34.4478 27.4498C34.3668 28.0567 34.5299 28.671 34.9012 29.1578L34.9146 29.1925Z" fill="#9CEBFF"/>
<path d="M25.6293 36.4085C25.9125 36.7742 26.2979 37.0478 26.7366 37.1945C27.1753 37.3412 27.6477 37.3546 28.094 37.2328C28.5403 37.111 28.9405 36.8596 29.2439 36.5104C29.5472 36.1612 29.7403 35.7298 29.7985 35.2709C29.8567 34.8119 29.7775 34.346 29.5709 33.9321C29.3642 33.5182 29.0395 33.1749 28.6378 32.9455C28.236 32.7162 27.7752 32.6112 27.3138 32.6437C26.8523 32.6763 26.4109 32.845 26.0453 33.1285C25.8025 33.312 25.5983 33.5416 25.4444 33.8042C25.2906 34.0668 25.1901 34.3571 25.1487 34.6587C25.1073 34.9602 25.1259 35.2669 25.2033 35.5612C25.2808 35.8555 25.4156 36.1317 25.6 36.3738L25.6293 36.4085Z" fill="#9CEBFF"/>
<path d="M31.9627 24.1015C32.0701 24.0398 32.1595 23.9509 32.2216 23.8436C32.2837 23.7364 32.3164 23.6147 32.3164 23.4908C32.3164 23.3669 32.2837 23.2452 32.2216 23.1379C32.1595 23.0307 32.0701 22.9418 31.9627 22.8801L26.8 19.8935L21.6213 16.9095C21.514 16.8449 21.3914 16.8102 21.2661 16.8089C21.1409 16.8075 21.0175 16.8396 20.9089 16.9019C20.8002 16.9641 20.71 17.0542 20.6478 17.1629C20.5855 17.2716 20.5534 17.3949 20.5547 17.5201V29.4615C20.5534 29.5867 20.5855 29.71 20.6478 29.8187C20.71 29.9274 20.8002 30.0175 20.9089 30.0797C21.0175 30.1419 21.1409 30.174 21.2661 30.1727C21.3914 30.1714 21.514 30.1367 21.6213 30.0721L26.8 27.0881L31.9627 24.1015Z" fill="#C3F1FF"/>
</g>
<defs>
<linearGradient id="video-analyzer_paint0_linear" x1="24.6666" y1="0.531026" x2="24.6666" y2="41.8857" gradientUnits="userSpaceOnUse">
<stop offset="0.117" stop-color="#5EA0EF"/>
<stop offset="0.271" stop-color="#4595E8"/>
<stop offset="0.531" stop-color="#1F85DD"/>
<stop offset="0.741" stop-color="#087CD6"/>
<stop offset="0.873" stop-color="#0078D4"/>
</linearGradient>
<clipPath id="video-analyzer_clip0">
<rect width="48" height="48" fill="white" transform="translate(0.666626 0.000244141)"/>
</clipPath>
</defs>
</svg>
