<svg data-slug-id="video05" viewBox="0 0 48 49" xmlns="http://www.w3.org/2000/svg">
<path d="M0 43.641H48V6.68103H0V43.641Z" fill="#0078D4"/>
<path d="M0 10.6714H47.9832V5.66931H0V10.6714Z" fill="#50E6FF"/>
<path d="M7.47813 9.49423C8.1525 9.49423 8.69919 8.94755 8.69919 8.27318C8.69919 7.59881 8.1525 7.05212 7.47813 7.05212C6.80376 7.05212 6.25708 7.59881 6.25708 8.27318C6.25708 8.94755 6.80376 9.49423 7.47813 9.49423Z" fill="#0078D4"/>
<path d="M3.68834 9.49423C4.36271 9.49423 4.90939 8.94755 4.90939 8.27318C4.90939 7.59881 4.36271 7.05212 3.68834 7.05212C3.01397 7.05212 2.46729 7.59881 2.46729 8.27318C2.46729 8.94755 3.01397 9.49423 3.68834 9.49423Z" fill="#0078D4"/>
<path d="M11.3517 9.49423C12.026 9.49423 12.5727 8.94755 12.5727 8.27318C12.5727 7.59881 12.026 7.05212 11.3517 7.05212C10.6773 7.05212 10.1306 7.59881 10.1306 8.27318C10.1306 8.94755 10.6773 9.49423 11.3517 9.49423Z" fill="#0078D4"/>
<path d="M17.6506 20.8568L23.9159 25.4126L30.1643 29.9515L24.4969 31.6189L20.5727 36.04L19.1159 28.4442L17.6506 20.8568Z" fill="#50E6FF"/>
</svg>
