<svg data-slug-id="video04" viewBox="0 0 48 49" xmlns="http://www.w3.org/2000/svg">
<path d="M46.9934 30.9758L46.9934 3.05652L14.0308 3.05652L14.0308 30.9758L46.9934 30.9758Z" fill="#0078D4"/>
<path d="M41.6331 38.6399L41.6331 10.7206L6.27925 10.7206L6.27925 38.6399L41.6331 38.6399Z" fill="#50E6FF"/>
<path d="M36.6155 45.9329L36.6155 18.0135L1.26168 18.0135L1.26168 45.9329L36.6155 45.9329Z" fill="#0078D4"/>
<path d="M18.8516 40.7294C23.6844 40.7294 27.6079 36.8059 27.6079 31.973C27.6079 27.1402 23.6844 23.2167 18.8516 23.2167C14.0187 23.2167 10.0952 27.1402 10.0952 31.973C10.0952 36.8059 14.0187 40.7294 18.8516 40.7294Z" fill="#50E6FF"/>
<path d="M24.3831 32.1527L16.4182 36.7077V27.5135L24.3831 32.1527Z" fill="#0078D4"/>
</svg>
