<svg data-slug-id="video08" viewBox="0 0 48 49" xmlns="http://www.w3.org/2000/svg">
<path d="M24.2275 24.1921C27.2923 24.1921 29.7769 21.7075 29.7769 18.6426C29.7769 15.5777 27.2923 13.0931 24.2275 13.0931C21.1626 13.0931 18.678 15.5777 18.678 18.6426C18.678 21.7075 21.1626 24.1921 24.2275 24.1921Z" fill="#50E6FF"/>
<path d="M24.2275 0.697388C14.3159 0.697388 6.28223 8.73107 6.28223 18.6427C6.28223 28.5542 14.3159 36.5879 24.2275 36.5879C34.1391 36.5879 42.1728 28.5542 42.1728 18.6427C42.1643 8.73107 34.1306 0.697388 24.2275 0.697388ZM24.2275 26.7605C19.7391 26.7605 16.1096 23.1227 16.1096 18.6427C16.1096 14.1542 19.7475 10.5248 24.2275 10.5248C28.7075 10.5248 32.3454 14.1627 32.3454 18.6427C32.3454 23.1311 28.7075 26.7605 24.2275 26.7605Z" fill="#0078D4"/>
<path d="M24.2275 7.72893C25.2739 7.72893 26.1222 6.88062 26.1222 5.83419C26.1222 4.78776 25.2739 3.93945 24.2275 3.93945C23.1811 3.93945 22.3328 4.78776 22.3328 5.83419C22.3328 6.88062 23.1811 7.72893 24.2275 7.72893Z" fill="#50E6FF"/>
<path d="M24.2275 40.4446C18.7201 40.4446 13.7011 38.3899 9.86956 35.0215L6.69482 48.1583H41.7685L38.5938 35.0215C34.7453 38.3899 29.7348 40.4446 24.2275 40.4446Z" fill="#0078D4"/>
</svg>
