<svg data-slug-id="virtual-desktop02" xmlns="http://www.w3.org/2000/svg" viewBox="0 0 16 16">
    <path d="M7,12a5,5,0,0,0,.1,1H4V12H6V11H.5L0,10.5v-7L.5,3h12l.5.5V7.1A5,5,0,0,0,12,7V4H1v6H7.323A4.91,4.91,0,0,0,7,11Z" fill="#212121" />
    <path d="M6.5,11v-.5H.5v-7h12V6H13V7.1A5,5,0,0,0,7.1,11Z" fill="#212121" opacity="0.1" />
    <path d="M12,8a4,4,0,1,0,4,4A4,4,0,0,0,12,8Z" fill="#0077a0" />
    <path d="M11.854,13.354l-1.5,1.5-.708-.708L10.793,13,9.646,11.854l.708-.708,1.5,1.5Zm2.5-1.208-.708.708-1.5-1.5v-.708l1.5-1.5.708.708L13.207,11Z" fill="#fff" />
</svg>