<svg data-slug-id="virtualized-server" viewBox="0 0 60 60" xmlns="http://www.w3.org/2000/svg">
    <path d="M26.706 10.364l-.08 27.826-8.444-4.877.077-27.826 8.447 4.877z" fill="#156AB3"/>
    <path d="M26.706 10.364l5.087-2.957-.08 27.826-5.086 2.957.08-27.826z" fill="#1D4A79"/>
    <path d="M18.258 5.487l5.09-2.957 8.445 4.877-5.087 2.957-8.448-4.877z" fill="#185A97"/>
    <path d="M38.14 8.424l-.104 36.354L29.59 39.9l.103-36.354 8.448 4.877z" fill="#32B0E7"/>
    <path d="M38.14 8.424l5.087-2.957-.104 36.354-5.086 2.957.103-36.354z" fill="#0078D4"/>
    <path d="M29.692 3.547L34.78.59l8.447 4.877-5.086 2.957-8.448-4.877z" fill="#2195DC"/>
    <path d="M50.324 7.832L50.2 52l-8.447-4.877.125-44.166 8.447 4.875z" fill="#50E6FF"/>
    <path d="M50.325 7.832l5.086-2.955-.125 44.166L50.199 52l.126-44.168z" fill="#32B0E7"/>
    <path d="M41.878 2.957L46.966 0l8.446 4.877-5.087 2.955-8.447-4.875z" fill="#45CAF2"/>
    <path d="M32.285 49.435l-.067 2.553c0 2.016-1.344 4.098-4.031 5.644-5.375 3.157-14.11 3.157-19.551 0-2.755-1.546-4.099-3.628-4.099-5.711l.068-2.553c0 2.083 1.343 4.098 4.098 5.71 5.442 3.158 14.176 3.158 19.55 0 2.688-1.545 4.032-3.627 4.032-5.643z" fill="#E6E6E6"/>
    <path d="M32.823 27.398l-.068 23.515c0 2.15-1.41 4.233-4.165 5.845-5.576 3.225-14.714 3.225-20.357 0C5.41 55.078 4 52.928 4 50.778l.067-23.514c0 2.15 1.411 4.3 4.233 5.912 5.643 3.225 14.78 3.225 20.357 0 2.822-1.545 4.166-3.695 4.166-5.778z" fill="url(#virtualized-server_51b1509a-4326-4303-bf97-94eaa59c8415)"/>
    <path d="M32.823 26.794l-.068 2.687c0 2.15-1.41 4.233-4.165 5.845-5.576 3.225-14.714 3.225-20.357 0C5.41 33.714 4 31.564 4 29.414l.067-2.688c0 2.15 1.411 4.3 4.233 5.913 5.643 3.225 14.78 3.225 20.357 0 2.822-1.613 4.166-3.696 4.166-5.846z" fill="#DCDCDC"/>
    <path d="M28.588 21.419c5.644 3.225 5.644 8.532.067 11.824-5.576 3.225-14.713 3.225-20.357 0-5.643-3.292-5.643-8.532-.067-11.824 5.644-3.225 14.714-3.225 20.357 0z" fill="#F4F4F4"/>
    <path d="M26.238 22.83c4.3 2.485 4.3 6.517.067 9.002-4.3 2.486-11.22 2.486-15.52 0-4.366-2.485-4.434-6.517-.134-9.002 4.3-2.486 11.22-2.486 15.587 0z" fill="#D2D2D2"/>
    <path d="M26.028 40.252l.194 7.955s.984-.194 1.974-.603c.984-.38 1.293-.64 1.293-.64v1.918s-.89.495-2.377.99a18.348 18.348 0 01-2.972.697v-9.714c-.086-.108.976-.301 1.888-.603zM12.753 40.89v2.083s-1.673-1.479-2.47-1.4c-.797.108-.904.797-.603 1.4.302.603 1.896 1.78 2.47 2.384.682.682.984 1.974.797 2.77-.194.798-.905 1.896-2.082 1.781-1.178-.194-1.673-.495-2.685-1.098-.984-.603-1.099-.797-1.099-.797v-1.895s.682.682 1.594 1.292c.797.495 1.673.797 1.974 0 .302-.603-.495-1.48-1.292-1.974-.603-.381-1.4-1.099-1.895-1.975-.496-.904-.682-1.974-.194-2.958.495-.983 1.594-1.177 2.958-.797 1.429.388 2.527 1.185 2.527 1.185zM21.555 49.42c.797-1.292 1.4-2.685.984-4.853-.38-2.197-1.896-3.374-4.552-3.374-.797 0-3.073.602-3.561 2.47-.495 1.974-.495 4.17.38 5.535.984 1.593 2.197 1.672 2.958 1.78h.194l1.673 2.082h1.099c.682 0 1.479-.194 1.479-.194l-2.276-2.197c.639-.265 1.35-.674 1.622-1.249zm-5.427-2.994c-.108-2.383.796-3.18 2.081-3.26.683 0 1.975.109 2.197 2.384.194 2.276-.682 3.18-.983 3.375-.302.194-.905.301-1.292.301-.446-.028-1.925-.409-2.003-2.8z" fill="#fff"/>
    <defs>
        <linearGradient id="virtualized-server_51b1509a-4326-4303-bf97-94eaa59c8415" x1="-.375" y1="43.676" x2="37.308" y2="43.329" gradientUnits="userSpaceOnUse">
            <stop stop-color="#4DC2EB"/>
            <stop offset="1" stop-color="#0078D4"/>
        </linearGradient>
    </defs>
</svg>
