<svg data-slug-id="virtual-network01" viewBox="0 0 37 37" xmlns="http://www.w3.org/2000/svg">
<path d="M25.2263 20.4263C26.4208 20.4263 27.3892 19.458 27.3892 18.2634C27.3892 17.0689 26.4208 16.1006 25.2263 16.1006C24.0318 16.1006 23.0635 17.0689 23.0635 18.2634C23.0635 19.458 24.0318 20.4263 25.2263 20.4263Z" fill="url(#virtual-network01_paint0_linear)"/>
<path d="M18.3269 20.4483C19.5214 20.4483 20.4898 19.4799 20.4898 18.2854C20.4898 17.0909 19.5214 16.1226 18.3269 16.1226C17.1324 16.1226 16.1641 17.0909 16.1641 18.2854C16.1641 19.4799 17.1324 20.4483 18.3269 20.4483Z" fill="url(#virtual-network01_paint1_linear)"/>
<path d="M11.4275 20.4483C12.622 20.4483 13.5904 19.4799 13.5904 18.2854C13.5904 17.0909 12.622 16.1226 11.4275 16.1226C10.233 16.1226 9.26465 17.0909 9.26465 18.2854C9.26465 19.4799 10.233 20.4483 11.4275 20.4483Z" fill="url(#virtual-network01_paint2_linear)"/>
<path d="M12.9976 26.9337L11.76 28.1747C11.6553 28.2798 11.5131 28.3389 11.3647 28.3391C11.2164 28.3393 11.074 28.2806 10.969 28.1758L1.80635 19.0388C1.59626 18.8293 1.47799 18.5449 1.47758 18.2482C1.47717 17.9515 1.59463 17.6668 1.80414 17.4567L3.04173 16.2156L12.9965 26.1426C13.1015 26.2474 13.1607 26.3896 13.1609 26.5379C13.1611 26.6863 13.1024 26.8286 12.9976 26.9337V26.9337Z" fill="#50E6FF"/>
<path d="M11.5738 8.41841L12.8149 9.656C12.9199 9.76075 12.979 9.90294 12.9792 10.0513C12.9795 10.1996 12.9207 10.342 12.816 10.447L3.03377 20.2566L1.79273 19.019C1.58263 18.8095 1.46437 18.5251 1.46396 18.2284C1.46354 17.9317 1.58101 17.647 1.79052 17.4369L10.7828 8.41952C10.8875 8.31447 11.0297 8.25534 11.1781 8.25513C11.3264 8.25492 11.4688 8.31366 11.5738 8.41841V8.41841Z" fill="#1490DF"/>
<path d="M33.4609 16.1958L34.6985 17.4368C34.908 17.6469 35.0255 17.9317 35.0251 18.2284C35.0247 18.5251 34.9064 18.8094 34.6963 19.019L25.5337 28.156C25.4286 28.2608 25.2863 28.3195 25.1379 28.3193C24.9896 28.3191 24.8474 28.26 24.7426 28.1549L23.5051 26.9139C23.4003 26.8088 23.3416 26.6665 23.3418 26.5181C23.342 26.3698 23.4011 26.2276 23.5062 26.1228L33.4609 16.1958V16.1958Z" fill="#50E6FF"/>
<path d="M34.6946 19.0087L33.4536 20.2463L23.6714 10.4367C23.5666 10.3317 23.5079 10.1893 23.5081 10.041C23.5083 9.89261 23.5675 9.75042 23.6725 9.64567L24.9268 8.39492C25.0318 8.29016 25.1742 8.23143 25.3225 8.23164C25.4709 8.23184 25.6131 8.29097 25.7178 8.39602L34.7101 17.4134C34.9196 17.6235 35.037 17.9082 35.0366 18.2049C35.0362 18.5016 34.9179 18.786 34.7078 18.9955L34.6946 19.0087Z" fill="#1490DF"/>
<defs>
<linearGradient id="virtual-network01_paint0_linear" x1="25.2371" y1="20.4357" x2="25.2311" y2="16.11" gradientUnits="userSpaceOnUse">
<stop stop-color="#0078D4"/>
<stop offset="0.82" stop-color="#5EA0EF"/>
</linearGradient>
<linearGradient id="virtual-network01_paint1_linear" x1="46.4008" y1="65.0896" x2="46.444" y2="55.054" gradientUnits="userSpaceOnUse">
<stop stop-color="#0078D4"/>
<stop offset="0.82" stop-color="#5EA0EF"/>
</linearGradient>
<linearGradient id="virtual-network01_paint2_linear" x1="23.4962" y1="65.0896" x2="23.5395" y2="55.054" gradientUnits="userSpaceOnUse">
<stop stop-color="#0078D4"/>
<stop offset="0.82" stop-color="#5EA0EF"/>
</linearGradient>
</defs>
</svg>
