<svg data-slug-id="virtual-machines01" viewBox="0 0 46 43" xmlns="http://www.w3.org/2000/svg">
<path d="M44.4667 0.440674H1.53333C0.686497 0.440674 0 1.12387 0 1.96664V29.4339C0 30.2767 0.686497 30.9599 1.53333 30.9599H44.4667C45.3135 30.9599 46 30.2767 46 29.4339V1.96664C46 1.12387 45.3135 0.440674 44.4667 0.440674Z" fill="url(#virtual-machines01_paint0_linear)"/>
<path d="M42.6009 2.9834H3.39869C2.93293 2.9834 2.55536 3.35916 2.55536 3.82268V27.5768C2.55536 28.0403 2.93293 28.4161 3.39869 28.4161H42.6009C43.0667 28.4161 43.4442 28.0403 43.4442 27.5768V3.82268C43.4442 3.35916 43.0667 2.9834 42.6009 2.9834Z" fill="white"/>
<path d="M30.6667 11.2495V20.1255L23 24.6017V15.7002L30.6667 11.2495Z" fill="#0078D4"/>
<path d="M30.6664 11.2495L22.9997 15.7257L15.3331 11.2495L22.9997 6.79883L30.6664 11.2495Z" fill="#83B9F9"/>
<path d="M22.9997 15.7257V24.6017L15.3331 20.1255V11.2495L22.9997 15.7257Z" fill="#5EA0EF"/>
<path opacity="0.2" d="M15.3331 20.1255L22.9997 15.7002V24.6016L15.3331 20.1255Z" fill="#83B9F9"/>
<path opacity="0.2" d="M30.6667 20.1255L23 15.7002V24.6016L30.6667 20.1255Z" fill="#5EA0EF"/>
<path d="M32.2001 40.1915C27.6767 39.4794 27.4978 36.1986 27.4978 30.9595H18.4767C18.4767 36.1986 18.2978 39.4794 13.7745 40.1915C13.1465 40.2607 12.5666 40.5589 12.1466 41.0285C11.7265 41.4982 11.4962 42.1061 11.5 42.7348H34.5001C34.5032 42.1021 34.2694 41.491 33.8441 41.0207C33.4188 40.5504 32.8326 40.2548 32.2001 40.1915Z" fill="url(#virtual-machines01_paint1_linear)"/>
<defs>
<linearGradient id="virtual-machines01_paint0_linear" x1="23" y1="30.9599" x2="23" y2="0.440674" gradientUnits="userSpaceOnUse">
<stop stop-color="#0078D4"/>
<stop offset="0.82" stop-color="#5EA0EF"/>
</linearGradient>
<linearGradient id="virtual-machines01_paint1_linear" x1="23" y1="42.7348" x2="23" y2="30.9595" gradientUnits="userSpaceOnUse">
<stop stop-color="#1490DF"/>
<stop offset="0.98" stop-color="#1F56A3"/>
</linearGradient>
</defs>
</svg>
