<svg data-slug-id="virtual-desktop" viewBox="0 0 36 29" xmlns="http://www.w3.org/2000/svg">
    <path d="M15.515 22.3342C15.1181 21.1957 14.9102 19.9623 14.9102 18.6909C14.9102 17.6662 15.0425 16.6795 15.3071 15.7307C15.2126 15.6548 15.0992 15.5979 14.9669 15.5979H2.98583C2.70236 15.5979 2.45669 15.3512 2.45669 15.0666V2.99813C2.45669 2.7135 2.70236 2.46682 2.98583 2.46682H26.0787C26.3622 2.46682 26.6079 2.7135 26.6079 2.99813V6.64144C26.6079 6.92607 26.8535 7.17275 27.137 7.17275H28.5354C28.8189 7.17275 29.0646 6.92607 29.0646 6.64144V0.531315C29.0646 0.246682 28.8189 0 28.5354 0H0.529134C0.245669 0 0 0.246682 0 0.531315V17.5524C0 17.837 0.245669 18.0837 0.529134 18.0837H12.5102C12.7937 18.0837 13.0394 18.3304 13.0394 18.615V20.4936C13.0394 21.5942 13.0016 22.5809 11.7543 22.5809H8.46614C7.1811 22.5809 5.85827 23.5676 5.85827 24.3266C5.85827 25.0857 5.95276 25.2754 7.27559 25.2754H10.2047C10.8094 25.2754 11.6787 24.3646 12.8504 24.3646H15.515C15.8929 24.3646 16.1575 23.9851 16.0252 23.6245L15.515 22.3342Z" fill="#0078D4"/>
    <path d="M29.3291 13.2832L25.5874 17.0593L29.3291 20.8165L30.5386 19.6021L27.9874 17.0593L30.5386 14.4976L29.3291 13.2832Z" fill="#0078D4"/>
    <path d="M21.959 18.0074L24.5102 20.5691L21.959 23.1118L23.1684 24.3263L26.9102 20.5691L23.1684 16.793L21.959 18.0074Z" fill="#0078D4"/>
    <path d="M26.0787 8.72852C20.6173 8.72852 16.1575 13.2067 16.1575 18.6907C16.1575 24.1746 20.6173 28.6528 26.0787 28.6528C31.5401 28.6528 36 24.1746 36 18.6907C36 13.2067 31.5401 8.72852 26.0787 8.72852ZM26.0787 26.945C21.5433 26.945 17.8583 23.2448 17.8583 18.6907C17.8583 14.1365 21.5433 10.4363 26.0787 10.4363C30.6142 10.4363 34.2992 14.1365 34.2992 18.6907C34.2992 23.2448 30.6142 26.945 26.0787 26.945Z" fill="#0078D4"/>
</svg>
