<svg data-slug-id="virtual-desktop01" viewBox="0 0 60 60" xmlns="http://www.w3.org/2000/svg">
    <path d="M54.348 26.886L54.26 59.92 11.272 35.099l.088-33.033 42.988 24.82z" fill="#DCDCDC"/>
    <path d="M54.348 26.887l3.417-1.988-.087 33.033-3.418 1.988.088-33.034z" fill="#B4B4B4"/>
    <path d="M11.36 2.066L14.778.08 57.764 24.9l-3.417 1.987L11.36 2.066z" fill="#C9C9C9"/>
    <path d="M13.524 6.257l38.574 22.44V56.25L13.524 33.98V6.257z" fill="url(#virtual-desktop01_7e4d9ab2-adcd-4957-8de5-61a0d8fc8948)"/>
    <path d="M18.794 46.704l6.28-3.638 14.427 8.268-6.42 3.636-14.287-8.266z" fill="#D2D2D2"/>
    <path d="M23.19 44.157l1.884-1.09L39.5 51.333l-1.871 1.06-14.44-8.237z" fill="#B4B4B4"/>
    <path d="M33.08 55.777v-.807l-14.286-8.266v.938l14.287 8.135z" fill="#D2D2D2"/>
    <path d="M40.182 51.79l-7.102 3.987v-.807l6.421-3.636.681.456z" fill="#B4B4B4"/>
    <path d="M33.565 24.814l2.523-1.487-.045 19.01-2.523 1.487.045-19.01z" fill="#2195DC"/>
    <path d="M33.531 43.912L5.595 27.702l.046-16.984 27.935 16.21-.045 16.984z" fill="#32B0E7"/>
    <path d="M5.64 8.325l27.942 15.99V28.456L5.641 12.423V8.325z" fill="#156AB3"/>
    <path d="M7.344 10.425c.433.247.743.805.743 1.3 0 .497-.31.683-.743.435-.434-.248-.806-.868-.806-1.302 0-.433.372-.681.806-.433zM9.637 11.788c.433.248.743.806.743 1.301 0 .496-.31.62-.743.372-.434-.248-.744-.806-.744-1.301 0-.434.31-.62.744-.372zM12.053 13.151c.434.248.744.806.744 1.302 0 .495-.31.681-.744.434-.434-.248-.743-.806-.743-1.302s.31-.682.743-.434z" fill="#45CAF2"/>
    <path d="M33.565 24.273l2.523-1.442v4.166l-2.523 1.441v-4.165z" fill="#185A97"/>
    <path d="M5.64 8.325L8.163 6.84 36.11 22.833 33.59 24.32 5.639 8.325z" fill="#0078D4"/>
    <defs>
        <linearGradient id="virtual-desktop01_7e4d9ab2-adcd-4957-8de5-61a0d8fc8948" x1="21.986" y1="13.529" x2="32.654" y2="50.224" gradientUnits="userSpaceOnUse">
            <stop stop-color="#F4F4F4"/>
            <stop offset="1" stop-color="#E2E2E2"/>
        </linearGradient>
    </defs>
</svg>
