<svg data-slug-id="web-application-firewall" viewBox="0 0 48 49" xmlns="http://www.w3.org/2000/svg">
<path d="M36.0583 41.3433C31.6478 44.7655 26.0615 46.3018 20.5213 45.6162C14.9811 44.9306 9.93784 42.0788 6.49465 37.6846C3.05147 33.2905 1.48858 27.7116 2.14782 22.1681C2.80706 16.6247 5.63477 11.568 10.0125 8.10388L10.2605 7.85583C14.7054 4.4897 20.3002 3.01616 25.8266 3.75616C31.3529 4.49615 36.3629 7.38972 39.7656 11.8067C43.1683 16.2236 44.6879 21.8061 43.9936 27.3383C43.2992 32.8705 40.447 37.9043 36.0583 41.3433Z" fill="url(#web-application-firewall_22502a46-14a7-4408-a557-fcf110de02c8)"/>
<path d="M6.7862 28.9406C6.01187 31.0541 5.34947 33.2069 4.80176 35.3901L6.29009 37.6226L7.77842 39.1109C8.31004 36.1114 9.22718 33.1933 10.507 30.4289C9.13739 30.353 7.8304 29.8302 6.7862 28.9406Z" fill="#83B9F9"/>
<path d="M9.26676 17.53C8.42697 15.2028 7.8447 12.7905 7.53037 10.3364C6.48706 11.3824 5.57116 12.5481 4.80176 13.8092C5.06264 15.8452 5.56218 17.8433 6.29009 19.7625C7.0544 18.755 8.08555 17.9817 9.26676 17.53Z" fill="#83B9F9"/>
<path d="M11.4993 30.677C15.1982 30.677 18.1968 27.6784 18.1968 23.9795C18.1968 20.2806 15.1982 17.282 11.4993 17.282C7.80033 17.282 4.80176 20.2806 4.80176 23.9795C4.80176 27.6784 7.80033 30.677 11.4993 30.677Z" fill="url(#web-application-firewall_afa38644-00d0-4a15-a589-f823c1fe8b5f)"/>
<path d="M21.4222 36.3822C21.4579 35.1978 21.8953 34.0606 22.6625 33.1575C20.3405 31.9535 18.2428 30.3592 16.4611 28.4445C15.4614 29.4822 14.1589 30.1768 12.7402 30.4289C13.9177 31.652 15.1598 32.8112 16.4611 33.9017C17.964 35.1259 19.6347 36.1283 21.4222 36.8783V36.3822Z" fill="#83B9F9"/>
<path d="M37.0501 36.8785C34.7151 36.8764 32.3869 36.6269 30.1045 36.1343V36.3824C30.1093 36.9366 30.0019 37.486 29.7887 37.9975C29.5756 38.5091 29.2611 38.9722 28.8643 39.3591C31.6415 39.8945 34.4773 40.0613 37.2981 39.8552C38.2904 38.8629 39.2826 37.6227 40.2748 36.6305C39.2143 36.846 38.1311 36.9293 37.0501 36.8785Z" fill="#83B9F9"/>
<path d="M24.6469 15.0494C29.1979 12.7944 34.2032 11.6067 39.2821 11.5767C38.2266 10.2357 36.9718 9.06448 35.5613 8.10387C31.5554 8.39224 27.6205 9.31318 23.9027 10.8325C23.0516 11.1955 22.2232 11.6097 21.4221 12.0728C19.546 9.83614 17.885 7.42761 16.461 4.87915C15.6659 4.93444 14.8978 5.19048 14.2285 5.62332C15.7339 8.33571 17.4771 10.9091 19.4377 13.313C17.4282 14.4533 15.5908 15.8732 13.9805 17.53C15.3083 18.0896 16.4335 19.0417 17.2052 20.2586C18.6007 18.8109 20.1862 17.5592 21.9182 16.5378C24.6781 19.5113 27.7559 22.1732 31.0963 24.4755C31.3451 23.5234 31.8616 22.6626 32.5846 21.995C29.7658 19.8851 27.1122 17.5632 24.6469 15.0494Z" fill="#83B9F9"/>
<path d="M35.8107 30.1809C38.4137 30.1809 40.5238 28.0708 40.5238 25.4679C40.5238 22.8649 38.4137 20.7548 35.8107 20.7548C33.2078 20.7548 31.0977 22.8649 31.0977 25.4679C31.0977 28.0708 33.2078 30.1809 35.8107 30.1809Z" fill="#F2F2F2"/>
<path d="M43.7482 28.6925C43.5002 28.4445 43.2521 28.4445 43.0041 28.1964C42.756 27.9483 42.5079 27.9483 42.2599 27.7003H42.0118L41.2677 27.2042H41.0196L40.2754 26.7081C40.0844 27.6157 39.5515 28.4151 38.7871 28.9406C39.0352 29.1886 39.2832 29.1886 39.7793 29.4367H40.0274C40.2754 29.6847 40.5235 29.6847 40.7716 29.9328C41.5157 30.4289 42.2599 30.677 43.0041 31.1731C43.2521 30.4289 43.5002 29.4367 43.7482 28.6925Z" fill="#83B9F9"/>
<path d="M11.4993 30.677C15.1982 30.677 18.1968 27.6784 18.1968 23.9795C18.1968 20.2806 15.1982 17.282 11.4993 17.282C7.80033 17.282 4.80176 20.2806 4.80176 23.9795C4.80176 27.6784 7.80033 30.677 11.4993 30.677Z" fill="#F2F2F2"/>
<path d="M25.8879 40.8473C28.3538 40.8473 30.3529 38.8482 30.3529 36.3823C30.3529 33.9163 28.3538 31.9173 25.8879 31.9173C23.4219 31.9173 21.4229 33.9163 21.4229 36.3823C21.4229 38.8482 23.4219 40.8473 25.8879 40.8473Z" fill="#F2F2F2"/>
<path d="M14.4773 28.9406H44.492C44.9881 28.9406 45.7323 29.4367 45.7323 29.9328V45.8084C45.7113 46.1304 45.5739 46.4339 45.3457 46.6621C45.1175 46.8903 44.8141 47.0277 44.492 47.0487H14.4773C14.1827 47.0125 13.9139 46.8625 13.7284 46.6307C13.543 46.3989 13.4557 46.1038 13.4851 45.8084V30.1809C13.4557 29.8855 13.543 29.5903 13.7284 29.3585C13.9139 29.1268 14.1827 28.9767 14.4773 28.9406Z" fill="#821010"/>
<path d="M23.6546 30.925H14.7246V34.8939H23.6546V30.925Z" fill="#E62323"/>
<path d="M34.0736 30.925H25.1436V34.8939H34.0736V30.925Z" fill="#FF7381"/>
<path d="M44.2435 30.925H35.3135V34.8939H44.2435V30.925Z" fill="#E62323"/>
<path d="M18.4454 36.1343H14.7246V40.1032H18.4454V36.1343Z" fill="#E62323"/>
<path d="M44.2443 36.1343H40.5234V40.1032H44.2443V36.1343Z" fill="#FF7381"/>
<path d="M28.8655 36.1343H19.9355V40.1032H28.8655V36.1343Z" fill="#FF7381"/>
<path d="M39.0345 36.1343H30.1045V40.1032H39.0345V36.1343Z" fill="#E62323"/>
<path d="M23.6546 41.3434H14.7246V45.3123H23.6546V41.3434Z" fill="#E62323"/>
<path d="M34.0736 41.3434H25.1436V45.3123H34.0736V41.3434Z" fill="#FF7381"/>
<path d="M44.2435 41.3434H35.3135V45.3123H44.2435V41.3434Z" fill="#E62323"/>
<defs>
<radialGradient id="web-application-firewall_22502a46-14a7-4408-a557-fcf110de02c8" cx="0" cy="0" r="1" gradientUnits="userSpaceOnUse" gradientTransform="translate(23.0592 24.7153) scale(21.0696)">
<stop offset="0.183" stop-color="#5EA0EF"/>
<stop offset="1" stop-color="#0078D4"/>
</radialGradient>
<linearGradient id="web-application-firewall_afa38644-00d0-4a15-a589-f823c1fe8b5f" x1="11.5538" y1="30.9176" x2="11.4769" y2="21.0971" gradientUnits="userSpaceOnUse">
<stop stop-color="#CCCCCC"/>
<stop offset="0.123" stop-color="#D7D7D7"/>
<stop offset="0.421" stop-color="#EBEBEB"/>
<stop offset="0.716" stop-color="#F8F8F8"/>
<stop offset="1" stop-color="#FCFCFC"/>
</linearGradient>
</defs>
</svg>
