<svg data-slug-id="webapp-firewall" viewBox="0 0 24 24" xmlns="http://www.w3.org/2000/svg">
<path d="M20.9582 13.7404C19.5753 14.7983 17.9462 15.3133 16.3281 15.3133C14.0323 15.3133 11.7624 14.2823 10.2624 12.32C7.69917 8.97299 8.33181 4.18596 11.6841 1.62132C13.0665 0.557156 14.6981 0.0493164 16.3137 0.0493164C18.6096 0.0493164 20.88 1.08036 22.3795 3.04452C24.9432 6.39059 24.3043 11.1786 20.9582 13.7404Z" fill="#59B4D9"/>
<path d="M19.5562 9.01965C20.1106 9.74253 21.1392 9.87357 21.8582 9.32637C21.8957 9.29757 21.925 9.26301 21.959 9.2318C22.6944 9.75021 23.2051 10.092 23.4931 10.2878C23.5781 10.067 23.6371 9.85532 23.6976 9.63356C23.3938 9.40749 22.9824 9.09068 22.3882 8.60876C22.583 8.09564 22.5216 7.49709 22.1654 7.03005C21.6562 6.37052 20.7533 6.20301 20.0482 6.60957C19.271 5.91213 18.4171 5.11293 17.5166 4.21773C20.3146 2.71293 22.3022 2.93325 22.3022 2.93325C21.9696 2.51037 21.5976 2.13981 21.2006 1.80477C20.0208 1.62237 18.1877 1.64301 16.0934 2.75709L16.093 2.75613H16.0925C15.3946 2.02557 14.6842 1.24221 13.9608 0.401245C13.6147 0.512125 13.2763 0.649405 12.9499 0.812605C13.4837 1.68669 14.2022 2.56797 15.012 3.42765C15.0134 3.42957 15.0154 3.43101 15.0173 3.43293C14.3424 3.90477 13.5907 4.53596 12.8976 5.2694C12.8093 5.36397 12.7238 5.45853 12.6403 5.55357C12.2261 5.46668 11.7902 5.49213 11.3837 5.63948C10.6925 4.14812 10.7482 2.94957 10.8576 2.33181C10.5576 2.64621 10.2773 2.97693 10.0358 3.32925C9.85536 4.06653 9.804 5.13021 10.3363 6.41181C9.72 7.21869 9.69072 8.36253 10.3349 9.20637C10.3886 9.27645 10.4462 9.34125 10.5058 9.40316C10.2245 10.3612 10.0987 11.2848 10.0598 12.0782C10.1323 12.1766 10.1323 12.2558 10.2038 12.3518C10.5701 12.8212 11.0294 13.2172 11.4739 13.5758C11.4192 12.7363 11.4782 11.4979 11.9971 10.1035C12.3552 10.1308 12.7195 10.0742 13.0603 9.93069C13.2557 10.1025 13.4602 10.2763 13.6786 10.4529C14.4274 11.0457 15.1742 11.5075 15.9024 11.8708C15.8645 12.2414 15.9571 12.6264 16.1981 12.9451C16.7126 13.6094 17.665 13.7332 18.3298 13.2259C18.468 13.1198 18.5774 12.9921 18.6682 12.8544C19.8552 13.1188 20.893 13.1654 21.6619 13.1654C21.7795 13.1654 22.3267 12.4214 22.6397 11.9606C22.1712 12.0585 20.7826 12.2496 18.8846 11.7043C18.839 11.4912 18.7512 11.2843 18.6106 11.0995C18.1286 10.4673 17.2474 10.3305 16.5902 10.7534C15.9307 10.3953 15.2395 9.94701 14.5272 9.38253C14.3832 9.26877 14.2454 9.15501 14.1125 9.04125C14.5478 8.35533 14.5944 7.47597 14.2094 6.73581C14.2968 6.64845 14.3827 6.56061 14.4754 6.47421C15.181 5.81517 15.8443 5.28717 16.4654 4.86381C16.4405 4.84077 16.4179 4.81629 16.3934 4.79277C16.4184 4.8158 16.4414 4.83932 16.4664 4.86189C16.4659 4.86189 16.4659 4.86237 16.4659 4.86237C17.4187 5.74365 18.4286 6.57885 19.3858 7.32477C19.1314 7.86285 19.1712 8.51661 19.5562 9.01965Z" fill="white"/>
<path d="M20.16 13.56V10.44C20.16 10.2413 19.9987 10.08 19.8 10.08H17.64C17.4413 10.08 17.28 10.2413 17.28 10.44C17.28 10.2413 17.1187 10.08 16.92 10.08H11.88C11.6813 10.08 11.52 10.2413 11.52 10.44C11.52 10.2413 11.3587 10.08 11.16 10.08H6.12C5.92128 10.08 5.76 10.2413 5.76 10.44C5.76 10.2413 5.59872 10.08 5.4 10.08H0.36C0.16128 10.08 0 10.2413 0 10.44V13.56C0 13.7587 0.16128 13.92 0.36 13.92C0.16128 13.92 0 14.0813 0 14.28V16.92C0 17.1187 0.16128 17.28 0.36 17.28C0.16128 17.28 0 17.4413 0 17.64V20.28C0 20.4787 0.16128 20.64 0.36 20.64C0.16128 20.64 0 20.8013 0 21V23.64C0 23.8387 0.16128 24 0.36 24H2.52C2.71872 24 2.88 23.8387 2.88 23.64C2.88 23.8387 3.04128 24 3.24 24H8.28C8.47872 24 8.64 23.8387 8.64 23.64C8.64 23.8387 8.80128 24 9 24H14.04C14.2387 24 14.4 23.8387 14.4 23.64C14.4 23.8387 14.5613 24 14.76 24H19.8C19.9987 24 20.16 23.8387 20.16 23.64V21C20.16 20.8013 19.9987 20.64 19.8 20.64C19.9987 20.64 20.16 20.4787 20.16 20.28V17.64C20.16 17.4413 19.9987 17.28 19.8 17.28C19.9987 17.28 20.16 17.1187 20.16 16.92V14.28C20.16 14.0813 19.9987 13.92 19.8 13.92C19.9987 13.92 20.16 13.7587 20.16 13.56Z" fill="#A0A1A2"/>
<path d="M11.04 11.04H6.23999V13.44H11.04V11.04Z" fill="#BA141A"/>
<path d="M16.8 11.04H12V13.44H16.8V11.04Z" fill="#BA141A"/>
<path d="M5.27998 11.04H0.47998V13.44H5.27998V11.04Z" fill="#DD5900"/>
<path d="M13.92 14.4H9.12V16.8H13.92V14.4Z" fill="#DD5900"/>
<path d="M19.68 14.4H14.88V16.8H19.68V14.4Z" fill="#BA141A"/>
<path d="M2.39998 14.4H0.47998V16.8H2.39998V14.4Z" fill="#BA141A"/>
<path d="M8.15999 14.4H3.35999V16.8H8.15999V14.4Z" fill="#BA141A"/>
<path d="M11.04 17.7599H6.23999V20.1599H11.04V17.7599Z" fill="#BA141A"/>
<path d="M16.8 17.7599H12V20.1599H16.8V17.7599Z" fill="#DD5900"/>
<path d="M5.27998 17.7599H0.47998V20.1599H5.27998V17.7599Z" fill="#DD5900"/>
<path d="M19.68 21.12H14.88V23.52H19.68V21.12Z" fill="#BA141A"/>
<path d="M13.92 21.12H9.12V23.52H13.92V21.12Z" fill="#BA141A"/>
<path d="M2.39998 21.12H0.47998V23.52H2.39998V21.12Z" fill="#DD5900"/>
<path d="M19.68 11.04H17.76V13.44H19.68V11.04Z" fill="#DD5900"/>
<path d="M19.68 17.7599H17.76V20.1599H19.68V17.7599Z" fill="#DD5900"/>
<path d="M8.15999 21.12H3.35999V23.52H8.15999V21.12Z" fill="#BA141A"/>
</svg>
