<svg data-slug-id="wifi-routes" viewBox="0 0 49 48" xmlns="http://www.w3.org/2000/svg">
<path d="M48.5 37.7184H0.5V46.6505H48.5V37.7184Z" fill="#0078D4"/>
<path d="M23.8461 7.23051C29.0364 7.23051 33.764 9.16178 37.365 12.3403L41.2074 8.75943C36.6508 4.56496 30.5553 2 23.8461 2C17.1068 2 10.961 4.59514 6.38428 8.84996L10.2468 12.4107C13.8579 9.19195 18.6257 7.23051 23.8461 7.23051Z" fill="#0078D4"/>
<path d="M12.9828 14.9254L15.7087 17.43C17.9316 15.6597 20.7581 14.5935 23.8361 14.5935C26.8838 14.5935 29.6902 15.6396 31.9132 17.3898L34.619 14.8651C31.702 12.4107 27.94 10.9221 23.8361 10.9221C19.6919 10.9221 15.8998 12.4309 12.9828 14.9254Z" fill="#0078D4"/>
<path d="M18.4546 19.9633L19.8326 21.2307C20.9894 20.5165 22.3574 20.0941 23.8159 20.0941C25.2744 20.0941 26.6323 20.5065 27.779 21.2106L29.147 19.9331C27.6382 18.887 25.7974 18.2734 23.8159 18.2734C21.8242 18.2734 19.9734 18.8971 18.4546 19.9633Z" fill="#50E6FF"/>
<path d="M23.796 28.7375C25.4182 28.7375 26.7332 27.4225 26.7332 25.8004C26.7332 24.1783 25.4182 22.8633 23.796 22.8633C22.1739 22.8633 20.8589 24.1783 20.8589 25.8004C20.8589 27.4225 22.1739 28.7375 23.796 28.7375Z" fill="#0078D4"/>
<path d="M6.63586 43.0275H3.84961L4.96612 23.7148H5.51935L6.63586 43.0275Z" fill="#0078D4"/>
<path d="M45.1505 37.8908H42.3643L43.4808 18.5781H44.034L45.1505 37.8908Z" fill="#0078D4"/>
<path d="M5.24748 44.1141C6.40297 44.1141 7.33968 43.1774 7.33968 42.0219C7.33968 40.8664 6.40297 39.9297 5.24748 39.9297C4.09198 39.9297 3.15527 40.8664 3.15527 42.0219C3.15527 43.1774 4.09198 44.1141 5.24748 44.1141Z" fill="#50E6FF"/>
<path d="M45.3919 43.14C46.0085 43.14 46.5084 42.6401 46.5084 42.0235C46.5084 41.4069 46.0085 40.907 45.3919 40.907C44.7753 40.907 44.2754 41.4069 44.2754 42.0235C44.2754 42.6401 44.7753 43.14 45.3919 43.14Z" fill="white"/>
<path d="M41.2474 43.14C41.864 43.14 42.3639 42.6401 42.3639 42.0235C42.3639 41.4069 41.864 40.907 41.2474 40.907C40.6307 40.907 40.1309 41.4069 40.1309 42.0235C40.1309 42.6401 40.6307 43.14 41.2474 43.14Z" fill="white"/>
<path d="M36.4398 43.14C37.0564 43.14 37.5563 42.6401 37.5563 42.0235C37.5563 41.4069 37.0564 40.907 36.4398 40.907C35.8231 40.907 35.3232 41.4069 35.3232 42.0235C35.3232 42.6401 35.8231 43.14 36.4398 43.14Z" fill="white"/>
</svg>
