<svg data-slug-id="windows-server-migration" viewBox="0 0 145 48" xmlns="http://www.w3.org/2000/svg">
<path d="M0 6.84932L19.5616 4.16438V23.0685H0V6.84932ZM21.9178 3.78082L47.8356 0V22.9041H21.9178V3.78082ZM0 25.0411H19.5616V44L0 41.2603V25.0411ZM21.9178 25.3151H47.8356V48L21.9178 44.3288" fill="#00188F"/>
<path d="M77.6293 6.59204L73.4723 21.3279H71.4368L68.3978 10.577C68.2545 10.1183 68.1972 9.63096 68.1685 9.08624H68.1398C68.1112 9.60229 67.9965 10.0897 67.8818 10.577L64.8429 21.3566H62.8361L58.5357 6.62071H60.4279L63.5528 17.9163C63.6961 18.375 63.7535 18.891 63.8108 19.4071H63.8681C63.8968 19.0344 64.0115 18.547 64.1835 17.9163L67.4518 6.62071H69.1146L72.1822 17.9736C72.2968 18.375 72.3828 18.8337 72.4402 19.3497H72.4688C72.4975 19.0057 72.5835 18.5183 72.7555 17.945L75.7371 6.59204H77.6293Z" fill="#00188F"/>
<path d="M81.096 8.141C80.7806 8.141 80.5512 8.02633 80.3219 7.82564C80.1212 7.62496 80.0065 7.36694 80.0065 7.05158C80.0065 6.73622 80.1212 6.4782 80.3219 6.27752C80.5226 6.07683 80.7806 5.96216 81.096 5.96216C81.4113 5.96216 81.6693 6.07683 81.87 6.27752C82.0994 6.4782 82.1854 6.73622 82.1854 7.05158C82.1854 7.36694 82.0707 7.59629 81.87 7.82564C81.6693 8.02633 81.4113 8.141 81.096 8.141ZM81.8987 21.3287H80.2072V10.8072H81.8987V21.3287Z" fill="#00188F"/>
<path d="M94.1261 21.3293H92.4346V15.3375C92.4346 13.1013 91.6319 11.9833 89.9977 11.9833C89.1663 11.9833 88.4496 12.2986 87.9049 12.9293C87.3602 13.5601 87.0735 14.3628 87.0735 15.3089V21.3007H85.382V10.8078H87.0735V12.5566H87.1022C87.9049 11.2379 89.0517 10.5498 90.5424 10.5498C91.6892 10.5498 92.5779 10.9225 93.18 11.6679C93.782 12.4133 94.0974 13.474 94.0974 14.8788L94.1261 21.3293Z" fill="#00188F"/>
<path d="M106.17 21.3273H104.479V19.5498H104.45C103.676 20.8972 102.472 21.5853 100.838 21.5853C99.5189 21.5853 98.4582 21.1266 97.6554 20.1805C96.8814 19.2344 96.48 17.9443 96.48 16.3389C96.48 14.5901 96.91 13.2139 97.7988 12.1532C98.6875 11.0924 99.8343 10.5764 101.296 10.5764C102.73 10.5764 103.791 11.1498 104.45 12.2679H104.479V5.76001H106.17V21.3273ZM104.479 16.5682V15.0201C104.479 14.16 104.192 13.4433 103.647 12.8699C103.103 12.2965 102.386 11.9812 101.497 11.9812C100.465 11.9812 99.6623 12.3539 99.0602 13.0993C98.4582 13.8447 98.1715 14.9054 98.1715 16.2242C98.1715 17.4283 98.4582 18.403 99.0029 19.0911C99.5763 19.7791 100.322 20.1518 101.296 20.1518C102.242 20.1518 102.988 19.8078 103.59 19.1484C104.192 18.4604 104.479 17.6003 104.479 16.5682Z" fill="#00188F"/>
<path d="M114.105 21.5869C112.557 21.5869 111.296 21.0995 110.378 20.1248C109.461 19.1501 109.002 17.8313 109.002 16.2258C109.002 14.4483 109.49 13.0722 110.464 12.0975C111.439 11.0941 112.729 10.6067 114.363 10.6067C115.94 10.6067 117.144 11.0941 118.033 12.0688C118.922 13.0436 119.352 14.3623 119.352 16.0825C119.352 17.7739 118.864 19.0927 117.918 20.1248C116.972 21.0709 115.682 21.5869 114.105 21.5869ZM114.22 11.9828C113.13 11.9828 112.27 12.3555 111.64 13.1009C111.009 13.8463 110.694 14.8497 110.694 16.1398C110.694 17.3726 111.009 18.376 111.64 19.0927C112.27 19.8094 113.13 20.1821 114.191 20.1821C115.281 20.1821 116.112 19.8381 116.685 19.1214C117.287 18.4047 117.574 17.4012 117.574 16.1111C117.574 14.7924 117.287 13.7889 116.685 13.0722C116.141 12.3268 115.309 11.9828 114.22 11.9828Z" fill="#00188F"/>
<path d="M135.371 10.8066L132.217 21.3282H130.469L128.318 13.7882C128.232 13.5015 128.175 13.1862 128.146 12.8135H128.118C128.089 13.0715 128.032 13.3869 127.888 13.7595L125.538 21.2995H123.846L120.664 10.8066H122.441L124.62 18.7193C124.677 18.9486 124.735 19.264 124.763 19.6654H124.849C124.878 19.35 124.935 19.0346 125.021 18.6906L127.458 10.8066H129.006L131.185 18.748C131.243 19.006 131.3 19.3213 131.329 19.694H131.415C131.415 19.436 131.501 19.1207 131.587 18.748L133.737 10.8066H135.371Z" fill="#00188F"/>
<path d="M137.348 20.9562V19.1501C138.265 19.8381 139.268 20.1535 140.386 20.1535C141.877 20.1535 142.594 19.6661 142.594 18.6627C142.594 18.376 142.537 18.1466 142.393 17.946C142.279 17.7453 142.107 17.5733 141.877 17.4299C141.677 17.2866 141.419 17.1432 141.103 17.0285C140.816 16.9139 140.501 16.7705 140.157 16.6558C139.698 16.4838 139.268 16.2832 138.924 16.1111C138.58 15.9105 138.294 15.7098 138.036 15.4804C137.806 15.2511 137.634 14.9644 137.491 14.6777C137.376 14.3623 137.319 14.0183 137.319 13.6169C137.319 13.1296 137.434 12.6995 137.663 12.3268C137.892 11.9541 138.179 11.6388 138.58 11.3808C138.953 11.1227 139.383 10.922 139.87 10.8074C140.358 10.664 140.845 10.6067 141.361 10.6067C142.279 10.6067 143.081 10.75 143.798 11.0654V12.7569C143.024 12.2408 142.135 11.9828 141.132 11.9828C140.816 11.9828 140.53 12.0115 140.272 12.0975C140.014 12.1548 139.813 12.2695 139.612 12.3842C139.44 12.5275 139.297 12.6709 139.182 12.8429C139.096 13.0149 139.039 13.2156 139.039 13.4449C139.039 13.7316 139.096 13.961 139.182 14.133C139.297 14.305 139.44 14.477 139.612 14.6203C139.784 14.7637 140.042 14.907 140.3 15.0217C140.558 15.1364 140.874 15.2511 141.247 15.3944C141.705 15.5664 142.135 15.7671 142.508 15.9391C142.881 16.1111 143.196 16.3405 143.454 16.5698C143.712 16.7992 143.913 17.0859 144.056 17.3726C144.199 17.6879 144.285 18.0606 144.285 18.462C144.285 18.978 144.171 19.4367 143.941 19.8094C143.712 20.1821 143.397 20.4975 143.024 20.7555C142.651 21.0135 142.193 21.1855 141.705 21.3289C141.218 21.4436 140.673 21.5009 140.128 21.5009C139.096 21.5869 138.15 21.3576 137.348 20.9562Z" fill="#00188F"/>
<path d="M58.7711 42.3727V40.3372C59.0005 40.5379 59.2872 40.7386 59.6025 40.8819C59.9179 41.0539 60.2619 41.1973 60.6346 41.3119C61.0073 41.4266 61.3513 41.5126 61.724 41.57C62.0967 41.6273 62.4121 41.656 62.7274 41.656C63.7882 41.656 64.5909 41.4553 65.107 41.0826C65.623 40.6812 65.9097 40.1078 65.9097 39.3911C65.9097 38.9897 65.8237 38.6457 65.6517 38.359C65.4797 38.0723 65.2503 37.7856 64.935 37.5563C64.6196 37.2983 64.2469 37.0689 63.8455 36.8682C63.4155 36.6389 62.9855 36.4095 62.4981 36.1515C61.982 35.8935 61.4947 35.6355 61.0646 35.3488C60.6059 35.0908 60.2332 34.7754 59.9179 34.46C59.6025 34.1447 59.3158 33.772 59.1438 33.3706C58.9718 32.9693 58.8571 32.4819 58.8571 31.9372C58.8571 31.2778 59.0005 30.6757 59.2872 30.1884C59.5739 29.701 59.9752 29.271 60.4339 28.9556C60.9213 28.6402 61.466 28.3822 62.0681 28.2389C62.6701 28.0955 63.3008 28.0095 63.9602 28.0095C65.4223 28.0095 66.4831 28.1815 67.1425 28.5256V30.4751C66.2824 29.873 65.1643 29.5576 63.7882 29.5576C63.4155 29.5576 63.0428 29.5863 62.6701 29.6723C62.2974 29.7583 61.9534 29.873 61.6667 30.045C61.38 30.217 61.122 30.4464 60.95 30.7331C60.7779 31.0198 60.6633 31.3638 60.6633 31.7652C60.6633 32.1379 60.7206 32.4532 60.864 32.7399C61.0073 33.0266 61.208 33.2559 61.4947 33.4853C61.7814 33.7147 62.0967 33.944 62.4981 34.1447C62.8995 34.3454 63.3582 34.6034 63.8742 34.8327C64.3902 35.0908 64.9063 35.3775 65.365 35.6641C65.8237 35.9508 66.2537 36.2662 66.5978 36.6102C66.9418 36.9542 67.2285 37.3556 67.4292 37.757C67.6298 38.187 67.7445 38.6744 67.7445 39.2191C67.7445 39.9358 67.6012 40.5665 67.3145 41.0539C67.0278 41.5413 66.6551 41.9713 66.1677 42.2867C65.6804 42.602 65.1356 42.8314 64.5049 42.9747C63.8742 43.1181 63.2148 43.2041 62.4981 43.2041C62.2687 43.2041 61.982 43.1754 61.638 43.1468C61.294 43.1181 60.95 43.0607 60.5773 42.9747C60.2332 42.9174 59.8892 42.8314 59.5739 42.7167C59.2012 42.6307 58.9431 42.516 58.7711 42.3727Z" fill="#00188F"/>
<path d="M78.5811 38.1293H71.1558C71.1845 39.3047 71.4998 40.1935 72.1019 40.8529C72.7039 41.4836 73.5353 41.7989 74.5961 41.7989C75.7715 41.7989 76.8609 41.3976 77.8644 40.6235V42.2003C76.9469 42.8597 75.7142 43.2037 74.1947 43.2037C72.7039 43.2037 71.5285 42.7163 70.6971 41.7703C69.837 40.8242 69.4357 39.4768 69.4357 37.7279C69.4357 36.0938 69.8944 34.7464 70.8118 33.743C71.7292 32.7109 72.9046 32.1948 74.2807 32.1948C75.6568 32.1948 76.7176 32.6535 77.463 33.5423C78.2084 34.431 78.5811 35.6638 78.5811 37.2406V38.1293ZM76.8609 36.6959C76.8609 35.7211 76.6316 34.9757 76.1442 34.431C75.6855 33.8863 75.0548 33.6283 74.2234 33.6283C73.4207 33.6283 72.7613 33.915 72.1879 34.4883C71.6145 35.0617 71.2992 35.8071 71.1558 36.7245L76.8609 36.6959Z" fill="#00188F"/>
<path d="M87.2581 34.1734C86.9714 33.9441 86.5413 33.8294 85.9966 33.8294C85.2799 33.8294 84.6779 34.1734 84.1905 34.8328C83.7031 35.5208 83.4738 36.4383 83.4738 37.6137V42.9748H81.7823V32.4533H83.4738V34.6321H83.5024C83.7318 33.8867 84.1045 33.3133 84.5918 32.912C85.0792 32.4819 85.6239 32.2812 86.2546 32.2812C86.6847 32.2812 87.0287 32.3386 87.2581 32.4246V34.1734Z" fill="#00188F"/>
<path d="M98.3384 32.4517L94.1527 42.9732H92.4899L88.5049 32.4517H90.3397L93.0059 40.1063C93.2066 40.6797 93.3213 41.167 93.3786 41.5684H93.4073C93.4646 41.0524 93.5793 40.565 93.7226 40.135L96.5035 32.4517H98.3384Z" fill="#00188F"/>
<path d="M108.536 38.1293H101.111C101.139 39.3047 101.455 40.1935 102.057 40.8529C102.659 41.4836 103.49 41.7989 104.551 41.7989C105.727 41.7989 106.816 41.3976 107.819 40.6235V42.2003C106.902 42.8597 105.669 43.2037 104.15 43.2037C102.659 43.2037 101.484 42.7163 100.652 41.7703C99.7921 40.8242 99.3907 39.4768 99.3907 37.7279C99.3907 36.0938 99.8494 34.7464 100.767 33.743C101.684 32.7109 102.86 32.1948 104.236 32.1948C105.612 32.1948 106.673 32.6535 107.418 33.5423C108.163 34.431 108.536 35.6638 108.536 37.2406V38.1293ZM106.816 36.6959C106.816 35.7211 106.587 34.9757 106.099 34.431C105.641 33.8863 105.01 33.6283 104.178 33.6283C103.376 33.6283 102.716 33.915 102.143 34.4883C101.57 35.0617 101.254 35.8071 101.111 36.7245L106.816 36.6959Z" fill="#00188F"/>
<path d="M117.14 34.1734C116.853 33.9441 116.423 33.8294 115.878 33.8294C115.162 33.8294 114.56 34.1734 114.072 34.8328C113.585 35.5208 113.355 36.4383 113.355 37.6137V42.9748H111.664V32.4533H113.355V34.6321H113.384C113.613 33.8867 113.986 33.3133 114.474 32.912C114.961 32.4819 115.506 32.2812 116.136 32.2812C116.566 32.2812 116.91 32.3386 117.14 32.4246V34.1734Z" fill="#00188F"/>
</svg>
