<svg data-slug-id="youtube" viewBox="0 0 36 36" xmlns="http://www.w3.org/2000/svg">
    <rect xmlns="http://www.w3.org/2000/svg" width="36" height="36" rx="2" fill="white"/>
    <path d="M15.3 14.3506L22.7876 19.4632L23.6011 16.8701L15.3 14.3506Z" fill="#E9E9E9"/>
    <path fill-rule="evenodd" d="M8.35172 8.95959C8.35172 8.95959 11.6892 8.65063 18.1289 8.65063C24.5685 8.65063 27.6244 8.95959 27.6244 8.95959C27.6244 8.95959 29.9667 9.04101 30.8822 10.7908C30.8822 10.7908 31.7977 12.0604 31.7977 18.2506C31.7977 18.2506 31.8529 22.0829 31.4191 24.1202C30.9852 26.1575 30.0273 26.7525 30.0273 26.7525C30.0273 26.7525 29.4127 27.3475 28.0571 27.5097C26.7015 27.672 22.3059 27.8506 18.1289 27.8506C18.1289 27.8506 10.4821 27.8463 7.90638 27.4216C5.33068 26.997 4.96884 24.5977 4.96884 24.5977C4.96884 24.5977 3.91395 18.524 4.96884 11.9104C4.96884 11.9104 5.27417 9.26862 8.35172 8.95959V8.95959ZM22.8 18.1006L15.3 21.8506V14.3506L22.8 18.1006Z" fill="#E72B22"/>
</svg>
